%TF.GenerationSoftware,KiCad,Pcbnew,7.0.10*%
%TF.CreationDate,2024-08-19T09:52:39-07:00*%
%TF.ProjectId,LCP_PowerControl,4c43505f-506f-4776-9572-436f6e74726f,rev?*%
%TF.SameCoordinates,Original*%
%TF.FileFunction,Drillmap*%
%TF.FilePolarity,Positive*%
%FSLAX45Y45*%
G04 Gerber Fmt 4.5, Leading zero omitted, Abs format (unit mm)*
G04 Created by KiCad (PCBNEW 7.0.10) date 2024-08-19 09:52:39*
%MOMM*%
%LPD*%
G01*
G04 APERTURE LIST*
%ADD10C,0.250000*%
%ADD11C,0.100000*%
%ADD12C,0.200000*%
%ADD13C,0.101000*%
%ADD14C,0.102000*%
%ADD15C,0.120000*%
G04 APERTURE END LIST*
D10*
X6971539Y-8743220D02*
G75*
G03*
X7061774Y-8996096I248201J-53971D01*
G01*
X13609785Y-6899631D02*
X13609780Y-6927836D01*
X12166600Y-7181851D02*
G75*
G03*
X12211050Y-12583703I44450J-2700743D01*
G01*
X7905229Y-10670491D02*
G75*
G03*
X7061774Y-10769092I-342179J-729779D01*
G01*
X7905230Y-10670489D02*
G75*
G03*
X8152971Y-10366012I85876J183153D01*
G01*
X16379084Y-12581344D02*
X14557012Y-12581344D01*
X12166600Y-7181850D02*
X13347700Y-7181850D01*
X8152971Y-9399175D02*
G75*
G03*
X8152971Y-10366012I644954J-483419D01*
G01*
X13357588Y-12581344D02*
X12211050Y-12583703D01*
X7080250Y-8324850D02*
G75*
G03*
X6971446Y-8743199I5130800J-1557740D01*
G01*
X13347700Y-7181844D02*
G75*
G03*
X13609780Y-6927836I9890J252004D01*
G01*
X14557012Y-12581341D02*
G75*
G03*
X14304815Y-12865556I-2J-253999D01*
G01*
D11*
X16586347Y-6783013D02*
G75*
G03*
X14751942Y-5160892I-4375297J-3099587D01*
G01*
D10*
X14557012Y-7183844D02*
X16379084Y-7183844D01*
X14304815Y-6899631D02*
G75*
G03*
X13609785Y-6899631I-347515J41631D01*
G01*
X13609782Y-12865556D02*
G75*
G03*
X13357588Y-12581344I-252193J30216D01*
G01*
D11*
X8916138Y-5652447D02*
G75*
G03*
X7723383Y-6948066I3294912J-4230153D01*
G01*
X12839896Y-4557638D02*
G75*
G03*
X11163530Y-4623953I-628846J-5324962D01*
G01*
D10*
X7723383Y-6948066D02*
G75*
G03*
X7080346Y-8324879I4487667J-2934528D01*
G01*
D11*
X14751942Y-5160892D02*
G75*
G03*
X12839896Y-4557638I-2540892J-4721698D01*
G01*
D10*
X16584049Y-12985396D02*
G75*
G03*
X16379084Y-12581314I-204969J150056D01*
G01*
X8152973Y-9399177D02*
G75*
G03*
X7905230Y-9094699I-161863J121327D01*
G01*
X15250653Y-14299768D02*
G75*
G03*
X16584056Y-12985402I-3039603J4417168D01*
G01*
X7061773Y-8996098D02*
G75*
G03*
X7905230Y-9094699I501277J631178D01*
G01*
X16379084Y-7183841D02*
G75*
G03*
X16586345Y-6783014I-4J254002D01*
G01*
X13609785Y-12865556D02*
G75*
G03*
X14304788Y-12865329I347515J-41631D01*
G01*
X14304809Y-6899631D02*
G75*
G03*
X14557012Y-7183844I252201J-30209D01*
G01*
D11*
X11163530Y-4623952D02*
G75*
G03*
X8916137Y-5652446I1047520J-5258638D01*
G01*
D10*
X7061774Y-10769092D02*
G75*
G03*
X6971543Y-11021967I157969J-198902D01*
G01*
D11*
X11569610Y-15206046D02*
G75*
G03*
X15250652Y-14299767I641440J5323456D01*
G01*
X6971543Y-11021967D02*
G75*
G03*
X11569610Y-15206047I5239507J1139373D01*
G01*
D12*
D11*
X7924000Y-7417000D02*
X7954000Y-7447000D01*
X7954000Y-7417000D02*
X7924000Y-7447000D01*
X7994000Y-7509000D02*
X8024000Y-7539000D01*
X8024000Y-7509000D02*
X7994000Y-7539000D01*
X8524000Y-7820000D02*
X8554000Y-7850000D01*
X8554000Y-7820000D02*
X8524000Y-7850000D01*
X8550784Y-7714026D02*
X8580784Y-7744026D01*
X8580784Y-7714026D02*
X8550784Y-7744026D01*
X8594000Y-8794000D02*
X8624000Y-8824000D01*
X8624000Y-8794000D02*
X8594000Y-8824000D01*
X8606250Y-11300500D02*
X8636250Y-11330500D01*
X8636250Y-11300500D02*
X8606250Y-11330500D01*
X8606250Y-11300500D02*
X8636250Y-11330500D01*
X8636250Y-11300500D02*
X8606250Y-11330500D01*
X8606250Y-11300500D02*
X8636250Y-11330500D01*
X8636250Y-11300500D02*
X8606250Y-11330500D01*
X8606250Y-11300500D02*
X8636250Y-11330500D01*
X8636250Y-11300500D02*
X8606250Y-11330500D01*
X8664226Y-11667236D02*
X8694226Y-11697236D01*
X8694226Y-11667236D02*
X8664226Y-11697236D01*
X8671800Y-9979900D02*
X8701800Y-10009900D01*
X8701800Y-9979900D02*
X8671800Y-10009900D01*
X8690147Y-11531980D02*
X8720147Y-11561980D01*
X8720147Y-11531980D02*
X8690147Y-11561980D01*
X8844000Y-7786000D02*
X8874000Y-7816000D01*
X8874000Y-7786000D02*
X8844000Y-7816000D01*
X9241399Y-11015114D02*
X9271399Y-11045114D01*
X9271399Y-11015114D02*
X9241399Y-11045114D01*
X9242729Y-11168000D02*
X9272729Y-11198000D01*
X9272729Y-11168000D02*
X9242729Y-11198000D01*
X10665000Y-6065000D02*
X10695000Y-6095000D01*
X10695000Y-6065000D02*
X10665000Y-6095000D01*
X12361150Y-14736050D02*
X12391150Y-14766050D01*
X12391150Y-14736050D02*
X12361150Y-14766050D01*
X14545405Y-5726118D02*
G75*
G03*
X14515405Y-5726118I-15000J0D01*
G01*
X14515405Y-5726118D02*
G75*
G03*
X14545405Y-5726118I15000J0D01*
G01*
X14623186Y-5648336D02*
G75*
G03*
X14593186Y-5648336I-15000J0D01*
G01*
X14593186Y-5648336D02*
G75*
G03*
X14623186Y-5648336I15000J0D01*
G01*
X14623186Y-5803900D02*
G75*
G03*
X14593186Y-5803900I-15000J0D01*
G01*
X14593186Y-5803900D02*
G75*
G03*
X14623186Y-5803900I15000J0D01*
G01*
X14700968Y-5570555D02*
G75*
G03*
X14670968Y-5570555I-15000J0D01*
G01*
X14670968Y-5570555D02*
G75*
G03*
X14700968Y-5570555I15000J0D01*
G01*
X14700968Y-5726118D02*
G75*
G03*
X14670968Y-5726118I-15000J0D01*
G01*
X14670968Y-5726118D02*
G75*
G03*
X14700968Y-5726118I15000J0D01*
G01*
X14700968Y-5881682D02*
G75*
G03*
X14670968Y-5881682I-15000J0D01*
G01*
X14670968Y-5881682D02*
G75*
G03*
X14700968Y-5881682I15000J0D01*
G01*
X14778750Y-5648336D02*
G75*
G03*
X14748750Y-5648336I-15000J0D01*
G01*
X14748750Y-5648336D02*
G75*
G03*
X14778750Y-5648336I15000J0D01*
G01*
X14778750Y-5803900D02*
G75*
G03*
X14748750Y-5803900I-15000J0D01*
G01*
X14748750Y-5803900D02*
G75*
G03*
X14778750Y-5803900I15000J0D01*
G01*
X14778750Y-5959463D02*
G75*
G03*
X14748750Y-5959463I-15000J0D01*
G01*
X14748750Y-5959463D02*
G75*
G03*
X14778750Y-5959463I15000J0D01*
G01*
X14856532Y-5726118D02*
G75*
G03*
X14826532Y-5726118I-15000J0D01*
G01*
X14826532Y-5726118D02*
G75*
G03*
X14856532Y-5726118I15000J0D01*
G01*
X14856532Y-5881682D02*
G75*
G03*
X14826532Y-5881682I-15000J0D01*
G01*
X14826532Y-5881682D02*
G75*
G03*
X14856532Y-5881682I15000J0D01*
G01*
X14856532Y-6037245D02*
G75*
G03*
X14826532Y-6037245I-15000J0D01*
G01*
X14826532Y-6037245D02*
G75*
G03*
X14856532Y-6037245I15000J0D01*
G01*
X14934313Y-5803900D02*
G75*
G03*
X14904313Y-5803900I-15000J0D01*
G01*
X14904313Y-5803900D02*
G75*
G03*
X14934313Y-5803900I15000J0D01*
G01*
X14934313Y-5959463D02*
G75*
G03*
X14904313Y-5959463I-15000J0D01*
G01*
X14904313Y-5959463D02*
G75*
G03*
X14934313Y-5959463I15000J0D01*
G01*
X15012095Y-5881682D02*
G75*
G03*
X14982095Y-5881682I-15000J0D01*
G01*
X14982095Y-5881682D02*
G75*
G03*
X15012095Y-5881682I15000J0D01*
G01*
X7810500Y-7011950D02*
X7810500Y-7046950D01*
X7793000Y-7029450D02*
X7828000Y-7029450D01*
X7969250Y-6732550D02*
X7969250Y-6767550D01*
X7951750Y-6750050D02*
X7986750Y-6750050D01*
X8204200Y-10714000D02*
X8204200Y-10749000D01*
X8186700Y-10731500D02*
X8221700Y-10731500D01*
X8210550Y-10142500D02*
X8210550Y-10177500D01*
X8193050Y-10160000D02*
X8228050Y-10160000D01*
X8243344Y-9712003D02*
X8243344Y-9747003D01*
X8225844Y-9729503D02*
X8260844Y-9729503D01*
X8343900Y-6815100D02*
X8343900Y-6850100D01*
X8326400Y-6832600D02*
X8361400Y-6832600D01*
X8343900Y-11863350D02*
X8343900Y-11898350D01*
X8326400Y-11880850D02*
X8361400Y-11880850D01*
X8387044Y-11534384D02*
X8387044Y-11569384D01*
X8369544Y-11551884D02*
X8404544Y-11551884D01*
X8388350Y-9901200D02*
X8388350Y-9936200D01*
X8370850Y-9918700D02*
X8405850Y-9918700D01*
X8394700Y-11082300D02*
X8394700Y-11117300D01*
X8377200Y-11099800D02*
X8412200Y-11099800D01*
X8398849Y-8037720D02*
X8398849Y-8072720D01*
X8381349Y-8055220D02*
X8416349Y-8055220D01*
X8431250Y-10990038D02*
X8431250Y-11025038D01*
X8413750Y-11007538D02*
X8448750Y-11007538D01*
X8448751Y-8909439D02*
X8448751Y-8944439D01*
X8431251Y-8926939D02*
X8466251Y-8926939D01*
X8519160Y-6743980D02*
X8519160Y-6778980D01*
X8501660Y-6761480D02*
X8536660Y-6761480D01*
X8569960Y-7038620D02*
X8569960Y-7073620D01*
X8552460Y-7056120D02*
X8587460Y-7056120D01*
X8576234Y-8057084D02*
X8576234Y-8092084D01*
X8558734Y-8074584D02*
X8593734Y-8074584D01*
X8707120Y-8013980D02*
X8707120Y-8048980D01*
X8689620Y-8031480D02*
X8724620Y-8031480D01*
X8737799Y-8416352D02*
X8737799Y-8451352D01*
X8720299Y-8433852D02*
X8755299Y-8433852D01*
X8775700Y-11749050D02*
X8775700Y-11784050D01*
X8758200Y-11766550D02*
X8793200Y-11766550D01*
X8778240Y-6083580D02*
X8778240Y-6118580D01*
X8760740Y-6101080D02*
X8795740Y-6101080D01*
X8782999Y-11079500D02*
X8782999Y-11114500D01*
X8765499Y-11097000D02*
X8800499Y-11097000D01*
X8793480Y-6708420D02*
X8793480Y-6743420D01*
X8775980Y-6725920D02*
X8810980Y-6725920D01*
X8845550Y-10180600D02*
X8845550Y-10215600D01*
X8828050Y-10198100D02*
X8863050Y-10198100D01*
X8985055Y-8053154D02*
X8985055Y-8088154D01*
X8967555Y-8070654D02*
X9002555Y-8070654D01*
X8992391Y-7795915D02*
X8992391Y-7830915D01*
X8974891Y-7813415D02*
X9009891Y-7813415D01*
X9048245Y-8228071D02*
X9048245Y-8263071D01*
X9030745Y-8245571D02*
X9065745Y-8245571D01*
X9103360Y-8313700D02*
X9103360Y-8348700D01*
X9085860Y-8331200D02*
X9120860Y-8331200D01*
X9112250Y-9666250D02*
X9112250Y-9701250D01*
X9094750Y-9683750D02*
X9129750Y-9683750D01*
X9118600Y-11672850D02*
X9118600Y-11707850D01*
X9101100Y-11690350D02*
X9136100Y-11690350D01*
X9137650Y-8745500D02*
X9137650Y-8780500D01*
X9120150Y-8763000D02*
X9155150Y-8763000D01*
X9154160Y-7754900D02*
X9154160Y-7789900D01*
X9136660Y-7772400D02*
X9171660Y-7772400D01*
X9163448Y-7122532D02*
X9163448Y-7157532D01*
X9145948Y-7140032D02*
X9180948Y-7140032D01*
X9230360Y-7826020D02*
X9230360Y-7861020D01*
X9212860Y-7843520D02*
X9247860Y-7843520D01*
X9256399Y-9253500D02*
X9256399Y-9288500D01*
X9238899Y-9271000D02*
X9273899Y-9271000D01*
X9257145Y-7197007D02*
X9257145Y-7232007D01*
X9239645Y-7214507D02*
X9274645Y-7214507D01*
X9315450Y-8123200D02*
X9315450Y-8158200D01*
X9297950Y-8140700D02*
X9332950Y-8140700D01*
X9322868Y-7893723D02*
X9322868Y-7928723D01*
X9305368Y-7911223D02*
X9340368Y-7911223D01*
X9385300Y-7964450D02*
X9385300Y-7999450D01*
X9367800Y-7981950D02*
X9402800Y-7981950D01*
X9410005Y-7429780D02*
X9410005Y-7464780D01*
X9392505Y-7447280D02*
X9427505Y-7447280D01*
X9442511Y-11865560D02*
X9442511Y-11900560D01*
X9425011Y-11883060D02*
X9460011Y-11883060D01*
X9443720Y-5849900D02*
X9443720Y-5884900D01*
X9426220Y-5867400D02*
X9461220Y-5867400D01*
X9448800Y-9793250D02*
X9448800Y-9828250D01*
X9431300Y-9810750D02*
X9466300Y-9810750D01*
X9494520Y-7358660D02*
X9494520Y-7393660D01*
X9477020Y-7376160D02*
X9512020Y-7376160D01*
X9591040Y-8730260D02*
X9591040Y-8765260D01*
X9573540Y-8747760D02*
X9608540Y-8747760D01*
X9600000Y-7282500D02*
X9600000Y-7317500D01*
X9582500Y-7300000D02*
X9617500Y-7300000D01*
X9700000Y-6382500D02*
X9700000Y-6417500D01*
X9682500Y-6400000D02*
X9717500Y-6400000D01*
X9702800Y-7211340D02*
X9702800Y-7246340D01*
X9685300Y-7228840D02*
X9720300Y-7228840D01*
X9715500Y-8535950D02*
X9715500Y-8570950D01*
X9698000Y-8553450D02*
X9733000Y-8553450D01*
X9860280Y-7851420D02*
X9860280Y-7886420D01*
X9842780Y-7868920D02*
X9877780Y-7868920D01*
X10022840Y-7856500D02*
X10022840Y-7891500D01*
X10005340Y-7874000D02*
X10040340Y-7874000D01*
X10046321Y-7945719D02*
X10046321Y-7980719D01*
X10028821Y-7963219D02*
X10063821Y-7963219D01*
X10180895Y-7760854D02*
X10180895Y-7795854D01*
X10163395Y-7778354D02*
X10198395Y-7778354D01*
X10257407Y-7583760D02*
X10257407Y-7618760D01*
X10239907Y-7601260D02*
X10274907Y-7601260D01*
X10261600Y-5616220D02*
X10261600Y-5651220D01*
X10244100Y-5633720D02*
X10279100Y-5633720D01*
X10424160Y-5550180D02*
X10424160Y-5585180D01*
X10406660Y-5567680D02*
X10441660Y-5567680D01*
X11450000Y-5882500D02*
X11450000Y-5917500D01*
X11432500Y-5900000D02*
X11467500Y-5900000D01*
X11600000Y-6632500D02*
X11600000Y-6667500D01*
X11582500Y-6650000D02*
X11617500Y-6650000D01*
X11658600Y-13127000D02*
X11658600Y-13162000D01*
X11641100Y-13144500D02*
X11676100Y-13144500D01*
X11690350Y-14682750D02*
X11690350Y-14717750D01*
X11672850Y-14700250D02*
X11707850Y-14700250D01*
X11823700Y-13127000D02*
X11823700Y-13162000D01*
X11806200Y-13144500D02*
X11841200Y-13144500D01*
X11899900Y-14219200D02*
X11899900Y-14254200D01*
X11882400Y-14236700D02*
X11917400Y-14236700D01*
X11918950Y-14377950D02*
X11918950Y-14412950D01*
X11901450Y-14395450D02*
X11936450Y-14395450D01*
X11925300Y-14809750D02*
X11925300Y-14844750D01*
X11907800Y-14827250D02*
X11942800Y-14827250D01*
X11988800Y-14111250D02*
X11988800Y-14146250D01*
X11971300Y-14128750D02*
X12006300Y-14128750D01*
X12065000Y-14668780D02*
X12065000Y-14703780D01*
X12047500Y-14686280D02*
X12082500Y-14686280D01*
X12136120Y-6454420D02*
X12136120Y-6489420D01*
X12118620Y-6471920D02*
X12153620Y-6471920D01*
X12141200Y-14606550D02*
X12141200Y-14641550D01*
X12123700Y-14624050D02*
X12158700Y-14624050D01*
X12192000Y-13457200D02*
X12192000Y-13492200D01*
X12174500Y-13474700D02*
X12209500Y-13474700D01*
X12268200Y-15038350D02*
X12268200Y-15073350D01*
X12250700Y-15055850D02*
X12285700Y-15055850D01*
X12496800Y-14936750D02*
X12496800Y-14971750D01*
X12479300Y-14954250D02*
X12514300Y-14954250D01*
X12664440Y-6464580D02*
X12664440Y-6499580D01*
X12646940Y-6482080D02*
X12681940Y-6482080D01*
X12827000Y-14136650D02*
X12827000Y-14171650D01*
X12809500Y-14154150D02*
X12844500Y-14154150D01*
X12858750Y-14276350D02*
X12858750Y-14311350D01*
X12841250Y-14293850D02*
X12876250Y-14293850D01*
X12865100Y-14416050D02*
X12865100Y-14451050D01*
X12847600Y-14433550D02*
X12882600Y-14433550D01*
X12934950Y-13114300D02*
X12934950Y-13149300D01*
X12917450Y-13131800D02*
X12952450Y-13131800D01*
X13087350Y-13114300D02*
X13087350Y-13149300D01*
X13069850Y-13131800D02*
X13104850Y-13131800D01*
X13125450Y-14803400D02*
X13125450Y-14838400D01*
X13107950Y-14820900D02*
X13142950Y-14820900D01*
X13366360Y-6292429D02*
X13366360Y-6327429D01*
X13348860Y-6309929D02*
X13383860Y-6309929D01*
X13366750Y-14339850D02*
X13366750Y-14374850D01*
X13349250Y-14357350D02*
X13384250Y-14357350D01*
X13498490Y-6210589D02*
X13498490Y-6245589D01*
X13480990Y-6228089D02*
X13515990Y-6228089D01*
X13903960Y-6129300D02*
X13903960Y-6164300D01*
X13886460Y-6146800D02*
X13921460Y-6146800D01*
X14108078Y-6068899D02*
X14108078Y-6103899D01*
X14090578Y-6086399D02*
X14125578Y-6086399D01*
X14203680Y-5717820D02*
X14203680Y-5752820D01*
X14186180Y-5735320D02*
X14221180Y-5735320D01*
X14386560Y-5509540D02*
X14386560Y-5544540D01*
X14369060Y-5527040D02*
X14404060Y-5527040D01*
X14446667Y-6123367D02*
X14446667Y-6158367D01*
X14429167Y-6140867D02*
X14464167Y-6140867D01*
X14700250Y-6523000D02*
X14700250Y-6558000D01*
X14682750Y-6540500D02*
X14717750Y-6540500D01*
X14890750Y-14358900D02*
X14890750Y-14393900D01*
X14873250Y-14376400D02*
X14908250Y-14376400D01*
X14947900Y-13685800D02*
X14947900Y-13720800D01*
X14930400Y-13703300D02*
X14965400Y-13703300D01*
X15102840Y-5489220D02*
X15102840Y-5524220D01*
X15085340Y-5506720D02*
X15120340Y-5506720D01*
X15125700Y-14193800D02*
X15125700Y-14228800D01*
X15108200Y-14211300D02*
X15143200Y-14211300D01*
X15309850Y-13368300D02*
X15309850Y-13403300D01*
X15292350Y-13385800D02*
X15327350Y-13385800D01*
X15557500Y-13831850D02*
X15557500Y-13866850D01*
X15540000Y-13849350D02*
X15575000Y-13849350D01*
X7995967Y-7864841D02*
X7995967Y-7836557D01*
X7967683Y-7836557D01*
X7967683Y-7864841D01*
X7995967Y-7864841D01*
X8015142Y-8116142D02*
X8015142Y-8087858D01*
X7986858Y-8087858D01*
X7986858Y-8116142D01*
X8015142Y-8116142D01*
X8092324Y-7823122D02*
X8092324Y-7794838D01*
X8064039Y-7794838D01*
X8064039Y-7823122D01*
X8092324Y-7823122D01*
X9003201Y-10444149D02*
X9003201Y-10415865D01*
X8974917Y-10415865D01*
X8974917Y-10444149D01*
X9003201Y-10444149D01*
X9012092Y-9081942D02*
X9012092Y-9053658D01*
X8983808Y-9053658D01*
X8983808Y-9081942D01*
X9012092Y-9081942D01*
X9377031Y-8908113D02*
X9377031Y-8879828D01*
X9348747Y-8879828D01*
X9348747Y-8908113D01*
X9377031Y-8908113D01*
X9501042Y-8840642D02*
X9501042Y-8812358D01*
X9472758Y-8812358D01*
X9472758Y-8840642D01*
X9501042Y-8840642D01*
X9818346Y-8185955D02*
X9818346Y-8157671D01*
X9790062Y-8157671D01*
X9790062Y-8185955D01*
X9818346Y-8185955D01*
X11576222Y-13476142D02*
X11576222Y-13447858D01*
X11547938Y-13447858D01*
X11547938Y-13476142D01*
X11576222Y-13476142D01*
X12963062Y-5993302D02*
X12963062Y-5965018D01*
X12934778Y-5965018D01*
X12934778Y-5993302D01*
X12963062Y-5993302D01*
X13018942Y-13609492D02*
X13018942Y-13581208D01*
X12990658Y-13581208D01*
X12990658Y-13609492D01*
X13018942Y-13609492D01*
X13330092Y-13692042D02*
X13330092Y-13663758D01*
X13301808Y-13663758D01*
X13301808Y-13692042D01*
X13330092Y-13692042D01*
X13355492Y-14034942D02*
X13355492Y-14006658D01*
X13327208Y-14006658D01*
X13327208Y-14034942D01*
X13355492Y-14034942D01*
X13869842Y-14136542D02*
X13869842Y-14108258D01*
X13841558Y-14108258D01*
X13841558Y-14136542D01*
X13869842Y-14136542D01*
X14055262Y-5988222D02*
X14055262Y-5959938D01*
X14026978Y-5959938D01*
X14026978Y-5988222D01*
X14055262Y-5988222D01*
X14079392Y-14136542D02*
X14079392Y-14108258D01*
X14051108Y-14108258D01*
X14051108Y-14136542D01*
X14079392Y-14136542D01*
X14365142Y-14136542D02*
X14365142Y-14108258D01*
X14336858Y-14108258D01*
X14336858Y-14136542D01*
X14365142Y-14136542D01*
X15741822Y-6135542D02*
X15741822Y-6107258D01*
X15713538Y-6107258D01*
X15713538Y-6135542D01*
X15741822Y-6135542D01*
X7137400Y-8718550D02*
X7162800Y-8693150D01*
X7137400Y-8667750D01*
X7112000Y-8693150D01*
X7137400Y-8718550D01*
X7810500Y-9023350D02*
X7835900Y-8997950D01*
X7810500Y-8972550D01*
X7785100Y-8997950D01*
X7810500Y-9023350D01*
X8070850Y-8718550D02*
X8096250Y-8693150D01*
X8070850Y-8667750D01*
X8045450Y-8693150D01*
X8070850Y-8718550D01*
X12166360Y-13297140D02*
X12191760Y-13271740D01*
X12166360Y-13246340D01*
X12140960Y-13271740D01*
X12166360Y-13297140D01*
X12204700Y-13963650D02*
X12230100Y-13938250D01*
X12204700Y-13912850D01*
X12179300Y-13938250D01*
X12204700Y-13963650D01*
X12534900Y-13957300D02*
X12560300Y-13931900D01*
X12534900Y-13906500D01*
X12509500Y-13931900D01*
X12534900Y-13957300D01*
X12572760Y-13297140D02*
X12598160Y-13271740D01*
X12572760Y-13246340D01*
X12547360Y-13271740D01*
X12572760Y-13297140D01*
X15316200Y-5689600D02*
X15341600Y-5664200D01*
X15316200Y-5638800D01*
X15290800Y-5664200D01*
X15316200Y-5689600D01*
X7561000Y-7634000D02*
X7631000Y-7704000D01*
X7631000Y-7634000D02*
X7561000Y-7704000D01*
X7631000Y-7669000D02*
G75*
G03*
X7561000Y-7669000I-35000J0D01*
G01*
X7561000Y-7669000D02*
G75*
G03*
X7631000Y-7669000I35000J0D01*
G01*
X7561000Y-7761000D02*
X7631000Y-7831000D01*
X7631000Y-7761000D02*
X7561000Y-7831000D01*
X7631000Y-7796000D02*
G75*
G03*
X7561000Y-7796000I-35000J0D01*
G01*
X7561000Y-7796000D02*
G75*
G03*
X7631000Y-7796000I35000J0D01*
G01*
X7561000Y-7888000D02*
X7631000Y-7958000D01*
X7631000Y-7888000D02*
X7561000Y-7958000D01*
X7631000Y-7923000D02*
G75*
G03*
X7561000Y-7923000I-35000J0D01*
G01*
X7561000Y-7923000D02*
G75*
G03*
X7631000Y-7923000I35000J0D01*
G01*
X7561000Y-8015000D02*
X7631000Y-8085000D01*
X7631000Y-8015000D02*
X7561000Y-8085000D01*
X7631000Y-8050000D02*
G75*
G03*
X7561000Y-8050000I-35000J0D01*
G01*
X7561000Y-8050000D02*
G75*
G03*
X7631000Y-8050000I35000J0D01*
G01*
X7561000Y-8142000D02*
X7631000Y-8212000D01*
X7631000Y-8142000D02*
X7561000Y-8212000D01*
X7631000Y-8177000D02*
G75*
G03*
X7561000Y-8177000I-35000J0D01*
G01*
X7561000Y-8177000D02*
G75*
G03*
X7631000Y-8177000I35000J0D01*
G01*
X7688000Y-7634000D02*
X7758000Y-7704000D01*
X7758000Y-7634000D02*
X7688000Y-7704000D01*
X7758000Y-7669000D02*
G75*
G03*
X7688000Y-7669000I-35000J0D01*
G01*
X7688000Y-7669000D02*
G75*
G03*
X7758000Y-7669000I35000J0D01*
G01*
X7688000Y-7761000D02*
X7758000Y-7831000D01*
X7758000Y-7761000D02*
X7688000Y-7831000D01*
X7758000Y-7796000D02*
G75*
G03*
X7688000Y-7796000I-35000J0D01*
G01*
X7688000Y-7796000D02*
G75*
G03*
X7758000Y-7796000I35000J0D01*
G01*
X7688000Y-7888000D02*
X7758000Y-7958000D01*
X7758000Y-7888000D02*
X7688000Y-7958000D01*
X7758000Y-7923000D02*
G75*
G03*
X7688000Y-7923000I-35000J0D01*
G01*
X7688000Y-7923000D02*
G75*
G03*
X7758000Y-7923000I35000J0D01*
G01*
X7688000Y-8015000D02*
X7758000Y-8085000D01*
X7758000Y-8015000D02*
X7688000Y-8085000D01*
X7758000Y-8050000D02*
G75*
G03*
X7688000Y-8050000I-35000J0D01*
G01*
X7688000Y-8050000D02*
G75*
G03*
X7758000Y-8050000I35000J0D01*
G01*
X7688000Y-8142000D02*
X7758000Y-8212000D01*
X7758000Y-8142000D02*
X7688000Y-8212000D01*
X7758000Y-8177000D02*
G75*
G03*
X7688000Y-8177000I-35000J0D01*
G01*
X7688000Y-8177000D02*
G75*
G03*
X7758000Y-8177000I35000J0D01*
G01*
X7369340Y-11321580D02*
X7469340Y-11421580D01*
X7469340Y-11321580D02*
X7369340Y-11421580D01*
X7419340Y-11321580D02*
X7419340Y-11421580D01*
X7369340Y-11371580D02*
X7469340Y-11371580D01*
X7651248Y-11218974D02*
X7751248Y-11318974D01*
X7751248Y-11218974D02*
X7651248Y-11318974D01*
X7701248Y-11218974D02*
X7701248Y-11318974D01*
X7651248Y-11268974D02*
X7751248Y-11268974D01*
X7742720Y-12136920D02*
X7842720Y-12236920D01*
X7842720Y-12136920D02*
X7742720Y-12236920D01*
X7792720Y-12136920D02*
X7792720Y-12236920D01*
X7742720Y-12186920D02*
X7842720Y-12186920D01*
X8002528Y-11986920D02*
X8102528Y-12086920D01*
X8102528Y-11986920D02*
X8002528Y-12086920D01*
X8052528Y-11986920D02*
X8052528Y-12086920D01*
X8002528Y-12036920D02*
X8102528Y-12036920D01*
X8225320Y-12906540D02*
X8325320Y-13006540D01*
X8325320Y-12906540D02*
X8225320Y-13006540D01*
X8275320Y-12906540D02*
X8275320Y-13006540D01*
X8225320Y-12956540D02*
X8325320Y-12956540D01*
X8455133Y-12713704D02*
X8555133Y-12813704D01*
X8555133Y-12713704D02*
X8455133Y-12813704D01*
X8505133Y-12713704D02*
X8505133Y-12813704D01*
X8455133Y-12763704D02*
X8555133Y-12763704D01*
X8923820Y-13566940D02*
X9023820Y-13666940D01*
X9023820Y-13566940D02*
X8923820Y-13666940D01*
X8973820Y-13566940D02*
X8973820Y-13666940D01*
X8923820Y-13616940D02*
X9023820Y-13616940D01*
X9116656Y-13337127D02*
X9216656Y-13437127D01*
X9216656Y-13337127D02*
X9116656Y-13437127D01*
X9166656Y-13337127D02*
X9166656Y-13437127D01*
X9116656Y-13387127D02*
X9216656Y-13387127D01*
X9902110Y-5240846D02*
X10002110Y-5340846D01*
X10002110Y-5240846D02*
X9902110Y-5340846D01*
X9952110Y-5240846D02*
X9952110Y-5340846D01*
X9902110Y-5290846D02*
X10002110Y-5290846D01*
X10140792Y-5153973D02*
X10240792Y-5253973D01*
X10240792Y-5153973D02*
X10140792Y-5253973D01*
X10190792Y-5153973D02*
X10190792Y-5253973D01*
X10140792Y-5203973D02*
X10240792Y-5203973D01*
X10268750Y-14034300D02*
X10368750Y-14134300D01*
X10368750Y-14034300D02*
X10268750Y-14134300D01*
X10318750Y-14034300D02*
X10318750Y-14134300D01*
X10268750Y-14084300D02*
X10368750Y-14084300D01*
X10379474Y-5067099D02*
X10479474Y-5167099D01*
X10479474Y-5067099D02*
X10379474Y-5167099D01*
X10429474Y-5067099D02*
X10429474Y-5167099D01*
X10379474Y-5117099D02*
X10479474Y-5117099D01*
X10618156Y-4980226D02*
X10718156Y-5080226D01*
X10718156Y-4980226D02*
X10618156Y-5080226D01*
X10668156Y-4980226D02*
X10668156Y-5080226D01*
X10618156Y-5030226D02*
X10718156Y-5030226D01*
X10851680Y-14664220D02*
X10951680Y-14764220D01*
X10951680Y-14664220D02*
X10851680Y-14764220D01*
X10901680Y-14664220D02*
X10901680Y-14764220D01*
X10851680Y-14714220D02*
X10951680Y-14714220D01*
X10856838Y-4893353D02*
X10956838Y-4993353D01*
X10956838Y-4893353D02*
X10856838Y-4993353D01*
X10906838Y-4893353D02*
X10906838Y-4993353D01*
X10856838Y-4943353D02*
X10956838Y-4943353D01*
X10929326Y-14374442D02*
X11029326Y-14474442D01*
X11029326Y-14374442D02*
X10929326Y-14474442D01*
X10979326Y-14374442D02*
X10979326Y-14474442D01*
X10929326Y-14424442D02*
X11029326Y-14424442D01*
X11095520Y-4806480D02*
X11195520Y-4906480D01*
X11195520Y-4806480D02*
X11095520Y-4906480D01*
X11145520Y-4806480D02*
X11145520Y-4906480D01*
X11095520Y-4856480D02*
X11195520Y-4856480D01*
X12872250Y-14929650D02*
X12972250Y-15029650D01*
X12972250Y-14929650D02*
X12872250Y-15029650D01*
X12922250Y-14929650D02*
X12922250Y-15029650D01*
X12872250Y-14979650D02*
X12972250Y-14979650D01*
X14853450Y-12916700D02*
X14953450Y-13016700D01*
X14953450Y-12916700D02*
X14853450Y-13016700D01*
X14903450Y-12916700D02*
X14903450Y-13016700D01*
X14853450Y-12966700D02*
X14953450Y-12966700D01*
X15266200Y-6488950D02*
X15366200Y-6588950D01*
X15366200Y-6488950D02*
X15266200Y-6588950D01*
X15316200Y-6488950D02*
X15316200Y-6588950D01*
X15266200Y-6538950D02*
X15366200Y-6538950D01*
X15266200Y-6788950D02*
X15366200Y-6888950D01*
X15366200Y-6788950D02*
X15266200Y-6888950D01*
X15316200Y-6788950D02*
X15316200Y-6888950D01*
X15266200Y-6838950D02*
X15366200Y-6838950D01*
X15501150Y-12910350D02*
X15601150Y-13010350D01*
X15601150Y-12910350D02*
X15501150Y-13010350D01*
X15551150Y-12910350D02*
X15551150Y-13010350D01*
X15501150Y-12960350D02*
X15601150Y-12960350D01*
X16098050Y-12891300D02*
X16198050Y-12991300D01*
X16198050Y-12891300D02*
X16098050Y-12991300D01*
X16148050Y-12891300D02*
X16148050Y-12991300D01*
X16098050Y-12941300D02*
X16198050Y-12941300D01*
D13*
X9715800Y-14014750D02*
X9816800Y-14115750D01*
X9816800Y-14014750D02*
X9715800Y-14115750D01*
X9802009Y-14100959D02*
X9802009Y-14029541D01*
X9730591Y-14029541D01*
X9730591Y-14100959D01*
X9802009Y-14100959D01*
X9835800Y-13504750D02*
X9936800Y-13605750D01*
X9936800Y-13504750D02*
X9835800Y-13605750D01*
X9922009Y-13590959D02*
X9922009Y-13519541D01*
X9850591Y-13519541D01*
X9850591Y-13590959D01*
X9922009Y-13590959D01*
X11788980Y-5752780D02*
X11889980Y-5853780D01*
X11889980Y-5752780D02*
X11788980Y-5853780D01*
X11875189Y-5838989D02*
X11875189Y-5767571D01*
X11803771Y-5767571D01*
X11803771Y-5838989D01*
X11875189Y-5838989D01*
X12298980Y-5872780D02*
X12399980Y-5973780D01*
X12399980Y-5872780D02*
X12298980Y-5973780D01*
X12385189Y-5958989D02*
X12385189Y-5887571D01*
X12313771Y-5887571D01*
X12313771Y-5958989D01*
X12385189Y-5958989D01*
D14*
X9816868Y-12401132D02*
X9918868Y-12503132D01*
X9918868Y-12401132D02*
X9816868Y-12503132D01*
X9867868Y-12503132D02*
X9918868Y-12452132D01*
X9867868Y-12401132D01*
X9816868Y-12452132D01*
X9867868Y-12503132D01*
X10029000Y-12189000D02*
X10131000Y-12291000D01*
X10131000Y-12189000D02*
X10029000Y-12291000D01*
X10080000Y-12291000D02*
X10131000Y-12240000D01*
X10080000Y-12189000D01*
X10029000Y-12240000D01*
X10080000Y-12291000D01*
X10029000Y-12613264D02*
X10131000Y-12715264D01*
X10131000Y-12613264D02*
X10029000Y-12715264D01*
X10080000Y-12715264D02*
X10131000Y-12664264D01*
X10080000Y-12613264D01*
X10029000Y-12664264D01*
X10080000Y-12715264D01*
X10241132Y-12401132D02*
X10343132Y-12503132D01*
X10343132Y-12401132D02*
X10241132Y-12503132D01*
X10292132Y-12503132D02*
X10343132Y-12452132D01*
X10292132Y-12401132D01*
X10241132Y-12452132D01*
X10292132Y-12503132D01*
X10636868Y-13261132D02*
X10738868Y-13363132D01*
X10738868Y-13261132D02*
X10636868Y-13363132D01*
X10687868Y-13363132D02*
X10738868Y-13312132D01*
X10687868Y-13261132D01*
X10636868Y-13312132D01*
X10687868Y-13363132D01*
X10849000Y-13049000D02*
X10951000Y-13151000D01*
X10951000Y-13049000D02*
X10849000Y-13151000D01*
X10900000Y-13151000D02*
X10951000Y-13100000D01*
X10900000Y-13049000D01*
X10849000Y-13100000D01*
X10900000Y-13151000D01*
X11892080Y-4825800D02*
X11994080Y-4927800D01*
X11994080Y-4825800D02*
X11892080Y-4927800D01*
X11943080Y-4927800D02*
X11994080Y-4876800D01*
X11943080Y-4825800D01*
X11892080Y-4876800D01*
X11943080Y-4927800D01*
X11892080Y-5125800D02*
X11994080Y-5227800D01*
X11994080Y-5125800D02*
X11892080Y-5227800D01*
X11943080Y-5227800D02*
X11994080Y-5176800D01*
X11943080Y-5125800D01*
X11892080Y-5176800D01*
X11943080Y-5227800D01*
X12192080Y-4825800D02*
X12294080Y-4927800D01*
X12294080Y-4825800D02*
X12192080Y-4927800D01*
X12243080Y-4927800D02*
X12294080Y-4876800D01*
X12243080Y-4825800D01*
X12192080Y-4876800D01*
X12243080Y-4927800D01*
X12192080Y-5125800D02*
X12294080Y-5227800D01*
X12294080Y-5125800D02*
X12192080Y-5227800D01*
X12243080Y-5227800D02*
X12294080Y-5176800D01*
X12243080Y-5125800D01*
X12192080Y-5176800D01*
X12243080Y-5227800D01*
D15*
X8921750Y-6359850D02*
X8921750Y-6479850D01*
X8861750Y-6419850D02*
X8981750Y-6419850D01*
X8981750Y-6419850D02*
G75*
G03*
X8861750Y-6419850I-60000J0D01*
G01*
X8861750Y-6419850D02*
G75*
G03*
X8981750Y-6419850I60000J0D01*
G01*
X8921750Y-11947850D02*
X8921750Y-12067850D01*
X8861750Y-12007850D02*
X8981750Y-12007850D01*
X8981750Y-12007850D02*
G75*
G03*
X8861750Y-12007850I-60000J0D01*
G01*
X8861750Y-12007850D02*
G75*
G03*
X8981750Y-12007850I60000J0D01*
G01*
X13139000Y-5414000D02*
X13139000Y-5534000D01*
X13079000Y-5474000D02*
X13199000Y-5474000D01*
X13199000Y-5474000D02*
G75*
G03*
X13079000Y-5474000I-60000J0D01*
G01*
X13079000Y-5474000D02*
G75*
G03*
X13199000Y-5474000I60000J0D01*
G01*
X13639000Y-5414000D02*
X13639000Y-5534000D01*
X13579000Y-5474000D02*
X13699000Y-5474000D01*
X13699000Y-5474000D02*
G75*
G03*
X13579000Y-5474000I-60000J0D01*
G01*
X13579000Y-5474000D02*
G75*
G03*
X13699000Y-5474000I60000J0D01*
G01*
D12*
X7214016Y-15561036D02*
X7214016Y-15361036D01*
X7214016Y-15361036D02*
X7261635Y-15361036D01*
X7261635Y-15361036D02*
X7290206Y-15370559D01*
X7290206Y-15370559D02*
X7309254Y-15389607D01*
X7309254Y-15389607D02*
X7318778Y-15408655D01*
X7318778Y-15408655D02*
X7328301Y-15446750D01*
X7328301Y-15446750D02*
X7328301Y-15475321D01*
X7328301Y-15475321D02*
X7318778Y-15513417D01*
X7318778Y-15513417D02*
X7309254Y-15532464D01*
X7309254Y-15532464D02*
X7290206Y-15551512D01*
X7290206Y-15551512D02*
X7261635Y-15561036D01*
X7261635Y-15561036D02*
X7214016Y-15561036D01*
X7414016Y-15561036D02*
X7414016Y-15427702D01*
X7414016Y-15465798D02*
X7423539Y-15446750D01*
X7423539Y-15446750D02*
X7433063Y-15437226D01*
X7433063Y-15437226D02*
X7452111Y-15427702D01*
X7452111Y-15427702D02*
X7471159Y-15427702D01*
X7537825Y-15561036D02*
X7537825Y-15427702D01*
X7537825Y-15361036D02*
X7528301Y-15370559D01*
X7528301Y-15370559D02*
X7537825Y-15380083D01*
X7537825Y-15380083D02*
X7547349Y-15370559D01*
X7547349Y-15370559D02*
X7537825Y-15361036D01*
X7537825Y-15361036D02*
X7537825Y-15380083D01*
X7661635Y-15561036D02*
X7642587Y-15551512D01*
X7642587Y-15551512D02*
X7633063Y-15532464D01*
X7633063Y-15532464D02*
X7633063Y-15361036D01*
X7766397Y-15561036D02*
X7747349Y-15551512D01*
X7747349Y-15551512D02*
X7737825Y-15532464D01*
X7737825Y-15532464D02*
X7737825Y-15361036D01*
X7994968Y-15561036D02*
X7994968Y-15361036D01*
X7994968Y-15361036D02*
X8061635Y-15503893D01*
X8061635Y-15503893D02*
X8128301Y-15361036D01*
X8128301Y-15361036D02*
X8128301Y-15561036D01*
X8309254Y-15561036D02*
X8309254Y-15456274D01*
X8309254Y-15456274D02*
X8299730Y-15437226D01*
X8299730Y-15437226D02*
X8280682Y-15427702D01*
X8280682Y-15427702D02*
X8242587Y-15427702D01*
X8242587Y-15427702D02*
X8223539Y-15437226D01*
X8309254Y-15551512D02*
X8290206Y-15561036D01*
X8290206Y-15561036D02*
X8242587Y-15561036D01*
X8242587Y-15561036D02*
X8223539Y-15551512D01*
X8223539Y-15551512D02*
X8214016Y-15532464D01*
X8214016Y-15532464D02*
X8214016Y-15513417D01*
X8214016Y-15513417D02*
X8223539Y-15494369D01*
X8223539Y-15494369D02*
X8242587Y-15484845D01*
X8242587Y-15484845D02*
X8290206Y-15484845D01*
X8290206Y-15484845D02*
X8309254Y-15475321D01*
X8404492Y-15427702D02*
X8404492Y-15627702D01*
X8404492Y-15437226D02*
X8423540Y-15427702D01*
X8423540Y-15427702D02*
X8461635Y-15427702D01*
X8461635Y-15427702D02*
X8480682Y-15437226D01*
X8480682Y-15437226D02*
X8490206Y-15446750D01*
X8490206Y-15446750D02*
X8499730Y-15465798D01*
X8499730Y-15465798D02*
X8499730Y-15522940D01*
X8499730Y-15522940D02*
X8490206Y-15541988D01*
X8490206Y-15541988D02*
X8480682Y-15551512D01*
X8480682Y-15551512D02*
X8461635Y-15561036D01*
X8461635Y-15561036D02*
X8423540Y-15561036D01*
X8423540Y-15561036D02*
X8404492Y-15551512D01*
X8585444Y-15541988D02*
X8594968Y-15551512D01*
X8594968Y-15551512D02*
X8585444Y-15561036D01*
X8585444Y-15561036D02*
X8575921Y-15551512D01*
X8575921Y-15551512D02*
X8585444Y-15541988D01*
X8585444Y-15541988D02*
X8585444Y-15561036D01*
X8585444Y-15437226D02*
X8594968Y-15446750D01*
X8594968Y-15446750D02*
X8585444Y-15456274D01*
X8585444Y-15456274D02*
X8575921Y-15446750D01*
X8575921Y-15446750D02*
X8585444Y-15437226D01*
X8585444Y-15437226D02*
X8585444Y-15456274D01*
D11*
X6923239Y-15874552D02*
X6953239Y-15904552D01*
X6953239Y-15874552D02*
X6923239Y-15904552D01*
D12*
X7252111Y-15781036D02*
X7271159Y-15781036D01*
X7271159Y-15781036D02*
X7290206Y-15790559D01*
X7290206Y-15790559D02*
X7299730Y-15800083D01*
X7299730Y-15800083D02*
X7309254Y-15819131D01*
X7309254Y-15819131D02*
X7318778Y-15857226D01*
X7318778Y-15857226D02*
X7318778Y-15904845D01*
X7318778Y-15904845D02*
X7309254Y-15942940D01*
X7309254Y-15942940D02*
X7299730Y-15961988D01*
X7299730Y-15961988D02*
X7290206Y-15971512D01*
X7290206Y-15971512D02*
X7271159Y-15981036D01*
X7271159Y-15981036D02*
X7252111Y-15981036D01*
X7252111Y-15981036D02*
X7233063Y-15971512D01*
X7233063Y-15971512D02*
X7223539Y-15961988D01*
X7223539Y-15961988D02*
X7214016Y-15942940D01*
X7214016Y-15942940D02*
X7204492Y-15904845D01*
X7204492Y-15904845D02*
X7204492Y-15857226D01*
X7204492Y-15857226D02*
X7214016Y-15819131D01*
X7214016Y-15819131D02*
X7223539Y-15800083D01*
X7223539Y-15800083D02*
X7233063Y-15790559D01*
X7233063Y-15790559D02*
X7252111Y-15781036D01*
X7404492Y-15961988D02*
X7414016Y-15971512D01*
X7414016Y-15971512D02*
X7404492Y-15981036D01*
X7404492Y-15981036D02*
X7394968Y-15971512D01*
X7394968Y-15971512D02*
X7404492Y-15961988D01*
X7404492Y-15961988D02*
X7404492Y-15981036D01*
X7480682Y-15781036D02*
X7604492Y-15781036D01*
X7604492Y-15781036D02*
X7537825Y-15857226D01*
X7537825Y-15857226D02*
X7566397Y-15857226D01*
X7566397Y-15857226D02*
X7585444Y-15866750D01*
X7585444Y-15866750D02*
X7594968Y-15876274D01*
X7594968Y-15876274D02*
X7604492Y-15895321D01*
X7604492Y-15895321D02*
X7604492Y-15942940D01*
X7604492Y-15942940D02*
X7594968Y-15961988D01*
X7594968Y-15961988D02*
X7585444Y-15971512D01*
X7585444Y-15971512D02*
X7566397Y-15981036D01*
X7566397Y-15981036D02*
X7509254Y-15981036D01*
X7509254Y-15981036D02*
X7490206Y-15971512D01*
X7490206Y-15971512D02*
X7480682Y-15961988D01*
X7728301Y-15781036D02*
X7747349Y-15781036D01*
X7747349Y-15781036D02*
X7766397Y-15790559D01*
X7766397Y-15790559D02*
X7775920Y-15800083D01*
X7775920Y-15800083D02*
X7785444Y-15819131D01*
X7785444Y-15819131D02*
X7794968Y-15857226D01*
X7794968Y-15857226D02*
X7794968Y-15904845D01*
X7794968Y-15904845D02*
X7785444Y-15942940D01*
X7785444Y-15942940D02*
X7775920Y-15961988D01*
X7775920Y-15961988D02*
X7766397Y-15971512D01*
X7766397Y-15971512D02*
X7747349Y-15981036D01*
X7747349Y-15981036D02*
X7728301Y-15981036D01*
X7728301Y-15981036D02*
X7709254Y-15971512D01*
X7709254Y-15971512D02*
X7699730Y-15961988D01*
X7699730Y-15961988D02*
X7690206Y-15942940D01*
X7690206Y-15942940D02*
X7680682Y-15904845D01*
X7680682Y-15904845D02*
X7680682Y-15857226D01*
X7680682Y-15857226D02*
X7690206Y-15819131D01*
X7690206Y-15819131D02*
X7699730Y-15800083D01*
X7699730Y-15800083D02*
X7709254Y-15790559D01*
X7709254Y-15790559D02*
X7728301Y-15781036D01*
X7918778Y-15781036D02*
X7937825Y-15781036D01*
X7937825Y-15781036D02*
X7956873Y-15790559D01*
X7956873Y-15790559D02*
X7966397Y-15800083D01*
X7966397Y-15800083D02*
X7975920Y-15819131D01*
X7975920Y-15819131D02*
X7985444Y-15857226D01*
X7985444Y-15857226D02*
X7985444Y-15904845D01*
X7985444Y-15904845D02*
X7975920Y-15942940D01*
X7975920Y-15942940D02*
X7966397Y-15961988D01*
X7966397Y-15961988D02*
X7956873Y-15971512D01*
X7956873Y-15971512D02*
X7937825Y-15981036D01*
X7937825Y-15981036D02*
X7918778Y-15981036D01*
X7918778Y-15981036D02*
X7899730Y-15971512D01*
X7899730Y-15971512D02*
X7890206Y-15961988D01*
X7890206Y-15961988D02*
X7880682Y-15942940D01*
X7880682Y-15942940D02*
X7871159Y-15904845D01*
X7871159Y-15904845D02*
X7871159Y-15857226D01*
X7871159Y-15857226D02*
X7880682Y-15819131D01*
X7880682Y-15819131D02*
X7890206Y-15800083D01*
X7890206Y-15800083D02*
X7899730Y-15790559D01*
X7899730Y-15790559D02*
X7918778Y-15781036D01*
X8071159Y-15981036D02*
X8071159Y-15847702D01*
X8071159Y-15866750D02*
X8080682Y-15857226D01*
X8080682Y-15857226D02*
X8099730Y-15847702D01*
X8099730Y-15847702D02*
X8128301Y-15847702D01*
X8128301Y-15847702D02*
X8147349Y-15857226D01*
X8147349Y-15857226D02*
X8156873Y-15876274D01*
X8156873Y-15876274D02*
X8156873Y-15981036D01*
X8156873Y-15876274D02*
X8166397Y-15857226D01*
X8166397Y-15857226D02*
X8185444Y-15847702D01*
X8185444Y-15847702D02*
X8214016Y-15847702D01*
X8214016Y-15847702D02*
X8233063Y-15857226D01*
X8233063Y-15857226D02*
X8242587Y-15876274D01*
X8242587Y-15876274D02*
X8242587Y-15981036D01*
X8337825Y-15981036D02*
X8337825Y-15847702D01*
X8337825Y-15866750D02*
X8347349Y-15857226D01*
X8347349Y-15857226D02*
X8366397Y-15847702D01*
X8366397Y-15847702D02*
X8394968Y-15847702D01*
X8394968Y-15847702D02*
X8414016Y-15857226D01*
X8414016Y-15857226D02*
X8423540Y-15876274D01*
X8423540Y-15876274D02*
X8423540Y-15981036D01*
X8423540Y-15876274D02*
X8433063Y-15857226D01*
X8433063Y-15857226D02*
X8452111Y-15847702D01*
X8452111Y-15847702D02*
X8480682Y-15847702D01*
X8480682Y-15847702D02*
X8499730Y-15857226D01*
X8499730Y-15857226D02*
X8509254Y-15876274D01*
X8509254Y-15876274D02*
X8509254Y-15981036D01*
X8899730Y-15771512D02*
X8728302Y-16028655D01*
X9156873Y-15781036D02*
X9175921Y-15781036D01*
X9175921Y-15781036D02*
X9194968Y-15790559D01*
X9194968Y-15790559D02*
X9204492Y-15800083D01*
X9204492Y-15800083D02*
X9214016Y-15819131D01*
X9214016Y-15819131D02*
X9223540Y-15857226D01*
X9223540Y-15857226D02*
X9223540Y-15904845D01*
X9223540Y-15904845D02*
X9214016Y-15942940D01*
X9214016Y-15942940D02*
X9204492Y-15961988D01*
X9204492Y-15961988D02*
X9194968Y-15971512D01*
X9194968Y-15971512D02*
X9175921Y-15981036D01*
X9175921Y-15981036D02*
X9156873Y-15981036D01*
X9156873Y-15981036D02*
X9137825Y-15971512D01*
X9137825Y-15971512D02*
X9128302Y-15961988D01*
X9128302Y-15961988D02*
X9118778Y-15942940D01*
X9118778Y-15942940D02*
X9109254Y-15904845D01*
X9109254Y-15904845D02*
X9109254Y-15857226D01*
X9109254Y-15857226D02*
X9118778Y-15819131D01*
X9118778Y-15819131D02*
X9128302Y-15800083D01*
X9128302Y-15800083D02*
X9137825Y-15790559D01*
X9137825Y-15790559D02*
X9156873Y-15781036D01*
X9309254Y-15961988D02*
X9318778Y-15971512D01*
X9318778Y-15971512D02*
X9309254Y-15981036D01*
X9309254Y-15981036D02*
X9299730Y-15971512D01*
X9299730Y-15971512D02*
X9309254Y-15961988D01*
X9309254Y-15961988D02*
X9309254Y-15981036D01*
X9442587Y-15781036D02*
X9461635Y-15781036D01*
X9461635Y-15781036D02*
X9480683Y-15790559D01*
X9480683Y-15790559D02*
X9490206Y-15800083D01*
X9490206Y-15800083D02*
X9499730Y-15819131D01*
X9499730Y-15819131D02*
X9509254Y-15857226D01*
X9509254Y-15857226D02*
X9509254Y-15904845D01*
X9509254Y-15904845D02*
X9499730Y-15942940D01*
X9499730Y-15942940D02*
X9490206Y-15961988D01*
X9490206Y-15961988D02*
X9480683Y-15971512D01*
X9480683Y-15971512D02*
X9461635Y-15981036D01*
X9461635Y-15981036D02*
X9442587Y-15981036D01*
X9442587Y-15981036D02*
X9423540Y-15971512D01*
X9423540Y-15971512D02*
X9414016Y-15961988D01*
X9414016Y-15961988D02*
X9404492Y-15942940D01*
X9404492Y-15942940D02*
X9394968Y-15904845D01*
X9394968Y-15904845D02*
X9394968Y-15857226D01*
X9394968Y-15857226D02*
X9404492Y-15819131D01*
X9404492Y-15819131D02*
X9414016Y-15800083D01*
X9414016Y-15800083D02*
X9423540Y-15790559D01*
X9423540Y-15790559D02*
X9442587Y-15781036D01*
X9699730Y-15981036D02*
X9585445Y-15981036D01*
X9642587Y-15981036D02*
X9642587Y-15781036D01*
X9642587Y-15781036D02*
X9623540Y-15809607D01*
X9623540Y-15809607D02*
X9604492Y-15828655D01*
X9604492Y-15828655D02*
X9585445Y-15838178D01*
X9890206Y-15981036D02*
X9775921Y-15981036D01*
X9833064Y-15981036D02*
X9833064Y-15781036D01*
X9833064Y-15781036D02*
X9814016Y-15809607D01*
X9814016Y-15809607D02*
X9794968Y-15828655D01*
X9794968Y-15828655D02*
X9775921Y-15838178D01*
X10004492Y-15866750D02*
X9985445Y-15857226D01*
X9985445Y-15857226D02*
X9975921Y-15847702D01*
X9975921Y-15847702D02*
X9966397Y-15828655D01*
X9966397Y-15828655D02*
X9966397Y-15819131D01*
X9966397Y-15819131D02*
X9975921Y-15800083D01*
X9975921Y-15800083D02*
X9985445Y-15790559D01*
X9985445Y-15790559D02*
X10004492Y-15781036D01*
X10004492Y-15781036D02*
X10042587Y-15781036D01*
X10042587Y-15781036D02*
X10061635Y-15790559D01*
X10061635Y-15790559D02*
X10071159Y-15800083D01*
X10071159Y-15800083D02*
X10080683Y-15819131D01*
X10080683Y-15819131D02*
X10080683Y-15828655D01*
X10080683Y-15828655D02*
X10071159Y-15847702D01*
X10071159Y-15847702D02*
X10061635Y-15857226D01*
X10061635Y-15857226D02*
X10042587Y-15866750D01*
X10042587Y-15866750D02*
X10004492Y-15866750D01*
X10004492Y-15866750D02*
X9985445Y-15876274D01*
X9985445Y-15876274D02*
X9975921Y-15885798D01*
X9975921Y-15885798D02*
X9966397Y-15904845D01*
X9966397Y-15904845D02*
X9966397Y-15942940D01*
X9966397Y-15942940D02*
X9975921Y-15961988D01*
X9975921Y-15961988D02*
X9985445Y-15971512D01*
X9985445Y-15971512D02*
X10004492Y-15981036D01*
X10004492Y-15981036D02*
X10042587Y-15981036D01*
X10042587Y-15981036D02*
X10061635Y-15971512D01*
X10061635Y-15971512D02*
X10071159Y-15961988D01*
X10071159Y-15961988D02*
X10080683Y-15942940D01*
X10080683Y-15942940D02*
X10080683Y-15904845D01*
X10080683Y-15904845D02*
X10071159Y-15885798D01*
X10071159Y-15885798D02*
X10061635Y-15876274D01*
X10061635Y-15876274D02*
X10042587Y-15866750D01*
X10156873Y-15781036D02*
X10156873Y-15819131D01*
X10233064Y-15781036D02*
X10233064Y-15819131D01*
X10528302Y-16057226D02*
X10518778Y-16047702D01*
X10518778Y-16047702D02*
X10499730Y-16019131D01*
X10499730Y-16019131D02*
X10490207Y-16000083D01*
X10490207Y-16000083D02*
X10480683Y-15971512D01*
X10480683Y-15971512D02*
X10471159Y-15923893D01*
X10471159Y-15923893D02*
X10471159Y-15885798D01*
X10471159Y-15885798D02*
X10480683Y-15838178D01*
X10480683Y-15838178D02*
X10490207Y-15809607D01*
X10490207Y-15809607D02*
X10499730Y-15790559D01*
X10499730Y-15790559D02*
X10518778Y-15761988D01*
X10518778Y-15761988D02*
X10528302Y-15752464D01*
X10709254Y-15981036D02*
X10594968Y-15981036D01*
X10652111Y-15981036D02*
X10652111Y-15781036D01*
X10652111Y-15781036D02*
X10633064Y-15809607D01*
X10633064Y-15809607D02*
X10614016Y-15828655D01*
X10614016Y-15828655D02*
X10594968Y-15838178D01*
X10775921Y-15781036D02*
X10909254Y-15781036D01*
X10909254Y-15781036D02*
X10823540Y-15981036D01*
X11137826Y-15981036D02*
X11137826Y-15781036D01*
X11223540Y-15981036D02*
X11223540Y-15876274D01*
X11223540Y-15876274D02*
X11214016Y-15857226D01*
X11214016Y-15857226D02*
X11194968Y-15847702D01*
X11194968Y-15847702D02*
X11166397Y-15847702D01*
X11166397Y-15847702D02*
X11147349Y-15857226D01*
X11147349Y-15857226D02*
X11137826Y-15866750D01*
X11347349Y-15981036D02*
X11328302Y-15971512D01*
X11328302Y-15971512D02*
X11318778Y-15961988D01*
X11318778Y-15961988D02*
X11309254Y-15942940D01*
X11309254Y-15942940D02*
X11309254Y-15885798D01*
X11309254Y-15885798D02*
X11318778Y-15866750D01*
X11318778Y-15866750D02*
X11328302Y-15857226D01*
X11328302Y-15857226D02*
X11347349Y-15847702D01*
X11347349Y-15847702D02*
X11375921Y-15847702D01*
X11375921Y-15847702D02*
X11394968Y-15857226D01*
X11394968Y-15857226D02*
X11404492Y-15866750D01*
X11404492Y-15866750D02*
X11414016Y-15885798D01*
X11414016Y-15885798D02*
X11414016Y-15942940D01*
X11414016Y-15942940D02*
X11404492Y-15961988D01*
X11404492Y-15961988D02*
X11394968Y-15971512D01*
X11394968Y-15971512D02*
X11375921Y-15981036D01*
X11375921Y-15981036D02*
X11347349Y-15981036D01*
X11528302Y-15981036D02*
X11509254Y-15971512D01*
X11509254Y-15971512D02*
X11499730Y-15952464D01*
X11499730Y-15952464D02*
X11499730Y-15781036D01*
X11680683Y-15971512D02*
X11661635Y-15981036D01*
X11661635Y-15981036D02*
X11623540Y-15981036D01*
X11623540Y-15981036D02*
X11604492Y-15971512D01*
X11604492Y-15971512D02*
X11594968Y-15952464D01*
X11594968Y-15952464D02*
X11594968Y-15876274D01*
X11594968Y-15876274D02*
X11604492Y-15857226D01*
X11604492Y-15857226D02*
X11623540Y-15847702D01*
X11623540Y-15847702D02*
X11661635Y-15847702D01*
X11661635Y-15847702D02*
X11680683Y-15857226D01*
X11680683Y-15857226D02*
X11690207Y-15876274D01*
X11690207Y-15876274D02*
X11690207Y-15895321D01*
X11690207Y-15895321D02*
X11594968Y-15914369D01*
X11766397Y-15971512D02*
X11785445Y-15981036D01*
X11785445Y-15981036D02*
X11823540Y-15981036D01*
X11823540Y-15981036D02*
X11842588Y-15971512D01*
X11842588Y-15971512D02*
X11852111Y-15952464D01*
X11852111Y-15952464D02*
X11852111Y-15942940D01*
X11852111Y-15942940D02*
X11842588Y-15923893D01*
X11842588Y-15923893D02*
X11823540Y-15914369D01*
X11823540Y-15914369D02*
X11794968Y-15914369D01*
X11794968Y-15914369D02*
X11775921Y-15904845D01*
X11775921Y-15904845D02*
X11766397Y-15885798D01*
X11766397Y-15885798D02*
X11766397Y-15876274D01*
X11766397Y-15876274D02*
X11775921Y-15857226D01*
X11775921Y-15857226D02*
X11794968Y-15847702D01*
X11794968Y-15847702D02*
X11823540Y-15847702D01*
X11823540Y-15847702D02*
X11842588Y-15857226D01*
X11918778Y-16057226D02*
X11928302Y-16047702D01*
X11928302Y-16047702D02*
X11947349Y-16019131D01*
X11947349Y-16019131D02*
X11956873Y-16000083D01*
X11956873Y-16000083D02*
X11966397Y-15971512D01*
X11966397Y-15971512D02*
X11975921Y-15923893D01*
X11975921Y-15923893D02*
X11975921Y-15885798D01*
X11975921Y-15885798D02*
X11966397Y-15838178D01*
X11966397Y-15838178D02*
X11956873Y-15809607D01*
X11956873Y-15809607D02*
X11947349Y-15790559D01*
X11947349Y-15790559D02*
X11928302Y-15761988D01*
X11928302Y-15761988D02*
X11918778Y-15752464D01*
D11*
X6953239Y-16153552D02*
G75*
G03*
X6923239Y-16153552I-15000J0D01*
G01*
X6923239Y-16153552D02*
G75*
G03*
X6953239Y-16153552I15000J0D01*
G01*
D12*
X7252111Y-16045036D02*
X7271159Y-16045036D01*
X7271159Y-16045036D02*
X7290206Y-16054559D01*
X7290206Y-16054559D02*
X7299730Y-16064083D01*
X7299730Y-16064083D02*
X7309254Y-16083131D01*
X7309254Y-16083131D02*
X7318778Y-16121226D01*
X7318778Y-16121226D02*
X7318778Y-16168845D01*
X7318778Y-16168845D02*
X7309254Y-16206940D01*
X7309254Y-16206940D02*
X7299730Y-16225988D01*
X7299730Y-16225988D02*
X7290206Y-16235512D01*
X7290206Y-16235512D02*
X7271159Y-16245036D01*
X7271159Y-16245036D02*
X7252111Y-16245036D01*
X7252111Y-16245036D02*
X7233063Y-16235512D01*
X7233063Y-16235512D02*
X7223539Y-16225988D01*
X7223539Y-16225988D02*
X7214016Y-16206940D01*
X7214016Y-16206940D02*
X7204492Y-16168845D01*
X7204492Y-16168845D02*
X7204492Y-16121226D01*
X7204492Y-16121226D02*
X7214016Y-16083131D01*
X7214016Y-16083131D02*
X7223539Y-16064083D01*
X7223539Y-16064083D02*
X7233063Y-16054559D01*
X7233063Y-16054559D02*
X7252111Y-16045036D01*
X7404492Y-16225988D02*
X7414016Y-16235512D01*
X7414016Y-16235512D02*
X7404492Y-16245036D01*
X7404492Y-16245036D02*
X7394968Y-16235512D01*
X7394968Y-16235512D02*
X7404492Y-16225988D01*
X7404492Y-16225988D02*
X7404492Y-16245036D01*
X7480682Y-16045036D02*
X7604492Y-16045036D01*
X7604492Y-16045036D02*
X7537825Y-16121226D01*
X7537825Y-16121226D02*
X7566397Y-16121226D01*
X7566397Y-16121226D02*
X7585444Y-16130750D01*
X7585444Y-16130750D02*
X7594968Y-16140274D01*
X7594968Y-16140274D02*
X7604492Y-16159321D01*
X7604492Y-16159321D02*
X7604492Y-16206940D01*
X7604492Y-16206940D02*
X7594968Y-16225988D01*
X7594968Y-16225988D02*
X7585444Y-16235512D01*
X7585444Y-16235512D02*
X7566397Y-16245036D01*
X7566397Y-16245036D02*
X7509254Y-16245036D01*
X7509254Y-16245036D02*
X7490206Y-16235512D01*
X7490206Y-16235512D02*
X7480682Y-16225988D01*
X7728301Y-16045036D02*
X7747349Y-16045036D01*
X7747349Y-16045036D02*
X7766397Y-16054559D01*
X7766397Y-16054559D02*
X7775920Y-16064083D01*
X7775920Y-16064083D02*
X7785444Y-16083131D01*
X7785444Y-16083131D02*
X7794968Y-16121226D01*
X7794968Y-16121226D02*
X7794968Y-16168845D01*
X7794968Y-16168845D02*
X7785444Y-16206940D01*
X7785444Y-16206940D02*
X7775920Y-16225988D01*
X7775920Y-16225988D02*
X7766397Y-16235512D01*
X7766397Y-16235512D02*
X7747349Y-16245036D01*
X7747349Y-16245036D02*
X7728301Y-16245036D01*
X7728301Y-16245036D02*
X7709254Y-16235512D01*
X7709254Y-16235512D02*
X7699730Y-16225988D01*
X7699730Y-16225988D02*
X7690206Y-16206940D01*
X7690206Y-16206940D02*
X7680682Y-16168845D01*
X7680682Y-16168845D02*
X7680682Y-16121226D01*
X7680682Y-16121226D02*
X7690206Y-16083131D01*
X7690206Y-16083131D02*
X7699730Y-16064083D01*
X7699730Y-16064083D02*
X7709254Y-16054559D01*
X7709254Y-16054559D02*
X7728301Y-16045036D01*
X7918778Y-16045036D02*
X7937825Y-16045036D01*
X7937825Y-16045036D02*
X7956873Y-16054559D01*
X7956873Y-16054559D02*
X7966397Y-16064083D01*
X7966397Y-16064083D02*
X7975920Y-16083131D01*
X7975920Y-16083131D02*
X7985444Y-16121226D01*
X7985444Y-16121226D02*
X7985444Y-16168845D01*
X7985444Y-16168845D02*
X7975920Y-16206940D01*
X7975920Y-16206940D02*
X7966397Y-16225988D01*
X7966397Y-16225988D02*
X7956873Y-16235512D01*
X7956873Y-16235512D02*
X7937825Y-16245036D01*
X7937825Y-16245036D02*
X7918778Y-16245036D01*
X7918778Y-16245036D02*
X7899730Y-16235512D01*
X7899730Y-16235512D02*
X7890206Y-16225988D01*
X7890206Y-16225988D02*
X7880682Y-16206940D01*
X7880682Y-16206940D02*
X7871159Y-16168845D01*
X7871159Y-16168845D02*
X7871159Y-16121226D01*
X7871159Y-16121226D02*
X7880682Y-16083131D01*
X7880682Y-16083131D02*
X7890206Y-16064083D01*
X7890206Y-16064083D02*
X7899730Y-16054559D01*
X7899730Y-16054559D02*
X7918778Y-16045036D01*
X8071159Y-16245036D02*
X8071159Y-16111702D01*
X8071159Y-16130750D02*
X8080682Y-16121226D01*
X8080682Y-16121226D02*
X8099730Y-16111702D01*
X8099730Y-16111702D02*
X8128301Y-16111702D01*
X8128301Y-16111702D02*
X8147349Y-16121226D01*
X8147349Y-16121226D02*
X8156873Y-16140274D01*
X8156873Y-16140274D02*
X8156873Y-16245036D01*
X8156873Y-16140274D02*
X8166397Y-16121226D01*
X8166397Y-16121226D02*
X8185444Y-16111702D01*
X8185444Y-16111702D02*
X8214016Y-16111702D01*
X8214016Y-16111702D02*
X8233063Y-16121226D01*
X8233063Y-16121226D02*
X8242587Y-16140274D01*
X8242587Y-16140274D02*
X8242587Y-16245036D01*
X8337825Y-16245036D02*
X8337825Y-16111702D01*
X8337825Y-16130750D02*
X8347349Y-16121226D01*
X8347349Y-16121226D02*
X8366397Y-16111702D01*
X8366397Y-16111702D02*
X8394968Y-16111702D01*
X8394968Y-16111702D02*
X8414016Y-16121226D01*
X8414016Y-16121226D02*
X8423540Y-16140274D01*
X8423540Y-16140274D02*
X8423540Y-16245036D01*
X8423540Y-16140274D02*
X8433063Y-16121226D01*
X8433063Y-16121226D02*
X8452111Y-16111702D01*
X8452111Y-16111702D02*
X8480682Y-16111702D01*
X8480682Y-16111702D02*
X8499730Y-16121226D01*
X8499730Y-16121226D02*
X8509254Y-16140274D01*
X8509254Y-16140274D02*
X8509254Y-16245036D01*
X8899730Y-16035512D02*
X8728302Y-16292655D01*
X9156873Y-16045036D02*
X9175921Y-16045036D01*
X9175921Y-16045036D02*
X9194968Y-16054559D01*
X9194968Y-16054559D02*
X9204492Y-16064083D01*
X9204492Y-16064083D02*
X9214016Y-16083131D01*
X9214016Y-16083131D02*
X9223540Y-16121226D01*
X9223540Y-16121226D02*
X9223540Y-16168845D01*
X9223540Y-16168845D02*
X9214016Y-16206940D01*
X9214016Y-16206940D02*
X9204492Y-16225988D01*
X9204492Y-16225988D02*
X9194968Y-16235512D01*
X9194968Y-16235512D02*
X9175921Y-16245036D01*
X9175921Y-16245036D02*
X9156873Y-16245036D01*
X9156873Y-16245036D02*
X9137825Y-16235512D01*
X9137825Y-16235512D02*
X9128302Y-16225988D01*
X9128302Y-16225988D02*
X9118778Y-16206940D01*
X9118778Y-16206940D02*
X9109254Y-16168845D01*
X9109254Y-16168845D02*
X9109254Y-16121226D01*
X9109254Y-16121226D02*
X9118778Y-16083131D01*
X9118778Y-16083131D02*
X9128302Y-16064083D01*
X9128302Y-16064083D02*
X9137825Y-16054559D01*
X9137825Y-16054559D02*
X9156873Y-16045036D01*
X9309254Y-16225988D02*
X9318778Y-16235512D01*
X9318778Y-16235512D02*
X9309254Y-16245036D01*
X9309254Y-16245036D02*
X9299730Y-16235512D01*
X9299730Y-16235512D02*
X9309254Y-16225988D01*
X9309254Y-16225988D02*
X9309254Y-16245036D01*
X9442587Y-16045036D02*
X9461635Y-16045036D01*
X9461635Y-16045036D02*
X9480683Y-16054559D01*
X9480683Y-16054559D02*
X9490206Y-16064083D01*
X9490206Y-16064083D02*
X9499730Y-16083131D01*
X9499730Y-16083131D02*
X9509254Y-16121226D01*
X9509254Y-16121226D02*
X9509254Y-16168845D01*
X9509254Y-16168845D02*
X9499730Y-16206940D01*
X9499730Y-16206940D02*
X9490206Y-16225988D01*
X9490206Y-16225988D02*
X9480683Y-16235512D01*
X9480683Y-16235512D02*
X9461635Y-16245036D01*
X9461635Y-16245036D02*
X9442587Y-16245036D01*
X9442587Y-16245036D02*
X9423540Y-16235512D01*
X9423540Y-16235512D02*
X9414016Y-16225988D01*
X9414016Y-16225988D02*
X9404492Y-16206940D01*
X9404492Y-16206940D02*
X9394968Y-16168845D01*
X9394968Y-16168845D02*
X9394968Y-16121226D01*
X9394968Y-16121226D02*
X9404492Y-16083131D01*
X9404492Y-16083131D02*
X9414016Y-16064083D01*
X9414016Y-16064083D02*
X9423540Y-16054559D01*
X9423540Y-16054559D02*
X9442587Y-16045036D01*
X9699730Y-16245036D02*
X9585445Y-16245036D01*
X9642587Y-16245036D02*
X9642587Y-16045036D01*
X9642587Y-16045036D02*
X9623540Y-16073607D01*
X9623540Y-16073607D02*
X9604492Y-16092655D01*
X9604492Y-16092655D02*
X9585445Y-16102178D01*
X9890206Y-16245036D02*
X9775921Y-16245036D01*
X9833064Y-16245036D02*
X9833064Y-16045036D01*
X9833064Y-16045036D02*
X9814016Y-16073607D01*
X9814016Y-16073607D02*
X9794968Y-16092655D01*
X9794968Y-16092655D02*
X9775921Y-16102178D01*
X10004492Y-16130750D02*
X9985445Y-16121226D01*
X9985445Y-16121226D02*
X9975921Y-16111702D01*
X9975921Y-16111702D02*
X9966397Y-16092655D01*
X9966397Y-16092655D02*
X9966397Y-16083131D01*
X9966397Y-16083131D02*
X9975921Y-16064083D01*
X9975921Y-16064083D02*
X9985445Y-16054559D01*
X9985445Y-16054559D02*
X10004492Y-16045036D01*
X10004492Y-16045036D02*
X10042587Y-16045036D01*
X10042587Y-16045036D02*
X10061635Y-16054559D01*
X10061635Y-16054559D02*
X10071159Y-16064083D01*
X10071159Y-16064083D02*
X10080683Y-16083131D01*
X10080683Y-16083131D02*
X10080683Y-16092655D01*
X10080683Y-16092655D02*
X10071159Y-16111702D01*
X10071159Y-16111702D02*
X10061635Y-16121226D01*
X10061635Y-16121226D02*
X10042587Y-16130750D01*
X10042587Y-16130750D02*
X10004492Y-16130750D01*
X10004492Y-16130750D02*
X9985445Y-16140274D01*
X9985445Y-16140274D02*
X9975921Y-16149798D01*
X9975921Y-16149798D02*
X9966397Y-16168845D01*
X9966397Y-16168845D02*
X9966397Y-16206940D01*
X9966397Y-16206940D02*
X9975921Y-16225988D01*
X9975921Y-16225988D02*
X9985445Y-16235512D01*
X9985445Y-16235512D02*
X10004492Y-16245036D01*
X10004492Y-16245036D02*
X10042587Y-16245036D01*
X10042587Y-16245036D02*
X10061635Y-16235512D01*
X10061635Y-16235512D02*
X10071159Y-16225988D01*
X10071159Y-16225988D02*
X10080683Y-16206940D01*
X10080683Y-16206940D02*
X10080683Y-16168845D01*
X10080683Y-16168845D02*
X10071159Y-16149798D01*
X10071159Y-16149798D02*
X10061635Y-16140274D01*
X10061635Y-16140274D02*
X10042587Y-16130750D01*
X10156873Y-16045036D02*
X10156873Y-16083131D01*
X10233064Y-16045036D02*
X10233064Y-16083131D01*
X10528302Y-16321226D02*
X10518778Y-16311702D01*
X10518778Y-16311702D02*
X10499730Y-16283131D01*
X10499730Y-16283131D02*
X10490207Y-16264083D01*
X10490207Y-16264083D02*
X10480683Y-16235512D01*
X10480683Y-16235512D02*
X10471159Y-16187893D01*
X10471159Y-16187893D02*
X10471159Y-16149798D01*
X10471159Y-16149798D02*
X10480683Y-16102178D01*
X10480683Y-16102178D02*
X10490207Y-16073607D01*
X10490207Y-16073607D02*
X10499730Y-16054559D01*
X10499730Y-16054559D02*
X10518778Y-16025988D01*
X10518778Y-16025988D02*
X10528302Y-16016464D01*
X10709254Y-16245036D02*
X10594968Y-16245036D01*
X10652111Y-16245036D02*
X10652111Y-16045036D01*
X10652111Y-16045036D02*
X10633064Y-16073607D01*
X10633064Y-16073607D02*
X10614016Y-16092655D01*
X10614016Y-16092655D02*
X10594968Y-16102178D01*
X10890207Y-16045036D02*
X10794968Y-16045036D01*
X10794968Y-16045036D02*
X10785445Y-16140274D01*
X10785445Y-16140274D02*
X10794968Y-16130750D01*
X10794968Y-16130750D02*
X10814016Y-16121226D01*
X10814016Y-16121226D02*
X10861635Y-16121226D01*
X10861635Y-16121226D02*
X10880683Y-16130750D01*
X10880683Y-16130750D02*
X10890207Y-16140274D01*
X10890207Y-16140274D02*
X10899730Y-16159321D01*
X10899730Y-16159321D02*
X10899730Y-16206940D01*
X10899730Y-16206940D02*
X10890207Y-16225988D01*
X10890207Y-16225988D02*
X10880683Y-16235512D01*
X10880683Y-16235512D02*
X10861635Y-16245036D01*
X10861635Y-16245036D02*
X10814016Y-16245036D01*
X10814016Y-16245036D02*
X10794968Y-16235512D01*
X10794968Y-16235512D02*
X10785445Y-16225988D01*
X11137826Y-16245036D02*
X11137826Y-16045036D01*
X11223540Y-16245036D02*
X11223540Y-16140274D01*
X11223540Y-16140274D02*
X11214016Y-16121226D01*
X11214016Y-16121226D02*
X11194968Y-16111702D01*
X11194968Y-16111702D02*
X11166397Y-16111702D01*
X11166397Y-16111702D02*
X11147349Y-16121226D01*
X11147349Y-16121226D02*
X11137826Y-16130750D01*
X11347349Y-16245036D02*
X11328302Y-16235512D01*
X11328302Y-16235512D02*
X11318778Y-16225988D01*
X11318778Y-16225988D02*
X11309254Y-16206940D01*
X11309254Y-16206940D02*
X11309254Y-16149798D01*
X11309254Y-16149798D02*
X11318778Y-16130750D01*
X11318778Y-16130750D02*
X11328302Y-16121226D01*
X11328302Y-16121226D02*
X11347349Y-16111702D01*
X11347349Y-16111702D02*
X11375921Y-16111702D01*
X11375921Y-16111702D02*
X11394968Y-16121226D01*
X11394968Y-16121226D02*
X11404492Y-16130750D01*
X11404492Y-16130750D02*
X11414016Y-16149798D01*
X11414016Y-16149798D02*
X11414016Y-16206940D01*
X11414016Y-16206940D02*
X11404492Y-16225988D01*
X11404492Y-16225988D02*
X11394968Y-16235512D01*
X11394968Y-16235512D02*
X11375921Y-16245036D01*
X11375921Y-16245036D02*
X11347349Y-16245036D01*
X11528302Y-16245036D02*
X11509254Y-16235512D01*
X11509254Y-16235512D02*
X11499730Y-16216464D01*
X11499730Y-16216464D02*
X11499730Y-16045036D01*
X11680683Y-16235512D02*
X11661635Y-16245036D01*
X11661635Y-16245036D02*
X11623540Y-16245036D01*
X11623540Y-16245036D02*
X11604492Y-16235512D01*
X11604492Y-16235512D02*
X11594968Y-16216464D01*
X11594968Y-16216464D02*
X11594968Y-16140274D01*
X11594968Y-16140274D02*
X11604492Y-16121226D01*
X11604492Y-16121226D02*
X11623540Y-16111702D01*
X11623540Y-16111702D02*
X11661635Y-16111702D01*
X11661635Y-16111702D02*
X11680683Y-16121226D01*
X11680683Y-16121226D02*
X11690207Y-16140274D01*
X11690207Y-16140274D02*
X11690207Y-16159321D01*
X11690207Y-16159321D02*
X11594968Y-16178369D01*
X11766397Y-16235512D02*
X11785445Y-16245036D01*
X11785445Y-16245036D02*
X11823540Y-16245036D01*
X11823540Y-16245036D02*
X11842588Y-16235512D01*
X11842588Y-16235512D02*
X11852111Y-16216464D01*
X11852111Y-16216464D02*
X11852111Y-16206940D01*
X11852111Y-16206940D02*
X11842588Y-16187893D01*
X11842588Y-16187893D02*
X11823540Y-16178369D01*
X11823540Y-16178369D02*
X11794968Y-16178369D01*
X11794968Y-16178369D02*
X11775921Y-16168845D01*
X11775921Y-16168845D02*
X11766397Y-16149798D01*
X11766397Y-16149798D02*
X11766397Y-16140274D01*
X11766397Y-16140274D02*
X11775921Y-16121226D01*
X11775921Y-16121226D02*
X11794968Y-16111702D01*
X11794968Y-16111702D02*
X11823540Y-16111702D01*
X11823540Y-16111702D02*
X11842588Y-16121226D01*
X11918778Y-16321226D02*
X11928302Y-16311702D01*
X11928302Y-16311702D02*
X11947349Y-16283131D01*
X11947349Y-16283131D02*
X11956873Y-16264083D01*
X11956873Y-16264083D02*
X11966397Y-16235512D01*
X11966397Y-16235512D02*
X11975921Y-16187893D01*
X11975921Y-16187893D02*
X11975921Y-16149798D01*
X11975921Y-16149798D02*
X11966397Y-16102178D01*
X11966397Y-16102178D02*
X11956873Y-16073607D01*
X11956873Y-16073607D02*
X11947349Y-16054559D01*
X11947349Y-16054559D02*
X11928302Y-16025988D01*
X11928302Y-16025988D02*
X11918778Y-16016464D01*
D11*
X6935739Y-16400052D02*
X6935739Y-16435052D01*
X6918239Y-16417552D02*
X6953239Y-16417552D01*
D12*
X7252111Y-16309036D02*
X7271159Y-16309036D01*
X7271159Y-16309036D02*
X7290206Y-16318559D01*
X7290206Y-16318559D02*
X7299730Y-16328083D01*
X7299730Y-16328083D02*
X7309254Y-16347131D01*
X7309254Y-16347131D02*
X7318778Y-16385226D01*
X7318778Y-16385226D02*
X7318778Y-16432845D01*
X7318778Y-16432845D02*
X7309254Y-16470940D01*
X7309254Y-16470940D02*
X7299730Y-16489988D01*
X7299730Y-16489988D02*
X7290206Y-16499512D01*
X7290206Y-16499512D02*
X7271159Y-16509036D01*
X7271159Y-16509036D02*
X7252111Y-16509036D01*
X7252111Y-16509036D02*
X7233063Y-16499512D01*
X7233063Y-16499512D02*
X7223539Y-16489988D01*
X7223539Y-16489988D02*
X7214016Y-16470940D01*
X7214016Y-16470940D02*
X7204492Y-16432845D01*
X7204492Y-16432845D02*
X7204492Y-16385226D01*
X7204492Y-16385226D02*
X7214016Y-16347131D01*
X7214016Y-16347131D02*
X7223539Y-16328083D01*
X7223539Y-16328083D02*
X7233063Y-16318559D01*
X7233063Y-16318559D02*
X7252111Y-16309036D01*
X7404492Y-16489988D02*
X7414016Y-16499512D01*
X7414016Y-16499512D02*
X7404492Y-16509036D01*
X7404492Y-16509036D02*
X7394968Y-16499512D01*
X7394968Y-16499512D02*
X7404492Y-16489988D01*
X7404492Y-16489988D02*
X7404492Y-16509036D01*
X7480682Y-16309036D02*
X7604492Y-16309036D01*
X7604492Y-16309036D02*
X7537825Y-16385226D01*
X7537825Y-16385226D02*
X7566397Y-16385226D01*
X7566397Y-16385226D02*
X7585444Y-16394750D01*
X7585444Y-16394750D02*
X7594968Y-16404274D01*
X7594968Y-16404274D02*
X7604492Y-16423321D01*
X7604492Y-16423321D02*
X7604492Y-16470940D01*
X7604492Y-16470940D02*
X7594968Y-16489988D01*
X7594968Y-16489988D02*
X7585444Y-16499512D01*
X7585444Y-16499512D02*
X7566397Y-16509036D01*
X7566397Y-16509036D02*
X7509254Y-16509036D01*
X7509254Y-16509036D02*
X7490206Y-16499512D01*
X7490206Y-16499512D02*
X7480682Y-16489988D01*
X7785444Y-16309036D02*
X7690206Y-16309036D01*
X7690206Y-16309036D02*
X7680682Y-16404274D01*
X7680682Y-16404274D02*
X7690206Y-16394750D01*
X7690206Y-16394750D02*
X7709254Y-16385226D01*
X7709254Y-16385226D02*
X7756873Y-16385226D01*
X7756873Y-16385226D02*
X7775920Y-16394750D01*
X7775920Y-16394750D02*
X7785444Y-16404274D01*
X7785444Y-16404274D02*
X7794968Y-16423321D01*
X7794968Y-16423321D02*
X7794968Y-16470940D01*
X7794968Y-16470940D02*
X7785444Y-16489988D01*
X7785444Y-16489988D02*
X7775920Y-16499512D01*
X7775920Y-16499512D02*
X7756873Y-16509036D01*
X7756873Y-16509036D02*
X7709254Y-16509036D01*
X7709254Y-16509036D02*
X7690206Y-16499512D01*
X7690206Y-16499512D02*
X7680682Y-16489988D01*
X7918778Y-16309036D02*
X7937825Y-16309036D01*
X7937825Y-16309036D02*
X7956873Y-16318559D01*
X7956873Y-16318559D02*
X7966397Y-16328083D01*
X7966397Y-16328083D02*
X7975920Y-16347131D01*
X7975920Y-16347131D02*
X7985444Y-16385226D01*
X7985444Y-16385226D02*
X7985444Y-16432845D01*
X7985444Y-16432845D02*
X7975920Y-16470940D01*
X7975920Y-16470940D02*
X7966397Y-16489988D01*
X7966397Y-16489988D02*
X7956873Y-16499512D01*
X7956873Y-16499512D02*
X7937825Y-16509036D01*
X7937825Y-16509036D02*
X7918778Y-16509036D01*
X7918778Y-16509036D02*
X7899730Y-16499512D01*
X7899730Y-16499512D02*
X7890206Y-16489988D01*
X7890206Y-16489988D02*
X7880682Y-16470940D01*
X7880682Y-16470940D02*
X7871159Y-16432845D01*
X7871159Y-16432845D02*
X7871159Y-16385226D01*
X7871159Y-16385226D02*
X7880682Y-16347131D01*
X7880682Y-16347131D02*
X7890206Y-16328083D01*
X7890206Y-16328083D02*
X7899730Y-16318559D01*
X7899730Y-16318559D02*
X7918778Y-16309036D01*
X8071159Y-16509036D02*
X8071159Y-16375702D01*
X8071159Y-16394750D02*
X8080682Y-16385226D01*
X8080682Y-16385226D02*
X8099730Y-16375702D01*
X8099730Y-16375702D02*
X8128301Y-16375702D01*
X8128301Y-16375702D02*
X8147349Y-16385226D01*
X8147349Y-16385226D02*
X8156873Y-16404274D01*
X8156873Y-16404274D02*
X8156873Y-16509036D01*
X8156873Y-16404274D02*
X8166397Y-16385226D01*
X8166397Y-16385226D02*
X8185444Y-16375702D01*
X8185444Y-16375702D02*
X8214016Y-16375702D01*
X8214016Y-16375702D02*
X8233063Y-16385226D01*
X8233063Y-16385226D02*
X8242587Y-16404274D01*
X8242587Y-16404274D02*
X8242587Y-16509036D01*
X8337825Y-16509036D02*
X8337825Y-16375702D01*
X8337825Y-16394750D02*
X8347349Y-16385226D01*
X8347349Y-16385226D02*
X8366397Y-16375702D01*
X8366397Y-16375702D02*
X8394968Y-16375702D01*
X8394968Y-16375702D02*
X8414016Y-16385226D01*
X8414016Y-16385226D02*
X8423540Y-16404274D01*
X8423540Y-16404274D02*
X8423540Y-16509036D01*
X8423540Y-16404274D02*
X8433063Y-16385226D01*
X8433063Y-16385226D02*
X8452111Y-16375702D01*
X8452111Y-16375702D02*
X8480682Y-16375702D01*
X8480682Y-16375702D02*
X8499730Y-16385226D01*
X8499730Y-16385226D02*
X8509254Y-16404274D01*
X8509254Y-16404274D02*
X8509254Y-16509036D01*
X8899730Y-16299512D02*
X8728302Y-16556655D01*
X9156873Y-16309036D02*
X9175921Y-16309036D01*
X9175921Y-16309036D02*
X9194968Y-16318559D01*
X9194968Y-16318559D02*
X9204492Y-16328083D01*
X9204492Y-16328083D02*
X9214016Y-16347131D01*
X9214016Y-16347131D02*
X9223540Y-16385226D01*
X9223540Y-16385226D02*
X9223540Y-16432845D01*
X9223540Y-16432845D02*
X9214016Y-16470940D01*
X9214016Y-16470940D02*
X9204492Y-16489988D01*
X9204492Y-16489988D02*
X9194968Y-16499512D01*
X9194968Y-16499512D02*
X9175921Y-16509036D01*
X9175921Y-16509036D02*
X9156873Y-16509036D01*
X9156873Y-16509036D02*
X9137825Y-16499512D01*
X9137825Y-16499512D02*
X9128302Y-16489988D01*
X9128302Y-16489988D02*
X9118778Y-16470940D01*
X9118778Y-16470940D02*
X9109254Y-16432845D01*
X9109254Y-16432845D02*
X9109254Y-16385226D01*
X9109254Y-16385226D02*
X9118778Y-16347131D01*
X9118778Y-16347131D02*
X9128302Y-16328083D01*
X9128302Y-16328083D02*
X9137825Y-16318559D01*
X9137825Y-16318559D02*
X9156873Y-16309036D01*
X9309254Y-16489988D02*
X9318778Y-16499512D01*
X9318778Y-16499512D02*
X9309254Y-16509036D01*
X9309254Y-16509036D02*
X9299730Y-16499512D01*
X9299730Y-16499512D02*
X9309254Y-16489988D01*
X9309254Y-16489988D02*
X9309254Y-16509036D01*
X9442587Y-16309036D02*
X9461635Y-16309036D01*
X9461635Y-16309036D02*
X9480683Y-16318559D01*
X9480683Y-16318559D02*
X9490206Y-16328083D01*
X9490206Y-16328083D02*
X9499730Y-16347131D01*
X9499730Y-16347131D02*
X9509254Y-16385226D01*
X9509254Y-16385226D02*
X9509254Y-16432845D01*
X9509254Y-16432845D02*
X9499730Y-16470940D01*
X9499730Y-16470940D02*
X9490206Y-16489988D01*
X9490206Y-16489988D02*
X9480683Y-16499512D01*
X9480683Y-16499512D02*
X9461635Y-16509036D01*
X9461635Y-16509036D02*
X9442587Y-16509036D01*
X9442587Y-16509036D02*
X9423540Y-16499512D01*
X9423540Y-16499512D02*
X9414016Y-16489988D01*
X9414016Y-16489988D02*
X9404492Y-16470940D01*
X9404492Y-16470940D02*
X9394968Y-16432845D01*
X9394968Y-16432845D02*
X9394968Y-16385226D01*
X9394968Y-16385226D02*
X9404492Y-16347131D01*
X9404492Y-16347131D02*
X9414016Y-16328083D01*
X9414016Y-16328083D02*
X9423540Y-16318559D01*
X9423540Y-16318559D02*
X9442587Y-16309036D01*
X9699730Y-16509036D02*
X9585445Y-16509036D01*
X9642587Y-16509036D02*
X9642587Y-16309036D01*
X9642587Y-16309036D02*
X9623540Y-16337607D01*
X9623540Y-16337607D02*
X9604492Y-16356655D01*
X9604492Y-16356655D02*
X9585445Y-16366178D01*
X9766397Y-16309036D02*
X9890206Y-16309036D01*
X9890206Y-16309036D02*
X9823540Y-16385226D01*
X9823540Y-16385226D02*
X9852111Y-16385226D01*
X9852111Y-16385226D02*
X9871159Y-16394750D01*
X9871159Y-16394750D02*
X9880683Y-16404274D01*
X9880683Y-16404274D02*
X9890206Y-16423321D01*
X9890206Y-16423321D02*
X9890206Y-16470940D01*
X9890206Y-16470940D02*
X9880683Y-16489988D01*
X9880683Y-16489988D02*
X9871159Y-16499512D01*
X9871159Y-16499512D02*
X9852111Y-16509036D01*
X9852111Y-16509036D02*
X9794968Y-16509036D01*
X9794968Y-16509036D02*
X9775921Y-16499512D01*
X9775921Y-16499512D02*
X9766397Y-16489988D01*
X10004492Y-16394750D02*
X9985445Y-16385226D01*
X9985445Y-16385226D02*
X9975921Y-16375702D01*
X9975921Y-16375702D02*
X9966397Y-16356655D01*
X9966397Y-16356655D02*
X9966397Y-16347131D01*
X9966397Y-16347131D02*
X9975921Y-16328083D01*
X9975921Y-16328083D02*
X9985445Y-16318559D01*
X9985445Y-16318559D02*
X10004492Y-16309036D01*
X10004492Y-16309036D02*
X10042587Y-16309036D01*
X10042587Y-16309036D02*
X10061635Y-16318559D01*
X10061635Y-16318559D02*
X10071159Y-16328083D01*
X10071159Y-16328083D02*
X10080683Y-16347131D01*
X10080683Y-16347131D02*
X10080683Y-16356655D01*
X10080683Y-16356655D02*
X10071159Y-16375702D01*
X10071159Y-16375702D02*
X10061635Y-16385226D01*
X10061635Y-16385226D02*
X10042587Y-16394750D01*
X10042587Y-16394750D02*
X10004492Y-16394750D01*
X10004492Y-16394750D02*
X9985445Y-16404274D01*
X9985445Y-16404274D02*
X9975921Y-16413798D01*
X9975921Y-16413798D02*
X9966397Y-16432845D01*
X9966397Y-16432845D02*
X9966397Y-16470940D01*
X9966397Y-16470940D02*
X9975921Y-16489988D01*
X9975921Y-16489988D02*
X9985445Y-16499512D01*
X9985445Y-16499512D02*
X10004492Y-16509036D01*
X10004492Y-16509036D02*
X10042587Y-16509036D01*
X10042587Y-16509036D02*
X10061635Y-16499512D01*
X10061635Y-16499512D02*
X10071159Y-16489988D01*
X10071159Y-16489988D02*
X10080683Y-16470940D01*
X10080683Y-16470940D02*
X10080683Y-16432845D01*
X10080683Y-16432845D02*
X10071159Y-16413798D01*
X10071159Y-16413798D02*
X10061635Y-16404274D01*
X10061635Y-16404274D02*
X10042587Y-16394750D01*
X10156873Y-16309036D02*
X10156873Y-16347131D01*
X10233064Y-16309036D02*
X10233064Y-16347131D01*
X10528302Y-16585226D02*
X10518778Y-16575702D01*
X10518778Y-16575702D02*
X10499730Y-16547131D01*
X10499730Y-16547131D02*
X10490207Y-16528083D01*
X10490207Y-16528083D02*
X10480683Y-16499512D01*
X10480683Y-16499512D02*
X10471159Y-16451893D01*
X10471159Y-16451893D02*
X10471159Y-16413798D01*
X10471159Y-16413798D02*
X10480683Y-16366178D01*
X10480683Y-16366178D02*
X10490207Y-16337607D01*
X10490207Y-16337607D02*
X10499730Y-16318559D01*
X10499730Y-16318559D02*
X10518778Y-16289988D01*
X10518778Y-16289988D02*
X10528302Y-16280464D01*
X10614016Y-16509036D02*
X10652111Y-16509036D01*
X10652111Y-16509036D02*
X10671159Y-16499512D01*
X10671159Y-16499512D02*
X10680683Y-16489988D01*
X10680683Y-16489988D02*
X10699730Y-16461417D01*
X10699730Y-16461417D02*
X10709254Y-16423321D01*
X10709254Y-16423321D02*
X10709254Y-16347131D01*
X10709254Y-16347131D02*
X10699730Y-16328083D01*
X10699730Y-16328083D02*
X10690207Y-16318559D01*
X10690207Y-16318559D02*
X10671159Y-16309036D01*
X10671159Y-16309036D02*
X10633064Y-16309036D01*
X10633064Y-16309036D02*
X10614016Y-16318559D01*
X10614016Y-16318559D02*
X10604492Y-16328083D01*
X10604492Y-16328083D02*
X10594968Y-16347131D01*
X10594968Y-16347131D02*
X10594968Y-16394750D01*
X10594968Y-16394750D02*
X10604492Y-16413798D01*
X10604492Y-16413798D02*
X10614016Y-16423321D01*
X10614016Y-16423321D02*
X10633064Y-16432845D01*
X10633064Y-16432845D02*
X10671159Y-16432845D01*
X10671159Y-16432845D02*
X10690207Y-16423321D01*
X10690207Y-16423321D02*
X10699730Y-16413798D01*
X10699730Y-16413798D02*
X10709254Y-16394750D01*
X10785445Y-16328083D02*
X10794968Y-16318559D01*
X10794968Y-16318559D02*
X10814016Y-16309036D01*
X10814016Y-16309036D02*
X10861635Y-16309036D01*
X10861635Y-16309036D02*
X10880683Y-16318559D01*
X10880683Y-16318559D02*
X10890207Y-16328083D01*
X10890207Y-16328083D02*
X10899730Y-16347131D01*
X10899730Y-16347131D02*
X10899730Y-16366178D01*
X10899730Y-16366178D02*
X10890207Y-16394750D01*
X10890207Y-16394750D02*
X10775921Y-16509036D01*
X10775921Y-16509036D02*
X10899730Y-16509036D01*
X11137826Y-16509036D02*
X11137826Y-16309036D01*
X11223540Y-16509036D02*
X11223540Y-16404274D01*
X11223540Y-16404274D02*
X11214016Y-16385226D01*
X11214016Y-16385226D02*
X11194968Y-16375702D01*
X11194968Y-16375702D02*
X11166397Y-16375702D01*
X11166397Y-16375702D02*
X11147349Y-16385226D01*
X11147349Y-16385226D02*
X11137826Y-16394750D01*
X11347349Y-16509036D02*
X11328302Y-16499512D01*
X11328302Y-16499512D02*
X11318778Y-16489988D01*
X11318778Y-16489988D02*
X11309254Y-16470940D01*
X11309254Y-16470940D02*
X11309254Y-16413798D01*
X11309254Y-16413798D02*
X11318778Y-16394750D01*
X11318778Y-16394750D02*
X11328302Y-16385226D01*
X11328302Y-16385226D02*
X11347349Y-16375702D01*
X11347349Y-16375702D02*
X11375921Y-16375702D01*
X11375921Y-16375702D02*
X11394968Y-16385226D01*
X11394968Y-16385226D02*
X11404492Y-16394750D01*
X11404492Y-16394750D02*
X11414016Y-16413798D01*
X11414016Y-16413798D02*
X11414016Y-16470940D01*
X11414016Y-16470940D02*
X11404492Y-16489988D01*
X11404492Y-16489988D02*
X11394968Y-16499512D01*
X11394968Y-16499512D02*
X11375921Y-16509036D01*
X11375921Y-16509036D02*
X11347349Y-16509036D01*
X11528302Y-16509036D02*
X11509254Y-16499512D01*
X11509254Y-16499512D02*
X11499730Y-16480464D01*
X11499730Y-16480464D02*
X11499730Y-16309036D01*
X11680683Y-16499512D02*
X11661635Y-16509036D01*
X11661635Y-16509036D02*
X11623540Y-16509036D01*
X11623540Y-16509036D02*
X11604492Y-16499512D01*
X11604492Y-16499512D02*
X11594968Y-16480464D01*
X11594968Y-16480464D02*
X11594968Y-16404274D01*
X11594968Y-16404274D02*
X11604492Y-16385226D01*
X11604492Y-16385226D02*
X11623540Y-16375702D01*
X11623540Y-16375702D02*
X11661635Y-16375702D01*
X11661635Y-16375702D02*
X11680683Y-16385226D01*
X11680683Y-16385226D02*
X11690207Y-16404274D01*
X11690207Y-16404274D02*
X11690207Y-16423321D01*
X11690207Y-16423321D02*
X11594968Y-16442369D01*
X11766397Y-16499512D02*
X11785445Y-16509036D01*
X11785445Y-16509036D02*
X11823540Y-16509036D01*
X11823540Y-16509036D02*
X11842588Y-16499512D01*
X11842588Y-16499512D02*
X11852111Y-16480464D01*
X11852111Y-16480464D02*
X11852111Y-16470940D01*
X11852111Y-16470940D02*
X11842588Y-16451893D01*
X11842588Y-16451893D02*
X11823540Y-16442369D01*
X11823540Y-16442369D02*
X11794968Y-16442369D01*
X11794968Y-16442369D02*
X11775921Y-16432845D01*
X11775921Y-16432845D02*
X11766397Y-16413798D01*
X11766397Y-16413798D02*
X11766397Y-16404274D01*
X11766397Y-16404274D02*
X11775921Y-16385226D01*
X11775921Y-16385226D02*
X11794968Y-16375702D01*
X11794968Y-16375702D02*
X11823540Y-16375702D01*
X11823540Y-16375702D02*
X11842588Y-16385226D01*
X11918778Y-16585226D02*
X11928302Y-16575702D01*
X11928302Y-16575702D02*
X11947349Y-16547131D01*
X11947349Y-16547131D02*
X11956873Y-16528083D01*
X11956873Y-16528083D02*
X11966397Y-16499512D01*
X11966397Y-16499512D02*
X11975921Y-16451893D01*
X11975921Y-16451893D02*
X11975921Y-16413798D01*
X11975921Y-16413798D02*
X11966397Y-16366178D01*
X11966397Y-16366178D02*
X11956873Y-16337607D01*
X11956873Y-16337607D02*
X11947349Y-16318559D01*
X11947349Y-16318559D02*
X11928302Y-16289988D01*
X11928302Y-16289988D02*
X11918778Y-16280464D01*
D11*
X6947381Y-16695694D02*
X6947381Y-16667410D01*
X6919097Y-16667410D01*
X6919097Y-16695694D01*
X6947381Y-16695694D01*
D12*
X7252111Y-16573036D02*
X7271159Y-16573036D01*
X7271159Y-16573036D02*
X7290206Y-16582559D01*
X7290206Y-16582559D02*
X7299730Y-16592083D01*
X7299730Y-16592083D02*
X7309254Y-16611131D01*
X7309254Y-16611131D02*
X7318778Y-16649226D01*
X7318778Y-16649226D02*
X7318778Y-16696845D01*
X7318778Y-16696845D02*
X7309254Y-16734940D01*
X7309254Y-16734940D02*
X7299730Y-16753988D01*
X7299730Y-16753988D02*
X7290206Y-16763512D01*
X7290206Y-16763512D02*
X7271159Y-16773036D01*
X7271159Y-16773036D02*
X7252111Y-16773036D01*
X7252111Y-16773036D02*
X7233063Y-16763512D01*
X7233063Y-16763512D02*
X7223539Y-16753988D01*
X7223539Y-16753988D02*
X7214016Y-16734940D01*
X7214016Y-16734940D02*
X7204492Y-16696845D01*
X7204492Y-16696845D02*
X7204492Y-16649226D01*
X7204492Y-16649226D02*
X7214016Y-16611131D01*
X7214016Y-16611131D02*
X7223539Y-16592083D01*
X7223539Y-16592083D02*
X7233063Y-16582559D01*
X7233063Y-16582559D02*
X7252111Y-16573036D01*
X7404492Y-16753988D02*
X7414016Y-16763512D01*
X7414016Y-16763512D02*
X7404492Y-16773036D01*
X7404492Y-16773036D02*
X7394968Y-16763512D01*
X7394968Y-16763512D02*
X7404492Y-16753988D01*
X7404492Y-16753988D02*
X7404492Y-16773036D01*
X7585444Y-16639702D02*
X7585444Y-16773036D01*
X7537825Y-16563512D02*
X7490206Y-16706369D01*
X7490206Y-16706369D02*
X7614016Y-16706369D01*
X7728301Y-16573036D02*
X7747349Y-16573036D01*
X7747349Y-16573036D02*
X7766397Y-16582559D01*
X7766397Y-16582559D02*
X7775920Y-16592083D01*
X7775920Y-16592083D02*
X7785444Y-16611131D01*
X7785444Y-16611131D02*
X7794968Y-16649226D01*
X7794968Y-16649226D02*
X7794968Y-16696845D01*
X7794968Y-16696845D02*
X7785444Y-16734940D01*
X7785444Y-16734940D02*
X7775920Y-16753988D01*
X7775920Y-16753988D02*
X7766397Y-16763512D01*
X7766397Y-16763512D02*
X7747349Y-16773036D01*
X7747349Y-16773036D02*
X7728301Y-16773036D01*
X7728301Y-16773036D02*
X7709254Y-16763512D01*
X7709254Y-16763512D02*
X7699730Y-16753988D01*
X7699730Y-16753988D02*
X7690206Y-16734940D01*
X7690206Y-16734940D02*
X7680682Y-16696845D01*
X7680682Y-16696845D02*
X7680682Y-16649226D01*
X7680682Y-16649226D02*
X7690206Y-16611131D01*
X7690206Y-16611131D02*
X7699730Y-16592083D01*
X7699730Y-16592083D02*
X7709254Y-16582559D01*
X7709254Y-16582559D02*
X7728301Y-16573036D01*
X7918778Y-16573036D02*
X7937825Y-16573036D01*
X7937825Y-16573036D02*
X7956873Y-16582559D01*
X7956873Y-16582559D02*
X7966397Y-16592083D01*
X7966397Y-16592083D02*
X7975920Y-16611131D01*
X7975920Y-16611131D02*
X7985444Y-16649226D01*
X7985444Y-16649226D02*
X7985444Y-16696845D01*
X7985444Y-16696845D02*
X7975920Y-16734940D01*
X7975920Y-16734940D02*
X7966397Y-16753988D01*
X7966397Y-16753988D02*
X7956873Y-16763512D01*
X7956873Y-16763512D02*
X7937825Y-16773036D01*
X7937825Y-16773036D02*
X7918778Y-16773036D01*
X7918778Y-16773036D02*
X7899730Y-16763512D01*
X7899730Y-16763512D02*
X7890206Y-16753988D01*
X7890206Y-16753988D02*
X7880682Y-16734940D01*
X7880682Y-16734940D02*
X7871159Y-16696845D01*
X7871159Y-16696845D02*
X7871159Y-16649226D01*
X7871159Y-16649226D02*
X7880682Y-16611131D01*
X7880682Y-16611131D02*
X7890206Y-16592083D01*
X7890206Y-16592083D02*
X7899730Y-16582559D01*
X7899730Y-16582559D02*
X7918778Y-16573036D01*
X8071159Y-16773036D02*
X8071159Y-16639702D01*
X8071159Y-16658750D02*
X8080682Y-16649226D01*
X8080682Y-16649226D02*
X8099730Y-16639702D01*
X8099730Y-16639702D02*
X8128301Y-16639702D01*
X8128301Y-16639702D02*
X8147349Y-16649226D01*
X8147349Y-16649226D02*
X8156873Y-16668274D01*
X8156873Y-16668274D02*
X8156873Y-16773036D01*
X8156873Y-16668274D02*
X8166397Y-16649226D01*
X8166397Y-16649226D02*
X8185444Y-16639702D01*
X8185444Y-16639702D02*
X8214016Y-16639702D01*
X8214016Y-16639702D02*
X8233063Y-16649226D01*
X8233063Y-16649226D02*
X8242587Y-16668274D01*
X8242587Y-16668274D02*
X8242587Y-16773036D01*
X8337825Y-16773036D02*
X8337825Y-16639702D01*
X8337825Y-16658750D02*
X8347349Y-16649226D01*
X8347349Y-16649226D02*
X8366397Y-16639702D01*
X8366397Y-16639702D02*
X8394968Y-16639702D01*
X8394968Y-16639702D02*
X8414016Y-16649226D01*
X8414016Y-16649226D02*
X8423540Y-16668274D01*
X8423540Y-16668274D02*
X8423540Y-16773036D01*
X8423540Y-16668274D02*
X8433063Y-16649226D01*
X8433063Y-16649226D02*
X8452111Y-16639702D01*
X8452111Y-16639702D02*
X8480682Y-16639702D01*
X8480682Y-16639702D02*
X8499730Y-16649226D01*
X8499730Y-16649226D02*
X8509254Y-16668274D01*
X8509254Y-16668274D02*
X8509254Y-16773036D01*
X8899730Y-16563512D02*
X8728302Y-16820655D01*
X9156873Y-16573036D02*
X9175921Y-16573036D01*
X9175921Y-16573036D02*
X9194968Y-16582559D01*
X9194968Y-16582559D02*
X9204492Y-16592083D01*
X9204492Y-16592083D02*
X9214016Y-16611131D01*
X9214016Y-16611131D02*
X9223540Y-16649226D01*
X9223540Y-16649226D02*
X9223540Y-16696845D01*
X9223540Y-16696845D02*
X9214016Y-16734940D01*
X9214016Y-16734940D02*
X9204492Y-16753988D01*
X9204492Y-16753988D02*
X9194968Y-16763512D01*
X9194968Y-16763512D02*
X9175921Y-16773036D01*
X9175921Y-16773036D02*
X9156873Y-16773036D01*
X9156873Y-16773036D02*
X9137825Y-16763512D01*
X9137825Y-16763512D02*
X9128302Y-16753988D01*
X9128302Y-16753988D02*
X9118778Y-16734940D01*
X9118778Y-16734940D02*
X9109254Y-16696845D01*
X9109254Y-16696845D02*
X9109254Y-16649226D01*
X9109254Y-16649226D02*
X9118778Y-16611131D01*
X9118778Y-16611131D02*
X9128302Y-16592083D01*
X9128302Y-16592083D02*
X9137825Y-16582559D01*
X9137825Y-16582559D02*
X9156873Y-16573036D01*
X9309254Y-16753988D02*
X9318778Y-16763512D01*
X9318778Y-16763512D02*
X9309254Y-16773036D01*
X9309254Y-16773036D02*
X9299730Y-16763512D01*
X9299730Y-16763512D02*
X9309254Y-16753988D01*
X9309254Y-16753988D02*
X9309254Y-16773036D01*
X9442587Y-16573036D02*
X9461635Y-16573036D01*
X9461635Y-16573036D02*
X9480683Y-16582559D01*
X9480683Y-16582559D02*
X9490206Y-16592083D01*
X9490206Y-16592083D02*
X9499730Y-16611131D01*
X9499730Y-16611131D02*
X9509254Y-16649226D01*
X9509254Y-16649226D02*
X9509254Y-16696845D01*
X9509254Y-16696845D02*
X9499730Y-16734940D01*
X9499730Y-16734940D02*
X9490206Y-16753988D01*
X9490206Y-16753988D02*
X9480683Y-16763512D01*
X9480683Y-16763512D02*
X9461635Y-16773036D01*
X9461635Y-16773036D02*
X9442587Y-16773036D01*
X9442587Y-16773036D02*
X9423540Y-16763512D01*
X9423540Y-16763512D02*
X9414016Y-16753988D01*
X9414016Y-16753988D02*
X9404492Y-16734940D01*
X9404492Y-16734940D02*
X9394968Y-16696845D01*
X9394968Y-16696845D02*
X9394968Y-16649226D01*
X9394968Y-16649226D02*
X9404492Y-16611131D01*
X9404492Y-16611131D02*
X9414016Y-16592083D01*
X9414016Y-16592083D02*
X9423540Y-16582559D01*
X9423540Y-16582559D02*
X9442587Y-16573036D01*
X9699730Y-16773036D02*
X9585445Y-16773036D01*
X9642587Y-16773036D02*
X9642587Y-16573036D01*
X9642587Y-16573036D02*
X9623540Y-16601607D01*
X9623540Y-16601607D02*
X9604492Y-16620655D01*
X9604492Y-16620655D02*
X9585445Y-16630178D01*
X9880683Y-16573036D02*
X9785445Y-16573036D01*
X9785445Y-16573036D02*
X9775921Y-16668274D01*
X9775921Y-16668274D02*
X9785445Y-16658750D01*
X9785445Y-16658750D02*
X9804492Y-16649226D01*
X9804492Y-16649226D02*
X9852111Y-16649226D01*
X9852111Y-16649226D02*
X9871159Y-16658750D01*
X9871159Y-16658750D02*
X9880683Y-16668274D01*
X9880683Y-16668274D02*
X9890206Y-16687321D01*
X9890206Y-16687321D02*
X9890206Y-16734940D01*
X9890206Y-16734940D02*
X9880683Y-16753988D01*
X9880683Y-16753988D02*
X9871159Y-16763512D01*
X9871159Y-16763512D02*
X9852111Y-16773036D01*
X9852111Y-16773036D02*
X9804492Y-16773036D01*
X9804492Y-16773036D02*
X9785445Y-16763512D01*
X9785445Y-16763512D02*
X9775921Y-16753988D01*
X9956873Y-16573036D02*
X10090206Y-16573036D01*
X10090206Y-16573036D02*
X10004492Y-16773036D01*
X10156873Y-16573036D02*
X10156873Y-16611131D01*
X10233064Y-16573036D02*
X10233064Y-16611131D01*
X10528302Y-16849226D02*
X10518778Y-16839702D01*
X10518778Y-16839702D02*
X10499730Y-16811131D01*
X10499730Y-16811131D02*
X10490207Y-16792083D01*
X10490207Y-16792083D02*
X10480683Y-16763512D01*
X10480683Y-16763512D02*
X10471159Y-16715893D01*
X10471159Y-16715893D02*
X10471159Y-16677798D01*
X10471159Y-16677798D02*
X10480683Y-16630178D01*
X10480683Y-16630178D02*
X10490207Y-16601607D01*
X10490207Y-16601607D02*
X10499730Y-16582559D01*
X10499730Y-16582559D02*
X10518778Y-16553988D01*
X10518778Y-16553988D02*
X10528302Y-16544464D01*
X10709254Y-16773036D02*
X10594968Y-16773036D01*
X10652111Y-16773036D02*
X10652111Y-16573036D01*
X10652111Y-16573036D02*
X10633064Y-16601607D01*
X10633064Y-16601607D02*
X10614016Y-16620655D01*
X10614016Y-16620655D02*
X10594968Y-16630178D01*
X10823540Y-16658750D02*
X10804492Y-16649226D01*
X10804492Y-16649226D02*
X10794968Y-16639702D01*
X10794968Y-16639702D02*
X10785445Y-16620655D01*
X10785445Y-16620655D02*
X10785445Y-16611131D01*
X10785445Y-16611131D02*
X10794968Y-16592083D01*
X10794968Y-16592083D02*
X10804492Y-16582559D01*
X10804492Y-16582559D02*
X10823540Y-16573036D01*
X10823540Y-16573036D02*
X10861635Y-16573036D01*
X10861635Y-16573036D02*
X10880683Y-16582559D01*
X10880683Y-16582559D02*
X10890207Y-16592083D01*
X10890207Y-16592083D02*
X10899730Y-16611131D01*
X10899730Y-16611131D02*
X10899730Y-16620655D01*
X10899730Y-16620655D02*
X10890207Y-16639702D01*
X10890207Y-16639702D02*
X10880683Y-16649226D01*
X10880683Y-16649226D02*
X10861635Y-16658750D01*
X10861635Y-16658750D02*
X10823540Y-16658750D01*
X10823540Y-16658750D02*
X10804492Y-16668274D01*
X10804492Y-16668274D02*
X10794968Y-16677798D01*
X10794968Y-16677798D02*
X10785445Y-16696845D01*
X10785445Y-16696845D02*
X10785445Y-16734940D01*
X10785445Y-16734940D02*
X10794968Y-16753988D01*
X10794968Y-16753988D02*
X10804492Y-16763512D01*
X10804492Y-16763512D02*
X10823540Y-16773036D01*
X10823540Y-16773036D02*
X10861635Y-16773036D01*
X10861635Y-16773036D02*
X10880683Y-16763512D01*
X10880683Y-16763512D02*
X10890207Y-16753988D01*
X10890207Y-16753988D02*
X10899730Y-16734940D01*
X10899730Y-16734940D02*
X10899730Y-16696845D01*
X10899730Y-16696845D02*
X10890207Y-16677798D01*
X10890207Y-16677798D02*
X10880683Y-16668274D01*
X10880683Y-16668274D02*
X10861635Y-16658750D01*
X11137826Y-16773036D02*
X11137826Y-16573036D01*
X11223540Y-16773036D02*
X11223540Y-16668274D01*
X11223540Y-16668274D02*
X11214016Y-16649226D01*
X11214016Y-16649226D02*
X11194968Y-16639702D01*
X11194968Y-16639702D02*
X11166397Y-16639702D01*
X11166397Y-16639702D02*
X11147349Y-16649226D01*
X11147349Y-16649226D02*
X11137826Y-16658750D01*
X11347349Y-16773036D02*
X11328302Y-16763512D01*
X11328302Y-16763512D02*
X11318778Y-16753988D01*
X11318778Y-16753988D02*
X11309254Y-16734940D01*
X11309254Y-16734940D02*
X11309254Y-16677798D01*
X11309254Y-16677798D02*
X11318778Y-16658750D01*
X11318778Y-16658750D02*
X11328302Y-16649226D01*
X11328302Y-16649226D02*
X11347349Y-16639702D01*
X11347349Y-16639702D02*
X11375921Y-16639702D01*
X11375921Y-16639702D02*
X11394968Y-16649226D01*
X11394968Y-16649226D02*
X11404492Y-16658750D01*
X11404492Y-16658750D02*
X11414016Y-16677798D01*
X11414016Y-16677798D02*
X11414016Y-16734940D01*
X11414016Y-16734940D02*
X11404492Y-16753988D01*
X11404492Y-16753988D02*
X11394968Y-16763512D01*
X11394968Y-16763512D02*
X11375921Y-16773036D01*
X11375921Y-16773036D02*
X11347349Y-16773036D01*
X11528302Y-16773036D02*
X11509254Y-16763512D01*
X11509254Y-16763512D02*
X11499730Y-16744464D01*
X11499730Y-16744464D02*
X11499730Y-16573036D01*
X11680683Y-16763512D02*
X11661635Y-16773036D01*
X11661635Y-16773036D02*
X11623540Y-16773036D01*
X11623540Y-16773036D02*
X11604492Y-16763512D01*
X11604492Y-16763512D02*
X11594968Y-16744464D01*
X11594968Y-16744464D02*
X11594968Y-16668274D01*
X11594968Y-16668274D02*
X11604492Y-16649226D01*
X11604492Y-16649226D02*
X11623540Y-16639702D01*
X11623540Y-16639702D02*
X11661635Y-16639702D01*
X11661635Y-16639702D02*
X11680683Y-16649226D01*
X11680683Y-16649226D02*
X11690207Y-16668274D01*
X11690207Y-16668274D02*
X11690207Y-16687321D01*
X11690207Y-16687321D02*
X11594968Y-16706369D01*
X11766397Y-16763512D02*
X11785445Y-16773036D01*
X11785445Y-16773036D02*
X11823540Y-16773036D01*
X11823540Y-16773036D02*
X11842588Y-16763512D01*
X11842588Y-16763512D02*
X11852111Y-16744464D01*
X11852111Y-16744464D02*
X11852111Y-16734940D01*
X11852111Y-16734940D02*
X11842588Y-16715893D01*
X11842588Y-16715893D02*
X11823540Y-16706369D01*
X11823540Y-16706369D02*
X11794968Y-16706369D01*
X11794968Y-16706369D02*
X11775921Y-16696845D01*
X11775921Y-16696845D02*
X11766397Y-16677798D01*
X11766397Y-16677798D02*
X11766397Y-16668274D01*
X11766397Y-16668274D02*
X11775921Y-16649226D01*
X11775921Y-16649226D02*
X11794968Y-16639702D01*
X11794968Y-16639702D02*
X11823540Y-16639702D01*
X11823540Y-16639702D02*
X11842588Y-16649226D01*
X11918778Y-16849226D02*
X11928302Y-16839702D01*
X11928302Y-16839702D02*
X11947349Y-16811131D01*
X11947349Y-16811131D02*
X11956873Y-16792083D01*
X11956873Y-16792083D02*
X11966397Y-16763512D01*
X11966397Y-16763512D02*
X11975921Y-16715893D01*
X11975921Y-16715893D02*
X11975921Y-16677798D01*
X11975921Y-16677798D02*
X11966397Y-16630178D01*
X11966397Y-16630178D02*
X11956873Y-16601607D01*
X11956873Y-16601607D02*
X11947349Y-16582559D01*
X11947349Y-16582559D02*
X11928302Y-16553988D01*
X11928302Y-16553988D02*
X11918778Y-16544464D01*
D11*
X6927839Y-16970952D02*
X6953239Y-16945552D01*
X6927839Y-16920152D01*
X6902439Y-16945552D01*
X6927839Y-16970952D01*
D12*
X7252111Y-16837036D02*
X7271159Y-16837036D01*
X7271159Y-16837036D02*
X7290206Y-16846560D01*
X7290206Y-16846560D02*
X7299730Y-16856083D01*
X7299730Y-16856083D02*
X7309254Y-16875131D01*
X7309254Y-16875131D02*
X7318778Y-16913226D01*
X7318778Y-16913226D02*
X7318778Y-16960845D01*
X7318778Y-16960845D02*
X7309254Y-16998940D01*
X7309254Y-16998940D02*
X7299730Y-17017988D01*
X7299730Y-17017988D02*
X7290206Y-17027512D01*
X7290206Y-17027512D02*
X7271159Y-17037036D01*
X7271159Y-17037036D02*
X7252111Y-17037036D01*
X7252111Y-17037036D02*
X7233063Y-17027512D01*
X7233063Y-17027512D02*
X7223539Y-17017988D01*
X7223539Y-17017988D02*
X7214016Y-16998940D01*
X7214016Y-16998940D02*
X7204492Y-16960845D01*
X7204492Y-16960845D02*
X7204492Y-16913226D01*
X7204492Y-16913226D02*
X7214016Y-16875131D01*
X7214016Y-16875131D02*
X7223539Y-16856083D01*
X7223539Y-16856083D02*
X7233063Y-16846560D01*
X7233063Y-16846560D02*
X7252111Y-16837036D01*
X7404492Y-17017988D02*
X7414016Y-17027512D01*
X7414016Y-17027512D02*
X7404492Y-17037036D01*
X7404492Y-17037036D02*
X7394968Y-17027512D01*
X7394968Y-17027512D02*
X7404492Y-17017988D01*
X7404492Y-17017988D02*
X7404492Y-17037036D01*
X7594968Y-16837036D02*
X7499730Y-16837036D01*
X7499730Y-16837036D02*
X7490206Y-16932274D01*
X7490206Y-16932274D02*
X7499730Y-16922750D01*
X7499730Y-16922750D02*
X7518778Y-16913226D01*
X7518778Y-16913226D02*
X7566397Y-16913226D01*
X7566397Y-16913226D02*
X7585444Y-16922750D01*
X7585444Y-16922750D02*
X7594968Y-16932274D01*
X7594968Y-16932274D02*
X7604492Y-16951321D01*
X7604492Y-16951321D02*
X7604492Y-16998940D01*
X7604492Y-16998940D02*
X7594968Y-17017988D01*
X7594968Y-17017988D02*
X7585444Y-17027512D01*
X7585444Y-17027512D02*
X7566397Y-17037036D01*
X7566397Y-17037036D02*
X7518778Y-17037036D01*
X7518778Y-17037036D02*
X7499730Y-17027512D01*
X7499730Y-17027512D02*
X7490206Y-17017988D01*
X7728301Y-16837036D02*
X7747349Y-16837036D01*
X7747349Y-16837036D02*
X7766397Y-16846560D01*
X7766397Y-16846560D02*
X7775920Y-16856083D01*
X7775920Y-16856083D02*
X7785444Y-16875131D01*
X7785444Y-16875131D02*
X7794968Y-16913226D01*
X7794968Y-16913226D02*
X7794968Y-16960845D01*
X7794968Y-16960845D02*
X7785444Y-16998940D01*
X7785444Y-16998940D02*
X7775920Y-17017988D01*
X7775920Y-17017988D02*
X7766397Y-17027512D01*
X7766397Y-17027512D02*
X7747349Y-17037036D01*
X7747349Y-17037036D02*
X7728301Y-17037036D01*
X7728301Y-17037036D02*
X7709254Y-17027512D01*
X7709254Y-17027512D02*
X7699730Y-17017988D01*
X7699730Y-17017988D02*
X7690206Y-16998940D01*
X7690206Y-16998940D02*
X7680682Y-16960845D01*
X7680682Y-16960845D02*
X7680682Y-16913226D01*
X7680682Y-16913226D02*
X7690206Y-16875131D01*
X7690206Y-16875131D02*
X7699730Y-16856083D01*
X7699730Y-16856083D02*
X7709254Y-16846560D01*
X7709254Y-16846560D02*
X7728301Y-16837036D01*
X7909254Y-16922750D02*
X7890206Y-16913226D01*
X7890206Y-16913226D02*
X7880682Y-16903702D01*
X7880682Y-16903702D02*
X7871159Y-16884655D01*
X7871159Y-16884655D02*
X7871159Y-16875131D01*
X7871159Y-16875131D02*
X7880682Y-16856083D01*
X7880682Y-16856083D02*
X7890206Y-16846560D01*
X7890206Y-16846560D02*
X7909254Y-16837036D01*
X7909254Y-16837036D02*
X7947349Y-16837036D01*
X7947349Y-16837036D02*
X7966397Y-16846560D01*
X7966397Y-16846560D02*
X7975920Y-16856083D01*
X7975920Y-16856083D02*
X7985444Y-16875131D01*
X7985444Y-16875131D02*
X7985444Y-16884655D01*
X7985444Y-16884655D02*
X7975920Y-16903702D01*
X7975920Y-16903702D02*
X7966397Y-16913226D01*
X7966397Y-16913226D02*
X7947349Y-16922750D01*
X7947349Y-16922750D02*
X7909254Y-16922750D01*
X7909254Y-16922750D02*
X7890206Y-16932274D01*
X7890206Y-16932274D02*
X7880682Y-16941798D01*
X7880682Y-16941798D02*
X7871159Y-16960845D01*
X7871159Y-16960845D02*
X7871159Y-16998940D01*
X7871159Y-16998940D02*
X7880682Y-17017988D01*
X7880682Y-17017988D02*
X7890206Y-17027512D01*
X7890206Y-17027512D02*
X7909254Y-17037036D01*
X7909254Y-17037036D02*
X7947349Y-17037036D01*
X7947349Y-17037036D02*
X7966397Y-17027512D01*
X7966397Y-17027512D02*
X7975920Y-17017988D01*
X7975920Y-17017988D02*
X7985444Y-16998940D01*
X7985444Y-16998940D02*
X7985444Y-16960845D01*
X7985444Y-16960845D02*
X7975920Y-16941798D01*
X7975920Y-16941798D02*
X7966397Y-16932274D01*
X7966397Y-16932274D02*
X7947349Y-16922750D01*
X8071159Y-17037036D02*
X8071159Y-16903702D01*
X8071159Y-16922750D02*
X8080682Y-16913226D01*
X8080682Y-16913226D02*
X8099730Y-16903702D01*
X8099730Y-16903702D02*
X8128301Y-16903702D01*
X8128301Y-16903702D02*
X8147349Y-16913226D01*
X8147349Y-16913226D02*
X8156873Y-16932274D01*
X8156873Y-16932274D02*
X8156873Y-17037036D01*
X8156873Y-16932274D02*
X8166397Y-16913226D01*
X8166397Y-16913226D02*
X8185444Y-16903702D01*
X8185444Y-16903702D02*
X8214016Y-16903702D01*
X8214016Y-16903702D02*
X8233063Y-16913226D01*
X8233063Y-16913226D02*
X8242587Y-16932274D01*
X8242587Y-16932274D02*
X8242587Y-17037036D01*
X8337825Y-17037036D02*
X8337825Y-16903702D01*
X8337825Y-16922750D02*
X8347349Y-16913226D01*
X8347349Y-16913226D02*
X8366397Y-16903702D01*
X8366397Y-16903702D02*
X8394968Y-16903702D01*
X8394968Y-16903702D02*
X8414016Y-16913226D01*
X8414016Y-16913226D02*
X8423540Y-16932274D01*
X8423540Y-16932274D02*
X8423540Y-17037036D01*
X8423540Y-16932274D02*
X8433063Y-16913226D01*
X8433063Y-16913226D02*
X8452111Y-16903702D01*
X8452111Y-16903702D02*
X8480682Y-16903702D01*
X8480682Y-16903702D02*
X8499730Y-16913226D01*
X8499730Y-16913226D02*
X8509254Y-16932274D01*
X8509254Y-16932274D02*
X8509254Y-17037036D01*
X8899730Y-16827512D02*
X8728302Y-17084655D01*
X9156873Y-16837036D02*
X9175921Y-16837036D01*
X9175921Y-16837036D02*
X9194968Y-16846560D01*
X9194968Y-16846560D02*
X9204492Y-16856083D01*
X9204492Y-16856083D02*
X9214016Y-16875131D01*
X9214016Y-16875131D02*
X9223540Y-16913226D01*
X9223540Y-16913226D02*
X9223540Y-16960845D01*
X9223540Y-16960845D02*
X9214016Y-16998940D01*
X9214016Y-16998940D02*
X9204492Y-17017988D01*
X9204492Y-17017988D02*
X9194968Y-17027512D01*
X9194968Y-17027512D02*
X9175921Y-17037036D01*
X9175921Y-17037036D02*
X9156873Y-17037036D01*
X9156873Y-17037036D02*
X9137825Y-17027512D01*
X9137825Y-17027512D02*
X9128302Y-17017988D01*
X9128302Y-17017988D02*
X9118778Y-16998940D01*
X9118778Y-16998940D02*
X9109254Y-16960845D01*
X9109254Y-16960845D02*
X9109254Y-16913226D01*
X9109254Y-16913226D02*
X9118778Y-16875131D01*
X9118778Y-16875131D02*
X9128302Y-16856083D01*
X9128302Y-16856083D02*
X9137825Y-16846560D01*
X9137825Y-16846560D02*
X9156873Y-16837036D01*
X9309254Y-17017988D02*
X9318778Y-17027512D01*
X9318778Y-17027512D02*
X9309254Y-17037036D01*
X9309254Y-17037036D02*
X9299730Y-17027512D01*
X9299730Y-17027512D02*
X9309254Y-17017988D01*
X9309254Y-17017988D02*
X9309254Y-17037036D01*
X9442587Y-16837036D02*
X9461635Y-16837036D01*
X9461635Y-16837036D02*
X9480683Y-16846560D01*
X9480683Y-16846560D02*
X9490206Y-16856083D01*
X9490206Y-16856083D02*
X9499730Y-16875131D01*
X9499730Y-16875131D02*
X9509254Y-16913226D01*
X9509254Y-16913226D02*
X9509254Y-16960845D01*
X9509254Y-16960845D02*
X9499730Y-16998940D01*
X9499730Y-16998940D02*
X9490206Y-17017988D01*
X9490206Y-17017988D02*
X9480683Y-17027512D01*
X9480683Y-17027512D02*
X9461635Y-17037036D01*
X9461635Y-17037036D02*
X9442587Y-17037036D01*
X9442587Y-17037036D02*
X9423540Y-17027512D01*
X9423540Y-17027512D02*
X9414016Y-17017988D01*
X9414016Y-17017988D02*
X9404492Y-16998940D01*
X9404492Y-16998940D02*
X9394968Y-16960845D01*
X9394968Y-16960845D02*
X9394968Y-16913226D01*
X9394968Y-16913226D02*
X9404492Y-16875131D01*
X9404492Y-16875131D02*
X9414016Y-16856083D01*
X9414016Y-16856083D02*
X9423540Y-16846560D01*
X9423540Y-16846560D02*
X9442587Y-16837036D01*
X9585445Y-16856083D02*
X9594968Y-16846560D01*
X9594968Y-16846560D02*
X9614016Y-16837036D01*
X9614016Y-16837036D02*
X9661635Y-16837036D01*
X9661635Y-16837036D02*
X9680683Y-16846560D01*
X9680683Y-16846560D02*
X9690206Y-16856083D01*
X9690206Y-16856083D02*
X9699730Y-16875131D01*
X9699730Y-16875131D02*
X9699730Y-16894179D01*
X9699730Y-16894179D02*
X9690206Y-16922750D01*
X9690206Y-16922750D02*
X9575921Y-17037036D01*
X9575921Y-17037036D02*
X9699730Y-17037036D01*
X9823540Y-16837036D02*
X9842587Y-16837036D01*
X9842587Y-16837036D02*
X9861635Y-16846560D01*
X9861635Y-16846560D02*
X9871159Y-16856083D01*
X9871159Y-16856083D02*
X9880683Y-16875131D01*
X9880683Y-16875131D02*
X9890206Y-16913226D01*
X9890206Y-16913226D02*
X9890206Y-16960845D01*
X9890206Y-16960845D02*
X9880683Y-16998940D01*
X9880683Y-16998940D02*
X9871159Y-17017988D01*
X9871159Y-17017988D02*
X9861635Y-17027512D01*
X9861635Y-17027512D02*
X9842587Y-17037036D01*
X9842587Y-17037036D02*
X9823540Y-17037036D01*
X9823540Y-17037036D02*
X9804492Y-17027512D01*
X9804492Y-17027512D02*
X9794968Y-17017988D01*
X9794968Y-17017988D02*
X9785445Y-16998940D01*
X9785445Y-16998940D02*
X9775921Y-16960845D01*
X9775921Y-16960845D02*
X9775921Y-16913226D01*
X9775921Y-16913226D02*
X9785445Y-16875131D01*
X9785445Y-16875131D02*
X9794968Y-16856083D01*
X9794968Y-16856083D02*
X9804492Y-16846560D01*
X9804492Y-16846560D02*
X9823540Y-16837036D01*
X10014016Y-16837036D02*
X10033064Y-16837036D01*
X10033064Y-16837036D02*
X10052111Y-16846560D01*
X10052111Y-16846560D02*
X10061635Y-16856083D01*
X10061635Y-16856083D02*
X10071159Y-16875131D01*
X10071159Y-16875131D02*
X10080683Y-16913226D01*
X10080683Y-16913226D02*
X10080683Y-16960845D01*
X10080683Y-16960845D02*
X10071159Y-16998940D01*
X10071159Y-16998940D02*
X10061635Y-17017988D01*
X10061635Y-17017988D02*
X10052111Y-17027512D01*
X10052111Y-17027512D02*
X10033064Y-17037036D01*
X10033064Y-17037036D02*
X10014016Y-17037036D01*
X10014016Y-17037036D02*
X9994968Y-17027512D01*
X9994968Y-17027512D02*
X9985445Y-17017988D01*
X9985445Y-17017988D02*
X9975921Y-16998940D01*
X9975921Y-16998940D02*
X9966397Y-16960845D01*
X9966397Y-16960845D02*
X9966397Y-16913226D01*
X9966397Y-16913226D02*
X9975921Y-16875131D01*
X9975921Y-16875131D02*
X9985445Y-16856083D01*
X9985445Y-16856083D02*
X9994968Y-16846560D01*
X9994968Y-16846560D02*
X10014016Y-16837036D01*
X10156873Y-16837036D02*
X10156873Y-16875131D01*
X10233064Y-16837036D02*
X10233064Y-16875131D01*
X10528302Y-17113226D02*
X10518778Y-17103702D01*
X10518778Y-17103702D02*
X10499730Y-17075131D01*
X10499730Y-17075131D02*
X10490207Y-17056083D01*
X10490207Y-17056083D02*
X10480683Y-17027512D01*
X10480683Y-17027512D02*
X10471159Y-16979893D01*
X10471159Y-16979893D02*
X10471159Y-16941798D01*
X10471159Y-16941798D02*
X10480683Y-16894179D01*
X10480683Y-16894179D02*
X10490207Y-16865607D01*
X10490207Y-16865607D02*
X10499730Y-16846560D01*
X10499730Y-16846560D02*
X10518778Y-16817988D01*
X10518778Y-16817988D02*
X10528302Y-16808464D01*
X10633064Y-16922750D02*
X10614016Y-16913226D01*
X10614016Y-16913226D02*
X10604492Y-16903702D01*
X10604492Y-16903702D02*
X10594968Y-16884655D01*
X10594968Y-16884655D02*
X10594968Y-16875131D01*
X10594968Y-16875131D02*
X10604492Y-16856083D01*
X10604492Y-16856083D02*
X10614016Y-16846560D01*
X10614016Y-16846560D02*
X10633064Y-16837036D01*
X10633064Y-16837036D02*
X10671159Y-16837036D01*
X10671159Y-16837036D02*
X10690207Y-16846560D01*
X10690207Y-16846560D02*
X10699730Y-16856083D01*
X10699730Y-16856083D02*
X10709254Y-16875131D01*
X10709254Y-16875131D02*
X10709254Y-16884655D01*
X10709254Y-16884655D02*
X10699730Y-16903702D01*
X10699730Y-16903702D02*
X10690207Y-16913226D01*
X10690207Y-16913226D02*
X10671159Y-16922750D01*
X10671159Y-16922750D02*
X10633064Y-16922750D01*
X10633064Y-16922750D02*
X10614016Y-16932274D01*
X10614016Y-16932274D02*
X10604492Y-16941798D01*
X10604492Y-16941798D02*
X10594968Y-16960845D01*
X10594968Y-16960845D02*
X10594968Y-16998940D01*
X10594968Y-16998940D02*
X10604492Y-17017988D01*
X10604492Y-17017988D02*
X10614016Y-17027512D01*
X10614016Y-17027512D02*
X10633064Y-17037036D01*
X10633064Y-17037036D02*
X10671159Y-17037036D01*
X10671159Y-17037036D02*
X10690207Y-17027512D01*
X10690207Y-17027512D02*
X10699730Y-17017988D01*
X10699730Y-17017988D02*
X10709254Y-16998940D01*
X10709254Y-16998940D02*
X10709254Y-16960845D01*
X10709254Y-16960845D02*
X10699730Y-16941798D01*
X10699730Y-16941798D02*
X10690207Y-16932274D01*
X10690207Y-16932274D02*
X10671159Y-16922750D01*
X10947349Y-17037036D02*
X10947349Y-16837036D01*
X11033064Y-17037036D02*
X11033064Y-16932274D01*
X11033064Y-16932274D02*
X11023540Y-16913226D01*
X11023540Y-16913226D02*
X11004492Y-16903702D01*
X11004492Y-16903702D02*
X10975921Y-16903702D01*
X10975921Y-16903702D02*
X10956873Y-16913226D01*
X10956873Y-16913226D02*
X10947349Y-16922750D01*
X11156873Y-17037036D02*
X11137826Y-17027512D01*
X11137826Y-17027512D02*
X11128302Y-17017988D01*
X11128302Y-17017988D02*
X11118778Y-16998940D01*
X11118778Y-16998940D02*
X11118778Y-16941798D01*
X11118778Y-16941798D02*
X11128302Y-16922750D01*
X11128302Y-16922750D02*
X11137826Y-16913226D01*
X11137826Y-16913226D02*
X11156873Y-16903702D01*
X11156873Y-16903702D02*
X11185445Y-16903702D01*
X11185445Y-16903702D02*
X11204492Y-16913226D01*
X11204492Y-16913226D02*
X11214016Y-16922750D01*
X11214016Y-16922750D02*
X11223540Y-16941798D01*
X11223540Y-16941798D02*
X11223540Y-16998940D01*
X11223540Y-16998940D02*
X11214016Y-17017988D01*
X11214016Y-17017988D02*
X11204492Y-17027512D01*
X11204492Y-17027512D02*
X11185445Y-17037036D01*
X11185445Y-17037036D02*
X11156873Y-17037036D01*
X11337826Y-17037036D02*
X11318778Y-17027512D01*
X11318778Y-17027512D02*
X11309254Y-17008464D01*
X11309254Y-17008464D02*
X11309254Y-16837036D01*
X11490207Y-17027512D02*
X11471159Y-17037036D01*
X11471159Y-17037036D02*
X11433064Y-17037036D01*
X11433064Y-17037036D02*
X11414016Y-17027512D01*
X11414016Y-17027512D02*
X11404492Y-17008464D01*
X11404492Y-17008464D02*
X11404492Y-16932274D01*
X11404492Y-16932274D02*
X11414016Y-16913226D01*
X11414016Y-16913226D02*
X11433064Y-16903702D01*
X11433064Y-16903702D02*
X11471159Y-16903702D01*
X11471159Y-16903702D02*
X11490207Y-16913226D01*
X11490207Y-16913226D02*
X11499730Y-16932274D01*
X11499730Y-16932274D02*
X11499730Y-16951321D01*
X11499730Y-16951321D02*
X11404492Y-16970369D01*
X11575921Y-17027512D02*
X11594968Y-17037036D01*
X11594968Y-17037036D02*
X11633064Y-17037036D01*
X11633064Y-17037036D02*
X11652111Y-17027512D01*
X11652111Y-17027512D02*
X11661635Y-17008464D01*
X11661635Y-17008464D02*
X11661635Y-16998940D01*
X11661635Y-16998940D02*
X11652111Y-16979893D01*
X11652111Y-16979893D02*
X11633064Y-16970369D01*
X11633064Y-16970369D02*
X11604492Y-16970369D01*
X11604492Y-16970369D02*
X11585445Y-16960845D01*
X11585445Y-16960845D02*
X11575921Y-16941798D01*
X11575921Y-16941798D02*
X11575921Y-16932274D01*
X11575921Y-16932274D02*
X11585445Y-16913226D01*
X11585445Y-16913226D02*
X11604492Y-16903702D01*
X11604492Y-16903702D02*
X11633064Y-16903702D01*
X11633064Y-16903702D02*
X11652111Y-16913226D01*
X11728302Y-17113226D02*
X11737826Y-17103702D01*
X11737826Y-17103702D02*
X11756873Y-17075131D01*
X11756873Y-17075131D02*
X11766397Y-17056083D01*
X11766397Y-17056083D02*
X11775921Y-17027512D01*
X11775921Y-17027512D02*
X11785445Y-16979893D01*
X11785445Y-16979893D02*
X11785445Y-16941798D01*
X11785445Y-16941798D02*
X11775921Y-16894179D01*
X11775921Y-16894179D02*
X11766397Y-16865607D01*
X11766397Y-16865607D02*
X11756873Y-16846560D01*
X11756873Y-16846560D02*
X11737826Y-16817988D01*
X11737826Y-16817988D02*
X11728302Y-16808464D01*
D11*
X6883239Y-17174552D02*
X6953239Y-17244552D01*
X6953239Y-17174552D02*
X6883239Y-17244552D01*
X6953239Y-17209552D02*
G75*
G03*
X6883239Y-17209552I-35000J0D01*
G01*
X6883239Y-17209552D02*
G75*
G03*
X6953239Y-17209552I35000J0D01*
G01*
D12*
X7252111Y-17101036D02*
X7271159Y-17101036D01*
X7271159Y-17101036D02*
X7290206Y-17110560D01*
X7290206Y-17110560D02*
X7299730Y-17120083D01*
X7299730Y-17120083D02*
X7309254Y-17139131D01*
X7309254Y-17139131D02*
X7318778Y-17177226D01*
X7318778Y-17177226D02*
X7318778Y-17224845D01*
X7318778Y-17224845D02*
X7309254Y-17262940D01*
X7309254Y-17262940D02*
X7299730Y-17281988D01*
X7299730Y-17281988D02*
X7290206Y-17291512D01*
X7290206Y-17291512D02*
X7271159Y-17301036D01*
X7271159Y-17301036D02*
X7252111Y-17301036D01*
X7252111Y-17301036D02*
X7233063Y-17291512D01*
X7233063Y-17291512D02*
X7223539Y-17281988D01*
X7223539Y-17281988D02*
X7214016Y-17262940D01*
X7214016Y-17262940D02*
X7204492Y-17224845D01*
X7204492Y-17224845D02*
X7204492Y-17177226D01*
X7204492Y-17177226D02*
X7214016Y-17139131D01*
X7214016Y-17139131D02*
X7223539Y-17120083D01*
X7223539Y-17120083D02*
X7233063Y-17110560D01*
X7233063Y-17110560D02*
X7252111Y-17101036D01*
X7404492Y-17281988D02*
X7414016Y-17291512D01*
X7414016Y-17291512D02*
X7404492Y-17301036D01*
X7404492Y-17301036D02*
X7394968Y-17291512D01*
X7394968Y-17291512D02*
X7404492Y-17281988D01*
X7404492Y-17281988D02*
X7404492Y-17301036D01*
X7480682Y-17101036D02*
X7614016Y-17101036D01*
X7614016Y-17101036D02*
X7528301Y-17301036D01*
X7728301Y-17101036D02*
X7747349Y-17101036D01*
X7747349Y-17101036D02*
X7766397Y-17110560D01*
X7766397Y-17110560D02*
X7775920Y-17120083D01*
X7775920Y-17120083D02*
X7785444Y-17139131D01*
X7785444Y-17139131D02*
X7794968Y-17177226D01*
X7794968Y-17177226D02*
X7794968Y-17224845D01*
X7794968Y-17224845D02*
X7785444Y-17262940D01*
X7785444Y-17262940D02*
X7775920Y-17281988D01*
X7775920Y-17281988D02*
X7766397Y-17291512D01*
X7766397Y-17291512D02*
X7747349Y-17301036D01*
X7747349Y-17301036D02*
X7728301Y-17301036D01*
X7728301Y-17301036D02*
X7709254Y-17291512D01*
X7709254Y-17291512D02*
X7699730Y-17281988D01*
X7699730Y-17281988D02*
X7690206Y-17262940D01*
X7690206Y-17262940D02*
X7680682Y-17224845D01*
X7680682Y-17224845D02*
X7680682Y-17177226D01*
X7680682Y-17177226D02*
X7690206Y-17139131D01*
X7690206Y-17139131D02*
X7699730Y-17120083D01*
X7699730Y-17120083D02*
X7709254Y-17110560D01*
X7709254Y-17110560D02*
X7728301Y-17101036D01*
X7918778Y-17101036D02*
X7937825Y-17101036D01*
X7937825Y-17101036D02*
X7956873Y-17110560D01*
X7956873Y-17110560D02*
X7966397Y-17120083D01*
X7966397Y-17120083D02*
X7975920Y-17139131D01*
X7975920Y-17139131D02*
X7985444Y-17177226D01*
X7985444Y-17177226D02*
X7985444Y-17224845D01*
X7985444Y-17224845D02*
X7975920Y-17262940D01*
X7975920Y-17262940D02*
X7966397Y-17281988D01*
X7966397Y-17281988D02*
X7956873Y-17291512D01*
X7956873Y-17291512D02*
X7937825Y-17301036D01*
X7937825Y-17301036D02*
X7918778Y-17301036D01*
X7918778Y-17301036D02*
X7899730Y-17291512D01*
X7899730Y-17291512D02*
X7890206Y-17281988D01*
X7890206Y-17281988D02*
X7880682Y-17262940D01*
X7880682Y-17262940D02*
X7871159Y-17224845D01*
X7871159Y-17224845D02*
X7871159Y-17177226D01*
X7871159Y-17177226D02*
X7880682Y-17139131D01*
X7880682Y-17139131D02*
X7890206Y-17120083D01*
X7890206Y-17120083D02*
X7899730Y-17110560D01*
X7899730Y-17110560D02*
X7918778Y-17101036D01*
X8071159Y-17301036D02*
X8071159Y-17167702D01*
X8071159Y-17186750D02*
X8080682Y-17177226D01*
X8080682Y-17177226D02*
X8099730Y-17167702D01*
X8099730Y-17167702D02*
X8128301Y-17167702D01*
X8128301Y-17167702D02*
X8147349Y-17177226D01*
X8147349Y-17177226D02*
X8156873Y-17196274D01*
X8156873Y-17196274D02*
X8156873Y-17301036D01*
X8156873Y-17196274D02*
X8166397Y-17177226D01*
X8166397Y-17177226D02*
X8185444Y-17167702D01*
X8185444Y-17167702D02*
X8214016Y-17167702D01*
X8214016Y-17167702D02*
X8233063Y-17177226D01*
X8233063Y-17177226D02*
X8242587Y-17196274D01*
X8242587Y-17196274D02*
X8242587Y-17301036D01*
X8337825Y-17301036D02*
X8337825Y-17167702D01*
X8337825Y-17186750D02*
X8347349Y-17177226D01*
X8347349Y-17177226D02*
X8366397Y-17167702D01*
X8366397Y-17167702D02*
X8394968Y-17167702D01*
X8394968Y-17167702D02*
X8414016Y-17177226D01*
X8414016Y-17177226D02*
X8423540Y-17196274D01*
X8423540Y-17196274D02*
X8423540Y-17301036D01*
X8423540Y-17196274D02*
X8433063Y-17177226D01*
X8433063Y-17177226D02*
X8452111Y-17167702D01*
X8452111Y-17167702D02*
X8480682Y-17167702D01*
X8480682Y-17167702D02*
X8499730Y-17177226D01*
X8499730Y-17177226D02*
X8509254Y-17196274D01*
X8509254Y-17196274D02*
X8509254Y-17301036D01*
X8899730Y-17091512D02*
X8728302Y-17348655D01*
X9156873Y-17101036D02*
X9175921Y-17101036D01*
X9175921Y-17101036D02*
X9194968Y-17110560D01*
X9194968Y-17110560D02*
X9204492Y-17120083D01*
X9204492Y-17120083D02*
X9214016Y-17139131D01*
X9214016Y-17139131D02*
X9223540Y-17177226D01*
X9223540Y-17177226D02*
X9223540Y-17224845D01*
X9223540Y-17224845D02*
X9214016Y-17262940D01*
X9214016Y-17262940D02*
X9204492Y-17281988D01*
X9204492Y-17281988D02*
X9194968Y-17291512D01*
X9194968Y-17291512D02*
X9175921Y-17301036D01*
X9175921Y-17301036D02*
X9156873Y-17301036D01*
X9156873Y-17301036D02*
X9137825Y-17291512D01*
X9137825Y-17291512D02*
X9128302Y-17281988D01*
X9128302Y-17281988D02*
X9118778Y-17262940D01*
X9118778Y-17262940D02*
X9109254Y-17224845D01*
X9109254Y-17224845D02*
X9109254Y-17177226D01*
X9109254Y-17177226D02*
X9118778Y-17139131D01*
X9118778Y-17139131D02*
X9128302Y-17120083D01*
X9128302Y-17120083D02*
X9137825Y-17110560D01*
X9137825Y-17110560D02*
X9156873Y-17101036D01*
X9309254Y-17281988D02*
X9318778Y-17291512D01*
X9318778Y-17291512D02*
X9309254Y-17301036D01*
X9309254Y-17301036D02*
X9299730Y-17291512D01*
X9299730Y-17291512D02*
X9309254Y-17281988D01*
X9309254Y-17281988D02*
X9309254Y-17301036D01*
X9442587Y-17101036D02*
X9461635Y-17101036D01*
X9461635Y-17101036D02*
X9480683Y-17110560D01*
X9480683Y-17110560D02*
X9490206Y-17120083D01*
X9490206Y-17120083D02*
X9499730Y-17139131D01*
X9499730Y-17139131D02*
X9509254Y-17177226D01*
X9509254Y-17177226D02*
X9509254Y-17224845D01*
X9509254Y-17224845D02*
X9499730Y-17262940D01*
X9499730Y-17262940D02*
X9490206Y-17281988D01*
X9490206Y-17281988D02*
X9480683Y-17291512D01*
X9480683Y-17291512D02*
X9461635Y-17301036D01*
X9461635Y-17301036D02*
X9442587Y-17301036D01*
X9442587Y-17301036D02*
X9423540Y-17291512D01*
X9423540Y-17291512D02*
X9414016Y-17281988D01*
X9414016Y-17281988D02*
X9404492Y-17262940D01*
X9404492Y-17262940D02*
X9394968Y-17224845D01*
X9394968Y-17224845D02*
X9394968Y-17177226D01*
X9394968Y-17177226D02*
X9404492Y-17139131D01*
X9404492Y-17139131D02*
X9414016Y-17120083D01*
X9414016Y-17120083D02*
X9423540Y-17110560D01*
X9423540Y-17110560D02*
X9442587Y-17101036D01*
X9585445Y-17120083D02*
X9594968Y-17110560D01*
X9594968Y-17110560D02*
X9614016Y-17101036D01*
X9614016Y-17101036D02*
X9661635Y-17101036D01*
X9661635Y-17101036D02*
X9680683Y-17110560D01*
X9680683Y-17110560D02*
X9690206Y-17120083D01*
X9690206Y-17120083D02*
X9699730Y-17139131D01*
X9699730Y-17139131D02*
X9699730Y-17158179D01*
X9699730Y-17158179D02*
X9690206Y-17186750D01*
X9690206Y-17186750D02*
X9575921Y-17301036D01*
X9575921Y-17301036D02*
X9699730Y-17301036D01*
X9766397Y-17101036D02*
X9899730Y-17101036D01*
X9899730Y-17101036D02*
X9814016Y-17301036D01*
X10061635Y-17101036D02*
X10023540Y-17101036D01*
X10023540Y-17101036D02*
X10004492Y-17110560D01*
X10004492Y-17110560D02*
X9994968Y-17120083D01*
X9994968Y-17120083D02*
X9975921Y-17148655D01*
X9975921Y-17148655D02*
X9966397Y-17186750D01*
X9966397Y-17186750D02*
X9966397Y-17262940D01*
X9966397Y-17262940D02*
X9975921Y-17281988D01*
X9975921Y-17281988D02*
X9985445Y-17291512D01*
X9985445Y-17291512D02*
X10004492Y-17301036D01*
X10004492Y-17301036D02*
X10042587Y-17301036D01*
X10042587Y-17301036D02*
X10061635Y-17291512D01*
X10061635Y-17291512D02*
X10071159Y-17281988D01*
X10071159Y-17281988D02*
X10080683Y-17262940D01*
X10080683Y-17262940D02*
X10080683Y-17215321D01*
X10080683Y-17215321D02*
X10071159Y-17196274D01*
X10071159Y-17196274D02*
X10061635Y-17186750D01*
X10061635Y-17186750D02*
X10042587Y-17177226D01*
X10042587Y-17177226D02*
X10004492Y-17177226D01*
X10004492Y-17177226D02*
X9985445Y-17186750D01*
X9985445Y-17186750D02*
X9975921Y-17196274D01*
X9975921Y-17196274D02*
X9966397Y-17215321D01*
X10156873Y-17101036D02*
X10156873Y-17139131D01*
X10233064Y-17101036D02*
X10233064Y-17139131D01*
X10528302Y-17377226D02*
X10518778Y-17367702D01*
X10518778Y-17367702D02*
X10499730Y-17339131D01*
X10499730Y-17339131D02*
X10490207Y-17320083D01*
X10490207Y-17320083D02*
X10480683Y-17291512D01*
X10480683Y-17291512D02*
X10471159Y-17243893D01*
X10471159Y-17243893D02*
X10471159Y-17205798D01*
X10471159Y-17205798D02*
X10480683Y-17158179D01*
X10480683Y-17158179D02*
X10490207Y-17129607D01*
X10490207Y-17129607D02*
X10499730Y-17110560D01*
X10499730Y-17110560D02*
X10518778Y-17081988D01*
X10518778Y-17081988D02*
X10528302Y-17072464D01*
X10709254Y-17301036D02*
X10594968Y-17301036D01*
X10652111Y-17301036D02*
X10652111Y-17101036D01*
X10652111Y-17101036D02*
X10633064Y-17129607D01*
X10633064Y-17129607D02*
X10614016Y-17148655D01*
X10614016Y-17148655D02*
X10594968Y-17158179D01*
X10833064Y-17101036D02*
X10852111Y-17101036D01*
X10852111Y-17101036D02*
X10871159Y-17110560D01*
X10871159Y-17110560D02*
X10880683Y-17120083D01*
X10880683Y-17120083D02*
X10890207Y-17139131D01*
X10890207Y-17139131D02*
X10899730Y-17177226D01*
X10899730Y-17177226D02*
X10899730Y-17224845D01*
X10899730Y-17224845D02*
X10890207Y-17262940D01*
X10890207Y-17262940D02*
X10880683Y-17281988D01*
X10880683Y-17281988D02*
X10871159Y-17291512D01*
X10871159Y-17291512D02*
X10852111Y-17301036D01*
X10852111Y-17301036D02*
X10833064Y-17301036D01*
X10833064Y-17301036D02*
X10814016Y-17291512D01*
X10814016Y-17291512D02*
X10804492Y-17281988D01*
X10804492Y-17281988D02*
X10794968Y-17262940D01*
X10794968Y-17262940D02*
X10785445Y-17224845D01*
X10785445Y-17224845D02*
X10785445Y-17177226D01*
X10785445Y-17177226D02*
X10794968Y-17139131D01*
X10794968Y-17139131D02*
X10804492Y-17120083D01*
X10804492Y-17120083D02*
X10814016Y-17110560D01*
X10814016Y-17110560D02*
X10833064Y-17101036D01*
X11137826Y-17301036D02*
X11137826Y-17101036D01*
X11223540Y-17301036D02*
X11223540Y-17196274D01*
X11223540Y-17196274D02*
X11214016Y-17177226D01*
X11214016Y-17177226D02*
X11194968Y-17167702D01*
X11194968Y-17167702D02*
X11166397Y-17167702D01*
X11166397Y-17167702D02*
X11147349Y-17177226D01*
X11147349Y-17177226D02*
X11137826Y-17186750D01*
X11347349Y-17301036D02*
X11328302Y-17291512D01*
X11328302Y-17291512D02*
X11318778Y-17281988D01*
X11318778Y-17281988D02*
X11309254Y-17262940D01*
X11309254Y-17262940D02*
X11309254Y-17205798D01*
X11309254Y-17205798D02*
X11318778Y-17186750D01*
X11318778Y-17186750D02*
X11328302Y-17177226D01*
X11328302Y-17177226D02*
X11347349Y-17167702D01*
X11347349Y-17167702D02*
X11375921Y-17167702D01*
X11375921Y-17167702D02*
X11394968Y-17177226D01*
X11394968Y-17177226D02*
X11404492Y-17186750D01*
X11404492Y-17186750D02*
X11414016Y-17205798D01*
X11414016Y-17205798D02*
X11414016Y-17262940D01*
X11414016Y-17262940D02*
X11404492Y-17281988D01*
X11404492Y-17281988D02*
X11394968Y-17291512D01*
X11394968Y-17291512D02*
X11375921Y-17301036D01*
X11375921Y-17301036D02*
X11347349Y-17301036D01*
X11528302Y-17301036D02*
X11509254Y-17291512D01*
X11509254Y-17291512D02*
X11499730Y-17272464D01*
X11499730Y-17272464D02*
X11499730Y-17101036D01*
X11680683Y-17291512D02*
X11661635Y-17301036D01*
X11661635Y-17301036D02*
X11623540Y-17301036D01*
X11623540Y-17301036D02*
X11604492Y-17291512D01*
X11604492Y-17291512D02*
X11594968Y-17272464D01*
X11594968Y-17272464D02*
X11594968Y-17196274D01*
X11594968Y-17196274D02*
X11604492Y-17177226D01*
X11604492Y-17177226D02*
X11623540Y-17167702D01*
X11623540Y-17167702D02*
X11661635Y-17167702D01*
X11661635Y-17167702D02*
X11680683Y-17177226D01*
X11680683Y-17177226D02*
X11690207Y-17196274D01*
X11690207Y-17196274D02*
X11690207Y-17215321D01*
X11690207Y-17215321D02*
X11594968Y-17234369D01*
X11766397Y-17291512D02*
X11785445Y-17301036D01*
X11785445Y-17301036D02*
X11823540Y-17301036D01*
X11823540Y-17301036D02*
X11842588Y-17291512D01*
X11842588Y-17291512D02*
X11852111Y-17272464D01*
X11852111Y-17272464D02*
X11852111Y-17262940D01*
X11852111Y-17262940D02*
X11842588Y-17243893D01*
X11842588Y-17243893D02*
X11823540Y-17234369D01*
X11823540Y-17234369D02*
X11794968Y-17234369D01*
X11794968Y-17234369D02*
X11775921Y-17224845D01*
X11775921Y-17224845D02*
X11766397Y-17205798D01*
X11766397Y-17205798D02*
X11766397Y-17196274D01*
X11766397Y-17196274D02*
X11775921Y-17177226D01*
X11775921Y-17177226D02*
X11794968Y-17167702D01*
X11794968Y-17167702D02*
X11823540Y-17167702D01*
X11823540Y-17167702D02*
X11842588Y-17177226D01*
X11918778Y-17377226D02*
X11928302Y-17367702D01*
X11928302Y-17367702D02*
X11947349Y-17339131D01*
X11947349Y-17339131D02*
X11956873Y-17320083D01*
X11956873Y-17320083D02*
X11966397Y-17291512D01*
X11966397Y-17291512D02*
X11975921Y-17243893D01*
X11975921Y-17243893D02*
X11975921Y-17205798D01*
X11975921Y-17205798D02*
X11966397Y-17158179D01*
X11966397Y-17158179D02*
X11956873Y-17129607D01*
X11956873Y-17129607D02*
X11947349Y-17110560D01*
X11947349Y-17110560D02*
X11928302Y-17081988D01*
X11928302Y-17081988D02*
X11918778Y-17072464D01*
D11*
X6853239Y-17423552D02*
X6953239Y-17523552D01*
X6953239Y-17423552D02*
X6853239Y-17523552D01*
X6903239Y-17423552D02*
X6903239Y-17523552D01*
X6853239Y-17473552D02*
X6953239Y-17473552D01*
D12*
X7318778Y-17565036D02*
X7204492Y-17565036D01*
X7261635Y-17565036D02*
X7261635Y-17365036D01*
X7261635Y-17365036D02*
X7242587Y-17393607D01*
X7242587Y-17393607D02*
X7223539Y-17412655D01*
X7223539Y-17412655D02*
X7204492Y-17422179D01*
X7404492Y-17545988D02*
X7414016Y-17555512D01*
X7414016Y-17555512D02*
X7404492Y-17565036D01*
X7404492Y-17565036D02*
X7394968Y-17555512D01*
X7394968Y-17555512D02*
X7404492Y-17545988D01*
X7404492Y-17545988D02*
X7404492Y-17565036D01*
X7537825Y-17365036D02*
X7556873Y-17365036D01*
X7556873Y-17365036D02*
X7575920Y-17374560D01*
X7575920Y-17374560D02*
X7585444Y-17384083D01*
X7585444Y-17384083D02*
X7594968Y-17403131D01*
X7594968Y-17403131D02*
X7604492Y-17441226D01*
X7604492Y-17441226D02*
X7604492Y-17488845D01*
X7604492Y-17488845D02*
X7594968Y-17526940D01*
X7594968Y-17526940D02*
X7585444Y-17545988D01*
X7585444Y-17545988D02*
X7575920Y-17555512D01*
X7575920Y-17555512D02*
X7556873Y-17565036D01*
X7556873Y-17565036D02*
X7537825Y-17565036D01*
X7537825Y-17565036D02*
X7518778Y-17555512D01*
X7518778Y-17555512D02*
X7509254Y-17545988D01*
X7509254Y-17545988D02*
X7499730Y-17526940D01*
X7499730Y-17526940D02*
X7490206Y-17488845D01*
X7490206Y-17488845D02*
X7490206Y-17441226D01*
X7490206Y-17441226D02*
X7499730Y-17403131D01*
X7499730Y-17403131D02*
X7509254Y-17384083D01*
X7509254Y-17384083D02*
X7518778Y-17374560D01*
X7518778Y-17374560D02*
X7537825Y-17365036D01*
X7728301Y-17365036D02*
X7747349Y-17365036D01*
X7747349Y-17365036D02*
X7766397Y-17374560D01*
X7766397Y-17374560D02*
X7775920Y-17384083D01*
X7775920Y-17384083D02*
X7785444Y-17403131D01*
X7785444Y-17403131D02*
X7794968Y-17441226D01*
X7794968Y-17441226D02*
X7794968Y-17488845D01*
X7794968Y-17488845D02*
X7785444Y-17526940D01*
X7785444Y-17526940D02*
X7775920Y-17545988D01*
X7775920Y-17545988D02*
X7766397Y-17555512D01*
X7766397Y-17555512D02*
X7747349Y-17565036D01*
X7747349Y-17565036D02*
X7728301Y-17565036D01*
X7728301Y-17565036D02*
X7709254Y-17555512D01*
X7709254Y-17555512D02*
X7699730Y-17545988D01*
X7699730Y-17545988D02*
X7690206Y-17526940D01*
X7690206Y-17526940D02*
X7680682Y-17488845D01*
X7680682Y-17488845D02*
X7680682Y-17441226D01*
X7680682Y-17441226D02*
X7690206Y-17403131D01*
X7690206Y-17403131D02*
X7699730Y-17384083D01*
X7699730Y-17384083D02*
X7709254Y-17374560D01*
X7709254Y-17374560D02*
X7728301Y-17365036D01*
X7918778Y-17365036D02*
X7937825Y-17365036D01*
X7937825Y-17365036D02*
X7956873Y-17374560D01*
X7956873Y-17374560D02*
X7966397Y-17384083D01*
X7966397Y-17384083D02*
X7975920Y-17403131D01*
X7975920Y-17403131D02*
X7985444Y-17441226D01*
X7985444Y-17441226D02*
X7985444Y-17488845D01*
X7985444Y-17488845D02*
X7975920Y-17526940D01*
X7975920Y-17526940D02*
X7966397Y-17545988D01*
X7966397Y-17545988D02*
X7956873Y-17555512D01*
X7956873Y-17555512D02*
X7937825Y-17565036D01*
X7937825Y-17565036D02*
X7918778Y-17565036D01*
X7918778Y-17565036D02*
X7899730Y-17555512D01*
X7899730Y-17555512D02*
X7890206Y-17545988D01*
X7890206Y-17545988D02*
X7880682Y-17526940D01*
X7880682Y-17526940D02*
X7871159Y-17488845D01*
X7871159Y-17488845D02*
X7871159Y-17441226D01*
X7871159Y-17441226D02*
X7880682Y-17403131D01*
X7880682Y-17403131D02*
X7890206Y-17384083D01*
X7890206Y-17384083D02*
X7899730Y-17374560D01*
X7899730Y-17374560D02*
X7918778Y-17365036D01*
X8071159Y-17565036D02*
X8071159Y-17431702D01*
X8071159Y-17450750D02*
X8080682Y-17441226D01*
X8080682Y-17441226D02*
X8099730Y-17431702D01*
X8099730Y-17431702D02*
X8128301Y-17431702D01*
X8128301Y-17431702D02*
X8147349Y-17441226D01*
X8147349Y-17441226D02*
X8156873Y-17460274D01*
X8156873Y-17460274D02*
X8156873Y-17565036D01*
X8156873Y-17460274D02*
X8166397Y-17441226D01*
X8166397Y-17441226D02*
X8185444Y-17431702D01*
X8185444Y-17431702D02*
X8214016Y-17431702D01*
X8214016Y-17431702D02*
X8233063Y-17441226D01*
X8233063Y-17441226D02*
X8242587Y-17460274D01*
X8242587Y-17460274D02*
X8242587Y-17565036D01*
X8337825Y-17565036D02*
X8337825Y-17431702D01*
X8337825Y-17450750D02*
X8347349Y-17441226D01*
X8347349Y-17441226D02*
X8366397Y-17431702D01*
X8366397Y-17431702D02*
X8394968Y-17431702D01*
X8394968Y-17431702D02*
X8414016Y-17441226D01*
X8414016Y-17441226D02*
X8423540Y-17460274D01*
X8423540Y-17460274D02*
X8423540Y-17565036D01*
X8423540Y-17460274D02*
X8433063Y-17441226D01*
X8433063Y-17441226D02*
X8452111Y-17431702D01*
X8452111Y-17431702D02*
X8480682Y-17431702D01*
X8480682Y-17431702D02*
X8499730Y-17441226D01*
X8499730Y-17441226D02*
X8509254Y-17460274D01*
X8509254Y-17460274D02*
X8509254Y-17565036D01*
X8899730Y-17355512D02*
X8728302Y-17612655D01*
X9156873Y-17365036D02*
X9175921Y-17365036D01*
X9175921Y-17365036D02*
X9194968Y-17374560D01*
X9194968Y-17374560D02*
X9204492Y-17384083D01*
X9204492Y-17384083D02*
X9214016Y-17403131D01*
X9214016Y-17403131D02*
X9223540Y-17441226D01*
X9223540Y-17441226D02*
X9223540Y-17488845D01*
X9223540Y-17488845D02*
X9214016Y-17526940D01*
X9214016Y-17526940D02*
X9204492Y-17545988D01*
X9204492Y-17545988D02*
X9194968Y-17555512D01*
X9194968Y-17555512D02*
X9175921Y-17565036D01*
X9175921Y-17565036D02*
X9156873Y-17565036D01*
X9156873Y-17565036D02*
X9137825Y-17555512D01*
X9137825Y-17555512D02*
X9128302Y-17545988D01*
X9128302Y-17545988D02*
X9118778Y-17526940D01*
X9118778Y-17526940D02*
X9109254Y-17488845D01*
X9109254Y-17488845D02*
X9109254Y-17441226D01*
X9109254Y-17441226D02*
X9118778Y-17403131D01*
X9118778Y-17403131D02*
X9128302Y-17384083D01*
X9128302Y-17384083D02*
X9137825Y-17374560D01*
X9137825Y-17374560D02*
X9156873Y-17365036D01*
X9309254Y-17545988D02*
X9318778Y-17555512D01*
X9318778Y-17555512D02*
X9309254Y-17565036D01*
X9309254Y-17565036D02*
X9299730Y-17555512D01*
X9299730Y-17555512D02*
X9309254Y-17545988D01*
X9309254Y-17545988D02*
X9309254Y-17565036D01*
X9442587Y-17365036D02*
X9461635Y-17365036D01*
X9461635Y-17365036D02*
X9480683Y-17374560D01*
X9480683Y-17374560D02*
X9490206Y-17384083D01*
X9490206Y-17384083D02*
X9499730Y-17403131D01*
X9499730Y-17403131D02*
X9509254Y-17441226D01*
X9509254Y-17441226D02*
X9509254Y-17488845D01*
X9509254Y-17488845D02*
X9499730Y-17526940D01*
X9499730Y-17526940D02*
X9490206Y-17545988D01*
X9490206Y-17545988D02*
X9480683Y-17555512D01*
X9480683Y-17555512D02*
X9461635Y-17565036D01*
X9461635Y-17565036D02*
X9442587Y-17565036D01*
X9442587Y-17565036D02*
X9423540Y-17555512D01*
X9423540Y-17555512D02*
X9414016Y-17545988D01*
X9414016Y-17545988D02*
X9404492Y-17526940D01*
X9404492Y-17526940D02*
X9394968Y-17488845D01*
X9394968Y-17488845D02*
X9394968Y-17441226D01*
X9394968Y-17441226D02*
X9404492Y-17403131D01*
X9404492Y-17403131D02*
X9414016Y-17384083D01*
X9414016Y-17384083D02*
X9423540Y-17374560D01*
X9423540Y-17374560D02*
X9442587Y-17365036D01*
X9575921Y-17365036D02*
X9699730Y-17365036D01*
X9699730Y-17365036D02*
X9633064Y-17441226D01*
X9633064Y-17441226D02*
X9661635Y-17441226D01*
X9661635Y-17441226D02*
X9680683Y-17450750D01*
X9680683Y-17450750D02*
X9690206Y-17460274D01*
X9690206Y-17460274D02*
X9699730Y-17479321D01*
X9699730Y-17479321D02*
X9699730Y-17526940D01*
X9699730Y-17526940D02*
X9690206Y-17545988D01*
X9690206Y-17545988D02*
X9680683Y-17555512D01*
X9680683Y-17555512D02*
X9661635Y-17565036D01*
X9661635Y-17565036D02*
X9604492Y-17565036D01*
X9604492Y-17565036D02*
X9585445Y-17555512D01*
X9585445Y-17555512D02*
X9575921Y-17545988D01*
X9794968Y-17565036D02*
X9833064Y-17565036D01*
X9833064Y-17565036D02*
X9852111Y-17555512D01*
X9852111Y-17555512D02*
X9861635Y-17545988D01*
X9861635Y-17545988D02*
X9880683Y-17517417D01*
X9880683Y-17517417D02*
X9890206Y-17479321D01*
X9890206Y-17479321D02*
X9890206Y-17403131D01*
X9890206Y-17403131D02*
X9880683Y-17384083D01*
X9880683Y-17384083D02*
X9871159Y-17374560D01*
X9871159Y-17374560D02*
X9852111Y-17365036D01*
X9852111Y-17365036D02*
X9814016Y-17365036D01*
X9814016Y-17365036D02*
X9794968Y-17374560D01*
X9794968Y-17374560D02*
X9785445Y-17384083D01*
X9785445Y-17384083D02*
X9775921Y-17403131D01*
X9775921Y-17403131D02*
X9775921Y-17450750D01*
X9775921Y-17450750D02*
X9785445Y-17469798D01*
X9785445Y-17469798D02*
X9794968Y-17479321D01*
X9794968Y-17479321D02*
X9814016Y-17488845D01*
X9814016Y-17488845D02*
X9852111Y-17488845D01*
X9852111Y-17488845D02*
X9871159Y-17479321D01*
X9871159Y-17479321D02*
X9880683Y-17469798D01*
X9880683Y-17469798D02*
X9890206Y-17450750D01*
X10061635Y-17431702D02*
X10061635Y-17565036D01*
X10014016Y-17355512D02*
X9966397Y-17498369D01*
X9966397Y-17498369D02*
X10090206Y-17498369D01*
X10156873Y-17365036D02*
X10156873Y-17403131D01*
X10233064Y-17365036D02*
X10233064Y-17403131D01*
X10528302Y-17641226D02*
X10518778Y-17631702D01*
X10518778Y-17631702D02*
X10499730Y-17603131D01*
X10499730Y-17603131D02*
X10490207Y-17584083D01*
X10490207Y-17584083D02*
X10480683Y-17555512D01*
X10480683Y-17555512D02*
X10471159Y-17507893D01*
X10471159Y-17507893D02*
X10471159Y-17469798D01*
X10471159Y-17469798D02*
X10480683Y-17422179D01*
X10480683Y-17422179D02*
X10490207Y-17393607D01*
X10490207Y-17393607D02*
X10499730Y-17374560D01*
X10499730Y-17374560D02*
X10518778Y-17345988D01*
X10518778Y-17345988D02*
X10528302Y-17336464D01*
X10594968Y-17384083D02*
X10604492Y-17374560D01*
X10604492Y-17374560D02*
X10623540Y-17365036D01*
X10623540Y-17365036D02*
X10671159Y-17365036D01*
X10671159Y-17365036D02*
X10690207Y-17374560D01*
X10690207Y-17374560D02*
X10699730Y-17384083D01*
X10699730Y-17384083D02*
X10709254Y-17403131D01*
X10709254Y-17403131D02*
X10709254Y-17422179D01*
X10709254Y-17422179D02*
X10699730Y-17450750D01*
X10699730Y-17450750D02*
X10585445Y-17565036D01*
X10585445Y-17565036D02*
X10709254Y-17565036D01*
X10775921Y-17365036D02*
X10899730Y-17365036D01*
X10899730Y-17365036D02*
X10833064Y-17441226D01*
X10833064Y-17441226D02*
X10861635Y-17441226D01*
X10861635Y-17441226D02*
X10880683Y-17450750D01*
X10880683Y-17450750D02*
X10890207Y-17460274D01*
X10890207Y-17460274D02*
X10899730Y-17479321D01*
X10899730Y-17479321D02*
X10899730Y-17526940D01*
X10899730Y-17526940D02*
X10890207Y-17545988D01*
X10890207Y-17545988D02*
X10880683Y-17555512D01*
X10880683Y-17555512D02*
X10861635Y-17565036D01*
X10861635Y-17565036D02*
X10804492Y-17565036D01*
X10804492Y-17565036D02*
X10785445Y-17555512D01*
X10785445Y-17555512D02*
X10775921Y-17545988D01*
X11137826Y-17565036D02*
X11137826Y-17365036D01*
X11223540Y-17565036D02*
X11223540Y-17460274D01*
X11223540Y-17460274D02*
X11214016Y-17441226D01*
X11214016Y-17441226D02*
X11194968Y-17431702D01*
X11194968Y-17431702D02*
X11166397Y-17431702D01*
X11166397Y-17431702D02*
X11147349Y-17441226D01*
X11147349Y-17441226D02*
X11137826Y-17450750D01*
X11347349Y-17565036D02*
X11328302Y-17555512D01*
X11328302Y-17555512D02*
X11318778Y-17545988D01*
X11318778Y-17545988D02*
X11309254Y-17526940D01*
X11309254Y-17526940D02*
X11309254Y-17469798D01*
X11309254Y-17469798D02*
X11318778Y-17450750D01*
X11318778Y-17450750D02*
X11328302Y-17441226D01*
X11328302Y-17441226D02*
X11347349Y-17431702D01*
X11347349Y-17431702D02*
X11375921Y-17431702D01*
X11375921Y-17431702D02*
X11394968Y-17441226D01*
X11394968Y-17441226D02*
X11404492Y-17450750D01*
X11404492Y-17450750D02*
X11414016Y-17469798D01*
X11414016Y-17469798D02*
X11414016Y-17526940D01*
X11414016Y-17526940D02*
X11404492Y-17545988D01*
X11404492Y-17545988D02*
X11394968Y-17555512D01*
X11394968Y-17555512D02*
X11375921Y-17565036D01*
X11375921Y-17565036D02*
X11347349Y-17565036D01*
X11528302Y-17565036D02*
X11509254Y-17555512D01*
X11509254Y-17555512D02*
X11499730Y-17536464D01*
X11499730Y-17536464D02*
X11499730Y-17365036D01*
X11680683Y-17555512D02*
X11661635Y-17565036D01*
X11661635Y-17565036D02*
X11623540Y-17565036D01*
X11623540Y-17565036D02*
X11604492Y-17555512D01*
X11604492Y-17555512D02*
X11594968Y-17536464D01*
X11594968Y-17536464D02*
X11594968Y-17460274D01*
X11594968Y-17460274D02*
X11604492Y-17441226D01*
X11604492Y-17441226D02*
X11623540Y-17431702D01*
X11623540Y-17431702D02*
X11661635Y-17431702D01*
X11661635Y-17431702D02*
X11680683Y-17441226D01*
X11680683Y-17441226D02*
X11690207Y-17460274D01*
X11690207Y-17460274D02*
X11690207Y-17479321D01*
X11690207Y-17479321D02*
X11594968Y-17498369D01*
X11766397Y-17555512D02*
X11785445Y-17565036D01*
X11785445Y-17565036D02*
X11823540Y-17565036D01*
X11823540Y-17565036D02*
X11842588Y-17555512D01*
X11842588Y-17555512D02*
X11852111Y-17536464D01*
X11852111Y-17536464D02*
X11852111Y-17526940D01*
X11852111Y-17526940D02*
X11842588Y-17507893D01*
X11842588Y-17507893D02*
X11823540Y-17498369D01*
X11823540Y-17498369D02*
X11794968Y-17498369D01*
X11794968Y-17498369D02*
X11775921Y-17488845D01*
X11775921Y-17488845D02*
X11766397Y-17469798D01*
X11766397Y-17469798D02*
X11766397Y-17460274D01*
X11766397Y-17460274D02*
X11775921Y-17441226D01*
X11775921Y-17441226D02*
X11794968Y-17431702D01*
X11794968Y-17431702D02*
X11823540Y-17431702D01*
X11823540Y-17431702D02*
X11842588Y-17441226D01*
X11918778Y-17641226D02*
X11928302Y-17631702D01*
X11928302Y-17631702D02*
X11947349Y-17603131D01*
X11947349Y-17603131D02*
X11956873Y-17584083D01*
X11956873Y-17584083D02*
X11966397Y-17555512D01*
X11966397Y-17555512D02*
X11975921Y-17507893D01*
X11975921Y-17507893D02*
X11975921Y-17469798D01*
X11975921Y-17469798D02*
X11966397Y-17422179D01*
X11966397Y-17422179D02*
X11956873Y-17393607D01*
X11956873Y-17393607D02*
X11947349Y-17374560D01*
X11947349Y-17374560D02*
X11928302Y-17345988D01*
X11928302Y-17345988D02*
X11918778Y-17336464D01*
D13*
X6852239Y-17687052D02*
X6953239Y-17788052D01*
X6953239Y-17687052D02*
X6852239Y-17788052D01*
X6938448Y-17773261D02*
X6938448Y-17701843D01*
X6867030Y-17701843D01*
X6867030Y-17773261D01*
X6938448Y-17773261D01*
D12*
X7318778Y-17829036D02*
X7204492Y-17829036D01*
X7261635Y-17829036D02*
X7261635Y-17629036D01*
X7261635Y-17629036D02*
X7242587Y-17657607D01*
X7242587Y-17657607D02*
X7223539Y-17676655D01*
X7223539Y-17676655D02*
X7204492Y-17686179D01*
X7404492Y-17809988D02*
X7414016Y-17819512D01*
X7414016Y-17819512D02*
X7404492Y-17829036D01*
X7404492Y-17829036D02*
X7394968Y-17819512D01*
X7394968Y-17819512D02*
X7404492Y-17809988D01*
X7404492Y-17809988D02*
X7404492Y-17829036D01*
X7537825Y-17629036D02*
X7556873Y-17629036D01*
X7556873Y-17629036D02*
X7575920Y-17638560D01*
X7575920Y-17638560D02*
X7585444Y-17648083D01*
X7585444Y-17648083D02*
X7594968Y-17667131D01*
X7594968Y-17667131D02*
X7604492Y-17705226D01*
X7604492Y-17705226D02*
X7604492Y-17752845D01*
X7604492Y-17752845D02*
X7594968Y-17790940D01*
X7594968Y-17790940D02*
X7585444Y-17809988D01*
X7585444Y-17809988D02*
X7575920Y-17819512D01*
X7575920Y-17819512D02*
X7556873Y-17829036D01*
X7556873Y-17829036D02*
X7537825Y-17829036D01*
X7537825Y-17829036D02*
X7518778Y-17819512D01*
X7518778Y-17819512D02*
X7509254Y-17809988D01*
X7509254Y-17809988D02*
X7499730Y-17790940D01*
X7499730Y-17790940D02*
X7490206Y-17752845D01*
X7490206Y-17752845D02*
X7490206Y-17705226D01*
X7490206Y-17705226D02*
X7499730Y-17667131D01*
X7499730Y-17667131D02*
X7509254Y-17648083D01*
X7509254Y-17648083D02*
X7518778Y-17638560D01*
X7518778Y-17638560D02*
X7537825Y-17629036D01*
X7794968Y-17829036D02*
X7680682Y-17829036D01*
X7737825Y-17829036D02*
X7737825Y-17629036D01*
X7737825Y-17629036D02*
X7718778Y-17657607D01*
X7718778Y-17657607D02*
X7699730Y-17676655D01*
X7699730Y-17676655D02*
X7680682Y-17686179D01*
X7918778Y-17629036D02*
X7937825Y-17629036D01*
X7937825Y-17629036D02*
X7956873Y-17638560D01*
X7956873Y-17638560D02*
X7966397Y-17648083D01*
X7966397Y-17648083D02*
X7975920Y-17667131D01*
X7975920Y-17667131D02*
X7985444Y-17705226D01*
X7985444Y-17705226D02*
X7985444Y-17752845D01*
X7985444Y-17752845D02*
X7975920Y-17790940D01*
X7975920Y-17790940D02*
X7966397Y-17809988D01*
X7966397Y-17809988D02*
X7956873Y-17819512D01*
X7956873Y-17819512D02*
X7937825Y-17829036D01*
X7937825Y-17829036D02*
X7918778Y-17829036D01*
X7918778Y-17829036D02*
X7899730Y-17819512D01*
X7899730Y-17819512D02*
X7890206Y-17809988D01*
X7890206Y-17809988D02*
X7880682Y-17790940D01*
X7880682Y-17790940D02*
X7871159Y-17752845D01*
X7871159Y-17752845D02*
X7871159Y-17705226D01*
X7871159Y-17705226D02*
X7880682Y-17667131D01*
X7880682Y-17667131D02*
X7890206Y-17648083D01*
X7890206Y-17648083D02*
X7899730Y-17638560D01*
X7899730Y-17638560D02*
X7918778Y-17629036D01*
X8071159Y-17829036D02*
X8071159Y-17695702D01*
X8071159Y-17714750D02*
X8080682Y-17705226D01*
X8080682Y-17705226D02*
X8099730Y-17695702D01*
X8099730Y-17695702D02*
X8128301Y-17695702D01*
X8128301Y-17695702D02*
X8147349Y-17705226D01*
X8147349Y-17705226D02*
X8156873Y-17724274D01*
X8156873Y-17724274D02*
X8156873Y-17829036D01*
X8156873Y-17724274D02*
X8166397Y-17705226D01*
X8166397Y-17705226D02*
X8185444Y-17695702D01*
X8185444Y-17695702D02*
X8214016Y-17695702D01*
X8214016Y-17695702D02*
X8233063Y-17705226D01*
X8233063Y-17705226D02*
X8242587Y-17724274D01*
X8242587Y-17724274D02*
X8242587Y-17829036D01*
X8337825Y-17829036D02*
X8337825Y-17695702D01*
X8337825Y-17714750D02*
X8347349Y-17705226D01*
X8347349Y-17705226D02*
X8366397Y-17695702D01*
X8366397Y-17695702D02*
X8394968Y-17695702D01*
X8394968Y-17695702D02*
X8414016Y-17705226D01*
X8414016Y-17705226D02*
X8423540Y-17724274D01*
X8423540Y-17724274D02*
X8423540Y-17829036D01*
X8423540Y-17724274D02*
X8433063Y-17705226D01*
X8433063Y-17705226D02*
X8452111Y-17695702D01*
X8452111Y-17695702D02*
X8480682Y-17695702D01*
X8480682Y-17695702D02*
X8499730Y-17705226D01*
X8499730Y-17705226D02*
X8509254Y-17724274D01*
X8509254Y-17724274D02*
X8509254Y-17829036D01*
X8899730Y-17619512D02*
X8728302Y-17876655D01*
X9156873Y-17629036D02*
X9175921Y-17629036D01*
X9175921Y-17629036D02*
X9194968Y-17638560D01*
X9194968Y-17638560D02*
X9204492Y-17648083D01*
X9204492Y-17648083D02*
X9214016Y-17667131D01*
X9214016Y-17667131D02*
X9223540Y-17705226D01*
X9223540Y-17705226D02*
X9223540Y-17752845D01*
X9223540Y-17752845D02*
X9214016Y-17790940D01*
X9214016Y-17790940D02*
X9204492Y-17809988D01*
X9204492Y-17809988D02*
X9194968Y-17819512D01*
X9194968Y-17819512D02*
X9175921Y-17829036D01*
X9175921Y-17829036D02*
X9156873Y-17829036D01*
X9156873Y-17829036D02*
X9137825Y-17819512D01*
X9137825Y-17819512D02*
X9128302Y-17809988D01*
X9128302Y-17809988D02*
X9118778Y-17790940D01*
X9118778Y-17790940D02*
X9109254Y-17752845D01*
X9109254Y-17752845D02*
X9109254Y-17705226D01*
X9109254Y-17705226D02*
X9118778Y-17667131D01*
X9118778Y-17667131D02*
X9128302Y-17648083D01*
X9128302Y-17648083D02*
X9137825Y-17638560D01*
X9137825Y-17638560D02*
X9156873Y-17629036D01*
X9309254Y-17809988D02*
X9318778Y-17819512D01*
X9318778Y-17819512D02*
X9309254Y-17829036D01*
X9309254Y-17829036D02*
X9299730Y-17819512D01*
X9299730Y-17819512D02*
X9309254Y-17809988D01*
X9309254Y-17809988D02*
X9309254Y-17829036D01*
X9442587Y-17629036D02*
X9461635Y-17629036D01*
X9461635Y-17629036D02*
X9480683Y-17638560D01*
X9480683Y-17638560D02*
X9490206Y-17648083D01*
X9490206Y-17648083D02*
X9499730Y-17667131D01*
X9499730Y-17667131D02*
X9509254Y-17705226D01*
X9509254Y-17705226D02*
X9509254Y-17752845D01*
X9509254Y-17752845D02*
X9499730Y-17790940D01*
X9499730Y-17790940D02*
X9490206Y-17809988D01*
X9490206Y-17809988D02*
X9480683Y-17819512D01*
X9480683Y-17819512D02*
X9461635Y-17829036D01*
X9461635Y-17829036D02*
X9442587Y-17829036D01*
X9442587Y-17829036D02*
X9423540Y-17819512D01*
X9423540Y-17819512D02*
X9414016Y-17809988D01*
X9414016Y-17809988D02*
X9404492Y-17790940D01*
X9404492Y-17790940D02*
X9394968Y-17752845D01*
X9394968Y-17752845D02*
X9394968Y-17705226D01*
X9394968Y-17705226D02*
X9404492Y-17667131D01*
X9404492Y-17667131D02*
X9414016Y-17648083D01*
X9414016Y-17648083D02*
X9423540Y-17638560D01*
X9423540Y-17638560D02*
X9442587Y-17629036D01*
X9575921Y-17629036D02*
X9699730Y-17629036D01*
X9699730Y-17629036D02*
X9633064Y-17705226D01*
X9633064Y-17705226D02*
X9661635Y-17705226D01*
X9661635Y-17705226D02*
X9680683Y-17714750D01*
X9680683Y-17714750D02*
X9690206Y-17724274D01*
X9690206Y-17724274D02*
X9699730Y-17743321D01*
X9699730Y-17743321D02*
X9699730Y-17790940D01*
X9699730Y-17790940D02*
X9690206Y-17809988D01*
X9690206Y-17809988D02*
X9680683Y-17819512D01*
X9680683Y-17819512D02*
X9661635Y-17829036D01*
X9661635Y-17829036D02*
X9604492Y-17829036D01*
X9604492Y-17829036D02*
X9585445Y-17819512D01*
X9585445Y-17819512D02*
X9575921Y-17809988D01*
X9794968Y-17829036D02*
X9833064Y-17829036D01*
X9833064Y-17829036D02*
X9852111Y-17819512D01*
X9852111Y-17819512D02*
X9861635Y-17809988D01*
X9861635Y-17809988D02*
X9880683Y-17781417D01*
X9880683Y-17781417D02*
X9890206Y-17743321D01*
X9890206Y-17743321D02*
X9890206Y-17667131D01*
X9890206Y-17667131D02*
X9880683Y-17648083D01*
X9880683Y-17648083D02*
X9871159Y-17638560D01*
X9871159Y-17638560D02*
X9852111Y-17629036D01*
X9852111Y-17629036D02*
X9814016Y-17629036D01*
X9814016Y-17629036D02*
X9794968Y-17638560D01*
X9794968Y-17638560D02*
X9785445Y-17648083D01*
X9785445Y-17648083D02*
X9775921Y-17667131D01*
X9775921Y-17667131D02*
X9775921Y-17714750D01*
X9775921Y-17714750D02*
X9785445Y-17733798D01*
X9785445Y-17733798D02*
X9794968Y-17743321D01*
X9794968Y-17743321D02*
X9814016Y-17752845D01*
X9814016Y-17752845D02*
X9852111Y-17752845D01*
X9852111Y-17752845D02*
X9871159Y-17743321D01*
X9871159Y-17743321D02*
X9880683Y-17733798D01*
X9880683Y-17733798D02*
X9890206Y-17714750D01*
X10004492Y-17714750D02*
X9985445Y-17705226D01*
X9985445Y-17705226D02*
X9975921Y-17695702D01*
X9975921Y-17695702D02*
X9966397Y-17676655D01*
X9966397Y-17676655D02*
X9966397Y-17667131D01*
X9966397Y-17667131D02*
X9975921Y-17648083D01*
X9975921Y-17648083D02*
X9985445Y-17638560D01*
X9985445Y-17638560D02*
X10004492Y-17629036D01*
X10004492Y-17629036D02*
X10042587Y-17629036D01*
X10042587Y-17629036D02*
X10061635Y-17638560D01*
X10061635Y-17638560D02*
X10071159Y-17648083D01*
X10071159Y-17648083D02*
X10080683Y-17667131D01*
X10080683Y-17667131D02*
X10080683Y-17676655D01*
X10080683Y-17676655D02*
X10071159Y-17695702D01*
X10071159Y-17695702D02*
X10061635Y-17705226D01*
X10061635Y-17705226D02*
X10042587Y-17714750D01*
X10042587Y-17714750D02*
X10004492Y-17714750D01*
X10004492Y-17714750D02*
X9985445Y-17724274D01*
X9985445Y-17724274D02*
X9975921Y-17733798D01*
X9975921Y-17733798D02*
X9966397Y-17752845D01*
X9966397Y-17752845D02*
X9966397Y-17790940D01*
X9966397Y-17790940D02*
X9975921Y-17809988D01*
X9975921Y-17809988D02*
X9985445Y-17819512D01*
X9985445Y-17819512D02*
X10004492Y-17829036D01*
X10004492Y-17829036D02*
X10042587Y-17829036D01*
X10042587Y-17829036D02*
X10061635Y-17819512D01*
X10061635Y-17819512D02*
X10071159Y-17809988D01*
X10071159Y-17809988D02*
X10080683Y-17790940D01*
X10080683Y-17790940D02*
X10080683Y-17752845D01*
X10080683Y-17752845D02*
X10071159Y-17733798D01*
X10071159Y-17733798D02*
X10061635Y-17724274D01*
X10061635Y-17724274D02*
X10042587Y-17714750D01*
X10156873Y-17629036D02*
X10156873Y-17667131D01*
X10233064Y-17629036D02*
X10233064Y-17667131D01*
X10528302Y-17905226D02*
X10518778Y-17895702D01*
X10518778Y-17895702D02*
X10499730Y-17867131D01*
X10499730Y-17867131D02*
X10490207Y-17848083D01*
X10490207Y-17848083D02*
X10480683Y-17819512D01*
X10480683Y-17819512D02*
X10471159Y-17771893D01*
X10471159Y-17771893D02*
X10471159Y-17733798D01*
X10471159Y-17733798D02*
X10480683Y-17686179D01*
X10480683Y-17686179D02*
X10490207Y-17657607D01*
X10490207Y-17657607D02*
X10499730Y-17638560D01*
X10499730Y-17638560D02*
X10518778Y-17609988D01*
X10518778Y-17609988D02*
X10528302Y-17600464D01*
X10690207Y-17695702D02*
X10690207Y-17829036D01*
X10642587Y-17619512D02*
X10594968Y-17762369D01*
X10594968Y-17762369D02*
X10718778Y-17762369D01*
X10947349Y-17829036D02*
X10947349Y-17629036D01*
X11033064Y-17829036D02*
X11033064Y-17724274D01*
X11033064Y-17724274D02*
X11023540Y-17705226D01*
X11023540Y-17705226D02*
X11004492Y-17695702D01*
X11004492Y-17695702D02*
X10975921Y-17695702D01*
X10975921Y-17695702D02*
X10956873Y-17705226D01*
X10956873Y-17705226D02*
X10947349Y-17714750D01*
X11156873Y-17829036D02*
X11137826Y-17819512D01*
X11137826Y-17819512D02*
X11128302Y-17809988D01*
X11128302Y-17809988D02*
X11118778Y-17790940D01*
X11118778Y-17790940D02*
X11118778Y-17733798D01*
X11118778Y-17733798D02*
X11128302Y-17714750D01*
X11128302Y-17714750D02*
X11137826Y-17705226D01*
X11137826Y-17705226D02*
X11156873Y-17695702D01*
X11156873Y-17695702D02*
X11185445Y-17695702D01*
X11185445Y-17695702D02*
X11204492Y-17705226D01*
X11204492Y-17705226D02*
X11214016Y-17714750D01*
X11214016Y-17714750D02*
X11223540Y-17733798D01*
X11223540Y-17733798D02*
X11223540Y-17790940D01*
X11223540Y-17790940D02*
X11214016Y-17809988D01*
X11214016Y-17809988D02*
X11204492Y-17819512D01*
X11204492Y-17819512D02*
X11185445Y-17829036D01*
X11185445Y-17829036D02*
X11156873Y-17829036D01*
X11337826Y-17829036D02*
X11318778Y-17819512D01*
X11318778Y-17819512D02*
X11309254Y-17800464D01*
X11309254Y-17800464D02*
X11309254Y-17629036D01*
X11490207Y-17819512D02*
X11471159Y-17829036D01*
X11471159Y-17829036D02*
X11433064Y-17829036D01*
X11433064Y-17829036D02*
X11414016Y-17819512D01*
X11414016Y-17819512D02*
X11404492Y-17800464D01*
X11404492Y-17800464D02*
X11404492Y-17724274D01*
X11404492Y-17724274D02*
X11414016Y-17705226D01*
X11414016Y-17705226D02*
X11433064Y-17695702D01*
X11433064Y-17695702D02*
X11471159Y-17695702D01*
X11471159Y-17695702D02*
X11490207Y-17705226D01*
X11490207Y-17705226D02*
X11499730Y-17724274D01*
X11499730Y-17724274D02*
X11499730Y-17743321D01*
X11499730Y-17743321D02*
X11404492Y-17762369D01*
X11575921Y-17819512D02*
X11594968Y-17829036D01*
X11594968Y-17829036D02*
X11633064Y-17829036D01*
X11633064Y-17829036D02*
X11652111Y-17819512D01*
X11652111Y-17819512D02*
X11661635Y-17800464D01*
X11661635Y-17800464D02*
X11661635Y-17790940D01*
X11661635Y-17790940D02*
X11652111Y-17771893D01*
X11652111Y-17771893D02*
X11633064Y-17762369D01*
X11633064Y-17762369D02*
X11604492Y-17762369D01*
X11604492Y-17762369D02*
X11585445Y-17752845D01*
X11585445Y-17752845D02*
X11575921Y-17733798D01*
X11575921Y-17733798D02*
X11575921Y-17724274D01*
X11575921Y-17724274D02*
X11585445Y-17705226D01*
X11585445Y-17705226D02*
X11604492Y-17695702D01*
X11604492Y-17695702D02*
X11633064Y-17695702D01*
X11633064Y-17695702D02*
X11652111Y-17705226D01*
X11728302Y-17905226D02*
X11737826Y-17895702D01*
X11737826Y-17895702D02*
X11756873Y-17867131D01*
X11756873Y-17867131D02*
X11766397Y-17848083D01*
X11766397Y-17848083D02*
X11775921Y-17819512D01*
X11775921Y-17819512D02*
X11785445Y-17771893D01*
X11785445Y-17771893D02*
X11785445Y-17733798D01*
X11785445Y-17733798D02*
X11775921Y-17686179D01*
X11775921Y-17686179D02*
X11766397Y-17657607D01*
X11766397Y-17657607D02*
X11756873Y-17638560D01*
X11756873Y-17638560D02*
X11737826Y-17609988D01*
X11737826Y-17609988D02*
X11728302Y-17600464D01*
D14*
X6851239Y-17950552D02*
X6953239Y-18052552D01*
X6953239Y-17950552D02*
X6851239Y-18052552D01*
X6902239Y-18052552D02*
X6953239Y-18001552D01*
X6902239Y-17950552D01*
X6851239Y-18001552D01*
X6902239Y-18052552D01*
D12*
X7318778Y-18093036D02*
X7204492Y-18093036D01*
X7261635Y-18093036D02*
X7261635Y-17893036D01*
X7261635Y-17893036D02*
X7242587Y-17921607D01*
X7242587Y-17921607D02*
X7223539Y-17940655D01*
X7223539Y-17940655D02*
X7204492Y-17950179D01*
X7404492Y-18073988D02*
X7414016Y-18083512D01*
X7414016Y-18083512D02*
X7404492Y-18093036D01*
X7404492Y-18093036D02*
X7394968Y-18083512D01*
X7394968Y-18083512D02*
X7404492Y-18073988D01*
X7404492Y-18073988D02*
X7404492Y-18093036D01*
X7537825Y-17893036D02*
X7556873Y-17893036D01*
X7556873Y-17893036D02*
X7575920Y-17902560D01*
X7575920Y-17902560D02*
X7585444Y-17912083D01*
X7585444Y-17912083D02*
X7594968Y-17931131D01*
X7594968Y-17931131D02*
X7604492Y-17969226D01*
X7604492Y-17969226D02*
X7604492Y-18016845D01*
X7604492Y-18016845D02*
X7594968Y-18054940D01*
X7594968Y-18054940D02*
X7585444Y-18073988D01*
X7585444Y-18073988D02*
X7575920Y-18083512D01*
X7575920Y-18083512D02*
X7556873Y-18093036D01*
X7556873Y-18093036D02*
X7537825Y-18093036D01*
X7537825Y-18093036D02*
X7518778Y-18083512D01*
X7518778Y-18083512D02*
X7509254Y-18073988D01*
X7509254Y-18073988D02*
X7499730Y-18054940D01*
X7499730Y-18054940D02*
X7490206Y-18016845D01*
X7490206Y-18016845D02*
X7490206Y-17969226D01*
X7490206Y-17969226D02*
X7499730Y-17931131D01*
X7499730Y-17931131D02*
X7509254Y-17912083D01*
X7509254Y-17912083D02*
X7518778Y-17902560D01*
X7518778Y-17902560D02*
X7537825Y-17893036D01*
X7680682Y-17912083D02*
X7690206Y-17902560D01*
X7690206Y-17902560D02*
X7709254Y-17893036D01*
X7709254Y-17893036D02*
X7756873Y-17893036D01*
X7756873Y-17893036D02*
X7775920Y-17902560D01*
X7775920Y-17902560D02*
X7785444Y-17912083D01*
X7785444Y-17912083D02*
X7794968Y-17931131D01*
X7794968Y-17931131D02*
X7794968Y-17950179D01*
X7794968Y-17950179D02*
X7785444Y-17978750D01*
X7785444Y-17978750D02*
X7671159Y-18093036D01*
X7671159Y-18093036D02*
X7794968Y-18093036D01*
X7918778Y-17893036D02*
X7937825Y-17893036D01*
X7937825Y-17893036D02*
X7956873Y-17902560D01*
X7956873Y-17902560D02*
X7966397Y-17912083D01*
X7966397Y-17912083D02*
X7975920Y-17931131D01*
X7975920Y-17931131D02*
X7985444Y-17969226D01*
X7985444Y-17969226D02*
X7985444Y-18016845D01*
X7985444Y-18016845D02*
X7975920Y-18054940D01*
X7975920Y-18054940D02*
X7966397Y-18073988D01*
X7966397Y-18073988D02*
X7956873Y-18083512D01*
X7956873Y-18083512D02*
X7937825Y-18093036D01*
X7937825Y-18093036D02*
X7918778Y-18093036D01*
X7918778Y-18093036D02*
X7899730Y-18083512D01*
X7899730Y-18083512D02*
X7890206Y-18073988D01*
X7890206Y-18073988D02*
X7880682Y-18054940D01*
X7880682Y-18054940D02*
X7871159Y-18016845D01*
X7871159Y-18016845D02*
X7871159Y-17969226D01*
X7871159Y-17969226D02*
X7880682Y-17931131D01*
X7880682Y-17931131D02*
X7890206Y-17912083D01*
X7890206Y-17912083D02*
X7899730Y-17902560D01*
X7899730Y-17902560D02*
X7918778Y-17893036D01*
X8071159Y-18093036D02*
X8071159Y-17959702D01*
X8071159Y-17978750D02*
X8080682Y-17969226D01*
X8080682Y-17969226D02*
X8099730Y-17959702D01*
X8099730Y-17959702D02*
X8128301Y-17959702D01*
X8128301Y-17959702D02*
X8147349Y-17969226D01*
X8147349Y-17969226D02*
X8156873Y-17988274D01*
X8156873Y-17988274D02*
X8156873Y-18093036D01*
X8156873Y-17988274D02*
X8166397Y-17969226D01*
X8166397Y-17969226D02*
X8185444Y-17959702D01*
X8185444Y-17959702D02*
X8214016Y-17959702D01*
X8214016Y-17959702D02*
X8233063Y-17969226D01*
X8233063Y-17969226D02*
X8242587Y-17988274D01*
X8242587Y-17988274D02*
X8242587Y-18093036D01*
X8337825Y-18093036D02*
X8337825Y-17959702D01*
X8337825Y-17978750D02*
X8347349Y-17969226D01*
X8347349Y-17969226D02*
X8366397Y-17959702D01*
X8366397Y-17959702D02*
X8394968Y-17959702D01*
X8394968Y-17959702D02*
X8414016Y-17969226D01*
X8414016Y-17969226D02*
X8423540Y-17988274D01*
X8423540Y-17988274D02*
X8423540Y-18093036D01*
X8423540Y-17988274D02*
X8433063Y-17969226D01*
X8433063Y-17969226D02*
X8452111Y-17959702D01*
X8452111Y-17959702D02*
X8480682Y-17959702D01*
X8480682Y-17959702D02*
X8499730Y-17969226D01*
X8499730Y-17969226D02*
X8509254Y-17988274D01*
X8509254Y-17988274D02*
X8509254Y-18093036D01*
X8899730Y-17883512D02*
X8728302Y-18140655D01*
X9156873Y-17893036D02*
X9175921Y-17893036D01*
X9175921Y-17893036D02*
X9194968Y-17902560D01*
X9194968Y-17902560D02*
X9204492Y-17912083D01*
X9204492Y-17912083D02*
X9214016Y-17931131D01*
X9214016Y-17931131D02*
X9223540Y-17969226D01*
X9223540Y-17969226D02*
X9223540Y-18016845D01*
X9223540Y-18016845D02*
X9214016Y-18054940D01*
X9214016Y-18054940D02*
X9204492Y-18073988D01*
X9204492Y-18073988D02*
X9194968Y-18083512D01*
X9194968Y-18083512D02*
X9175921Y-18093036D01*
X9175921Y-18093036D02*
X9156873Y-18093036D01*
X9156873Y-18093036D02*
X9137825Y-18083512D01*
X9137825Y-18083512D02*
X9128302Y-18073988D01*
X9128302Y-18073988D02*
X9118778Y-18054940D01*
X9118778Y-18054940D02*
X9109254Y-18016845D01*
X9109254Y-18016845D02*
X9109254Y-17969226D01*
X9109254Y-17969226D02*
X9118778Y-17931131D01*
X9118778Y-17931131D02*
X9128302Y-17912083D01*
X9128302Y-17912083D02*
X9137825Y-17902560D01*
X9137825Y-17902560D02*
X9156873Y-17893036D01*
X9309254Y-18073988D02*
X9318778Y-18083512D01*
X9318778Y-18083512D02*
X9309254Y-18093036D01*
X9309254Y-18093036D02*
X9299730Y-18083512D01*
X9299730Y-18083512D02*
X9309254Y-18073988D01*
X9309254Y-18073988D02*
X9309254Y-18093036D01*
X9442587Y-17893036D02*
X9461635Y-17893036D01*
X9461635Y-17893036D02*
X9480683Y-17902560D01*
X9480683Y-17902560D02*
X9490206Y-17912083D01*
X9490206Y-17912083D02*
X9499730Y-17931131D01*
X9499730Y-17931131D02*
X9509254Y-17969226D01*
X9509254Y-17969226D02*
X9509254Y-18016845D01*
X9509254Y-18016845D02*
X9499730Y-18054940D01*
X9499730Y-18054940D02*
X9490206Y-18073988D01*
X9490206Y-18073988D02*
X9480683Y-18083512D01*
X9480683Y-18083512D02*
X9461635Y-18093036D01*
X9461635Y-18093036D02*
X9442587Y-18093036D01*
X9442587Y-18093036D02*
X9423540Y-18083512D01*
X9423540Y-18083512D02*
X9414016Y-18073988D01*
X9414016Y-18073988D02*
X9404492Y-18054940D01*
X9404492Y-18054940D02*
X9394968Y-18016845D01*
X9394968Y-18016845D02*
X9394968Y-17969226D01*
X9394968Y-17969226D02*
X9404492Y-17931131D01*
X9404492Y-17931131D02*
X9414016Y-17912083D01*
X9414016Y-17912083D02*
X9423540Y-17902560D01*
X9423540Y-17902560D02*
X9442587Y-17893036D01*
X9680683Y-17959702D02*
X9680683Y-18093036D01*
X9633064Y-17883512D02*
X9585445Y-18026369D01*
X9585445Y-18026369D02*
X9709254Y-18026369D01*
X9823540Y-17893036D02*
X9842587Y-17893036D01*
X9842587Y-17893036D02*
X9861635Y-17902560D01*
X9861635Y-17902560D02*
X9871159Y-17912083D01*
X9871159Y-17912083D02*
X9880683Y-17931131D01*
X9880683Y-17931131D02*
X9890206Y-17969226D01*
X9890206Y-17969226D02*
X9890206Y-18016845D01*
X9890206Y-18016845D02*
X9880683Y-18054940D01*
X9880683Y-18054940D02*
X9871159Y-18073988D01*
X9871159Y-18073988D02*
X9861635Y-18083512D01*
X9861635Y-18083512D02*
X9842587Y-18093036D01*
X9842587Y-18093036D02*
X9823540Y-18093036D01*
X9823540Y-18093036D02*
X9804492Y-18083512D01*
X9804492Y-18083512D02*
X9794968Y-18073988D01*
X9794968Y-18073988D02*
X9785445Y-18054940D01*
X9785445Y-18054940D02*
X9775921Y-18016845D01*
X9775921Y-18016845D02*
X9775921Y-17969226D01*
X9775921Y-17969226D02*
X9785445Y-17931131D01*
X9785445Y-17931131D02*
X9794968Y-17912083D01*
X9794968Y-17912083D02*
X9804492Y-17902560D01*
X9804492Y-17902560D02*
X9823540Y-17893036D01*
X9966397Y-17912083D02*
X9975921Y-17902560D01*
X9975921Y-17902560D02*
X9994968Y-17893036D01*
X9994968Y-17893036D02*
X10042587Y-17893036D01*
X10042587Y-17893036D02*
X10061635Y-17902560D01*
X10061635Y-17902560D02*
X10071159Y-17912083D01*
X10071159Y-17912083D02*
X10080683Y-17931131D01*
X10080683Y-17931131D02*
X10080683Y-17950179D01*
X10080683Y-17950179D02*
X10071159Y-17978750D01*
X10071159Y-17978750D02*
X9956873Y-18093036D01*
X9956873Y-18093036D02*
X10080683Y-18093036D01*
X10156873Y-17893036D02*
X10156873Y-17931131D01*
X10233064Y-17893036D02*
X10233064Y-17931131D01*
X10528302Y-18169226D02*
X10518778Y-18159702D01*
X10518778Y-18159702D02*
X10499730Y-18131131D01*
X10499730Y-18131131D02*
X10490207Y-18112083D01*
X10490207Y-18112083D02*
X10480683Y-18083512D01*
X10480683Y-18083512D02*
X10471159Y-18035893D01*
X10471159Y-18035893D02*
X10471159Y-17997798D01*
X10471159Y-17997798D02*
X10480683Y-17950179D01*
X10480683Y-17950179D02*
X10490207Y-17921607D01*
X10490207Y-17921607D02*
X10499730Y-17902560D01*
X10499730Y-17902560D02*
X10518778Y-17873988D01*
X10518778Y-17873988D02*
X10528302Y-17864464D01*
X10709254Y-18093036D02*
X10594968Y-18093036D01*
X10652111Y-18093036D02*
X10652111Y-17893036D01*
X10652111Y-17893036D02*
X10633064Y-17921607D01*
X10633064Y-17921607D02*
X10614016Y-17940655D01*
X10614016Y-17940655D02*
X10594968Y-17950179D01*
X10833064Y-17893036D02*
X10852111Y-17893036D01*
X10852111Y-17893036D02*
X10871159Y-17902560D01*
X10871159Y-17902560D02*
X10880683Y-17912083D01*
X10880683Y-17912083D02*
X10890207Y-17931131D01*
X10890207Y-17931131D02*
X10899730Y-17969226D01*
X10899730Y-17969226D02*
X10899730Y-18016845D01*
X10899730Y-18016845D02*
X10890207Y-18054940D01*
X10890207Y-18054940D02*
X10880683Y-18073988D01*
X10880683Y-18073988D02*
X10871159Y-18083512D01*
X10871159Y-18083512D02*
X10852111Y-18093036D01*
X10852111Y-18093036D02*
X10833064Y-18093036D01*
X10833064Y-18093036D02*
X10814016Y-18083512D01*
X10814016Y-18083512D02*
X10804492Y-18073988D01*
X10804492Y-18073988D02*
X10794968Y-18054940D01*
X10794968Y-18054940D02*
X10785445Y-18016845D01*
X10785445Y-18016845D02*
X10785445Y-17969226D01*
X10785445Y-17969226D02*
X10794968Y-17931131D01*
X10794968Y-17931131D02*
X10804492Y-17912083D01*
X10804492Y-17912083D02*
X10814016Y-17902560D01*
X10814016Y-17902560D02*
X10833064Y-17893036D01*
X11137826Y-18093036D02*
X11137826Y-17893036D01*
X11223540Y-18093036D02*
X11223540Y-17988274D01*
X11223540Y-17988274D02*
X11214016Y-17969226D01*
X11214016Y-17969226D02*
X11194968Y-17959702D01*
X11194968Y-17959702D02*
X11166397Y-17959702D01*
X11166397Y-17959702D02*
X11147349Y-17969226D01*
X11147349Y-17969226D02*
X11137826Y-17978750D01*
X11347349Y-18093036D02*
X11328302Y-18083512D01*
X11328302Y-18083512D02*
X11318778Y-18073988D01*
X11318778Y-18073988D02*
X11309254Y-18054940D01*
X11309254Y-18054940D02*
X11309254Y-17997798D01*
X11309254Y-17997798D02*
X11318778Y-17978750D01*
X11318778Y-17978750D02*
X11328302Y-17969226D01*
X11328302Y-17969226D02*
X11347349Y-17959702D01*
X11347349Y-17959702D02*
X11375921Y-17959702D01*
X11375921Y-17959702D02*
X11394968Y-17969226D01*
X11394968Y-17969226D02*
X11404492Y-17978750D01*
X11404492Y-17978750D02*
X11414016Y-17997798D01*
X11414016Y-17997798D02*
X11414016Y-18054940D01*
X11414016Y-18054940D02*
X11404492Y-18073988D01*
X11404492Y-18073988D02*
X11394968Y-18083512D01*
X11394968Y-18083512D02*
X11375921Y-18093036D01*
X11375921Y-18093036D02*
X11347349Y-18093036D01*
X11528302Y-18093036D02*
X11509254Y-18083512D01*
X11509254Y-18083512D02*
X11499730Y-18064464D01*
X11499730Y-18064464D02*
X11499730Y-17893036D01*
X11680683Y-18083512D02*
X11661635Y-18093036D01*
X11661635Y-18093036D02*
X11623540Y-18093036D01*
X11623540Y-18093036D02*
X11604492Y-18083512D01*
X11604492Y-18083512D02*
X11594968Y-18064464D01*
X11594968Y-18064464D02*
X11594968Y-17988274D01*
X11594968Y-17988274D02*
X11604492Y-17969226D01*
X11604492Y-17969226D02*
X11623540Y-17959702D01*
X11623540Y-17959702D02*
X11661635Y-17959702D01*
X11661635Y-17959702D02*
X11680683Y-17969226D01*
X11680683Y-17969226D02*
X11690207Y-17988274D01*
X11690207Y-17988274D02*
X11690207Y-18007321D01*
X11690207Y-18007321D02*
X11594968Y-18026369D01*
X11766397Y-18083512D02*
X11785445Y-18093036D01*
X11785445Y-18093036D02*
X11823540Y-18093036D01*
X11823540Y-18093036D02*
X11842588Y-18083512D01*
X11842588Y-18083512D02*
X11852111Y-18064464D01*
X11852111Y-18064464D02*
X11852111Y-18054940D01*
X11852111Y-18054940D02*
X11842588Y-18035893D01*
X11842588Y-18035893D02*
X11823540Y-18026369D01*
X11823540Y-18026369D02*
X11794968Y-18026369D01*
X11794968Y-18026369D02*
X11775921Y-18016845D01*
X11775921Y-18016845D02*
X11766397Y-17997798D01*
X11766397Y-17997798D02*
X11766397Y-17988274D01*
X11766397Y-17988274D02*
X11775921Y-17969226D01*
X11775921Y-17969226D02*
X11794968Y-17959702D01*
X11794968Y-17959702D02*
X11823540Y-17959702D01*
X11823540Y-17959702D02*
X11842588Y-17969226D01*
X11918778Y-18169226D02*
X11928302Y-18159702D01*
X11928302Y-18159702D02*
X11947349Y-18131131D01*
X11947349Y-18131131D02*
X11956873Y-18112083D01*
X11956873Y-18112083D02*
X11966397Y-18083512D01*
X11966397Y-18083512D02*
X11975921Y-18035893D01*
X11975921Y-18035893D02*
X11975921Y-17997798D01*
X11975921Y-17997798D02*
X11966397Y-17950179D01*
X11966397Y-17950179D02*
X11956873Y-17921607D01*
X11956873Y-17921607D02*
X11947349Y-17902560D01*
X11947349Y-17902560D02*
X11928302Y-17873988D01*
X11928302Y-17873988D02*
X11918778Y-17864464D01*
D15*
X6893239Y-18205552D02*
X6893239Y-18325552D01*
X6833239Y-18265552D02*
X6953239Y-18265552D01*
X6953239Y-18265552D02*
G75*
G03*
X6833239Y-18265552I-60000J0D01*
G01*
X6833239Y-18265552D02*
G75*
G03*
X6953239Y-18265552I60000J0D01*
G01*
D12*
X7318778Y-18357036D02*
X7204492Y-18357036D01*
X7261635Y-18357036D02*
X7261635Y-18157036D01*
X7261635Y-18157036D02*
X7242587Y-18185607D01*
X7242587Y-18185607D02*
X7223539Y-18204655D01*
X7223539Y-18204655D02*
X7204492Y-18214179D01*
X7404492Y-18337988D02*
X7414016Y-18347512D01*
X7414016Y-18347512D02*
X7404492Y-18357036D01*
X7404492Y-18357036D02*
X7394968Y-18347512D01*
X7394968Y-18347512D02*
X7404492Y-18337988D01*
X7404492Y-18337988D02*
X7404492Y-18357036D01*
X7490206Y-18176083D02*
X7499730Y-18166560D01*
X7499730Y-18166560D02*
X7518778Y-18157036D01*
X7518778Y-18157036D02*
X7566397Y-18157036D01*
X7566397Y-18157036D02*
X7585444Y-18166560D01*
X7585444Y-18166560D02*
X7594968Y-18176083D01*
X7594968Y-18176083D02*
X7604492Y-18195131D01*
X7604492Y-18195131D02*
X7604492Y-18214179D01*
X7604492Y-18214179D02*
X7594968Y-18242750D01*
X7594968Y-18242750D02*
X7480682Y-18357036D01*
X7480682Y-18357036D02*
X7604492Y-18357036D01*
X7728301Y-18157036D02*
X7747349Y-18157036D01*
X7747349Y-18157036D02*
X7766397Y-18166560D01*
X7766397Y-18166560D02*
X7775920Y-18176083D01*
X7775920Y-18176083D02*
X7785444Y-18195131D01*
X7785444Y-18195131D02*
X7794968Y-18233226D01*
X7794968Y-18233226D02*
X7794968Y-18280845D01*
X7794968Y-18280845D02*
X7785444Y-18318940D01*
X7785444Y-18318940D02*
X7775920Y-18337988D01*
X7775920Y-18337988D02*
X7766397Y-18347512D01*
X7766397Y-18347512D02*
X7747349Y-18357036D01*
X7747349Y-18357036D02*
X7728301Y-18357036D01*
X7728301Y-18357036D02*
X7709254Y-18347512D01*
X7709254Y-18347512D02*
X7699730Y-18337988D01*
X7699730Y-18337988D02*
X7690206Y-18318940D01*
X7690206Y-18318940D02*
X7680682Y-18280845D01*
X7680682Y-18280845D02*
X7680682Y-18233226D01*
X7680682Y-18233226D02*
X7690206Y-18195131D01*
X7690206Y-18195131D02*
X7699730Y-18176083D01*
X7699730Y-18176083D02*
X7709254Y-18166560D01*
X7709254Y-18166560D02*
X7728301Y-18157036D01*
X7918778Y-18157036D02*
X7937825Y-18157036D01*
X7937825Y-18157036D02*
X7956873Y-18166560D01*
X7956873Y-18166560D02*
X7966397Y-18176083D01*
X7966397Y-18176083D02*
X7975920Y-18195131D01*
X7975920Y-18195131D02*
X7985444Y-18233226D01*
X7985444Y-18233226D02*
X7985444Y-18280845D01*
X7985444Y-18280845D02*
X7975920Y-18318940D01*
X7975920Y-18318940D02*
X7966397Y-18337988D01*
X7966397Y-18337988D02*
X7956873Y-18347512D01*
X7956873Y-18347512D02*
X7937825Y-18357036D01*
X7937825Y-18357036D02*
X7918778Y-18357036D01*
X7918778Y-18357036D02*
X7899730Y-18347512D01*
X7899730Y-18347512D02*
X7890206Y-18337988D01*
X7890206Y-18337988D02*
X7880682Y-18318940D01*
X7880682Y-18318940D02*
X7871159Y-18280845D01*
X7871159Y-18280845D02*
X7871159Y-18233226D01*
X7871159Y-18233226D02*
X7880682Y-18195131D01*
X7880682Y-18195131D02*
X7890206Y-18176083D01*
X7890206Y-18176083D02*
X7899730Y-18166560D01*
X7899730Y-18166560D02*
X7918778Y-18157036D01*
X8071159Y-18357036D02*
X8071159Y-18223702D01*
X8071159Y-18242750D02*
X8080682Y-18233226D01*
X8080682Y-18233226D02*
X8099730Y-18223702D01*
X8099730Y-18223702D02*
X8128301Y-18223702D01*
X8128301Y-18223702D02*
X8147349Y-18233226D01*
X8147349Y-18233226D02*
X8156873Y-18252274D01*
X8156873Y-18252274D02*
X8156873Y-18357036D01*
X8156873Y-18252274D02*
X8166397Y-18233226D01*
X8166397Y-18233226D02*
X8185444Y-18223702D01*
X8185444Y-18223702D02*
X8214016Y-18223702D01*
X8214016Y-18223702D02*
X8233063Y-18233226D01*
X8233063Y-18233226D02*
X8242587Y-18252274D01*
X8242587Y-18252274D02*
X8242587Y-18357036D01*
X8337825Y-18357036D02*
X8337825Y-18223702D01*
X8337825Y-18242750D02*
X8347349Y-18233226D01*
X8347349Y-18233226D02*
X8366397Y-18223702D01*
X8366397Y-18223702D02*
X8394968Y-18223702D01*
X8394968Y-18223702D02*
X8414016Y-18233226D01*
X8414016Y-18233226D02*
X8423540Y-18252274D01*
X8423540Y-18252274D02*
X8423540Y-18357036D01*
X8423540Y-18252274D02*
X8433063Y-18233226D01*
X8433063Y-18233226D02*
X8452111Y-18223702D01*
X8452111Y-18223702D02*
X8480682Y-18223702D01*
X8480682Y-18223702D02*
X8499730Y-18233226D01*
X8499730Y-18233226D02*
X8509254Y-18252274D01*
X8509254Y-18252274D02*
X8509254Y-18357036D01*
X8899730Y-18147512D02*
X8728302Y-18404655D01*
X9156873Y-18157036D02*
X9175921Y-18157036D01*
X9175921Y-18157036D02*
X9194968Y-18166560D01*
X9194968Y-18166560D02*
X9204492Y-18176083D01*
X9204492Y-18176083D02*
X9214016Y-18195131D01*
X9214016Y-18195131D02*
X9223540Y-18233226D01*
X9223540Y-18233226D02*
X9223540Y-18280845D01*
X9223540Y-18280845D02*
X9214016Y-18318940D01*
X9214016Y-18318940D02*
X9204492Y-18337988D01*
X9204492Y-18337988D02*
X9194968Y-18347512D01*
X9194968Y-18347512D02*
X9175921Y-18357036D01*
X9175921Y-18357036D02*
X9156873Y-18357036D01*
X9156873Y-18357036D02*
X9137825Y-18347512D01*
X9137825Y-18347512D02*
X9128302Y-18337988D01*
X9128302Y-18337988D02*
X9118778Y-18318940D01*
X9118778Y-18318940D02*
X9109254Y-18280845D01*
X9109254Y-18280845D02*
X9109254Y-18233226D01*
X9109254Y-18233226D02*
X9118778Y-18195131D01*
X9118778Y-18195131D02*
X9128302Y-18176083D01*
X9128302Y-18176083D02*
X9137825Y-18166560D01*
X9137825Y-18166560D02*
X9156873Y-18157036D01*
X9309254Y-18337988D02*
X9318778Y-18347512D01*
X9318778Y-18347512D02*
X9309254Y-18357036D01*
X9309254Y-18357036D02*
X9299730Y-18347512D01*
X9299730Y-18347512D02*
X9309254Y-18337988D01*
X9309254Y-18337988D02*
X9309254Y-18357036D01*
X9442587Y-18157036D02*
X9461635Y-18157036D01*
X9461635Y-18157036D02*
X9480683Y-18166560D01*
X9480683Y-18166560D02*
X9490206Y-18176083D01*
X9490206Y-18176083D02*
X9499730Y-18195131D01*
X9499730Y-18195131D02*
X9509254Y-18233226D01*
X9509254Y-18233226D02*
X9509254Y-18280845D01*
X9509254Y-18280845D02*
X9499730Y-18318940D01*
X9499730Y-18318940D02*
X9490206Y-18337988D01*
X9490206Y-18337988D02*
X9480683Y-18347512D01*
X9480683Y-18347512D02*
X9461635Y-18357036D01*
X9461635Y-18357036D02*
X9442587Y-18357036D01*
X9442587Y-18357036D02*
X9423540Y-18347512D01*
X9423540Y-18347512D02*
X9414016Y-18337988D01*
X9414016Y-18337988D02*
X9404492Y-18318940D01*
X9404492Y-18318940D02*
X9394968Y-18280845D01*
X9394968Y-18280845D02*
X9394968Y-18233226D01*
X9394968Y-18233226D02*
X9404492Y-18195131D01*
X9404492Y-18195131D02*
X9414016Y-18176083D01*
X9414016Y-18176083D02*
X9423540Y-18166560D01*
X9423540Y-18166560D02*
X9442587Y-18157036D01*
X9680683Y-18223702D02*
X9680683Y-18357036D01*
X9633064Y-18147512D02*
X9585445Y-18290369D01*
X9585445Y-18290369D02*
X9709254Y-18290369D01*
X9766397Y-18157036D02*
X9899730Y-18157036D01*
X9899730Y-18157036D02*
X9814016Y-18357036D01*
X9966397Y-18176083D02*
X9975921Y-18166560D01*
X9975921Y-18166560D02*
X9994968Y-18157036D01*
X9994968Y-18157036D02*
X10042587Y-18157036D01*
X10042587Y-18157036D02*
X10061635Y-18166560D01*
X10061635Y-18166560D02*
X10071159Y-18176083D01*
X10071159Y-18176083D02*
X10080683Y-18195131D01*
X10080683Y-18195131D02*
X10080683Y-18214179D01*
X10080683Y-18214179D02*
X10071159Y-18242750D01*
X10071159Y-18242750D02*
X9956873Y-18357036D01*
X9956873Y-18357036D02*
X10080683Y-18357036D01*
X10156873Y-18157036D02*
X10156873Y-18195131D01*
X10233064Y-18157036D02*
X10233064Y-18195131D01*
X10528302Y-18433226D02*
X10518778Y-18423702D01*
X10518778Y-18423702D02*
X10499730Y-18395131D01*
X10499730Y-18395131D02*
X10490207Y-18376083D01*
X10490207Y-18376083D02*
X10480683Y-18347512D01*
X10480683Y-18347512D02*
X10471159Y-18299893D01*
X10471159Y-18299893D02*
X10471159Y-18261798D01*
X10471159Y-18261798D02*
X10480683Y-18214179D01*
X10480683Y-18214179D02*
X10490207Y-18185607D01*
X10490207Y-18185607D02*
X10499730Y-18166560D01*
X10499730Y-18166560D02*
X10518778Y-18137988D01*
X10518778Y-18137988D02*
X10528302Y-18128464D01*
X10690207Y-18223702D02*
X10690207Y-18357036D01*
X10642587Y-18147512D02*
X10594968Y-18290369D01*
X10594968Y-18290369D02*
X10718778Y-18290369D01*
X10947349Y-18357036D02*
X10947349Y-18157036D01*
X11033064Y-18357036D02*
X11033064Y-18252274D01*
X11033064Y-18252274D02*
X11023540Y-18233226D01*
X11023540Y-18233226D02*
X11004492Y-18223702D01*
X11004492Y-18223702D02*
X10975921Y-18223702D01*
X10975921Y-18223702D02*
X10956873Y-18233226D01*
X10956873Y-18233226D02*
X10947349Y-18242750D01*
X11156873Y-18357036D02*
X11137826Y-18347512D01*
X11137826Y-18347512D02*
X11128302Y-18337988D01*
X11128302Y-18337988D02*
X11118778Y-18318940D01*
X11118778Y-18318940D02*
X11118778Y-18261798D01*
X11118778Y-18261798D02*
X11128302Y-18242750D01*
X11128302Y-18242750D02*
X11137826Y-18233226D01*
X11137826Y-18233226D02*
X11156873Y-18223702D01*
X11156873Y-18223702D02*
X11185445Y-18223702D01*
X11185445Y-18223702D02*
X11204492Y-18233226D01*
X11204492Y-18233226D02*
X11214016Y-18242750D01*
X11214016Y-18242750D02*
X11223540Y-18261798D01*
X11223540Y-18261798D02*
X11223540Y-18318940D01*
X11223540Y-18318940D02*
X11214016Y-18337988D01*
X11214016Y-18337988D02*
X11204492Y-18347512D01*
X11204492Y-18347512D02*
X11185445Y-18357036D01*
X11185445Y-18357036D02*
X11156873Y-18357036D01*
X11337826Y-18357036D02*
X11318778Y-18347512D01*
X11318778Y-18347512D02*
X11309254Y-18328464D01*
X11309254Y-18328464D02*
X11309254Y-18157036D01*
X11490207Y-18347512D02*
X11471159Y-18357036D01*
X11471159Y-18357036D02*
X11433064Y-18357036D01*
X11433064Y-18357036D02*
X11414016Y-18347512D01*
X11414016Y-18347512D02*
X11404492Y-18328464D01*
X11404492Y-18328464D02*
X11404492Y-18252274D01*
X11404492Y-18252274D02*
X11414016Y-18233226D01*
X11414016Y-18233226D02*
X11433064Y-18223702D01*
X11433064Y-18223702D02*
X11471159Y-18223702D01*
X11471159Y-18223702D02*
X11490207Y-18233226D01*
X11490207Y-18233226D02*
X11499730Y-18252274D01*
X11499730Y-18252274D02*
X11499730Y-18271321D01*
X11499730Y-18271321D02*
X11404492Y-18290369D01*
X11575921Y-18347512D02*
X11594968Y-18357036D01*
X11594968Y-18357036D02*
X11633064Y-18357036D01*
X11633064Y-18357036D02*
X11652111Y-18347512D01*
X11652111Y-18347512D02*
X11661635Y-18328464D01*
X11661635Y-18328464D02*
X11661635Y-18318940D01*
X11661635Y-18318940D02*
X11652111Y-18299893D01*
X11652111Y-18299893D02*
X11633064Y-18290369D01*
X11633064Y-18290369D02*
X11604492Y-18290369D01*
X11604492Y-18290369D02*
X11585445Y-18280845D01*
X11585445Y-18280845D02*
X11575921Y-18261798D01*
X11575921Y-18261798D02*
X11575921Y-18252274D01*
X11575921Y-18252274D02*
X11585445Y-18233226D01*
X11585445Y-18233226D02*
X11604492Y-18223702D01*
X11604492Y-18223702D02*
X11633064Y-18223702D01*
X11633064Y-18223702D02*
X11652111Y-18233226D01*
X11728302Y-18433226D02*
X11737826Y-18423702D01*
X11737826Y-18423702D02*
X11756873Y-18395131D01*
X11756873Y-18395131D02*
X11766397Y-18376083D01*
X11766397Y-18376083D02*
X11775921Y-18347512D01*
X11775921Y-18347512D02*
X11785445Y-18299893D01*
X11785445Y-18299893D02*
X11785445Y-18261798D01*
X11785445Y-18261798D02*
X11775921Y-18214179D01*
X11775921Y-18214179D02*
X11766397Y-18185607D01*
X11766397Y-18185607D02*
X11756873Y-18166560D01*
X11756873Y-18166560D02*
X11737826Y-18137988D01*
X11737826Y-18137988D02*
X11728302Y-18128464D01*
M02*
