M48
; DRILL file {KiCad 7.0.10} date Mon Aug 19 09:52:25 2024
; FORMAT={-:-/ absolute / inch / decimal}
; #@! TF.CreationDate,2024-08-19T09:52:25-07:00
; #@! TF.GenerationSoftware,Kicad,Pcbnew,7.0.10
; #@! TF.FileFunction,Plated,1,4,PTH
FMAT,2
INCH
; #@! TA.AperFunction,Plated,PTH,ViaDrill
T1C0.0118
; #@! TA.AperFunction,Plated,PTH,ComponentDrill
T2C0.0118
; #@! TA.AperFunction,Plated,PTH,ViaDrill
T3C0.0138
; #@! TA.AperFunction,Plated,PTH,ViaDrill
T4C0.0157
; #@! TA.AperFunction,Plated,PTH,ViaDrill
T5C0.0200
; #@! TA.AperFunction,Plated,PTH,ComponentDrill
T6C0.0276
; #@! TA.AperFunction,Plated,PTH,ComponentDrill
T7C0.0394
; #@! TA.AperFunction,Plated,PTH,ComponentDrill
T8C0.0398
; #@! TA.AperFunction,Plated,PTH,ComponentDrill
T9C0.0402
; #@! TA.AperFunction,Plated,PTH,ComponentDrill
T10C0.0472
%
G90
G05
T1
X3.1256Y-2.926
X3.1531Y-2.9622
X3.3618Y-3.0846
X3.3724Y-3.0429
X3.3894Y-3.4681
X3.3942Y-4.4549
X3.3942Y-4.4549
X3.3942Y-4.4549
X3.3942Y-4.4549
X3.417Y-4.5993
X3.42Y-3.935
X3.4272Y-4.5461
X3.4878Y-3.0713
X3.6443Y-4.3426
X3.6448Y-4.4028
X4.2047Y-2.3937
X4.8725Y-5.8075
T2
X5.7206Y-2.2544
X5.7513Y-2.2238
X5.7513Y-2.285
X5.7819Y-2.1931
X5.7819Y-2.2544
X5.7819Y-2.3156
X5.8125Y-2.2238
X5.8125Y-2.285
X5.8125Y-2.3462
X5.8431Y-2.2544
X5.8431Y-2.3156
X5.8431Y-2.3769
X5.8737Y-2.285
X5.8737Y-2.3462
X5.9044Y-2.3156
T3
X3.075Y-2.7675
X3.1375Y-2.6575
X3.23Y-4.225
X3.2325Y-4.0
X3.2454Y-3.8305
X3.285Y-2.69
X3.285Y-4.6775
X3.302Y-4.548
X3.3025Y-3.905
X3.305Y-4.37
X3.3066Y-3.1713
X3.3194Y-4.3337
X3.3263Y-3.5145
X3.354Y-2.662
X3.374Y-2.778
X3.3765Y-3.179
X3.428Y-3.162
X3.4401Y-3.3204
X3.455Y-4.6325
X3.456Y-2.402
X3.4579Y-4.3689
X3.462Y-2.648
X3.4825Y-4.015
X3.5374Y-3.1774
X3.5403Y-3.0761
X3.5623Y-3.2463
X3.584Y-3.28
X3.5875Y-3.8125
X3.59Y-4.6025
X3.5975Y-3.45
X3.604Y-3.06
X3.6077Y-2.811
X3.634Y-3.088
X3.6443Y-3.65
X3.6445Y-2.8404
X3.6675Y-3.205
X3.6704Y-3.1147
X3.695Y-3.1425
X3.7047Y-2.932
X3.7175Y-4.6784
X3.718Y-2.31
X3.72Y-3.8625
X3.738Y-2.904
X3.776Y-3.444
X3.7795Y-2.874
X3.8189Y-2.5197
X3.82Y-2.846
X3.825Y-3.3675
X3.882Y-3.098
X3.946Y-3.1
X3.9552Y-3.1351
X4.0082Y-3.0623
X4.0383Y-2.9926
X4.04Y-2.218
X4.104Y-2.192
X4.5079Y-2.3228
X4.5669Y-2.6181
X4.59Y-5.175
X4.6025Y-5.7875
X4.655Y-5.175
X4.685Y-5.605
X4.6925Y-5.6675
X4.695Y-5.8375
X4.72Y-5.5625
X4.75Y-5.782
X4.778Y-2.548
X4.78Y-5.7575
X4.8Y-5.305
X4.83Y-5.9275
X4.92Y-5.8875
X4.986Y-2.552
X5.05Y-5.5725
X5.0625Y-5.6275
X5.065Y-5.6825
X5.0925Y-5.17
X5.1525Y-5.17
X5.1675Y-5.835
X5.2623Y-2.4842
X5.2625Y-5.6525
X5.3144Y-2.452
X5.474Y-2.42
X5.5544Y-2.3962
X5.592Y-2.258
X5.664Y-2.176
X5.6877Y-2.4177
X5.7875Y-2.575
X5.8625Y-5.66
X5.885Y-5.395
X5.946Y-2.168
X5.955Y-5.595
X6.0275Y-5.27
X6.125Y-5.4525
T4
X3.1425Y-3.0908
X3.15Y-3.1898
X3.1804Y-3.0744
X3.539Y-4.1063
X3.5425Y-3.57
X3.6862Y-3.5016
X3.735Y-3.475
X3.8599Y-3.2172
X4.552Y-5.3
X5.098Y-2.354
X5.12Y-5.3525
X5.2425Y-5.385
X5.2525Y-5.52
X5.455Y-5.56
X5.528Y-2.352
X5.5375Y-5.56
X5.65Y-5.56
X6.192Y-2.41
T5
X2.81Y-3.4225
X3.075Y-3.5425
X3.1775Y-3.4225
X4.7899Y-5.2251
X4.805Y-5.4875
X4.935Y-5.485
X4.9499Y-5.2251
X6.03Y-2.23
T6
X2.9906Y-3.0193
X2.9906Y-3.0693
X2.9906Y-3.1193
X2.9906Y-3.1693
X2.9906Y-3.2193
X3.0406Y-3.0193
X3.0406Y-3.0693
X3.0406Y-3.1193
X3.0406Y-3.1693
X3.0406Y-3.2193
T7
X2.921Y-4.477
X3.032Y-4.4366
X3.068Y-4.798
X3.1703Y-4.7389
X3.258Y-5.101
X3.3485Y-5.0251
X3.533Y-5.361
X3.6089Y-5.2705
X3.9182Y-2.083
X4.0121Y-2.0488
X4.0625Y-5.545
X4.1061Y-2.0146
X4.2001Y-1.9804
X4.292Y-5.793
X4.294Y-1.9462
X4.3226Y-5.6789
X4.388Y-1.912
X5.0875Y-5.8975
X5.8675Y-5.105
X6.03Y-2.5744
X6.03Y-2.6925
X6.1225Y-5.1025
X6.3575Y-5.095
T8
X3.845Y-5.5375
X3.8922Y-5.3367
X4.6612Y-2.2848
X4.862Y-2.332
T9
X3.885Y-4.9024
X3.9685Y-4.8189
X3.9685Y-4.9859
X4.052Y-4.9024
X4.2078Y-5.241
X4.2913Y-5.1575
X4.702Y-1.92
X4.702Y-2.0381
X4.8201Y-1.92
X4.8201Y-2.0381
T10
X3.5125Y-2.5275
X3.5125Y-4.7275
X5.1728Y-2.1551
X5.3697Y-2.1551
M30
