G04 #@! TF.GenerationSoftware,KiCad,Pcbnew,7.0.10*
G04 #@! TF.CreationDate,2024-08-19T09:51:56-07:00*
G04 #@! TF.ProjectId,LCP_PowerControl,4c43505f-506f-4776-9572-436f6e74726f,rev?*
G04 #@! TF.SameCoordinates,Original*
G04 #@! TF.FileFunction,Legend,Bot*
G04 #@! TF.FilePolarity,Positive*
%FSLAX46Y46*%
G04 Gerber Fmt 4.6, Leading zero omitted, Abs format (unit mm)*
G04 Created by KiCad (PCBNEW 7.0.10) date 2024-08-19 09:51:56*
%MOMM*%
%LPD*%
G01*
G04 APERTURE LIST*
%ADD10C,0.150000*%
%ADD11C,0.300000*%
%ADD12C,0.120000*%
G04 APERTURE END LIST*
D10*
X88502857Y-91179580D02*
X88550476Y-91227200D01*
X88550476Y-91227200D02*
X88693333Y-91274819D01*
X88693333Y-91274819D02*
X88788571Y-91274819D01*
X88788571Y-91274819D02*
X88931428Y-91227200D01*
X88931428Y-91227200D02*
X89026666Y-91131961D01*
X89026666Y-91131961D02*
X89074285Y-91036723D01*
X89074285Y-91036723D02*
X89121904Y-90846247D01*
X89121904Y-90846247D02*
X89121904Y-90703390D01*
X89121904Y-90703390D02*
X89074285Y-90512914D01*
X89074285Y-90512914D02*
X89026666Y-90417676D01*
X89026666Y-90417676D02*
X88931428Y-90322438D01*
X88931428Y-90322438D02*
X88788571Y-90274819D01*
X88788571Y-90274819D02*
X88693333Y-90274819D01*
X88693333Y-90274819D02*
X88550476Y-90322438D01*
X88550476Y-90322438D02*
X88502857Y-90370057D01*
X87550476Y-91274819D02*
X88121904Y-91274819D01*
X87836190Y-91274819D02*
X87836190Y-90274819D01*
X87836190Y-90274819D02*
X87931428Y-90417676D01*
X87931428Y-90417676D02*
X88026666Y-90512914D01*
X88026666Y-90512914D02*
X88121904Y-90560533D01*
X86598095Y-91274819D02*
X87169523Y-91274819D01*
X86883809Y-91274819D02*
X86883809Y-90274819D01*
X86883809Y-90274819D02*
X86979047Y-90417676D01*
X86979047Y-90417676D02*
X87074285Y-90512914D01*
X87074285Y-90512914D02*
X87169523Y-90560533D01*
X95250306Y-69468830D02*
X95250306Y-69536174D01*
X95250306Y-69536174D02*
X95317650Y-69670861D01*
X95317650Y-69670861D02*
X95384993Y-69738204D01*
X95384993Y-69738204D02*
X95519680Y-69805548D01*
X95519680Y-69805548D02*
X95654367Y-69805548D01*
X95654367Y-69805548D02*
X95755382Y-69771876D01*
X95755382Y-69771876D02*
X95923741Y-69670861D01*
X95923741Y-69670861D02*
X96024756Y-69569846D01*
X96024756Y-69569846D02*
X96125772Y-69401487D01*
X96125772Y-69401487D02*
X96159443Y-69300472D01*
X96159443Y-69300472D02*
X96159443Y-69165785D01*
X96159443Y-69165785D02*
X96092100Y-69031098D01*
X96092100Y-69031098D02*
X96024756Y-68963754D01*
X96024756Y-68963754D02*
X95890069Y-68896411D01*
X95890069Y-68896411D02*
X95822726Y-68896411D01*
X94509528Y-68862739D02*
X94913589Y-69266800D01*
X94711558Y-69064769D02*
X95418665Y-68357663D01*
X95418665Y-68357663D02*
X95384993Y-68526021D01*
X95384993Y-68526021D02*
X95384993Y-68660708D01*
X95384993Y-68660708D02*
X95418665Y-68761724D01*
X94778901Y-67717899D02*
X94711558Y-67650556D01*
X94711558Y-67650556D02*
X94610543Y-67616884D01*
X94610543Y-67616884D02*
X94543199Y-67616884D01*
X94543199Y-67616884D02*
X94442184Y-67650556D01*
X94442184Y-67650556D02*
X94273825Y-67751571D01*
X94273825Y-67751571D02*
X94105466Y-67919930D01*
X94105466Y-67919930D02*
X94004451Y-68088288D01*
X94004451Y-68088288D02*
X93970779Y-68189304D01*
X93970779Y-68189304D02*
X93970779Y-68256647D01*
X93970779Y-68256647D02*
X94004451Y-68357662D01*
X94004451Y-68357662D02*
X94071795Y-68425006D01*
X94071795Y-68425006D02*
X94172810Y-68458678D01*
X94172810Y-68458678D02*
X94240153Y-68458678D01*
X94240153Y-68458678D02*
X94341169Y-68425006D01*
X94341169Y-68425006D02*
X94509527Y-68323991D01*
X94509527Y-68323991D02*
X94677886Y-68155632D01*
X94677886Y-68155632D02*
X94778901Y-67987273D01*
X94778901Y-67987273D02*
X94812573Y-67886258D01*
X94812573Y-67886258D02*
X94812573Y-67818914D01*
X94812573Y-67818914D02*
X94778901Y-67717899D01*
X85246380Y-120534133D02*
X85294000Y-120486514D01*
X85294000Y-120486514D02*
X85341619Y-120343657D01*
X85341619Y-120343657D02*
X85341619Y-120248419D01*
X85341619Y-120248419D02*
X85294000Y-120105562D01*
X85294000Y-120105562D02*
X85198761Y-120010324D01*
X85198761Y-120010324D02*
X85103523Y-119962705D01*
X85103523Y-119962705D02*
X84913047Y-119915086D01*
X84913047Y-119915086D02*
X84770190Y-119915086D01*
X84770190Y-119915086D02*
X84579714Y-119962705D01*
X84579714Y-119962705D02*
X84484476Y-120010324D01*
X84484476Y-120010324D02*
X84389238Y-120105562D01*
X84389238Y-120105562D02*
X84341619Y-120248419D01*
X84341619Y-120248419D02*
X84341619Y-120343657D01*
X84341619Y-120343657D02*
X84389238Y-120486514D01*
X84389238Y-120486514D02*
X84436857Y-120534133D01*
X85341619Y-121486514D02*
X85341619Y-120915086D01*
X85341619Y-121200800D02*
X84341619Y-121200800D01*
X84341619Y-121200800D02*
X84484476Y-121105562D01*
X84484476Y-121105562D02*
X84579714Y-121010324D01*
X84579714Y-121010324D02*
X84627333Y-120915086D01*
X87278380Y-120534133D02*
X87326000Y-120486514D01*
X87326000Y-120486514D02*
X87373619Y-120343657D01*
X87373619Y-120343657D02*
X87373619Y-120248419D01*
X87373619Y-120248419D02*
X87326000Y-120105562D01*
X87326000Y-120105562D02*
X87230761Y-120010324D01*
X87230761Y-120010324D02*
X87135523Y-119962705D01*
X87135523Y-119962705D02*
X86945047Y-119915086D01*
X86945047Y-119915086D02*
X86802190Y-119915086D01*
X86802190Y-119915086D02*
X86611714Y-119962705D01*
X86611714Y-119962705D02*
X86516476Y-120010324D01*
X86516476Y-120010324D02*
X86421238Y-120105562D01*
X86421238Y-120105562D02*
X86373619Y-120248419D01*
X86373619Y-120248419D02*
X86373619Y-120343657D01*
X86373619Y-120343657D02*
X86421238Y-120486514D01*
X86421238Y-120486514D02*
X86468857Y-120534133D01*
X86468857Y-120915086D02*
X86421238Y-120962705D01*
X86421238Y-120962705D02*
X86373619Y-121057943D01*
X86373619Y-121057943D02*
X86373619Y-121296038D01*
X86373619Y-121296038D02*
X86421238Y-121391276D01*
X86421238Y-121391276D02*
X86468857Y-121438895D01*
X86468857Y-121438895D02*
X86564095Y-121486514D01*
X86564095Y-121486514D02*
X86659333Y-121486514D01*
X86659333Y-121486514D02*
X86802190Y-121438895D01*
X86802190Y-121438895D02*
X87373619Y-120867467D01*
X87373619Y-120867467D02*
X87373619Y-121486514D01*
X92775066Y-115827980D02*
X92822685Y-115875600D01*
X92822685Y-115875600D02*
X92965542Y-115923219D01*
X92965542Y-115923219D02*
X93060780Y-115923219D01*
X93060780Y-115923219D02*
X93203637Y-115875600D01*
X93203637Y-115875600D02*
X93298875Y-115780361D01*
X93298875Y-115780361D02*
X93346494Y-115685123D01*
X93346494Y-115685123D02*
X93394113Y-115494647D01*
X93394113Y-115494647D02*
X93394113Y-115351790D01*
X93394113Y-115351790D02*
X93346494Y-115161314D01*
X93346494Y-115161314D02*
X93298875Y-115066076D01*
X93298875Y-115066076D02*
X93203637Y-114970838D01*
X93203637Y-114970838D02*
X93060780Y-114923219D01*
X93060780Y-114923219D02*
X92965542Y-114923219D01*
X92965542Y-114923219D02*
X92822685Y-114970838D01*
X92822685Y-114970838D02*
X92775066Y-115018457D01*
X92441732Y-114923219D02*
X91822685Y-114923219D01*
X91822685Y-114923219D02*
X92156018Y-115304171D01*
X92156018Y-115304171D02*
X92013161Y-115304171D01*
X92013161Y-115304171D02*
X91917923Y-115351790D01*
X91917923Y-115351790D02*
X91870304Y-115399409D01*
X91870304Y-115399409D02*
X91822685Y-115494647D01*
X91822685Y-115494647D02*
X91822685Y-115732742D01*
X91822685Y-115732742D02*
X91870304Y-115827980D01*
X91870304Y-115827980D02*
X91917923Y-115875600D01*
X91917923Y-115875600D02*
X92013161Y-115923219D01*
X92013161Y-115923219D02*
X92298875Y-115923219D01*
X92298875Y-115923219D02*
X92394113Y-115875600D01*
X92394113Y-115875600D02*
X92441732Y-115827980D01*
X92339330Y-90795193D02*
X92406674Y-90795193D01*
X92406674Y-90795193D02*
X92541361Y-90727849D01*
X92541361Y-90727849D02*
X92608704Y-90660506D01*
X92608704Y-90660506D02*
X92676048Y-90525819D01*
X92676048Y-90525819D02*
X92676048Y-90391132D01*
X92676048Y-90391132D02*
X92642376Y-90290117D01*
X92642376Y-90290117D02*
X92541361Y-90121758D01*
X92541361Y-90121758D02*
X92440346Y-90020743D01*
X92440346Y-90020743D02*
X92271987Y-89919727D01*
X92271987Y-89919727D02*
X92170972Y-89886056D01*
X92170972Y-89886056D02*
X92036285Y-89886056D01*
X92036285Y-89886056D02*
X91901598Y-89953399D01*
X91901598Y-89953399D02*
X91834254Y-90020743D01*
X91834254Y-90020743D02*
X91766911Y-90155430D01*
X91766911Y-90155430D02*
X91766911Y-90222773D01*
X91733239Y-91535971D02*
X92137300Y-91131910D01*
X91935269Y-91333941D02*
X91228163Y-90626834D01*
X91228163Y-90626834D02*
X91396521Y-90660506D01*
X91396521Y-90660506D02*
X91531208Y-90660506D01*
X91531208Y-90660506D02*
X91632224Y-90626834D01*
X90655743Y-91670659D02*
X91127147Y-92142063D01*
X90554727Y-91232926D02*
X91228162Y-91569643D01*
X91228162Y-91569643D02*
X90790430Y-92007376D01*
X138027580Y-138345942D02*
X138075200Y-138298323D01*
X138075200Y-138298323D02*
X138122819Y-138155466D01*
X138122819Y-138155466D02*
X138122819Y-138060228D01*
X138122819Y-138060228D02*
X138075200Y-137917371D01*
X138075200Y-137917371D02*
X137979961Y-137822133D01*
X137979961Y-137822133D02*
X137884723Y-137774514D01*
X137884723Y-137774514D02*
X137694247Y-137726895D01*
X137694247Y-137726895D02*
X137551390Y-137726895D01*
X137551390Y-137726895D02*
X137360914Y-137774514D01*
X137360914Y-137774514D02*
X137265676Y-137822133D01*
X137265676Y-137822133D02*
X137170438Y-137917371D01*
X137170438Y-137917371D02*
X137122819Y-138060228D01*
X137122819Y-138060228D02*
X137122819Y-138155466D01*
X137122819Y-138155466D02*
X137170438Y-138298323D01*
X137170438Y-138298323D02*
X137218057Y-138345942D01*
X137218057Y-138726895D02*
X137170438Y-138774514D01*
X137170438Y-138774514D02*
X137122819Y-138869752D01*
X137122819Y-138869752D02*
X137122819Y-139107847D01*
X137122819Y-139107847D02*
X137170438Y-139203085D01*
X137170438Y-139203085D02*
X137218057Y-139250704D01*
X137218057Y-139250704D02*
X137313295Y-139298323D01*
X137313295Y-139298323D02*
X137408533Y-139298323D01*
X137408533Y-139298323D02*
X137551390Y-139250704D01*
X137551390Y-139250704D02*
X138122819Y-138679276D01*
X138122819Y-138679276D02*
X138122819Y-139298323D01*
X137551390Y-139869752D02*
X137503771Y-139774514D01*
X137503771Y-139774514D02*
X137456152Y-139726895D01*
X137456152Y-139726895D02*
X137360914Y-139679276D01*
X137360914Y-139679276D02*
X137313295Y-139679276D01*
X137313295Y-139679276D02*
X137218057Y-139726895D01*
X137218057Y-139726895D02*
X137170438Y-139774514D01*
X137170438Y-139774514D02*
X137122819Y-139869752D01*
X137122819Y-139869752D02*
X137122819Y-140060228D01*
X137122819Y-140060228D02*
X137170438Y-140155466D01*
X137170438Y-140155466D02*
X137218057Y-140203085D01*
X137218057Y-140203085D02*
X137313295Y-140250704D01*
X137313295Y-140250704D02*
X137360914Y-140250704D01*
X137360914Y-140250704D02*
X137456152Y-140203085D01*
X137456152Y-140203085D02*
X137503771Y-140155466D01*
X137503771Y-140155466D02*
X137551390Y-140060228D01*
X137551390Y-140060228D02*
X137551390Y-139869752D01*
X137551390Y-139869752D02*
X137599009Y-139774514D01*
X137599009Y-139774514D02*
X137646628Y-139726895D01*
X137646628Y-139726895D02*
X137741866Y-139679276D01*
X137741866Y-139679276D02*
X137932342Y-139679276D01*
X137932342Y-139679276D02*
X138027580Y-139726895D01*
X138027580Y-139726895D02*
X138075200Y-139774514D01*
X138075200Y-139774514D02*
X138122819Y-139869752D01*
X138122819Y-139869752D02*
X138122819Y-140060228D01*
X138122819Y-140060228D02*
X138075200Y-140155466D01*
X138075200Y-140155466D02*
X138027580Y-140203085D01*
X138027580Y-140203085D02*
X137932342Y-140250704D01*
X137932342Y-140250704D02*
X137741866Y-140250704D01*
X137741866Y-140250704D02*
X137646628Y-140203085D01*
X137646628Y-140203085D02*
X137599009Y-140155466D01*
X137599009Y-140155466D02*
X137551390Y-140060228D01*
X120704780Y-148556742D02*
X120752400Y-148509123D01*
X120752400Y-148509123D02*
X120800019Y-148366266D01*
X120800019Y-148366266D02*
X120800019Y-148271028D01*
X120800019Y-148271028D02*
X120752400Y-148128171D01*
X120752400Y-148128171D02*
X120657161Y-148032933D01*
X120657161Y-148032933D02*
X120561923Y-147985314D01*
X120561923Y-147985314D02*
X120371447Y-147937695D01*
X120371447Y-147937695D02*
X120228590Y-147937695D01*
X120228590Y-147937695D02*
X120038114Y-147985314D01*
X120038114Y-147985314D02*
X119942876Y-148032933D01*
X119942876Y-148032933D02*
X119847638Y-148128171D01*
X119847638Y-148128171D02*
X119800019Y-148271028D01*
X119800019Y-148271028D02*
X119800019Y-148366266D01*
X119800019Y-148366266D02*
X119847638Y-148509123D01*
X119847638Y-148509123D02*
X119895257Y-148556742D01*
X119800019Y-148890076D02*
X119800019Y-149509123D01*
X119800019Y-149509123D02*
X120180971Y-149175790D01*
X120180971Y-149175790D02*
X120180971Y-149318647D01*
X120180971Y-149318647D02*
X120228590Y-149413885D01*
X120228590Y-149413885D02*
X120276209Y-149461504D01*
X120276209Y-149461504D02*
X120371447Y-149509123D01*
X120371447Y-149509123D02*
X120609542Y-149509123D01*
X120609542Y-149509123D02*
X120704780Y-149461504D01*
X120704780Y-149461504D02*
X120752400Y-149413885D01*
X120752400Y-149413885D02*
X120800019Y-149318647D01*
X120800019Y-149318647D02*
X120800019Y-149032933D01*
X120800019Y-149032933D02*
X120752400Y-148937695D01*
X120752400Y-148937695D02*
X120704780Y-148890076D01*
X119800019Y-150128171D02*
X119800019Y-150223409D01*
X119800019Y-150223409D02*
X119847638Y-150318647D01*
X119847638Y-150318647D02*
X119895257Y-150366266D01*
X119895257Y-150366266D02*
X119990495Y-150413885D01*
X119990495Y-150413885D02*
X120180971Y-150461504D01*
X120180971Y-150461504D02*
X120419066Y-150461504D01*
X120419066Y-150461504D02*
X120609542Y-150413885D01*
X120609542Y-150413885D02*
X120704780Y-150366266D01*
X120704780Y-150366266D02*
X120752400Y-150318647D01*
X120752400Y-150318647D02*
X120800019Y-150223409D01*
X120800019Y-150223409D02*
X120800019Y-150128171D01*
X120800019Y-150128171D02*
X120752400Y-150032933D01*
X120752400Y-150032933D02*
X120704780Y-149985314D01*
X120704780Y-149985314D02*
X120609542Y-149937695D01*
X120609542Y-149937695D02*
X120419066Y-149890076D01*
X120419066Y-149890076D02*
X120180971Y-149890076D01*
X120180971Y-149890076D02*
X119990495Y-149937695D01*
X119990495Y-149937695D02*
X119895257Y-149985314D01*
X119895257Y-149985314D02*
X119847638Y-150032933D01*
X119847638Y-150032933D02*
X119800019Y-150128171D01*
X80214000Y-111779085D02*
X80261619Y-111683847D01*
X80261619Y-111683847D02*
X80261619Y-111493371D01*
X80261619Y-111493371D02*
X80214000Y-111398133D01*
X80214000Y-111398133D02*
X80118761Y-111350514D01*
X80118761Y-111350514D02*
X79737809Y-111350514D01*
X79737809Y-111350514D02*
X79642571Y-111398133D01*
X79642571Y-111398133D02*
X79594952Y-111493371D01*
X79594952Y-111493371D02*
X79594952Y-111683847D01*
X79594952Y-111683847D02*
X79642571Y-111779085D01*
X79642571Y-111779085D02*
X79737809Y-111826704D01*
X79737809Y-111826704D02*
X79833047Y-111826704D01*
X79833047Y-111826704D02*
X79928285Y-111350514D01*
X80261619Y-112779085D02*
X80261619Y-112207657D01*
X80261619Y-112493371D02*
X79261619Y-112493371D01*
X79261619Y-112493371D02*
X79404476Y-112398133D01*
X79404476Y-112398133D02*
X79499714Y-112302895D01*
X79499714Y-112302895D02*
X79547333Y-112207657D01*
X81934038Y-118456857D02*
X82029276Y-118409238D01*
X82029276Y-118409238D02*
X82124514Y-118314000D01*
X82124514Y-118314000D02*
X82267371Y-118171142D01*
X82267371Y-118171142D02*
X82362609Y-118123523D01*
X82362609Y-118123523D02*
X82457847Y-118123523D01*
X82410228Y-118361619D02*
X82505466Y-118314000D01*
X82505466Y-118314000D02*
X82600704Y-118218761D01*
X82600704Y-118218761D02*
X82648323Y-118028285D01*
X82648323Y-118028285D02*
X82648323Y-117694952D01*
X82648323Y-117694952D02*
X82600704Y-117504476D01*
X82600704Y-117504476D02*
X82505466Y-117409238D01*
X82505466Y-117409238D02*
X82410228Y-117361619D01*
X82410228Y-117361619D02*
X82219752Y-117361619D01*
X82219752Y-117361619D02*
X82124514Y-117409238D01*
X82124514Y-117409238D02*
X82029276Y-117504476D01*
X82029276Y-117504476D02*
X81981657Y-117694952D01*
X81981657Y-117694952D02*
X81981657Y-118028285D01*
X81981657Y-118028285D02*
X82029276Y-118218761D01*
X82029276Y-118218761D02*
X82124514Y-118314000D01*
X82124514Y-118314000D02*
X82219752Y-118361619D01*
X82219752Y-118361619D02*
X82410228Y-118361619D01*
X81600704Y-117456857D02*
X81553085Y-117409238D01*
X81553085Y-117409238D02*
X81457847Y-117361619D01*
X81457847Y-117361619D02*
X81219752Y-117361619D01*
X81219752Y-117361619D02*
X81124514Y-117409238D01*
X81124514Y-117409238D02*
X81076895Y-117456857D01*
X81076895Y-117456857D02*
X81029276Y-117552095D01*
X81029276Y-117552095D02*
X81029276Y-117647333D01*
X81029276Y-117647333D02*
X81076895Y-117790190D01*
X81076895Y-117790190D02*
X81648323Y-118361619D01*
X81648323Y-118361619D02*
X81029276Y-118361619D01*
X79871866Y-108709619D02*
X80205199Y-108233428D01*
X80443294Y-108709619D02*
X80443294Y-107709619D01*
X80443294Y-107709619D02*
X80062342Y-107709619D01*
X80062342Y-107709619D02*
X79967104Y-107757238D01*
X79967104Y-107757238D02*
X79919485Y-107804857D01*
X79919485Y-107804857D02*
X79871866Y-107900095D01*
X79871866Y-107900095D02*
X79871866Y-108042952D01*
X79871866Y-108042952D02*
X79919485Y-108138190D01*
X79919485Y-108138190D02*
X79967104Y-108185809D01*
X79967104Y-108185809D02*
X80062342Y-108233428D01*
X80062342Y-108233428D02*
X80443294Y-108233428D01*
X79538532Y-107709619D02*
X78919485Y-107709619D01*
X78919485Y-107709619D02*
X79252818Y-108090571D01*
X79252818Y-108090571D02*
X79109961Y-108090571D01*
X79109961Y-108090571D02*
X79014723Y-108138190D01*
X79014723Y-108138190D02*
X78967104Y-108185809D01*
X78967104Y-108185809D02*
X78919485Y-108281047D01*
X78919485Y-108281047D02*
X78919485Y-108519142D01*
X78919485Y-108519142D02*
X78967104Y-108614380D01*
X78967104Y-108614380D02*
X79014723Y-108662000D01*
X79014723Y-108662000D02*
X79109961Y-108709619D01*
X79109961Y-108709619D02*
X79395675Y-108709619D01*
X79395675Y-108709619D02*
X79490913Y-108662000D01*
X79490913Y-108662000D02*
X79538532Y-108614380D01*
X125144419Y-66565542D02*
X124668228Y-66232209D01*
X125144419Y-65994114D02*
X124144419Y-65994114D01*
X124144419Y-65994114D02*
X124144419Y-66375066D01*
X124144419Y-66375066D02*
X124192038Y-66470304D01*
X124192038Y-66470304D02*
X124239657Y-66517923D01*
X124239657Y-66517923D02*
X124334895Y-66565542D01*
X124334895Y-66565542D02*
X124477752Y-66565542D01*
X124477752Y-66565542D02*
X124572990Y-66517923D01*
X124572990Y-66517923D02*
X124620609Y-66470304D01*
X124620609Y-66470304D02*
X124668228Y-66375066D01*
X124668228Y-66375066D02*
X124668228Y-65994114D01*
X125144419Y-67517923D02*
X125144419Y-66946495D01*
X125144419Y-67232209D02*
X124144419Y-67232209D01*
X124144419Y-67232209D02*
X124287276Y-67136971D01*
X124287276Y-67136971D02*
X124382514Y-67041733D01*
X124382514Y-67041733D02*
X124430133Y-66946495D01*
X124144419Y-68136971D02*
X124144419Y-68232209D01*
X124144419Y-68232209D02*
X124192038Y-68327447D01*
X124192038Y-68327447D02*
X124239657Y-68375066D01*
X124239657Y-68375066D02*
X124334895Y-68422685D01*
X124334895Y-68422685D02*
X124525371Y-68470304D01*
X124525371Y-68470304D02*
X124763466Y-68470304D01*
X124763466Y-68470304D02*
X124953942Y-68422685D01*
X124953942Y-68422685D02*
X125049180Y-68375066D01*
X125049180Y-68375066D02*
X125096800Y-68327447D01*
X125096800Y-68327447D02*
X125144419Y-68232209D01*
X125144419Y-68232209D02*
X125144419Y-68136971D01*
X125144419Y-68136971D02*
X125096800Y-68041733D01*
X125096800Y-68041733D02*
X125049180Y-67994114D01*
X125049180Y-67994114D02*
X124953942Y-67946495D01*
X124953942Y-67946495D02*
X124763466Y-67898876D01*
X124763466Y-67898876D02*
X124525371Y-67898876D01*
X124525371Y-67898876D02*
X124334895Y-67946495D01*
X124334895Y-67946495D02*
X124239657Y-67994114D01*
X124239657Y-67994114D02*
X124192038Y-68041733D01*
X124192038Y-68041733D02*
X124144419Y-68136971D01*
X144354163Y-59094574D02*
X144926582Y-58993559D01*
X144758224Y-59498635D02*
X145465330Y-58791528D01*
X145465330Y-58791528D02*
X145195956Y-58522154D01*
X145195956Y-58522154D02*
X145094941Y-58488482D01*
X145094941Y-58488482D02*
X145027598Y-58488482D01*
X145027598Y-58488482D02*
X144926582Y-58522154D01*
X144926582Y-58522154D02*
X144825567Y-58623169D01*
X144825567Y-58623169D02*
X144791895Y-58724185D01*
X144791895Y-58724185D02*
X144791895Y-58791528D01*
X144791895Y-58791528D02*
X144825567Y-58892543D01*
X144825567Y-58892543D02*
X145094941Y-59161917D01*
X143680728Y-58421139D02*
X144084789Y-58825200D01*
X143882758Y-58623169D02*
X144589865Y-57916063D01*
X144589865Y-57916063D02*
X144556193Y-58084421D01*
X144556193Y-58084421D02*
X144556193Y-58219108D01*
X144556193Y-58219108D02*
X144589865Y-58320124D01*
X143007292Y-57747704D02*
X143411353Y-58151765D01*
X143209323Y-57949734D02*
X143916430Y-57242627D01*
X143916430Y-57242627D02*
X143882758Y-57410986D01*
X143882758Y-57410986D02*
X143882758Y-57545673D01*
X143882758Y-57545673D02*
X143916430Y-57646688D01*
X86540409Y-64428916D02*
X87112828Y-64327901D01*
X86944470Y-64832977D02*
X87651576Y-64125870D01*
X87651576Y-64125870D02*
X87382202Y-63856496D01*
X87382202Y-63856496D02*
X87281187Y-63822824D01*
X87281187Y-63822824D02*
X87213844Y-63822824D01*
X87213844Y-63822824D02*
X87112828Y-63856496D01*
X87112828Y-63856496D02*
X87011813Y-63957511D01*
X87011813Y-63957511D02*
X86978141Y-64058527D01*
X86978141Y-64058527D02*
X86978141Y-64125870D01*
X86978141Y-64125870D02*
X87011813Y-64226885D01*
X87011813Y-64226885D02*
X87281187Y-64496259D01*
X85866974Y-63755481D02*
X86271035Y-64159542D01*
X86069004Y-63957511D02*
X86776111Y-63250405D01*
X86776111Y-63250405D02*
X86742439Y-63418763D01*
X86742439Y-63418763D02*
X86742439Y-63553450D01*
X86742439Y-63553450D02*
X86776111Y-63654466D01*
X86338378Y-62812672D02*
X85900645Y-62374939D01*
X85900645Y-62374939D02*
X85866973Y-62880015D01*
X85866973Y-62880015D02*
X85765958Y-62779000D01*
X85765958Y-62779000D02*
X85664943Y-62745328D01*
X85664943Y-62745328D02*
X85597599Y-62745328D01*
X85597599Y-62745328D02*
X85496584Y-62779000D01*
X85496584Y-62779000D02*
X85328225Y-62947359D01*
X85328225Y-62947359D02*
X85294554Y-63048374D01*
X85294554Y-63048374D02*
X85294554Y-63115717D01*
X85294554Y-63115717D02*
X85328225Y-63216733D01*
X85328225Y-63216733D02*
X85530256Y-63418763D01*
X85530256Y-63418763D02*
X85631271Y-63452435D01*
X85631271Y-63452435D02*
X85698615Y-63452435D01*
X151940419Y-136720342D02*
X151464228Y-136387009D01*
X151940419Y-136148914D02*
X150940419Y-136148914D01*
X150940419Y-136148914D02*
X150940419Y-136529866D01*
X150940419Y-136529866D02*
X150988038Y-136625104D01*
X150988038Y-136625104D02*
X151035657Y-136672723D01*
X151035657Y-136672723D02*
X151130895Y-136720342D01*
X151130895Y-136720342D02*
X151273752Y-136720342D01*
X151273752Y-136720342D02*
X151368990Y-136672723D01*
X151368990Y-136672723D02*
X151416609Y-136625104D01*
X151416609Y-136625104D02*
X151464228Y-136529866D01*
X151464228Y-136529866D02*
X151464228Y-136148914D01*
X151940419Y-137672723D02*
X151940419Y-137101295D01*
X151940419Y-137387009D02*
X150940419Y-137387009D01*
X150940419Y-137387009D02*
X151083276Y-137291771D01*
X151083276Y-137291771D02*
X151178514Y-137196533D01*
X151178514Y-137196533D02*
X151226133Y-137101295D01*
X150940419Y-138529866D02*
X150940419Y-138339390D01*
X150940419Y-138339390D02*
X150988038Y-138244152D01*
X150988038Y-138244152D02*
X151035657Y-138196533D01*
X151035657Y-138196533D02*
X151178514Y-138101295D01*
X151178514Y-138101295D02*
X151368990Y-138053676D01*
X151368990Y-138053676D02*
X151749942Y-138053676D01*
X151749942Y-138053676D02*
X151845180Y-138101295D01*
X151845180Y-138101295D02*
X151892800Y-138148914D01*
X151892800Y-138148914D02*
X151940419Y-138244152D01*
X151940419Y-138244152D02*
X151940419Y-138434628D01*
X151940419Y-138434628D02*
X151892800Y-138529866D01*
X151892800Y-138529866D02*
X151845180Y-138577485D01*
X151845180Y-138577485D02*
X151749942Y-138625104D01*
X151749942Y-138625104D02*
X151511847Y-138625104D01*
X151511847Y-138625104D02*
X151416609Y-138577485D01*
X151416609Y-138577485D02*
X151368990Y-138529866D01*
X151368990Y-138529866D02*
X151321371Y-138434628D01*
X151321371Y-138434628D02*
X151321371Y-138244152D01*
X151321371Y-138244152D02*
X151368990Y-138148914D01*
X151368990Y-138148914D02*
X151416609Y-138101295D01*
X151416609Y-138101295D02*
X151511847Y-138053676D01*
X154786819Y-139158642D02*
X154310628Y-138825309D01*
X154786819Y-138587214D02*
X153786819Y-138587214D01*
X153786819Y-138587214D02*
X153786819Y-138968166D01*
X153786819Y-138968166D02*
X153834438Y-139063404D01*
X153834438Y-139063404D02*
X153882057Y-139111023D01*
X153882057Y-139111023D02*
X153977295Y-139158642D01*
X153977295Y-139158642D02*
X154120152Y-139158642D01*
X154120152Y-139158642D02*
X154215390Y-139111023D01*
X154215390Y-139111023D02*
X154263009Y-139063404D01*
X154263009Y-139063404D02*
X154310628Y-138968166D01*
X154310628Y-138968166D02*
X154310628Y-138587214D01*
X154786819Y-140111023D02*
X154786819Y-139539595D01*
X154786819Y-139825309D02*
X153786819Y-139825309D01*
X153786819Y-139825309D02*
X153929676Y-139730071D01*
X153929676Y-139730071D02*
X154024914Y-139634833D01*
X154024914Y-139634833D02*
X154072533Y-139539595D01*
X153786819Y-140444357D02*
X153786819Y-141111023D01*
X153786819Y-141111023D02*
X154786819Y-140682452D01*
X92374819Y-100084023D02*
X91898628Y-99750690D01*
X92374819Y-99512595D02*
X91374819Y-99512595D01*
X91374819Y-99512595D02*
X91374819Y-99893547D01*
X91374819Y-99893547D02*
X91422438Y-99988785D01*
X91422438Y-99988785D02*
X91470057Y-100036404D01*
X91470057Y-100036404D02*
X91565295Y-100084023D01*
X91565295Y-100084023D02*
X91708152Y-100084023D01*
X91708152Y-100084023D02*
X91803390Y-100036404D01*
X91803390Y-100036404D02*
X91851009Y-99988785D01*
X91851009Y-99988785D02*
X91898628Y-99893547D01*
X91898628Y-99893547D02*
X91898628Y-99512595D01*
X92374819Y-100512595D02*
X91374819Y-100512595D01*
X91374819Y-100512595D02*
X92374819Y-101084023D01*
X92374819Y-101084023D02*
X91374819Y-101084023D01*
X92374819Y-102084023D02*
X92374819Y-101512595D01*
X92374819Y-101798309D02*
X91374819Y-101798309D01*
X91374819Y-101798309D02*
X91517676Y-101703071D01*
X91517676Y-101703071D02*
X91612914Y-101607833D01*
X91612914Y-101607833D02*
X91660533Y-101512595D01*
X84891476Y-70050819D02*
X85224809Y-69574628D01*
X85462904Y-70050819D02*
X85462904Y-69050819D01*
X85462904Y-69050819D02*
X85081952Y-69050819D01*
X85081952Y-69050819D02*
X84986714Y-69098438D01*
X84986714Y-69098438D02*
X84939095Y-69146057D01*
X84939095Y-69146057D02*
X84891476Y-69241295D01*
X84891476Y-69241295D02*
X84891476Y-69384152D01*
X84891476Y-69384152D02*
X84939095Y-69479390D01*
X84939095Y-69479390D02*
X84986714Y-69527009D01*
X84986714Y-69527009D02*
X85081952Y-69574628D01*
X85081952Y-69574628D02*
X85462904Y-69574628D01*
X84462904Y-70050819D02*
X84462904Y-69050819D01*
X84462904Y-69050819D02*
X83891476Y-70050819D01*
X83891476Y-70050819D02*
X83891476Y-69050819D01*
X82986714Y-69384152D02*
X82986714Y-70050819D01*
X83224809Y-69003200D02*
X83462904Y-69717485D01*
X83462904Y-69717485D02*
X82843857Y-69717485D01*
D11*
X87428493Y-88385001D02*
X88573333Y-89529841D01*
X88573333Y-89529841D02*
X88640676Y-89731871D01*
X88640676Y-89731871D02*
X88640676Y-89866558D01*
X88640676Y-89866558D02*
X88573333Y-90068589D01*
X88573333Y-90068589D02*
X88303959Y-90337963D01*
X88303959Y-90337963D02*
X88101928Y-90405306D01*
X88101928Y-90405306D02*
X87967241Y-90405306D01*
X87967241Y-90405306D02*
X87765211Y-90337963D01*
X87765211Y-90337963D02*
X86620371Y-89193123D01*
X86081623Y-89731871D02*
X85206158Y-90607337D01*
X85206158Y-90607337D02*
X86216310Y-90674680D01*
X86216310Y-90674680D02*
X86014280Y-90876711D01*
X86014280Y-90876711D02*
X85946936Y-91078741D01*
X85946936Y-91078741D02*
X85946936Y-91213428D01*
X85946936Y-91213428D02*
X86014280Y-91415459D01*
X86014280Y-91415459D02*
X86350997Y-91752176D01*
X86350997Y-91752176D02*
X86553028Y-91819520D01*
X86553028Y-91819520D02*
X86687715Y-91819520D01*
X86687715Y-91819520D02*
X86889745Y-91752176D01*
X86889745Y-91752176D02*
X87293806Y-91348115D01*
X87293806Y-91348115D02*
X87361150Y-91146085D01*
X87361150Y-91146085D02*
X87361150Y-91011398D01*
D10*
X96841606Y-86452670D02*
X97178324Y-86789388D01*
X96706919Y-85846579D02*
X96841606Y-86452670D01*
X96841606Y-86452670D02*
X96235515Y-86317983D01*
X96336530Y-87631181D02*
X96740591Y-87227120D01*
X96538560Y-87429151D02*
X95831454Y-86722044D01*
X95831454Y-86722044D02*
X95999812Y-86755716D01*
X95999812Y-86755716D02*
X96134499Y-86755716D01*
X96134499Y-86755716D02*
X96235515Y-86722044D01*
X108140974Y-141776565D02*
X108482995Y-140836872D01*
X108482995Y-140836872D02*
X108259258Y-140755439D01*
X108259258Y-140755439D02*
X108108730Y-140751326D01*
X108108730Y-140751326D02*
X107986662Y-140808247D01*
X107986662Y-140808247D02*
X107909341Y-140881455D01*
X107909341Y-140881455D02*
X107799447Y-141044158D01*
X107799447Y-141044158D02*
X107750587Y-141178399D01*
X107750587Y-141178399D02*
X107730188Y-141373675D01*
X107730188Y-141373675D02*
X107742362Y-141479456D01*
X107742362Y-141479456D02*
X107799283Y-141601524D01*
X107799283Y-141601524D02*
X107917238Y-141695132D01*
X107917238Y-141695132D02*
X108140974Y-141776565D01*
X107095829Y-140331985D02*
X107543302Y-140494852D01*
X107543302Y-140494852D02*
X107425182Y-140958611D01*
X107425182Y-140958611D02*
X107396722Y-140897578D01*
X107396722Y-140897578D02*
X107323514Y-140820257D01*
X107323514Y-140820257D02*
X107099778Y-140738824D01*
X107099778Y-140738824D02*
X106993996Y-140750997D01*
X106993996Y-140750997D02*
X106932963Y-140779458D01*
X106932963Y-140779458D02*
X106855642Y-140852666D01*
X106855642Y-140852666D02*
X106774209Y-141076402D01*
X106774209Y-141076402D02*
X106786382Y-141182183D01*
X106786382Y-141182183D02*
X106814843Y-141243217D01*
X106814843Y-141243217D02*
X106888051Y-141320538D01*
X106888051Y-141320538D02*
X107111787Y-141401971D01*
X107111787Y-141401971D02*
X107217568Y-141389797D01*
X107217568Y-141389797D02*
X107278602Y-141361337D01*
X133811180Y-145203942D02*
X133858800Y-145156323D01*
X133858800Y-145156323D02*
X133906419Y-145013466D01*
X133906419Y-145013466D02*
X133906419Y-144918228D01*
X133906419Y-144918228D02*
X133858800Y-144775371D01*
X133858800Y-144775371D02*
X133763561Y-144680133D01*
X133763561Y-144680133D02*
X133668323Y-144632514D01*
X133668323Y-144632514D02*
X133477847Y-144584895D01*
X133477847Y-144584895D02*
X133334990Y-144584895D01*
X133334990Y-144584895D02*
X133144514Y-144632514D01*
X133144514Y-144632514D02*
X133049276Y-144680133D01*
X133049276Y-144680133D02*
X132954038Y-144775371D01*
X132954038Y-144775371D02*
X132906419Y-144918228D01*
X132906419Y-144918228D02*
X132906419Y-145013466D01*
X132906419Y-145013466D02*
X132954038Y-145156323D01*
X132954038Y-145156323D02*
X133001657Y-145203942D01*
X133001657Y-145584895D02*
X132954038Y-145632514D01*
X132954038Y-145632514D02*
X132906419Y-145727752D01*
X132906419Y-145727752D02*
X132906419Y-145965847D01*
X132906419Y-145965847D02*
X132954038Y-146061085D01*
X132954038Y-146061085D02*
X133001657Y-146108704D01*
X133001657Y-146108704D02*
X133096895Y-146156323D01*
X133096895Y-146156323D02*
X133192133Y-146156323D01*
X133192133Y-146156323D02*
X133334990Y-146108704D01*
X133334990Y-146108704D02*
X133906419Y-145537276D01*
X133906419Y-145537276D02*
X133906419Y-146156323D01*
X132906419Y-146489657D02*
X132906419Y-147108704D01*
X132906419Y-147108704D02*
X133287371Y-146775371D01*
X133287371Y-146775371D02*
X133287371Y-146918228D01*
X133287371Y-146918228D02*
X133334990Y-147013466D01*
X133334990Y-147013466D02*
X133382609Y-147061085D01*
X133382609Y-147061085D02*
X133477847Y-147108704D01*
X133477847Y-147108704D02*
X133715942Y-147108704D01*
X133715942Y-147108704D02*
X133811180Y-147061085D01*
X133811180Y-147061085D02*
X133858800Y-147013466D01*
X133858800Y-147013466D02*
X133906419Y-146918228D01*
X133906419Y-146918228D02*
X133906419Y-146632514D01*
X133906419Y-146632514D02*
X133858800Y-146537276D01*
X133858800Y-146537276D02*
X133811180Y-146489657D01*
X114944980Y-143143542D02*
X114992600Y-143095923D01*
X114992600Y-143095923D02*
X115040219Y-142953066D01*
X115040219Y-142953066D02*
X115040219Y-142857828D01*
X115040219Y-142857828D02*
X114992600Y-142714971D01*
X114992600Y-142714971D02*
X114897361Y-142619733D01*
X114897361Y-142619733D02*
X114802123Y-142572114D01*
X114802123Y-142572114D02*
X114611647Y-142524495D01*
X114611647Y-142524495D02*
X114468790Y-142524495D01*
X114468790Y-142524495D02*
X114278314Y-142572114D01*
X114278314Y-142572114D02*
X114183076Y-142619733D01*
X114183076Y-142619733D02*
X114087838Y-142714971D01*
X114087838Y-142714971D02*
X114040219Y-142857828D01*
X114040219Y-142857828D02*
X114040219Y-142953066D01*
X114040219Y-142953066D02*
X114087838Y-143095923D01*
X114087838Y-143095923D02*
X114135457Y-143143542D01*
X114135457Y-143524495D02*
X114087838Y-143572114D01*
X114087838Y-143572114D02*
X114040219Y-143667352D01*
X114040219Y-143667352D02*
X114040219Y-143905447D01*
X114040219Y-143905447D02*
X114087838Y-144000685D01*
X114087838Y-144000685D02*
X114135457Y-144048304D01*
X114135457Y-144048304D02*
X114230695Y-144095923D01*
X114230695Y-144095923D02*
X114325933Y-144095923D01*
X114325933Y-144095923D02*
X114468790Y-144048304D01*
X114468790Y-144048304D02*
X115040219Y-143476876D01*
X115040219Y-143476876D02*
X115040219Y-144095923D01*
X114040219Y-145000685D02*
X114040219Y-144524495D01*
X114040219Y-144524495D02*
X114516409Y-144476876D01*
X114516409Y-144476876D02*
X114468790Y-144524495D01*
X114468790Y-144524495D02*
X114421171Y-144619733D01*
X114421171Y-144619733D02*
X114421171Y-144857828D01*
X114421171Y-144857828D02*
X114468790Y-144953066D01*
X114468790Y-144953066D02*
X114516409Y-145000685D01*
X114516409Y-145000685D02*
X114611647Y-145048304D01*
X114611647Y-145048304D02*
X114849742Y-145048304D01*
X114849742Y-145048304D02*
X114944980Y-145000685D01*
X114944980Y-145000685D02*
X114992600Y-144953066D01*
X114992600Y-144953066D02*
X115040219Y-144857828D01*
X115040219Y-144857828D02*
X115040219Y-144619733D01*
X115040219Y-144619733D02*
X114992600Y-144524495D01*
X114992600Y-144524495D02*
X114944980Y-144476876D01*
X116843980Y-132402342D02*
X116891600Y-132354723D01*
X116891600Y-132354723D02*
X116939219Y-132211866D01*
X116939219Y-132211866D02*
X116939219Y-132116628D01*
X116939219Y-132116628D02*
X116891600Y-131973771D01*
X116891600Y-131973771D02*
X116796361Y-131878533D01*
X116796361Y-131878533D02*
X116701123Y-131830914D01*
X116701123Y-131830914D02*
X116510647Y-131783295D01*
X116510647Y-131783295D02*
X116367790Y-131783295D01*
X116367790Y-131783295D02*
X116177314Y-131830914D01*
X116177314Y-131830914D02*
X116082076Y-131878533D01*
X116082076Y-131878533D02*
X115986838Y-131973771D01*
X115986838Y-131973771D02*
X115939219Y-132116628D01*
X115939219Y-132116628D02*
X115939219Y-132211866D01*
X115939219Y-132211866D02*
X115986838Y-132354723D01*
X115986838Y-132354723D02*
X116034457Y-132402342D01*
X115939219Y-132735676D02*
X115939219Y-133354723D01*
X115939219Y-133354723D02*
X116320171Y-133021390D01*
X116320171Y-133021390D02*
X116320171Y-133164247D01*
X116320171Y-133164247D02*
X116367790Y-133259485D01*
X116367790Y-133259485D02*
X116415409Y-133307104D01*
X116415409Y-133307104D02*
X116510647Y-133354723D01*
X116510647Y-133354723D02*
X116748742Y-133354723D01*
X116748742Y-133354723D02*
X116843980Y-133307104D01*
X116843980Y-133307104D02*
X116891600Y-133259485D01*
X116891600Y-133259485D02*
X116939219Y-133164247D01*
X116939219Y-133164247D02*
X116939219Y-132878533D01*
X116939219Y-132878533D02*
X116891600Y-132783295D01*
X116891600Y-132783295D02*
X116843980Y-132735676D01*
X116034457Y-133735676D02*
X115986838Y-133783295D01*
X115986838Y-133783295D02*
X115939219Y-133878533D01*
X115939219Y-133878533D02*
X115939219Y-134116628D01*
X115939219Y-134116628D02*
X115986838Y-134211866D01*
X115986838Y-134211866D02*
X116034457Y-134259485D01*
X116034457Y-134259485D02*
X116129695Y-134307104D01*
X116129695Y-134307104D02*
X116224933Y-134307104D01*
X116224933Y-134307104D02*
X116367790Y-134259485D01*
X116367790Y-134259485D02*
X116939219Y-133688057D01*
X116939219Y-133688057D02*
X116939219Y-134307104D01*
X151337180Y-60894933D02*
X151384800Y-60847314D01*
X151384800Y-60847314D02*
X151432419Y-60704457D01*
X151432419Y-60704457D02*
X151432419Y-60609219D01*
X151432419Y-60609219D02*
X151384800Y-60466362D01*
X151384800Y-60466362D02*
X151289561Y-60371124D01*
X151289561Y-60371124D02*
X151194323Y-60323505D01*
X151194323Y-60323505D02*
X151003847Y-60275886D01*
X151003847Y-60275886D02*
X150860990Y-60275886D01*
X150860990Y-60275886D02*
X150670514Y-60323505D01*
X150670514Y-60323505D02*
X150575276Y-60371124D01*
X150575276Y-60371124D02*
X150480038Y-60466362D01*
X150480038Y-60466362D02*
X150432419Y-60609219D01*
X150432419Y-60609219D02*
X150432419Y-60704457D01*
X150432419Y-60704457D02*
X150480038Y-60847314D01*
X150480038Y-60847314D02*
X150527657Y-60894933D01*
X150432419Y-61752076D02*
X150432419Y-61561600D01*
X150432419Y-61561600D02*
X150480038Y-61466362D01*
X150480038Y-61466362D02*
X150527657Y-61418743D01*
X150527657Y-61418743D02*
X150670514Y-61323505D01*
X150670514Y-61323505D02*
X150860990Y-61275886D01*
X150860990Y-61275886D02*
X151241942Y-61275886D01*
X151241942Y-61275886D02*
X151337180Y-61323505D01*
X151337180Y-61323505D02*
X151384800Y-61371124D01*
X151384800Y-61371124D02*
X151432419Y-61466362D01*
X151432419Y-61466362D02*
X151432419Y-61656838D01*
X151432419Y-61656838D02*
X151384800Y-61752076D01*
X151384800Y-61752076D02*
X151337180Y-61799695D01*
X151337180Y-61799695D02*
X151241942Y-61847314D01*
X151241942Y-61847314D02*
X151003847Y-61847314D01*
X151003847Y-61847314D02*
X150908609Y-61799695D01*
X150908609Y-61799695D02*
X150860990Y-61752076D01*
X150860990Y-61752076D02*
X150813371Y-61656838D01*
X150813371Y-61656838D02*
X150813371Y-61466362D01*
X150813371Y-61466362D02*
X150860990Y-61371124D01*
X150860990Y-61371124D02*
X150908609Y-61323505D01*
X150908609Y-61323505D02*
X151003847Y-61275886D01*
X157280780Y-59726533D02*
X157328400Y-59678914D01*
X157328400Y-59678914D02*
X157376019Y-59536057D01*
X157376019Y-59536057D02*
X157376019Y-59440819D01*
X157376019Y-59440819D02*
X157328400Y-59297962D01*
X157328400Y-59297962D02*
X157233161Y-59202724D01*
X157233161Y-59202724D02*
X157137923Y-59155105D01*
X157137923Y-59155105D02*
X156947447Y-59107486D01*
X156947447Y-59107486D02*
X156804590Y-59107486D01*
X156804590Y-59107486D02*
X156614114Y-59155105D01*
X156614114Y-59155105D02*
X156518876Y-59202724D01*
X156518876Y-59202724D02*
X156423638Y-59297962D01*
X156423638Y-59297962D02*
X156376019Y-59440819D01*
X156376019Y-59440819D02*
X156376019Y-59536057D01*
X156376019Y-59536057D02*
X156423638Y-59678914D01*
X156423638Y-59678914D02*
X156471257Y-59726533D01*
X156376019Y-60631295D02*
X156376019Y-60155105D01*
X156376019Y-60155105D02*
X156852209Y-60107486D01*
X156852209Y-60107486D02*
X156804590Y-60155105D01*
X156804590Y-60155105D02*
X156756971Y-60250343D01*
X156756971Y-60250343D02*
X156756971Y-60488438D01*
X156756971Y-60488438D02*
X156804590Y-60583676D01*
X156804590Y-60583676D02*
X156852209Y-60631295D01*
X156852209Y-60631295D02*
X156947447Y-60678914D01*
X156947447Y-60678914D02*
X157185542Y-60678914D01*
X157185542Y-60678914D02*
X157280780Y-60631295D01*
X157280780Y-60631295D02*
X157328400Y-60583676D01*
X157328400Y-60583676D02*
X157376019Y-60488438D01*
X157376019Y-60488438D02*
X157376019Y-60250343D01*
X157376019Y-60250343D02*
X157328400Y-60155105D01*
X157328400Y-60155105D02*
X157280780Y-60107486D01*
X147656163Y-62345774D02*
X148228582Y-62244759D01*
X148060224Y-62749835D02*
X148767330Y-62042728D01*
X148767330Y-62042728D02*
X148497956Y-61773354D01*
X148497956Y-61773354D02*
X148396941Y-61739682D01*
X148396941Y-61739682D02*
X148329598Y-61739682D01*
X148329598Y-61739682D02*
X148228582Y-61773354D01*
X148228582Y-61773354D02*
X148127567Y-61874369D01*
X148127567Y-61874369D02*
X148093895Y-61975385D01*
X148093895Y-61975385D02*
X148093895Y-62042728D01*
X148093895Y-62042728D02*
X148127567Y-62143743D01*
X148127567Y-62143743D02*
X148396941Y-62413117D01*
X146982728Y-61672339D02*
X147386789Y-62076400D01*
X147184758Y-61874369D02*
X147891865Y-61167263D01*
X147891865Y-61167263D02*
X147858193Y-61335621D01*
X147858193Y-61335621D02*
X147858193Y-61470308D01*
X147858193Y-61470308D02*
X147891865Y-61571324D01*
X147353117Y-60763201D02*
X147353117Y-60695858D01*
X147353117Y-60695858D02*
X147319445Y-60594843D01*
X147319445Y-60594843D02*
X147151086Y-60426484D01*
X147151086Y-60426484D02*
X147050071Y-60392812D01*
X147050071Y-60392812D02*
X146982727Y-60392812D01*
X146982727Y-60392812D02*
X146881712Y-60426484D01*
X146881712Y-60426484D02*
X146814369Y-60493827D01*
X146814369Y-60493827D02*
X146747025Y-60628514D01*
X146747025Y-60628514D02*
X146747025Y-61436636D01*
X146747025Y-61436636D02*
X146309292Y-60998904D01*
X87932419Y-103617733D02*
X87456228Y-103284400D01*
X87932419Y-103046305D02*
X86932419Y-103046305D01*
X86932419Y-103046305D02*
X86932419Y-103427257D01*
X86932419Y-103427257D02*
X86980038Y-103522495D01*
X86980038Y-103522495D02*
X87027657Y-103570114D01*
X87027657Y-103570114D02*
X87122895Y-103617733D01*
X87122895Y-103617733D02*
X87265752Y-103617733D01*
X87265752Y-103617733D02*
X87360990Y-103570114D01*
X87360990Y-103570114D02*
X87408609Y-103522495D01*
X87408609Y-103522495D02*
X87456228Y-103427257D01*
X87456228Y-103427257D02*
X87456228Y-103046305D01*
X86932419Y-103951067D02*
X86932419Y-104617733D01*
X86932419Y-104617733D02*
X87932419Y-104189162D01*
X79349857Y-73014080D02*
X79397476Y-73061700D01*
X79397476Y-73061700D02*
X79540333Y-73109319D01*
X79540333Y-73109319D02*
X79635571Y-73109319D01*
X79635571Y-73109319D02*
X79778428Y-73061700D01*
X79778428Y-73061700D02*
X79873666Y-72966461D01*
X79873666Y-72966461D02*
X79921285Y-72871223D01*
X79921285Y-72871223D02*
X79968904Y-72680747D01*
X79968904Y-72680747D02*
X79968904Y-72537890D01*
X79968904Y-72537890D02*
X79921285Y-72347414D01*
X79921285Y-72347414D02*
X79873666Y-72252176D01*
X79873666Y-72252176D02*
X79778428Y-72156938D01*
X79778428Y-72156938D02*
X79635571Y-72109319D01*
X79635571Y-72109319D02*
X79540333Y-72109319D01*
X79540333Y-72109319D02*
X79397476Y-72156938D01*
X79397476Y-72156938D02*
X79349857Y-72204557D01*
X78397476Y-73109319D02*
X78968904Y-73109319D01*
X78683190Y-73109319D02*
X78683190Y-72109319D01*
X78683190Y-72109319D02*
X78778428Y-72252176D01*
X78778428Y-72252176D02*
X78873666Y-72347414D01*
X78873666Y-72347414D02*
X78968904Y-72395033D01*
X77540333Y-72109319D02*
X77730809Y-72109319D01*
X77730809Y-72109319D02*
X77826047Y-72156938D01*
X77826047Y-72156938D02*
X77873666Y-72204557D01*
X77873666Y-72204557D02*
X77968904Y-72347414D01*
X77968904Y-72347414D02*
X78016523Y-72537890D01*
X78016523Y-72537890D02*
X78016523Y-72918842D01*
X78016523Y-72918842D02*
X77968904Y-73014080D01*
X77968904Y-73014080D02*
X77921285Y-73061700D01*
X77921285Y-73061700D02*
X77826047Y-73109319D01*
X77826047Y-73109319D02*
X77635571Y-73109319D01*
X77635571Y-73109319D02*
X77540333Y-73061700D01*
X77540333Y-73061700D02*
X77492714Y-73014080D01*
X77492714Y-73014080D02*
X77445095Y-72918842D01*
X77445095Y-72918842D02*
X77445095Y-72680747D01*
X77445095Y-72680747D02*
X77492714Y-72585509D01*
X77492714Y-72585509D02*
X77540333Y-72537890D01*
X77540333Y-72537890D02*
X77635571Y-72490271D01*
X77635571Y-72490271D02*
X77826047Y-72490271D01*
X77826047Y-72490271D02*
X77921285Y-72537890D01*
X77921285Y-72537890D02*
X77968904Y-72585509D01*
X77968904Y-72585509D02*
X78016523Y-72680747D01*
X123949974Y-66484749D02*
X123473783Y-66151416D01*
X123949974Y-65913321D02*
X122949974Y-65913321D01*
X122949974Y-65913321D02*
X122949974Y-66294273D01*
X122949974Y-66294273D02*
X122997593Y-66389511D01*
X122997593Y-66389511D02*
X123045212Y-66437130D01*
X123045212Y-66437130D02*
X123140450Y-66484749D01*
X123140450Y-66484749D02*
X123283307Y-66484749D01*
X123283307Y-66484749D02*
X123378545Y-66437130D01*
X123378545Y-66437130D02*
X123426164Y-66389511D01*
X123426164Y-66389511D02*
X123473783Y-66294273D01*
X123473783Y-66294273D02*
X123473783Y-65913321D01*
X123949974Y-66960940D02*
X123949974Y-67151416D01*
X123949974Y-67151416D02*
X123902355Y-67246654D01*
X123902355Y-67246654D02*
X123854735Y-67294273D01*
X123854735Y-67294273D02*
X123711878Y-67389511D01*
X123711878Y-67389511D02*
X123521402Y-67437130D01*
X123521402Y-67437130D02*
X123140450Y-67437130D01*
X123140450Y-67437130D02*
X123045212Y-67389511D01*
X123045212Y-67389511D02*
X122997593Y-67341892D01*
X122997593Y-67341892D02*
X122949974Y-67246654D01*
X122949974Y-67246654D02*
X122949974Y-67056178D01*
X122949974Y-67056178D02*
X122997593Y-66960940D01*
X122997593Y-66960940D02*
X123045212Y-66913321D01*
X123045212Y-66913321D02*
X123140450Y-66865702D01*
X123140450Y-66865702D02*
X123378545Y-66865702D01*
X123378545Y-66865702D02*
X123473783Y-66913321D01*
X123473783Y-66913321D02*
X123521402Y-66960940D01*
X123521402Y-66960940D02*
X123569021Y-67056178D01*
X123569021Y-67056178D02*
X123569021Y-67246654D01*
X123569021Y-67246654D02*
X123521402Y-67341892D01*
X123521402Y-67341892D02*
X123473783Y-67389511D01*
X123473783Y-67389511D02*
X123378545Y-67437130D01*
X100340330Y-81905193D02*
X100407674Y-81905193D01*
X100407674Y-81905193D02*
X100542361Y-81837849D01*
X100542361Y-81837849D02*
X100609704Y-81770506D01*
X100609704Y-81770506D02*
X100677048Y-81635819D01*
X100677048Y-81635819D02*
X100677048Y-81501132D01*
X100677048Y-81501132D02*
X100643376Y-81400117D01*
X100643376Y-81400117D02*
X100542361Y-81231758D01*
X100542361Y-81231758D02*
X100441346Y-81130743D01*
X100441346Y-81130743D02*
X100272987Y-81029727D01*
X100272987Y-81029727D02*
X100171972Y-80996056D01*
X100171972Y-80996056D02*
X100037285Y-80996056D01*
X100037285Y-80996056D02*
X99902598Y-81063399D01*
X99902598Y-81063399D02*
X99835254Y-81130743D01*
X99835254Y-81130743D02*
X99767911Y-81265430D01*
X99767911Y-81265430D02*
X99767911Y-81332773D01*
X99734239Y-82645971D02*
X100138300Y-82241910D01*
X99936269Y-82443941D02*
X99229163Y-81736834D01*
X99229163Y-81736834D02*
X99397521Y-81770506D01*
X99397521Y-81770506D02*
X99532208Y-81770506D01*
X99532208Y-81770506D02*
X99633224Y-81736834D01*
X98387369Y-82578628D02*
X98724086Y-82241910D01*
X98724086Y-82241910D02*
X99094475Y-82544956D01*
X99094475Y-82544956D02*
X99027132Y-82544956D01*
X99027132Y-82544956D02*
X98926117Y-82578628D01*
X98926117Y-82578628D02*
X98757758Y-82746987D01*
X98757758Y-82746987D02*
X98724086Y-82848002D01*
X98724086Y-82848002D02*
X98724086Y-82915346D01*
X98724086Y-82915346D02*
X98757758Y-83016361D01*
X98757758Y-83016361D02*
X98926117Y-83184720D01*
X98926117Y-83184720D02*
X99027132Y-83218391D01*
X99027132Y-83218391D02*
X99094475Y-83218391D01*
X99094475Y-83218391D02*
X99195491Y-83184720D01*
X99195491Y-83184720D02*
X99363849Y-83016361D01*
X99363849Y-83016361D02*
X99397521Y-82915346D01*
X99397521Y-82915346D02*
X99397521Y-82848002D01*
X91149466Y-109878019D02*
X91482799Y-109401828D01*
X91720894Y-109878019D02*
X91720894Y-108878019D01*
X91720894Y-108878019D02*
X91339942Y-108878019D01*
X91339942Y-108878019D02*
X91244704Y-108925638D01*
X91244704Y-108925638D02*
X91197085Y-108973257D01*
X91197085Y-108973257D02*
X91149466Y-109068495D01*
X91149466Y-109068495D02*
X91149466Y-109211352D01*
X91149466Y-109211352D02*
X91197085Y-109306590D01*
X91197085Y-109306590D02*
X91244704Y-109354209D01*
X91244704Y-109354209D02*
X91339942Y-109401828D01*
X91339942Y-109401828D02*
X91720894Y-109401828D01*
X90292323Y-108878019D02*
X90482799Y-108878019D01*
X90482799Y-108878019D02*
X90578037Y-108925638D01*
X90578037Y-108925638D02*
X90625656Y-108973257D01*
X90625656Y-108973257D02*
X90720894Y-109116114D01*
X90720894Y-109116114D02*
X90768513Y-109306590D01*
X90768513Y-109306590D02*
X90768513Y-109687542D01*
X90768513Y-109687542D02*
X90720894Y-109782780D01*
X90720894Y-109782780D02*
X90673275Y-109830400D01*
X90673275Y-109830400D02*
X90578037Y-109878019D01*
X90578037Y-109878019D02*
X90387561Y-109878019D01*
X90387561Y-109878019D02*
X90292323Y-109830400D01*
X90292323Y-109830400D02*
X90244704Y-109782780D01*
X90244704Y-109782780D02*
X90197085Y-109687542D01*
X90197085Y-109687542D02*
X90197085Y-109449447D01*
X90197085Y-109449447D02*
X90244704Y-109354209D01*
X90244704Y-109354209D02*
X90292323Y-109306590D01*
X90292323Y-109306590D02*
X90387561Y-109258971D01*
X90387561Y-109258971D02*
X90578037Y-109258971D01*
X90578037Y-109258971D02*
X90673275Y-109306590D01*
X90673275Y-109306590D02*
X90720894Y-109354209D01*
X90720894Y-109354209D02*
X90768513Y-109449447D01*
X85748019Y-102855733D02*
X85271828Y-102522400D01*
X85748019Y-102284305D02*
X84748019Y-102284305D01*
X84748019Y-102284305D02*
X84748019Y-102665257D01*
X84748019Y-102665257D02*
X84795638Y-102760495D01*
X84795638Y-102760495D02*
X84843257Y-102808114D01*
X84843257Y-102808114D02*
X84938495Y-102855733D01*
X84938495Y-102855733D02*
X85081352Y-102855733D01*
X85081352Y-102855733D02*
X85176590Y-102808114D01*
X85176590Y-102808114D02*
X85224209Y-102760495D01*
X85224209Y-102760495D02*
X85271828Y-102665257D01*
X85271828Y-102665257D02*
X85271828Y-102284305D01*
X85176590Y-103427162D02*
X85128971Y-103331924D01*
X85128971Y-103331924D02*
X85081352Y-103284305D01*
X85081352Y-103284305D02*
X84986114Y-103236686D01*
X84986114Y-103236686D02*
X84938495Y-103236686D01*
X84938495Y-103236686D02*
X84843257Y-103284305D01*
X84843257Y-103284305D02*
X84795638Y-103331924D01*
X84795638Y-103331924D02*
X84748019Y-103427162D01*
X84748019Y-103427162D02*
X84748019Y-103617638D01*
X84748019Y-103617638D02*
X84795638Y-103712876D01*
X84795638Y-103712876D02*
X84843257Y-103760495D01*
X84843257Y-103760495D02*
X84938495Y-103808114D01*
X84938495Y-103808114D02*
X84986114Y-103808114D01*
X84986114Y-103808114D02*
X85081352Y-103760495D01*
X85081352Y-103760495D02*
X85128971Y-103712876D01*
X85128971Y-103712876D02*
X85176590Y-103617638D01*
X85176590Y-103617638D02*
X85176590Y-103427162D01*
X85176590Y-103427162D02*
X85224209Y-103331924D01*
X85224209Y-103331924D02*
X85271828Y-103284305D01*
X85271828Y-103284305D02*
X85367066Y-103236686D01*
X85367066Y-103236686D02*
X85557542Y-103236686D01*
X85557542Y-103236686D02*
X85652780Y-103284305D01*
X85652780Y-103284305D02*
X85700400Y-103331924D01*
X85700400Y-103331924D02*
X85748019Y-103427162D01*
X85748019Y-103427162D02*
X85748019Y-103617638D01*
X85748019Y-103617638D02*
X85700400Y-103712876D01*
X85700400Y-103712876D02*
X85652780Y-103760495D01*
X85652780Y-103760495D02*
X85557542Y-103808114D01*
X85557542Y-103808114D02*
X85367066Y-103808114D01*
X85367066Y-103808114D02*
X85271828Y-103760495D01*
X85271828Y-103760495D02*
X85224209Y-103712876D01*
X85224209Y-103712876D02*
X85176590Y-103617638D01*
X88217319Y-112393095D02*
X89026842Y-112393095D01*
X89026842Y-112393095D02*
X89122080Y-112440714D01*
X89122080Y-112440714D02*
X89169700Y-112488333D01*
X89169700Y-112488333D02*
X89217319Y-112583571D01*
X89217319Y-112583571D02*
X89217319Y-112774047D01*
X89217319Y-112774047D02*
X89169700Y-112869285D01*
X89169700Y-112869285D02*
X89122080Y-112916904D01*
X89122080Y-112916904D02*
X89026842Y-112964523D01*
X89026842Y-112964523D02*
X88217319Y-112964523D01*
X89217319Y-113964523D02*
X89217319Y-113393095D01*
X89217319Y-113678809D02*
X88217319Y-113678809D01*
X88217319Y-113678809D02*
X88360176Y-113583571D01*
X88360176Y-113583571D02*
X88455414Y-113488333D01*
X88455414Y-113488333D02*
X88503033Y-113393095D01*
X94168094Y-112884819D02*
X94168094Y-111884819D01*
X94168094Y-111884819D02*
X93929999Y-111884819D01*
X93929999Y-111884819D02*
X93787142Y-111932438D01*
X93787142Y-111932438D02*
X93691904Y-112027676D01*
X93691904Y-112027676D02*
X93644285Y-112122914D01*
X93644285Y-112122914D02*
X93596666Y-112313390D01*
X93596666Y-112313390D02*
X93596666Y-112456247D01*
X93596666Y-112456247D02*
X93644285Y-112646723D01*
X93644285Y-112646723D02*
X93691904Y-112741961D01*
X93691904Y-112741961D02*
X93787142Y-112837200D01*
X93787142Y-112837200D02*
X93929999Y-112884819D01*
X93929999Y-112884819D02*
X94168094Y-112884819D01*
X92739523Y-112218152D02*
X92739523Y-112884819D01*
X92977618Y-111837200D02*
X93215713Y-112551485D01*
X93215713Y-112551485D02*
X92596666Y-112551485D01*
X91514819Y-105641905D02*
X90514819Y-105641905D01*
X90514819Y-105641905D02*
X90514819Y-105880000D01*
X90514819Y-105880000D02*
X90562438Y-106022857D01*
X90562438Y-106022857D02*
X90657676Y-106118095D01*
X90657676Y-106118095D02*
X90752914Y-106165714D01*
X90752914Y-106165714D02*
X90943390Y-106213333D01*
X90943390Y-106213333D02*
X91086247Y-106213333D01*
X91086247Y-106213333D02*
X91276723Y-106165714D01*
X91276723Y-106165714D02*
X91371961Y-106118095D01*
X91371961Y-106118095D02*
X91467200Y-106022857D01*
X91467200Y-106022857D02*
X91514819Y-105880000D01*
X91514819Y-105880000D02*
X91514819Y-105641905D01*
X90514819Y-106546667D02*
X90514819Y-107165714D01*
X90514819Y-107165714D02*
X90895771Y-106832381D01*
X90895771Y-106832381D02*
X90895771Y-106975238D01*
X90895771Y-106975238D02*
X90943390Y-107070476D01*
X90943390Y-107070476D02*
X90991009Y-107118095D01*
X90991009Y-107118095D02*
X91086247Y-107165714D01*
X91086247Y-107165714D02*
X91324342Y-107165714D01*
X91324342Y-107165714D02*
X91419580Y-107118095D01*
X91419580Y-107118095D02*
X91467200Y-107070476D01*
X91467200Y-107070476D02*
X91514819Y-106975238D01*
X91514819Y-106975238D02*
X91514819Y-106689524D01*
X91514819Y-106689524D02*
X91467200Y-106594286D01*
X91467200Y-106594286D02*
X91419580Y-106546667D01*
X83634819Y-100331905D02*
X82634819Y-100331905D01*
X82634819Y-100331905D02*
X82634819Y-100570000D01*
X82634819Y-100570000D02*
X82682438Y-100712857D01*
X82682438Y-100712857D02*
X82777676Y-100808095D01*
X82777676Y-100808095D02*
X82872914Y-100855714D01*
X82872914Y-100855714D02*
X83063390Y-100903333D01*
X83063390Y-100903333D02*
X83206247Y-100903333D01*
X83206247Y-100903333D02*
X83396723Y-100855714D01*
X83396723Y-100855714D02*
X83491961Y-100808095D01*
X83491961Y-100808095D02*
X83587200Y-100712857D01*
X83587200Y-100712857D02*
X83634819Y-100570000D01*
X83634819Y-100570000D02*
X83634819Y-100331905D01*
X82730057Y-101284286D02*
X82682438Y-101331905D01*
X82682438Y-101331905D02*
X82634819Y-101427143D01*
X82634819Y-101427143D02*
X82634819Y-101665238D01*
X82634819Y-101665238D02*
X82682438Y-101760476D01*
X82682438Y-101760476D02*
X82730057Y-101808095D01*
X82730057Y-101808095D02*
X82825295Y-101855714D01*
X82825295Y-101855714D02*
X82920533Y-101855714D01*
X82920533Y-101855714D02*
X83063390Y-101808095D01*
X83063390Y-101808095D02*
X83634819Y-101236667D01*
X83634819Y-101236667D02*
X83634819Y-101855714D01*
D12*
X87688748Y-89805000D02*
X88211252Y-89805000D01*
X87688748Y-88335000D02*
X88211252Y-88335000D01*
X94054457Y-69895010D02*
X93684990Y-69525543D01*
X93015010Y-70934457D02*
X92645543Y-70564990D01*
X85482500Y-117518922D02*
X85482500Y-118036078D01*
X84062500Y-117518922D02*
X84062500Y-118036078D01*
X87451000Y-117548922D02*
X87451000Y-118066078D01*
X86031000Y-117548922D02*
X86031000Y-118066078D01*
X89657422Y-114733000D02*
X90174578Y-114733000D01*
X89657422Y-116153000D02*
X90174578Y-116153000D01*
X91076620Y-88796131D02*
X91306825Y-88565926D01*
X91797869Y-89517380D02*
X92028074Y-89287175D01*
X134980000Y-140299064D02*
X134980000Y-139094936D01*
X136800000Y-140299064D02*
X136800000Y-139094936D01*
X120080500Y-146242721D02*
X120080500Y-146568279D01*
X119060500Y-146242721D02*
X119060500Y-146568279D01*
X80782000Y-110952500D02*
X80782000Y-112412500D01*
X80782000Y-110952500D02*
X81712000Y-110952500D01*
X83942000Y-110952500D02*
X83942000Y-113112500D01*
X83942000Y-110952500D02*
X83012000Y-110952500D01*
X81234500Y-116962000D02*
X82694500Y-116962000D01*
X81234500Y-116962000D02*
X81234500Y-116032000D01*
X81234500Y-113802000D02*
X83394500Y-113802000D01*
X81234500Y-113802000D02*
X81234500Y-114732000D01*
X82100922Y-108129000D02*
X82618078Y-108129000D01*
X82100922Y-109549000D02*
X82618078Y-109549000D01*
X127049600Y-66949822D02*
X127049600Y-67466978D01*
X125629600Y-66949822D02*
X125629600Y-67466978D01*
X143067204Y-59005112D02*
X143432888Y-59370796D01*
X142063112Y-60009204D02*
X142428796Y-60374888D01*
X84788158Y-65623132D02*
X84422474Y-65257448D01*
X85792250Y-64619040D02*
X85426566Y-64253356D01*
X152021000Y-140019721D02*
X152021000Y-140345279D01*
X151001000Y-140019721D02*
X151001000Y-140345279D01*
X152782000Y-139955141D02*
X152782000Y-139647859D01*
X153542000Y-139955141D02*
X153542000Y-139647859D01*
X89250000Y-100374500D02*
X89250000Y-101174500D01*
X91090000Y-100374500D02*
X91090000Y-101174500D01*
X81592000Y-68250500D02*
X80792000Y-68250500D01*
X81592000Y-70090500D02*
X80792000Y-70090500D01*
X81419369Y-80137000D02*
X82091120Y-80808751D01*
X87974249Y-86691880D02*
X87026725Y-87639403D01*
X88646000Y-87363631D02*
X87974249Y-86691880D01*
X82091120Y-79465249D02*
X81419369Y-80137000D01*
X89317751Y-86691880D02*
X88646000Y-87363631D01*
X87974249Y-73582120D02*
X88646000Y-72910369D01*
X95200880Y-80808751D02*
X95872631Y-80137000D01*
X88646000Y-72910369D02*
X89317751Y-73582120D01*
X95872631Y-80137000D02*
X95200880Y-79465249D01*
X95330016Y-86628421D02*
X94375421Y-87583016D01*
X94092579Y-85390984D02*
X93137984Y-86345579D01*
X105827378Y-136034139D02*
X110901718Y-137881047D01*
X104698712Y-139135124D02*
X105827378Y-136034139D01*
X104698712Y-139135124D02*
X109773052Y-140982033D01*
X132614500Y-144619436D02*
X132614500Y-145823564D01*
X129894500Y-144619436D02*
X129894500Y-145823564D01*
X118225400Y-143184336D02*
X118225400Y-144388464D01*
X115505400Y-143184336D02*
X115505400Y-144388464D01*
X118527500Y-133668936D02*
X118527500Y-134123064D01*
X117057500Y-133668936D02*
X117057500Y-134123064D01*
X153618000Y-60470522D02*
X153618000Y-60987678D01*
X152198000Y-60470522D02*
X152198000Y-60987678D01*
X155853200Y-60470522D02*
X155853200Y-60987678D01*
X154433200Y-60470522D02*
X154433200Y-60987678D01*
X146397117Y-62271525D02*
X146762801Y-62637209D01*
X145393025Y-63275617D02*
X145758709Y-63641301D01*
X87895500Y-106406422D02*
X87895500Y-106923578D01*
X86475500Y-106406422D02*
X86475500Y-106923578D01*
X77472779Y-74460000D02*
X77147221Y-74460000D01*
X77472779Y-73440000D02*
X77147221Y-73440000D01*
X120854400Y-67263778D02*
X120854400Y-66746622D01*
X122274400Y-67263778D02*
X122274400Y-66746622D01*
X97313227Y-84129022D02*
X97083022Y-84359227D01*
X96591978Y-83407773D02*
X96361773Y-83637978D01*
X88602078Y-110184000D02*
X88084922Y-110184000D01*
X88602078Y-108764000D02*
X88084922Y-108764000D01*
X85927000Y-105420422D02*
X85927000Y-105937578D01*
X84507000Y-105420422D02*
X84507000Y-105937578D01*
X84602500Y-114655000D02*
X84602500Y-111655000D01*
X87822500Y-114655000D02*
X87822500Y-111655000D01*
X87722500Y-115645000D02*
X87722500Y-115165000D01*
X88202500Y-115165000D01*
X87722500Y-115645000D01*
G36*
X87722500Y-115645000D02*
G01*
X87722500Y-115165000D01*
X88202500Y-115165000D01*
X87722500Y-115645000D01*
G37*
X88342500Y-111370000D02*
X91602500Y-111370000D01*
X88342500Y-113070000D02*
X88342500Y-111370000D01*
X88342500Y-113070000D02*
X91602500Y-113070000D01*
X88360000Y-108390000D02*
X88360000Y-105130000D01*
X90060000Y-108390000D02*
X88360000Y-108390000D01*
X90060000Y-108390000D02*
X90060000Y-105130000D01*
X82310000Y-106227500D02*
X82310000Y-102967500D01*
X84010000Y-106227500D02*
X82310000Y-106227500D01*
X84010000Y-106227500D02*
X84010000Y-102967500D01*
M02*
