G04 #@! TF.GenerationSoftware,KiCad,Pcbnew,7.0.10*
G04 #@! TF.CreationDate,2024-08-19T09:51:56-07:00*
G04 #@! TF.ProjectId,LCP_PowerControl,4c43505f-506f-4776-9572-436f6e74726f,rev?*
G04 #@! TF.SameCoordinates,Original*
G04 #@! TF.FileFunction,Soldermask,Top*
G04 #@! TF.FilePolarity,Negative*
%FSLAX46Y46*%
G04 Gerber Fmt 4.6, Leading zero omitted, Abs format (unit mm)*
G04 Created by KiCad (PCBNEW 7.0.10) date 2024-08-19 09:51:56*
%MOMM*%
%LPD*%
G01*
G04 APERTURE LIST*
G04 Aperture macros list*
%AMRoundRect*
0 Rectangle with rounded corners*
0 $1 Rounding radius*
0 $2 $3 $4 $5 $6 $7 $8 $9 X,Y pos of 4 corners*
0 Add a 4 corners polygon primitive as box body*
4,1,4,$2,$3,$4,$5,$6,$7,$8,$9,$2,$3,0*
0 Add four circle primitives for the rounded corners*
1,1,$1+$1,$2,$3*
1,1,$1+$1,$4,$5*
1,1,$1+$1,$6,$7*
1,1,$1+$1,$8,$9*
0 Add four rect primitives between the rounded corners*
20,1,$1+$1,$2,$3,$4,$5,0*
20,1,$1+$1,$4,$5,$6,$7,0*
20,1,$1+$1,$6,$7,$8,$9,0*
20,1,$1+$1,$8,$9,$2,$3,0*%
%AMHorizOval*
0 Thick line with rounded ends*
0 $1 width*
0 $2 $3 position (X,Y) of the first rounded end (center of the circle)*
0 $4 $5 position (X,Y) of the second rounded end (center of the circle)*
0 Add line between two ends*
20,1,$1,$2,$3,$4,$5,0*
0 Add two circle primitives to create the rounded ends*
1,1,$1,$2,$3*
1,1,$1,$4,$5*%
%AMRotRect*
0 Rectangle, with rotation*
0 The origin of the aperture is its center*
0 $1 length*
0 $2 width*
0 $3 Rotation angle, in degrees counterclockwise*
0 Add horizontal line*
21,1,$1,$2,0,0,$3*%
%AMFreePoly0*
4,1,19,0.500000,-0.750000,0.000000,-0.750000,0.000000,-0.744911,-0.071157,-0.744911,-0.207708,-0.704816,-0.327430,-0.627875,-0.420627,-0.520320,-0.479746,-0.390866,-0.500000,-0.250000,-0.500000,0.250000,-0.479746,0.390866,-0.420627,0.520320,-0.327430,0.627875,-0.207708,0.704816,-0.071157,0.744911,0.000000,0.744911,0.000000,0.750000,0.500000,0.750000,0.500000,-0.750000,0.500000,-0.750000,
$1*%
%AMFreePoly1*
4,1,19,0.000000,0.744911,0.071157,0.744911,0.207708,0.704816,0.327430,0.627875,0.420627,0.520320,0.479746,0.390866,0.500000,0.250000,0.500000,-0.250000,0.479746,-0.390866,0.420627,-0.520320,0.327430,-0.627875,0.207708,-0.704816,0.071157,-0.744911,0.000000,-0.744911,0.000000,-0.750000,-0.500000,-0.750000,-0.500000,0.750000,0.000000,0.750000,0.000000,0.744911,0.000000,0.744911,
$1*%
%AMFreePoly2*
4,1,17,0.153536,0.803536,0.155000,0.800000,0.155000,-0.200000,0.153536,-0.203536,0.150000,-0.205000,-0.550000,-0.205000,-0.553536,-0.203536,-0.555000,-0.200000,-0.555000,0.200000,-0.553536,0.203536,-0.550000,0.205000,-0.205000,0.205000,-0.205000,0.800000,-0.203536,0.803536,-0.200000,0.805000,0.150000,0.805000,0.153536,0.803536,0.153536,0.803536,$1*%
%AMFreePoly3*
4,1,17,0.203536,0.803536,0.205000,0.800000,0.205000,0.205000,0.550000,0.205000,0.553536,0.203536,0.555000,0.200000,0.555000,-0.200000,0.553536,-0.203536,0.550000,-0.205000,-0.150000,-0.205000,-0.153536,-0.203536,-0.155000,-0.200000,-0.155000,0.800000,-0.153536,0.803536,-0.150000,0.805000,0.200000,0.805000,0.203536,0.803536,0.203536,0.803536,$1*%
%AMFreePoly4*
4,1,17,0.203536,0.803536,0.205000,0.800000,0.205000,-0.200000,0.203536,-0.203536,0.200000,-0.205000,-0.600000,-0.205000,-0.603536,-0.203536,-0.605000,-0.200000,-0.605000,0.200000,-0.603536,0.203536,-0.600000,0.205000,-0.205000,0.205000,-0.205000,0.800000,-0.203536,0.803536,-0.200000,0.805000,0.200000,0.805000,0.203536,0.803536,0.203536,0.803536,$1*%
%AMFreePoly5*
4,1,17,0.203536,0.803536,0.205000,0.800000,0.205000,0.205000,0.600000,0.205000,0.603536,0.203536,0.605000,0.200000,0.605000,-0.200000,0.603536,-0.203536,0.600000,-0.205000,-0.200000,-0.205000,-0.203536,-0.203536,-0.205000,-0.200000,-0.205000,0.800000,-0.203536,0.803536,-0.200000,0.805000,0.200000,0.805000,0.203536,0.803536,0.203536,0.803536,$1*%
%AMFreePoly6*
4,1,19,0.550000,-0.750000,0.000000,-0.750000,0.000000,-0.744911,-0.071157,-0.744911,-0.207708,-0.704816,-0.327430,-0.627875,-0.420627,-0.520320,-0.479746,-0.390866,-0.500000,-0.250000,-0.500000,0.250000,-0.479746,0.390866,-0.420627,0.520320,-0.327430,0.627875,-0.207708,0.704816,-0.071157,0.744911,0.000000,0.744911,0.000000,0.750000,0.550000,0.750000,0.550000,-0.750000,0.550000,-0.750000,
$1*%
%AMFreePoly7*
4,1,19,0.000000,0.744911,0.071157,0.744911,0.207708,0.704816,0.327430,0.627875,0.420627,0.520320,0.479746,0.390866,0.500000,0.250000,0.500000,-0.250000,0.479746,-0.390866,0.420627,-0.520320,0.327430,-0.627875,0.207708,-0.704816,0.071157,-0.744911,0.000000,-0.744911,0.000000,-0.750000,-0.550000,-0.750000,-0.550000,0.750000,0.000000,0.750000,0.000000,0.744911,0.000000,0.744911,
$1*%
G04 Aperture macros list end*
%ADD10RoundRect,0.243750X-0.456250X0.243750X-0.456250X-0.243750X0.456250X-0.243750X0.456250X0.243750X0*%
%ADD11RoundRect,0.243750X0.494975X0.150260X0.150260X0.494975X-0.494975X-0.150260X-0.150260X-0.494975X0*%
%ADD12RoundRect,0.243750X0.456250X-0.243750X0.456250X0.243750X-0.456250X0.243750X-0.456250X-0.243750X0*%
%ADD13RoundRect,0.218750X-0.218750X-0.256250X0.218750X-0.256250X0.218750X0.256250X-0.218750X0.256250X0*%
%ADD14RoundRect,0.218750X-0.256250X0.218750X-0.256250X-0.218750X0.256250X-0.218750X0.256250X0.218750X0*%
%ADD15RoundRect,0.243750X0.461363X0.233929X0.062026X0.513547X-0.461363X-0.233929X-0.062026X-0.513547X0*%
%ADD16C,1.000000*%
%ADD17RoundRect,0.250000X0.683013X-0.183013X0.183013X0.683013X-0.683013X0.183013X-0.183013X-0.683013X0*%
%ADD18C,1.500000*%
%ADD19R,1.000000X1.000000*%
%ADD20O,1.000000X1.000000*%
%ADD21RoundRect,0.250000X0.640856X-0.298836X0.298836X0.640856X-0.640856X0.298836X-0.298836X-0.640856X0*%
%ADD22RoundRect,0.250000X0.704416X0.061628X-0.061628X0.704416X-0.704416X-0.061628X0.061628X-0.704416X0*%
%ADD23RoundRect,0.250000X0.500000X0.500000X-0.500000X0.500000X-0.500000X-0.500000X0.500000X-0.500000X0*%
%ADD24FreePoly0,0.000000*%
%ADD25FreePoly1,0.000000*%
%ADD26FreePoly0,90.000000*%
%ADD27FreePoly1,90.000000*%
%ADD28RoundRect,0.243750X-0.243750X-0.456250X0.243750X-0.456250X0.243750X0.456250X-0.243750X0.456250X0*%
%ADD29RoundRect,0.147500X-0.172500X0.147500X-0.172500X-0.147500X0.172500X-0.147500X0.172500X0.147500X0*%
%ADD30RoundRect,0.147500X0.172500X-0.147500X0.172500X0.147500X-0.172500X0.147500X-0.172500X-0.147500X0*%
%ADD31RotRect,1.600000X1.400000X37.500000*%
%ADD32C,2.000000*%
%ADD33R,8.200000X2.600000*%
%ADD34R,0.650000X1.560000*%
%ADD35RoundRect,0.250000X0.704416X-0.061628X0.061628X0.704416X-0.704416X0.061628X-0.061628X-0.704416X0*%
%ADD36FreePoly2,90.000000*%
%ADD37R,0.250000X0.700000*%
%ADD38R,0.300000X0.700000*%
%ADD39FreePoly3,270.000000*%
%ADD40R,0.700000X0.250000*%
%ADD41R,1.000000X0.400000*%
%ADD42FreePoly4,270.000000*%
%ADD43R,0.400000X2.400000*%
%ADD44FreePoly5,90.000000*%
%ADD45R,9.000000X2.380000*%
%ADD46RoundRect,0.147500X0.147500X0.172500X-0.147500X0.172500X-0.147500X-0.172500X0.147500X-0.172500X0*%
%ADD47RoundRect,0.249999X-0.450001X0.262501X-0.450001X-0.262501X0.450001X-0.262501X0.450001X0.262501X0*%
%ADD48RoundRect,0.218750X0.256250X-0.218750X0.256250X0.218750X-0.256250X0.218750X-0.256250X-0.218750X0*%
%ADD49RoundRect,0.250000X-1.075000X0.375000X-1.075000X-0.375000X1.075000X-0.375000X1.075000X0.375000X0*%
%ADD50RoundRect,0.250000X0.625000X-0.375000X0.625000X0.375000X-0.625000X0.375000X-0.625000X-0.375000X0*%
%ADD51C,1.020000*%
%ADD52RoundRect,0.250001X-0.499999X-0.499999X0.499999X-0.499999X0.499999X0.499999X-0.499999X0.499999X0*%
%ADD53RoundRect,0.243750X-0.150260X0.494975X-0.494975X0.150260X0.150260X-0.494975X0.494975X-0.150260X0*%
%ADD54RotRect,3.000000X3.000000X45.000000*%
%ADD55RotRect,1.050000X0.450000X45.000000*%
%ADD56C,2.010000*%
%ADD57RoundRect,0.243750X0.479995X0.192828X0.106549X0.506187X-0.479995X-0.192828X-0.106549X-0.506187X0*%
%ADD58RoundRect,0.250001X-0.707105X0.000000X0.000000X-0.707105X0.707105X0.000000X0.000000X0.707105X0*%
%ADD59C,2.400000*%
%ADD60O,2.400000X2.400000*%
%ADD61RoundRect,0.249998X0.503816X0.132583X0.132583X0.503816X-0.503816X-0.132583X-0.132583X-0.503816X0*%
%ADD62RotRect,1.700000X1.700000X290.000000*%
%ADD63HorizOval,1.700000X0.000000X0.000000X0.000000X0.000000X0*%
%ADD64RoundRect,0.250000X0.612372X0.353553X-0.353553X0.612372X-0.612372X-0.353553X0.353553X-0.612372X0*%
%ADD65RoundRect,0.140000X-0.170000X0.140000X-0.170000X-0.140000X0.170000X-0.140000X0.170000X0.140000X0*%
%ADD66FreePoly6,0.000000*%
%ADD67R,1.000000X1.500000*%
%ADD68FreePoly7,0.000000*%
%ADD69RotRect,0.900000X0.800000X45.000000*%
%ADD70RoundRect,0.249999X0.450001X-0.262501X0.450001X0.262501X-0.450001X0.262501X-0.450001X-0.262501X0*%
%ADD71RoundRect,0.250000X1.050000X0.550000X-1.050000X0.550000X-1.050000X-0.550000X1.050000X-0.550000X0*%
%ADD72R,2.400000X2.400000*%
%ADD73RoundRect,0.250000X-0.250000X-0.250000X0.250000X-0.250000X0.250000X0.250000X-0.250000X0.250000X0*%
%ADD74RoundRect,0.250000X-0.300000X-0.300000X0.300000X-0.300000X0.300000X0.300000X-0.300000X0.300000X0*%
G04 APERTURE END LIST*
D10*
X81978500Y-78374000D03*
X81978500Y-80249000D03*
D11*
X91630500Y-79883000D03*
X90304674Y-78557174D03*
D12*
X97028000Y-80820500D03*
X97028000Y-78945500D03*
D13*
X151295000Y-135572500D03*
X152870000Y-135572500D03*
D14*
X122682000Y-147612000D03*
X122682000Y-149187000D03*
D15*
X80656910Y-70099956D03*
X79121000Y-69024500D03*
D16*
X82839340Y-122497276D03*
X79839340Y-117301124D03*
D17*
X77927200Y-121869200D03*
D18*
X80525276Y-120369200D03*
D19*
X75960000Y-81770000D03*
D20*
X77230000Y-81770000D03*
X75960000Y-80500000D03*
X77230000Y-80500000D03*
X75960000Y-79230000D03*
X77230000Y-79230000D03*
X75960000Y-77960000D03*
X77230000Y-77960000D03*
X75960000Y-76690000D03*
X77230000Y-76690000D03*
D16*
X78921849Y-115187318D03*
X76869728Y-109549163D03*
D21*
X74193400Y-113715800D03*
D18*
X77012478Y-112689740D03*
D16*
X94568917Y-135079548D03*
X89972650Y-131222822D03*
D22*
X89738200Y-136169400D03*
D18*
X91666563Y-133871267D03*
D16*
X156162000Y-64449500D03*
X150162000Y-64449500D03*
D23*
X153162000Y-68389500D03*
D18*
X153162000Y-65389500D03*
D24*
X80234000Y-89344500D03*
D25*
X81534000Y-89344500D03*
D26*
X94678500Y-81818000D03*
D27*
X94678500Y-80518000D03*
D12*
X81851500Y-111095000D03*
X81851500Y-109220000D03*
D28*
X83517500Y-108966000D03*
X85392500Y-108966000D03*
D12*
X85852000Y-117635500D03*
X85852000Y-115760500D03*
D29*
X120142000Y-147683500D03*
X120142000Y-148653500D03*
D30*
X121285000Y-148630500D03*
X121285000Y-147660500D03*
D31*
X89905986Y-58761111D03*
X95618130Y-54378029D03*
X91732270Y-61141171D03*
X97444414Y-56758089D03*
D32*
X161480500Y-129413000D03*
X149034500Y-129667000D03*
X103187500Y-140843000D03*
D33*
X141218000Y-138424000D03*
X141218000Y-144024000D03*
D13*
X151257000Y-137287000D03*
X152832000Y-137287000D03*
D34*
X147960000Y-141892000D03*
X148910000Y-141892000D03*
X149860000Y-141892000D03*
X149860000Y-139192000D03*
X148910000Y-139192000D03*
X147960000Y-139192000D03*
D16*
X87699778Y-129330950D03*
X83843052Y-124734683D03*
D35*
X82753200Y-129565400D03*
D18*
X85051333Y-127637037D03*
D36*
X122573400Y-145820400D03*
D37*
X123198400Y-146020400D03*
D38*
X123723400Y-146020400D03*
D37*
X124248400Y-146020400D03*
D39*
X124873400Y-145820400D03*
D40*
X125323400Y-145295400D03*
X125323400Y-144795400D03*
D41*
X125173400Y-143720400D03*
D42*
X124873400Y-142570400D03*
D43*
X123723400Y-143170400D03*
D44*
X122573400Y-142570400D03*
D41*
X122273400Y-143720400D03*
D40*
X122123400Y-144795400D03*
X122123400Y-145295400D03*
D29*
X124079000Y-148445500D03*
X124079000Y-149415500D03*
D45*
X123723400Y-139367400D03*
X123723400Y-132717400D03*
D46*
X120794500Y-145288000D03*
X119824500Y-145288000D03*
D47*
X117043200Y-132945500D03*
X117043200Y-134770500D03*
D48*
X120586500Y-143878500D03*
X120586500Y-142303500D03*
D49*
X131000500Y-143707200D03*
X131000500Y-146507200D03*
X116865400Y-142516400D03*
X116865400Y-145316400D03*
D47*
X130492500Y-132628000D03*
X130492500Y-134453000D03*
D48*
X126898400Y-143916400D03*
X126898400Y-142341400D03*
D29*
X126873000Y-145628500D03*
X126873000Y-146598500D03*
X125095000Y-147343000D03*
X125095000Y-148313000D03*
D50*
X135382000Y-141166500D03*
X135382000Y-138366500D03*
D32*
X129222500Y-149796500D03*
D51*
X116430800Y-52708000D03*
X125430800Y-52708000D03*
D52*
X119430800Y-48768000D03*
D18*
X122430800Y-48768000D03*
X119430800Y-51768000D03*
X122430800Y-51768000D03*
D53*
X146052513Y-52778687D03*
X144726687Y-54104513D03*
D54*
X147637500Y-58039000D03*
D55*
X144066611Y-58392553D03*
X144526230Y-58852173D03*
X144985850Y-59311792D03*
X145445469Y-59771412D03*
X145905088Y-60231031D03*
X146364708Y-60690650D03*
X146824327Y-61150270D03*
X147283947Y-61609889D03*
X151208389Y-57685447D03*
X150748770Y-57225827D03*
X150289150Y-56766208D03*
X149829531Y-56306588D03*
X149369912Y-55846969D03*
X148910292Y-55387350D03*
X148450673Y-54927730D03*
X147991053Y-54468111D03*
D56*
X118394800Y-58032800D03*
X123494800Y-59232800D03*
X97663000Y-140652500D03*
X98863000Y-135552500D03*
D32*
X155511500Y-129603500D03*
D57*
X82232500Y-67754500D03*
X80796166Y-66549274D03*
D51*
X104092679Y-131664680D03*
X108335320Y-135907321D03*
D58*
X109000000Y-131000000D03*
D18*
X106878680Y-133121320D03*
D59*
X89217500Y-64198500D03*
D60*
X89217500Y-120078500D03*
D61*
X81005235Y-84815235D03*
X79714765Y-83524765D03*
D62*
X111455200Y-48564800D03*
D63*
X109068381Y-49433531D03*
X106681561Y-50302262D03*
X104294742Y-51170993D03*
X101907923Y-52039725D03*
X99521104Y-52908456D03*
D16*
X112934325Y-144112909D03*
X107138770Y-142559995D03*
D64*
X109016800Y-147142200D03*
D18*
X109793257Y-144244423D03*
D65*
X146558000Y-140134500D03*
X146558000Y-141094500D03*
D66*
X115200000Y-69500000D03*
D67*
X116500000Y-69500000D03*
D68*
X117800000Y-69500000D03*
D66*
X115200000Y-65000000D03*
D67*
X116500000Y-65000000D03*
D68*
X117800000Y-65000000D03*
D69*
X99621142Y-59035355D03*
X100964645Y-60378858D03*
X101707107Y-58292893D03*
D61*
X99145235Y-62145235D03*
X97854765Y-60854765D03*
D47*
X110500000Y-58587500D03*
X110500000Y-60412500D03*
D70*
X113000000Y-60412500D03*
X113000000Y-58587500D03*
D71*
X77820000Y-86950000D03*
X74220000Y-86950000D03*
D72*
X136390000Y-54740000D03*
D59*
X131390000Y-54740000D03*
D51*
X95892679Y-123064680D03*
X102256640Y-129428641D03*
D58*
X100800000Y-122400000D03*
D18*
X102921320Y-124521320D03*
X98678680Y-124521320D03*
X100800000Y-126642641D03*
D73*
X83420000Y-113330000D03*
X85920000Y-113330000D03*
D74*
X143772500Y-135080000D03*
X146572500Y-135080000D03*
M02*
