G04 #@! TF.GenerationSoftware,KiCad,Pcbnew,7.0.10*
G04 #@! TF.CreationDate,2024-08-19T09:51:56-07:00*
G04 #@! TF.ProjectId,LCP_PowerControl,4c43505f-506f-4776-9572-436f6e74726f,rev?*
G04 #@! TF.SameCoordinates,Original*
G04 #@! TF.FileFunction,Copper,L4,Bot*
G04 #@! TF.FilePolarity,Positive*
%FSLAX46Y46*%
G04 Gerber Fmt 4.6, Leading zero omitted, Abs format (unit mm)*
G04 Created by KiCad (PCBNEW 7.0.10) date 2024-08-19 09:51:56*
%MOMM*%
%LPD*%
G01*
G04 APERTURE LIST*
G04 Aperture macros list*
%AMRoundRect*
0 Rectangle with rounded corners*
0 $1 Rounding radius*
0 $2 $3 $4 $5 $6 $7 $8 $9 X,Y pos of 4 corners*
0 Add a 4 corners polygon primitive as box body*
4,1,4,$2,$3,$4,$5,$6,$7,$8,$9,$2,$3,0*
0 Add four circle primitives for the rounded corners*
1,1,$1+$1,$2,$3*
1,1,$1+$1,$4,$5*
1,1,$1+$1,$6,$7*
1,1,$1+$1,$8,$9*
0 Add four rect primitives between the rounded corners*
20,1,$1+$1,$2,$3,$4,$5,0*
20,1,$1+$1,$4,$5,$6,$7,0*
20,1,$1+$1,$6,$7,$8,$9,0*
20,1,$1+$1,$8,$9,$2,$3,0*%
%AMHorizOval*
0 Thick line with rounded ends*
0 $1 width*
0 $2 $3 position (X,Y) of the first rounded end (center of the circle)*
0 $4 $5 position (X,Y) of the second rounded end (center of the circle)*
0 Add line between two ends*
20,1,$1,$2,$3,$4,$5,0*
0 Add two circle primitives to create the rounded ends*
1,1,$1,$2,$3*
1,1,$1,$4,$5*%
%AMRotRect*
0 Rectangle, with rotation*
0 The origin of the aperture is its center*
0 $1 length*
0 $2 width*
0 $3 Rotation angle, in degrees counterclockwise*
0 Add horizontal line*
21,1,$1,$2,0,0,$3*%
G04 Aperture macros list end*
G04 #@! TA.AperFunction,ComponentPad*
%ADD10RoundRect,0.250000X0.683013X-0.183013X0.183013X0.683013X-0.683013X0.183013X-0.183013X-0.683013X0*%
G04 #@! TD*
G04 #@! TA.AperFunction,ComponentPad*
%ADD11C,1.500000*%
G04 #@! TD*
G04 #@! TA.AperFunction,ComponentPad*
%ADD12R,1.000000X1.000000*%
G04 #@! TD*
G04 #@! TA.AperFunction,ComponentPad*
%ADD13O,1.000000X1.000000*%
G04 #@! TD*
G04 #@! TA.AperFunction,ComponentPad*
%ADD14RoundRect,0.250000X0.640856X-0.298836X0.298836X0.640856X-0.640856X0.298836X-0.298836X-0.640856X0*%
G04 #@! TD*
G04 #@! TA.AperFunction,ComponentPad*
%ADD15RoundRect,0.250000X0.704416X0.061628X-0.061628X0.704416X-0.704416X-0.061628X0.061628X-0.704416X0*%
G04 #@! TD*
G04 #@! TA.AperFunction,ComponentPad*
%ADD16RoundRect,0.250000X0.500000X0.500000X-0.500000X0.500000X-0.500000X-0.500000X0.500000X-0.500000X0*%
G04 #@! TD*
G04 #@! TA.AperFunction,ComponentPad*
%ADD17C,2.000000*%
G04 #@! TD*
G04 #@! TA.AperFunction,ComponentPad*
%ADD18RoundRect,0.250000X0.704416X-0.061628X0.061628X0.704416X-0.704416X0.061628X-0.061628X-0.704416X0*%
G04 #@! TD*
G04 #@! TA.AperFunction,ComponentPad*
%ADD19RoundRect,0.250001X-0.499999X-0.499999X0.499999X-0.499999X0.499999X0.499999X-0.499999X0.499999X0*%
G04 #@! TD*
G04 #@! TA.AperFunction,ComponentPad*
%ADD20C,0.600000*%
G04 #@! TD*
G04 #@! TA.AperFunction,SMDPad,CuDef*
%ADD21RotRect,3.400000X5.000000X45.000000*%
G04 #@! TD*
G04 #@! TA.AperFunction,ComponentPad*
%ADD22C,2.010000*%
G04 #@! TD*
G04 #@! TA.AperFunction,ComponentPad*
%ADD23RoundRect,0.250001X-0.707105X0.000000X0.000000X-0.707105X0.707105X0.000000X0.000000X0.707105X0*%
G04 #@! TD*
G04 #@! TA.AperFunction,ComponentPad*
%ADD24C,2.400000*%
G04 #@! TD*
G04 #@! TA.AperFunction,ComponentPad*
%ADD25O,2.400000X2.400000*%
G04 #@! TD*
G04 #@! TA.AperFunction,SMDPad,CuDef*
%ADD26RoundRect,0.250000X-0.250000X-0.475000X0.250000X-0.475000X0.250000X0.475000X-0.250000X0.475000X0*%
G04 #@! TD*
G04 #@! TA.AperFunction,SMDPad,CuDef*
%ADD27RoundRect,0.250000X0.512652X0.159099X0.159099X0.512652X-0.512652X-0.159099X-0.159099X-0.512652X0*%
G04 #@! TD*
G04 #@! TA.AperFunction,ComponentPad*
%ADD28RotRect,1.700000X1.700000X290.000000*%
G04 #@! TD*
G04 #@! TA.AperFunction,ComponentPad*
%ADD29HorizOval,1.700000X0.000000X0.000000X0.000000X0.000000X0*%
G04 #@! TD*
G04 #@! TA.AperFunction,ComponentPad*
%ADD30RoundRect,0.250000X0.612372X0.353553X-0.353553X0.612372X-0.612372X-0.353553X0.353553X-0.612372X0*%
G04 #@! TD*
G04 #@! TA.AperFunction,ComponentPad*
%ADD31R,2.400000X2.400000*%
G04 #@! TD*
G04 #@! TA.AperFunction,SMDPad,CuDef*
%ADD32RoundRect,0.243750X-0.456250X0.243750X-0.456250X-0.243750X0.456250X-0.243750X0.456250X0.243750X0*%
G04 #@! TD*
G04 #@! TA.AperFunction,SMDPad,CuDef*
%ADD33RoundRect,0.243750X-0.243750X-0.456250X0.243750X-0.456250X0.243750X0.456250X-0.243750X0.456250X0*%
G04 #@! TD*
G04 #@! TA.AperFunction,SMDPad,CuDef*
%ADD34RoundRect,0.218750X0.026517X-0.335876X0.335876X-0.026517X-0.026517X0.335876X-0.335876X0.026517X0*%
G04 #@! TD*
G04 #@! TA.AperFunction,SMDPad,CuDef*
%ADD35RoundRect,0.250000X0.625000X-0.375000X0.625000X0.375000X-0.625000X0.375000X-0.625000X-0.375000X0*%
G04 #@! TD*
G04 #@! TA.AperFunction,SMDPad,CuDef*
%ADD36RoundRect,0.218750X-0.256250X0.218750X-0.256250X-0.218750X0.256250X-0.218750X0.256250X0.218750X0*%
G04 #@! TD*
G04 #@! TA.AperFunction,SMDPad,CuDef*
%ADD37R,0.800000X0.900000*%
G04 #@! TD*
G04 #@! TA.AperFunction,SMDPad,CuDef*
%ADD38R,0.900000X0.800000*%
G04 #@! TD*
G04 #@! TA.AperFunction,SMDPad,CuDef*
%ADD39RoundRect,0.243750X-0.494975X-0.150260X-0.150260X-0.494975X0.494975X0.150260X0.150260X0.494975X0*%
G04 #@! TD*
G04 #@! TA.AperFunction,SMDPad,CuDef*
%ADD40RoundRect,0.243750X0.494975X0.150260X0.150260X0.494975X-0.494975X-0.150260X-0.150260X-0.494975X0*%
G04 #@! TD*
G04 #@! TA.AperFunction,SMDPad,CuDef*
%ADD41RoundRect,0.135000X0.185000X-0.135000X0.185000X0.135000X-0.185000X0.135000X-0.185000X-0.135000X0*%
G04 #@! TD*
G04 #@! TA.AperFunction,SMDPad,CuDef*
%ADD42R,0.400000X0.900000*%
G04 #@! TD*
G04 #@! TA.AperFunction,SMDPad,CuDef*
%ADD43R,0.900000X0.400000*%
G04 #@! TD*
G04 #@! TA.AperFunction,SMDPad,CuDef*
%ADD44RoundRect,0.075000X-0.441942X-0.548008X0.548008X0.441942X0.441942X0.548008X-0.548008X-0.441942X0*%
G04 #@! TD*
G04 #@! TA.AperFunction,SMDPad,CuDef*
%ADD45RoundRect,0.075000X0.441942X-0.548008X0.548008X-0.441942X-0.441942X0.548008X-0.548008X0.441942X0*%
G04 #@! TD*
G04 #@! TA.AperFunction,SMDPad,CuDef*
%ADD46RotRect,1.000000X1.800000X225.000000*%
G04 #@! TD*
G04 #@! TA.AperFunction,SMDPad,CuDef*
%ADD47RotRect,2.500000X1.800000X340.000000*%
G04 #@! TD*
G04 #@! TA.AperFunction,SMDPad,CuDef*
%ADD48RoundRect,0.250000X-1.075000X0.375000X-1.075000X-0.375000X1.075000X-0.375000X1.075000X0.375000X0*%
G04 #@! TD*
G04 #@! TA.AperFunction,SMDPad,CuDef*
%ADD49RoundRect,0.249999X-0.450001X0.262501X-0.450001X-0.262501X0.450001X-0.262501X0.450001X0.262501X0*%
G04 #@! TD*
G04 #@! TA.AperFunction,SMDPad,CuDef*
%ADD50RoundRect,0.218750X0.218750X0.256250X-0.218750X0.256250X-0.218750X-0.256250X0.218750X-0.256250X0*%
G04 #@! TD*
G04 #@! TA.AperFunction,SMDPad,CuDef*
%ADD51RoundRect,0.243750X0.456250X-0.243750X0.456250X0.243750X-0.456250X0.243750X-0.456250X-0.243750X0*%
G04 #@! TD*
G04 #@! TA.AperFunction,SMDPad,CuDef*
%ADD52RoundRect,0.218750X-0.026517X0.335876X-0.335876X0.026517X0.026517X-0.335876X0.335876X-0.026517X0*%
G04 #@! TD*
G04 #@! TA.AperFunction,SMDPad,CuDef*
%ADD53RoundRect,0.243750X0.243750X0.456250X-0.243750X0.456250X-0.243750X-0.456250X0.243750X-0.456250X0*%
G04 #@! TD*
G04 #@! TA.AperFunction,SMDPad,CuDef*
%ADD54R,0.250000X0.700000*%
G04 #@! TD*
G04 #@! TA.AperFunction,SMDPad,CuDef*
%ADD55R,2.350000X1.780000*%
G04 #@! TD*
G04 #@! TA.AperFunction,SMDPad,CuDef*
%ADD56RoundRect,0.250000X-0.250000X-0.250000X0.250000X-0.250000X0.250000X0.250000X-0.250000X0.250000X0*%
G04 #@! TD*
G04 #@! TA.AperFunction,SMDPad,CuDef*
%ADD57RoundRect,0.250000X0.250000X-0.250000X0.250000X0.250000X-0.250000X0.250000X-0.250000X-0.250000X0*%
G04 #@! TD*
G04 #@! TA.AperFunction,ViaPad*
%ADD58C,0.600000*%
G04 #@! TD*
G04 #@! TA.AperFunction,ViaPad*
%ADD59C,0.700000*%
G04 #@! TD*
G04 #@! TA.AperFunction,ViaPad*
%ADD60C,1.270000*%
G04 #@! TD*
G04 #@! TA.AperFunction,ViaPad*
%ADD61C,0.800000*%
G04 #@! TD*
G04 #@! TA.AperFunction,Conductor*
%ADD62C,0.254000*%
G04 #@! TD*
G04 #@! TA.AperFunction,Conductor*
%ADD63C,0.200000*%
G04 #@! TD*
G04 #@! TA.AperFunction,Conductor*
%ADD64C,0.203200*%
G04 #@! TD*
G04 #@! TA.AperFunction,Conductor*
%ADD65C,0.457200*%
G04 #@! TD*
G04 #@! TA.AperFunction,Conductor*
%ADD66C,1.016000*%
G04 #@! TD*
G04 #@! TA.AperFunction,Conductor*
%ADD67C,0.508000*%
G04 #@! TD*
G04 #@! TA.AperFunction,Conductor*
%ADD68C,1.270000*%
G04 #@! TD*
G04 APERTURE END LIST*
D10*
X77927200Y-121869200D03*
D11*
X80525276Y-120369200D03*
D12*
X75960000Y-81770000D03*
D13*
X77230000Y-81770000D03*
X75960000Y-80500000D03*
X77230000Y-80500000D03*
X75960000Y-79230000D03*
X77230000Y-79230000D03*
X75960000Y-77960000D03*
X77230000Y-77960000D03*
X75960000Y-76690000D03*
X77230000Y-76690000D03*
D14*
X74193400Y-113715800D03*
D11*
X77012478Y-112689740D03*
D15*
X89738200Y-136169400D03*
D11*
X91666563Y-133871267D03*
D16*
X153162000Y-68389500D03*
D11*
X153162000Y-65389500D03*
D17*
X161480500Y-129413000D03*
X149034500Y-129667000D03*
X103187500Y-140843000D03*
D18*
X82753200Y-129565400D03*
D11*
X85051333Y-127637037D03*
D17*
X129222500Y-149796500D03*
D19*
X119430800Y-48768000D03*
D11*
X122430800Y-48768000D03*
X119430800Y-51768000D03*
X122430800Y-51768000D03*
D20*
X145304048Y-57261183D03*
X146081865Y-58039000D03*
X146859683Y-58816817D03*
X147637500Y-59594635D03*
X148415317Y-60372452D03*
X146081865Y-56483365D03*
X146859683Y-57261183D03*
X147637500Y-58039000D03*
D21*
X147637500Y-58039000D03*
D20*
X148415317Y-58816817D03*
X149193135Y-59594635D03*
X146859683Y-55705548D03*
X147637500Y-56483365D03*
X148415317Y-57261183D03*
X149193135Y-58039000D03*
X149970952Y-58816817D03*
D22*
X118394800Y-58032800D03*
X123494800Y-59232800D03*
X97663000Y-140652500D03*
X98863000Y-135552500D03*
D17*
X155511500Y-129603500D03*
D23*
X109000000Y-131000000D03*
D11*
X106878680Y-133121320D03*
D24*
X89217500Y-64198500D03*
D25*
X89217500Y-120078500D03*
D26*
X87000000Y-89070000D03*
X88900000Y-89070000D03*
D27*
X94021751Y-70901751D03*
X92678249Y-69558249D03*
D28*
X111455200Y-48564800D03*
D29*
X109068381Y-49433531D03*
X106681561Y-50302262D03*
X104294742Y-51170993D03*
X101907923Y-52039725D03*
X99521104Y-52908456D03*
D30*
X109016800Y-147142200D03*
D11*
X109793257Y-144244423D03*
D31*
X136390000Y-54740000D03*
D24*
X131390000Y-54740000D03*
D23*
X100800000Y-122400000D03*
D11*
X102921320Y-124521320D03*
X98678680Y-124521320D03*
X100800000Y-126642641D03*
D32*
X84772500Y-116840000D03*
X84772500Y-118715000D03*
X86741000Y-116870000D03*
X86741000Y-118745000D03*
D33*
X88978500Y-115443000D03*
X90853500Y-115443000D03*
D34*
X90995500Y-89598500D03*
X92109194Y-88484806D03*
D35*
X135890000Y-141097000D03*
X135890000Y-138297000D03*
D36*
X119570500Y-145618000D03*
X119570500Y-147193000D03*
D37*
X83312000Y-112712500D03*
X81412000Y-112712500D03*
X82362000Y-110712500D03*
D38*
X82994500Y-114432000D03*
X82994500Y-116332000D03*
X80994500Y-115382000D03*
D33*
X81422000Y-108839000D03*
X83297000Y-108839000D03*
D32*
X126339600Y-66270900D03*
X126339600Y-68145900D03*
D39*
X142085087Y-59027087D03*
X143410913Y-60352913D03*
D40*
X85770275Y-65601157D03*
X84444449Y-64275331D03*
D36*
X151511000Y-139395000D03*
X151511000Y-140970000D03*
D41*
X153162000Y-140311500D03*
X153162000Y-139291500D03*
D42*
X90570000Y-101624500D03*
X89770000Y-101624500D03*
X89770000Y-99924500D03*
X90570000Y-99924500D03*
D43*
X80342000Y-69570500D03*
X80342000Y-68770500D03*
X82042000Y-68770500D03*
X82042000Y-69570500D03*
D44*
X87284819Y-86801481D03*
X86931266Y-86447928D03*
X86577713Y-86094375D03*
X86224159Y-85740821D03*
X85870606Y-85387268D03*
X85517052Y-85033714D03*
X85163499Y-84680161D03*
X84809946Y-84326608D03*
X84456392Y-83973054D03*
X84102839Y-83619501D03*
X83749286Y-83265948D03*
X83395732Y-82912394D03*
X83042179Y-82558841D03*
X82688625Y-82205287D03*
X82335072Y-81851734D03*
X81981519Y-81498181D03*
D45*
X81981519Y-78775819D03*
X82335072Y-78422266D03*
X82688625Y-78068713D03*
X83042179Y-77715159D03*
X83395732Y-77361606D03*
X83749286Y-77008052D03*
X84102839Y-76654499D03*
X84456392Y-76300946D03*
X84809946Y-75947392D03*
X85163499Y-75593839D03*
X85517052Y-75240286D03*
X85870606Y-74886732D03*
X86224159Y-74533179D03*
X86577713Y-74179625D03*
X86931266Y-73826072D03*
X87284819Y-73472519D03*
D44*
X90007181Y-73472519D03*
X90360734Y-73826072D03*
X90714287Y-74179625D03*
X91067841Y-74533179D03*
X91421394Y-74886732D03*
X91774948Y-75240286D03*
X92128501Y-75593839D03*
X92482054Y-75947392D03*
X92835608Y-76300946D03*
X93189161Y-76654499D03*
X93542714Y-77008052D03*
X93896268Y-77361606D03*
X94249821Y-77715159D03*
X94603375Y-78068713D03*
X94956928Y-78422266D03*
X95310481Y-78775819D03*
D45*
X95310481Y-81498181D03*
X94956928Y-81851734D03*
X94603375Y-82205287D03*
X94249821Y-82558841D03*
X93896268Y-82912394D03*
X93542714Y-83265948D03*
X93189161Y-83619501D03*
X92835608Y-83973054D03*
X92482054Y-84326608D03*
X92128501Y-84680161D03*
X91774948Y-85033714D03*
X91421394Y-85387268D03*
X91067841Y-85740821D03*
X90714287Y-86094375D03*
X90360734Y-86447928D03*
X90007181Y-86801481D03*
D46*
X93350117Y-87370883D03*
X95117883Y-85603117D03*
D47*
X106578615Y-138063460D03*
X110337385Y-139431540D03*
D48*
X131254500Y-143821500D03*
X131254500Y-146621500D03*
X116865400Y-142386400D03*
X116865400Y-145186400D03*
D49*
X117792500Y-132983500D03*
X117792500Y-134808500D03*
D32*
X152908000Y-59791600D03*
X152908000Y-61666600D03*
X155143200Y-59791600D03*
X155143200Y-61666600D03*
D39*
X145415000Y-62293500D03*
X146740826Y-63619326D03*
D32*
X87185500Y-105727500D03*
X87185500Y-107602500D03*
D50*
X78097500Y-73950000D03*
X76522500Y-73950000D03*
D51*
X121564400Y-67942700D03*
X121564400Y-66067700D03*
D52*
X97394347Y-83326653D03*
X96280653Y-84440347D03*
D53*
X89281000Y-109474000D03*
X87406000Y-109474000D03*
D32*
X85217000Y-104741500D03*
X85217000Y-106616500D03*
D54*
X87412500Y-114630000D03*
X87012500Y-114630000D03*
X86612500Y-114630000D03*
X86212500Y-114630000D03*
X85812500Y-114630000D03*
X85412500Y-114630000D03*
X85012500Y-114630000D03*
X85012500Y-111680000D03*
X85412500Y-111680000D03*
X85812500Y-111680000D03*
X86212500Y-111680000D03*
X86612500Y-111680000D03*
X87012500Y-111680000D03*
X87412500Y-111680000D03*
D55*
X86212500Y-113155000D03*
D56*
X89102500Y-112220000D03*
X91602500Y-112220000D03*
D57*
X89210000Y-107630000D03*
X89210000Y-105130000D03*
X83160000Y-105467500D03*
X83160000Y-102967500D03*
D58*
X86090000Y-88090000D03*
D59*
X119888000Y-141287500D03*
X128270000Y-141541500D03*
X87757000Y-117665500D03*
D60*
X78105000Y-89979500D03*
D58*
X86212500Y-113155000D03*
X86212500Y-113155000D03*
D59*
X91634483Y-71400320D03*
X131254500Y-148209000D03*
X155575000Y-138493500D03*
D61*
X157276800Y-61214000D03*
X79818251Y-78506989D03*
D58*
X123761500Y-147510500D03*
D60*
X71374000Y-86931500D03*
D59*
X153098500Y-133858000D03*
X91376500Y-87630000D03*
X82042000Y-107315000D03*
X122682000Y-150558500D03*
D58*
X86212500Y-113155000D03*
D59*
X148907500Y-143764000D03*
X116903500Y-147002500D03*
D61*
X133159500Y-136779000D03*
X89979500Y-90678000D03*
X130048000Y-135953500D03*
X98042039Y-81718130D03*
D59*
X121361200Y-64719200D03*
D58*
X86212500Y-113155000D03*
D59*
X91186000Y-116903500D03*
X147002500Y-65405000D03*
X94437200Y-58674000D03*
D61*
X89890590Y-104300068D03*
X115620800Y-134620000D03*
D59*
X82105500Y-101600000D03*
X98602800Y-78689200D03*
D61*
X80010000Y-81020000D03*
D58*
X92577289Y-111830000D03*
D59*
X119253000Y-148272500D03*
X89923910Y-78134148D03*
X124968000Y-149542500D03*
X129349500Y-131318000D03*
X130873500Y-131318000D03*
X121412000Y-146240500D03*
D60*
X121663600Y-132717400D03*
D59*
X121920000Y-134747000D03*
D60*
X125727600Y-132717400D03*
X153162000Y-56642000D03*
D59*
X118237000Y-131445000D03*
X116586000Y-131445000D03*
X151028400Y-55067200D03*
D61*
X140411200Y-59740800D03*
D59*
X93154500Y-81407000D03*
X126644400Y-64820800D03*
X83439000Y-68326000D03*
D61*
X140652500Y-141224000D03*
X143510000Y-141224000D03*
X80781817Y-78089801D03*
X138557000Y-141224000D03*
D59*
X97000000Y-64000000D03*
D58*
X88590000Y-78010000D03*
D61*
X133413500Y-140208000D03*
D60*
X80708500Y-86931500D03*
D59*
X87934800Y-67259200D03*
D58*
X86868000Y-99949000D03*
D61*
X129489200Y-59791600D03*
D59*
X92571445Y-72145066D03*
X87782400Y-61010800D03*
X119189500Y-143954500D03*
X118999000Y-142367000D03*
X128587500Y-142938500D03*
X128651000Y-144335500D03*
X149479000Y-137033000D03*
X83439000Y-118808500D03*
X133667500Y-143573500D03*
X120650000Y-146862800D03*
D60*
X125349000Y-139319000D03*
X122047000Y-139382500D03*
D59*
X78105000Y-70294500D03*
X79692500Y-67500500D03*
X85699600Y-70561200D03*
X85191600Y-67614800D03*
X84312500Y-110075379D03*
X102616000Y-56337200D03*
X104241600Y-55676800D03*
D58*
X106800000Y-60800000D03*
D59*
X94425114Y-118830604D03*
D61*
X94869000Y-88265000D03*
D59*
X87071200Y-80314800D03*
D61*
X93628888Y-88939703D03*
D59*
X85762340Y-80745840D03*
X92563990Y-92710000D03*
D58*
X92563990Y-110301138D03*
D59*
X83988491Y-80552205D03*
X100463212Y-79632188D03*
X142036800Y-57353200D03*
X93228678Y-79112235D03*
D58*
X79390000Y-74320000D03*
X80090000Y-75240000D03*
X85657835Y-77290256D03*
D59*
X94100051Y-74472800D03*
X82433445Y-97295025D03*
X94488000Y-98107500D03*
X84487510Y-89269385D03*
X91122500Y-96837500D03*
X83883500Y-99187000D03*
X88455500Y-101981000D03*
X91541600Y-77724000D03*
X101808950Y-77783540D03*
X143865600Y-55270400D03*
X92303600Y-78435200D03*
X100228400Y-78740000D03*
X134984905Y-62280894D03*
X87377987Y-84338523D03*
X94945200Y-73761600D03*
X102574073Y-76012599D03*
X133663600Y-63099291D03*
X139039600Y-61468000D03*
X95910400Y-87477600D03*
X91033600Y-83312000D03*
X144466666Y-61408666D03*
X114500000Y-59000000D03*
X93853000Y-79819500D03*
X96000000Y-73000000D03*
X89850545Y-80706545D03*
X141080783Y-60863990D03*
X97155000Y-85534500D03*
X90482445Y-82455713D03*
D58*
X85390000Y-78350000D03*
D59*
X97028000Y-72288400D03*
X116000000Y-66500000D03*
X151257000Y-142113000D03*
D58*
X86792261Y-116822359D03*
X87051473Y-115469801D03*
D59*
X87829992Y-110970004D03*
X83947000Y-110998000D03*
X83870439Y-115518839D03*
D62*
X91634483Y-70602015D02*
X92678249Y-69558249D01*
X91634483Y-71400320D02*
X91634483Y-70602015D01*
X92778436Y-72145066D02*
X94021751Y-70901751D01*
X92571445Y-72145066D02*
X92778436Y-72145066D01*
D63*
X87000000Y-89000000D02*
X86090000Y-88090000D01*
X87000000Y-89070000D02*
X87000000Y-89000000D01*
X89936500Y-89070000D02*
X91376500Y-87630000D01*
X88900000Y-89070000D02*
X89936500Y-89070000D01*
X87000000Y-88288382D02*
X87000000Y-89070000D01*
X89789810Y-85877004D02*
X89411378Y-85877004D01*
X89411378Y-85877004D02*
X87000000Y-88288382D01*
X90360734Y-86447928D02*
X89789810Y-85877004D01*
D64*
X81981519Y-78775819D02*
X81950819Y-78775819D01*
X91551412Y-87455088D02*
X91376500Y-87630000D01*
D62*
X91158576Y-73028230D02*
X91158576Y-71876227D01*
X91158576Y-71876227D02*
X91634483Y-71400320D01*
D65*
X146740826Y-65143326D02*
X147002500Y-65405000D01*
D64*
X97394347Y-83326653D02*
X97394347Y-82365822D01*
D66*
X134677500Y-138297000D02*
X133159500Y-136779000D01*
D64*
X92187289Y-112220000D02*
X92577289Y-111830000D01*
X90995500Y-89662000D02*
X89979500Y-90678000D01*
D66*
X116865400Y-146964400D02*
X116903500Y-147002500D01*
D63*
X85012500Y-113897500D02*
X85755000Y-113155000D01*
D67*
X84802500Y-118745000D02*
X84772500Y-118715000D01*
D63*
X87012500Y-114630000D02*
X87012500Y-113955000D01*
D65*
X156824200Y-61666600D02*
X157276800Y-61214000D01*
X146740826Y-63619326D02*
X146740826Y-65143326D01*
D67*
X90853500Y-116571000D02*
X91186000Y-116903500D01*
D64*
X91551412Y-86931500D02*
X91551412Y-87455088D01*
X121564400Y-64922400D02*
X121361200Y-64719200D01*
D65*
X155143200Y-61666600D02*
X156824200Y-61666600D01*
D66*
X116865400Y-145186400D02*
X116865400Y-146964400D01*
D67*
X87757000Y-117665500D02*
X87376000Y-118745000D01*
D62*
X80209130Y-78897868D02*
X79818251Y-78506989D01*
D66*
X153162000Y-139014000D02*
X155054500Y-139014000D01*
X155054500Y-139014000D02*
X155575000Y-138493500D01*
D62*
X83185000Y-103060500D02*
X83185000Y-102679500D01*
D63*
X85012500Y-114630000D02*
X85012500Y-113897500D01*
D62*
X81950819Y-78775819D02*
X81828770Y-78897868D01*
X90360734Y-73826072D02*
X91158576Y-73028230D01*
D65*
X89217500Y-104973158D02*
X89890590Y-104300068D01*
D63*
X87012500Y-113955000D02*
X86212500Y-113155000D01*
D66*
X135890000Y-138297000D02*
X134677500Y-138297000D01*
X116014500Y-134683500D02*
X115887500Y-134556500D01*
D64*
X90995500Y-89598500D02*
X90995500Y-89662000D01*
D62*
X83297000Y-108839000D02*
X83297000Y-108570000D01*
X81828770Y-78897868D02*
X80209130Y-78897868D01*
X83297000Y-108570000D02*
X82042000Y-107315000D01*
D66*
X117792500Y-134683500D02*
X116014500Y-134683500D01*
D65*
X89217500Y-105176000D02*
X89217500Y-104973158D01*
D62*
X83185000Y-102679500D02*
X82105500Y-101600000D01*
D66*
X131254500Y-146621500D02*
X131254500Y-148209000D01*
D64*
X90714287Y-86094375D02*
X91551412Y-86931500D01*
X91602500Y-112220000D02*
X92187289Y-112220000D01*
X121564400Y-66067700D02*
X121564400Y-64922400D01*
D67*
X87376000Y-118745000D02*
X86741000Y-118745000D01*
D63*
X85755000Y-113155000D02*
X86212500Y-113155000D01*
D67*
X90853500Y-115443000D02*
X90853500Y-116571000D01*
X86741000Y-118745000D02*
X84802500Y-118745000D01*
D64*
X97394347Y-82365822D02*
X98042039Y-81718130D01*
D62*
X84264500Y-116332000D02*
X84772500Y-116840000D01*
D63*
X85812500Y-115800000D02*
X84772500Y-116840000D01*
D62*
X82994500Y-116332000D02*
X84264500Y-116332000D01*
D63*
X85812500Y-114630000D02*
X85812500Y-115800000D01*
D62*
X121412000Y-146240500D02*
X124714000Y-149542500D01*
D66*
X155143200Y-59791600D02*
X152908000Y-59791600D01*
D62*
X119570500Y-145618000D02*
X120789500Y-145618000D01*
D66*
X117792500Y-133108500D02*
X117792500Y-131889500D01*
D62*
X124714000Y-149542500D02*
X124968000Y-149542500D01*
X120789500Y-145618000D02*
X121412000Y-146240500D01*
D66*
X117792500Y-131889500D02*
X118237000Y-131445000D01*
D67*
X121005599Y-145834099D02*
X121005599Y-135661401D01*
D66*
X153162000Y-59537600D02*
X152908000Y-59791600D01*
X153162000Y-56642000D02*
X153162000Y-59537600D01*
D67*
X121412000Y-146240500D02*
X121005599Y-145834099D01*
X121005599Y-135661401D02*
X121920000Y-134747000D01*
D62*
X151028400Y-55067200D02*
X151841200Y-55880000D01*
X151841200Y-55880000D02*
X151841200Y-60599800D01*
X151841200Y-60599800D02*
X152908000Y-61666600D01*
X151689000Y-139395000D02*
X151511000Y-139395000D01*
D64*
X87351500Y-99924500D02*
X89770000Y-99924500D01*
X85770275Y-65601157D02*
X87428318Y-67259200D01*
X126339600Y-66270900D02*
X126339600Y-65125600D01*
D62*
X92571445Y-72322467D02*
X92571445Y-72145066D01*
D64*
X82042000Y-69570500D02*
X82042000Y-68770500D01*
X86868000Y-99949000D02*
X87351500Y-99924500D01*
D65*
X140467026Y-59684974D02*
X140411200Y-59740800D01*
D62*
X82335072Y-78422266D02*
X81730445Y-77817639D01*
D64*
X87428318Y-67259200D02*
X87934800Y-67259200D01*
D62*
X90714287Y-74179625D02*
X92571445Y-72322467D01*
X155511500Y-129603500D02*
X154622500Y-129603500D01*
X152407590Y-138676410D02*
X151689000Y-139395000D01*
D64*
X93154500Y-81463520D02*
X94249821Y-82558841D01*
D65*
X141427200Y-59684974D02*
X140467026Y-59684974D01*
D64*
X93154500Y-81407000D02*
X93154500Y-81463520D01*
X126339600Y-65125600D02*
X126644400Y-64820800D01*
D66*
X133413500Y-140208000D02*
X135001000Y-140208000D01*
X135001000Y-140208000D02*
X135890000Y-141097000D01*
D62*
X81730445Y-77817639D02*
X81053979Y-77817639D01*
D64*
X82994500Y-68770500D02*
X83439000Y-68326000D01*
D62*
X154622500Y-129603500D02*
X152407590Y-131818410D01*
D66*
X138430000Y-141097000D02*
X138557000Y-141224000D01*
D64*
X90570000Y-99924500D02*
X89770000Y-99924500D01*
D65*
X142085087Y-59027087D02*
X141427200Y-59684974D01*
D62*
X152407590Y-131818410D02*
X152407590Y-138676410D01*
D64*
X82042000Y-68770500D02*
X82994500Y-68770500D01*
D67*
X151511000Y-139395000D02*
X145339000Y-139395000D01*
D66*
X135890000Y-141097000D02*
X138430000Y-141097000D01*
D67*
X145339000Y-139395000D02*
X143510000Y-141224000D01*
D62*
X81053979Y-77817639D02*
X80781817Y-78089801D01*
D64*
X92109194Y-88484806D02*
X92236194Y-88484806D01*
X93350117Y-85920617D02*
X93350117Y-87370883D01*
X92128501Y-84680161D02*
X92128501Y-84699001D01*
X92128501Y-84699001D02*
X93350117Y-85920617D01*
X92236194Y-88484806D02*
X93350117Y-87370883D01*
X92482054Y-84354054D02*
X93731117Y-85603117D01*
X95117883Y-85603117D02*
X96280653Y-84440347D01*
X93731117Y-85603117D02*
X95117883Y-85603117D01*
X92482054Y-84326608D02*
X92482054Y-84354054D01*
D63*
X78097500Y-73012500D02*
X78600000Y-72510000D01*
X83042179Y-77715159D02*
X82017020Y-76690000D01*
X80753600Y-72510000D02*
X80924500Y-72339100D01*
D64*
X84444449Y-64275331D02*
X87708980Y-61010800D01*
D63*
X77230000Y-74817500D02*
X78097500Y-73950000D01*
D64*
X84444449Y-68819151D02*
X84444449Y-64275331D01*
D63*
X77230000Y-76690000D02*
X77230000Y-74817500D01*
X82017020Y-76690000D02*
X77230000Y-76690000D01*
X78600000Y-72510000D02*
X80753600Y-72510000D01*
D64*
X87708980Y-61010800D02*
X87782400Y-61010800D01*
D63*
X78097500Y-73950000D02*
X78097500Y-73012500D01*
D64*
X80924500Y-72339100D02*
X84444449Y-68819151D01*
D66*
X131502500Y-143573500D02*
X131254500Y-143821500D01*
X116865400Y-142386400D02*
X118979600Y-142386400D01*
X118979600Y-142386400D02*
X118999000Y-142367000D01*
X131254500Y-143821500D02*
X129470500Y-143821500D01*
X129470500Y-143821500D02*
X128587500Y-142938500D01*
X119189500Y-143954500D02*
X118433500Y-143954500D01*
X118433500Y-143954500D02*
X116865400Y-142386400D01*
X128651000Y-144335500D02*
X130740500Y-144335500D01*
X130740500Y-144335500D02*
X131254500Y-143821500D01*
D68*
X103799075Y-140843000D02*
X106578615Y-138063460D01*
X103187500Y-140843000D02*
X103799075Y-140843000D01*
D62*
X80994500Y-115382000D02*
X80994500Y-114728000D01*
X80994500Y-114728000D02*
X78956240Y-112689740D01*
D66*
X133667500Y-143573500D02*
X131502500Y-143573500D01*
D62*
X78956240Y-112689740D02*
X78073138Y-112689740D01*
X78073138Y-112689740D02*
X77012478Y-112689740D01*
X120650000Y-146862800D02*
X119761000Y-147002500D01*
X119761000Y-147002500D02*
X119570500Y-147193000D01*
D68*
X110337385Y-143700295D02*
X109793257Y-144244423D01*
X110337385Y-139431540D02*
X110337385Y-143700295D01*
D64*
X78829000Y-69570500D02*
X78105000Y-70294500D01*
X80342000Y-69570500D02*
X78829000Y-69570500D01*
X80342000Y-68150000D02*
X79692500Y-67500500D01*
X80342000Y-68770500D02*
X80342000Y-68150000D01*
X85700695Y-70816295D02*
X85699600Y-70815200D01*
X85699600Y-70815200D02*
X85699600Y-70561200D01*
X86224159Y-74533179D02*
X85700695Y-74009715D01*
X85700695Y-74009715D02*
X85700695Y-70816295D01*
X85870606Y-74886732D02*
X85802157Y-74886732D01*
X84734400Y-69646800D02*
X85191600Y-69189600D01*
X85870606Y-74886732D02*
X84734400Y-73750526D01*
X84734400Y-73750526D02*
X84734400Y-69646800D01*
X85191600Y-69189600D02*
X85191600Y-67614800D01*
D62*
X83653121Y-110075379D02*
X84312500Y-110075379D01*
X83016000Y-110712500D02*
X83653121Y-110075379D01*
X82362000Y-110712500D02*
X83016000Y-110712500D01*
D64*
X87284819Y-71414381D02*
X87284819Y-73472519D01*
X102616000Y-56337200D02*
X87284819Y-71414381D01*
X90007181Y-69911219D02*
X104241600Y-55676800D01*
X90007181Y-73472519D02*
X90007181Y-69911219D01*
X86407801Y-73302607D02*
X86407801Y-71471475D01*
X86407801Y-71471475D02*
X106681561Y-51197715D01*
X86931266Y-73826072D02*
X86407801Y-73302607D01*
X106681561Y-51197715D02*
X106681561Y-50302262D01*
D67*
X106800000Y-60800000D02*
X121927600Y-60800000D01*
X121927600Y-60800000D02*
X123494800Y-59232800D01*
D64*
X87071200Y-80619600D02*
X87071200Y-80314800D01*
X93662500Y-110393830D02*
X94106989Y-110838319D01*
X83261148Y-81632764D02*
X83638646Y-81632764D01*
X93662500Y-90037185D02*
X93662500Y-110393830D01*
X84424207Y-81738166D02*
X84480551Y-81681823D01*
X94869000Y-88830685D02*
X93662500Y-90037185D01*
X85441023Y-81681823D02*
X86008977Y-81681823D01*
X94106989Y-118512479D02*
X94425114Y-118830604D01*
X84480551Y-81681823D02*
X85441023Y-81681823D01*
X83638646Y-81632764D02*
X83744048Y-81738166D01*
X94869000Y-88265000D02*
X94869000Y-88830685D01*
X82688625Y-82205287D02*
X83261148Y-81632764D01*
X85441023Y-81681823D02*
X85609846Y-81681823D01*
X94106989Y-110838319D02*
X94106989Y-118512479D01*
X83744048Y-81738166D02*
X84424207Y-81738166D01*
X86008977Y-81681823D02*
X87071200Y-80619600D01*
X93228889Y-119360091D02*
X93655199Y-119786401D01*
X82335072Y-81851734D02*
X82957242Y-81229564D01*
X93628888Y-88939703D02*
X93228889Y-89339702D01*
X84846323Y-80745840D02*
X85762340Y-80745840D01*
X93655199Y-119786401D02*
X93655199Y-123455199D01*
X83911059Y-81334966D02*
X84257197Y-81334966D01*
X93228889Y-89339702D02*
X93228889Y-119360091D01*
X83805656Y-81229564D02*
X83911059Y-81334966D01*
X84257197Y-81334966D02*
X84846323Y-80745840D01*
X94721320Y-124521320D02*
X98678680Y-124521320D01*
X93655199Y-123455199D02*
X94721320Y-124521320D01*
X82957242Y-81229564D02*
X83805656Y-81229564D01*
X82715363Y-80552205D02*
X83988491Y-80552205D01*
X81981519Y-81286049D02*
X82715363Y-80552205D01*
X92563990Y-110301138D02*
X92563990Y-92710000D01*
X81981519Y-81498181D02*
X81981519Y-81286049D01*
X142036800Y-57353200D02*
X141330692Y-57353200D01*
X105618303Y-75031589D02*
X105415102Y-75031589D01*
X129288461Y-69395431D02*
X120607374Y-69395431D01*
X141330692Y-57353200D02*
X129288461Y-69395431D01*
X87993045Y-83471845D02*
X92019902Y-79412234D01*
X111460302Y-69189589D02*
X105618303Y-75031589D01*
X120607374Y-69395431D02*
X120401532Y-69189589D01*
X100814503Y-79632188D02*
X100463212Y-79632188D01*
X120401532Y-69189589D02*
X111460302Y-69189589D01*
X85517052Y-85033714D02*
X86040516Y-84510250D01*
X87114555Y-83471845D02*
X87993045Y-83471845D01*
X92928679Y-79412234D02*
X93228678Y-79112235D01*
X86040516Y-84510250D02*
X86076150Y-84510250D01*
X105415102Y-75031589D02*
X100814503Y-79632188D01*
X86076150Y-84510250D02*
X87114555Y-83471845D01*
X92019902Y-79412234D02*
X92928679Y-79412234D01*
D63*
X83749286Y-77008052D02*
X81061234Y-74320000D01*
X81061234Y-74320000D02*
X79390000Y-74320000D01*
D64*
X78000000Y-83500000D02*
X78010000Y-83510000D01*
X74170000Y-79750000D02*
X74170000Y-83060000D01*
X75960000Y-77960000D02*
X74170000Y-79750000D01*
X78940000Y-82580000D02*
X78940000Y-80572000D01*
X82740500Y-79692500D02*
X83212090Y-79220910D01*
X79819500Y-79692500D02*
X82740500Y-79692500D01*
X78940000Y-80572000D02*
X79819500Y-79692500D01*
X83212090Y-79220910D02*
X83212090Y-78592178D01*
X78010000Y-83510000D02*
X78940000Y-82580000D01*
X74170000Y-83060000D02*
X74610000Y-83500000D01*
X83212090Y-78592178D02*
X82688625Y-78068713D01*
X74610000Y-83500000D02*
X78000000Y-83500000D01*
D63*
X81274126Y-75240000D02*
X80090000Y-75240000D01*
X83395732Y-77361606D02*
X81274126Y-75240000D01*
X77230000Y-79230000D02*
X77449239Y-79230000D01*
X85445702Y-77290256D02*
X85657835Y-77290256D01*
X84456392Y-76300946D02*
X85445702Y-77290256D01*
D64*
X94100051Y-74472800D02*
X93800052Y-74486346D01*
X92528888Y-74486346D02*
X91774948Y-75240286D01*
X93800052Y-74486346D02*
X92528888Y-74486346D01*
D62*
X129222500Y-149796500D02*
X129222500Y-150304500D01*
X94488000Y-111125000D02*
X94488000Y-98107500D01*
X82433445Y-96870761D02*
X82433445Y-97295025D01*
X112099229Y-150072229D02*
X112099229Y-128736229D01*
X129222500Y-150304500D02*
X128270000Y-151257000D01*
X128270000Y-151257000D02*
X113284000Y-151257000D01*
X82433445Y-87410215D02*
X82433445Y-96870761D01*
X85163499Y-84680161D02*
X82433445Y-87410215D01*
X112099229Y-128736229D02*
X94488000Y-111125000D01*
X113284000Y-151257000D02*
X112099229Y-150072229D01*
X90570000Y-101624500D02*
X90570000Y-108185000D01*
D64*
X84487510Y-87477470D02*
X86224159Y-85740821D01*
X84487510Y-89269385D02*
X84487510Y-87477470D01*
X91122500Y-101072000D02*
X91122500Y-96837500D01*
X90570000Y-101624500D02*
X91122500Y-101072000D01*
D62*
X90570000Y-108185000D02*
X89281000Y-109474000D01*
D64*
X83883500Y-87374374D02*
X83883500Y-99187000D01*
X85870606Y-85387268D02*
X83883500Y-87374374D01*
X89413500Y-101981000D02*
X89770000Y-101624500D01*
X88455500Y-101981000D02*
X89413500Y-101981000D01*
X89770000Y-101624500D02*
X89770000Y-103143000D01*
X89770000Y-103143000D02*
X87185500Y-105727500D01*
D62*
X85217000Y-87455088D02*
X86577713Y-86094375D01*
X85217000Y-104741500D02*
X85217000Y-87455088D01*
D64*
X142849600Y-55270400D02*
X129080180Y-69039820D01*
X102160242Y-77783540D02*
X101808950Y-77783540D01*
X111313004Y-68833978D02*
X105471005Y-74675978D01*
X105471005Y-74675978D02*
X105267804Y-74675978D01*
X105267804Y-74675978D02*
X102160242Y-77783540D01*
X120548830Y-68833978D02*
X111313004Y-68833978D01*
X86225467Y-82740425D02*
X90627452Y-78338440D01*
X120754672Y-69039820D02*
X120548830Y-68833978D01*
X90927160Y-78338440D02*
X91541600Y-77724000D01*
X90627452Y-78338440D02*
X90927160Y-78338440D01*
X83749286Y-83265948D02*
X84274809Y-82740425D01*
X84274809Y-82740425D02*
X86225467Y-82740425D01*
X129080180Y-69039820D02*
X120754672Y-69039820D01*
X143865600Y-55270400D02*
X142849600Y-55270400D01*
X125801291Y-68684209D02*
X120901970Y-68684209D01*
X126339600Y-68145900D02*
X129471192Y-68145900D01*
X111201233Y-68427567D02*
X105308433Y-74320367D01*
X120645328Y-68427567D02*
X111201233Y-68427567D01*
X100228400Y-78245026D02*
X100228400Y-78740000D01*
X134984905Y-62632187D02*
X134984905Y-62280894D01*
X91744800Y-78994000D02*
X90474800Y-78994000D01*
X84762052Y-83096036D02*
X86372764Y-83096036D01*
X120901970Y-68684209D02*
X120645328Y-68427567D01*
X86372764Y-83096036D02*
X90474800Y-78994000D01*
X105308433Y-74320367D02*
X105120506Y-74320367D01*
X101714659Y-76758767D02*
X100228400Y-78245026D01*
X129471192Y-68145900D02*
X134984905Y-62632187D01*
X84102839Y-83619501D02*
X84238587Y-83619501D01*
X92303600Y-78435200D02*
X91744800Y-78994000D01*
X126339600Y-68145900D02*
X125801291Y-68684209D01*
X84238587Y-83619501D02*
X84762052Y-83096036D01*
X105120506Y-74320367D02*
X102682106Y-76758767D01*
X102682106Y-76758767D02*
X101714659Y-76758767D01*
D62*
X94445133Y-83461259D02*
X94838567Y-83461259D01*
D64*
X91774948Y-85033714D02*
X91251483Y-84510249D01*
D62*
X95859346Y-82440480D02*
X95859346Y-82047046D01*
X93031530Y-82363530D02*
X92494311Y-81826311D01*
X93031530Y-82363530D02*
X93347404Y-82363530D01*
X93347404Y-82363530D02*
X93896268Y-82912394D01*
D64*
X92835608Y-83973054D02*
X92265500Y-83402946D01*
D62*
X95859346Y-82047046D02*
X95310481Y-81498181D01*
D64*
X92989890Y-82363530D02*
X93031530Y-82363530D01*
D62*
X93896268Y-82912394D02*
X94445133Y-83461259D01*
X90219168Y-81826311D02*
X87706956Y-84338523D01*
D64*
X91821000Y-83439000D02*
X92301554Y-83439000D01*
X92301554Y-83439000D02*
X92835608Y-83973054D01*
D62*
X94838567Y-83461259D02*
X95859346Y-82440480D01*
D64*
X91251483Y-84008517D02*
X91821000Y-83439000D01*
D62*
X92494311Y-81826311D02*
X90219168Y-81826311D01*
D64*
X91251483Y-84510249D02*
X91251483Y-84008517D01*
X92265500Y-83087920D02*
X92989890Y-82363530D01*
D62*
X87706956Y-84338523D02*
X87377987Y-84338523D01*
D64*
X92265500Y-83402946D02*
X92265500Y-83087920D01*
X105161136Y-73964756D02*
X104621916Y-73964756D01*
X104621916Y-73964756D02*
X102574073Y-76012599D01*
X94945200Y-73761600D02*
X93948899Y-73554010D01*
X126407809Y-63099291D02*
X133663600Y-63099291D01*
X93948899Y-73554010D02*
X93492274Y-74010635D01*
X121564400Y-67942700D02*
X126407809Y-63099291D01*
X121564400Y-67942700D02*
X111147664Y-67942700D01*
X93492274Y-74010635D02*
X92297491Y-74010635D01*
X111147664Y-67942700D02*
X109931156Y-69159208D01*
X109931156Y-69159208D02*
X109931156Y-69194736D01*
X92297491Y-74010635D02*
X91421394Y-74886732D01*
X109931156Y-69194736D02*
X105161136Y-73964756D01*
X105765602Y-75387198D02*
X111607600Y-69545200D01*
X120254234Y-69545200D02*
X120460076Y-69751042D01*
X95910400Y-87477600D02*
X96469200Y-86918800D01*
X90576400Y-83312000D02*
X91033600Y-83312000D01*
X88969354Y-84783147D02*
X89105253Y-84783147D01*
X98202983Y-83102217D02*
X98202983Y-82746617D01*
X138430000Y-61468000D02*
X139039600Y-61468000D01*
X87284819Y-86801481D02*
X87496950Y-86801481D01*
X98202983Y-82746617D02*
X105562400Y-75387200D01*
X105562400Y-75387200D02*
X105765602Y-75387198D01*
X98202983Y-83548997D02*
X98202983Y-83102217D01*
X111607600Y-69545200D02*
X120254234Y-69545200D01*
X87496950Y-86801481D02*
X87857343Y-86441088D01*
X120460076Y-69751042D02*
X130146958Y-69751042D01*
X88556253Y-85196248D02*
X88969354Y-84783147D01*
X89105253Y-84783147D02*
X90576400Y-83312000D01*
X87857343Y-86441088D02*
X87857343Y-86031057D01*
X130146958Y-69751042D02*
X138430000Y-61468000D01*
X87857343Y-86031057D02*
X88556253Y-85332147D01*
X96469200Y-85282780D02*
X98202983Y-83548997D01*
X88556253Y-85332147D02*
X88556253Y-85196248D01*
X96469200Y-86918800D02*
X96469200Y-85282780D01*
D65*
X143410913Y-60352913D02*
X144466666Y-61408666D01*
X144530166Y-61408666D02*
X144466666Y-61408666D01*
X144978174Y-62745674D02*
X144978174Y-62682174D01*
X145415000Y-62293500D02*
X144530166Y-61408666D01*
D64*
X114500000Y-59000000D02*
X114500000Y-58212878D01*
X114500000Y-58212878D02*
X122430800Y-50282078D01*
X122430800Y-50282078D02*
X122430800Y-48768000D01*
X93853000Y-79819500D02*
X94266800Y-79819500D01*
X94266800Y-79819500D02*
X95310481Y-78775819D01*
X94000000Y-73000000D02*
X96000000Y-73000000D01*
X91945996Y-73655024D02*
X93344976Y-73655024D01*
X91067841Y-74533179D02*
X91945996Y-73655024D01*
X93344976Y-73655024D02*
X94000000Y-73000000D01*
D62*
X84809946Y-84326608D02*
X85646763Y-83489791D01*
D64*
X99720400Y-82443309D02*
X111907300Y-70256409D01*
D62*
X98228383Y-84461117D02*
X97155000Y-85534500D01*
X86557779Y-83489791D02*
X89341025Y-80706545D01*
D64*
X98228383Y-84461117D02*
X99720400Y-82969100D01*
X111907300Y-70256409D02*
X131688364Y-70256409D01*
X131688364Y-70256409D02*
X141080783Y-60863990D01*
D62*
X85646763Y-83489791D02*
X86557779Y-83489791D01*
X89341025Y-80706545D02*
X89850545Y-80706545D01*
D64*
X99720400Y-82969100D02*
X99720400Y-82443309D01*
X87452673Y-85729618D02*
X90482445Y-82699846D01*
X87452673Y-85926521D02*
X87452673Y-85729618D01*
X86931266Y-86447928D02*
X87452673Y-85926521D01*
X90482445Y-82699846D02*
X90482445Y-82455713D01*
D63*
X86212500Y-115550067D02*
X86744933Y-116082500D01*
D67*
X88455500Y-116649500D02*
X88455500Y-116776500D01*
D68*
X88773000Y-117094000D02*
X89217500Y-117538500D01*
X89217500Y-117538500D02*
X89217500Y-120078500D01*
D63*
X86212500Y-114630000D02*
X86212500Y-115550067D01*
D66*
X88455500Y-116776500D02*
X88773000Y-117094000D01*
D63*
X86744933Y-116082500D02*
X87761500Y-116082500D01*
X87761500Y-116082500D02*
X88455500Y-116776500D01*
X85390000Y-77941660D02*
X84102839Y-76654499D01*
X85390000Y-78350000D02*
X85390000Y-77941660D01*
D64*
X97028000Y-72288400D02*
X97000000Y-74257874D01*
X97000000Y-74257874D02*
X93896268Y-77361606D01*
X98355835Y-73609145D02*
X94249821Y-77715159D01*
X109575545Y-69011910D02*
X109575545Y-69047438D01*
X109575545Y-69047438D02*
X105013838Y-73609145D01*
X112087455Y-66500000D02*
X109575545Y-69011910D01*
X116000000Y-66500000D02*
X112087455Y-66500000D01*
X105013838Y-73609145D02*
X98355835Y-73609145D01*
X151892000Y-140589000D02*
X151511000Y-140970000D01*
X151257000Y-142113000D02*
X151257000Y-141224000D01*
X151257000Y-141224000D02*
X151511000Y-140970000D01*
X153162000Y-140589000D02*
X151892000Y-140589000D01*
D63*
X86612500Y-115030828D02*
X87051473Y-115469801D01*
X86612500Y-114630000D02*
X86612500Y-115030828D01*
D64*
X86744000Y-116867000D02*
X86741000Y-116870000D01*
X88978500Y-115443000D02*
X88228500Y-115443000D01*
D63*
X87412500Y-114630000D02*
X87412500Y-114942500D01*
X87913000Y-115443000D02*
X88228500Y-115443000D01*
X87412500Y-114942500D02*
X87913000Y-115443000D01*
D64*
X83312000Y-113365700D02*
X83312000Y-112712500D01*
X83698501Y-113752201D02*
X83312000Y-113365700D01*
D63*
X85412500Y-114630000D02*
X85412500Y-115180000D01*
D64*
X84815799Y-115362501D02*
X83698501Y-114245203D01*
D63*
X85412500Y-115180000D02*
X85229999Y-115362501D01*
X85229999Y-115362501D02*
X84815799Y-115362501D01*
D64*
X83698501Y-114245203D02*
X83698501Y-113752201D01*
D62*
X83566000Y-110998000D02*
X83947000Y-110998000D01*
D63*
X87200000Y-110970000D02*
X87830000Y-110970000D01*
X87012500Y-111680000D02*
X87012500Y-111157500D01*
X87012500Y-111157500D02*
X87200000Y-110970000D01*
D62*
X81412000Y-108849000D02*
X81422000Y-108839000D01*
X81412000Y-112712500D02*
X81412000Y-108849000D01*
X83122099Y-111441901D02*
X83566000Y-110998000D01*
X81412000Y-112712500D02*
X81412000Y-112008500D01*
X81978599Y-111441901D02*
X83122099Y-111441901D01*
D64*
X81041000Y-109220000D02*
X81422000Y-108839000D01*
D62*
X81412000Y-112008500D02*
X81978599Y-111441901D01*
X83870439Y-115518839D02*
X83101822Y-114432000D01*
X83101822Y-114432000D02*
X82994500Y-114432000D01*
D63*
X85012500Y-111680000D02*
X85012500Y-106821000D01*
D64*
X84161000Y-105560500D02*
X85217000Y-106616500D01*
X83185000Y-105560500D02*
X84161000Y-105560500D01*
D63*
X85012500Y-106821000D02*
X85217000Y-106616500D01*
D65*
X89217500Y-107676000D02*
X87259000Y-107676000D01*
D63*
X86212500Y-108575500D02*
X86344000Y-108444000D01*
D64*
X87185500Y-107602500D02*
X86344000Y-108444000D01*
D63*
X86212500Y-111680000D02*
X86212500Y-108575500D01*
D65*
X87259000Y-107676000D02*
X87185500Y-107602500D01*
D63*
X88014000Y-109474000D02*
X88300000Y-109760000D01*
X86612500Y-110267500D02*
X86612500Y-111680000D01*
X88300000Y-109760000D02*
X88300000Y-109968732D01*
X88300000Y-109968732D02*
X89102500Y-110771232D01*
X87406000Y-109474000D02*
X86612500Y-110267500D01*
X87406000Y-109474000D02*
X88014000Y-109474000D01*
X89102500Y-110771232D02*
X89102500Y-112220000D01*
M02*
