G04 #@! TF.GenerationSoftware,KiCad,Pcbnew,(5.1.5)-3*
G04 #@! TF.CreationDate,2020-10-13T22:13:04-07:00*
G04 #@! TF.ProjectId,LCP_PowerControl,4c43505f-506f-4776-9572-436f6e74726f,rev?*
G04 #@! TF.SameCoordinates,Original*
G04 #@! TF.FileFunction,Legend,Top*
G04 #@! TF.FilePolarity,Positive*
%FSLAX46Y46*%
G04 Gerber Fmt 4.6, Leading zero omitted, Abs format (unit mm)*
G04 Created by KiCad (PCBNEW (5.1.5)-3) date 2020-10-13 22:13:04*
%MOMM*%
%LPD*%
G04 APERTURE LIST*
%ADD10C,0.120000*%
%ADD11C,0.300000*%
%ADD12C,0.150000*%
%ADD13C,0.500000*%
%ADD14C,0.100000*%
G04 APERTURE END LIST*
D10*
X89217500Y-118638500D02*
X89217500Y-116258500D01*
X89217500Y-65638500D02*
X89217500Y-68018500D01*
X95587500Y-116258500D02*
X95587500Y-68018500D01*
X82847500Y-116258500D02*
X95587500Y-116258500D01*
X82847500Y-68018500D02*
X82847500Y-116258500D01*
X95587500Y-68018500D02*
X82847500Y-68018500D01*
X112005000Y-63365582D02*
X113255000Y-63365582D01*
X112630000Y-63990582D02*
X112630000Y-62740582D01*
X115888000Y-50812500D02*
X116522000Y-50812500D01*
X115448000Y-50852500D02*
X116962000Y-50852500D01*
X115177000Y-50892500D02*
X117233000Y-50892500D01*
X114964000Y-50932500D02*
X117446000Y-50932500D01*
X114783000Y-50972500D02*
X117627000Y-50972500D01*
X114622000Y-51012500D02*
X117788000Y-51012500D01*
X114477000Y-51052500D02*
X117933000Y-51052500D01*
X114344000Y-51092500D02*
X118066000Y-51092500D01*
X114221000Y-51132500D02*
X118189000Y-51132500D01*
X114105000Y-51172500D02*
X118305000Y-51172500D01*
X113996000Y-51212500D02*
X118414000Y-51212500D01*
X113893000Y-51252500D02*
X118517000Y-51252500D01*
X113795000Y-51292500D02*
X118615000Y-51292500D01*
X113701000Y-51332500D02*
X118709000Y-51332500D01*
X113611000Y-51372500D02*
X118799000Y-51372500D01*
X113524000Y-51412500D02*
X118886000Y-51412500D01*
X113441000Y-51452500D02*
X118969000Y-51452500D01*
X113361000Y-51492500D02*
X119049000Y-51492500D01*
X113284000Y-51532500D02*
X119126000Y-51532500D01*
X113209000Y-51572500D02*
X119201000Y-51572500D01*
X113136000Y-51612500D02*
X119274000Y-51612500D01*
X113065000Y-51652500D02*
X119345000Y-51652500D01*
X112997000Y-51692500D02*
X119413000Y-51692500D01*
X112930000Y-51732500D02*
X119480000Y-51732500D01*
X112866000Y-51772500D02*
X119544000Y-51772500D01*
X112803000Y-51812500D02*
X119607000Y-51812500D01*
X112741000Y-51852500D02*
X119669000Y-51852500D01*
X112681000Y-51892500D02*
X119729000Y-51892500D01*
X112622000Y-51932500D02*
X119788000Y-51932500D01*
X112565000Y-51972500D02*
X119845000Y-51972500D01*
X112509000Y-52012500D02*
X119901000Y-52012500D01*
X112455000Y-52052500D02*
X119955000Y-52052500D01*
X112401000Y-52092500D02*
X120009000Y-52092500D01*
X112349000Y-52132500D02*
X120061000Y-52132500D01*
X112298000Y-52172500D02*
X120112000Y-52172500D01*
X112248000Y-52212500D02*
X120162000Y-52212500D01*
X112198000Y-52252500D02*
X120212000Y-52252500D01*
X112150000Y-52292500D02*
X120260000Y-52292500D01*
X112103000Y-52332500D02*
X120307000Y-52332500D01*
X112057000Y-52372500D02*
X120353000Y-52372500D01*
X112011000Y-52412500D02*
X120399000Y-52412500D01*
X111967000Y-52452500D02*
X120443000Y-52452500D01*
X111923000Y-52492500D02*
X120487000Y-52492500D01*
X111880000Y-52532500D02*
X120530000Y-52532500D01*
X111838000Y-52572500D02*
X120572000Y-52572500D01*
X111797000Y-52612500D02*
X120613000Y-52612500D01*
X111756000Y-52652500D02*
X120654000Y-52652500D01*
X111716000Y-52692500D02*
X120694000Y-52692500D01*
X111677000Y-52732500D02*
X120733000Y-52732500D01*
X111638000Y-52772500D02*
X120772000Y-52772500D01*
X111600000Y-52812500D02*
X120810000Y-52812500D01*
X111563000Y-52852500D02*
X120847000Y-52852500D01*
X111527000Y-52892500D02*
X120883000Y-52892500D01*
X111491000Y-52932500D02*
X120919000Y-52932500D01*
X111455000Y-52972500D02*
X120955000Y-52972500D01*
X111420000Y-53012500D02*
X120990000Y-53012500D01*
X111386000Y-53052500D02*
X121024000Y-53052500D01*
X111353000Y-53092500D02*
X121057000Y-53092500D01*
X111320000Y-53132500D02*
X121090000Y-53132500D01*
X111287000Y-53172500D02*
X121123000Y-53172500D01*
X111255000Y-53212500D02*
X121155000Y-53212500D01*
X117645000Y-53252500D02*
X121187000Y-53252500D01*
X111223000Y-53252500D02*
X114765000Y-53252500D01*
X117645000Y-53292500D02*
X121217000Y-53292500D01*
X111193000Y-53292500D02*
X114765000Y-53292500D01*
X117645000Y-53332500D02*
X121248000Y-53332500D01*
X111162000Y-53332500D02*
X114765000Y-53332500D01*
X117645000Y-53372500D02*
X121278000Y-53372500D01*
X111132000Y-53372500D02*
X114765000Y-53372500D01*
X117645000Y-53412500D02*
X121307000Y-53412500D01*
X111103000Y-53412500D02*
X114765000Y-53412500D01*
X117645000Y-53452500D02*
X121336000Y-53452500D01*
X111074000Y-53452500D02*
X114765000Y-53452500D01*
X117645000Y-53492500D02*
X121365000Y-53492500D01*
X111045000Y-53492500D02*
X114765000Y-53492500D01*
X117645000Y-53532500D02*
X121393000Y-53532500D01*
X111017000Y-53532500D02*
X114765000Y-53532500D01*
X117645000Y-53572500D02*
X121421000Y-53572500D01*
X110989000Y-53572500D02*
X114765000Y-53572500D01*
X117645000Y-53612500D02*
X121448000Y-53612500D01*
X110962000Y-53612500D02*
X114765000Y-53612500D01*
X117645000Y-53652500D02*
X121475000Y-53652500D01*
X110935000Y-53652500D02*
X114765000Y-53652500D01*
X117645000Y-53692500D02*
X121501000Y-53692500D01*
X110909000Y-53692500D02*
X114765000Y-53692500D01*
X117645000Y-53732500D02*
X121527000Y-53732500D01*
X110883000Y-53732500D02*
X114765000Y-53732500D01*
X117645000Y-53772500D02*
X121552000Y-53772500D01*
X110858000Y-53772500D02*
X114765000Y-53772500D01*
X117645000Y-53812500D02*
X121577000Y-53812500D01*
X110833000Y-53812500D02*
X114765000Y-53812500D01*
X117645000Y-53852500D02*
X121602000Y-53852500D01*
X110808000Y-53852500D02*
X114765000Y-53852500D01*
X117645000Y-53892500D02*
X121626000Y-53892500D01*
X110784000Y-53892500D02*
X114765000Y-53892500D01*
X117645000Y-53932500D02*
X121650000Y-53932500D01*
X110760000Y-53932500D02*
X114765000Y-53932500D01*
X117645000Y-53972500D02*
X121673000Y-53972500D01*
X110737000Y-53972500D02*
X114765000Y-53972500D01*
X117645000Y-54012500D02*
X121696000Y-54012500D01*
X110714000Y-54012500D02*
X114765000Y-54012500D01*
X117645000Y-54052500D02*
X121719000Y-54052500D01*
X110691000Y-54052500D02*
X114765000Y-54052500D01*
X117645000Y-54092500D02*
X121741000Y-54092500D01*
X110669000Y-54092500D02*
X114765000Y-54092500D01*
X117645000Y-54132500D02*
X121763000Y-54132500D01*
X110647000Y-54132500D02*
X114765000Y-54132500D01*
X117645000Y-54172500D02*
X121785000Y-54172500D01*
X110625000Y-54172500D02*
X114765000Y-54172500D01*
X117645000Y-54212500D02*
X121806000Y-54212500D01*
X110604000Y-54212500D02*
X114765000Y-54212500D01*
X117645000Y-54252500D02*
X121827000Y-54252500D01*
X110583000Y-54252500D02*
X114765000Y-54252500D01*
X117645000Y-54292500D02*
X121847000Y-54292500D01*
X110563000Y-54292500D02*
X114765000Y-54292500D01*
X117645000Y-54332500D02*
X121867000Y-54332500D01*
X110543000Y-54332500D02*
X114765000Y-54332500D01*
X117645000Y-54372500D02*
X121887000Y-54372500D01*
X110523000Y-54372500D02*
X114765000Y-54372500D01*
X117645000Y-54412500D02*
X121907000Y-54412500D01*
X110503000Y-54412500D02*
X114765000Y-54412500D01*
X117645000Y-54452500D02*
X121926000Y-54452500D01*
X110484000Y-54452500D02*
X114765000Y-54452500D01*
X117645000Y-54492500D02*
X121944000Y-54492500D01*
X110466000Y-54492500D02*
X114765000Y-54492500D01*
X117645000Y-54532500D02*
X121963000Y-54532500D01*
X110447000Y-54532500D02*
X114765000Y-54532500D01*
X117645000Y-54572500D02*
X121981000Y-54572500D01*
X110429000Y-54572500D02*
X114765000Y-54572500D01*
X117645000Y-54612500D02*
X121998000Y-54612500D01*
X110412000Y-54612500D02*
X114765000Y-54612500D01*
X117645000Y-54652500D02*
X122016000Y-54652500D01*
X110394000Y-54652500D02*
X114765000Y-54652500D01*
X117645000Y-54692500D02*
X122033000Y-54692500D01*
X110377000Y-54692500D02*
X114765000Y-54692500D01*
X117645000Y-54732500D02*
X122050000Y-54732500D01*
X110360000Y-54732500D02*
X114765000Y-54732500D01*
X117645000Y-54772500D02*
X122066000Y-54772500D01*
X110344000Y-54772500D02*
X114765000Y-54772500D01*
X117645000Y-54812500D02*
X122082000Y-54812500D01*
X110328000Y-54812500D02*
X114765000Y-54812500D01*
X117645000Y-54852500D02*
X122098000Y-54852500D01*
X110312000Y-54852500D02*
X114765000Y-54852500D01*
X117645000Y-54892500D02*
X122113000Y-54892500D01*
X110297000Y-54892500D02*
X114765000Y-54892500D01*
X117645000Y-54932500D02*
X122129000Y-54932500D01*
X110281000Y-54932500D02*
X114765000Y-54932500D01*
X117645000Y-54972500D02*
X122144000Y-54972500D01*
X110266000Y-54972500D02*
X114765000Y-54972500D01*
X117645000Y-55012500D02*
X122158000Y-55012500D01*
X110252000Y-55012500D02*
X114765000Y-55012500D01*
X117645000Y-55052500D02*
X122172000Y-55052500D01*
X110238000Y-55052500D02*
X114765000Y-55052500D01*
X117645000Y-55092500D02*
X122186000Y-55092500D01*
X110224000Y-55092500D02*
X114765000Y-55092500D01*
X117645000Y-55132500D02*
X122200000Y-55132500D01*
X110210000Y-55132500D02*
X114765000Y-55132500D01*
X117645000Y-55172500D02*
X122213000Y-55172500D01*
X110197000Y-55172500D02*
X114765000Y-55172500D01*
X117645000Y-55212500D02*
X122226000Y-55212500D01*
X110184000Y-55212500D02*
X114765000Y-55212500D01*
X117645000Y-55252500D02*
X122239000Y-55252500D01*
X110171000Y-55252500D02*
X114765000Y-55252500D01*
X117645000Y-55292500D02*
X122252000Y-55292500D01*
X110158000Y-55292500D02*
X114765000Y-55292500D01*
X117645000Y-55332500D02*
X122264000Y-55332500D01*
X110146000Y-55332500D02*
X114765000Y-55332500D01*
X117645000Y-55372500D02*
X122276000Y-55372500D01*
X110134000Y-55372500D02*
X114765000Y-55372500D01*
X117645000Y-55412500D02*
X122288000Y-55412500D01*
X110122000Y-55412500D02*
X114765000Y-55412500D01*
X117645000Y-55452500D02*
X122299000Y-55452500D01*
X110111000Y-55452500D02*
X114765000Y-55452500D01*
X117645000Y-55492500D02*
X122310000Y-55492500D01*
X110100000Y-55492500D02*
X114765000Y-55492500D01*
X117645000Y-55532500D02*
X122321000Y-55532500D01*
X110089000Y-55532500D02*
X114765000Y-55532500D01*
X117645000Y-55572500D02*
X122331000Y-55572500D01*
X110079000Y-55572500D02*
X114765000Y-55572500D01*
X117645000Y-55612500D02*
X122342000Y-55612500D01*
X110068000Y-55612500D02*
X114765000Y-55612500D01*
X117645000Y-55652500D02*
X122351000Y-55652500D01*
X110059000Y-55652500D02*
X114765000Y-55652500D01*
X117645000Y-55692500D02*
X122361000Y-55692500D01*
X110049000Y-55692500D02*
X114765000Y-55692500D01*
X117645000Y-55732500D02*
X122371000Y-55732500D01*
X110039000Y-55732500D02*
X114765000Y-55732500D01*
X117645000Y-55772500D02*
X122380000Y-55772500D01*
X110030000Y-55772500D02*
X114765000Y-55772500D01*
X117645000Y-55812500D02*
X122389000Y-55812500D01*
X110021000Y-55812500D02*
X114765000Y-55812500D01*
X117645000Y-55852500D02*
X122397000Y-55852500D01*
X110013000Y-55852500D02*
X114765000Y-55852500D01*
X117645000Y-55892500D02*
X122406000Y-55892500D01*
X110004000Y-55892500D02*
X114765000Y-55892500D01*
X117645000Y-55932500D02*
X122414000Y-55932500D01*
X109996000Y-55932500D02*
X114765000Y-55932500D01*
X117645000Y-55972500D02*
X122421000Y-55972500D01*
X109989000Y-55972500D02*
X114765000Y-55972500D01*
X117645000Y-56012500D02*
X122429000Y-56012500D01*
X109981000Y-56012500D02*
X114765000Y-56012500D01*
X117645000Y-56052500D02*
X122436000Y-56052500D01*
X109974000Y-56052500D02*
X114765000Y-56052500D01*
X117645000Y-56092500D02*
X122443000Y-56092500D01*
X109967000Y-56092500D02*
X114765000Y-56092500D01*
X109960000Y-56132500D02*
X122450000Y-56132500D01*
X109953000Y-56172500D02*
X122457000Y-56172500D01*
X109947000Y-56212500D02*
X122463000Y-56212500D01*
X109941000Y-56252500D02*
X122469000Y-56252500D01*
X109936000Y-56292500D02*
X122474000Y-56292500D01*
X109930000Y-56332500D02*
X122480000Y-56332500D01*
X109925000Y-56372500D02*
X122485000Y-56372500D01*
X109920000Y-56412500D02*
X122490000Y-56412500D01*
X109915000Y-56452500D02*
X122495000Y-56452500D01*
X109911000Y-56493500D02*
X122499000Y-56493500D01*
X109907000Y-56533500D02*
X122503000Y-56533500D01*
X109903000Y-56573500D02*
X122507000Y-56573500D01*
X109899000Y-56613500D02*
X122511000Y-56613500D01*
X109896000Y-56653500D02*
X122514000Y-56653500D01*
X109893000Y-56693500D02*
X122517000Y-56693500D01*
X109890000Y-56733500D02*
X122520000Y-56733500D01*
X109887000Y-56773500D02*
X122523000Y-56773500D01*
X109885000Y-56813500D02*
X122525000Y-56813500D01*
X109883000Y-56853500D02*
X122527000Y-56853500D01*
X109881000Y-56893500D02*
X122529000Y-56893500D01*
X109879000Y-56933500D02*
X122531000Y-56933500D01*
X109878000Y-56973500D02*
X122532000Y-56973500D01*
X109877000Y-57013500D02*
X122533000Y-57013500D01*
X109876000Y-57053500D02*
X122534000Y-57053500D01*
X109875000Y-57093500D02*
X122535000Y-57093500D01*
X109875000Y-57133500D02*
X122535000Y-57133500D01*
X109875000Y-57173500D02*
X122535000Y-57173500D01*
X122575000Y-57173500D02*
G75*
G03X122575000Y-57173500I-6370000J0D01*
G01*
X147776162Y-58796289D02*
X147328186Y-59756975D01*
X146815475Y-58348314D02*
X147776162Y-58796289D01*
X146905568Y-60663283D02*
X146034974Y-62530277D01*
X145038574Y-59792690D02*
X146905568Y-60663283D01*
X145909168Y-57925695D02*
X145038574Y-59792690D01*
X146034974Y-62530277D02*
X135050524Y-57408144D01*
X145909168Y-57925695D02*
X136791711Y-53674156D01*
X136791711Y-53674156D02*
X135050524Y-57408144D01*
X107667770Y-48145467D02*
X108691652Y-47871119D01*
X107942119Y-49169348D02*
X107667770Y-48145467D01*
X109657578Y-47612300D02*
X111647385Y-47079132D01*
X110190745Y-49602107D02*
X109657578Y-47612300D01*
X108200938Y-50135274D02*
X110190745Y-49602107D01*
X111647385Y-47079132D02*
X112713719Y-51058747D01*
X108200938Y-50135274D02*
X108734105Y-52125081D01*
X108734105Y-52125081D02*
X112713719Y-51058747D01*
X105932057Y-56465106D02*
X106694914Y-57554579D01*
X106694914Y-57554579D02*
X105605442Y-58317435D01*
X104565119Y-59045877D02*
X94112738Y-66364713D01*
X92587025Y-64185768D02*
X94112738Y-66364713D01*
X103039405Y-56866933D02*
X92587025Y-64185768D01*
X103039405Y-56866933D02*
X104565119Y-59045877D01*
X124073000Y-71160000D02*
X124073000Y-65400000D01*
X125493000Y-71160000D02*
X124073000Y-71160000D01*
X125493000Y-70660000D02*
X125493000Y-71160000D01*
X129523000Y-70660000D02*
X125493000Y-70660000D01*
X129523000Y-71160000D02*
X129523000Y-70660000D01*
X130943000Y-71160000D02*
X129523000Y-71160000D01*
X130943000Y-65400000D02*
X130943000Y-71160000D01*
X124073000Y-63570000D02*
X124073000Y-63880000D01*
X130943000Y-63570000D02*
X124073000Y-63570000D01*
X130943000Y-63880000D02*
X130943000Y-63570000D01*
X89879798Y-59233302D02*
X89334901Y-58455108D01*
X89334901Y-58455108D02*
X89957456Y-58019190D01*
X90586597Y-57810607D02*
X90477618Y-57654969D01*
X90477618Y-57654969D02*
X94688059Y-54706786D01*
X95785007Y-56273389D02*
X95409349Y-55736894D01*
X96506297Y-57303498D02*
X96137791Y-56777217D01*
X95056565Y-55233066D02*
X94688059Y-54706786D01*
X91206383Y-61014537D02*
X96506297Y-57303498D01*
X90485093Y-59984429D02*
X90368961Y-59818575D01*
X91206383Y-61014537D02*
X90837877Y-60488257D01*
X146048000Y-140451721D02*
X146048000Y-140777279D01*
X147068000Y-140451721D02*
X147068000Y-140777279D01*
X129023400Y-130742400D02*
X129023400Y-141342400D01*
X118423400Y-141342400D02*
X118423400Y-130742400D01*
X147552500Y-70842500D02*
X147552500Y-65082500D01*
X148972500Y-70842500D02*
X147552500Y-70842500D01*
X148972500Y-70342500D02*
X148972500Y-70842500D01*
X156002500Y-70342500D02*
X148972500Y-70342500D01*
X156002500Y-70842500D02*
X156002500Y-70342500D01*
X157422500Y-70842500D02*
X156002500Y-70842500D01*
X157422500Y-65082500D02*
X157422500Y-70842500D01*
X147552500Y-63252500D02*
X147552500Y-63562500D01*
X157422500Y-63252500D02*
X147552500Y-63252500D01*
X157422500Y-63562500D02*
X157422500Y-63252500D01*
D11*
X121623400Y-146970400D02*
G75*
G03X121623400Y-146970400I-100000J0D01*
G01*
D12*
X121623400Y-141870400D02*
X121623400Y-146470400D01*
D10*
X121723400Y-141870400D02*
X121623400Y-141870400D01*
D12*
X125823400Y-141870400D02*
X121723400Y-141870400D01*
X125823400Y-146470400D02*
X125823400Y-141870400D01*
X121623400Y-146470400D02*
X125823400Y-146470400D01*
D10*
X147300000Y-139642000D02*
X147300000Y-142592000D01*
X150520000Y-141442000D02*
X150520000Y-139642000D01*
D12*
X123328000Y-55361500D02*
X128953000Y-55361500D01*
X124453000Y-60911500D02*
X128953000Y-60911500D01*
X97234200Y-142062200D02*
G75*
G03X97234200Y-142062200I-1400000J0D01*
G01*
X100460000Y-138379200D02*
G75*
G03X100460000Y-138379200I-1400000J0D01*
G01*
X138496500Y-42799000D02*
G75*
G03X138496500Y-42799000I-1400000J0D01*
G01*
X132908500Y-41529000D02*
G75*
G03X132908500Y-41529000I-1400000J0D01*
G01*
X79886000Y-60325000D02*
G75*
G03X79886000Y-60325000I-1400000J0D01*
G01*
X77409500Y-64389000D02*
G75*
G03X77409500Y-64389000I-1400000J0D01*
G01*
X160975500Y-53149500D02*
G75*
G03X160975500Y-53149500I-1400000J0D01*
G01*
X154117500Y-49276000D02*
G75*
G03X154117500Y-49276000I-1400000J0D01*
G01*
X111890000Y-157226000D02*
G75*
G03X111890000Y-157226000I-1400000J0D01*
G01*
X147767500Y-151765000D02*
G75*
G03X147767500Y-151765000I-1400000J0D01*
G01*
X130622500Y-149796500D02*
G75*
G03X130622500Y-149796500I-1400000J0D01*
G01*
X153609500Y-148780500D02*
G75*
G03X153609500Y-148780500I-1400000J0D01*
G01*
X156911500Y-129603500D02*
G75*
G03X156911500Y-129603500I-1400000J0D01*
G01*
X102682500Y-44259500D02*
G75*
G03X102682500Y-44259500I-1400000J0D01*
G01*
X150434500Y-129667000D02*
G75*
G03X150434500Y-129667000I-1400000J0D01*
G01*
X162880500Y-129413000D02*
G75*
G03X162880500Y-129413000I-1400000J0D01*
G01*
X116716000Y-127952500D02*
G75*
G03X116716000Y-127952500I-1400000J0D01*
G01*
X126304500Y-76517500D02*
G75*
G03X126304500Y-76517500I-1400000J0D01*
G01*
X130241500Y-76581000D02*
G75*
G03X130241500Y-76581000I-1400000J0D01*
G01*
X115255500Y-41338500D02*
G75*
G03X115255500Y-41338500I-1400000J0D01*
G01*
X120843500Y-40830500D02*
G75*
G03X120843500Y-40830500I-1400000J0D01*
G01*
X100714000Y-153289000D02*
G75*
G03X100714000Y-153289000I-1400000J0D01*
G01*
X105984500Y-155384500D02*
G75*
G03X105984500Y-155384500I-1400000J0D01*
G01*
D10*
X105050288Y-50417434D02*
X105920881Y-52284428D01*
X100754389Y-52420644D02*
X101624982Y-54287638D01*
X100188080Y-51206192D02*
X100357128Y-51568715D01*
X104483979Y-49202981D02*
X100188080Y-51206192D01*
X104483979Y-49202981D02*
X104653026Y-49565504D01*
X102191291Y-55502091D02*
X102022244Y-55139568D01*
X106487190Y-53498880D02*
X106318142Y-53136357D01*
X106487190Y-53498880D02*
X102191291Y-55502091D01*
X80015500Y-78790000D02*
X80815500Y-78790000D01*
X80015500Y-76950000D02*
X80815500Y-76950000D01*
X95069922Y-74497000D02*
X95587078Y-74497000D01*
X95069922Y-73077000D02*
X95587078Y-73077000D01*
X86562000Y-116956578D02*
X86562000Y-116439422D01*
X85142000Y-116956578D02*
X85142000Y-116439422D01*
X84196422Y-109676000D02*
X84713578Y-109676000D01*
X84196422Y-108256000D02*
X84713578Y-108256000D01*
X82561500Y-110416078D02*
X82561500Y-109898922D01*
X81141500Y-110416078D02*
X81141500Y-109898922D01*
X137018000Y-139974000D02*
X137018000Y-142474000D01*
X145418000Y-142474000D02*
X145418000Y-139974000D01*
X81994500Y-82678500D02*
X81994500Y-81278500D01*
X82694500Y-80578500D02*
X83294500Y-80578500D01*
X83994500Y-81278500D02*
X83994500Y-82678500D01*
X83294500Y-83378500D02*
X82694500Y-83378500D01*
X82694500Y-83378500D02*
G75*
G02X81994500Y-82678500I0J700000D01*
G01*
X83994500Y-82678500D02*
G75*
G02X83294500Y-83378500I-700000J0D01*
G01*
X83294500Y-80578500D02*
G75*
G02X83994500Y-81278500I0J-700000D01*
G01*
X81994500Y-81278500D02*
G75*
G02X82694500Y-80578500I700000J0D01*
G01*
X121372206Y-46822548D02*
X121603158Y-45512754D01*
X121603158Y-45512754D02*
X122912952Y-45743706D01*
X124163658Y-45964239D02*
X136729805Y-48179990D01*
X136267901Y-50799578D02*
X136729805Y-48179990D01*
X123701754Y-48583827D02*
X136267901Y-50799578D01*
X123701754Y-48583827D02*
X124163658Y-45964239D01*
X112716000Y-66929000D02*
X112716000Y-65599000D01*
X112716000Y-65599000D02*
X114046000Y-65599000D01*
X112716000Y-68199000D02*
X115316000Y-68199000D01*
X115316000Y-68199000D02*
X115316000Y-65599000D01*
X115316000Y-65599000D02*
X122996000Y-65599000D01*
X122996000Y-70799000D02*
X122996000Y-65599000D01*
X112716000Y-70799000D02*
X122996000Y-70799000D01*
X112716000Y-70799000D02*
X112716000Y-68199000D01*
X71682082Y-70359111D02*
X72887472Y-70921193D01*
X72887472Y-70921193D02*
X72325389Y-72126582D01*
X70531071Y-69822385D02*
X69432264Y-72178786D01*
X69432264Y-72178786D02*
X71788664Y-73277593D01*
X71788664Y-73277593D02*
X68542956Y-80238037D01*
X63830155Y-78040422D02*
X68542956Y-80238037D01*
X68174671Y-68723578D02*
X63830155Y-78040422D01*
X68174671Y-68723578D02*
X70531071Y-69822385D01*
X97100314Y-46896500D02*
X97765314Y-48048314D01*
X97765314Y-48048314D02*
X96613500Y-48713314D01*
X96465314Y-45796648D02*
X94213648Y-47096648D01*
X94213648Y-47096648D02*
X95513648Y-49348314D01*
X95513648Y-49348314D02*
X88862573Y-53188314D01*
X86262573Y-48684982D02*
X88862573Y-53188314D01*
X95165314Y-43544982D02*
X86262573Y-48684982D01*
X95165314Y-43544982D02*
X96465314Y-45796648D01*
X91433997Y-124747401D02*
X90493545Y-123806949D01*
X90493545Y-123806949D02*
X91433997Y-122866497D01*
X92332023Y-125645427D02*
X94170500Y-123806949D01*
X94170500Y-123806949D02*
X92332023Y-121968471D01*
X92332023Y-121968471D02*
X97762603Y-116537891D01*
X101439558Y-120214847D02*
X97762603Y-116537891D01*
X94170500Y-127483904D02*
X101439558Y-120214847D01*
X94170500Y-127483904D02*
X92332023Y-125645427D01*
X105031092Y-148745245D02*
X106521889Y-143181512D01*
X106402706Y-149112768D02*
X105031092Y-148745245D01*
X106532116Y-148629805D02*
X106402706Y-149112768D01*
X110424797Y-149672846D02*
X106532116Y-148629805D01*
X110295387Y-150155809D02*
X110424797Y-149672846D01*
X111667002Y-150523332D02*
X110295387Y-150155809D01*
X113157800Y-144959599D02*
X111667002Y-150523332D01*
X106995528Y-141413868D02*
X106915294Y-141713305D01*
X113631439Y-143191955D02*
X106995528Y-141413868D01*
X113551205Y-143491392D02*
X113631439Y-143191955D01*
X85448445Y-135937819D02*
X89150902Y-131525403D01*
X86536228Y-136850578D02*
X85448445Y-135937819D01*
X86857622Y-136467555D02*
X86536228Y-136850578D01*
X89944781Y-139057989D02*
X86857622Y-136467555D01*
X89623388Y-139441012D02*
X89944781Y-139057989D01*
X90711171Y-140353770D02*
X89623388Y-139441012D01*
X94413627Y-135941354D02*
X90711171Y-140353770D01*
X90327203Y-130123542D02*
X90127939Y-130361016D01*
X95589929Y-134539493D02*
X90327203Y-130123542D01*
X95390664Y-134776967D02*
X95589929Y-134539493D01*
X70594154Y-111370368D02*
X76006783Y-109400332D01*
X71079822Y-112704731D02*
X70594154Y-111370368D01*
X71549669Y-112533721D02*
X71079822Y-112704731D01*
X72928010Y-116320683D02*
X71549669Y-112533721D01*
X72458164Y-116491693D02*
X72928010Y-116320683D01*
X72943832Y-117826056D02*
X72458164Y-116491693D01*
X78356462Y-115856020D02*
X72943832Y-117826056D01*
X77726421Y-108774435D02*
X77435116Y-108880461D01*
X80076099Y-115230123D02*
X77726421Y-108774435D01*
X79784795Y-115336149D02*
X80076099Y-115230123D01*
X78568830Y-128592429D02*
X82981246Y-124889973D01*
X79481588Y-129680212D02*
X78568830Y-128592429D01*
X79864611Y-129358819D02*
X79481588Y-129680212D01*
X82455045Y-132445978D02*
X79864611Y-129358819D01*
X82072022Y-132767372D02*
X82455045Y-132445978D01*
X82984781Y-133855155D02*
X82072022Y-132767372D01*
X87397197Y-130152698D02*
X82984781Y-133855155D01*
X84383107Y-123713671D02*
X84145633Y-123912936D01*
X88799058Y-128976397D02*
X84383107Y-123713671D01*
X88561584Y-129175661D02*
X88799058Y-128976397D01*
X147884513Y-52844513D02*
X148802500Y-53374513D01*
X147354513Y-53762500D02*
X147884513Y-52844513D01*
X149668525Y-53874513D02*
X151452538Y-54904513D01*
X148638525Y-55658525D02*
X149668525Y-53874513D01*
X146854513Y-54628525D02*
X148638525Y-55658525D01*
X151452538Y-54904513D02*
X149392538Y-58472538D01*
X146854513Y-54628525D02*
X145824513Y-56412538D01*
X145824513Y-56412538D02*
X149392538Y-58472538D01*
X139160602Y-53379326D02*
X142894590Y-55120514D01*
X140031195Y-51512332D02*
X139160602Y-53379326D01*
X144635777Y-51386526D02*
X142894590Y-55120514D01*
X140031195Y-51512332D02*
X141898190Y-52382926D01*
X141898190Y-52382926D02*
X142768783Y-50515932D01*
X142768783Y-50515932D02*
X144635777Y-51386526D01*
X140453814Y-50606025D02*
X140901789Y-49645338D01*
X140901789Y-49645338D02*
X141862475Y-50093314D01*
X73975354Y-120184403D02*
X78963661Y-117304403D01*
X74685354Y-121414159D02*
X73975354Y-120184403D01*
X75118367Y-121164159D02*
X74685354Y-121414159D01*
X77133367Y-124654241D02*
X75118367Y-121164159D01*
X76700354Y-124904241D02*
X77133367Y-124654241D01*
X77410354Y-126133997D02*
X76700354Y-124904241D01*
X82398661Y-123253997D02*
X77410354Y-126133997D01*
X80548487Y-116389403D02*
X80280019Y-116544403D01*
X83983487Y-122338997D02*
X80548487Y-116389403D01*
X83715019Y-122493997D02*
X83983487Y-122338997D01*
X77588693Y-70749528D02*
X78794082Y-71311611D01*
X77026611Y-71954918D02*
X77588693Y-70749528D01*
X76489885Y-73105929D02*
X78900664Y-74230093D01*
X78900664Y-74230093D02*
X74581506Y-83492559D01*
X76489885Y-73105929D02*
X72170727Y-82368394D01*
X72170727Y-82368394D02*
X74581506Y-83492559D01*
X156631376Y-61701891D02*
X159531560Y-60349513D01*
X161449224Y-72033800D02*
X164349409Y-70681421D01*
X160491327Y-62407738D02*
X159531560Y-60349513D01*
X164349409Y-70681421D02*
X161233867Y-64000120D01*
X159746495Y-68382286D02*
X156631376Y-61701891D01*
X161449224Y-72033800D02*
X160489458Y-69975575D01*
X76984500Y-78923028D02*
X80184500Y-78923028D01*
X76984500Y-90323028D02*
X80184500Y-90323028D01*
X80184500Y-81194028D02*
X80184500Y-78923028D01*
X80184500Y-90323028D02*
X80184500Y-82951028D01*
X76984500Y-86294028D02*
X76984500Y-78923028D01*
X76984500Y-90323028D02*
X76984500Y-88052028D01*
X83422194Y-67499581D02*
X81365365Y-65773697D01*
X82188042Y-68970387D02*
X83422194Y-67499581D01*
X80131212Y-67244502D02*
X82188042Y-68970387D01*
X81819860Y-69742318D02*
X79620436Y-68202266D01*
X80718593Y-71315090D02*
X81819860Y-69742318D01*
X78519170Y-69775038D02*
X80718593Y-71315090D01*
X81954000Y-115839000D02*
X81954000Y-112689000D01*
X83654000Y-115839000D02*
X83654000Y-112689000D01*
X81954000Y-115839000D02*
X83654000Y-115839000D01*
X116901500Y-133631721D02*
X116901500Y-133957279D01*
X117921500Y-133631721D02*
X117921500Y-133957279D01*
X129601500Y-133377721D02*
X129601500Y-133703279D01*
X130621500Y-133377721D02*
X130621500Y-133703279D01*
X136292000Y-140368564D02*
X136292000Y-139164436D01*
X134472000Y-140368564D02*
X134472000Y-139164436D01*
X122172000Y-148236721D02*
X122172000Y-148562279D01*
X123192000Y-148236721D02*
X123192000Y-148562279D01*
X121096500Y-143253779D02*
X121096500Y-142928221D01*
X120076500Y-143253779D02*
X120076500Y-142928221D01*
X151881721Y-137797000D02*
X152207279Y-137797000D01*
X151881721Y-136777000D02*
X152207279Y-136777000D01*
X127408400Y-143291679D02*
X127408400Y-142966121D01*
X126388400Y-143291679D02*
X126388400Y-142966121D01*
X151919721Y-136082500D02*
X152245279Y-136082500D01*
X151919721Y-135062500D02*
X152245279Y-135062500D01*
X129640500Y-144505136D02*
X129640500Y-145709264D01*
X132360500Y-144505136D02*
X132360500Y-145709264D01*
X115505400Y-143314336D02*
X115505400Y-144518464D01*
X118225400Y-143314336D02*
X118225400Y-144518464D01*
X96022279Y-71435500D02*
X95696721Y-71435500D01*
X96022279Y-72455500D02*
X95696721Y-72455500D01*
X95357422Y-76465500D02*
X95874578Y-76465500D01*
X95357422Y-75045500D02*
X95874578Y-75045500D01*
X74385388Y-90597615D02*
X74738942Y-90244062D01*
X74738942Y-90597615D02*
X74385388Y-90244062D01*
X76164160Y-88125879D02*
X76164160Y-86620537D01*
X74473379Y-89816660D02*
X72968037Y-89816660D01*
X74473379Y-89816660D02*
X74569236Y-89720803D01*
X76164160Y-88125879D02*
X76068303Y-88221736D01*
X76164160Y-86620537D02*
X73720708Y-84177085D01*
X72968037Y-89816660D02*
X70524585Y-87373208D01*
X70524585Y-87373208D02*
X71373113Y-86524680D01*
X73720708Y-84177085D02*
X72872180Y-85025613D01*
X132980500Y-57012578D02*
X132980500Y-56495422D01*
X131560500Y-57012578D02*
X131560500Y-56495422D01*
X134419078Y-58726000D02*
X133901922Y-58726000D01*
X134419078Y-60146000D02*
X133901922Y-60146000D01*
D12*
X139517380Y-84010333D02*
X139041190Y-84343666D01*
X139517380Y-84581761D02*
X138517380Y-84581761D01*
X138517380Y-84200809D01*
X138565000Y-84105571D01*
X138612619Y-84057952D01*
X138707857Y-84010333D01*
X138850714Y-84010333D01*
X138945952Y-84057952D01*
X138993571Y-84105571D01*
X139041190Y-84200809D01*
X139041190Y-84581761D01*
X138993571Y-83581761D02*
X138993571Y-83248428D01*
X139517380Y-83105571D02*
X139517380Y-83581761D01*
X138517380Y-83581761D01*
X138517380Y-83105571D01*
X138993571Y-82343666D02*
X138993571Y-82677000D01*
X139517380Y-82677000D02*
X138517380Y-82677000D01*
X138517380Y-82200809D01*
X138517380Y-81677000D02*
X138755476Y-81677000D01*
X138660238Y-81915095D02*
X138755476Y-81677000D01*
X138660238Y-81438904D01*
X138945952Y-81819857D02*
X138755476Y-81677000D01*
X138945952Y-81534142D01*
X138517380Y-80915095D02*
X138755476Y-80915095D01*
X138660238Y-81153190D02*
X138755476Y-80915095D01*
X138660238Y-80677000D01*
X138945952Y-81057952D02*
X138755476Y-80915095D01*
X138945952Y-80772238D01*
X135128166Y-83319880D02*
X134794833Y-82843690D01*
X134556738Y-83319880D02*
X134556738Y-82319880D01*
X134937690Y-82319880D01*
X135032928Y-82367500D01*
X135080547Y-82415119D01*
X135128166Y-82510357D01*
X135128166Y-82653214D01*
X135080547Y-82748452D01*
X135032928Y-82796071D01*
X134937690Y-82843690D01*
X134556738Y-82843690D01*
X135556738Y-82796071D02*
X135890071Y-82796071D01*
X136032928Y-83319880D02*
X135556738Y-83319880D01*
X135556738Y-82319880D01*
X136032928Y-82319880D01*
X136794833Y-82796071D02*
X136461500Y-82796071D01*
X136461500Y-83319880D02*
X136461500Y-82319880D01*
X136937690Y-82319880D01*
X137461500Y-82319880D02*
X137461500Y-82557976D01*
X137223404Y-82462738D02*
X137461500Y-82557976D01*
X137699595Y-82462738D01*
X137318642Y-82748452D02*
X137461500Y-82557976D01*
X137604357Y-82748452D01*
X138223404Y-82319880D02*
X138223404Y-82557976D01*
X137985309Y-82462738D02*
X138223404Y-82557976D01*
X138461500Y-82462738D01*
X138080547Y-82748452D02*
X138223404Y-82557976D01*
X138366261Y-82748452D01*
X134366166Y-83510380D02*
X134032833Y-83034190D01*
X133794738Y-83510380D02*
X133794738Y-82510380D01*
X134175690Y-82510380D01*
X134270928Y-82558000D01*
X134318547Y-82605619D01*
X134366166Y-82700857D01*
X134366166Y-82843714D01*
X134318547Y-82938952D01*
X134270928Y-82986571D01*
X134175690Y-83034190D01*
X133794738Y-83034190D01*
X134794738Y-82986571D02*
X135128071Y-82986571D01*
X135270928Y-83510380D02*
X134794738Y-83510380D01*
X134794738Y-82510380D01*
X135270928Y-82510380D01*
X136032833Y-82986571D02*
X135699500Y-82986571D01*
X135699500Y-83510380D02*
X135699500Y-82510380D01*
X136175690Y-82510380D01*
X136699500Y-82510380D02*
X136699500Y-82748476D01*
X136461404Y-82653238D02*
X136699500Y-82748476D01*
X136937595Y-82653238D01*
X136556642Y-82938952D02*
X136699500Y-82748476D01*
X136842357Y-82938952D01*
X137461404Y-82510380D02*
X137461404Y-82748476D01*
X137223309Y-82653238D02*
X137461404Y-82748476D01*
X137699500Y-82653238D01*
X137318547Y-82938952D02*
X137461404Y-82748476D01*
X137604261Y-82938952D01*
X160020166Y-48077380D02*
X159686833Y-47601190D01*
X159448738Y-48077380D02*
X159448738Y-47077380D01*
X159829690Y-47077380D01*
X159924928Y-47125000D01*
X159972547Y-47172619D01*
X160020166Y-47267857D01*
X160020166Y-47410714D01*
X159972547Y-47505952D01*
X159924928Y-47553571D01*
X159829690Y-47601190D01*
X159448738Y-47601190D01*
X160448738Y-47553571D02*
X160782071Y-47553571D01*
X160924928Y-48077380D02*
X160448738Y-48077380D01*
X160448738Y-47077380D01*
X160924928Y-47077380D01*
X161686833Y-47553571D02*
X161353500Y-47553571D01*
X161353500Y-48077380D02*
X161353500Y-47077380D01*
X161829690Y-47077380D01*
X162353500Y-47077380D02*
X162353500Y-47315476D01*
X162115404Y-47220238D02*
X162353500Y-47315476D01*
X162591595Y-47220238D01*
X162210642Y-47505952D02*
X162353500Y-47315476D01*
X162496357Y-47505952D01*
X163115404Y-47077380D02*
X163115404Y-47315476D01*
X162877309Y-47220238D02*
X163115404Y-47315476D01*
X163353500Y-47220238D01*
X162972547Y-47505952D02*
X163115404Y-47315476D01*
X163258261Y-47505952D01*
X160147166Y-47251880D02*
X159813833Y-46775690D01*
X159575738Y-47251880D02*
X159575738Y-46251880D01*
X159956690Y-46251880D01*
X160051928Y-46299500D01*
X160099547Y-46347119D01*
X160147166Y-46442357D01*
X160147166Y-46585214D01*
X160099547Y-46680452D01*
X160051928Y-46728071D01*
X159956690Y-46775690D01*
X159575738Y-46775690D01*
X160575738Y-46728071D02*
X160909071Y-46728071D01*
X161051928Y-47251880D02*
X160575738Y-47251880D01*
X160575738Y-46251880D01*
X161051928Y-46251880D01*
X161813833Y-46728071D02*
X161480500Y-46728071D01*
X161480500Y-47251880D02*
X161480500Y-46251880D01*
X161956690Y-46251880D01*
X162480500Y-46251880D02*
X162480500Y-46489976D01*
X162242404Y-46394738D02*
X162480500Y-46489976D01*
X162718595Y-46394738D01*
X162337642Y-46680452D02*
X162480500Y-46489976D01*
X162623357Y-46680452D01*
X163242404Y-46251880D02*
X163242404Y-46489976D01*
X163004309Y-46394738D02*
X163242404Y-46489976D01*
X163480500Y-46394738D01*
X163099547Y-46680452D02*
X163242404Y-46489976D01*
X163385261Y-46680452D01*
X158178666Y-45791380D02*
X157845333Y-45315190D01*
X157607238Y-45791380D02*
X157607238Y-44791380D01*
X157988190Y-44791380D01*
X158083428Y-44839000D01*
X158131047Y-44886619D01*
X158178666Y-44981857D01*
X158178666Y-45124714D01*
X158131047Y-45219952D01*
X158083428Y-45267571D01*
X157988190Y-45315190D01*
X157607238Y-45315190D01*
X158607238Y-45267571D02*
X158940571Y-45267571D01*
X159083428Y-45791380D02*
X158607238Y-45791380D01*
X158607238Y-44791380D01*
X159083428Y-44791380D01*
X159845333Y-45267571D02*
X159512000Y-45267571D01*
X159512000Y-45791380D02*
X159512000Y-44791380D01*
X159988190Y-44791380D01*
X160512000Y-44791380D02*
X160512000Y-45029476D01*
X160273904Y-44934238D02*
X160512000Y-45029476D01*
X160750095Y-44934238D01*
X160369142Y-45219952D02*
X160512000Y-45029476D01*
X160654857Y-45219952D01*
X161273904Y-44791380D02*
X161273904Y-45029476D01*
X161035809Y-44934238D02*
X161273904Y-45029476D01*
X161512000Y-44934238D01*
X161131047Y-45219952D02*
X161273904Y-45029476D01*
X161416761Y-45219952D01*
X155829166Y-44775380D02*
X155495833Y-44299190D01*
X155257738Y-44775380D02*
X155257738Y-43775380D01*
X155638690Y-43775380D01*
X155733928Y-43823000D01*
X155781547Y-43870619D01*
X155829166Y-43965857D01*
X155829166Y-44108714D01*
X155781547Y-44203952D01*
X155733928Y-44251571D01*
X155638690Y-44299190D01*
X155257738Y-44299190D01*
X156257738Y-44251571D02*
X156591071Y-44251571D01*
X156733928Y-44775380D02*
X156257738Y-44775380D01*
X156257738Y-43775380D01*
X156733928Y-43775380D01*
X157495833Y-44251571D02*
X157162500Y-44251571D01*
X157162500Y-44775380D02*
X157162500Y-43775380D01*
X157638690Y-43775380D01*
X158162500Y-43775380D02*
X158162500Y-44013476D01*
X157924404Y-43918238D02*
X158162500Y-44013476D01*
X158400595Y-43918238D01*
X158019642Y-44203952D02*
X158162500Y-44013476D01*
X158305357Y-44203952D01*
X158924404Y-43775380D02*
X158924404Y-44013476D01*
X158686309Y-43918238D02*
X158924404Y-44013476D01*
X159162500Y-43918238D01*
X158781547Y-44203952D02*
X158924404Y-44013476D01*
X159067261Y-44203952D01*
X105219666Y-40012880D02*
X104886333Y-39536690D01*
X104648238Y-40012880D02*
X104648238Y-39012880D01*
X105029190Y-39012880D01*
X105124428Y-39060500D01*
X105172047Y-39108119D01*
X105219666Y-39203357D01*
X105219666Y-39346214D01*
X105172047Y-39441452D01*
X105124428Y-39489071D01*
X105029190Y-39536690D01*
X104648238Y-39536690D01*
X105648238Y-39489071D02*
X105981571Y-39489071D01*
X106124428Y-40012880D02*
X105648238Y-40012880D01*
X105648238Y-39012880D01*
X106124428Y-39012880D01*
X106886333Y-39489071D02*
X106553000Y-39489071D01*
X106553000Y-40012880D02*
X106553000Y-39012880D01*
X107029190Y-39012880D01*
X107553000Y-39012880D02*
X107553000Y-39250976D01*
X107314904Y-39155738D02*
X107553000Y-39250976D01*
X107791095Y-39155738D01*
X107410142Y-39441452D02*
X107553000Y-39250976D01*
X107695857Y-39441452D01*
X108314904Y-39012880D02*
X108314904Y-39250976D01*
X108076809Y-39155738D02*
X108314904Y-39250976D01*
X108553000Y-39155738D01*
X108172047Y-39441452D02*
X108314904Y-39250976D01*
X108457761Y-39441452D01*
X105727666Y-40584380D02*
X105394333Y-40108190D01*
X105156238Y-40584380D02*
X105156238Y-39584380D01*
X105537190Y-39584380D01*
X105632428Y-39632000D01*
X105680047Y-39679619D01*
X105727666Y-39774857D01*
X105727666Y-39917714D01*
X105680047Y-40012952D01*
X105632428Y-40060571D01*
X105537190Y-40108190D01*
X105156238Y-40108190D01*
X106156238Y-40060571D02*
X106489571Y-40060571D01*
X106632428Y-40584380D02*
X106156238Y-40584380D01*
X106156238Y-39584380D01*
X106632428Y-39584380D01*
X107394333Y-40060571D02*
X107061000Y-40060571D01*
X107061000Y-40584380D02*
X107061000Y-39584380D01*
X107537190Y-39584380D01*
X108061000Y-39584380D02*
X108061000Y-39822476D01*
X107822904Y-39727238D02*
X108061000Y-39822476D01*
X108299095Y-39727238D01*
X107918142Y-40012952D02*
X108061000Y-39822476D01*
X108203857Y-40012952D01*
X108822904Y-39584380D02*
X108822904Y-39822476D01*
X108584809Y-39727238D02*
X108822904Y-39822476D01*
X109061000Y-39727238D01*
X108680047Y-40012952D02*
X108822904Y-39822476D01*
X108965761Y-40012952D01*
X105664166Y-40076380D02*
X105330833Y-39600190D01*
X105092738Y-40076380D02*
X105092738Y-39076380D01*
X105473690Y-39076380D01*
X105568928Y-39124000D01*
X105616547Y-39171619D01*
X105664166Y-39266857D01*
X105664166Y-39409714D01*
X105616547Y-39504952D01*
X105568928Y-39552571D01*
X105473690Y-39600190D01*
X105092738Y-39600190D01*
X106092738Y-39552571D02*
X106426071Y-39552571D01*
X106568928Y-40076380D02*
X106092738Y-40076380D01*
X106092738Y-39076380D01*
X106568928Y-39076380D01*
X107330833Y-39552571D02*
X106997500Y-39552571D01*
X106997500Y-40076380D02*
X106997500Y-39076380D01*
X107473690Y-39076380D01*
X107997500Y-39076380D02*
X107997500Y-39314476D01*
X107759404Y-39219238D02*
X107997500Y-39314476D01*
X108235595Y-39219238D01*
X107854642Y-39504952D02*
X107997500Y-39314476D01*
X108140357Y-39504952D01*
X108759404Y-39076380D02*
X108759404Y-39314476D01*
X108521309Y-39219238D02*
X108759404Y-39314476D01*
X108997500Y-39219238D01*
X108616547Y-39504952D02*
X108759404Y-39314476D01*
X108902261Y-39504952D01*
X79883166Y-46934380D02*
X79549833Y-46458190D01*
X79311738Y-46934380D02*
X79311738Y-45934380D01*
X79692690Y-45934380D01*
X79787928Y-45982000D01*
X79835547Y-46029619D01*
X79883166Y-46124857D01*
X79883166Y-46267714D01*
X79835547Y-46362952D01*
X79787928Y-46410571D01*
X79692690Y-46458190D01*
X79311738Y-46458190D01*
X80311738Y-46410571D02*
X80645071Y-46410571D01*
X80787928Y-46934380D02*
X80311738Y-46934380D01*
X80311738Y-45934380D01*
X80787928Y-45934380D01*
X81549833Y-46410571D02*
X81216500Y-46410571D01*
X81216500Y-46934380D02*
X81216500Y-45934380D01*
X81692690Y-45934380D01*
X82216500Y-45934380D02*
X82216500Y-46172476D01*
X81978404Y-46077238D02*
X82216500Y-46172476D01*
X82454595Y-46077238D01*
X82073642Y-46362952D02*
X82216500Y-46172476D01*
X82359357Y-46362952D01*
X82978404Y-45934380D02*
X82978404Y-46172476D01*
X82740309Y-46077238D02*
X82978404Y-46172476D01*
X83216500Y-46077238D01*
X82835547Y-46362952D02*
X82978404Y-46172476D01*
X83121261Y-46362952D01*
X105918166Y-40139880D02*
X105584833Y-39663690D01*
X105346738Y-40139880D02*
X105346738Y-39139880D01*
X105727690Y-39139880D01*
X105822928Y-39187500D01*
X105870547Y-39235119D01*
X105918166Y-39330357D01*
X105918166Y-39473214D01*
X105870547Y-39568452D01*
X105822928Y-39616071D01*
X105727690Y-39663690D01*
X105346738Y-39663690D01*
X106346738Y-39616071D02*
X106680071Y-39616071D01*
X106822928Y-40139880D02*
X106346738Y-40139880D01*
X106346738Y-39139880D01*
X106822928Y-39139880D01*
X107584833Y-39616071D02*
X107251500Y-39616071D01*
X107251500Y-40139880D02*
X107251500Y-39139880D01*
X107727690Y-39139880D01*
X108251500Y-39139880D02*
X108251500Y-39377976D01*
X108013404Y-39282738D02*
X108251500Y-39377976D01*
X108489595Y-39282738D01*
X108108642Y-39568452D02*
X108251500Y-39377976D01*
X108394357Y-39568452D01*
X109013404Y-39139880D02*
X109013404Y-39377976D01*
X108775309Y-39282738D02*
X109013404Y-39377976D01*
X109251500Y-39282738D01*
X108870547Y-39568452D02*
X109013404Y-39377976D01*
X109156261Y-39568452D01*
X80708666Y-46426380D02*
X80375333Y-45950190D01*
X80137238Y-46426380D02*
X80137238Y-45426380D01*
X80518190Y-45426380D01*
X80613428Y-45474000D01*
X80661047Y-45521619D01*
X80708666Y-45616857D01*
X80708666Y-45759714D01*
X80661047Y-45854952D01*
X80613428Y-45902571D01*
X80518190Y-45950190D01*
X80137238Y-45950190D01*
X81137238Y-45902571D02*
X81470571Y-45902571D01*
X81613428Y-46426380D02*
X81137238Y-46426380D01*
X81137238Y-45426380D01*
X81613428Y-45426380D01*
X82375333Y-45902571D02*
X82042000Y-45902571D01*
X82042000Y-46426380D02*
X82042000Y-45426380D01*
X82518190Y-45426380D01*
X83042000Y-45426380D02*
X83042000Y-45664476D01*
X82803904Y-45569238D02*
X83042000Y-45664476D01*
X83280095Y-45569238D01*
X82899142Y-45854952D02*
X83042000Y-45664476D01*
X83184857Y-45854952D01*
X83803904Y-45426380D02*
X83803904Y-45664476D01*
X83565809Y-45569238D02*
X83803904Y-45664476D01*
X84042000Y-45569238D01*
X83661047Y-45854952D02*
X83803904Y-45664476D01*
X83946761Y-45854952D01*
X80264166Y-46489880D02*
X79930833Y-46013690D01*
X79692738Y-46489880D02*
X79692738Y-45489880D01*
X80073690Y-45489880D01*
X80168928Y-45537500D01*
X80216547Y-45585119D01*
X80264166Y-45680357D01*
X80264166Y-45823214D01*
X80216547Y-45918452D01*
X80168928Y-45966071D01*
X80073690Y-46013690D01*
X79692738Y-46013690D01*
X80692738Y-45966071D02*
X81026071Y-45966071D01*
X81168928Y-46489880D02*
X80692738Y-46489880D01*
X80692738Y-45489880D01*
X81168928Y-45489880D01*
X81930833Y-45966071D02*
X81597500Y-45966071D01*
X81597500Y-46489880D02*
X81597500Y-45489880D01*
X82073690Y-45489880D01*
X82597500Y-45489880D02*
X82597500Y-45727976D01*
X82359404Y-45632738D02*
X82597500Y-45727976D01*
X82835595Y-45632738D01*
X82454642Y-45918452D02*
X82597500Y-45727976D01*
X82740357Y-45918452D01*
X83359404Y-45489880D02*
X83359404Y-45727976D01*
X83121309Y-45632738D02*
X83359404Y-45727976D01*
X83597500Y-45632738D01*
X83216547Y-45918452D02*
X83359404Y-45727976D01*
X83502261Y-45918452D01*
X80454666Y-46553380D02*
X80121333Y-46077190D01*
X79883238Y-46553380D02*
X79883238Y-45553380D01*
X80264190Y-45553380D01*
X80359428Y-45601000D01*
X80407047Y-45648619D01*
X80454666Y-45743857D01*
X80454666Y-45886714D01*
X80407047Y-45981952D01*
X80359428Y-46029571D01*
X80264190Y-46077190D01*
X79883238Y-46077190D01*
X80883238Y-46029571D02*
X81216571Y-46029571D01*
X81359428Y-46553380D02*
X80883238Y-46553380D01*
X80883238Y-45553380D01*
X81359428Y-45553380D01*
X82121333Y-46029571D02*
X81788000Y-46029571D01*
X81788000Y-46553380D02*
X81788000Y-45553380D01*
X82264190Y-45553380D01*
X82788000Y-45553380D02*
X82788000Y-45791476D01*
X82549904Y-45696238D02*
X82788000Y-45791476D01*
X83026095Y-45696238D01*
X82645142Y-45981952D02*
X82788000Y-45791476D01*
X82930857Y-45981952D01*
X83549904Y-45553380D02*
X83549904Y-45791476D01*
X83311809Y-45696238D02*
X83549904Y-45791476D01*
X83788000Y-45696238D01*
X83407047Y-45981952D02*
X83549904Y-45791476D01*
X83692761Y-45981952D01*
X82677166Y-57221380D02*
X82343833Y-56745190D01*
X82105738Y-57221380D02*
X82105738Y-56221380D01*
X82486690Y-56221380D01*
X82581928Y-56269000D01*
X82629547Y-56316619D01*
X82677166Y-56411857D01*
X82677166Y-56554714D01*
X82629547Y-56649952D01*
X82581928Y-56697571D01*
X82486690Y-56745190D01*
X82105738Y-56745190D01*
X83105738Y-56697571D02*
X83439071Y-56697571D01*
X83581928Y-57221380D02*
X83105738Y-57221380D01*
X83105738Y-56221380D01*
X83581928Y-56221380D01*
X84343833Y-56697571D02*
X84010500Y-56697571D01*
X84010500Y-57221380D02*
X84010500Y-56221380D01*
X84486690Y-56221380D01*
X85010500Y-56221380D02*
X85010500Y-56459476D01*
X84772404Y-56364238D02*
X85010500Y-56459476D01*
X85248595Y-56364238D01*
X84867642Y-56649952D02*
X85010500Y-56459476D01*
X85153357Y-56649952D01*
X85772404Y-56221380D02*
X85772404Y-56459476D01*
X85534309Y-56364238D02*
X85772404Y-56459476D01*
X86010500Y-56364238D01*
X85629547Y-56649952D02*
X85772404Y-56459476D01*
X85915261Y-56649952D01*
X82804166Y-57157880D02*
X82470833Y-56681690D01*
X82232738Y-57157880D02*
X82232738Y-56157880D01*
X82613690Y-56157880D01*
X82708928Y-56205500D01*
X82756547Y-56253119D01*
X82804166Y-56348357D01*
X82804166Y-56491214D01*
X82756547Y-56586452D01*
X82708928Y-56634071D01*
X82613690Y-56681690D01*
X82232738Y-56681690D01*
X83232738Y-56634071D02*
X83566071Y-56634071D01*
X83708928Y-57157880D02*
X83232738Y-57157880D01*
X83232738Y-56157880D01*
X83708928Y-56157880D01*
X84470833Y-56634071D02*
X84137500Y-56634071D01*
X84137500Y-57157880D02*
X84137500Y-56157880D01*
X84613690Y-56157880D01*
X85137500Y-56157880D02*
X85137500Y-56395976D01*
X84899404Y-56300738D02*
X85137500Y-56395976D01*
X85375595Y-56300738D01*
X84994642Y-56586452D02*
X85137500Y-56395976D01*
X85280357Y-56586452D01*
X85899404Y-56157880D02*
X85899404Y-56395976D01*
X85661309Y-56300738D02*
X85899404Y-56395976D01*
X86137500Y-56300738D01*
X85756547Y-56586452D02*
X85899404Y-56395976D01*
X86042261Y-56586452D01*
X66611666Y-63190380D02*
X66278333Y-62714190D01*
X66040238Y-63190380D02*
X66040238Y-62190380D01*
X66421190Y-62190380D01*
X66516428Y-62238000D01*
X66564047Y-62285619D01*
X66611666Y-62380857D01*
X66611666Y-62523714D01*
X66564047Y-62618952D01*
X66516428Y-62666571D01*
X66421190Y-62714190D01*
X66040238Y-62714190D01*
X67040238Y-62666571D02*
X67373571Y-62666571D01*
X67516428Y-63190380D02*
X67040238Y-63190380D01*
X67040238Y-62190380D01*
X67516428Y-62190380D01*
X68278333Y-62666571D02*
X67945000Y-62666571D01*
X67945000Y-63190380D02*
X67945000Y-62190380D01*
X68421190Y-62190380D01*
X68945000Y-62190380D02*
X68945000Y-62428476D01*
X68706904Y-62333238D02*
X68945000Y-62428476D01*
X69183095Y-62333238D01*
X68802142Y-62618952D02*
X68945000Y-62428476D01*
X69087857Y-62618952D01*
X69706904Y-62190380D02*
X69706904Y-62428476D01*
X69468809Y-62333238D02*
X69706904Y-62428476D01*
X69945000Y-62333238D01*
X69564047Y-62618952D02*
X69706904Y-62428476D01*
X69849761Y-62618952D01*
X65722666Y-63317380D02*
X65389333Y-62841190D01*
X65151238Y-63317380D02*
X65151238Y-62317380D01*
X65532190Y-62317380D01*
X65627428Y-62365000D01*
X65675047Y-62412619D01*
X65722666Y-62507857D01*
X65722666Y-62650714D01*
X65675047Y-62745952D01*
X65627428Y-62793571D01*
X65532190Y-62841190D01*
X65151238Y-62841190D01*
X66151238Y-62793571D02*
X66484571Y-62793571D01*
X66627428Y-63317380D02*
X66151238Y-63317380D01*
X66151238Y-62317380D01*
X66627428Y-62317380D01*
X67389333Y-62793571D02*
X67056000Y-62793571D01*
X67056000Y-63317380D02*
X67056000Y-62317380D01*
X67532190Y-62317380D01*
X68056000Y-62317380D02*
X68056000Y-62555476D01*
X67817904Y-62460238D02*
X68056000Y-62555476D01*
X68294095Y-62460238D01*
X67913142Y-62745952D02*
X68056000Y-62555476D01*
X68198857Y-62745952D01*
X68817904Y-62317380D02*
X68817904Y-62555476D01*
X68579809Y-62460238D02*
X68817904Y-62555476D01*
X69056000Y-62460238D01*
X68675047Y-62745952D02*
X68817904Y-62555476D01*
X68960761Y-62745952D01*
X64706666Y-63380880D02*
X64373333Y-62904690D01*
X64135238Y-63380880D02*
X64135238Y-62380880D01*
X64516190Y-62380880D01*
X64611428Y-62428500D01*
X64659047Y-62476119D01*
X64706666Y-62571357D01*
X64706666Y-62714214D01*
X64659047Y-62809452D01*
X64611428Y-62857071D01*
X64516190Y-62904690D01*
X64135238Y-62904690D01*
X65135238Y-62857071D02*
X65468571Y-62857071D01*
X65611428Y-63380880D02*
X65135238Y-63380880D01*
X65135238Y-62380880D01*
X65611428Y-62380880D01*
X66373333Y-62857071D02*
X66040000Y-62857071D01*
X66040000Y-63380880D02*
X66040000Y-62380880D01*
X66516190Y-62380880D01*
X67040000Y-62380880D02*
X67040000Y-62618976D01*
X66801904Y-62523738D02*
X67040000Y-62618976D01*
X67278095Y-62523738D01*
X66897142Y-62809452D02*
X67040000Y-62618976D01*
X67182857Y-62809452D01*
X67801904Y-62380880D02*
X67801904Y-62618976D01*
X67563809Y-62523738D02*
X67801904Y-62618976D01*
X68040000Y-62523738D01*
X67659047Y-62809452D02*
X67801904Y-62618976D01*
X67944761Y-62809452D01*
X64706666Y-62618880D02*
X64373333Y-62142690D01*
X64135238Y-62618880D02*
X64135238Y-61618880D01*
X64516190Y-61618880D01*
X64611428Y-61666500D01*
X64659047Y-61714119D01*
X64706666Y-61809357D01*
X64706666Y-61952214D01*
X64659047Y-62047452D01*
X64611428Y-62095071D01*
X64516190Y-62142690D01*
X64135238Y-62142690D01*
X65135238Y-62095071D02*
X65468571Y-62095071D01*
X65611428Y-62618880D02*
X65135238Y-62618880D01*
X65135238Y-61618880D01*
X65611428Y-61618880D01*
X66373333Y-62095071D02*
X66040000Y-62095071D01*
X66040000Y-62618880D02*
X66040000Y-61618880D01*
X66516190Y-61618880D01*
X67040000Y-61618880D02*
X67040000Y-61856976D01*
X66801904Y-61761738D02*
X67040000Y-61856976D01*
X67278095Y-61761738D01*
X66897142Y-62047452D02*
X67040000Y-61856976D01*
X67182857Y-62047452D01*
X67801904Y-61618880D02*
X67801904Y-61856976D01*
X67563809Y-61761738D02*
X67801904Y-61856976D01*
X68040000Y-61761738D01*
X67659047Y-62047452D02*
X67801904Y-61856976D01*
X67944761Y-62047452D01*
X64960666Y-62872880D02*
X64627333Y-62396690D01*
X64389238Y-62872880D02*
X64389238Y-61872880D01*
X64770190Y-61872880D01*
X64865428Y-61920500D01*
X64913047Y-61968119D01*
X64960666Y-62063357D01*
X64960666Y-62206214D01*
X64913047Y-62301452D01*
X64865428Y-62349071D01*
X64770190Y-62396690D01*
X64389238Y-62396690D01*
X65389238Y-62349071D02*
X65722571Y-62349071D01*
X65865428Y-62872880D02*
X65389238Y-62872880D01*
X65389238Y-61872880D01*
X65865428Y-61872880D01*
X66627333Y-62349071D02*
X66294000Y-62349071D01*
X66294000Y-62872880D02*
X66294000Y-61872880D01*
X66770190Y-61872880D01*
X67294000Y-61872880D02*
X67294000Y-62110976D01*
X67055904Y-62015738D02*
X67294000Y-62110976D01*
X67532095Y-62015738D01*
X67151142Y-62301452D02*
X67294000Y-62110976D01*
X67436857Y-62301452D01*
X68055904Y-61872880D02*
X68055904Y-62110976D01*
X67817809Y-62015738D02*
X68055904Y-62110976D01*
X68294000Y-62015738D01*
X67913047Y-62301452D02*
X68055904Y-62110976D01*
X68198761Y-62301452D01*
X159448666Y-145537180D02*
X159115333Y-145060990D01*
X158877238Y-145537180D02*
X158877238Y-144537180D01*
X159258190Y-144537180D01*
X159353428Y-144584800D01*
X159401047Y-144632419D01*
X159448666Y-144727657D01*
X159448666Y-144870514D01*
X159401047Y-144965752D01*
X159353428Y-145013371D01*
X159258190Y-145060990D01*
X158877238Y-145060990D01*
X159877238Y-145013371D02*
X160210571Y-145013371D01*
X160353428Y-145537180D02*
X159877238Y-145537180D01*
X159877238Y-144537180D01*
X160353428Y-144537180D01*
X161115333Y-145013371D02*
X160782000Y-145013371D01*
X160782000Y-145537180D02*
X160782000Y-144537180D01*
X161258190Y-144537180D01*
X161782000Y-144537180D02*
X161782000Y-144775276D01*
X161543904Y-144680038D02*
X161782000Y-144775276D01*
X162020095Y-144680038D01*
X161639142Y-144965752D02*
X161782000Y-144775276D01*
X161924857Y-144965752D01*
X162543904Y-144537180D02*
X162543904Y-144775276D01*
X162305809Y-144680038D02*
X162543904Y-144775276D01*
X162782000Y-144680038D01*
X162401047Y-144965752D02*
X162543904Y-144775276D01*
X162686761Y-144965752D01*
X159905866Y-145486380D02*
X159572533Y-145010190D01*
X159334438Y-145486380D02*
X159334438Y-144486380D01*
X159715390Y-144486380D01*
X159810628Y-144534000D01*
X159858247Y-144581619D01*
X159905866Y-144676857D01*
X159905866Y-144819714D01*
X159858247Y-144914952D01*
X159810628Y-144962571D01*
X159715390Y-145010190D01*
X159334438Y-145010190D01*
X160334438Y-144962571D02*
X160667771Y-144962571D01*
X160810628Y-145486380D02*
X160334438Y-145486380D01*
X160334438Y-144486380D01*
X160810628Y-144486380D01*
X161572533Y-144962571D02*
X161239200Y-144962571D01*
X161239200Y-145486380D02*
X161239200Y-144486380D01*
X161715390Y-144486380D01*
X162239200Y-144486380D02*
X162239200Y-144724476D01*
X162001104Y-144629238D02*
X162239200Y-144724476D01*
X162477295Y-144629238D01*
X162096342Y-144914952D02*
X162239200Y-144724476D01*
X162382057Y-144914952D01*
X163001104Y-144486380D02*
X163001104Y-144724476D01*
X162763009Y-144629238D02*
X163001104Y-144724476D01*
X163239200Y-144629238D01*
X162858247Y-144914952D02*
X163001104Y-144724476D01*
X163143961Y-144914952D01*
X160261466Y-145537180D02*
X159928133Y-145060990D01*
X159690038Y-145537180D02*
X159690038Y-144537180D01*
X160070990Y-144537180D01*
X160166228Y-144584800D01*
X160213847Y-144632419D01*
X160261466Y-144727657D01*
X160261466Y-144870514D01*
X160213847Y-144965752D01*
X160166228Y-145013371D01*
X160070990Y-145060990D01*
X159690038Y-145060990D01*
X160690038Y-145013371D02*
X161023371Y-145013371D01*
X161166228Y-145537180D02*
X160690038Y-145537180D01*
X160690038Y-144537180D01*
X161166228Y-144537180D01*
X161928133Y-145013371D02*
X161594800Y-145013371D01*
X161594800Y-145537180D02*
X161594800Y-144537180D01*
X162070990Y-144537180D01*
X162594800Y-144537180D02*
X162594800Y-144775276D01*
X162356704Y-144680038D02*
X162594800Y-144775276D01*
X162832895Y-144680038D01*
X162451942Y-144965752D02*
X162594800Y-144775276D01*
X162737657Y-144965752D01*
X163356704Y-144537180D02*
X163356704Y-144775276D01*
X163118609Y-144680038D02*
X163356704Y-144775276D01*
X163594800Y-144680038D01*
X163213847Y-144965752D02*
X163356704Y-144775276D01*
X163499561Y-144965752D01*
X160820266Y-145486380D02*
X160486933Y-145010190D01*
X160248838Y-145486380D02*
X160248838Y-144486380D01*
X160629790Y-144486380D01*
X160725028Y-144534000D01*
X160772647Y-144581619D01*
X160820266Y-144676857D01*
X160820266Y-144819714D01*
X160772647Y-144914952D01*
X160725028Y-144962571D01*
X160629790Y-145010190D01*
X160248838Y-145010190D01*
X161248838Y-144962571D02*
X161582171Y-144962571D01*
X161725028Y-145486380D02*
X161248838Y-145486380D01*
X161248838Y-144486380D01*
X161725028Y-144486380D01*
X162486933Y-144962571D02*
X162153600Y-144962571D01*
X162153600Y-145486380D02*
X162153600Y-144486380D01*
X162629790Y-144486380D01*
X163153600Y-144486380D02*
X163153600Y-144724476D01*
X162915504Y-144629238D02*
X163153600Y-144724476D01*
X163391695Y-144629238D01*
X163010742Y-144914952D02*
X163153600Y-144724476D01*
X163296457Y-144914952D01*
X163915504Y-144486380D02*
X163915504Y-144724476D01*
X163677409Y-144629238D02*
X163915504Y-144724476D01*
X164153600Y-144629238D01*
X163772647Y-144914952D02*
X163915504Y-144724476D01*
X164058361Y-144914952D01*
X92265666Y-148534380D02*
X91932333Y-148058190D01*
X91694238Y-148534380D02*
X91694238Y-147534380D01*
X92075190Y-147534380D01*
X92170428Y-147582000D01*
X92218047Y-147629619D01*
X92265666Y-147724857D01*
X92265666Y-147867714D01*
X92218047Y-147962952D01*
X92170428Y-148010571D01*
X92075190Y-148058190D01*
X91694238Y-148058190D01*
X92694238Y-148010571D02*
X93027571Y-148010571D01*
X93170428Y-148534380D02*
X92694238Y-148534380D01*
X92694238Y-147534380D01*
X93170428Y-147534380D01*
X93932333Y-148010571D02*
X93599000Y-148010571D01*
X93599000Y-148534380D02*
X93599000Y-147534380D01*
X94075190Y-147534380D01*
X94599000Y-147534380D02*
X94599000Y-147772476D01*
X94360904Y-147677238D02*
X94599000Y-147772476D01*
X94837095Y-147677238D01*
X94456142Y-147962952D02*
X94599000Y-147772476D01*
X94741857Y-147962952D01*
X95360904Y-147534380D02*
X95360904Y-147772476D01*
X95122809Y-147677238D02*
X95360904Y-147772476D01*
X95599000Y-147677238D01*
X95218047Y-147962952D02*
X95360904Y-147772476D01*
X95503761Y-147962952D01*
X91821166Y-148216880D02*
X91487833Y-147740690D01*
X91249738Y-148216880D02*
X91249738Y-147216880D01*
X91630690Y-147216880D01*
X91725928Y-147264500D01*
X91773547Y-147312119D01*
X91821166Y-147407357D01*
X91821166Y-147550214D01*
X91773547Y-147645452D01*
X91725928Y-147693071D01*
X91630690Y-147740690D01*
X91249738Y-147740690D01*
X92249738Y-147693071D02*
X92583071Y-147693071D01*
X92725928Y-148216880D02*
X92249738Y-148216880D01*
X92249738Y-147216880D01*
X92725928Y-147216880D01*
X93487833Y-147693071D02*
X93154500Y-147693071D01*
X93154500Y-148216880D02*
X93154500Y-147216880D01*
X93630690Y-147216880D01*
X94154500Y-147216880D02*
X94154500Y-147454976D01*
X93916404Y-147359738D02*
X94154500Y-147454976D01*
X94392595Y-147359738D01*
X94011642Y-147645452D02*
X94154500Y-147454976D01*
X94297357Y-147645452D01*
X94916404Y-147216880D02*
X94916404Y-147454976D01*
X94678309Y-147359738D02*
X94916404Y-147454976D01*
X95154500Y-147359738D01*
X94773547Y-147645452D02*
X94916404Y-147454976D01*
X95059261Y-147645452D01*
X91821166Y-148089880D02*
X91487833Y-147613690D01*
X91249738Y-148089880D02*
X91249738Y-147089880D01*
X91630690Y-147089880D01*
X91725928Y-147137500D01*
X91773547Y-147185119D01*
X91821166Y-147280357D01*
X91821166Y-147423214D01*
X91773547Y-147518452D01*
X91725928Y-147566071D01*
X91630690Y-147613690D01*
X91249738Y-147613690D01*
X92249738Y-147566071D02*
X92583071Y-147566071D01*
X92725928Y-148089880D02*
X92249738Y-148089880D01*
X92249738Y-147089880D01*
X92725928Y-147089880D01*
X93487833Y-147566071D02*
X93154500Y-147566071D01*
X93154500Y-148089880D02*
X93154500Y-147089880D01*
X93630690Y-147089880D01*
X94154500Y-147089880D02*
X94154500Y-147327976D01*
X93916404Y-147232738D02*
X94154500Y-147327976D01*
X94392595Y-147232738D01*
X94011642Y-147518452D02*
X94154500Y-147327976D01*
X94297357Y-147518452D01*
X94916404Y-147089880D02*
X94916404Y-147327976D01*
X94678309Y-147232738D02*
X94916404Y-147327976D01*
X95154500Y-147232738D01*
X94773547Y-147518452D02*
X94916404Y-147327976D01*
X95059261Y-147518452D01*
X92265666Y-147962880D02*
X91932333Y-147486690D01*
X91694238Y-147962880D02*
X91694238Y-146962880D01*
X92075190Y-146962880D01*
X92170428Y-147010500D01*
X92218047Y-147058119D01*
X92265666Y-147153357D01*
X92265666Y-147296214D01*
X92218047Y-147391452D01*
X92170428Y-147439071D01*
X92075190Y-147486690D01*
X91694238Y-147486690D01*
X92694238Y-147439071D02*
X93027571Y-147439071D01*
X93170428Y-147962880D02*
X92694238Y-147962880D01*
X92694238Y-146962880D01*
X93170428Y-146962880D01*
X93932333Y-147439071D02*
X93599000Y-147439071D01*
X93599000Y-147962880D02*
X93599000Y-146962880D01*
X94075190Y-146962880D01*
X94599000Y-146962880D02*
X94599000Y-147200976D01*
X94360904Y-147105738D02*
X94599000Y-147200976D01*
X94837095Y-147105738D01*
X94456142Y-147391452D02*
X94599000Y-147200976D01*
X94741857Y-147391452D01*
X95360904Y-146962880D02*
X95360904Y-147200976D01*
X95122809Y-147105738D02*
X95360904Y-147200976D01*
X95599000Y-147105738D01*
X95218047Y-147391452D02*
X95360904Y-147200976D01*
X95503761Y-147391452D01*
X91427466Y-148229580D02*
X91094133Y-147753390D01*
X90856038Y-148229580D02*
X90856038Y-147229580D01*
X91236990Y-147229580D01*
X91332228Y-147277200D01*
X91379847Y-147324819D01*
X91427466Y-147420057D01*
X91427466Y-147562914D01*
X91379847Y-147658152D01*
X91332228Y-147705771D01*
X91236990Y-147753390D01*
X90856038Y-147753390D01*
X91856038Y-147705771D02*
X92189371Y-147705771D01*
X92332228Y-148229580D02*
X91856038Y-148229580D01*
X91856038Y-147229580D01*
X92332228Y-147229580D01*
X93094133Y-147705771D02*
X92760800Y-147705771D01*
X92760800Y-148229580D02*
X92760800Y-147229580D01*
X93236990Y-147229580D01*
X93760800Y-147229580D02*
X93760800Y-147467676D01*
X93522704Y-147372438D02*
X93760800Y-147467676D01*
X93998895Y-147372438D01*
X93617942Y-147658152D02*
X93760800Y-147467676D01*
X93903657Y-147658152D01*
X94522704Y-147229580D02*
X94522704Y-147467676D01*
X94284609Y-147372438D02*
X94522704Y-147467676D01*
X94760800Y-147372438D01*
X94379847Y-147658152D02*
X94522704Y-147467676D01*
X94665561Y-147658152D01*
D13*
X87939666Y-96686404D02*
X86273000Y-94305452D01*
X85082523Y-96686404D02*
X85082523Y-91686404D01*
X86987285Y-91686404D01*
X87463476Y-91924500D01*
X87701571Y-92162595D01*
X87939666Y-92638785D01*
X87939666Y-93353071D01*
X87701571Y-93829261D01*
X87463476Y-94067357D01*
X86987285Y-94305452D01*
X85082523Y-94305452D01*
X92463476Y-91686404D02*
X90082523Y-91686404D01*
X89844428Y-94067357D01*
X90082523Y-93829261D01*
X90558714Y-93591166D01*
X91749190Y-93591166D01*
X92225380Y-93829261D01*
X92463476Y-94067357D01*
X92701571Y-94543547D01*
X92701571Y-95734023D01*
X92463476Y-96210214D01*
X92225380Y-96448309D01*
X91749190Y-96686404D01*
X90558714Y-96686404D01*
X90082523Y-96448309D01*
X89844428Y-96210214D01*
D12*
X109062142Y-57340166D02*
X109109761Y-57387785D01*
X109157380Y-57530642D01*
X109157380Y-57625880D01*
X109109761Y-57768738D01*
X109014523Y-57863976D01*
X108919285Y-57911595D01*
X108728809Y-57959214D01*
X108585952Y-57959214D01*
X108395476Y-57911595D01*
X108300238Y-57863976D01*
X108205000Y-57768738D01*
X108157380Y-57625880D01*
X108157380Y-57530642D01*
X108205000Y-57387785D01*
X108252619Y-57340166D01*
X108490714Y-56483023D02*
X109157380Y-56483023D01*
X108109761Y-56721119D02*
X108824047Y-56959214D01*
X108824047Y-56340166D01*
X144899831Y-62735815D02*
X144597961Y-63383178D01*
X144494429Y-63492526D01*
X144367865Y-63538592D01*
X144218267Y-63521375D01*
X144131952Y-63481126D01*
X145719823Y-63118184D02*
X145547193Y-63037686D01*
X145440754Y-63040594D01*
X145377472Y-63063627D01*
X145230782Y-63152850D01*
X145107126Y-63305355D01*
X144946129Y-63650615D01*
X144949037Y-63757055D01*
X144972070Y-63820337D01*
X145038260Y-63903744D01*
X145210890Y-63984243D01*
X145317330Y-63981335D01*
X145380612Y-63958302D01*
X145464019Y-63892111D01*
X145564642Y-63676324D01*
X145561734Y-63569884D01*
X145538701Y-63506602D01*
X145472511Y-63423195D01*
X145299881Y-63342696D01*
X145193441Y-63345604D01*
X145130159Y-63368637D01*
X145046752Y-63434828D01*
X113328290Y-49277813D02*
X113513161Y-49967760D01*
X113504138Y-50118074D01*
X113436795Y-50234717D01*
X113311130Y-50317687D01*
X113219137Y-50342337D01*
X114288496Y-49365619D02*
X114461042Y-50009569D01*
X113959916Y-49059271D02*
X113914804Y-49810841D01*
X114512758Y-49650620D01*
X105711847Y-59115108D02*
X106121545Y-59700217D01*
X106164477Y-59844552D01*
X106141089Y-59977193D01*
X106051380Y-60098139D01*
X105973366Y-60152766D01*
X107104576Y-59360684D02*
X106636489Y-59688442D01*
X106870532Y-59524563D02*
X106296956Y-58705411D01*
X106300881Y-58877059D01*
X106277493Y-59009700D01*
X106226792Y-59103333D01*
X123967976Y-62317380D02*
X123967976Y-63031666D01*
X123920357Y-63174523D01*
X123825119Y-63269761D01*
X123682261Y-63317380D01*
X123587023Y-63317380D01*
X124967976Y-63317380D02*
X124396547Y-63317380D01*
X124682261Y-63317380D02*
X124682261Y-62317380D01*
X124587023Y-62460238D01*
X124491785Y-62555476D01*
X124396547Y-62603095D01*
X125301309Y-62317380D02*
X125967976Y-62317380D01*
X125539404Y-63317380D01*
X85391847Y-60512108D02*
X85801545Y-61097217D01*
X85844477Y-61241552D01*
X85821089Y-61374193D01*
X85731380Y-61495139D01*
X85653366Y-61549766D01*
X86171992Y-59965845D02*
X85781920Y-60238977D01*
X86016044Y-60656362D01*
X86027738Y-60590042D01*
X86078440Y-60496408D01*
X86273476Y-60359843D01*
X86378803Y-60344223D01*
X86445124Y-60355918D01*
X86538757Y-60406619D01*
X86675323Y-60601655D01*
X86690942Y-60706983D01*
X86679248Y-60773303D01*
X86628547Y-60866937D01*
X86433511Y-61003502D01*
X86328183Y-61019122D01*
X86261863Y-61007427D01*
X146915142Y-137904457D02*
X146962761Y-137952076D01*
X147010380Y-138094933D01*
X147010380Y-138190171D01*
X146962761Y-138333028D01*
X146867523Y-138428266D01*
X146772285Y-138475885D01*
X146581809Y-138523504D01*
X146438952Y-138523504D01*
X146248476Y-138475885D01*
X146153238Y-138428266D01*
X146058000Y-138333028D01*
X146010380Y-138190171D01*
X146010380Y-138094933D01*
X146058000Y-137952076D01*
X146105619Y-137904457D01*
X146105619Y-137523504D02*
X146058000Y-137475885D01*
X146010380Y-137380647D01*
X146010380Y-137142552D01*
X146058000Y-137047314D01*
X146105619Y-136999695D01*
X146200857Y-136952076D01*
X146296095Y-136952076D01*
X146438952Y-136999695D01*
X147010380Y-137571123D01*
X147010380Y-136952076D01*
X146010380Y-136094933D02*
X146010380Y-136285409D01*
X146058000Y-136380647D01*
X146105619Y-136428266D01*
X146248476Y-136523504D01*
X146438952Y-136571123D01*
X146819904Y-136571123D01*
X146915142Y-136523504D01*
X146962761Y-136475885D01*
X147010380Y-136380647D01*
X147010380Y-136190171D01*
X146962761Y-136094933D01*
X146915142Y-136047314D01*
X146819904Y-135999695D01*
X146581809Y-135999695D01*
X146486571Y-136047314D01*
X146438952Y-136094933D01*
X146391333Y-136190171D01*
X146391333Y-136380647D01*
X146438952Y-136475885D01*
X146486571Y-136523504D01*
X146581809Y-136571123D01*
D11*
X123110666Y-129327161D02*
X122158285Y-129327161D01*
X122158285Y-127327161D01*
X123682095Y-127517638D02*
X123777333Y-127422400D01*
X123967809Y-127327161D01*
X124444000Y-127327161D01*
X124634476Y-127422400D01*
X124729714Y-127517638D01*
X124824952Y-127708114D01*
X124824952Y-127898590D01*
X124729714Y-128184304D01*
X123586857Y-129327161D01*
X124824952Y-129327161D01*
D12*
X150320476Y-61745880D02*
X150320476Y-62460166D01*
X150272857Y-62603023D01*
X150177619Y-62698261D01*
X150034761Y-62745880D01*
X149939523Y-62745880D01*
X151320476Y-62745880D02*
X150749047Y-62745880D01*
X151034761Y-62745880D02*
X151034761Y-61745880D01*
X150939523Y-61888738D01*
X150844285Y-61983976D01*
X150749047Y-62031595D01*
X151891904Y-62174452D02*
X151796666Y-62126833D01*
X151749047Y-62079214D01*
X151701428Y-61983976D01*
X151701428Y-61936357D01*
X151749047Y-61841119D01*
X151796666Y-61793500D01*
X151891904Y-61745880D01*
X152082380Y-61745880D01*
X152177619Y-61793500D01*
X152225238Y-61841119D01*
X152272857Y-61936357D01*
X152272857Y-61983976D01*
X152225238Y-62079214D01*
X152177619Y-62126833D01*
X152082380Y-62174452D01*
X151891904Y-62174452D01*
X151796666Y-62222071D01*
X151749047Y-62269690D01*
X151701428Y-62364928D01*
X151701428Y-62555404D01*
X151749047Y-62650642D01*
X151796666Y-62698261D01*
X151891904Y-62745880D01*
X152082380Y-62745880D01*
X152177619Y-62698261D01*
X152225238Y-62650642D01*
X152272857Y-62555404D01*
X152272857Y-62364928D01*
X152225238Y-62269690D01*
X152177619Y-62222071D01*
X152082380Y-62174452D01*
X125780895Y-140930380D02*
X125780895Y-141739904D01*
X125828514Y-141835142D01*
X125876133Y-141882761D01*
X125971371Y-141930380D01*
X126161847Y-141930380D01*
X126257085Y-141882761D01*
X126304704Y-141835142D01*
X126352323Y-141739904D01*
X126352323Y-140930380D01*
X127304704Y-140930380D02*
X126828514Y-140930380D01*
X126780895Y-141406571D01*
X126828514Y-141358952D01*
X126923752Y-141311333D01*
X127161847Y-141311333D01*
X127257085Y-141358952D01*
X127304704Y-141406571D01*
X127352323Y-141501809D01*
X127352323Y-141739904D01*
X127304704Y-141835142D01*
X127257085Y-141882761D01*
X127161847Y-141930380D01*
X126923752Y-141930380D01*
X126828514Y-141882761D01*
X126780895Y-141835142D01*
X151344380Y-139852304D02*
X152153904Y-139852304D01*
X152249142Y-139804685D01*
X152296761Y-139757066D01*
X152344380Y-139661828D01*
X152344380Y-139471352D01*
X152296761Y-139376114D01*
X152249142Y-139328495D01*
X152153904Y-139280876D01*
X151344380Y-139280876D01*
X151677714Y-138376114D02*
X152344380Y-138376114D01*
X151296761Y-138614209D02*
X152011047Y-138852304D01*
X152011047Y-138233257D01*
X125941095Y-54088880D02*
X125941095Y-54898404D01*
X125988714Y-54993642D01*
X126036333Y-55041261D01*
X126131571Y-55088880D01*
X126322047Y-55088880D01*
X126417285Y-55041261D01*
X126464904Y-54993642D01*
X126512523Y-54898404D01*
X126512523Y-54088880D01*
X126941095Y-54184119D02*
X126988714Y-54136500D01*
X127083952Y-54088880D01*
X127322047Y-54088880D01*
X127417285Y-54136500D01*
X127464904Y-54184119D01*
X127512523Y-54279357D01*
X127512523Y-54374595D01*
X127464904Y-54517452D01*
X126893476Y-55088880D01*
X127512523Y-55088880D01*
X97325180Y-143844971D02*
X97468038Y-143892590D01*
X97515657Y-143940209D01*
X97563276Y-144035447D01*
X97563276Y-144178304D01*
X97515657Y-144273542D01*
X97468038Y-144321161D01*
X97372800Y-144368780D01*
X96991847Y-144368780D01*
X96991847Y-143368780D01*
X97325180Y-143368780D01*
X97420419Y-143416400D01*
X97468038Y-143464019D01*
X97515657Y-143559257D01*
X97515657Y-143654495D01*
X97468038Y-143749733D01*
X97420419Y-143797352D01*
X97325180Y-143844971D01*
X96991847Y-143844971D01*
X97944228Y-144083066D02*
X98420419Y-144083066D01*
X97848990Y-144368780D02*
X98182323Y-143368780D01*
X98515657Y-144368780D01*
X98706133Y-143368780D02*
X99277561Y-143368780D01*
X98991847Y-144368780D02*
X98991847Y-143368780D01*
X99468038Y-143368780D02*
X100039466Y-143368780D01*
X99753752Y-144368780D02*
X99753752Y-143368780D01*
X100134704Y-144464019D02*
X100896609Y-144464019D01*
X100991847Y-143368780D02*
X101325180Y-144368780D01*
X101658514Y-143368780D01*
X101991847Y-143987828D02*
X102753752Y-143987828D01*
X99884171Y-140025428D02*
X100646076Y-140025428D01*
X100265123Y-140406380D02*
X100265123Y-139644476D01*
X101455600Y-139882571D02*
X101598457Y-139930190D01*
X101646076Y-139977809D01*
X101693695Y-140073047D01*
X101693695Y-140215904D01*
X101646076Y-140311142D01*
X101598457Y-140358761D01*
X101503219Y-140406380D01*
X101122266Y-140406380D01*
X101122266Y-139406380D01*
X101455600Y-139406380D01*
X101550838Y-139454000D01*
X101598457Y-139501619D01*
X101646076Y-139596857D01*
X101646076Y-139692095D01*
X101598457Y-139787333D01*
X101550838Y-139834952D01*
X101455600Y-139882571D01*
X101122266Y-139882571D01*
X102074647Y-140120666D02*
X102550838Y-140120666D01*
X101979409Y-140406380D02*
X102312742Y-139406380D01*
X102646076Y-140406380D01*
X102836552Y-139406380D02*
X103407980Y-139406380D01*
X103122266Y-140406380D02*
X103122266Y-139406380D01*
X103598457Y-139406380D02*
X104169885Y-139406380D01*
X103884171Y-140406380D02*
X103884171Y-139406380D01*
X134985452Y-40774880D02*
X134985452Y-39774880D01*
X135223547Y-39774880D01*
X135366404Y-39822500D01*
X135461642Y-39917738D01*
X135509261Y-40012976D01*
X135556880Y-40203452D01*
X135556880Y-40346309D01*
X135509261Y-40536785D01*
X135461642Y-40632023D01*
X135366404Y-40727261D01*
X135223547Y-40774880D01*
X134985452Y-40774880D01*
X136318785Y-40251071D02*
X136461642Y-40298690D01*
X136509261Y-40346309D01*
X136556880Y-40441547D01*
X136556880Y-40584404D01*
X136509261Y-40679642D01*
X136461642Y-40727261D01*
X136366404Y-40774880D01*
X135985452Y-40774880D01*
X135985452Y-39774880D01*
X136318785Y-39774880D01*
X136414023Y-39822500D01*
X136461642Y-39870119D01*
X136509261Y-39965357D01*
X136509261Y-40060595D01*
X136461642Y-40155833D01*
X136414023Y-40203452D01*
X136318785Y-40251071D01*
X135985452Y-40251071D01*
X137509261Y-39822500D02*
X137414023Y-39774880D01*
X137271166Y-39774880D01*
X137128309Y-39822500D01*
X137033071Y-39917738D01*
X136985452Y-40012976D01*
X136937833Y-40203452D01*
X136937833Y-40346309D01*
X136985452Y-40536785D01*
X137033071Y-40632023D01*
X137128309Y-40727261D01*
X137271166Y-40774880D01*
X137366404Y-40774880D01*
X137509261Y-40727261D01*
X137556880Y-40679642D01*
X137556880Y-40346309D01*
X137366404Y-40346309D01*
X137747357Y-40870119D02*
X138509261Y-40870119D01*
X139318785Y-40774880D02*
X138985452Y-40298690D01*
X138747357Y-40774880D02*
X138747357Y-39774880D01*
X139128309Y-39774880D01*
X139223547Y-39822500D01*
X139271166Y-39870119D01*
X139318785Y-39965357D01*
X139318785Y-40108214D01*
X139271166Y-40203452D01*
X139223547Y-40251071D01*
X139128309Y-40298690D01*
X138747357Y-40298690D01*
X139652119Y-39774880D02*
X140318785Y-40774880D01*
X140318785Y-39774880D02*
X139652119Y-40774880D01*
X129770500Y-39758880D02*
X129770500Y-38758880D01*
X130008595Y-38758880D01*
X130151452Y-38806500D01*
X130246690Y-38901738D01*
X130294309Y-38996976D01*
X130341928Y-39187452D01*
X130341928Y-39330309D01*
X130294309Y-39520785D01*
X130246690Y-39616023D01*
X130151452Y-39711261D01*
X130008595Y-39758880D01*
X129770500Y-39758880D01*
X131103833Y-39235071D02*
X131246690Y-39282690D01*
X131294309Y-39330309D01*
X131341928Y-39425547D01*
X131341928Y-39568404D01*
X131294309Y-39663642D01*
X131246690Y-39711261D01*
X131151452Y-39758880D01*
X130770500Y-39758880D01*
X130770500Y-38758880D01*
X131103833Y-38758880D01*
X131199071Y-38806500D01*
X131246690Y-38854119D01*
X131294309Y-38949357D01*
X131294309Y-39044595D01*
X131246690Y-39139833D01*
X131199071Y-39187452D01*
X131103833Y-39235071D01*
X130770500Y-39235071D01*
X132294309Y-38806500D02*
X132199071Y-38758880D01*
X132056214Y-38758880D01*
X131913357Y-38806500D01*
X131818119Y-38901738D01*
X131770500Y-38996976D01*
X131722880Y-39187452D01*
X131722880Y-39330309D01*
X131770500Y-39520785D01*
X131818119Y-39616023D01*
X131913357Y-39711261D01*
X132056214Y-39758880D01*
X132151452Y-39758880D01*
X132294309Y-39711261D01*
X132341928Y-39663642D01*
X132341928Y-39330309D01*
X132151452Y-39330309D01*
X132532404Y-39854119D02*
X133294309Y-39854119D01*
X133389547Y-38758880D02*
X133960976Y-38758880D01*
X133675261Y-39758880D02*
X133675261Y-38758880D01*
X134199071Y-38758880D02*
X134865738Y-39758880D01*
X134865738Y-38758880D02*
X134199071Y-39758880D01*
X73827868Y-61635996D02*
X73185080Y-60869951D01*
X73367472Y-60716906D01*
X73507516Y-60661558D01*
X73641690Y-60673297D01*
X73739386Y-60715644D01*
X73898300Y-60830949D01*
X73990127Y-60940384D01*
X74076085Y-61116906D01*
X74100824Y-61220471D01*
X74089085Y-61354646D01*
X74010260Y-61482951D01*
X73827868Y-61635996D01*
X74382995Y-59926944D02*
X74279430Y-59951683D01*
X74169995Y-60043510D01*
X74091169Y-60171815D01*
X74079430Y-60305990D01*
X74104169Y-60409555D01*
X74190127Y-60586077D01*
X74281954Y-60695512D01*
X74440868Y-60810816D01*
X74538564Y-60853164D01*
X74672738Y-60864903D01*
X74812782Y-60809554D01*
X74885739Y-60748337D01*
X74964565Y-60620031D01*
X74970434Y-60552944D01*
X74756172Y-60297596D01*
X74610258Y-60420032D01*
X75278607Y-59734896D02*
X75418651Y-59679548D01*
X75485738Y-59685417D01*
X75583434Y-59727765D01*
X75675261Y-59837200D01*
X75700000Y-59940765D01*
X75694131Y-60007853D01*
X75651783Y-60105549D01*
X75359957Y-60350420D01*
X74717169Y-59584376D01*
X74972517Y-59370113D01*
X75076083Y-59345374D01*
X75143170Y-59351243D01*
X75240866Y-59393591D01*
X75302084Y-59466547D01*
X75326824Y-59570113D01*
X75320954Y-59637200D01*
X75278607Y-59734896D01*
X75023259Y-59949159D01*
X76004828Y-59933634D02*
X76588481Y-59443891D01*
X77074437Y-58911800D02*
X76709654Y-59217890D01*
X76066867Y-58451845D01*
X76993087Y-58296277D02*
X77248435Y-58082014D01*
X77694568Y-58391449D02*
X77329785Y-58697538D01*
X76686998Y-57931493D01*
X77051781Y-57625404D01*
X78022873Y-58115968D02*
X77380086Y-57349924D01*
X77562477Y-57196879D01*
X77702521Y-57141531D01*
X77836696Y-57153269D01*
X77934392Y-57195617D01*
X78093306Y-57310921D01*
X78185133Y-57420356D01*
X78271090Y-57596878D01*
X78295830Y-57700444D01*
X78284091Y-57834618D01*
X78205265Y-57962924D01*
X78022873Y-58115968D01*
X79190179Y-57136482D02*
X78752439Y-57503790D01*
X78971309Y-57320136D02*
X78328522Y-56554091D01*
X78347392Y-56724744D01*
X78335653Y-56858919D01*
X78293305Y-56956615D01*
X72093343Y-65642919D02*
X71386236Y-64935812D01*
X71554595Y-64767453D01*
X71689282Y-64700110D01*
X71823969Y-64700110D01*
X71924985Y-64733782D01*
X72093343Y-64834797D01*
X72194359Y-64935812D01*
X72295374Y-65104171D01*
X72329046Y-65205186D01*
X72329046Y-65339873D01*
X72261702Y-65474560D01*
X72093343Y-65642919D01*
X72665763Y-64329721D02*
X72800450Y-64262377D01*
X72867794Y-64262377D01*
X72968809Y-64296049D01*
X73069824Y-64397064D01*
X73103496Y-64498079D01*
X73103496Y-64565423D01*
X73069824Y-64666438D01*
X72800450Y-64935812D01*
X72093343Y-64228705D01*
X72329046Y-63993003D01*
X72430061Y-63959331D01*
X72497404Y-63959331D01*
X72598420Y-63993003D01*
X72665763Y-64060347D01*
X72699435Y-64161362D01*
X72699435Y-64228705D01*
X72665763Y-64329721D01*
X72430061Y-64565423D01*
X73204511Y-63184881D02*
X73103496Y-63218553D01*
X73002481Y-63319568D01*
X72935137Y-63454255D01*
X72935137Y-63588942D01*
X72968809Y-63689957D01*
X73069824Y-63858316D01*
X73170839Y-63959331D01*
X73339198Y-64060347D01*
X73440213Y-64094018D01*
X73574900Y-64094018D01*
X73709587Y-64026675D01*
X73776931Y-63959331D01*
X73844274Y-63824644D01*
X73844274Y-63757301D01*
X73608572Y-63521599D01*
X73473885Y-63656286D01*
X74113648Y-63757301D02*
X74652396Y-63218553D01*
X75090129Y-62646133D02*
X74753412Y-62982851D01*
X74046305Y-62275744D01*
X74955442Y-62040042D02*
X75191144Y-61804339D01*
X75662549Y-62073713D02*
X75325831Y-62410431D01*
X74618725Y-61703324D01*
X74955442Y-61366607D01*
X75965595Y-61770668D02*
X75258488Y-61063561D01*
X75426847Y-60895202D01*
X75561534Y-60827859D01*
X75696221Y-60827859D01*
X75797236Y-60861530D01*
X75965595Y-60962546D01*
X76066610Y-61063561D01*
X76167625Y-61231920D01*
X76201297Y-61332935D01*
X76201297Y-61467622D01*
X76133953Y-61602309D01*
X75965595Y-61770668D01*
X75999266Y-60457469D02*
X75999266Y-60390126D01*
X76032938Y-60289111D01*
X76201297Y-60120752D01*
X76302312Y-60087080D01*
X76369656Y-60087080D01*
X76470671Y-60120752D01*
X76538014Y-60188095D01*
X76605358Y-60322782D01*
X76605358Y-61130904D01*
X77043091Y-60693172D01*
X154831462Y-50907946D02*
X155067164Y-51143649D01*
X154797790Y-51615053D02*
X154461072Y-51278336D01*
X155168179Y-50571229D01*
X155504897Y-50907946D01*
X155572240Y-51446694D02*
X155100836Y-51918099D01*
X155504897Y-51514038D02*
X155572240Y-51514038D01*
X155673255Y-51547710D01*
X155774271Y-51648725D01*
X155807942Y-51749740D01*
X155774271Y-51850755D01*
X155403881Y-52221145D01*
X156077316Y-52827236D02*
X155976301Y-52793564D01*
X155841614Y-52658877D01*
X155807942Y-52557862D01*
X155807942Y-52490519D01*
X155841614Y-52389503D01*
X156043645Y-52187473D01*
X156144660Y-52153801D01*
X156212003Y-52153801D01*
X156313019Y-52187473D01*
X156447706Y-52322160D01*
X156481377Y-52423175D01*
X156447706Y-53264969D02*
X156414034Y-53163954D01*
X156414034Y-53096610D01*
X156447706Y-52995595D01*
X156649736Y-52793564D01*
X156750751Y-52759893D01*
X156818095Y-52759893D01*
X156919110Y-52793564D01*
X157020125Y-52894580D01*
X157053797Y-52995595D01*
X157053797Y-53062938D01*
X157020125Y-53163954D01*
X156818095Y-53365984D01*
X156717080Y-53399656D01*
X156649736Y-53399656D01*
X156548721Y-53365984D01*
X156447706Y-53264969D01*
X157289499Y-54106763D02*
X157996606Y-53399656D01*
X157323171Y-54073091D02*
X157222156Y-54039419D01*
X157087469Y-53904732D01*
X157053797Y-53803717D01*
X157053797Y-53736374D01*
X157087469Y-53635358D01*
X157289499Y-53433328D01*
X157390515Y-53399656D01*
X157457858Y-53399656D01*
X157558874Y-53433328D01*
X157693561Y-53568015D01*
X157727232Y-53669030D01*
X157929263Y-54679183D02*
X157828248Y-54645511D01*
X157693561Y-54510824D01*
X157659889Y-54409809D01*
X157693561Y-54308793D01*
X157962935Y-54039419D01*
X158063950Y-54005748D01*
X158164965Y-54039419D01*
X158299652Y-54174106D01*
X158333324Y-54275122D01*
X158299652Y-54376137D01*
X158232309Y-54443480D01*
X157828248Y-54174106D01*
X158232309Y-55049572D02*
X158703713Y-54578167D01*
X158569026Y-54712854D02*
X158670041Y-54679183D01*
X158737385Y-54679183D01*
X158838400Y-54712854D01*
X158905744Y-54780198D01*
X158434339Y-55386289D02*
X158973087Y-55925037D01*
X159377148Y-55790350D02*
X159713866Y-56127068D01*
X159107774Y-55925037D02*
X160050583Y-55453633D01*
X159579179Y-56396442D01*
X152748954Y-45967939D02*
X152984656Y-46203641D01*
X152715282Y-46675046D02*
X152378565Y-46338328D01*
X153085672Y-45631221D01*
X153422389Y-45967939D01*
X153489733Y-46506687D02*
X153018328Y-46978091D01*
X153422389Y-46574030D02*
X153489733Y-46574030D01*
X153590748Y-46607702D01*
X153691763Y-46708717D01*
X153725435Y-46809733D01*
X153691763Y-46910748D01*
X153321374Y-47281137D01*
X153994809Y-47887229D02*
X153893794Y-47853557D01*
X153759107Y-47718870D01*
X153725435Y-47617855D01*
X153725435Y-47550511D01*
X153759107Y-47449496D01*
X153961137Y-47247465D01*
X154062152Y-47213794D01*
X154129496Y-47213794D01*
X154230511Y-47247465D01*
X154365198Y-47382152D01*
X154398870Y-47483168D01*
X154365198Y-48324961D02*
X154331526Y-48223946D01*
X154331526Y-48156603D01*
X154365198Y-48055587D01*
X154567229Y-47853557D01*
X154668244Y-47819885D01*
X154735587Y-47819885D01*
X154836603Y-47853557D01*
X154937618Y-47954572D01*
X154971290Y-48055587D01*
X154971290Y-48122931D01*
X154937618Y-48223946D01*
X154735587Y-48425977D01*
X154634572Y-48459648D01*
X154567229Y-48459648D01*
X154466213Y-48425977D01*
X154365198Y-48324961D01*
X155206992Y-49166755D02*
X155914099Y-48459648D01*
X155240664Y-49133083D02*
X155139648Y-49099412D01*
X155004961Y-48964725D01*
X154971290Y-48863709D01*
X154971290Y-48796366D01*
X155004961Y-48695351D01*
X155206992Y-48493320D01*
X155308007Y-48459648D01*
X155375351Y-48459648D01*
X155476366Y-48493320D01*
X155611053Y-48628007D01*
X155644725Y-48729022D01*
X155846755Y-49739175D02*
X155745740Y-49705503D01*
X155611053Y-49570816D01*
X155577381Y-49469801D01*
X155611053Y-49368786D01*
X155880427Y-49099412D01*
X155981442Y-49065740D01*
X156082457Y-49099412D01*
X156217144Y-49234099D01*
X156250816Y-49335114D01*
X156217144Y-49436129D01*
X156149801Y-49503473D01*
X155745740Y-49234099D01*
X156149801Y-50109564D02*
X156621205Y-49638160D01*
X156486518Y-49772847D02*
X156587534Y-49739175D01*
X156654877Y-49739175D01*
X156755892Y-49772847D01*
X156823236Y-49840190D01*
X156351831Y-50446282D02*
X156890579Y-50985030D01*
X157732373Y-50951358D02*
X157799717Y-51086045D01*
X157799717Y-51153388D01*
X157766045Y-51254404D01*
X157665030Y-51355419D01*
X157564014Y-51389091D01*
X157496671Y-51389091D01*
X157395656Y-51355419D01*
X157126282Y-51086045D01*
X157833388Y-50378938D01*
X158069091Y-50614640D01*
X158102763Y-50715656D01*
X158102763Y-50782999D01*
X158069091Y-50884014D01*
X158001747Y-50951358D01*
X157900732Y-50985030D01*
X157833388Y-50985030D01*
X157732373Y-50951358D01*
X157496671Y-50715656D01*
X109728095Y-154226000D02*
X109632857Y-154178380D01*
X109490000Y-154178380D01*
X109347142Y-154226000D01*
X109251904Y-154321238D01*
X109204285Y-154416476D01*
X109156666Y-154606952D01*
X109156666Y-154749809D01*
X109204285Y-154940285D01*
X109251904Y-155035523D01*
X109347142Y-155130761D01*
X109490000Y-155178380D01*
X109585238Y-155178380D01*
X109728095Y-155130761D01*
X109775714Y-155083142D01*
X109775714Y-154749809D01*
X109585238Y-154749809D01*
X110204285Y-155178380D02*
X110204285Y-154178380D01*
X110775714Y-155178380D01*
X110775714Y-154178380D01*
X111251904Y-155178380D02*
X111251904Y-154178380D01*
X111490000Y-154178380D01*
X111632857Y-154226000D01*
X111728095Y-154321238D01*
X111775714Y-154416476D01*
X111823333Y-154606952D01*
X111823333Y-154749809D01*
X111775714Y-154940285D01*
X111728095Y-155035523D01*
X111632857Y-155130761D01*
X111490000Y-155178380D01*
X111251904Y-155178380D01*
X147344437Y-149426652D02*
X147883185Y-149965400D01*
X147344437Y-149965400D02*
X147883185Y-149426652D01*
X148590292Y-149797042D02*
X149028025Y-150234774D01*
X148522948Y-150268446D01*
X148623964Y-150369461D01*
X148657635Y-150470477D01*
X148657635Y-150537820D01*
X148623964Y-150638835D01*
X148455605Y-150807194D01*
X148354590Y-150840866D01*
X148287246Y-150840866D01*
X148186231Y-150807194D01*
X147984200Y-150605164D01*
X147950529Y-150504148D01*
X147950529Y-150436805D01*
X149230055Y-150436805D02*
X148758651Y-151379614D01*
X149701460Y-150908209D01*
X149869818Y-151076568D02*
X150307551Y-151514301D01*
X149802475Y-151547973D01*
X149903490Y-151648988D01*
X149937162Y-151750003D01*
X149937162Y-151817347D01*
X149903490Y-151918362D01*
X149735131Y-152086721D01*
X149634116Y-152120392D01*
X149566773Y-152120392D01*
X149465757Y-152086721D01*
X149263727Y-151884690D01*
X149230055Y-151783675D01*
X149230055Y-151716331D01*
X131431231Y-150300442D02*
X130879273Y-150448338D01*
X131155252Y-150374390D02*
X130896433Y-149408464D01*
X130841414Y-149571103D01*
X130774071Y-149687745D01*
X130694403Y-149758391D01*
X131565033Y-149327911D02*
X131598705Y-149269590D01*
X131678373Y-149198944D01*
X131908355Y-149137320D01*
X132012673Y-149158667D01*
X132070994Y-149192339D01*
X132141640Y-149272007D01*
X132166289Y-149364000D01*
X132157267Y-149514314D01*
X131753206Y-150214169D01*
X132351160Y-150053947D01*
X132368320Y-149014073D02*
X132949114Y-149893726D01*
X133012271Y-148841527D01*
X133387732Y-149874797D02*
X134123675Y-149677601D01*
X134193436Y-149018023D02*
X134515412Y-148931750D01*
X134788973Y-149400737D02*
X134329008Y-149523985D01*
X134070189Y-148558059D01*
X134530154Y-148434812D01*
X135202941Y-149289815D02*
X134944122Y-148323889D01*
X135754899Y-149141918D01*
X135496080Y-148175993D01*
X154043605Y-146275298D02*
X154009933Y-146174283D01*
X153908918Y-146073268D01*
X153774231Y-146005924D01*
X153639544Y-146005924D01*
X153538529Y-146039596D01*
X153370170Y-146140611D01*
X153269155Y-146241626D01*
X153168139Y-146409985D01*
X153134468Y-146511000D01*
X153134468Y-146645687D01*
X153201811Y-146780374D01*
X153269155Y-146847718D01*
X153403842Y-146915061D01*
X153471185Y-146915061D01*
X153706887Y-146679359D01*
X153572200Y-146544672D01*
X153706887Y-147285451D02*
X154413994Y-146578344D01*
X154110948Y-147689512D01*
X154818055Y-146982405D01*
X154447666Y-148026229D02*
X155154773Y-147319122D01*
X155323131Y-147487481D01*
X155390475Y-147622168D01*
X155390475Y-147756855D01*
X155356803Y-147857870D01*
X155255788Y-148026229D01*
X155154773Y-148127244D01*
X154986414Y-148228260D01*
X154885399Y-148261931D01*
X154750712Y-148261931D01*
X154616025Y-148194588D01*
X154447666Y-148026229D01*
X153749595Y-127174928D02*
X154511500Y-127174928D01*
X154130547Y-127555880D02*
X154130547Y-126793976D01*
X154892452Y-126555880D02*
X155511500Y-126555880D01*
X155178166Y-126936833D01*
X155321023Y-126936833D01*
X155416261Y-126984452D01*
X155463880Y-127032071D01*
X155511500Y-127127309D01*
X155511500Y-127365404D01*
X155463880Y-127460642D01*
X155416261Y-127508261D01*
X155321023Y-127555880D01*
X155035309Y-127555880D01*
X154940071Y-127508261D01*
X154892452Y-127460642D01*
X155797214Y-126555880D02*
X156130547Y-127555880D01*
X156463880Y-126555880D01*
X156701976Y-126555880D02*
X157321023Y-126555880D01*
X156987690Y-126936833D01*
X157130547Y-126936833D01*
X157225785Y-126984452D01*
X157273404Y-127032071D01*
X157321023Y-127127309D01*
X157321023Y-127365404D01*
X157273404Y-127460642D01*
X157225785Y-127508261D01*
X157130547Y-127555880D01*
X156844833Y-127555880D01*
X156749595Y-127508261D01*
X156701976Y-127460642D01*
X100520595Y-41259500D02*
X100425357Y-41211880D01*
X100282500Y-41211880D01*
X100139642Y-41259500D01*
X100044404Y-41354738D01*
X99996785Y-41449976D01*
X99949166Y-41640452D01*
X99949166Y-41783309D01*
X99996785Y-41973785D01*
X100044404Y-42069023D01*
X100139642Y-42164261D01*
X100282500Y-42211880D01*
X100377738Y-42211880D01*
X100520595Y-42164261D01*
X100568214Y-42116642D01*
X100568214Y-41783309D01*
X100377738Y-41783309D01*
X100996785Y-42211880D02*
X100996785Y-41211880D01*
X101568214Y-42211880D01*
X101568214Y-41211880D01*
X102044404Y-42211880D02*
X102044404Y-41211880D01*
X102282500Y-41211880D01*
X102425357Y-41259500D01*
X102520595Y-41354738D01*
X102568214Y-41449976D01*
X102615833Y-41640452D01*
X102615833Y-41783309D01*
X102568214Y-41973785D01*
X102520595Y-42069023D01*
X102425357Y-42164261D01*
X102282500Y-42211880D01*
X102044404Y-42211880D01*
X147272595Y-127238428D02*
X148034500Y-127238428D01*
X147653547Y-127619380D02*
X147653547Y-126857476D01*
X149034500Y-127619380D02*
X148463071Y-127619380D01*
X148748785Y-127619380D02*
X148748785Y-126619380D01*
X148653547Y-126762238D01*
X148558309Y-126857476D01*
X148463071Y-126905095D01*
X149415452Y-126714619D02*
X149463071Y-126667000D01*
X149558309Y-126619380D01*
X149796404Y-126619380D01*
X149891642Y-126667000D01*
X149939261Y-126714619D01*
X149986880Y-126809857D01*
X149986880Y-126905095D01*
X149939261Y-127047952D01*
X149367833Y-127619380D01*
X149986880Y-127619380D01*
X150272595Y-126619380D02*
X150605928Y-127619380D01*
X150939261Y-126619380D01*
X160718595Y-126413000D02*
X160623357Y-126365380D01*
X160480500Y-126365380D01*
X160337642Y-126413000D01*
X160242404Y-126508238D01*
X160194785Y-126603476D01*
X160147166Y-126793952D01*
X160147166Y-126936809D01*
X160194785Y-127127285D01*
X160242404Y-127222523D01*
X160337642Y-127317761D01*
X160480500Y-127365380D01*
X160575738Y-127365380D01*
X160718595Y-127317761D01*
X160766214Y-127270142D01*
X160766214Y-126936809D01*
X160575738Y-126936809D01*
X161194785Y-127365380D02*
X161194785Y-126365380D01*
X161766214Y-127365380D01*
X161766214Y-126365380D01*
X162242404Y-127365380D02*
X162242404Y-126365380D01*
X162480500Y-126365380D01*
X162623357Y-126413000D01*
X162718595Y-126508238D01*
X162766214Y-126603476D01*
X162813833Y-126793952D01*
X162813833Y-126936809D01*
X162766214Y-127127285D01*
X162718595Y-127222523D01*
X162623357Y-127317761D01*
X162480500Y-127365380D01*
X162242404Y-127365380D01*
X110755371Y-126106228D02*
X111517276Y-126106228D01*
X111136323Y-126487180D02*
X111136323Y-125725276D01*
X112326800Y-125963371D02*
X112469657Y-126010990D01*
X112517276Y-126058609D01*
X112564895Y-126153847D01*
X112564895Y-126296704D01*
X112517276Y-126391942D01*
X112469657Y-126439561D01*
X112374419Y-126487180D01*
X111993466Y-126487180D01*
X111993466Y-125487180D01*
X112326800Y-125487180D01*
X112422038Y-125534800D01*
X112469657Y-125582419D01*
X112517276Y-125677657D01*
X112517276Y-125772895D01*
X112469657Y-125868133D01*
X112422038Y-125915752D01*
X112326800Y-125963371D01*
X111993466Y-125963371D01*
X112945847Y-126201466D02*
X113422038Y-126201466D01*
X112850609Y-126487180D02*
X113183942Y-125487180D01*
X113517276Y-126487180D01*
X113707752Y-125487180D02*
X114279180Y-125487180D01*
X113993466Y-126487180D02*
X113993466Y-125487180D01*
X114469657Y-125487180D02*
X115041085Y-125487180D01*
X114755371Y-126487180D02*
X114755371Y-125487180D01*
X122848666Y-77938095D02*
X122848666Y-77461904D01*
X123134380Y-78033333D02*
X122134380Y-77700000D01*
X123134380Y-77366666D01*
X123039142Y-76461904D02*
X123086761Y-76509523D01*
X123134380Y-76652380D01*
X123134380Y-76747619D01*
X123086761Y-76890476D01*
X122991523Y-76985714D01*
X122896285Y-77033333D01*
X122705809Y-77080952D01*
X122562952Y-77080952D01*
X122372476Y-77033333D01*
X122277238Y-76985714D01*
X122182000Y-76890476D01*
X122134380Y-76747619D01*
X122134380Y-76652380D01*
X122182000Y-76509523D01*
X122229619Y-76461904D01*
X122134380Y-76176190D02*
X122134380Y-75604761D01*
X123134380Y-75890476D02*
X122134380Y-75890476D01*
X122753428Y-75271428D02*
X122753428Y-74509523D01*
X123134380Y-74890476D02*
X122372476Y-74890476D01*
X131484666Y-78319095D02*
X131484666Y-77842904D01*
X131770380Y-78414333D02*
X130770380Y-78081000D01*
X131770380Y-77747666D01*
X131675142Y-76842904D02*
X131722761Y-76890523D01*
X131770380Y-77033380D01*
X131770380Y-77128619D01*
X131722761Y-77271476D01*
X131627523Y-77366714D01*
X131532285Y-77414333D01*
X131341809Y-77461952D01*
X131198952Y-77461952D01*
X131008476Y-77414333D01*
X130913238Y-77366714D01*
X130818000Y-77271476D01*
X130770380Y-77128619D01*
X130770380Y-77033380D01*
X130818000Y-76890523D01*
X130865619Y-76842904D01*
X130770380Y-76557190D02*
X130770380Y-75985761D01*
X131770380Y-76271476D02*
X130770380Y-76271476D01*
X131389428Y-75652428D02*
X131389428Y-74890523D01*
X112141214Y-39005166D02*
X112617404Y-39005166D01*
X112045976Y-39290880D02*
X112379309Y-38290880D01*
X112712642Y-39290880D01*
X113045976Y-39290880D02*
X113045976Y-38290880D01*
X113284071Y-38290880D01*
X113426928Y-38338500D01*
X113522166Y-38433738D01*
X113569785Y-38528976D01*
X113617404Y-38719452D01*
X113617404Y-38862309D01*
X113569785Y-39052785D01*
X113522166Y-39148023D01*
X113426928Y-39243261D01*
X113284071Y-39290880D01*
X113045976Y-39290880D01*
X114617404Y-39195642D02*
X114569785Y-39243261D01*
X114426928Y-39290880D01*
X114331690Y-39290880D01*
X114188833Y-39243261D01*
X114093595Y-39148023D01*
X114045976Y-39052785D01*
X113998357Y-38862309D01*
X113998357Y-38719452D01*
X114045976Y-38528976D01*
X114093595Y-38433738D01*
X114188833Y-38338500D01*
X114331690Y-38290880D01*
X114426928Y-38290880D01*
X114569785Y-38338500D01*
X114617404Y-38386119D01*
X114998357Y-38386119D02*
X115045976Y-38338500D01*
X115141214Y-38290880D01*
X115379309Y-38290880D01*
X115474547Y-38338500D01*
X115522166Y-38386119D01*
X115569785Y-38481357D01*
X115569785Y-38576595D01*
X115522166Y-38719452D01*
X114950738Y-39290880D01*
X115569785Y-39290880D01*
X117705404Y-37782880D02*
X118038738Y-38782880D01*
X118372071Y-37782880D01*
X118467309Y-38878119D02*
X119229214Y-38878119D01*
X119467309Y-38782880D02*
X119467309Y-38116214D01*
X119467309Y-38306690D02*
X119514928Y-38211452D01*
X119562547Y-38163833D01*
X119657785Y-38116214D01*
X119753023Y-38116214D01*
X120467309Y-38735261D02*
X120372071Y-38782880D01*
X120181595Y-38782880D01*
X120086357Y-38735261D01*
X120038738Y-38640023D01*
X120038738Y-38259071D01*
X120086357Y-38163833D01*
X120181595Y-38116214D01*
X120372071Y-38116214D01*
X120467309Y-38163833D01*
X120514928Y-38259071D01*
X120514928Y-38354309D01*
X120038738Y-38449547D01*
X120800642Y-38116214D02*
X121181595Y-38116214D01*
X120943500Y-38782880D02*
X120943500Y-37925738D01*
X120991119Y-37830500D01*
X121086357Y-37782880D01*
X121181595Y-37782880D01*
X96886971Y-151150628D02*
X97648876Y-151150628D01*
X97267923Y-151531580D02*
X97267923Y-150769676D01*
X98458400Y-151007771D02*
X98601257Y-151055390D01*
X98648876Y-151103009D01*
X98696495Y-151198247D01*
X98696495Y-151341104D01*
X98648876Y-151436342D01*
X98601257Y-151483961D01*
X98506019Y-151531580D01*
X98125066Y-151531580D01*
X98125066Y-150531580D01*
X98458400Y-150531580D01*
X98553638Y-150579200D01*
X98601257Y-150626819D01*
X98648876Y-150722057D01*
X98648876Y-150817295D01*
X98601257Y-150912533D01*
X98553638Y-150960152D01*
X98458400Y-151007771D01*
X98125066Y-151007771D01*
X99077447Y-151245866D02*
X99553638Y-151245866D01*
X98982209Y-151531580D02*
X99315542Y-150531580D01*
X99648876Y-151531580D01*
X99839352Y-150531580D02*
X100410780Y-150531580D01*
X100125066Y-151531580D02*
X100125066Y-150531580D01*
X100601257Y-150531580D02*
X101172685Y-150531580D01*
X100886971Y-151531580D02*
X100886971Y-150531580D01*
X102608380Y-152938171D02*
X102751238Y-152985790D01*
X102798857Y-153033409D01*
X102846476Y-153128647D01*
X102846476Y-153271504D01*
X102798857Y-153366742D01*
X102751238Y-153414361D01*
X102656000Y-153461980D01*
X102275047Y-153461980D01*
X102275047Y-152461980D01*
X102608380Y-152461980D01*
X102703619Y-152509600D01*
X102751238Y-152557219D01*
X102798857Y-152652457D01*
X102798857Y-152747695D01*
X102751238Y-152842933D01*
X102703619Y-152890552D01*
X102608380Y-152938171D01*
X102275047Y-152938171D01*
X103227428Y-153176266D02*
X103703619Y-153176266D01*
X103132190Y-153461980D02*
X103465523Y-152461980D01*
X103798857Y-153461980D01*
X103989333Y-152461980D02*
X104560761Y-152461980D01*
X104275047Y-153461980D02*
X104275047Y-152461980D01*
X104751238Y-152461980D02*
X105322666Y-152461980D01*
X105036952Y-153461980D02*
X105036952Y-152461980D01*
X105417904Y-153557219D02*
X106179809Y-153557219D01*
X106275047Y-152461980D02*
X106608380Y-153461980D01*
X106941714Y-152461980D01*
X107275047Y-153081028D02*
X108036952Y-153081028D01*
X106214149Y-55095829D02*
X106363746Y-55078613D01*
X106579534Y-54977989D01*
X106645724Y-54894583D01*
X106668757Y-54831300D01*
X106671665Y-54724861D01*
X106631416Y-54638546D01*
X106548009Y-54572355D01*
X106484727Y-54549322D01*
X106378287Y-54546414D01*
X106185532Y-54583756D01*
X106079092Y-54580847D01*
X106015810Y-54557815D01*
X105932403Y-54491624D01*
X105892154Y-54405309D01*
X105895062Y-54298869D01*
X105918095Y-54235587D01*
X105984285Y-54152180D01*
X106200073Y-54051557D01*
X106349670Y-54034340D01*
X106631648Y-53850310D02*
X107270054Y-54655995D01*
X107140814Y-53928133D01*
X107615314Y-54494997D01*
X107408483Y-53488066D01*
X108651094Y-54012005D02*
X108133204Y-54253501D01*
X108392149Y-54132753D02*
X107969531Y-53226445D01*
X107943590Y-53396167D01*
X107897524Y-53522731D01*
X107831334Y-53606138D01*
X79827523Y-76715880D02*
X79494190Y-76239690D01*
X79256095Y-76715880D02*
X79256095Y-75715880D01*
X79637047Y-75715880D01*
X79732285Y-75763500D01*
X79779904Y-75811119D01*
X79827523Y-75906357D01*
X79827523Y-76049214D01*
X79779904Y-76144452D01*
X79732285Y-76192071D01*
X79637047Y-76239690D01*
X79256095Y-76239690D01*
X80256095Y-76715880D02*
X80256095Y-75715880D01*
X80827523Y-76715880D01*
X80827523Y-75715880D01*
X81256095Y-75811119D02*
X81303714Y-75763500D01*
X81398952Y-75715880D01*
X81637047Y-75715880D01*
X81732285Y-75763500D01*
X81779904Y-75811119D01*
X81827523Y-75906357D01*
X81827523Y-76001595D01*
X81779904Y-76144452D01*
X81208476Y-76715880D01*
X81827523Y-76715880D01*
X121864380Y-151137857D02*
X121388190Y-151471190D01*
X121864380Y-151709285D02*
X120864380Y-151709285D01*
X120864380Y-151328333D01*
X120912000Y-151233095D01*
X120959619Y-151185476D01*
X121054857Y-151137857D01*
X121197714Y-151137857D01*
X121292952Y-151185476D01*
X121340571Y-151233095D01*
X121388190Y-151328333D01*
X121388190Y-151709285D01*
X120959619Y-150756904D02*
X120912000Y-150709285D01*
X120864380Y-150614047D01*
X120864380Y-150375952D01*
X120912000Y-150280714D01*
X120959619Y-150233095D01*
X121054857Y-150185476D01*
X121150095Y-150185476D01*
X121292952Y-150233095D01*
X121864380Y-150804523D01*
X121864380Y-150185476D01*
X120864380Y-149566428D02*
X120864380Y-149471190D01*
X120912000Y-149375952D01*
X120959619Y-149328333D01*
X121054857Y-149280714D01*
X121245333Y-149233095D01*
X121483428Y-149233095D01*
X121673904Y-149280714D01*
X121769142Y-149328333D01*
X121816761Y-149375952D01*
X121864380Y-149471190D01*
X121864380Y-149566428D01*
X121816761Y-149661666D01*
X121769142Y-149709285D01*
X121673904Y-149756904D01*
X121483428Y-149804523D01*
X121245333Y-149804523D01*
X121054857Y-149756904D01*
X120959619Y-149709285D01*
X120912000Y-149661666D01*
X120864380Y-149566428D01*
X120403880Y-151201357D02*
X119927690Y-151534690D01*
X120403880Y-151772785D02*
X119403880Y-151772785D01*
X119403880Y-151391833D01*
X119451500Y-151296595D01*
X119499119Y-151248976D01*
X119594357Y-151201357D01*
X119737214Y-151201357D01*
X119832452Y-151248976D01*
X119880071Y-151296595D01*
X119927690Y-151391833D01*
X119927690Y-151772785D01*
X120403880Y-150248976D02*
X120403880Y-150820404D01*
X120403880Y-150534690D02*
X119403880Y-150534690D01*
X119546738Y-150629928D01*
X119641976Y-150725166D01*
X119689595Y-150820404D01*
X120403880Y-149772785D02*
X120403880Y-149582309D01*
X120356261Y-149487071D01*
X120308642Y-149439452D01*
X120165785Y-149344214D01*
X119975309Y-149296595D01*
X119594357Y-149296595D01*
X119499119Y-149344214D01*
X119451500Y-149391833D01*
X119403880Y-149487071D01*
X119403880Y-149677547D01*
X119451500Y-149772785D01*
X119499119Y-149820404D01*
X119594357Y-149868023D01*
X119832452Y-149868023D01*
X119927690Y-149820404D01*
X119975309Y-149772785D01*
X120022928Y-149677547D01*
X120022928Y-149487071D01*
X119975309Y-149391833D01*
X119927690Y-149344214D01*
X119832452Y-149296595D01*
D14*
X124646885Y-151662942D02*
X124289742Y-151912942D01*
X124646885Y-152091514D02*
X123896885Y-152091514D01*
X123896885Y-151805800D01*
X123932600Y-151734371D01*
X123968314Y-151698657D01*
X124039742Y-151662942D01*
X124146885Y-151662942D01*
X124218314Y-151698657D01*
X124254028Y-151734371D01*
X124289742Y-151805800D01*
X124289742Y-152091514D01*
X124646885Y-150948657D02*
X124646885Y-151377228D01*
X124646885Y-151162942D02*
X123896885Y-151162942D01*
X124004028Y-151234371D01*
X124075457Y-151305800D01*
X124111171Y-151377228D01*
X124218314Y-150520085D02*
X124182600Y-150591514D01*
X124146885Y-150627228D01*
X124075457Y-150662942D01*
X124039742Y-150662942D01*
X123968314Y-150627228D01*
X123932600Y-150591514D01*
X123896885Y-150520085D01*
X123896885Y-150377228D01*
X123932600Y-150305800D01*
X123968314Y-150270085D01*
X124039742Y-150234371D01*
X124075457Y-150234371D01*
X124146885Y-150270085D01*
X124182600Y-150305800D01*
X124218314Y-150377228D01*
X124218314Y-150520085D01*
X124254028Y-150591514D01*
X124289742Y-150627228D01*
X124361171Y-150662942D01*
X124504028Y-150662942D01*
X124575457Y-150627228D01*
X124611171Y-150591514D01*
X124646885Y-150520085D01*
X124646885Y-150377228D01*
X124611171Y-150305800D01*
X124575457Y-150270085D01*
X124504028Y-150234371D01*
X124361171Y-150234371D01*
X124289742Y-150270085D01*
X124254028Y-150305800D01*
X124218314Y-150377228D01*
D12*
X126817380Y-149042357D02*
X126341190Y-149375690D01*
X126817380Y-149613785D02*
X125817380Y-149613785D01*
X125817380Y-149232833D01*
X125865000Y-149137595D01*
X125912619Y-149089976D01*
X126007857Y-149042357D01*
X126150714Y-149042357D01*
X126245952Y-149089976D01*
X126293571Y-149137595D01*
X126341190Y-149232833D01*
X126341190Y-149613785D01*
X126817380Y-148089976D02*
X126817380Y-148661404D01*
X126817380Y-148375690D02*
X125817380Y-148375690D01*
X125960238Y-148470928D01*
X126055476Y-148566166D01*
X126103095Y-148661404D01*
X125817380Y-147185214D02*
X125817380Y-147661404D01*
X126293571Y-147709023D01*
X126245952Y-147661404D01*
X126198333Y-147566166D01*
X126198333Y-147328071D01*
X126245952Y-147232833D01*
X126293571Y-147185214D01*
X126388809Y-147137595D01*
X126626904Y-147137595D01*
X126722142Y-147185214D01*
X126769761Y-147232833D01*
X126817380Y-147328071D01*
X126817380Y-147566166D01*
X126769761Y-147661404D01*
X126722142Y-147709023D01*
X128404880Y-146883357D02*
X127928690Y-147216690D01*
X128404880Y-147454785D02*
X127404880Y-147454785D01*
X127404880Y-147073833D01*
X127452500Y-146978595D01*
X127500119Y-146930976D01*
X127595357Y-146883357D01*
X127738214Y-146883357D01*
X127833452Y-146930976D01*
X127881071Y-146978595D01*
X127928690Y-147073833D01*
X127928690Y-147454785D01*
X128404880Y-145930976D02*
X128404880Y-146502404D01*
X128404880Y-146216690D02*
X127404880Y-146216690D01*
X127547738Y-146311928D01*
X127642976Y-146407166D01*
X127690595Y-146502404D01*
X127738214Y-145073833D02*
X128404880Y-145073833D01*
X127357261Y-145311928D02*
X128071547Y-145550023D01*
X128071547Y-144930976D01*
X97655142Y-74175880D02*
X97321809Y-73699690D01*
X97083714Y-74175880D02*
X97083714Y-73175880D01*
X97464666Y-73175880D01*
X97559904Y-73223500D01*
X97607523Y-73271119D01*
X97655142Y-73366357D01*
X97655142Y-73509214D01*
X97607523Y-73604452D01*
X97559904Y-73652071D01*
X97464666Y-73699690D01*
X97083714Y-73699690D01*
X98607523Y-74175880D02*
X98036095Y-74175880D01*
X98321809Y-74175880D02*
X98321809Y-73175880D01*
X98226571Y-73318738D01*
X98131333Y-73413976D01*
X98036095Y-73461595D01*
X98940857Y-73175880D02*
X99559904Y-73175880D01*
X99226571Y-73556833D01*
X99369428Y-73556833D01*
X99464666Y-73604452D01*
X99512285Y-73652071D01*
X99559904Y-73747309D01*
X99559904Y-73985404D01*
X99512285Y-74080642D01*
X99464666Y-74128261D01*
X99369428Y-74175880D01*
X99083714Y-74175880D01*
X98988476Y-74128261D01*
X98940857Y-74080642D01*
X85837733Y-119730780D02*
X85504400Y-119254590D01*
X85266304Y-119730780D02*
X85266304Y-118730780D01*
X85647257Y-118730780D01*
X85742495Y-118778400D01*
X85790114Y-118826019D01*
X85837733Y-118921257D01*
X85837733Y-119064114D01*
X85790114Y-119159352D01*
X85742495Y-119206971D01*
X85647257Y-119254590D01*
X85266304Y-119254590D01*
X86694876Y-119064114D02*
X86694876Y-119730780D01*
X86456780Y-118683161D02*
X86218685Y-119397447D01*
X86837733Y-119397447D01*
X87272833Y-109481880D02*
X86939500Y-109005690D01*
X86701404Y-109481880D02*
X86701404Y-108481880D01*
X87082357Y-108481880D01*
X87177595Y-108529500D01*
X87225214Y-108577119D01*
X87272833Y-108672357D01*
X87272833Y-108815214D01*
X87225214Y-108910452D01*
X87177595Y-108958071D01*
X87082357Y-109005690D01*
X86701404Y-109005690D01*
X87653785Y-108577119D02*
X87701404Y-108529500D01*
X87796642Y-108481880D01*
X88034738Y-108481880D01*
X88129976Y-108529500D01*
X88177595Y-108577119D01*
X88225214Y-108672357D01*
X88225214Y-108767595D01*
X88177595Y-108910452D01*
X87606166Y-109481880D01*
X88225214Y-109481880D01*
X80716380Y-109069166D02*
X80240190Y-109402500D01*
X80716380Y-109640595D02*
X79716380Y-109640595D01*
X79716380Y-109259642D01*
X79764000Y-109164404D01*
X79811619Y-109116785D01*
X79906857Y-109069166D01*
X80049714Y-109069166D01*
X80144952Y-109116785D01*
X80192571Y-109164404D01*
X80240190Y-109259642D01*
X80240190Y-109640595D01*
X80716380Y-108116785D02*
X80716380Y-108688214D01*
X80716380Y-108402500D02*
X79716380Y-108402500D01*
X79859238Y-108497738D01*
X79954476Y-108592976D01*
X80002095Y-108688214D01*
X146900380Y-141480666D02*
X146900380Y-141956857D01*
X145900380Y-141956857D01*
X146900380Y-140623523D02*
X146900380Y-141194952D01*
X146900380Y-140909238D02*
X145900380Y-140909238D01*
X146043238Y-141004476D01*
X146138476Y-141099714D01*
X146186095Y-141194952D01*
X80646880Y-82811833D02*
X81361166Y-82811833D01*
X81504023Y-82859452D01*
X81599261Y-82954690D01*
X81646880Y-83097547D01*
X81646880Y-83192785D01*
X81646880Y-82335642D02*
X80646880Y-82335642D01*
X80646880Y-81954690D01*
X80694500Y-81859452D01*
X80742119Y-81811833D01*
X80837357Y-81764214D01*
X80980214Y-81764214D01*
X81075452Y-81811833D01*
X81123071Y-81859452D01*
X81170690Y-81954690D01*
X81170690Y-82335642D01*
X81646880Y-80811833D02*
X81646880Y-81383261D01*
X81646880Y-81097547D02*
X80646880Y-81097547D01*
X80789738Y-81192785D01*
X80884976Y-81288023D01*
X80932595Y-81383261D01*
X120455867Y-48913628D02*
X120331833Y-49617062D01*
X120260130Y-49749480D01*
X120149801Y-49826733D01*
X120000845Y-49848822D01*
X119907054Y-49832284D01*
X121267027Y-50072084D02*
X120704280Y-49972856D01*
X120985653Y-50022470D02*
X121159301Y-49037662D01*
X121040703Y-49161811D01*
X120930374Y-49239064D01*
X120828314Y-49269422D01*
X121735983Y-50154773D02*
X121923565Y-50187849D01*
X122025625Y-50157491D01*
X122080790Y-50118865D01*
X122199388Y-49994716D01*
X122279360Y-49815402D01*
X122345511Y-49440238D01*
X122315154Y-49338177D01*
X122276527Y-49283013D01*
X122191005Y-49219579D01*
X122003422Y-49186503D01*
X121901362Y-49216861D01*
X121846198Y-49255488D01*
X121782764Y-49341010D01*
X121741419Y-49575488D01*
X121771777Y-49677548D01*
X121810404Y-49732713D01*
X121895926Y-49796146D01*
X122083508Y-49829222D01*
X122185568Y-49798864D01*
X122240733Y-49760238D01*
X122304166Y-49674716D01*
X112855476Y-64285880D02*
X112855476Y-65000166D01*
X112807857Y-65143023D01*
X112712619Y-65238261D01*
X112569761Y-65285880D01*
X112474523Y-65285880D01*
X113855476Y-65285880D02*
X113284047Y-65285880D01*
X113569761Y-65285880D02*
X113569761Y-64285880D01*
X113474523Y-64428738D01*
X113379285Y-64523976D01*
X113284047Y-64571595D01*
X114712619Y-64285880D02*
X114522142Y-64285880D01*
X114426904Y-64333500D01*
X114379285Y-64381119D01*
X114284047Y-64523976D01*
X114236428Y-64714452D01*
X114236428Y-65095404D01*
X114284047Y-65190642D01*
X114331666Y-65238261D01*
X114426904Y-65285880D01*
X114617380Y-65285880D01*
X114712619Y-65238261D01*
X114760238Y-65190642D01*
X114807857Y-65095404D01*
X114807857Y-64857309D01*
X114760238Y-64762071D01*
X114712619Y-64714452D01*
X114617380Y-64666833D01*
X114426904Y-64666833D01*
X114331666Y-64714452D01*
X114284047Y-64762071D01*
X114236428Y-64857309D01*
X65283756Y-79362069D02*
X64981885Y-80009431D01*
X64878354Y-80118779D01*
X64751789Y-80164845D01*
X64602192Y-80147628D01*
X64515877Y-80107379D01*
X65767445Y-80690995D02*
X65249555Y-80449498D01*
X65508500Y-80570247D02*
X65931118Y-79663939D01*
X65784429Y-79753162D01*
X65657865Y-79799228D01*
X65551425Y-79802136D01*
X67010056Y-80167056D02*
X66578481Y-79965809D01*
X66334077Y-80377259D01*
X66397359Y-80354227D01*
X66503799Y-80351318D01*
X66719586Y-80451942D01*
X66785776Y-80535349D01*
X66808809Y-80598631D01*
X66811717Y-80705071D01*
X66711094Y-80920858D01*
X66627687Y-80987048D01*
X66564405Y-81010081D01*
X66457965Y-81012989D01*
X66242178Y-80912366D01*
X66175987Y-80828959D01*
X66152955Y-80765677D01*
X97781880Y-44101770D02*
X97163290Y-44458913D01*
X97015763Y-44489102D01*
X96885665Y-44454242D01*
X96772997Y-44354334D01*
X96725378Y-44271855D01*
X97415854Y-45467795D02*
X97130140Y-44972924D01*
X97272997Y-45220359D02*
X98139022Y-44720359D01*
X97967685Y-44709309D01*
X97837588Y-44674450D01*
X97748729Y-44615781D01*
X98421776Y-45876769D02*
X97844426Y-46210103D01*
X98632643Y-45480097D02*
X97895006Y-45631043D01*
X98204529Y-46167154D01*
X91128594Y-125704015D02*
X90623518Y-126209091D01*
X90488831Y-126276434D01*
X90354144Y-126276434D01*
X90219457Y-126209091D01*
X90152113Y-126141747D01*
X91128594Y-127118228D02*
X90724533Y-126714167D01*
X90926563Y-126916198D02*
X91633670Y-126209091D01*
X91465311Y-126242763D01*
X91330624Y-126242763D01*
X91229609Y-126209091D01*
X92071403Y-126646824D02*
X92509136Y-127084556D01*
X92004059Y-127118228D01*
X92105075Y-127219243D01*
X92138746Y-127320259D01*
X92138746Y-127387602D01*
X92105075Y-127488617D01*
X91936716Y-127656976D01*
X91835701Y-127690648D01*
X91768357Y-127690648D01*
X91667342Y-127656976D01*
X91465311Y-127454946D01*
X91431640Y-127353930D01*
X91431640Y-127286587D01*
X112542194Y-149324720D02*
X112357323Y-150014667D01*
X112274352Y-150140332D01*
X112157710Y-150207675D01*
X112007396Y-150216697D01*
X111915403Y-150192048D01*
X113249301Y-150549465D02*
X112697343Y-150401568D01*
X112973322Y-150475517D02*
X113232141Y-149509591D01*
X113103174Y-149622931D01*
X112986531Y-149690274D01*
X112882214Y-149711621D01*
X113851442Y-149774130D02*
X113909763Y-149740458D01*
X114014081Y-149719111D01*
X114244063Y-149780734D01*
X114323731Y-149851380D01*
X114357403Y-149909702D01*
X114378750Y-150014019D01*
X114354101Y-150106012D01*
X114271130Y-150231677D01*
X113571276Y-150635738D01*
X114169230Y-150795959D01*
X92086271Y-140639747D02*
X91627137Y-141186922D01*
X91498832Y-141265748D01*
X91364657Y-141277486D01*
X91224614Y-141222138D01*
X91151657Y-141160920D01*
X92209528Y-142048579D02*
X91771788Y-141681272D01*
X91990658Y-141864926D02*
X92633446Y-141098881D01*
X92468662Y-141147098D01*
X92334488Y-141158837D01*
X92230922Y-141134097D01*
X92939094Y-142660758D02*
X92501354Y-142293451D01*
X92720224Y-142477104D02*
X93363012Y-141711060D01*
X93198228Y-141759277D01*
X93064054Y-141771016D01*
X92960488Y-141746276D01*
X72183220Y-107954499D02*
X71512011Y-108198799D01*
X71361482Y-108202912D01*
X71239414Y-108145991D01*
X71145807Y-108028036D01*
X71113234Y-107938541D01*
X71585547Y-109236212D02*
X71390107Y-108699245D01*
X71487827Y-108967728D02*
X72427520Y-108625708D01*
X72260705Y-108585074D01*
X72138637Y-108528153D01*
X72061316Y-108454945D01*
X72736967Y-109475906D02*
X72769540Y-109565401D01*
X72757366Y-109671182D01*
X72728905Y-109732216D01*
X72655697Y-109809537D01*
X72492995Y-109919431D01*
X72269259Y-110000864D01*
X72073983Y-110021263D01*
X71968202Y-110009089D01*
X71907168Y-109980629D01*
X71829847Y-109907421D01*
X71797274Y-109817926D01*
X71809448Y-109712145D01*
X71837908Y-109651111D01*
X71911116Y-109573791D01*
X72073819Y-109463897D01*
X72297555Y-109382463D01*
X72492831Y-109362064D01*
X72598612Y-109374238D01*
X72659646Y-109402698D01*
X72736967Y-109475906D01*
X84533237Y-134063449D02*
X83986063Y-134522583D01*
X83846019Y-134577931D01*
X83711845Y-134566192D01*
X83583539Y-134487366D01*
X83522322Y-134414410D01*
X84103891Y-135107498D02*
X84226327Y-135253411D01*
X84324023Y-135295759D01*
X84391110Y-135301628D01*
X84561763Y-135282758D01*
X84738285Y-135196800D01*
X85030112Y-134951929D01*
X85072460Y-134854233D01*
X85078329Y-134787145D01*
X85053589Y-134683580D01*
X84931154Y-134537667D01*
X84833457Y-134495319D01*
X84766370Y-134489450D01*
X84662805Y-134514189D01*
X84480413Y-134667234D01*
X84438065Y-134764930D01*
X84432196Y-134832017D01*
X84456936Y-134935583D01*
X84579371Y-135081496D01*
X84677068Y-135123844D01*
X84744155Y-135129713D01*
X84847720Y-135104973D01*
X150670634Y-58287081D02*
X150313491Y-58905670D01*
X150200823Y-59005579D01*
X150070725Y-59040438D01*
X149923198Y-59010249D01*
X149840719Y-58962630D01*
X150992459Y-58967758D02*
X150933790Y-58878900D01*
X150916360Y-58813851D01*
X150922740Y-58707563D01*
X150946550Y-58666324D01*
X151035408Y-58607655D01*
X151100457Y-58590225D01*
X151206745Y-58596605D01*
X151371702Y-58691843D01*
X151430371Y-58780701D01*
X151447801Y-58845750D01*
X151441421Y-58952038D01*
X151417612Y-58993277D01*
X151328753Y-59051946D01*
X151263704Y-59069376D01*
X151157416Y-59062996D01*
X150992459Y-58967758D01*
X150886171Y-58961379D01*
X150821122Y-58978808D01*
X150732264Y-59037478D01*
X150637026Y-59202435D01*
X150630646Y-59308723D01*
X150648076Y-59373772D01*
X150706745Y-59462630D01*
X150871702Y-59557868D01*
X150977990Y-59564248D01*
X151043039Y-59546818D01*
X151131897Y-59488149D01*
X151227135Y-59323192D01*
X151233515Y-59216904D01*
X151216085Y-59151855D01*
X151157416Y-59062996D01*
X139248331Y-49019815D02*
X138946461Y-49667178D01*
X138842929Y-49776526D01*
X138716365Y-49822592D01*
X138566767Y-49805375D01*
X138480452Y-49765126D01*
X139593591Y-49180813D02*
X140197796Y-49462558D01*
X139386760Y-50187744D01*
X78590385Y-126539115D02*
X77971795Y-126896258D01*
X77824268Y-126926447D01*
X77694170Y-126891587D01*
X77581502Y-126791679D01*
X77533883Y-126709200D01*
X78780861Y-126869029D02*
X79090385Y-127405140D01*
X78593804Y-127306941D01*
X78665232Y-127430659D01*
X78671612Y-127536947D01*
X78654182Y-127601996D01*
X78595513Y-127690855D01*
X78389317Y-127809902D01*
X78283029Y-127816282D01*
X78217980Y-127798852D01*
X78129121Y-127740183D01*
X77986264Y-127492747D01*
X77979884Y-127386459D01*
X77997314Y-127321410D01*
X79944315Y-73921168D02*
X80591678Y-74223038D01*
X80701026Y-74326570D01*
X80747092Y-74453134D01*
X80729875Y-74602732D01*
X80689626Y-74689047D01*
X80211752Y-73573000D02*
X80188720Y-73509718D01*
X80185811Y-73403278D01*
X80286435Y-73187491D01*
X80369842Y-73121300D01*
X80433124Y-73098267D01*
X80539564Y-73095359D01*
X80625879Y-73135609D01*
X80735227Y-73239140D01*
X81011621Y-73998526D01*
X81273241Y-73437479D01*
X158148486Y-66915912D02*
X158007613Y-66613809D01*
X157532881Y-66835181D02*
X158439188Y-66412562D01*
X158640435Y-66844138D01*
X158761183Y-67103083D02*
X159022804Y-67664130D01*
X158536671Y-67523025D01*
X158597045Y-67652498D01*
X158594137Y-67758937D01*
X158571104Y-67822220D01*
X158504914Y-67905627D01*
X158289126Y-68006250D01*
X158182687Y-68003342D01*
X158119404Y-67980309D01*
X158035998Y-67914119D01*
X157915250Y-67655174D01*
X157918158Y-67548734D01*
X157941191Y-67485452D01*
X76013071Y-84956361D02*
X76013071Y-85289694D01*
X76536880Y-85289694D02*
X75536880Y-85289694D01*
X75536880Y-84813504D01*
X76536880Y-83908742D02*
X76536880Y-84480170D01*
X76536880Y-84194456D02*
X75536880Y-84194456D01*
X75679738Y-84289694D01*
X75774976Y-84384932D01*
X75822595Y-84480170D01*
X82295105Y-66261198D02*
X81529060Y-65618411D01*
X81682105Y-65436019D01*
X81810410Y-65357193D01*
X81944585Y-65345454D01*
X82048150Y-65370194D01*
X82224672Y-65456151D01*
X82334107Y-65547978D01*
X82449412Y-65706892D01*
X82491759Y-65804588D01*
X82503498Y-65938763D01*
X82448150Y-66078807D01*
X82295105Y-66261198D01*
X82110630Y-64925323D02*
X82539155Y-64414626D01*
X83029719Y-65385719D01*
X82052714Y-71984087D02*
X81233562Y-71410510D01*
X81370128Y-71215474D01*
X81491075Y-71125766D01*
X81623716Y-71102377D01*
X81729043Y-71117997D01*
X81912385Y-71188242D01*
X82029407Y-71270181D01*
X82158123Y-71418441D01*
X82208824Y-71512075D01*
X82232212Y-71644716D01*
X82189280Y-71789051D01*
X82052714Y-71984087D01*
X82052957Y-70240293D02*
X81943704Y-70396322D01*
X81928085Y-70501650D01*
X81939779Y-70567970D01*
X82002175Y-70727924D01*
X82130891Y-70876184D01*
X82442949Y-71094689D01*
X82548276Y-71110308D01*
X82614597Y-71098614D01*
X82708230Y-71047913D01*
X82817483Y-70891884D01*
X82833102Y-70786556D01*
X82821408Y-70720236D01*
X82770707Y-70626602D01*
X82575670Y-70490037D01*
X82470343Y-70474418D01*
X82404022Y-70486112D01*
X82310389Y-70536813D01*
X82201136Y-70692842D01*
X82185517Y-70798170D01*
X82197211Y-70864490D01*
X82247912Y-70958124D01*
X84161404Y-114752380D02*
X84161404Y-113752380D01*
X84399500Y-113752380D01*
X84542357Y-113800000D01*
X84637595Y-113895238D01*
X84685214Y-113990476D01*
X84732833Y-114180952D01*
X84732833Y-114323809D01*
X84685214Y-114514285D01*
X84637595Y-114609523D01*
X84542357Y-114704761D01*
X84399500Y-114752380D01*
X84161404Y-114752380D01*
X85685214Y-114752380D02*
X85113785Y-114752380D01*
X85399500Y-114752380D02*
X85399500Y-113752380D01*
X85304261Y-113895238D01*
X85209023Y-113990476D01*
X85113785Y-114038095D01*
X119198642Y-134437357D02*
X119246261Y-134484976D01*
X119293880Y-134627833D01*
X119293880Y-134723071D01*
X119246261Y-134865928D01*
X119151023Y-134961166D01*
X119055785Y-135008785D01*
X118865309Y-135056404D01*
X118722452Y-135056404D01*
X118531976Y-135008785D01*
X118436738Y-134961166D01*
X118341500Y-134865928D01*
X118293880Y-134723071D01*
X118293880Y-134627833D01*
X118341500Y-134484976D01*
X118389119Y-134437357D01*
X118293880Y-134104023D02*
X118293880Y-133484976D01*
X118674833Y-133818309D01*
X118674833Y-133675452D01*
X118722452Y-133580214D01*
X118770071Y-133532595D01*
X118865309Y-133484976D01*
X119103404Y-133484976D01*
X119198642Y-133532595D01*
X119246261Y-133580214D01*
X119293880Y-133675452D01*
X119293880Y-133961166D01*
X119246261Y-134056404D01*
X119198642Y-134104023D01*
X118293880Y-133151642D02*
X118293880Y-132532595D01*
X118674833Y-132865928D01*
X118674833Y-132723071D01*
X118722452Y-132627833D01*
X118770071Y-132580214D01*
X118865309Y-132532595D01*
X119103404Y-132532595D01*
X119198642Y-132580214D01*
X119246261Y-132627833D01*
X119293880Y-132723071D01*
X119293880Y-133008785D01*
X119246261Y-133104023D01*
X119198642Y-133151642D01*
X131898642Y-134183357D02*
X131946261Y-134230976D01*
X131993880Y-134373833D01*
X131993880Y-134469071D01*
X131946261Y-134611928D01*
X131851023Y-134707166D01*
X131755785Y-134754785D01*
X131565309Y-134802404D01*
X131422452Y-134802404D01*
X131231976Y-134754785D01*
X131136738Y-134707166D01*
X131041500Y-134611928D01*
X130993880Y-134469071D01*
X130993880Y-134373833D01*
X131041500Y-134230976D01*
X131089119Y-134183357D01*
X130993880Y-133850023D02*
X130993880Y-133230976D01*
X131374833Y-133564309D01*
X131374833Y-133421452D01*
X131422452Y-133326214D01*
X131470071Y-133278595D01*
X131565309Y-133230976D01*
X131803404Y-133230976D01*
X131898642Y-133278595D01*
X131946261Y-133326214D01*
X131993880Y-133421452D01*
X131993880Y-133707166D01*
X131946261Y-133802404D01*
X131898642Y-133850023D01*
X131993880Y-132278595D02*
X131993880Y-132850023D01*
X131993880Y-132564309D02*
X130993880Y-132564309D01*
X131136738Y-132659547D01*
X131231976Y-132754785D01*
X131279595Y-132850023D01*
X133919142Y-140409357D02*
X133966761Y-140456976D01*
X134014380Y-140599833D01*
X134014380Y-140695071D01*
X133966761Y-140837928D01*
X133871523Y-140933166D01*
X133776285Y-140980785D01*
X133585809Y-141028404D01*
X133442952Y-141028404D01*
X133252476Y-140980785D01*
X133157238Y-140933166D01*
X133062000Y-140837928D01*
X133014380Y-140695071D01*
X133014380Y-140599833D01*
X133062000Y-140456976D01*
X133109619Y-140409357D01*
X133109619Y-140028404D02*
X133062000Y-139980785D01*
X133014380Y-139885547D01*
X133014380Y-139647452D01*
X133062000Y-139552214D01*
X133109619Y-139504595D01*
X133204857Y-139456976D01*
X133300095Y-139456976D01*
X133442952Y-139504595D01*
X134014380Y-140076023D01*
X134014380Y-139456976D01*
X134014380Y-138980785D02*
X134014380Y-138790309D01*
X133966761Y-138695071D01*
X133919142Y-138647452D01*
X133776285Y-138552214D01*
X133585809Y-138504595D01*
X133204857Y-138504595D01*
X133109619Y-138552214D01*
X133062000Y-138599833D01*
X133014380Y-138695071D01*
X133014380Y-138885547D01*
X133062000Y-138980785D01*
X133109619Y-139028404D01*
X133204857Y-139076023D01*
X133442952Y-139076023D01*
X133538190Y-139028404D01*
X133585809Y-138980785D01*
X133633428Y-138885547D01*
X133633428Y-138695071D01*
X133585809Y-138599833D01*
X133538190Y-138552214D01*
X133442952Y-138504595D01*
X118330742Y-147016742D02*
X118283123Y-147064361D01*
X118140266Y-147111980D01*
X118045028Y-147111980D01*
X117902171Y-147064361D01*
X117806933Y-146969123D01*
X117759314Y-146873885D01*
X117711695Y-146683409D01*
X117711695Y-146540552D01*
X117759314Y-146350076D01*
X117806933Y-146254838D01*
X117902171Y-146159600D01*
X118045028Y-146111980D01*
X118140266Y-146111980D01*
X118283123Y-146159600D01*
X118330742Y-146207219D01*
X118711695Y-146207219D02*
X118759314Y-146159600D01*
X118854552Y-146111980D01*
X119092647Y-146111980D01*
X119187885Y-146159600D01*
X119235504Y-146207219D01*
X119283123Y-146302457D01*
X119283123Y-146397695D01*
X119235504Y-146540552D01*
X118664076Y-147111980D01*
X119283123Y-147111980D01*
X119616457Y-146111980D02*
X120283123Y-146111980D01*
X119854552Y-147111980D01*
X123191542Y-151569657D02*
X123239161Y-151617276D01*
X123286780Y-151760133D01*
X123286780Y-151855371D01*
X123239161Y-151998228D01*
X123143923Y-152093466D01*
X123048685Y-152141085D01*
X122858209Y-152188704D01*
X122715352Y-152188704D01*
X122524876Y-152141085D01*
X122429638Y-152093466D01*
X122334400Y-151998228D01*
X122286780Y-151855371D01*
X122286780Y-151760133D01*
X122334400Y-151617276D01*
X122382019Y-151569657D01*
X122382019Y-151188704D02*
X122334400Y-151141085D01*
X122286780Y-151045847D01*
X122286780Y-150807752D01*
X122334400Y-150712514D01*
X122382019Y-150664895D01*
X122477257Y-150617276D01*
X122572495Y-150617276D01*
X122715352Y-150664895D01*
X123286780Y-151236323D01*
X123286780Y-150617276D01*
X122620114Y-149760133D02*
X123286780Y-149760133D01*
X122239161Y-149998228D02*
X122953447Y-150236323D01*
X122953447Y-149617276D01*
X119513642Y-143733857D02*
X119561261Y-143781476D01*
X119608880Y-143924333D01*
X119608880Y-144019571D01*
X119561261Y-144162428D01*
X119466023Y-144257666D01*
X119370785Y-144305285D01*
X119180309Y-144352904D01*
X119037452Y-144352904D01*
X118846976Y-144305285D01*
X118751738Y-144257666D01*
X118656500Y-144162428D01*
X118608880Y-144019571D01*
X118608880Y-143924333D01*
X118656500Y-143781476D01*
X118704119Y-143733857D01*
X118704119Y-143352904D02*
X118656500Y-143305285D01*
X118608880Y-143210047D01*
X118608880Y-142971952D01*
X118656500Y-142876714D01*
X118704119Y-142829095D01*
X118799357Y-142781476D01*
X118894595Y-142781476D01*
X119037452Y-142829095D01*
X119608880Y-143400523D01*
X119608880Y-142781476D01*
X118704119Y-142400523D02*
X118656500Y-142352904D01*
X118608880Y-142257666D01*
X118608880Y-142019571D01*
X118656500Y-141924333D01*
X118704119Y-141876714D01*
X118799357Y-141829095D01*
X118894595Y-141829095D01*
X119037452Y-141876714D01*
X119608880Y-142448142D01*
X119608880Y-141829095D01*
X151071342Y-136069342D02*
X151023723Y-136116961D01*
X150880866Y-136164580D01*
X150785628Y-136164580D01*
X150642771Y-136116961D01*
X150547533Y-136021723D01*
X150499914Y-135926485D01*
X150452295Y-135736009D01*
X150452295Y-135593152D01*
X150499914Y-135402676D01*
X150547533Y-135307438D01*
X150642771Y-135212200D01*
X150785628Y-135164580D01*
X150880866Y-135164580D01*
X151023723Y-135212200D01*
X151071342Y-135259819D01*
X151452295Y-135259819D02*
X151499914Y-135212200D01*
X151595152Y-135164580D01*
X151833247Y-135164580D01*
X151928485Y-135212200D01*
X151976104Y-135259819D01*
X152023723Y-135355057D01*
X152023723Y-135450295D01*
X151976104Y-135593152D01*
X151404676Y-136164580D01*
X152023723Y-136164580D01*
X152976104Y-136164580D02*
X152404676Y-136164580D01*
X152690390Y-136164580D02*
X152690390Y-135164580D01*
X152595152Y-135307438D01*
X152499914Y-135402676D01*
X152404676Y-135450295D01*
X128677942Y-143594057D02*
X128725561Y-143641676D01*
X128773180Y-143784533D01*
X128773180Y-143879771D01*
X128725561Y-144022628D01*
X128630323Y-144117866D01*
X128535085Y-144165485D01*
X128344609Y-144213104D01*
X128201752Y-144213104D01*
X128011276Y-144165485D01*
X127916038Y-144117866D01*
X127820800Y-144022628D01*
X127773180Y-143879771D01*
X127773180Y-143784533D01*
X127820800Y-143641676D01*
X127868419Y-143594057D01*
X127868419Y-143213104D02*
X127820800Y-143165485D01*
X127773180Y-143070247D01*
X127773180Y-142832152D01*
X127820800Y-142736914D01*
X127868419Y-142689295D01*
X127963657Y-142641676D01*
X128058895Y-142641676D01*
X128201752Y-142689295D01*
X128773180Y-143260723D01*
X128773180Y-142641676D01*
X127773180Y-142022628D02*
X127773180Y-141927390D01*
X127820800Y-141832152D01*
X127868419Y-141784533D01*
X127963657Y-141736914D01*
X128154133Y-141689295D01*
X128392228Y-141689295D01*
X128582704Y-141736914D01*
X128677942Y-141784533D01*
X128725561Y-141832152D01*
X128773180Y-141927390D01*
X128773180Y-142022628D01*
X128725561Y-142117866D01*
X128677942Y-142165485D01*
X128582704Y-142213104D01*
X128392228Y-142260723D01*
X128154133Y-142260723D01*
X127963657Y-142213104D01*
X127868419Y-142165485D01*
X127820800Y-142117866D01*
X127773180Y-142022628D01*
X152988942Y-137352042D02*
X152941323Y-137399661D01*
X152798466Y-137447280D01*
X152703228Y-137447280D01*
X152560371Y-137399661D01*
X152465133Y-137304423D01*
X152417514Y-137209185D01*
X152369895Y-137018709D01*
X152369895Y-136875852D01*
X152417514Y-136685376D01*
X152465133Y-136590138D01*
X152560371Y-136494900D01*
X152703228Y-136447280D01*
X152798466Y-136447280D01*
X152941323Y-136494900D01*
X152988942Y-136542519D01*
X153941323Y-137447280D02*
X153369895Y-137447280D01*
X153655609Y-137447280D02*
X153655609Y-136447280D01*
X153560371Y-136590138D01*
X153465133Y-136685376D01*
X153369895Y-136732995D01*
X154417514Y-137447280D02*
X154607990Y-137447280D01*
X154703228Y-137399661D01*
X154750847Y-137352042D01*
X154846085Y-137209185D01*
X154893704Y-137018709D01*
X154893704Y-136637757D01*
X154846085Y-136542519D01*
X154798466Y-136494900D01*
X154703228Y-136447280D01*
X154512752Y-136447280D01*
X154417514Y-136494900D01*
X154369895Y-136542519D01*
X154322276Y-136637757D01*
X154322276Y-136875852D01*
X154369895Y-136971090D01*
X154417514Y-137018709D01*
X154512752Y-137066328D01*
X154703228Y-137066328D01*
X154798466Y-137018709D01*
X154846085Y-136971090D01*
X154893704Y-136875852D01*
X133637642Y-145750057D02*
X133685261Y-145797676D01*
X133732880Y-145940533D01*
X133732880Y-146035771D01*
X133685261Y-146178628D01*
X133590023Y-146273866D01*
X133494785Y-146321485D01*
X133304309Y-146369104D01*
X133161452Y-146369104D01*
X132970976Y-146321485D01*
X132875738Y-146273866D01*
X132780500Y-146178628D01*
X132732880Y-146035771D01*
X132732880Y-145940533D01*
X132780500Y-145797676D01*
X132828119Y-145750057D01*
X133732880Y-144797676D02*
X133732880Y-145369104D01*
X133732880Y-145083390D02*
X132732880Y-145083390D01*
X132875738Y-145178628D01*
X132970976Y-145273866D01*
X133018595Y-145369104D01*
X133161452Y-144226247D02*
X133113833Y-144321485D01*
X133066214Y-144369104D01*
X132970976Y-144416723D01*
X132923357Y-144416723D01*
X132828119Y-144369104D01*
X132780500Y-144321485D01*
X132732880Y-144226247D01*
X132732880Y-144035771D01*
X132780500Y-143940533D01*
X132828119Y-143892914D01*
X132923357Y-143845295D01*
X132970976Y-143845295D01*
X133066214Y-143892914D01*
X133113833Y-143940533D01*
X133161452Y-144035771D01*
X133161452Y-144226247D01*
X133209071Y-144321485D01*
X133256690Y-144369104D01*
X133351928Y-144416723D01*
X133542404Y-144416723D01*
X133637642Y-144369104D01*
X133685261Y-144321485D01*
X133732880Y-144226247D01*
X133732880Y-144035771D01*
X133685261Y-143940533D01*
X133637642Y-143892914D01*
X133542404Y-143845295D01*
X133351928Y-143845295D01*
X133256690Y-143892914D01*
X133209071Y-143940533D01*
X133161452Y-144035771D01*
X115114342Y-144762457D02*
X115161961Y-144810076D01*
X115209580Y-144952933D01*
X115209580Y-145048171D01*
X115161961Y-145191028D01*
X115066723Y-145286266D01*
X114971485Y-145333885D01*
X114781009Y-145381504D01*
X114638152Y-145381504D01*
X114447676Y-145333885D01*
X114352438Y-145286266D01*
X114257200Y-145191028D01*
X114209580Y-145048171D01*
X114209580Y-144952933D01*
X114257200Y-144810076D01*
X114304819Y-144762457D01*
X115209580Y-143810076D02*
X115209580Y-144381504D01*
X115209580Y-144095790D02*
X114209580Y-144095790D01*
X114352438Y-144191028D01*
X114447676Y-144286266D01*
X114495295Y-144381504D01*
X114209580Y-143476742D02*
X114209580Y-142810076D01*
X115209580Y-143238647D01*
X96258142Y-70905642D02*
X96210523Y-70953261D01*
X96067666Y-71000880D01*
X95972428Y-71000880D01*
X95829571Y-70953261D01*
X95734333Y-70858023D01*
X95686714Y-70762785D01*
X95639095Y-70572309D01*
X95639095Y-70429452D01*
X95686714Y-70238976D01*
X95734333Y-70143738D01*
X95829571Y-70048500D01*
X95972428Y-70000880D01*
X96067666Y-70000880D01*
X96210523Y-70048500D01*
X96258142Y-70096119D01*
X97210523Y-71000880D02*
X96639095Y-71000880D01*
X96924809Y-71000880D02*
X96924809Y-70000880D01*
X96829571Y-70143738D01*
X96734333Y-70238976D01*
X96639095Y-70286595D01*
X98067666Y-70000880D02*
X97877190Y-70000880D01*
X97781952Y-70048500D01*
X97734333Y-70096119D01*
X97639095Y-70238976D01*
X97591476Y-70429452D01*
X97591476Y-70810404D01*
X97639095Y-70905642D01*
X97686714Y-70953261D01*
X97781952Y-71000880D01*
X97972428Y-71000880D01*
X98067666Y-70953261D01*
X98115285Y-70905642D01*
X98162904Y-70810404D01*
X98162904Y-70572309D01*
X98115285Y-70477071D01*
X98067666Y-70429452D01*
X97972428Y-70381833D01*
X97781952Y-70381833D01*
X97686714Y-70429452D01*
X97639095Y-70477071D01*
X97591476Y-70572309D01*
X97940833Y-77509642D02*
X97893214Y-77557261D01*
X97750357Y-77604880D01*
X97655119Y-77604880D01*
X97512261Y-77557261D01*
X97417023Y-77462023D01*
X97369404Y-77366785D01*
X97321785Y-77176309D01*
X97321785Y-77033452D01*
X97369404Y-76842976D01*
X97417023Y-76747738D01*
X97512261Y-76652500D01*
X97655119Y-76604880D01*
X97750357Y-76604880D01*
X97893214Y-76652500D01*
X97940833Y-76700119D01*
X98417023Y-77604880D02*
X98607500Y-77604880D01*
X98702738Y-77557261D01*
X98750357Y-77509642D01*
X98845595Y-77366785D01*
X98893214Y-77176309D01*
X98893214Y-76795357D01*
X98845595Y-76700119D01*
X98797976Y-76652500D01*
X98702738Y-76604880D01*
X98512261Y-76604880D01*
X98417023Y-76652500D01*
X98369404Y-76700119D01*
X98321785Y-76795357D01*
X98321785Y-77033452D01*
X98369404Y-77128690D01*
X98417023Y-77176309D01*
X98512261Y-77223928D01*
X98702738Y-77223928D01*
X98797976Y-77176309D01*
X98845595Y-77128690D01*
X98893214Y-77033452D01*
X71087576Y-89770637D02*
X71020233Y-89770637D01*
X70885546Y-89703293D01*
X70818202Y-89635950D01*
X70750859Y-89501262D01*
X70750859Y-89366575D01*
X70784530Y-89265560D01*
X70885546Y-89097201D01*
X70986561Y-88996186D01*
X71154920Y-88895171D01*
X71255935Y-88861499D01*
X71390622Y-88861499D01*
X71525309Y-88928843D01*
X71592653Y-88996186D01*
X71659996Y-89130873D01*
X71659996Y-89198217D01*
X71828355Y-89837980D02*
X71794683Y-89736965D01*
X71794683Y-89669621D01*
X71828355Y-89568606D01*
X71862027Y-89534934D01*
X71963042Y-89501262D01*
X72030385Y-89501262D01*
X72131401Y-89534934D01*
X72266088Y-89669621D01*
X72299759Y-89770637D01*
X72299759Y-89837980D01*
X72266088Y-89938995D01*
X72232416Y-89972667D01*
X72131401Y-90006339D01*
X72064057Y-90006339D01*
X71963042Y-89972667D01*
X71828355Y-89837980D01*
X71727340Y-89804308D01*
X71659996Y-89804308D01*
X71558981Y-89837980D01*
X71424294Y-89972667D01*
X71390622Y-90073682D01*
X71390622Y-90141026D01*
X71424294Y-90242041D01*
X71558981Y-90376728D01*
X71659996Y-90410400D01*
X71727340Y-90410400D01*
X71828355Y-90376728D01*
X71963042Y-90242041D01*
X71996714Y-90141026D01*
X71996714Y-90073682D01*
X71963042Y-89972667D01*
X132294333Y-54649642D02*
X132246714Y-54697261D01*
X132103857Y-54744880D01*
X132008619Y-54744880D01*
X131865761Y-54697261D01*
X131770523Y-54602023D01*
X131722904Y-54506785D01*
X131675285Y-54316309D01*
X131675285Y-54173452D01*
X131722904Y-53982976D01*
X131770523Y-53887738D01*
X131865761Y-53792500D01*
X132008619Y-53744880D01*
X132103857Y-53744880D01*
X132246714Y-53792500D01*
X132294333Y-53840119D01*
X132627666Y-53744880D02*
X133294333Y-53744880D01*
X132865761Y-54744880D01*
X133993833Y-61443142D02*
X133946214Y-61490761D01*
X133803357Y-61538380D01*
X133708119Y-61538380D01*
X133565261Y-61490761D01*
X133470023Y-61395523D01*
X133422404Y-61300285D01*
X133374785Y-61109809D01*
X133374785Y-60966952D01*
X133422404Y-60776476D01*
X133470023Y-60681238D01*
X133565261Y-60586000D01*
X133708119Y-60538380D01*
X133803357Y-60538380D01*
X133946214Y-60586000D01*
X133993833Y-60633619D01*
X134850976Y-60538380D02*
X134660500Y-60538380D01*
X134565261Y-60586000D01*
X134517642Y-60633619D01*
X134422404Y-60776476D01*
X134374785Y-60966952D01*
X134374785Y-61347904D01*
X134422404Y-61443142D01*
X134470023Y-61490761D01*
X134565261Y-61538380D01*
X134755738Y-61538380D01*
X134850976Y-61490761D01*
X134898595Y-61443142D01*
X134946214Y-61347904D01*
X134946214Y-61109809D01*
X134898595Y-61014571D01*
X134850976Y-60966952D01*
X134755738Y-60919333D01*
X134565261Y-60919333D01*
X134470023Y-60966952D01*
X134422404Y-61014571D01*
X134374785Y-61109809D01*
M02*
