G04 #@! TF.GenerationSoftware,KiCad,Pcbnew,(5.1.5)-3*
G04 #@! TF.CreationDate,2020-10-13T22:13:04-07:00*
G04 #@! TF.ProjectId,LCP_PowerControl,4c43505f-506f-4776-9572-436f6e74726f,rev?*
G04 #@! TF.SameCoordinates,Original*
G04 #@! TF.FileFunction,Soldermask,Top*
G04 #@! TF.FilePolarity,Negative*
%FSLAX46Y46*%
G04 Gerber Fmt 4.6, Leading zero omitted, Abs format (unit mm)*
G04 Created by KiCad (PCBNEW (5.1.5)-3) date 2020-10-13 22:13:04*
%MOMM*%
%LPD*%
G04 APERTURE LIST*
%ADD10C,2.540000*%
%ADD11O,2.400000X2.400000*%
%ADD12C,2.400000*%
%ADD13R,2.400000X2.400000*%
%ADD14C,1.350000*%
%ADD15C,0.100000*%
%ADD16C,1.700000*%
%ADD17C,1.500000*%
%ADD18C,1.000000*%
%ADD19C,1.000000*%
%ADD20R,9.000000X2.380000*%
%ADD21C,7.112000*%
%ADD22R,0.400000X2.400000*%
%ADD23R,1.000000X0.400000*%
%ADD24R,0.700000X0.250000*%
%ADD25R,0.300000X0.700000*%
%ADD26R,0.250000X0.700000*%
%ADD27R,0.650000X1.560000*%
%ADD28R,3.000000X3.000000*%
%ADD29R,1.050000X0.450000*%
%ADD30C,2.000000*%
%ADD31R,0.900000X0.400000*%
%ADD32R,8.200000X2.600000*%
%ADD33O,1.700000X1.700000*%
%ADD34R,1.700000X1.700000*%
%ADD35C,2.010000*%
%ADD36R,1.000000X1.000000*%
G04 APERTURE END LIST*
D10*
X130746500Y-73215500D03*
X127317500Y-73152000D03*
X123698000Y-73215500D03*
X154813000Y-54991000D03*
X157607000Y-56959500D03*
X152336500Y-53276500D03*
X149606000Y-51435000D03*
X137414000Y-46101000D03*
X133604000Y-45275500D03*
X129794000Y-44577000D03*
X120840500Y-43751500D03*
X117094000Y-44196000D03*
X113347500Y-44577000D03*
X103949500Y-46926500D03*
X101346000Y-48260000D03*
X98234500Y-49720500D03*
X95567500Y-51181000D03*
X92392500Y-53022500D03*
X89852500Y-54610000D03*
X81153000Y-61976000D03*
X79057500Y-64579500D03*
X77089000Y-67373500D03*
X74168000Y-72326500D03*
X72898000Y-74930000D03*
X71247000Y-78549500D03*
X70104000Y-81216500D03*
X151828500Y-144653000D03*
X149098000Y-146240500D03*
X146240500Y-147764500D03*
X143319500Y-149098000D03*
X99758500Y-148907500D03*
X103124000Y-149987000D03*
X106680000Y-150939500D03*
X110109000Y-152082500D03*
X113411000Y-153098500D03*
D11*
X89217500Y-120078500D03*
D12*
X89217500Y-64198500D03*
D13*
X116205000Y-54673500D03*
D12*
X116205000Y-59673500D03*
D14*
X136459186Y-56895433D02*
X136459186Y-56895433D01*
X137304422Y-55082817D02*
X137304422Y-55082817D01*
X138271801Y-57740669D02*
X138271801Y-57740669D01*
X139117038Y-55928054D02*
X139117038Y-55928054D01*
X140084417Y-58585906D02*
X140084417Y-58585906D01*
X140929653Y-56773290D02*
X140929653Y-56773290D01*
X141897032Y-59431143D02*
X141897032Y-59431143D01*
X142742269Y-57618527D02*
X142742269Y-57618527D01*
X143709648Y-60276379D02*
X143709648Y-60276379D01*
X144554884Y-58463763D02*
X144554884Y-58463763D01*
X145522263Y-61121616D02*
X145522263Y-61121616D01*
D15*
G36*
X146041010Y-58411975D02*
G01*
X147264525Y-58982510D01*
X146693990Y-60206025D01*
X145470475Y-59635490D01*
X146041010Y-58411975D01*
G37*
D14*
X111415490Y-50309214D02*
X111415490Y-50309214D01*
X109483638Y-50826852D02*
X109483638Y-50826852D01*
X110897852Y-48377362D02*
X110897852Y-48377362D01*
D15*
G36*
X108488703Y-49721703D02*
G01*
X108139297Y-48417703D01*
X109443297Y-48068297D01*
X109792703Y-49372297D01*
X108488703Y-49721703D01*
G37*
D16*
X94439354Y-64512384D02*
X94439354Y-64512384D01*
X96520000Y-63055500D02*
X96520000Y-63055500D01*
X98600646Y-61598615D02*
X98600646Y-61598615D01*
X100681293Y-60141731D02*
X100681293Y-60141731D01*
X102761939Y-58684847D02*
X102761939Y-58684847D01*
D15*
G36*
X103658766Y-57019224D02*
G01*
X105051324Y-56044144D01*
X106026404Y-57436702D01*
X104633846Y-58411782D01*
X103658766Y-57019224D01*
G37*
D17*
X127508000Y-65580000D03*
D15*
G36*
X128032504Y-67831204D02*
G01*
X128056773Y-67834804D01*
X128080571Y-67840765D01*
X128103671Y-67849030D01*
X128125849Y-67859520D01*
X128146893Y-67872133D01*
X128166598Y-67886747D01*
X128184777Y-67903223D01*
X128201253Y-67921402D01*
X128215867Y-67941107D01*
X128228480Y-67962151D01*
X128238970Y-67984329D01*
X128247235Y-68007429D01*
X128253196Y-68031227D01*
X128256796Y-68055496D01*
X128258000Y-68080000D01*
X128258000Y-69080000D01*
X128256796Y-69104504D01*
X128253196Y-69128773D01*
X128247235Y-69152571D01*
X128238970Y-69175671D01*
X128228480Y-69197849D01*
X128215867Y-69218893D01*
X128201253Y-69238598D01*
X128184777Y-69256777D01*
X128166598Y-69273253D01*
X128146893Y-69287867D01*
X128125849Y-69300480D01*
X128103671Y-69310970D01*
X128080571Y-69319235D01*
X128056773Y-69325196D01*
X128032504Y-69328796D01*
X128008000Y-69330000D01*
X127008000Y-69330000D01*
X126983496Y-69328796D01*
X126959227Y-69325196D01*
X126935429Y-69319235D01*
X126912329Y-69310970D01*
X126890151Y-69300480D01*
X126869107Y-69287867D01*
X126849402Y-69273253D01*
X126831223Y-69256777D01*
X126814747Y-69238598D01*
X126800133Y-69218893D01*
X126787520Y-69197849D01*
X126777030Y-69175671D01*
X126768765Y-69152571D01*
X126762804Y-69128773D01*
X126759204Y-69104504D01*
X126758000Y-69080000D01*
X126758000Y-68080000D01*
X126759204Y-68055496D01*
X126762804Y-68031227D01*
X126768765Y-68007429D01*
X126777030Y-67984329D01*
X126787520Y-67962151D01*
X126800133Y-67941107D01*
X126814747Y-67921402D01*
X126831223Y-67903223D01*
X126849402Y-67886747D01*
X126869107Y-67872133D01*
X126890151Y-67859520D01*
X126912329Y-67849030D01*
X126935429Y-67840765D01*
X126959227Y-67834804D01*
X126983496Y-67831204D01*
X127008000Y-67830000D01*
X128008000Y-67830000D01*
X128032504Y-67831204D01*
G37*
D18*
X124508000Y-64640000D03*
X130508000Y-64640000D03*
D19*
X95392088Y-56923939D02*
X95392088Y-56923939D01*
X94663646Y-55883616D02*
X94663646Y-55883616D01*
X94351765Y-57652381D02*
X94351765Y-57652381D01*
X93623323Y-56612058D02*
X93623323Y-56612058D01*
X93311442Y-58380823D02*
X93311442Y-58380823D01*
X92583000Y-57340500D02*
X92583000Y-57340500D01*
X92271119Y-59109265D02*
X92271119Y-59109265D01*
X91542677Y-58068942D02*
X91542677Y-58068942D01*
X91230796Y-59837707D02*
X91230796Y-59837707D01*
D15*
G36*
X91198718Y-58920172D02*
G01*
X90379566Y-59493748D01*
X89805990Y-58674596D01*
X90625142Y-58101020D01*
X91198718Y-58920172D01*
G37*
G36*
X146835691Y-140965553D02*
G01*
X146856926Y-140968703D01*
X146877750Y-140973919D01*
X146897962Y-140981151D01*
X146917368Y-140990330D01*
X146935781Y-141001366D01*
X146953024Y-141014154D01*
X146968930Y-141028570D01*
X146983346Y-141044476D01*
X146996134Y-141061719D01*
X147007170Y-141080132D01*
X147016349Y-141099538D01*
X147023581Y-141119750D01*
X147028797Y-141140574D01*
X147031947Y-141161809D01*
X147033000Y-141183250D01*
X147033000Y-141620750D01*
X147031947Y-141642191D01*
X147028797Y-141663426D01*
X147023581Y-141684250D01*
X147016349Y-141704462D01*
X147007170Y-141723868D01*
X146996134Y-141742281D01*
X146983346Y-141759524D01*
X146968930Y-141775430D01*
X146953024Y-141789846D01*
X146935781Y-141802634D01*
X146917368Y-141813670D01*
X146897962Y-141822849D01*
X146877750Y-141830081D01*
X146856926Y-141835297D01*
X146835691Y-141838447D01*
X146814250Y-141839500D01*
X146301750Y-141839500D01*
X146280309Y-141838447D01*
X146259074Y-141835297D01*
X146238250Y-141830081D01*
X146218038Y-141822849D01*
X146198632Y-141813670D01*
X146180219Y-141802634D01*
X146162976Y-141789846D01*
X146147070Y-141775430D01*
X146132654Y-141759524D01*
X146119866Y-141742281D01*
X146108830Y-141723868D01*
X146099651Y-141704462D01*
X146092419Y-141684250D01*
X146087203Y-141663426D01*
X146084053Y-141642191D01*
X146083000Y-141620750D01*
X146083000Y-141183250D01*
X146084053Y-141161809D01*
X146087203Y-141140574D01*
X146092419Y-141119750D01*
X146099651Y-141099538D01*
X146108830Y-141080132D01*
X146119866Y-141061719D01*
X146132654Y-141044476D01*
X146147070Y-141028570D01*
X146162976Y-141014154D01*
X146180219Y-141001366D01*
X146198632Y-140990330D01*
X146218038Y-140981151D01*
X146238250Y-140973919D01*
X146259074Y-140968703D01*
X146280309Y-140965553D01*
X146301750Y-140964500D01*
X146814250Y-140964500D01*
X146835691Y-140965553D01*
G37*
G36*
X146835691Y-139390553D02*
G01*
X146856926Y-139393703D01*
X146877750Y-139398919D01*
X146897962Y-139406151D01*
X146917368Y-139415330D01*
X146935781Y-139426366D01*
X146953024Y-139439154D01*
X146968930Y-139453570D01*
X146983346Y-139469476D01*
X146996134Y-139486719D01*
X147007170Y-139505132D01*
X147016349Y-139524538D01*
X147023581Y-139544750D01*
X147028797Y-139565574D01*
X147031947Y-139586809D01*
X147033000Y-139608250D01*
X147033000Y-140045750D01*
X147031947Y-140067191D01*
X147028797Y-140088426D01*
X147023581Y-140109250D01*
X147016349Y-140129462D01*
X147007170Y-140148868D01*
X146996134Y-140167281D01*
X146983346Y-140184524D01*
X146968930Y-140200430D01*
X146953024Y-140214846D01*
X146935781Y-140227634D01*
X146917368Y-140238670D01*
X146897962Y-140247849D01*
X146877750Y-140255081D01*
X146856926Y-140260297D01*
X146835691Y-140263447D01*
X146814250Y-140264500D01*
X146301750Y-140264500D01*
X146280309Y-140263447D01*
X146259074Y-140260297D01*
X146238250Y-140255081D01*
X146218038Y-140247849D01*
X146198632Y-140238670D01*
X146180219Y-140227634D01*
X146162976Y-140214846D01*
X146147070Y-140200430D01*
X146132654Y-140184524D01*
X146119866Y-140167281D01*
X146108830Y-140148868D01*
X146099651Y-140129462D01*
X146092419Y-140109250D01*
X146087203Y-140088426D01*
X146084053Y-140067191D01*
X146083000Y-140045750D01*
X146083000Y-139608250D01*
X146084053Y-139586809D01*
X146087203Y-139565574D01*
X146092419Y-139544750D01*
X146099651Y-139524538D01*
X146108830Y-139505132D01*
X146119866Y-139486719D01*
X146132654Y-139469476D01*
X146147070Y-139453570D01*
X146162976Y-139439154D01*
X146180219Y-139426366D01*
X146198632Y-139415330D01*
X146218038Y-139406151D01*
X146238250Y-139398919D01*
X146259074Y-139393703D01*
X146280309Y-139390553D01*
X146301750Y-139389500D01*
X146814250Y-139389500D01*
X146835691Y-139390553D01*
G37*
D20*
X123723400Y-132717400D03*
X123723400Y-139367400D03*
D21*
X139572999Y-129071874D03*
X139572999Y-68580000D03*
X104648000Y-68580000D03*
X104648000Y-129071874D03*
D17*
X150987500Y-65262500D03*
X153987500Y-65262500D03*
X150987500Y-68262500D03*
D15*
G36*
X154512004Y-67513704D02*
G01*
X154536273Y-67517304D01*
X154560071Y-67523265D01*
X154583171Y-67531530D01*
X154605349Y-67542020D01*
X154626393Y-67554633D01*
X154646098Y-67569247D01*
X154664277Y-67585723D01*
X154680753Y-67603902D01*
X154695367Y-67623607D01*
X154707980Y-67644651D01*
X154718470Y-67666829D01*
X154726735Y-67689929D01*
X154732696Y-67713727D01*
X154736296Y-67737996D01*
X154737500Y-67762500D01*
X154737500Y-68762500D01*
X154736296Y-68787004D01*
X154732696Y-68811273D01*
X154726735Y-68835071D01*
X154718470Y-68858171D01*
X154707980Y-68880349D01*
X154695367Y-68901393D01*
X154680753Y-68921098D01*
X154664277Y-68939277D01*
X154646098Y-68955753D01*
X154626393Y-68970367D01*
X154605349Y-68982980D01*
X154583171Y-68993470D01*
X154560071Y-69001735D01*
X154536273Y-69007696D01*
X154512004Y-69011296D01*
X154487500Y-69012500D01*
X153487500Y-69012500D01*
X153462996Y-69011296D01*
X153438727Y-69007696D01*
X153414929Y-69001735D01*
X153391829Y-68993470D01*
X153369651Y-68982980D01*
X153348607Y-68970367D01*
X153328902Y-68955753D01*
X153310723Y-68939277D01*
X153294247Y-68921098D01*
X153279633Y-68901393D01*
X153267020Y-68880349D01*
X153256530Y-68858171D01*
X153248265Y-68835071D01*
X153242304Y-68811273D01*
X153238704Y-68787004D01*
X153237500Y-68762500D01*
X153237500Y-67762500D01*
X153238704Y-67737996D01*
X153242304Y-67713727D01*
X153248265Y-67689929D01*
X153256530Y-67666829D01*
X153267020Y-67644651D01*
X153279633Y-67623607D01*
X153294247Y-67603902D01*
X153310723Y-67585723D01*
X153328902Y-67569247D01*
X153348607Y-67554633D01*
X153369651Y-67542020D01*
X153391829Y-67531530D01*
X153414929Y-67523265D01*
X153438727Y-67517304D01*
X153462996Y-67513704D01*
X153487500Y-67512500D01*
X154487500Y-67512500D01*
X154512004Y-67513704D01*
G37*
D18*
X147987500Y-64322500D03*
X156987500Y-64322500D03*
D22*
X123723400Y-143170400D03*
D15*
G36*
X121768496Y-142369425D02*
G01*
X121768781Y-142368487D01*
X121769243Y-142367622D01*
X121769864Y-142366864D01*
X121770622Y-142366243D01*
X121771487Y-142365781D01*
X121772425Y-142365496D01*
X121773400Y-142365400D01*
X122368400Y-142365400D01*
X122368400Y-141970400D01*
X122368496Y-141969425D01*
X122368781Y-141968487D01*
X122369243Y-141967622D01*
X122369864Y-141966864D01*
X122370622Y-141966243D01*
X122371487Y-141965781D01*
X122372425Y-141965496D01*
X122373400Y-141965400D01*
X122773400Y-141965400D01*
X122774375Y-141965496D01*
X122775313Y-141965781D01*
X122776178Y-141966243D01*
X122776936Y-141966864D01*
X122777557Y-141967622D01*
X122778019Y-141968487D01*
X122778304Y-141969425D01*
X122778400Y-141970400D01*
X122778400Y-142770400D01*
X122778304Y-142771375D01*
X122778019Y-142772313D01*
X122777557Y-142773178D01*
X122776936Y-142773936D01*
X122776178Y-142774557D01*
X122775313Y-142775019D01*
X122774375Y-142775304D01*
X122773400Y-142775400D01*
X121773400Y-142775400D01*
X121772425Y-142775304D01*
X121771487Y-142775019D01*
X121770622Y-142774557D01*
X121769864Y-142773936D01*
X121769243Y-142773178D01*
X121768781Y-142772313D01*
X121768496Y-142771375D01*
X121768400Y-142770400D01*
X121768400Y-142370400D01*
X121768496Y-142369425D01*
G37*
G36*
X125678304Y-142771375D02*
G01*
X125678019Y-142772313D01*
X125677557Y-142773178D01*
X125676936Y-142773936D01*
X125676178Y-142774557D01*
X125675313Y-142775019D01*
X125674375Y-142775304D01*
X125673400Y-142775400D01*
X124673400Y-142775400D01*
X124672425Y-142775304D01*
X124671487Y-142775019D01*
X124670622Y-142774557D01*
X124669864Y-142773936D01*
X124669243Y-142773178D01*
X124668781Y-142772313D01*
X124668496Y-142771375D01*
X124668400Y-142770400D01*
X124668400Y-141970400D01*
X124668496Y-141969425D01*
X124668781Y-141968487D01*
X124669243Y-141967622D01*
X124669864Y-141966864D01*
X124670622Y-141966243D01*
X124671487Y-141965781D01*
X124672425Y-141965496D01*
X124673400Y-141965400D01*
X125073400Y-141965400D01*
X125074375Y-141965496D01*
X125075313Y-141965781D01*
X125076178Y-141966243D01*
X125076936Y-141966864D01*
X125077557Y-141967622D01*
X125078019Y-141968487D01*
X125078304Y-141969425D01*
X125078400Y-141970400D01*
X125078400Y-142365400D01*
X125673400Y-142365400D01*
X125674375Y-142365496D01*
X125675313Y-142365781D01*
X125676178Y-142366243D01*
X125676936Y-142366864D01*
X125677557Y-142367622D01*
X125678019Y-142368487D01*
X125678304Y-142369425D01*
X125678400Y-142370400D01*
X125678400Y-142770400D01*
X125678304Y-142771375D01*
G37*
D23*
X122273400Y-143720400D03*
X125173400Y-143720400D03*
D24*
X122123400Y-145295400D03*
X122123400Y-144795400D03*
X125323400Y-144795400D03*
X125323400Y-145295400D03*
D25*
X123723400Y-146020400D03*
D15*
G36*
X121768496Y-145669425D02*
G01*
X121768781Y-145668487D01*
X121769243Y-145667622D01*
X121769864Y-145666864D01*
X121770622Y-145666243D01*
X121771487Y-145665781D01*
X121772425Y-145665496D01*
X121773400Y-145665400D01*
X122773400Y-145665400D01*
X122774375Y-145665496D01*
X122775313Y-145665781D01*
X122776178Y-145666243D01*
X122776936Y-145666864D01*
X122777557Y-145667622D01*
X122778019Y-145668487D01*
X122778304Y-145669425D01*
X122778400Y-145670400D01*
X122778400Y-146370400D01*
X122778304Y-146371375D01*
X122778019Y-146372313D01*
X122777557Y-146373178D01*
X122776936Y-146373936D01*
X122776178Y-146374557D01*
X122775313Y-146375019D01*
X122774375Y-146375304D01*
X122773400Y-146375400D01*
X122373400Y-146375400D01*
X122372425Y-146375304D01*
X122371487Y-146375019D01*
X122370622Y-146374557D01*
X122369864Y-146373936D01*
X122369243Y-146373178D01*
X122368781Y-146372313D01*
X122368496Y-146371375D01*
X122368400Y-146370400D01*
X122368400Y-146025400D01*
X121773400Y-146025400D01*
X121772425Y-146025304D01*
X121771487Y-146025019D01*
X121770622Y-146024557D01*
X121769864Y-146023936D01*
X121769243Y-146023178D01*
X121768781Y-146022313D01*
X121768496Y-146021375D01*
X121768400Y-146020400D01*
X121768400Y-145670400D01*
X121768496Y-145669425D01*
G37*
G36*
X125678304Y-146021375D02*
G01*
X125678019Y-146022313D01*
X125677557Y-146023178D01*
X125676936Y-146023936D01*
X125676178Y-146024557D01*
X125675313Y-146025019D01*
X125674375Y-146025304D01*
X125673400Y-146025400D01*
X125078400Y-146025400D01*
X125078400Y-146370400D01*
X125078304Y-146371375D01*
X125078019Y-146372313D01*
X125077557Y-146373178D01*
X125076936Y-146373936D01*
X125076178Y-146374557D01*
X125075313Y-146375019D01*
X125074375Y-146375304D01*
X125073400Y-146375400D01*
X124673400Y-146375400D01*
X124672425Y-146375304D01*
X124671487Y-146375019D01*
X124670622Y-146374557D01*
X124669864Y-146373936D01*
X124669243Y-146373178D01*
X124668781Y-146372313D01*
X124668496Y-146371375D01*
X124668400Y-146370400D01*
X124668400Y-145670400D01*
X124668496Y-145669425D01*
X124668781Y-145668487D01*
X124669243Y-145667622D01*
X124669864Y-145666864D01*
X124670622Y-145666243D01*
X124671487Y-145665781D01*
X124672425Y-145665496D01*
X124673400Y-145665400D01*
X125673400Y-145665400D01*
X125674375Y-145665496D01*
X125675313Y-145665781D01*
X125676178Y-145666243D01*
X125676936Y-145666864D01*
X125677557Y-145667622D01*
X125678019Y-145668487D01*
X125678304Y-145669425D01*
X125678400Y-145670400D01*
X125678400Y-146020400D01*
X125678304Y-146021375D01*
G37*
D26*
X124248400Y-146020400D03*
X123198400Y-146020400D03*
D27*
X148910000Y-139192000D03*
X147960000Y-139192000D03*
X149860000Y-139192000D03*
X149860000Y-141892000D03*
X148910000Y-141892000D03*
X147960000Y-141892000D03*
D28*
X126703000Y-58186500D03*
D29*
X129478000Y-55911500D03*
X129478000Y-56561500D03*
X129478000Y-57211500D03*
X129478000Y-57861500D03*
X129478000Y-58511500D03*
X129478000Y-59161500D03*
X129478000Y-59811500D03*
X129478000Y-60461500D03*
X123928000Y-60461500D03*
X123928000Y-59811500D03*
X123928000Y-59161500D03*
X123928000Y-58511500D03*
X123928000Y-57861500D03*
X123928000Y-57211500D03*
X123928000Y-56561500D03*
X123928000Y-55911500D03*
D30*
X95834200Y-142062200D03*
X99060000Y-138379200D03*
X137096500Y-42799000D03*
X131508500Y-41529000D03*
X78486000Y-60325000D03*
X76009500Y-64389000D03*
X159575500Y-53149500D03*
X152717500Y-49276000D03*
X110490000Y-157226000D03*
X146367500Y-151765000D03*
X129222500Y-149796500D03*
X152209500Y-148780500D03*
X155511500Y-129603500D03*
X101282500Y-44259500D03*
X149034500Y-129667000D03*
X161480500Y-129413000D03*
X115316000Y-127952500D03*
X124904500Y-76517500D03*
X128841500Y-76581000D03*
X113855500Y-41338500D03*
X119443500Y-40830500D03*
X99314000Y-153289000D03*
X104584500Y-155384500D03*
D15*
G36*
X106395629Y-48499139D02*
G01*
X106987295Y-49767970D01*
X105537203Y-50444159D01*
X104945537Y-49175328D01*
X106395629Y-48499139D01*
G37*
G36*
X99870213Y-51541990D02*
G01*
X100461879Y-52810821D01*
X99011787Y-53487010D01*
X98420121Y-52218179D01*
X99870213Y-51541990D01*
G37*
G36*
X107663483Y-51218062D02*
G01*
X108255149Y-52486893D01*
X106805057Y-53163082D01*
X106213391Y-51894251D01*
X107663483Y-51218062D01*
G37*
G36*
X101138067Y-54260913D02*
G01*
X101729733Y-55529744D01*
X100279641Y-56205933D01*
X99687975Y-54937102D01*
X101138067Y-54260913D01*
G37*
D31*
X79565500Y-78270000D03*
X79565500Y-77470000D03*
X81265500Y-77470000D03*
X81265500Y-78270000D03*
D15*
G36*
X121471958Y-147366210D02*
G01*
X121486276Y-147368334D01*
X121500317Y-147371851D01*
X121513946Y-147376728D01*
X121527031Y-147382917D01*
X121539447Y-147390358D01*
X121551073Y-147398981D01*
X121561798Y-147408702D01*
X121571519Y-147419427D01*
X121580142Y-147431053D01*
X121587583Y-147443469D01*
X121593772Y-147456554D01*
X121598649Y-147470183D01*
X121602166Y-147484224D01*
X121604290Y-147498542D01*
X121605000Y-147513000D01*
X121605000Y-147808000D01*
X121604290Y-147822458D01*
X121602166Y-147836776D01*
X121598649Y-147850817D01*
X121593772Y-147864446D01*
X121587583Y-147877531D01*
X121580142Y-147889947D01*
X121571519Y-147901573D01*
X121561798Y-147912298D01*
X121551073Y-147922019D01*
X121539447Y-147930642D01*
X121527031Y-147938083D01*
X121513946Y-147944272D01*
X121500317Y-147949149D01*
X121486276Y-147952666D01*
X121471958Y-147954790D01*
X121457500Y-147955500D01*
X121112500Y-147955500D01*
X121098042Y-147954790D01*
X121083724Y-147952666D01*
X121069683Y-147949149D01*
X121056054Y-147944272D01*
X121042969Y-147938083D01*
X121030553Y-147930642D01*
X121018927Y-147922019D01*
X121008202Y-147912298D01*
X120998481Y-147901573D01*
X120989858Y-147889947D01*
X120982417Y-147877531D01*
X120976228Y-147864446D01*
X120971351Y-147850817D01*
X120967834Y-147836776D01*
X120965710Y-147822458D01*
X120965000Y-147808000D01*
X120965000Y-147513000D01*
X120965710Y-147498542D01*
X120967834Y-147484224D01*
X120971351Y-147470183D01*
X120976228Y-147456554D01*
X120982417Y-147443469D01*
X120989858Y-147431053D01*
X120998481Y-147419427D01*
X121008202Y-147408702D01*
X121018927Y-147398981D01*
X121030553Y-147390358D01*
X121042969Y-147382917D01*
X121056054Y-147376728D01*
X121069683Y-147371851D01*
X121083724Y-147368334D01*
X121098042Y-147366210D01*
X121112500Y-147365500D01*
X121457500Y-147365500D01*
X121471958Y-147366210D01*
G37*
G36*
X121471958Y-148336210D02*
G01*
X121486276Y-148338334D01*
X121500317Y-148341851D01*
X121513946Y-148346728D01*
X121527031Y-148352917D01*
X121539447Y-148360358D01*
X121551073Y-148368981D01*
X121561798Y-148378702D01*
X121571519Y-148389427D01*
X121580142Y-148401053D01*
X121587583Y-148413469D01*
X121593772Y-148426554D01*
X121598649Y-148440183D01*
X121602166Y-148454224D01*
X121604290Y-148468542D01*
X121605000Y-148483000D01*
X121605000Y-148778000D01*
X121604290Y-148792458D01*
X121602166Y-148806776D01*
X121598649Y-148820817D01*
X121593772Y-148834446D01*
X121587583Y-148847531D01*
X121580142Y-148859947D01*
X121571519Y-148871573D01*
X121561798Y-148882298D01*
X121551073Y-148892019D01*
X121539447Y-148900642D01*
X121527031Y-148908083D01*
X121513946Y-148914272D01*
X121500317Y-148919149D01*
X121486276Y-148922666D01*
X121471958Y-148924790D01*
X121457500Y-148925500D01*
X121112500Y-148925500D01*
X121098042Y-148924790D01*
X121083724Y-148922666D01*
X121069683Y-148919149D01*
X121056054Y-148914272D01*
X121042969Y-148908083D01*
X121030553Y-148900642D01*
X121018927Y-148892019D01*
X121008202Y-148882298D01*
X120998481Y-148871573D01*
X120989858Y-148859947D01*
X120982417Y-148847531D01*
X120976228Y-148834446D01*
X120971351Y-148820817D01*
X120967834Y-148806776D01*
X120965710Y-148792458D01*
X120965000Y-148778000D01*
X120965000Y-148483000D01*
X120965710Y-148468542D01*
X120967834Y-148454224D01*
X120971351Y-148440183D01*
X120976228Y-148426554D01*
X120982417Y-148413469D01*
X120989858Y-148401053D01*
X120998481Y-148389427D01*
X121008202Y-148378702D01*
X121018927Y-148368981D01*
X121030553Y-148360358D01*
X121042969Y-148352917D01*
X121056054Y-148346728D01*
X121069683Y-148341851D01*
X121083724Y-148338334D01*
X121098042Y-148336210D01*
X121112500Y-148335500D01*
X121457500Y-148335500D01*
X121471958Y-148336210D01*
G37*
G36*
X120328958Y-148359210D02*
G01*
X120343276Y-148361334D01*
X120357317Y-148364851D01*
X120370946Y-148369728D01*
X120384031Y-148375917D01*
X120396447Y-148383358D01*
X120408073Y-148391981D01*
X120418798Y-148401702D01*
X120428519Y-148412427D01*
X120437142Y-148424053D01*
X120444583Y-148436469D01*
X120450772Y-148449554D01*
X120455649Y-148463183D01*
X120459166Y-148477224D01*
X120461290Y-148491542D01*
X120462000Y-148506000D01*
X120462000Y-148801000D01*
X120461290Y-148815458D01*
X120459166Y-148829776D01*
X120455649Y-148843817D01*
X120450772Y-148857446D01*
X120444583Y-148870531D01*
X120437142Y-148882947D01*
X120428519Y-148894573D01*
X120418798Y-148905298D01*
X120408073Y-148915019D01*
X120396447Y-148923642D01*
X120384031Y-148931083D01*
X120370946Y-148937272D01*
X120357317Y-148942149D01*
X120343276Y-148945666D01*
X120328958Y-148947790D01*
X120314500Y-148948500D01*
X119969500Y-148948500D01*
X119955042Y-148947790D01*
X119940724Y-148945666D01*
X119926683Y-148942149D01*
X119913054Y-148937272D01*
X119899969Y-148931083D01*
X119887553Y-148923642D01*
X119875927Y-148915019D01*
X119865202Y-148905298D01*
X119855481Y-148894573D01*
X119846858Y-148882947D01*
X119839417Y-148870531D01*
X119833228Y-148857446D01*
X119828351Y-148843817D01*
X119824834Y-148829776D01*
X119822710Y-148815458D01*
X119822000Y-148801000D01*
X119822000Y-148506000D01*
X119822710Y-148491542D01*
X119824834Y-148477224D01*
X119828351Y-148463183D01*
X119833228Y-148449554D01*
X119839417Y-148436469D01*
X119846858Y-148424053D01*
X119855481Y-148412427D01*
X119865202Y-148401702D01*
X119875927Y-148391981D01*
X119887553Y-148383358D01*
X119899969Y-148375917D01*
X119913054Y-148369728D01*
X119926683Y-148364851D01*
X119940724Y-148361334D01*
X119955042Y-148359210D01*
X119969500Y-148358500D01*
X120314500Y-148358500D01*
X120328958Y-148359210D01*
G37*
G36*
X120328958Y-147389210D02*
G01*
X120343276Y-147391334D01*
X120357317Y-147394851D01*
X120370946Y-147399728D01*
X120384031Y-147405917D01*
X120396447Y-147413358D01*
X120408073Y-147421981D01*
X120418798Y-147431702D01*
X120428519Y-147442427D01*
X120437142Y-147454053D01*
X120444583Y-147466469D01*
X120450772Y-147479554D01*
X120455649Y-147493183D01*
X120459166Y-147507224D01*
X120461290Y-147521542D01*
X120462000Y-147536000D01*
X120462000Y-147831000D01*
X120461290Y-147845458D01*
X120459166Y-147859776D01*
X120455649Y-147873817D01*
X120450772Y-147887446D01*
X120444583Y-147900531D01*
X120437142Y-147912947D01*
X120428519Y-147924573D01*
X120418798Y-147935298D01*
X120408073Y-147945019D01*
X120396447Y-147953642D01*
X120384031Y-147961083D01*
X120370946Y-147967272D01*
X120357317Y-147972149D01*
X120343276Y-147975666D01*
X120328958Y-147977790D01*
X120314500Y-147978500D01*
X119969500Y-147978500D01*
X119955042Y-147977790D01*
X119940724Y-147975666D01*
X119926683Y-147972149D01*
X119913054Y-147967272D01*
X119899969Y-147961083D01*
X119887553Y-147953642D01*
X119875927Y-147945019D01*
X119865202Y-147935298D01*
X119855481Y-147924573D01*
X119846858Y-147912947D01*
X119839417Y-147900531D01*
X119833228Y-147887446D01*
X119828351Y-147873817D01*
X119824834Y-147859776D01*
X119822710Y-147845458D01*
X119822000Y-147831000D01*
X119822000Y-147536000D01*
X119822710Y-147521542D01*
X119824834Y-147507224D01*
X119828351Y-147493183D01*
X119833228Y-147479554D01*
X119839417Y-147466469D01*
X119846858Y-147454053D01*
X119855481Y-147442427D01*
X119865202Y-147431702D01*
X119875927Y-147421981D01*
X119887553Y-147413358D01*
X119899969Y-147405917D01*
X119913054Y-147399728D01*
X119926683Y-147394851D01*
X119940724Y-147391334D01*
X119955042Y-147389210D01*
X119969500Y-147388500D01*
X120314500Y-147388500D01*
X120328958Y-147389210D01*
G37*
G36*
X124265958Y-149121210D02*
G01*
X124280276Y-149123334D01*
X124294317Y-149126851D01*
X124307946Y-149131728D01*
X124321031Y-149137917D01*
X124333447Y-149145358D01*
X124345073Y-149153981D01*
X124355798Y-149163702D01*
X124365519Y-149174427D01*
X124374142Y-149186053D01*
X124381583Y-149198469D01*
X124387772Y-149211554D01*
X124392649Y-149225183D01*
X124396166Y-149239224D01*
X124398290Y-149253542D01*
X124399000Y-149268000D01*
X124399000Y-149563000D01*
X124398290Y-149577458D01*
X124396166Y-149591776D01*
X124392649Y-149605817D01*
X124387772Y-149619446D01*
X124381583Y-149632531D01*
X124374142Y-149644947D01*
X124365519Y-149656573D01*
X124355798Y-149667298D01*
X124345073Y-149677019D01*
X124333447Y-149685642D01*
X124321031Y-149693083D01*
X124307946Y-149699272D01*
X124294317Y-149704149D01*
X124280276Y-149707666D01*
X124265958Y-149709790D01*
X124251500Y-149710500D01*
X123906500Y-149710500D01*
X123892042Y-149709790D01*
X123877724Y-149707666D01*
X123863683Y-149704149D01*
X123850054Y-149699272D01*
X123836969Y-149693083D01*
X123824553Y-149685642D01*
X123812927Y-149677019D01*
X123802202Y-149667298D01*
X123792481Y-149656573D01*
X123783858Y-149644947D01*
X123776417Y-149632531D01*
X123770228Y-149619446D01*
X123765351Y-149605817D01*
X123761834Y-149591776D01*
X123759710Y-149577458D01*
X123759000Y-149563000D01*
X123759000Y-149268000D01*
X123759710Y-149253542D01*
X123761834Y-149239224D01*
X123765351Y-149225183D01*
X123770228Y-149211554D01*
X123776417Y-149198469D01*
X123783858Y-149186053D01*
X123792481Y-149174427D01*
X123802202Y-149163702D01*
X123812927Y-149153981D01*
X123824553Y-149145358D01*
X123836969Y-149137917D01*
X123850054Y-149131728D01*
X123863683Y-149126851D01*
X123877724Y-149123334D01*
X123892042Y-149121210D01*
X123906500Y-149120500D01*
X124251500Y-149120500D01*
X124265958Y-149121210D01*
G37*
G36*
X124265958Y-148151210D02*
G01*
X124280276Y-148153334D01*
X124294317Y-148156851D01*
X124307946Y-148161728D01*
X124321031Y-148167917D01*
X124333447Y-148175358D01*
X124345073Y-148183981D01*
X124355798Y-148193702D01*
X124365519Y-148204427D01*
X124374142Y-148216053D01*
X124381583Y-148228469D01*
X124387772Y-148241554D01*
X124392649Y-148255183D01*
X124396166Y-148269224D01*
X124398290Y-148283542D01*
X124399000Y-148298000D01*
X124399000Y-148593000D01*
X124398290Y-148607458D01*
X124396166Y-148621776D01*
X124392649Y-148635817D01*
X124387772Y-148649446D01*
X124381583Y-148662531D01*
X124374142Y-148674947D01*
X124365519Y-148686573D01*
X124355798Y-148697298D01*
X124345073Y-148707019D01*
X124333447Y-148715642D01*
X124321031Y-148723083D01*
X124307946Y-148729272D01*
X124294317Y-148734149D01*
X124280276Y-148737666D01*
X124265958Y-148739790D01*
X124251500Y-148740500D01*
X123906500Y-148740500D01*
X123892042Y-148739790D01*
X123877724Y-148737666D01*
X123863683Y-148734149D01*
X123850054Y-148729272D01*
X123836969Y-148723083D01*
X123824553Y-148715642D01*
X123812927Y-148707019D01*
X123802202Y-148697298D01*
X123792481Y-148686573D01*
X123783858Y-148674947D01*
X123776417Y-148662531D01*
X123770228Y-148649446D01*
X123765351Y-148635817D01*
X123761834Y-148621776D01*
X123759710Y-148607458D01*
X123759000Y-148593000D01*
X123759000Y-148298000D01*
X123759710Y-148283542D01*
X123761834Y-148269224D01*
X123765351Y-148255183D01*
X123770228Y-148241554D01*
X123776417Y-148228469D01*
X123783858Y-148216053D01*
X123792481Y-148204427D01*
X123802202Y-148193702D01*
X123812927Y-148183981D01*
X123824553Y-148175358D01*
X123836969Y-148167917D01*
X123850054Y-148161728D01*
X123863683Y-148156851D01*
X123877724Y-148153334D01*
X123892042Y-148151210D01*
X123906500Y-148150500D01*
X124251500Y-148150500D01*
X124265958Y-148151210D01*
G37*
G36*
X125281958Y-148018710D02*
G01*
X125296276Y-148020834D01*
X125310317Y-148024351D01*
X125323946Y-148029228D01*
X125337031Y-148035417D01*
X125349447Y-148042858D01*
X125361073Y-148051481D01*
X125371798Y-148061202D01*
X125381519Y-148071927D01*
X125390142Y-148083553D01*
X125397583Y-148095969D01*
X125403772Y-148109054D01*
X125408649Y-148122683D01*
X125412166Y-148136724D01*
X125414290Y-148151042D01*
X125415000Y-148165500D01*
X125415000Y-148460500D01*
X125414290Y-148474958D01*
X125412166Y-148489276D01*
X125408649Y-148503317D01*
X125403772Y-148516946D01*
X125397583Y-148530031D01*
X125390142Y-148542447D01*
X125381519Y-148554073D01*
X125371798Y-148564798D01*
X125361073Y-148574519D01*
X125349447Y-148583142D01*
X125337031Y-148590583D01*
X125323946Y-148596772D01*
X125310317Y-148601649D01*
X125296276Y-148605166D01*
X125281958Y-148607290D01*
X125267500Y-148608000D01*
X124922500Y-148608000D01*
X124908042Y-148607290D01*
X124893724Y-148605166D01*
X124879683Y-148601649D01*
X124866054Y-148596772D01*
X124852969Y-148590583D01*
X124840553Y-148583142D01*
X124828927Y-148574519D01*
X124818202Y-148564798D01*
X124808481Y-148554073D01*
X124799858Y-148542447D01*
X124792417Y-148530031D01*
X124786228Y-148516946D01*
X124781351Y-148503317D01*
X124777834Y-148489276D01*
X124775710Y-148474958D01*
X124775000Y-148460500D01*
X124775000Y-148165500D01*
X124775710Y-148151042D01*
X124777834Y-148136724D01*
X124781351Y-148122683D01*
X124786228Y-148109054D01*
X124792417Y-148095969D01*
X124799858Y-148083553D01*
X124808481Y-148071927D01*
X124818202Y-148061202D01*
X124828927Y-148051481D01*
X124840553Y-148042858D01*
X124852969Y-148035417D01*
X124866054Y-148029228D01*
X124879683Y-148024351D01*
X124893724Y-148020834D01*
X124908042Y-148018710D01*
X124922500Y-148018000D01*
X125267500Y-148018000D01*
X125281958Y-148018710D01*
G37*
G36*
X125281958Y-147048710D02*
G01*
X125296276Y-147050834D01*
X125310317Y-147054351D01*
X125323946Y-147059228D01*
X125337031Y-147065417D01*
X125349447Y-147072858D01*
X125361073Y-147081481D01*
X125371798Y-147091202D01*
X125381519Y-147101927D01*
X125390142Y-147113553D01*
X125397583Y-147125969D01*
X125403772Y-147139054D01*
X125408649Y-147152683D01*
X125412166Y-147166724D01*
X125414290Y-147181042D01*
X125415000Y-147195500D01*
X125415000Y-147490500D01*
X125414290Y-147504958D01*
X125412166Y-147519276D01*
X125408649Y-147533317D01*
X125403772Y-147546946D01*
X125397583Y-147560031D01*
X125390142Y-147572447D01*
X125381519Y-147584073D01*
X125371798Y-147594798D01*
X125361073Y-147604519D01*
X125349447Y-147613142D01*
X125337031Y-147620583D01*
X125323946Y-147626772D01*
X125310317Y-147631649D01*
X125296276Y-147635166D01*
X125281958Y-147637290D01*
X125267500Y-147638000D01*
X124922500Y-147638000D01*
X124908042Y-147637290D01*
X124893724Y-147635166D01*
X124879683Y-147631649D01*
X124866054Y-147626772D01*
X124852969Y-147620583D01*
X124840553Y-147613142D01*
X124828927Y-147604519D01*
X124818202Y-147594798D01*
X124808481Y-147584073D01*
X124799858Y-147572447D01*
X124792417Y-147560031D01*
X124786228Y-147546946D01*
X124781351Y-147533317D01*
X124777834Y-147519276D01*
X124775710Y-147504958D01*
X124775000Y-147490500D01*
X124775000Y-147195500D01*
X124775710Y-147181042D01*
X124777834Y-147166724D01*
X124781351Y-147152683D01*
X124786228Y-147139054D01*
X124792417Y-147125969D01*
X124799858Y-147113553D01*
X124808481Y-147101927D01*
X124818202Y-147091202D01*
X124828927Y-147081481D01*
X124840553Y-147072858D01*
X124852969Y-147065417D01*
X124866054Y-147059228D01*
X124879683Y-147054351D01*
X124893724Y-147050834D01*
X124908042Y-147048710D01*
X124922500Y-147048000D01*
X125267500Y-147048000D01*
X125281958Y-147048710D01*
G37*
G36*
X127059958Y-146304210D02*
G01*
X127074276Y-146306334D01*
X127088317Y-146309851D01*
X127101946Y-146314728D01*
X127115031Y-146320917D01*
X127127447Y-146328358D01*
X127139073Y-146336981D01*
X127149798Y-146346702D01*
X127159519Y-146357427D01*
X127168142Y-146369053D01*
X127175583Y-146381469D01*
X127181772Y-146394554D01*
X127186649Y-146408183D01*
X127190166Y-146422224D01*
X127192290Y-146436542D01*
X127193000Y-146451000D01*
X127193000Y-146746000D01*
X127192290Y-146760458D01*
X127190166Y-146774776D01*
X127186649Y-146788817D01*
X127181772Y-146802446D01*
X127175583Y-146815531D01*
X127168142Y-146827947D01*
X127159519Y-146839573D01*
X127149798Y-146850298D01*
X127139073Y-146860019D01*
X127127447Y-146868642D01*
X127115031Y-146876083D01*
X127101946Y-146882272D01*
X127088317Y-146887149D01*
X127074276Y-146890666D01*
X127059958Y-146892790D01*
X127045500Y-146893500D01*
X126700500Y-146893500D01*
X126686042Y-146892790D01*
X126671724Y-146890666D01*
X126657683Y-146887149D01*
X126644054Y-146882272D01*
X126630969Y-146876083D01*
X126618553Y-146868642D01*
X126606927Y-146860019D01*
X126596202Y-146850298D01*
X126586481Y-146839573D01*
X126577858Y-146827947D01*
X126570417Y-146815531D01*
X126564228Y-146802446D01*
X126559351Y-146788817D01*
X126555834Y-146774776D01*
X126553710Y-146760458D01*
X126553000Y-146746000D01*
X126553000Y-146451000D01*
X126553710Y-146436542D01*
X126555834Y-146422224D01*
X126559351Y-146408183D01*
X126564228Y-146394554D01*
X126570417Y-146381469D01*
X126577858Y-146369053D01*
X126586481Y-146357427D01*
X126596202Y-146346702D01*
X126606927Y-146336981D01*
X126618553Y-146328358D01*
X126630969Y-146320917D01*
X126644054Y-146314728D01*
X126657683Y-146309851D01*
X126671724Y-146306334D01*
X126686042Y-146304210D01*
X126700500Y-146303500D01*
X127045500Y-146303500D01*
X127059958Y-146304210D01*
G37*
G36*
X127059958Y-145334210D02*
G01*
X127074276Y-145336334D01*
X127088317Y-145339851D01*
X127101946Y-145344728D01*
X127115031Y-145350917D01*
X127127447Y-145358358D01*
X127139073Y-145366981D01*
X127149798Y-145376702D01*
X127159519Y-145387427D01*
X127168142Y-145399053D01*
X127175583Y-145411469D01*
X127181772Y-145424554D01*
X127186649Y-145438183D01*
X127190166Y-145452224D01*
X127192290Y-145466542D01*
X127193000Y-145481000D01*
X127193000Y-145776000D01*
X127192290Y-145790458D01*
X127190166Y-145804776D01*
X127186649Y-145818817D01*
X127181772Y-145832446D01*
X127175583Y-145845531D01*
X127168142Y-145857947D01*
X127159519Y-145869573D01*
X127149798Y-145880298D01*
X127139073Y-145890019D01*
X127127447Y-145898642D01*
X127115031Y-145906083D01*
X127101946Y-145912272D01*
X127088317Y-145917149D01*
X127074276Y-145920666D01*
X127059958Y-145922790D01*
X127045500Y-145923500D01*
X126700500Y-145923500D01*
X126686042Y-145922790D01*
X126671724Y-145920666D01*
X126657683Y-145917149D01*
X126644054Y-145912272D01*
X126630969Y-145906083D01*
X126618553Y-145898642D01*
X126606927Y-145890019D01*
X126596202Y-145880298D01*
X126586481Y-145869573D01*
X126577858Y-145857947D01*
X126570417Y-145845531D01*
X126564228Y-145832446D01*
X126559351Y-145818817D01*
X126555834Y-145804776D01*
X126553710Y-145790458D01*
X126553000Y-145776000D01*
X126553000Y-145481000D01*
X126553710Y-145466542D01*
X126555834Y-145452224D01*
X126559351Y-145438183D01*
X126564228Y-145424554D01*
X126570417Y-145411469D01*
X126577858Y-145399053D01*
X126586481Y-145387427D01*
X126596202Y-145376702D01*
X126606927Y-145366981D01*
X126618553Y-145358358D01*
X126630969Y-145350917D01*
X126644054Y-145344728D01*
X126657683Y-145339851D01*
X126671724Y-145336334D01*
X126686042Y-145334210D01*
X126700500Y-145333500D01*
X127045500Y-145333500D01*
X127059958Y-145334210D01*
G37*
G36*
X96533642Y-73088174D02*
G01*
X96557303Y-73091684D01*
X96580507Y-73097496D01*
X96603029Y-73105554D01*
X96624653Y-73115782D01*
X96645170Y-73128079D01*
X96664383Y-73142329D01*
X96682107Y-73158393D01*
X96698171Y-73176117D01*
X96712421Y-73195330D01*
X96724718Y-73215847D01*
X96734946Y-73237471D01*
X96743004Y-73259993D01*
X96748816Y-73283197D01*
X96752326Y-73306858D01*
X96753500Y-73330750D01*
X96753500Y-74243250D01*
X96752326Y-74267142D01*
X96748816Y-74290803D01*
X96743004Y-74314007D01*
X96734946Y-74336529D01*
X96724718Y-74358153D01*
X96712421Y-74378670D01*
X96698171Y-74397883D01*
X96682107Y-74415607D01*
X96664383Y-74431671D01*
X96645170Y-74445921D01*
X96624653Y-74458218D01*
X96603029Y-74468446D01*
X96580507Y-74476504D01*
X96557303Y-74482316D01*
X96533642Y-74485826D01*
X96509750Y-74487000D01*
X96022250Y-74487000D01*
X95998358Y-74485826D01*
X95974697Y-74482316D01*
X95951493Y-74476504D01*
X95928971Y-74468446D01*
X95907347Y-74458218D01*
X95886830Y-74445921D01*
X95867617Y-74431671D01*
X95849893Y-74415607D01*
X95833829Y-74397883D01*
X95819579Y-74378670D01*
X95807282Y-74358153D01*
X95797054Y-74336529D01*
X95788996Y-74314007D01*
X95783184Y-74290803D01*
X95779674Y-74267142D01*
X95778500Y-74243250D01*
X95778500Y-73330750D01*
X95779674Y-73306858D01*
X95783184Y-73283197D01*
X95788996Y-73259993D01*
X95797054Y-73237471D01*
X95807282Y-73215847D01*
X95819579Y-73195330D01*
X95833829Y-73176117D01*
X95849893Y-73158393D01*
X95867617Y-73142329D01*
X95886830Y-73128079D01*
X95907347Y-73115782D01*
X95928971Y-73105554D01*
X95951493Y-73097496D01*
X95974697Y-73091684D01*
X95998358Y-73088174D01*
X96022250Y-73087000D01*
X96509750Y-73087000D01*
X96533642Y-73088174D01*
G37*
G36*
X94658642Y-73088174D02*
G01*
X94682303Y-73091684D01*
X94705507Y-73097496D01*
X94728029Y-73105554D01*
X94749653Y-73115782D01*
X94770170Y-73128079D01*
X94789383Y-73142329D01*
X94807107Y-73158393D01*
X94823171Y-73176117D01*
X94837421Y-73195330D01*
X94849718Y-73215847D01*
X94859946Y-73237471D01*
X94868004Y-73259993D01*
X94873816Y-73283197D01*
X94877326Y-73306858D01*
X94878500Y-73330750D01*
X94878500Y-74243250D01*
X94877326Y-74267142D01*
X94873816Y-74290803D01*
X94868004Y-74314007D01*
X94859946Y-74336529D01*
X94849718Y-74358153D01*
X94837421Y-74378670D01*
X94823171Y-74397883D01*
X94807107Y-74415607D01*
X94789383Y-74431671D01*
X94770170Y-74445921D01*
X94749653Y-74458218D01*
X94728029Y-74468446D01*
X94705507Y-74476504D01*
X94682303Y-74482316D01*
X94658642Y-74485826D01*
X94634750Y-74487000D01*
X94147250Y-74487000D01*
X94123358Y-74485826D01*
X94099697Y-74482316D01*
X94076493Y-74476504D01*
X94053971Y-74468446D01*
X94032347Y-74458218D01*
X94011830Y-74445921D01*
X93992617Y-74431671D01*
X93974893Y-74415607D01*
X93958829Y-74397883D01*
X93944579Y-74378670D01*
X93932282Y-74358153D01*
X93922054Y-74336529D01*
X93913996Y-74314007D01*
X93908184Y-74290803D01*
X93904674Y-74267142D01*
X93903500Y-74243250D01*
X93903500Y-73330750D01*
X93904674Y-73306858D01*
X93908184Y-73283197D01*
X93913996Y-73259993D01*
X93922054Y-73237471D01*
X93932282Y-73215847D01*
X93944579Y-73195330D01*
X93958829Y-73176117D01*
X93974893Y-73158393D01*
X93992617Y-73142329D01*
X94011830Y-73128079D01*
X94032347Y-73115782D01*
X94053971Y-73105554D01*
X94076493Y-73097496D01*
X94099697Y-73091684D01*
X94123358Y-73088174D01*
X94147250Y-73087000D01*
X94634750Y-73087000D01*
X94658642Y-73088174D01*
G37*
G36*
X86332142Y-115274174D02*
G01*
X86355803Y-115277684D01*
X86379007Y-115283496D01*
X86401529Y-115291554D01*
X86423153Y-115301782D01*
X86443670Y-115314079D01*
X86462883Y-115328329D01*
X86480607Y-115344393D01*
X86496671Y-115362117D01*
X86510921Y-115381330D01*
X86523218Y-115401847D01*
X86533446Y-115423471D01*
X86541504Y-115445993D01*
X86547316Y-115469197D01*
X86550826Y-115492858D01*
X86552000Y-115516750D01*
X86552000Y-116004250D01*
X86550826Y-116028142D01*
X86547316Y-116051803D01*
X86541504Y-116075007D01*
X86533446Y-116097529D01*
X86523218Y-116119153D01*
X86510921Y-116139670D01*
X86496671Y-116158883D01*
X86480607Y-116176607D01*
X86462883Y-116192671D01*
X86443670Y-116206921D01*
X86423153Y-116219218D01*
X86401529Y-116229446D01*
X86379007Y-116237504D01*
X86355803Y-116243316D01*
X86332142Y-116246826D01*
X86308250Y-116248000D01*
X85395750Y-116248000D01*
X85371858Y-116246826D01*
X85348197Y-116243316D01*
X85324993Y-116237504D01*
X85302471Y-116229446D01*
X85280847Y-116219218D01*
X85260330Y-116206921D01*
X85241117Y-116192671D01*
X85223393Y-116176607D01*
X85207329Y-116158883D01*
X85193079Y-116139670D01*
X85180782Y-116119153D01*
X85170554Y-116097529D01*
X85162496Y-116075007D01*
X85156684Y-116051803D01*
X85153174Y-116028142D01*
X85152000Y-116004250D01*
X85152000Y-115516750D01*
X85153174Y-115492858D01*
X85156684Y-115469197D01*
X85162496Y-115445993D01*
X85170554Y-115423471D01*
X85180782Y-115401847D01*
X85193079Y-115381330D01*
X85207329Y-115362117D01*
X85223393Y-115344393D01*
X85241117Y-115328329D01*
X85260330Y-115314079D01*
X85280847Y-115301782D01*
X85302471Y-115291554D01*
X85324993Y-115283496D01*
X85348197Y-115277684D01*
X85371858Y-115274174D01*
X85395750Y-115273000D01*
X86308250Y-115273000D01*
X86332142Y-115274174D01*
G37*
G36*
X86332142Y-117149174D02*
G01*
X86355803Y-117152684D01*
X86379007Y-117158496D01*
X86401529Y-117166554D01*
X86423153Y-117176782D01*
X86443670Y-117189079D01*
X86462883Y-117203329D01*
X86480607Y-117219393D01*
X86496671Y-117237117D01*
X86510921Y-117256330D01*
X86523218Y-117276847D01*
X86533446Y-117298471D01*
X86541504Y-117320993D01*
X86547316Y-117344197D01*
X86550826Y-117367858D01*
X86552000Y-117391750D01*
X86552000Y-117879250D01*
X86550826Y-117903142D01*
X86547316Y-117926803D01*
X86541504Y-117950007D01*
X86533446Y-117972529D01*
X86523218Y-117994153D01*
X86510921Y-118014670D01*
X86496671Y-118033883D01*
X86480607Y-118051607D01*
X86462883Y-118067671D01*
X86443670Y-118081921D01*
X86423153Y-118094218D01*
X86401529Y-118104446D01*
X86379007Y-118112504D01*
X86355803Y-118118316D01*
X86332142Y-118121826D01*
X86308250Y-118123000D01*
X85395750Y-118123000D01*
X85371858Y-118121826D01*
X85348197Y-118118316D01*
X85324993Y-118112504D01*
X85302471Y-118104446D01*
X85280847Y-118094218D01*
X85260330Y-118081921D01*
X85241117Y-118067671D01*
X85223393Y-118051607D01*
X85207329Y-118033883D01*
X85193079Y-118014670D01*
X85180782Y-117994153D01*
X85170554Y-117972529D01*
X85162496Y-117950007D01*
X85156684Y-117926803D01*
X85153174Y-117903142D01*
X85152000Y-117879250D01*
X85152000Y-117391750D01*
X85153174Y-117367858D01*
X85156684Y-117344197D01*
X85162496Y-117320993D01*
X85170554Y-117298471D01*
X85180782Y-117276847D01*
X85193079Y-117256330D01*
X85207329Y-117237117D01*
X85223393Y-117219393D01*
X85241117Y-117203329D01*
X85260330Y-117189079D01*
X85280847Y-117176782D01*
X85302471Y-117166554D01*
X85324993Y-117158496D01*
X85348197Y-117152684D01*
X85371858Y-117149174D01*
X85395750Y-117148000D01*
X86308250Y-117148000D01*
X86332142Y-117149174D01*
G37*
G36*
X85660142Y-108267174D02*
G01*
X85683803Y-108270684D01*
X85707007Y-108276496D01*
X85729529Y-108284554D01*
X85751153Y-108294782D01*
X85771670Y-108307079D01*
X85790883Y-108321329D01*
X85808607Y-108337393D01*
X85824671Y-108355117D01*
X85838921Y-108374330D01*
X85851218Y-108394847D01*
X85861446Y-108416471D01*
X85869504Y-108438993D01*
X85875316Y-108462197D01*
X85878826Y-108485858D01*
X85880000Y-108509750D01*
X85880000Y-109422250D01*
X85878826Y-109446142D01*
X85875316Y-109469803D01*
X85869504Y-109493007D01*
X85861446Y-109515529D01*
X85851218Y-109537153D01*
X85838921Y-109557670D01*
X85824671Y-109576883D01*
X85808607Y-109594607D01*
X85790883Y-109610671D01*
X85771670Y-109624921D01*
X85751153Y-109637218D01*
X85729529Y-109647446D01*
X85707007Y-109655504D01*
X85683803Y-109661316D01*
X85660142Y-109664826D01*
X85636250Y-109666000D01*
X85148750Y-109666000D01*
X85124858Y-109664826D01*
X85101197Y-109661316D01*
X85077993Y-109655504D01*
X85055471Y-109647446D01*
X85033847Y-109637218D01*
X85013330Y-109624921D01*
X84994117Y-109610671D01*
X84976393Y-109594607D01*
X84960329Y-109576883D01*
X84946079Y-109557670D01*
X84933782Y-109537153D01*
X84923554Y-109515529D01*
X84915496Y-109493007D01*
X84909684Y-109469803D01*
X84906174Y-109446142D01*
X84905000Y-109422250D01*
X84905000Y-108509750D01*
X84906174Y-108485858D01*
X84909684Y-108462197D01*
X84915496Y-108438993D01*
X84923554Y-108416471D01*
X84933782Y-108394847D01*
X84946079Y-108374330D01*
X84960329Y-108355117D01*
X84976393Y-108337393D01*
X84994117Y-108321329D01*
X85013330Y-108307079D01*
X85033847Y-108294782D01*
X85055471Y-108284554D01*
X85077993Y-108276496D01*
X85101197Y-108270684D01*
X85124858Y-108267174D01*
X85148750Y-108266000D01*
X85636250Y-108266000D01*
X85660142Y-108267174D01*
G37*
G36*
X83785142Y-108267174D02*
G01*
X83808803Y-108270684D01*
X83832007Y-108276496D01*
X83854529Y-108284554D01*
X83876153Y-108294782D01*
X83896670Y-108307079D01*
X83915883Y-108321329D01*
X83933607Y-108337393D01*
X83949671Y-108355117D01*
X83963921Y-108374330D01*
X83976218Y-108394847D01*
X83986446Y-108416471D01*
X83994504Y-108438993D01*
X84000316Y-108462197D01*
X84003826Y-108485858D01*
X84005000Y-108509750D01*
X84005000Y-109422250D01*
X84003826Y-109446142D01*
X84000316Y-109469803D01*
X83994504Y-109493007D01*
X83986446Y-109515529D01*
X83976218Y-109537153D01*
X83963921Y-109557670D01*
X83949671Y-109576883D01*
X83933607Y-109594607D01*
X83915883Y-109610671D01*
X83896670Y-109624921D01*
X83876153Y-109637218D01*
X83854529Y-109647446D01*
X83832007Y-109655504D01*
X83808803Y-109661316D01*
X83785142Y-109664826D01*
X83761250Y-109666000D01*
X83273750Y-109666000D01*
X83249858Y-109664826D01*
X83226197Y-109661316D01*
X83202993Y-109655504D01*
X83180471Y-109647446D01*
X83158847Y-109637218D01*
X83138330Y-109624921D01*
X83119117Y-109610671D01*
X83101393Y-109594607D01*
X83085329Y-109576883D01*
X83071079Y-109557670D01*
X83058782Y-109537153D01*
X83048554Y-109515529D01*
X83040496Y-109493007D01*
X83034684Y-109469803D01*
X83031174Y-109446142D01*
X83030000Y-109422250D01*
X83030000Y-108509750D01*
X83031174Y-108485858D01*
X83034684Y-108462197D01*
X83040496Y-108438993D01*
X83048554Y-108416471D01*
X83058782Y-108394847D01*
X83071079Y-108374330D01*
X83085329Y-108355117D01*
X83101393Y-108337393D01*
X83119117Y-108321329D01*
X83138330Y-108307079D01*
X83158847Y-108294782D01*
X83180471Y-108284554D01*
X83202993Y-108276496D01*
X83226197Y-108270684D01*
X83249858Y-108267174D01*
X83273750Y-108266000D01*
X83761250Y-108266000D01*
X83785142Y-108267174D01*
G37*
G36*
X82331642Y-108733674D02*
G01*
X82355303Y-108737184D01*
X82378507Y-108742996D01*
X82401029Y-108751054D01*
X82422653Y-108761282D01*
X82443170Y-108773579D01*
X82462383Y-108787829D01*
X82480107Y-108803893D01*
X82496171Y-108821617D01*
X82510421Y-108840830D01*
X82522718Y-108861347D01*
X82532946Y-108882971D01*
X82541004Y-108905493D01*
X82546816Y-108928697D01*
X82550326Y-108952358D01*
X82551500Y-108976250D01*
X82551500Y-109463750D01*
X82550326Y-109487642D01*
X82546816Y-109511303D01*
X82541004Y-109534507D01*
X82532946Y-109557029D01*
X82522718Y-109578653D01*
X82510421Y-109599170D01*
X82496171Y-109618383D01*
X82480107Y-109636107D01*
X82462383Y-109652171D01*
X82443170Y-109666421D01*
X82422653Y-109678718D01*
X82401029Y-109688946D01*
X82378507Y-109697004D01*
X82355303Y-109702816D01*
X82331642Y-109706326D01*
X82307750Y-109707500D01*
X81395250Y-109707500D01*
X81371358Y-109706326D01*
X81347697Y-109702816D01*
X81324493Y-109697004D01*
X81301971Y-109688946D01*
X81280347Y-109678718D01*
X81259830Y-109666421D01*
X81240617Y-109652171D01*
X81222893Y-109636107D01*
X81206829Y-109618383D01*
X81192579Y-109599170D01*
X81180282Y-109578653D01*
X81170054Y-109557029D01*
X81161996Y-109534507D01*
X81156184Y-109511303D01*
X81152674Y-109487642D01*
X81151500Y-109463750D01*
X81151500Y-108976250D01*
X81152674Y-108952358D01*
X81156184Y-108928697D01*
X81161996Y-108905493D01*
X81170054Y-108882971D01*
X81180282Y-108861347D01*
X81192579Y-108840830D01*
X81206829Y-108821617D01*
X81222893Y-108803893D01*
X81240617Y-108787829D01*
X81259830Y-108773579D01*
X81280347Y-108761282D01*
X81301971Y-108751054D01*
X81324493Y-108742996D01*
X81347697Y-108737184D01*
X81371358Y-108733674D01*
X81395250Y-108732500D01*
X82307750Y-108732500D01*
X82331642Y-108733674D01*
G37*
G36*
X82331642Y-110608674D02*
G01*
X82355303Y-110612184D01*
X82378507Y-110617996D01*
X82401029Y-110626054D01*
X82422653Y-110636282D01*
X82443170Y-110648579D01*
X82462383Y-110662829D01*
X82480107Y-110678893D01*
X82496171Y-110696617D01*
X82510421Y-110715830D01*
X82522718Y-110736347D01*
X82532946Y-110757971D01*
X82541004Y-110780493D01*
X82546816Y-110803697D01*
X82550326Y-110827358D01*
X82551500Y-110851250D01*
X82551500Y-111338750D01*
X82550326Y-111362642D01*
X82546816Y-111386303D01*
X82541004Y-111409507D01*
X82532946Y-111432029D01*
X82522718Y-111453653D01*
X82510421Y-111474170D01*
X82496171Y-111493383D01*
X82480107Y-111511107D01*
X82462383Y-111527171D01*
X82443170Y-111541421D01*
X82422653Y-111553718D01*
X82401029Y-111563946D01*
X82378507Y-111572004D01*
X82355303Y-111577816D01*
X82331642Y-111581326D01*
X82307750Y-111582500D01*
X81395250Y-111582500D01*
X81371358Y-111581326D01*
X81347697Y-111577816D01*
X81324493Y-111572004D01*
X81301971Y-111563946D01*
X81280347Y-111553718D01*
X81259830Y-111541421D01*
X81240617Y-111527171D01*
X81222893Y-111511107D01*
X81206829Y-111493383D01*
X81192579Y-111474170D01*
X81180282Y-111453653D01*
X81170054Y-111432029D01*
X81161996Y-111409507D01*
X81156184Y-111386303D01*
X81152674Y-111362642D01*
X81151500Y-111338750D01*
X81151500Y-110851250D01*
X81152674Y-110827358D01*
X81156184Y-110803697D01*
X81161996Y-110780493D01*
X81170054Y-110757971D01*
X81180282Y-110736347D01*
X81192579Y-110715830D01*
X81206829Y-110696617D01*
X81222893Y-110678893D01*
X81240617Y-110662829D01*
X81259830Y-110648579D01*
X81280347Y-110636282D01*
X81301971Y-110626054D01*
X81324493Y-110617996D01*
X81347697Y-110612184D01*
X81371358Y-110608674D01*
X81395250Y-110607500D01*
X82307750Y-110607500D01*
X82331642Y-110608674D01*
G37*
D32*
X141218000Y-144024000D03*
X141218000Y-138424000D03*
D15*
G36*
X83744500Y-82128500D02*
G01*
X83744500Y-82628500D01*
X83743898Y-82628500D01*
X83743898Y-82653034D01*
X83739088Y-82701865D01*
X83729516Y-82749990D01*
X83715272Y-82796945D01*
X83696495Y-82842278D01*
X83673364Y-82885551D01*
X83646104Y-82926350D01*
X83614976Y-82964279D01*
X83580279Y-82998976D01*
X83542350Y-83030104D01*
X83501551Y-83057364D01*
X83458278Y-83080495D01*
X83412945Y-83099272D01*
X83365990Y-83113516D01*
X83317865Y-83123088D01*
X83269034Y-83127898D01*
X83244500Y-83127898D01*
X83244500Y-83128500D01*
X82744500Y-83128500D01*
X82744500Y-83127898D01*
X82719966Y-83127898D01*
X82671135Y-83123088D01*
X82623010Y-83113516D01*
X82576055Y-83099272D01*
X82530722Y-83080495D01*
X82487449Y-83057364D01*
X82446650Y-83030104D01*
X82408721Y-82998976D01*
X82374024Y-82964279D01*
X82342896Y-82926350D01*
X82315636Y-82885551D01*
X82292505Y-82842278D01*
X82273728Y-82796945D01*
X82259484Y-82749990D01*
X82249912Y-82701865D01*
X82245102Y-82653034D01*
X82245102Y-82628500D01*
X82244500Y-82628500D01*
X82244500Y-82128500D01*
X83744500Y-82128500D01*
G37*
G36*
X82245102Y-81328500D02*
G01*
X82245102Y-81303966D01*
X82249912Y-81255135D01*
X82259484Y-81207010D01*
X82273728Y-81160055D01*
X82292505Y-81114722D01*
X82315636Y-81071449D01*
X82342896Y-81030650D01*
X82374024Y-80992721D01*
X82408721Y-80958024D01*
X82446650Y-80926896D01*
X82487449Y-80899636D01*
X82530722Y-80876505D01*
X82576055Y-80857728D01*
X82623010Y-80843484D01*
X82671135Y-80833912D01*
X82719966Y-80829102D01*
X82744500Y-80829102D01*
X82744500Y-80828500D01*
X83244500Y-80828500D01*
X83244500Y-80829102D01*
X83269034Y-80829102D01*
X83317865Y-80833912D01*
X83365990Y-80843484D01*
X83412945Y-80857728D01*
X83458278Y-80876505D01*
X83501551Y-80899636D01*
X83542350Y-80926896D01*
X83580279Y-80958024D01*
X83614976Y-80992721D01*
X83646104Y-81030650D01*
X83673364Y-81071449D01*
X83696495Y-81114722D01*
X83715272Y-81160055D01*
X83729516Y-81207010D01*
X83739088Y-81255135D01*
X83743898Y-81303966D01*
X83743898Y-81328500D01*
X83744500Y-81328500D01*
X83744500Y-81828500D01*
X82244500Y-81828500D01*
X82244500Y-81328500D01*
X82245102Y-81328500D01*
G37*
D16*
X135189058Y-49258832D02*
X135189058Y-49258832D01*
X132687647Y-48817765D02*
X132687647Y-48817765D01*
X130186235Y-48376699D02*
X130186235Y-48376699D01*
X127684823Y-47935633D02*
X127684823Y-47935633D01*
X125183412Y-47494566D02*
X125183412Y-47494566D01*
D15*
G36*
X123371486Y-48038188D02*
G01*
X121697312Y-47742986D01*
X121992514Y-46068812D01*
X123666688Y-46364014D01*
X123371486Y-48038188D01*
G37*
D33*
X121666000Y-69469000D03*
X121666000Y-66929000D03*
X119126000Y-69469000D03*
X119126000Y-66929000D03*
X116586000Y-69469000D03*
X116586000Y-66929000D03*
X114046000Y-69469000D03*
D34*
X114046000Y-66929000D03*
D16*
X65597627Y-77397115D02*
X65597627Y-77397115D01*
X67899649Y-78470565D02*
X67899649Y-78470565D01*
X66671077Y-75095093D02*
X66671077Y-75095093D01*
X68973099Y-76168544D02*
X68973099Y-76168544D01*
X67744528Y-72793071D02*
X67744528Y-72793071D01*
X70046550Y-73866522D02*
X70046550Y-73866522D01*
X68817978Y-70491050D02*
X68817978Y-70491050D01*
D15*
G36*
X69990413Y-71975636D02*
G01*
X70708864Y-70434913D01*
X72249587Y-71153364D01*
X71531136Y-72694087D01*
X69990413Y-71975636D01*
G37*
D16*
X88079386Y-49171795D02*
X88079386Y-49171795D01*
X89349386Y-51371500D02*
X89349386Y-51371500D01*
X90279091Y-47901795D02*
X90279091Y-47901795D01*
X91549091Y-50101500D02*
X91549091Y-50101500D01*
X92478795Y-46631795D02*
X92478795Y-46631795D01*
X93748795Y-48831500D02*
X93748795Y-48831500D01*
X94678500Y-45361795D02*
X94678500Y-45361795D01*
D15*
G36*
X94787378Y-47250378D02*
G01*
X96259622Y-46400378D01*
X97109622Y-47872622D01*
X95637378Y-48722622D01*
X94787378Y-47250378D01*
G37*
D16*
X99558654Y-120214847D02*
X99558654Y-120214847D01*
X97762603Y-118418795D02*
X97762603Y-118418795D01*
X97762603Y-122010898D02*
X97762603Y-122010898D01*
X95966551Y-120214847D02*
X95966551Y-120214847D01*
X95966551Y-123806949D02*
X95966551Y-123806949D01*
X94170500Y-122010898D02*
X94170500Y-122010898D01*
X94170500Y-125603000D02*
X94170500Y-125603000D01*
D15*
G36*
X93576531Y-123806949D02*
G01*
X92374449Y-125009031D01*
X91172367Y-123806949D01*
X92374449Y-122604867D01*
X93576531Y-123806949D01*
G37*
D17*
X109793257Y-144244423D03*
D15*
G36*
X108679598Y-146280363D02*
G01*
X108703971Y-146283167D01*
X108727952Y-146288347D01*
X109693877Y-146547166D01*
X109717235Y-146554671D01*
X109739744Y-146564429D01*
X109761189Y-146576346D01*
X109781362Y-146590309D01*
X109800070Y-146606181D01*
X109817132Y-146623811D01*
X109832384Y-146643028D01*
X109845678Y-146663647D01*
X109856888Y-146685470D01*
X109865905Y-146708287D01*
X109872641Y-146731878D01*
X109877033Y-146756015D01*
X109879038Y-146780467D01*
X109878637Y-146804998D01*
X109875833Y-146829371D01*
X109870653Y-146853352D01*
X109611834Y-147819277D01*
X109604329Y-147842635D01*
X109594571Y-147865144D01*
X109582654Y-147886589D01*
X109568691Y-147906762D01*
X109552819Y-147925470D01*
X109535189Y-147942532D01*
X109515972Y-147957784D01*
X109495353Y-147971078D01*
X109473530Y-147982288D01*
X109450713Y-147991305D01*
X109427122Y-147998041D01*
X109402985Y-148002433D01*
X109378533Y-148004438D01*
X109354002Y-148004037D01*
X109329629Y-148001233D01*
X109305648Y-147996053D01*
X108339723Y-147737234D01*
X108316365Y-147729729D01*
X108293856Y-147719971D01*
X108272411Y-147708054D01*
X108252238Y-147694091D01*
X108233530Y-147678219D01*
X108216468Y-147660589D01*
X108201216Y-147641372D01*
X108187922Y-147620753D01*
X108176712Y-147598930D01*
X108167695Y-147576113D01*
X108160959Y-147552522D01*
X108156567Y-147528385D01*
X108154562Y-147503933D01*
X108154963Y-147479402D01*
X108157767Y-147455029D01*
X108162947Y-147431048D01*
X108421766Y-146465123D01*
X108429271Y-146441765D01*
X108439029Y-146419256D01*
X108450946Y-146397811D01*
X108464909Y-146377638D01*
X108480781Y-146358930D01*
X108498411Y-146341868D01*
X108517628Y-146326616D01*
X108538247Y-146313322D01*
X108560070Y-146302112D01*
X108582887Y-146293095D01*
X108606478Y-146286359D01*
X108630615Y-146281967D01*
X108655067Y-146279962D01*
X108679598Y-146280363D01*
G37*
D18*
X107138770Y-142559995D03*
X112934325Y-144112909D03*
D17*
X91666563Y-133871267D03*
D15*
G36*
X89703789Y-135216470D02*
G01*
X89728016Y-135220334D01*
X89751749Y-135226555D01*
X89774757Y-135235072D01*
X89796819Y-135245802D01*
X89817724Y-135258644D01*
X89837269Y-135273473D01*
X90603313Y-135916261D01*
X90621311Y-135932934D01*
X90637587Y-135951291D01*
X90651986Y-135971155D01*
X90664369Y-135992335D01*
X90674616Y-136014626D01*
X90682629Y-136037815D01*
X90688330Y-136061677D01*
X90691665Y-136085983D01*
X90692601Y-136110499D01*
X90691130Y-136134989D01*
X90687266Y-136159216D01*
X90681045Y-136182949D01*
X90672528Y-136205957D01*
X90661798Y-136228019D01*
X90648956Y-136248924D01*
X90634127Y-136268469D01*
X89991339Y-137034513D01*
X89974666Y-137052511D01*
X89956309Y-137068787D01*
X89936445Y-137083186D01*
X89915265Y-137095569D01*
X89892974Y-137105816D01*
X89869785Y-137113829D01*
X89845923Y-137119530D01*
X89821617Y-137122865D01*
X89797101Y-137123801D01*
X89772611Y-137122330D01*
X89748384Y-137118466D01*
X89724651Y-137112245D01*
X89701643Y-137103728D01*
X89679581Y-137092998D01*
X89658676Y-137080156D01*
X89639131Y-137065327D01*
X88873087Y-136422539D01*
X88855089Y-136405866D01*
X88838813Y-136387509D01*
X88824414Y-136367645D01*
X88812031Y-136346465D01*
X88801784Y-136324174D01*
X88793771Y-136300985D01*
X88788070Y-136277123D01*
X88784735Y-136252817D01*
X88783799Y-136228301D01*
X88785270Y-136203811D01*
X88789134Y-136179584D01*
X88795355Y-136155851D01*
X88803872Y-136132843D01*
X88814602Y-136110781D01*
X88827444Y-136089876D01*
X88842273Y-136070331D01*
X89485061Y-135304287D01*
X89501734Y-135286289D01*
X89520091Y-135270013D01*
X89539955Y-135255614D01*
X89561135Y-135243231D01*
X89583426Y-135232984D01*
X89606615Y-135224971D01*
X89630477Y-135219270D01*
X89654783Y-135215935D01*
X89679299Y-135214999D01*
X89703789Y-135216470D01*
G37*
D18*
X89972650Y-131222822D03*
X94568917Y-135079548D03*
D17*
X77012478Y-112689740D03*
D15*
G36*
X74527569Y-112827453D02*
G01*
X74551657Y-112832108D01*
X74575173Y-112839102D01*
X74597891Y-112848367D01*
X74619590Y-112859814D01*
X74640063Y-112873333D01*
X74659113Y-112888793D01*
X74676555Y-112906046D01*
X74692223Y-112924926D01*
X74705964Y-112945251D01*
X74717647Y-112966824D01*
X74727159Y-112989439D01*
X75069179Y-113929131D01*
X75076429Y-113952569D01*
X75081346Y-113976605D01*
X75083884Y-114001007D01*
X75084018Y-114025541D01*
X75081747Y-114049969D01*
X75077092Y-114074057D01*
X75070098Y-114097573D01*
X75060833Y-114120291D01*
X75049386Y-114141990D01*
X75035867Y-114162463D01*
X75020407Y-114181513D01*
X75003154Y-114198955D01*
X74984274Y-114214623D01*
X74963949Y-114228364D01*
X74942376Y-114240047D01*
X74919761Y-114249559D01*
X73980069Y-114591579D01*
X73956631Y-114598829D01*
X73932595Y-114603746D01*
X73908193Y-114606284D01*
X73883659Y-114606418D01*
X73859231Y-114604147D01*
X73835143Y-114599492D01*
X73811627Y-114592498D01*
X73788909Y-114583233D01*
X73767210Y-114571786D01*
X73746737Y-114558267D01*
X73727687Y-114542807D01*
X73710245Y-114525554D01*
X73694577Y-114506674D01*
X73680836Y-114486349D01*
X73669153Y-114464776D01*
X73659641Y-114442161D01*
X73317621Y-113502469D01*
X73310371Y-113479031D01*
X73305454Y-113454995D01*
X73302916Y-113430593D01*
X73302782Y-113406059D01*
X73305053Y-113381631D01*
X73309708Y-113357543D01*
X73316702Y-113334027D01*
X73325967Y-113311309D01*
X73337414Y-113289610D01*
X73350933Y-113269137D01*
X73366393Y-113250087D01*
X73383646Y-113232645D01*
X73402526Y-113216977D01*
X73422851Y-113203236D01*
X73444424Y-113191553D01*
X73467039Y-113182041D01*
X74406731Y-112840021D01*
X74430169Y-112832771D01*
X74454205Y-112827854D01*
X74478607Y-112825316D01*
X74503141Y-112825182D01*
X74527569Y-112827453D01*
G37*
D18*
X76869728Y-109549163D03*
X78921849Y-115187318D03*
D17*
X85051333Y-127637037D03*
D15*
G36*
X82836617Y-128611935D02*
G01*
X82860923Y-128615270D01*
X82884785Y-128620971D01*
X82907974Y-128628984D01*
X82930265Y-128639231D01*
X82951445Y-128651614D01*
X82971309Y-128666013D01*
X82989666Y-128682289D01*
X83006339Y-128700287D01*
X83649127Y-129466331D01*
X83663956Y-129485876D01*
X83676798Y-129506781D01*
X83687528Y-129528843D01*
X83696045Y-129551851D01*
X83702266Y-129575584D01*
X83706130Y-129599811D01*
X83707601Y-129624301D01*
X83706665Y-129648817D01*
X83703330Y-129673123D01*
X83697629Y-129696985D01*
X83689616Y-129720174D01*
X83679369Y-129742465D01*
X83666986Y-129763645D01*
X83652587Y-129783509D01*
X83636311Y-129801866D01*
X83618313Y-129818539D01*
X82852269Y-130461327D01*
X82832724Y-130476156D01*
X82811819Y-130488998D01*
X82789757Y-130499728D01*
X82766749Y-130508245D01*
X82743016Y-130514466D01*
X82718789Y-130518330D01*
X82694299Y-130519801D01*
X82669783Y-130518865D01*
X82645477Y-130515530D01*
X82621615Y-130509829D01*
X82598426Y-130501816D01*
X82576135Y-130491569D01*
X82554955Y-130479186D01*
X82535091Y-130464787D01*
X82516734Y-130448511D01*
X82500061Y-130430513D01*
X81857273Y-129664469D01*
X81842444Y-129644924D01*
X81829602Y-129624019D01*
X81818872Y-129601957D01*
X81810355Y-129578949D01*
X81804134Y-129555216D01*
X81800270Y-129530989D01*
X81798799Y-129506499D01*
X81799735Y-129481983D01*
X81803070Y-129457677D01*
X81808771Y-129433815D01*
X81816784Y-129410626D01*
X81827031Y-129388335D01*
X81839414Y-129367155D01*
X81853813Y-129347291D01*
X81870089Y-129328934D01*
X81888087Y-129312261D01*
X82654131Y-128669473D01*
X82673676Y-128654644D01*
X82694581Y-128641802D01*
X82716643Y-128631072D01*
X82739651Y-128622555D01*
X82763384Y-128616334D01*
X82787611Y-128612470D01*
X82812101Y-128610999D01*
X82836617Y-128611935D01*
G37*
D18*
X83843052Y-124734683D03*
X87699778Y-129330950D03*
D14*
X149004551Y-57024551D02*
X149004551Y-57024551D01*
X147272500Y-56024551D02*
X147272500Y-56024551D01*
X150004551Y-55292500D02*
X150004551Y-55292500D01*
D15*
G36*
X147350433Y-54539567D02*
G01*
X148025433Y-53370433D01*
X149194567Y-54045433D01*
X148519567Y-55214567D01*
X147350433Y-54539567D01*
G37*
G36*
X140517475Y-51380490D02*
G01*
X141088010Y-50156975D01*
X142311525Y-50727510D01*
X141740990Y-51951025D01*
X140517475Y-51380490D01*
G37*
D14*
X143227116Y-51899237D02*
X143227116Y-51899237D01*
X140569263Y-52866616D02*
X140569263Y-52866616D01*
X142381879Y-53711852D02*
X142381879Y-53711852D01*
D17*
X80525276Y-120369200D03*
D15*
G36*
X78126564Y-120936722D02*
G01*
X78150937Y-120939526D01*
X78174918Y-120944706D01*
X78198276Y-120952211D01*
X78220785Y-120961969D01*
X78242230Y-120973886D01*
X78262403Y-120987849D01*
X78281111Y-121003721D01*
X78298173Y-121021351D01*
X78313425Y-121040568D01*
X78326719Y-121061187D01*
X78826719Y-121927213D01*
X78837929Y-121949036D01*
X78846946Y-121971853D01*
X78853682Y-121995444D01*
X78858074Y-122019582D01*
X78860079Y-122044033D01*
X78859678Y-122068564D01*
X78856874Y-122092937D01*
X78851694Y-122116918D01*
X78844189Y-122140276D01*
X78834431Y-122162785D01*
X78822514Y-122184230D01*
X78808551Y-122204403D01*
X78792679Y-122223111D01*
X78775049Y-122240173D01*
X78755832Y-122255425D01*
X78735213Y-122268719D01*
X77869187Y-122768719D01*
X77847364Y-122779929D01*
X77824547Y-122788946D01*
X77800956Y-122795682D01*
X77776818Y-122800074D01*
X77752367Y-122802079D01*
X77727836Y-122801678D01*
X77703463Y-122798874D01*
X77679482Y-122793694D01*
X77656124Y-122786189D01*
X77633615Y-122776431D01*
X77612170Y-122764514D01*
X77591997Y-122750551D01*
X77573289Y-122734679D01*
X77556227Y-122717049D01*
X77540975Y-122697832D01*
X77527681Y-122677213D01*
X77027681Y-121811187D01*
X77016471Y-121789364D01*
X77007454Y-121766547D01*
X77000718Y-121742956D01*
X76996326Y-121718818D01*
X76994321Y-121694367D01*
X76994722Y-121669836D01*
X76997526Y-121645463D01*
X77002706Y-121621482D01*
X77010211Y-121598124D01*
X77019969Y-121575615D01*
X77031886Y-121554170D01*
X77045849Y-121533997D01*
X77061721Y-121515289D01*
X77079351Y-121498227D01*
X77098568Y-121482975D01*
X77119187Y-121469681D01*
X77985213Y-120969681D01*
X78007036Y-120958471D01*
X78029853Y-120949454D01*
X78053444Y-120942718D01*
X78077582Y-120938326D01*
X78102033Y-120936321D01*
X78126564Y-120936722D01*
G37*
D18*
X79839340Y-117301124D03*
X82839340Y-122497276D03*
D16*
X73938198Y-81725087D02*
X73938198Y-81725087D01*
X75011649Y-79423065D02*
X75011649Y-79423065D01*
X76085099Y-77121044D02*
X76085099Y-77121044D01*
X77158550Y-74819022D02*
X77158550Y-74819022D01*
D15*
G36*
X77102413Y-72928136D02*
G01*
X77820864Y-71387413D01*
X79361587Y-72105864D01*
X78643136Y-73646587D01*
X77102413Y-72928136D01*
G37*
D35*
X159956500Y-63627000D03*
X161024284Y-68756312D03*
X79184500Y-82073028D03*
X77984500Y-87173028D03*
D15*
G36*
X80929251Y-65800786D02*
G01*
X80952873Y-65804554D01*
X80976012Y-65810619D01*
X80998445Y-65818922D01*
X81019956Y-65829385D01*
X81040338Y-65841906D01*
X81059395Y-65856364D01*
X81432841Y-66169723D01*
X81450388Y-66185979D01*
X81466258Y-66203877D01*
X81480297Y-66223245D01*
X81492370Y-66243895D01*
X81502361Y-66265629D01*
X81510173Y-66288238D01*
X81515732Y-66311504D01*
X81518983Y-66335202D01*
X81519896Y-66359105D01*
X81518462Y-66382983D01*
X81514694Y-66406604D01*
X81508629Y-66429743D01*
X81500326Y-66452176D01*
X81489863Y-66473687D01*
X81477342Y-66494069D01*
X81462884Y-66513126D01*
X80876340Y-67212141D01*
X80860084Y-67229688D01*
X80842186Y-67245558D01*
X80822818Y-67259597D01*
X80802168Y-67271670D01*
X80780434Y-67281661D01*
X80757825Y-67289473D01*
X80734560Y-67295032D01*
X80710861Y-67298283D01*
X80686958Y-67299196D01*
X80663081Y-67297762D01*
X80639459Y-67293994D01*
X80616320Y-67287929D01*
X80593887Y-67279626D01*
X80572376Y-67269163D01*
X80551994Y-67256642D01*
X80532937Y-67242184D01*
X80159491Y-66928825D01*
X80141944Y-66912569D01*
X80126074Y-66894671D01*
X80112035Y-66875303D01*
X80099962Y-66854653D01*
X80089971Y-66832919D01*
X80082159Y-66810310D01*
X80076600Y-66787044D01*
X80073349Y-66763346D01*
X80072436Y-66739443D01*
X80073870Y-66715565D01*
X80077638Y-66691944D01*
X80083703Y-66668805D01*
X80092006Y-66646372D01*
X80102469Y-66624861D01*
X80114990Y-66604479D01*
X80129448Y-66585422D01*
X80715992Y-65886407D01*
X80732248Y-65868860D01*
X80750146Y-65852990D01*
X80769514Y-65838951D01*
X80790164Y-65826878D01*
X80811898Y-65816887D01*
X80834507Y-65809075D01*
X80857772Y-65803516D01*
X80881471Y-65800265D01*
X80905374Y-65799352D01*
X80929251Y-65800786D01*
G37*
G36*
X82365585Y-67006012D02*
G01*
X82389207Y-67009780D01*
X82412346Y-67015845D01*
X82434779Y-67024148D01*
X82456290Y-67034611D01*
X82476672Y-67047132D01*
X82495729Y-67061590D01*
X82869175Y-67374949D01*
X82886722Y-67391205D01*
X82902592Y-67409103D01*
X82916631Y-67428471D01*
X82928704Y-67449121D01*
X82938695Y-67470855D01*
X82946507Y-67493464D01*
X82952066Y-67516730D01*
X82955317Y-67540428D01*
X82956230Y-67564331D01*
X82954796Y-67588209D01*
X82951028Y-67611830D01*
X82944963Y-67634969D01*
X82936660Y-67657402D01*
X82926197Y-67678913D01*
X82913676Y-67699295D01*
X82899218Y-67718352D01*
X82312674Y-68417367D01*
X82296418Y-68434914D01*
X82278520Y-68450784D01*
X82259152Y-68464823D01*
X82238502Y-68476896D01*
X82216768Y-68486887D01*
X82194159Y-68494699D01*
X82170894Y-68500258D01*
X82147195Y-68503509D01*
X82123292Y-68504422D01*
X82099415Y-68502988D01*
X82075793Y-68499220D01*
X82052654Y-68493155D01*
X82030221Y-68484852D01*
X82008710Y-68474389D01*
X81988328Y-68461868D01*
X81969271Y-68447410D01*
X81595825Y-68134051D01*
X81578278Y-68117795D01*
X81562408Y-68099897D01*
X81548369Y-68080529D01*
X81536296Y-68059879D01*
X81526305Y-68038145D01*
X81518493Y-68015536D01*
X81512934Y-67992270D01*
X81509683Y-67968572D01*
X81508770Y-67944669D01*
X81510204Y-67920791D01*
X81513972Y-67897170D01*
X81520037Y-67874031D01*
X81528340Y-67851598D01*
X81538803Y-67830087D01*
X81551324Y-67809705D01*
X81565782Y-67790648D01*
X82152326Y-67091633D01*
X82168582Y-67074086D01*
X82186480Y-67058216D01*
X82205848Y-67044177D01*
X82226498Y-67032104D01*
X82248232Y-67022113D01*
X82270841Y-67014301D01*
X82294106Y-67008742D01*
X82317805Y-67005491D01*
X82341708Y-67004578D01*
X82365585Y-67006012D01*
G37*
G36*
X79212204Y-68268956D02*
G01*
X79235783Y-68272981D01*
X79258855Y-68279298D01*
X79281196Y-68287846D01*
X79302591Y-68298543D01*
X79322835Y-68311285D01*
X79722172Y-68590903D01*
X79741070Y-68605568D01*
X79758439Y-68622014D01*
X79774113Y-68640085D01*
X79787939Y-68659604D01*
X79799787Y-68680385D01*
X79809540Y-68702226D01*
X79817105Y-68724919D01*
X79822410Y-68748244D01*
X79825403Y-68771976D01*
X79826055Y-68795888D01*
X79824360Y-68819748D01*
X79820335Y-68843328D01*
X79814018Y-68866399D01*
X79805470Y-68888740D01*
X79794774Y-68910136D01*
X79782031Y-68930380D01*
X79258642Y-69677856D01*
X79243977Y-69696754D01*
X79227530Y-69714123D01*
X79209460Y-69729797D01*
X79189941Y-69743624D01*
X79169160Y-69755471D01*
X79147318Y-69765224D01*
X79124625Y-69772789D01*
X79101301Y-69778094D01*
X79077568Y-69781087D01*
X79053656Y-69781739D01*
X79029796Y-69780044D01*
X79006217Y-69776019D01*
X78983145Y-69769702D01*
X78960804Y-69761154D01*
X78939409Y-69750457D01*
X78919165Y-69737715D01*
X78519828Y-69458097D01*
X78500930Y-69443432D01*
X78483561Y-69426986D01*
X78467887Y-69408915D01*
X78454061Y-69389396D01*
X78442213Y-69368615D01*
X78432460Y-69346774D01*
X78424895Y-69324081D01*
X78419590Y-69300756D01*
X78416597Y-69277024D01*
X78415945Y-69253112D01*
X78417640Y-69229252D01*
X78421665Y-69205672D01*
X78427982Y-69182601D01*
X78436530Y-69160260D01*
X78447226Y-69138864D01*
X78459969Y-69118620D01*
X78983358Y-68371144D01*
X78998023Y-68352246D01*
X79014470Y-68334877D01*
X79032540Y-68319203D01*
X79052059Y-68305376D01*
X79072840Y-68293529D01*
X79094682Y-68283776D01*
X79117375Y-68276211D01*
X79140699Y-68270906D01*
X79164432Y-68267913D01*
X79188344Y-68267261D01*
X79212204Y-68268956D01*
G37*
G36*
X80748114Y-69344412D02*
G01*
X80771693Y-69348437D01*
X80794765Y-69354754D01*
X80817106Y-69363302D01*
X80838501Y-69373999D01*
X80858745Y-69386741D01*
X81258082Y-69666359D01*
X81276980Y-69681024D01*
X81294349Y-69697470D01*
X81310023Y-69715541D01*
X81323849Y-69735060D01*
X81335697Y-69755841D01*
X81345450Y-69777682D01*
X81353015Y-69800375D01*
X81358320Y-69823700D01*
X81361313Y-69847432D01*
X81361965Y-69871344D01*
X81360270Y-69895204D01*
X81356245Y-69918784D01*
X81349928Y-69941855D01*
X81341380Y-69964196D01*
X81330684Y-69985592D01*
X81317941Y-70005836D01*
X80794552Y-70753312D01*
X80779887Y-70772210D01*
X80763440Y-70789579D01*
X80745370Y-70805253D01*
X80725851Y-70819080D01*
X80705070Y-70830927D01*
X80683228Y-70840680D01*
X80660535Y-70848245D01*
X80637211Y-70853550D01*
X80613478Y-70856543D01*
X80589566Y-70857195D01*
X80565706Y-70855500D01*
X80542127Y-70851475D01*
X80519055Y-70845158D01*
X80496714Y-70836610D01*
X80475319Y-70825913D01*
X80455075Y-70813171D01*
X80055738Y-70533553D01*
X80036840Y-70518888D01*
X80019471Y-70502442D01*
X80003797Y-70484371D01*
X79989971Y-70464852D01*
X79978123Y-70444071D01*
X79968370Y-70422230D01*
X79960805Y-70399537D01*
X79955500Y-70376212D01*
X79952507Y-70352480D01*
X79951855Y-70328568D01*
X79953550Y-70304708D01*
X79957575Y-70281128D01*
X79963892Y-70258057D01*
X79972440Y-70235716D01*
X79983136Y-70214320D01*
X79995879Y-70194076D01*
X80519268Y-69446600D01*
X80533933Y-69427702D01*
X80550380Y-69410333D01*
X80568450Y-69394659D01*
X80587969Y-69380832D01*
X80608750Y-69368985D01*
X80630592Y-69359232D01*
X80653285Y-69351667D01*
X80676609Y-69346362D01*
X80700342Y-69343369D01*
X80724254Y-69342717D01*
X80748114Y-69344412D01*
G37*
D36*
X82804000Y-112689000D03*
X82804000Y-115189000D03*
D15*
G36*
X117689191Y-134145553D02*
G01*
X117710426Y-134148703D01*
X117731250Y-134153919D01*
X117751462Y-134161151D01*
X117770868Y-134170330D01*
X117789281Y-134181366D01*
X117806524Y-134194154D01*
X117822430Y-134208570D01*
X117836846Y-134224476D01*
X117849634Y-134241719D01*
X117860670Y-134260132D01*
X117869849Y-134279538D01*
X117877081Y-134299750D01*
X117882297Y-134320574D01*
X117885447Y-134341809D01*
X117886500Y-134363250D01*
X117886500Y-134800750D01*
X117885447Y-134822191D01*
X117882297Y-134843426D01*
X117877081Y-134864250D01*
X117869849Y-134884462D01*
X117860670Y-134903868D01*
X117849634Y-134922281D01*
X117836846Y-134939524D01*
X117822430Y-134955430D01*
X117806524Y-134969846D01*
X117789281Y-134982634D01*
X117770868Y-134993670D01*
X117751462Y-135002849D01*
X117731250Y-135010081D01*
X117710426Y-135015297D01*
X117689191Y-135018447D01*
X117667750Y-135019500D01*
X117155250Y-135019500D01*
X117133809Y-135018447D01*
X117112574Y-135015297D01*
X117091750Y-135010081D01*
X117071538Y-135002849D01*
X117052132Y-134993670D01*
X117033719Y-134982634D01*
X117016476Y-134969846D01*
X117000570Y-134955430D01*
X116986154Y-134939524D01*
X116973366Y-134922281D01*
X116962330Y-134903868D01*
X116953151Y-134884462D01*
X116945919Y-134864250D01*
X116940703Y-134843426D01*
X116937553Y-134822191D01*
X116936500Y-134800750D01*
X116936500Y-134363250D01*
X116937553Y-134341809D01*
X116940703Y-134320574D01*
X116945919Y-134299750D01*
X116953151Y-134279538D01*
X116962330Y-134260132D01*
X116973366Y-134241719D01*
X116986154Y-134224476D01*
X117000570Y-134208570D01*
X117016476Y-134194154D01*
X117033719Y-134181366D01*
X117052132Y-134170330D01*
X117071538Y-134161151D01*
X117091750Y-134153919D01*
X117112574Y-134148703D01*
X117133809Y-134145553D01*
X117155250Y-134144500D01*
X117667750Y-134144500D01*
X117689191Y-134145553D01*
G37*
G36*
X117689191Y-132570553D02*
G01*
X117710426Y-132573703D01*
X117731250Y-132578919D01*
X117751462Y-132586151D01*
X117770868Y-132595330D01*
X117789281Y-132606366D01*
X117806524Y-132619154D01*
X117822430Y-132633570D01*
X117836846Y-132649476D01*
X117849634Y-132666719D01*
X117860670Y-132685132D01*
X117869849Y-132704538D01*
X117877081Y-132724750D01*
X117882297Y-132745574D01*
X117885447Y-132766809D01*
X117886500Y-132788250D01*
X117886500Y-133225750D01*
X117885447Y-133247191D01*
X117882297Y-133268426D01*
X117877081Y-133289250D01*
X117869849Y-133309462D01*
X117860670Y-133328868D01*
X117849634Y-133347281D01*
X117836846Y-133364524D01*
X117822430Y-133380430D01*
X117806524Y-133394846D01*
X117789281Y-133407634D01*
X117770868Y-133418670D01*
X117751462Y-133427849D01*
X117731250Y-133435081D01*
X117710426Y-133440297D01*
X117689191Y-133443447D01*
X117667750Y-133444500D01*
X117155250Y-133444500D01*
X117133809Y-133443447D01*
X117112574Y-133440297D01*
X117091750Y-133435081D01*
X117071538Y-133427849D01*
X117052132Y-133418670D01*
X117033719Y-133407634D01*
X117016476Y-133394846D01*
X117000570Y-133380430D01*
X116986154Y-133364524D01*
X116973366Y-133347281D01*
X116962330Y-133328868D01*
X116953151Y-133309462D01*
X116945919Y-133289250D01*
X116940703Y-133268426D01*
X116937553Y-133247191D01*
X116936500Y-133225750D01*
X116936500Y-132788250D01*
X116937553Y-132766809D01*
X116940703Y-132745574D01*
X116945919Y-132724750D01*
X116953151Y-132704538D01*
X116962330Y-132685132D01*
X116973366Y-132666719D01*
X116986154Y-132649476D01*
X117000570Y-132633570D01*
X117016476Y-132619154D01*
X117033719Y-132606366D01*
X117052132Y-132595330D01*
X117071538Y-132586151D01*
X117091750Y-132578919D01*
X117112574Y-132573703D01*
X117133809Y-132570553D01*
X117155250Y-132569500D01*
X117667750Y-132569500D01*
X117689191Y-132570553D01*
G37*
G36*
X130389191Y-133891553D02*
G01*
X130410426Y-133894703D01*
X130431250Y-133899919D01*
X130451462Y-133907151D01*
X130470868Y-133916330D01*
X130489281Y-133927366D01*
X130506524Y-133940154D01*
X130522430Y-133954570D01*
X130536846Y-133970476D01*
X130549634Y-133987719D01*
X130560670Y-134006132D01*
X130569849Y-134025538D01*
X130577081Y-134045750D01*
X130582297Y-134066574D01*
X130585447Y-134087809D01*
X130586500Y-134109250D01*
X130586500Y-134546750D01*
X130585447Y-134568191D01*
X130582297Y-134589426D01*
X130577081Y-134610250D01*
X130569849Y-134630462D01*
X130560670Y-134649868D01*
X130549634Y-134668281D01*
X130536846Y-134685524D01*
X130522430Y-134701430D01*
X130506524Y-134715846D01*
X130489281Y-134728634D01*
X130470868Y-134739670D01*
X130451462Y-134748849D01*
X130431250Y-134756081D01*
X130410426Y-134761297D01*
X130389191Y-134764447D01*
X130367750Y-134765500D01*
X129855250Y-134765500D01*
X129833809Y-134764447D01*
X129812574Y-134761297D01*
X129791750Y-134756081D01*
X129771538Y-134748849D01*
X129752132Y-134739670D01*
X129733719Y-134728634D01*
X129716476Y-134715846D01*
X129700570Y-134701430D01*
X129686154Y-134685524D01*
X129673366Y-134668281D01*
X129662330Y-134649868D01*
X129653151Y-134630462D01*
X129645919Y-134610250D01*
X129640703Y-134589426D01*
X129637553Y-134568191D01*
X129636500Y-134546750D01*
X129636500Y-134109250D01*
X129637553Y-134087809D01*
X129640703Y-134066574D01*
X129645919Y-134045750D01*
X129653151Y-134025538D01*
X129662330Y-134006132D01*
X129673366Y-133987719D01*
X129686154Y-133970476D01*
X129700570Y-133954570D01*
X129716476Y-133940154D01*
X129733719Y-133927366D01*
X129752132Y-133916330D01*
X129771538Y-133907151D01*
X129791750Y-133899919D01*
X129812574Y-133894703D01*
X129833809Y-133891553D01*
X129855250Y-133890500D01*
X130367750Y-133890500D01*
X130389191Y-133891553D01*
G37*
G36*
X130389191Y-132316553D02*
G01*
X130410426Y-132319703D01*
X130431250Y-132324919D01*
X130451462Y-132332151D01*
X130470868Y-132341330D01*
X130489281Y-132352366D01*
X130506524Y-132365154D01*
X130522430Y-132379570D01*
X130536846Y-132395476D01*
X130549634Y-132412719D01*
X130560670Y-132431132D01*
X130569849Y-132450538D01*
X130577081Y-132470750D01*
X130582297Y-132491574D01*
X130585447Y-132512809D01*
X130586500Y-132534250D01*
X130586500Y-132971750D01*
X130585447Y-132993191D01*
X130582297Y-133014426D01*
X130577081Y-133035250D01*
X130569849Y-133055462D01*
X130560670Y-133074868D01*
X130549634Y-133093281D01*
X130536846Y-133110524D01*
X130522430Y-133126430D01*
X130506524Y-133140846D01*
X130489281Y-133153634D01*
X130470868Y-133164670D01*
X130451462Y-133173849D01*
X130431250Y-133181081D01*
X130410426Y-133186297D01*
X130389191Y-133189447D01*
X130367750Y-133190500D01*
X129855250Y-133190500D01*
X129833809Y-133189447D01*
X129812574Y-133186297D01*
X129791750Y-133181081D01*
X129771538Y-133173849D01*
X129752132Y-133164670D01*
X129733719Y-133153634D01*
X129716476Y-133140846D01*
X129700570Y-133126430D01*
X129686154Y-133110524D01*
X129673366Y-133093281D01*
X129662330Y-133074868D01*
X129653151Y-133055462D01*
X129645919Y-133035250D01*
X129640703Y-133014426D01*
X129637553Y-132993191D01*
X129636500Y-132971750D01*
X129636500Y-132534250D01*
X129637553Y-132512809D01*
X129640703Y-132491574D01*
X129645919Y-132470750D01*
X129653151Y-132450538D01*
X129662330Y-132431132D01*
X129673366Y-132412719D01*
X129686154Y-132395476D01*
X129700570Y-132379570D01*
X129716476Y-132365154D01*
X129733719Y-132352366D01*
X129752132Y-132341330D01*
X129771538Y-132332151D01*
X129791750Y-132324919D01*
X129812574Y-132319703D01*
X129833809Y-132316553D01*
X129855250Y-132315500D01*
X130367750Y-132315500D01*
X130389191Y-132316553D01*
G37*
G36*
X136031504Y-137742704D02*
G01*
X136055773Y-137746304D01*
X136079571Y-137752265D01*
X136102671Y-137760530D01*
X136124849Y-137771020D01*
X136145893Y-137783633D01*
X136165598Y-137798247D01*
X136183777Y-137814723D01*
X136200253Y-137832902D01*
X136214867Y-137852607D01*
X136227480Y-137873651D01*
X136237970Y-137895829D01*
X136246235Y-137918929D01*
X136252196Y-137942727D01*
X136255796Y-137966996D01*
X136257000Y-137991500D01*
X136257000Y-138741500D01*
X136255796Y-138766004D01*
X136252196Y-138790273D01*
X136246235Y-138814071D01*
X136237970Y-138837171D01*
X136227480Y-138859349D01*
X136214867Y-138880393D01*
X136200253Y-138900098D01*
X136183777Y-138918277D01*
X136165598Y-138934753D01*
X136145893Y-138949367D01*
X136124849Y-138961980D01*
X136102671Y-138972470D01*
X136079571Y-138980735D01*
X136055773Y-138986696D01*
X136031504Y-138990296D01*
X136007000Y-138991500D01*
X134757000Y-138991500D01*
X134732496Y-138990296D01*
X134708227Y-138986696D01*
X134684429Y-138980735D01*
X134661329Y-138972470D01*
X134639151Y-138961980D01*
X134618107Y-138949367D01*
X134598402Y-138934753D01*
X134580223Y-138918277D01*
X134563747Y-138900098D01*
X134549133Y-138880393D01*
X134536520Y-138859349D01*
X134526030Y-138837171D01*
X134517765Y-138814071D01*
X134511804Y-138790273D01*
X134508204Y-138766004D01*
X134507000Y-138741500D01*
X134507000Y-137991500D01*
X134508204Y-137966996D01*
X134511804Y-137942727D01*
X134517765Y-137918929D01*
X134526030Y-137895829D01*
X134536520Y-137873651D01*
X134549133Y-137852607D01*
X134563747Y-137832902D01*
X134580223Y-137814723D01*
X134598402Y-137798247D01*
X134618107Y-137783633D01*
X134639151Y-137771020D01*
X134661329Y-137760530D01*
X134684429Y-137752265D01*
X134708227Y-137746304D01*
X134732496Y-137742704D01*
X134757000Y-137741500D01*
X136007000Y-137741500D01*
X136031504Y-137742704D01*
G37*
G36*
X136031504Y-140542704D02*
G01*
X136055773Y-140546304D01*
X136079571Y-140552265D01*
X136102671Y-140560530D01*
X136124849Y-140571020D01*
X136145893Y-140583633D01*
X136165598Y-140598247D01*
X136183777Y-140614723D01*
X136200253Y-140632902D01*
X136214867Y-140652607D01*
X136227480Y-140673651D01*
X136237970Y-140695829D01*
X136246235Y-140718929D01*
X136252196Y-140742727D01*
X136255796Y-140766996D01*
X136257000Y-140791500D01*
X136257000Y-141541500D01*
X136255796Y-141566004D01*
X136252196Y-141590273D01*
X136246235Y-141614071D01*
X136237970Y-141637171D01*
X136227480Y-141659349D01*
X136214867Y-141680393D01*
X136200253Y-141700098D01*
X136183777Y-141718277D01*
X136165598Y-141734753D01*
X136145893Y-141749367D01*
X136124849Y-141761980D01*
X136102671Y-141772470D01*
X136079571Y-141780735D01*
X136055773Y-141786696D01*
X136031504Y-141790296D01*
X136007000Y-141791500D01*
X134757000Y-141791500D01*
X134732496Y-141790296D01*
X134708227Y-141786696D01*
X134684429Y-141780735D01*
X134661329Y-141772470D01*
X134639151Y-141761980D01*
X134618107Y-141749367D01*
X134598402Y-141734753D01*
X134580223Y-141718277D01*
X134563747Y-141700098D01*
X134549133Y-141680393D01*
X134536520Y-141659349D01*
X134526030Y-141637171D01*
X134517765Y-141614071D01*
X134511804Y-141590273D01*
X134508204Y-141566004D01*
X134507000Y-141541500D01*
X134507000Y-140791500D01*
X134508204Y-140766996D01*
X134511804Y-140742727D01*
X134517765Y-140718929D01*
X134526030Y-140695829D01*
X134536520Y-140673651D01*
X134549133Y-140652607D01*
X134563747Y-140632902D01*
X134580223Y-140614723D01*
X134598402Y-140598247D01*
X134618107Y-140583633D01*
X134639151Y-140571020D01*
X134661329Y-140560530D01*
X134684429Y-140552265D01*
X134708227Y-140546304D01*
X134732496Y-140542704D01*
X134757000Y-140541500D01*
X136007000Y-140541500D01*
X136031504Y-140542704D01*
G37*
G36*
X119986458Y-144968710D02*
G01*
X120000776Y-144970834D01*
X120014817Y-144974351D01*
X120028446Y-144979228D01*
X120041531Y-144985417D01*
X120053947Y-144992858D01*
X120065573Y-145001481D01*
X120076298Y-145011202D01*
X120086019Y-145021927D01*
X120094642Y-145033553D01*
X120102083Y-145045969D01*
X120108272Y-145059054D01*
X120113149Y-145072683D01*
X120116666Y-145086724D01*
X120118790Y-145101042D01*
X120119500Y-145115500D01*
X120119500Y-145460500D01*
X120118790Y-145474958D01*
X120116666Y-145489276D01*
X120113149Y-145503317D01*
X120108272Y-145516946D01*
X120102083Y-145530031D01*
X120094642Y-145542447D01*
X120086019Y-145554073D01*
X120076298Y-145564798D01*
X120065573Y-145574519D01*
X120053947Y-145583142D01*
X120041531Y-145590583D01*
X120028446Y-145596772D01*
X120014817Y-145601649D01*
X120000776Y-145605166D01*
X119986458Y-145607290D01*
X119972000Y-145608000D01*
X119677000Y-145608000D01*
X119662542Y-145607290D01*
X119648224Y-145605166D01*
X119634183Y-145601649D01*
X119620554Y-145596772D01*
X119607469Y-145590583D01*
X119595053Y-145583142D01*
X119583427Y-145574519D01*
X119572702Y-145564798D01*
X119562981Y-145554073D01*
X119554358Y-145542447D01*
X119546917Y-145530031D01*
X119540728Y-145516946D01*
X119535851Y-145503317D01*
X119532334Y-145489276D01*
X119530210Y-145474958D01*
X119529500Y-145460500D01*
X119529500Y-145115500D01*
X119530210Y-145101042D01*
X119532334Y-145086724D01*
X119535851Y-145072683D01*
X119540728Y-145059054D01*
X119546917Y-145045969D01*
X119554358Y-145033553D01*
X119562981Y-145021927D01*
X119572702Y-145011202D01*
X119583427Y-145001481D01*
X119595053Y-144992858D01*
X119607469Y-144985417D01*
X119620554Y-144979228D01*
X119634183Y-144974351D01*
X119648224Y-144970834D01*
X119662542Y-144968710D01*
X119677000Y-144968000D01*
X119972000Y-144968000D01*
X119986458Y-144968710D01*
G37*
G36*
X120956458Y-144968710D02*
G01*
X120970776Y-144970834D01*
X120984817Y-144974351D01*
X120998446Y-144979228D01*
X121011531Y-144985417D01*
X121023947Y-144992858D01*
X121035573Y-145001481D01*
X121046298Y-145011202D01*
X121056019Y-145021927D01*
X121064642Y-145033553D01*
X121072083Y-145045969D01*
X121078272Y-145059054D01*
X121083149Y-145072683D01*
X121086666Y-145086724D01*
X121088790Y-145101042D01*
X121089500Y-145115500D01*
X121089500Y-145460500D01*
X121088790Y-145474958D01*
X121086666Y-145489276D01*
X121083149Y-145503317D01*
X121078272Y-145516946D01*
X121072083Y-145530031D01*
X121064642Y-145542447D01*
X121056019Y-145554073D01*
X121046298Y-145564798D01*
X121035573Y-145574519D01*
X121023947Y-145583142D01*
X121011531Y-145590583D01*
X120998446Y-145596772D01*
X120984817Y-145601649D01*
X120970776Y-145605166D01*
X120956458Y-145607290D01*
X120942000Y-145608000D01*
X120647000Y-145608000D01*
X120632542Y-145607290D01*
X120618224Y-145605166D01*
X120604183Y-145601649D01*
X120590554Y-145596772D01*
X120577469Y-145590583D01*
X120565053Y-145583142D01*
X120553427Y-145574519D01*
X120542702Y-145564798D01*
X120532981Y-145554073D01*
X120524358Y-145542447D01*
X120516917Y-145530031D01*
X120510728Y-145516946D01*
X120505851Y-145503317D01*
X120502334Y-145489276D01*
X120500210Y-145474958D01*
X120499500Y-145460500D01*
X120499500Y-145115500D01*
X120500210Y-145101042D01*
X120502334Y-145086724D01*
X120505851Y-145072683D01*
X120510728Y-145059054D01*
X120516917Y-145045969D01*
X120524358Y-145033553D01*
X120532981Y-145021927D01*
X120542702Y-145011202D01*
X120553427Y-145001481D01*
X120565053Y-144992858D01*
X120577469Y-144985417D01*
X120590554Y-144979228D01*
X120604183Y-144974351D01*
X120618224Y-144970834D01*
X120632542Y-144968710D01*
X120647000Y-144968000D01*
X120942000Y-144968000D01*
X120956458Y-144968710D01*
G37*
G36*
X122959691Y-148750553D02*
G01*
X122980926Y-148753703D01*
X123001750Y-148758919D01*
X123021962Y-148766151D01*
X123041368Y-148775330D01*
X123059781Y-148786366D01*
X123077024Y-148799154D01*
X123092930Y-148813570D01*
X123107346Y-148829476D01*
X123120134Y-148846719D01*
X123131170Y-148865132D01*
X123140349Y-148884538D01*
X123147581Y-148904750D01*
X123152797Y-148925574D01*
X123155947Y-148946809D01*
X123157000Y-148968250D01*
X123157000Y-149405750D01*
X123155947Y-149427191D01*
X123152797Y-149448426D01*
X123147581Y-149469250D01*
X123140349Y-149489462D01*
X123131170Y-149508868D01*
X123120134Y-149527281D01*
X123107346Y-149544524D01*
X123092930Y-149560430D01*
X123077024Y-149574846D01*
X123059781Y-149587634D01*
X123041368Y-149598670D01*
X123021962Y-149607849D01*
X123001750Y-149615081D01*
X122980926Y-149620297D01*
X122959691Y-149623447D01*
X122938250Y-149624500D01*
X122425750Y-149624500D01*
X122404309Y-149623447D01*
X122383074Y-149620297D01*
X122362250Y-149615081D01*
X122342038Y-149607849D01*
X122322632Y-149598670D01*
X122304219Y-149587634D01*
X122286976Y-149574846D01*
X122271070Y-149560430D01*
X122256654Y-149544524D01*
X122243866Y-149527281D01*
X122232830Y-149508868D01*
X122223651Y-149489462D01*
X122216419Y-149469250D01*
X122211203Y-149448426D01*
X122208053Y-149427191D01*
X122207000Y-149405750D01*
X122207000Y-148968250D01*
X122208053Y-148946809D01*
X122211203Y-148925574D01*
X122216419Y-148904750D01*
X122223651Y-148884538D01*
X122232830Y-148865132D01*
X122243866Y-148846719D01*
X122256654Y-148829476D01*
X122271070Y-148813570D01*
X122286976Y-148799154D01*
X122304219Y-148786366D01*
X122322632Y-148775330D01*
X122342038Y-148766151D01*
X122362250Y-148758919D01*
X122383074Y-148753703D01*
X122404309Y-148750553D01*
X122425750Y-148749500D01*
X122938250Y-148749500D01*
X122959691Y-148750553D01*
G37*
G36*
X122959691Y-147175553D02*
G01*
X122980926Y-147178703D01*
X123001750Y-147183919D01*
X123021962Y-147191151D01*
X123041368Y-147200330D01*
X123059781Y-147211366D01*
X123077024Y-147224154D01*
X123092930Y-147238570D01*
X123107346Y-147254476D01*
X123120134Y-147271719D01*
X123131170Y-147290132D01*
X123140349Y-147309538D01*
X123147581Y-147329750D01*
X123152797Y-147350574D01*
X123155947Y-147371809D01*
X123157000Y-147393250D01*
X123157000Y-147830750D01*
X123155947Y-147852191D01*
X123152797Y-147873426D01*
X123147581Y-147894250D01*
X123140349Y-147914462D01*
X123131170Y-147933868D01*
X123120134Y-147952281D01*
X123107346Y-147969524D01*
X123092930Y-147985430D01*
X123077024Y-147999846D01*
X123059781Y-148012634D01*
X123041368Y-148023670D01*
X123021962Y-148032849D01*
X123001750Y-148040081D01*
X122980926Y-148045297D01*
X122959691Y-148048447D01*
X122938250Y-148049500D01*
X122425750Y-148049500D01*
X122404309Y-148048447D01*
X122383074Y-148045297D01*
X122362250Y-148040081D01*
X122342038Y-148032849D01*
X122322632Y-148023670D01*
X122304219Y-148012634D01*
X122286976Y-147999846D01*
X122271070Y-147985430D01*
X122256654Y-147969524D01*
X122243866Y-147952281D01*
X122232830Y-147933868D01*
X122223651Y-147914462D01*
X122216419Y-147894250D01*
X122211203Y-147873426D01*
X122208053Y-147852191D01*
X122207000Y-147830750D01*
X122207000Y-147393250D01*
X122208053Y-147371809D01*
X122211203Y-147350574D01*
X122216419Y-147329750D01*
X122223651Y-147309538D01*
X122232830Y-147290132D01*
X122243866Y-147271719D01*
X122256654Y-147254476D01*
X122271070Y-147238570D01*
X122286976Y-147224154D01*
X122304219Y-147211366D01*
X122322632Y-147200330D01*
X122342038Y-147191151D01*
X122362250Y-147183919D01*
X122383074Y-147178703D01*
X122404309Y-147175553D01*
X122425750Y-147174500D01*
X122938250Y-147174500D01*
X122959691Y-147175553D01*
G37*
G36*
X120864191Y-141867053D02*
G01*
X120885426Y-141870203D01*
X120906250Y-141875419D01*
X120926462Y-141882651D01*
X120945868Y-141891830D01*
X120964281Y-141902866D01*
X120981524Y-141915654D01*
X120997430Y-141930070D01*
X121011846Y-141945976D01*
X121024634Y-141963219D01*
X121035670Y-141981632D01*
X121044849Y-142001038D01*
X121052081Y-142021250D01*
X121057297Y-142042074D01*
X121060447Y-142063309D01*
X121061500Y-142084750D01*
X121061500Y-142522250D01*
X121060447Y-142543691D01*
X121057297Y-142564926D01*
X121052081Y-142585750D01*
X121044849Y-142605962D01*
X121035670Y-142625368D01*
X121024634Y-142643781D01*
X121011846Y-142661024D01*
X120997430Y-142676930D01*
X120981524Y-142691346D01*
X120964281Y-142704134D01*
X120945868Y-142715170D01*
X120926462Y-142724349D01*
X120906250Y-142731581D01*
X120885426Y-142736797D01*
X120864191Y-142739947D01*
X120842750Y-142741000D01*
X120330250Y-142741000D01*
X120308809Y-142739947D01*
X120287574Y-142736797D01*
X120266750Y-142731581D01*
X120246538Y-142724349D01*
X120227132Y-142715170D01*
X120208719Y-142704134D01*
X120191476Y-142691346D01*
X120175570Y-142676930D01*
X120161154Y-142661024D01*
X120148366Y-142643781D01*
X120137330Y-142625368D01*
X120128151Y-142605962D01*
X120120919Y-142585750D01*
X120115703Y-142564926D01*
X120112553Y-142543691D01*
X120111500Y-142522250D01*
X120111500Y-142084750D01*
X120112553Y-142063309D01*
X120115703Y-142042074D01*
X120120919Y-142021250D01*
X120128151Y-142001038D01*
X120137330Y-141981632D01*
X120148366Y-141963219D01*
X120161154Y-141945976D01*
X120175570Y-141930070D01*
X120191476Y-141915654D01*
X120208719Y-141902866D01*
X120227132Y-141891830D01*
X120246538Y-141882651D01*
X120266750Y-141875419D01*
X120287574Y-141870203D01*
X120308809Y-141867053D01*
X120330250Y-141866000D01*
X120842750Y-141866000D01*
X120864191Y-141867053D01*
G37*
G36*
X120864191Y-143442053D02*
G01*
X120885426Y-143445203D01*
X120906250Y-143450419D01*
X120926462Y-143457651D01*
X120945868Y-143466830D01*
X120964281Y-143477866D01*
X120981524Y-143490654D01*
X120997430Y-143505070D01*
X121011846Y-143520976D01*
X121024634Y-143538219D01*
X121035670Y-143556632D01*
X121044849Y-143576038D01*
X121052081Y-143596250D01*
X121057297Y-143617074D01*
X121060447Y-143638309D01*
X121061500Y-143659750D01*
X121061500Y-144097250D01*
X121060447Y-144118691D01*
X121057297Y-144139926D01*
X121052081Y-144160750D01*
X121044849Y-144180962D01*
X121035670Y-144200368D01*
X121024634Y-144218781D01*
X121011846Y-144236024D01*
X120997430Y-144251930D01*
X120981524Y-144266346D01*
X120964281Y-144279134D01*
X120945868Y-144290170D01*
X120926462Y-144299349D01*
X120906250Y-144306581D01*
X120885426Y-144311797D01*
X120864191Y-144314947D01*
X120842750Y-144316000D01*
X120330250Y-144316000D01*
X120308809Y-144314947D01*
X120287574Y-144311797D01*
X120266750Y-144306581D01*
X120246538Y-144299349D01*
X120227132Y-144290170D01*
X120208719Y-144279134D01*
X120191476Y-144266346D01*
X120175570Y-144251930D01*
X120161154Y-144236024D01*
X120148366Y-144218781D01*
X120137330Y-144200368D01*
X120128151Y-144180962D01*
X120120919Y-144160750D01*
X120115703Y-144139926D01*
X120112553Y-144118691D01*
X120111500Y-144097250D01*
X120111500Y-143659750D01*
X120112553Y-143638309D01*
X120115703Y-143617074D01*
X120120919Y-143596250D01*
X120128151Y-143576038D01*
X120137330Y-143556632D01*
X120148366Y-143538219D01*
X120161154Y-143520976D01*
X120175570Y-143505070D01*
X120191476Y-143490654D01*
X120208719Y-143477866D01*
X120227132Y-143466830D01*
X120246538Y-143457651D01*
X120266750Y-143450419D01*
X120287574Y-143445203D01*
X120308809Y-143442053D01*
X120330250Y-143441000D01*
X120842750Y-143441000D01*
X120864191Y-143442053D01*
G37*
G36*
X153072191Y-136813053D02*
G01*
X153093426Y-136816203D01*
X153114250Y-136821419D01*
X153134462Y-136828651D01*
X153153868Y-136837830D01*
X153172281Y-136848866D01*
X153189524Y-136861654D01*
X153205430Y-136876070D01*
X153219846Y-136891976D01*
X153232634Y-136909219D01*
X153243670Y-136927632D01*
X153252849Y-136947038D01*
X153260081Y-136967250D01*
X153265297Y-136988074D01*
X153268447Y-137009309D01*
X153269500Y-137030750D01*
X153269500Y-137543250D01*
X153268447Y-137564691D01*
X153265297Y-137585926D01*
X153260081Y-137606750D01*
X153252849Y-137626962D01*
X153243670Y-137646368D01*
X153232634Y-137664781D01*
X153219846Y-137682024D01*
X153205430Y-137697930D01*
X153189524Y-137712346D01*
X153172281Y-137725134D01*
X153153868Y-137736170D01*
X153134462Y-137745349D01*
X153114250Y-137752581D01*
X153093426Y-137757797D01*
X153072191Y-137760947D01*
X153050750Y-137762000D01*
X152613250Y-137762000D01*
X152591809Y-137760947D01*
X152570574Y-137757797D01*
X152549750Y-137752581D01*
X152529538Y-137745349D01*
X152510132Y-137736170D01*
X152491719Y-137725134D01*
X152474476Y-137712346D01*
X152458570Y-137697930D01*
X152444154Y-137682024D01*
X152431366Y-137664781D01*
X152420330Y-137646368D01*
X152411151Y-137626962D01*
X152403919Y-137606750D01*
X152398703Y-137585926D01*
X152395553Y-137564691D01*
X152394500Y-137543250D01*
X152394500Y-137030750D01*
X152395553Y-137009309D01*
X152398703Y-136988074D01*
X152403919Y-136967250D01*
X152411151Y-136947038D01*
X152420330Y-136927632D01*
X152431366Y-136909219D01*
X152444154Y-136891976D01*
X152458570Y-136876070D01*
X152474476Y-136861654D01*
X152491719Y-136848866D01*
X152510132Y-136837830D01*
X152529538Y-136828651D01*
X152549750Y-136821419D01*
X152570574Y-136816203D01*
X152591809Y-136813053D01*
X152613250Y-136812000D01*
X153050750Y-136812000D01*
X153072191Y-136813053D01*
G37*
G36*
X151497191Y-136813053D02*
G01*
X151518426Y-136816203D01*
X151539250Y-136821419D01*
X151559462Y-136828651D01*
X151578868Y-136837830D01*
X151597281Y-136848866D01*
X151614524Y-136861654D01*
X151630430Y-136876070D01*
X151644846Y-136891976D01*
X151657634Y-136909219D01*
X151668670Y-136927632D01*
X151677849Y-136947038D01*
X151685081Y-136967250D01*
X151690297Y-136988074D01*
X151693447Y-137009309D01*
X151694500Y-137030750D01*
X151694500Y-137543250D01*
X151693447Y-137564691D01*
X151690297Y-137585926D01*
X151685081Y-137606750D01*
X151677849Y-137626962D01*
X151668670Y-137646368D01*
X151657634Y-137664781D01*
X151644846Y-137682024D01*
X151630430Y-137697930D01*
X151614524Y-137712346D01*
X151597281Y-137725134D01*
X151578868Y-137736170D01*
X151559462Y-137745349D01*
X151539250Y-137752581D01*
X151518426Y-137757797D01*
X151497191Y-137760947D01*
X151475750Y-137762000D01*
X151038250Y-137762000D01*
X151016809Y-137760947D01*
X150995574Y-137757797D01*
X150974750Y-137752581D01*
X150954538Y-137745349D01*
X150935132Y-137736170D01*
X150916719Y-137725134D01*
X150899476Y-137712346D01*
X150883570Y-137697930D01*
X150869154Y-137682024D01*
X150856366Y-137664781D01*
X150845330Y-137646368D01*
X150836151Y-137626962D01*
X150828919Y-137606750D01*
X150823703Y-137585926D01*
X150820553Y-137564691D01*
X150819500Y-137543250D01*
X150819500Y-137030750D01*
X150820553Y-137009309D01*
X150823703Y-136988074D01*
X150828919Y-136967250D01*
X150836151Y-136947038D01*
X150845330Y-136927632D01*
X150856366Y-136909219D01*
X150869154Y-136891976D01*
X150883570Y-136876070D01*
X150899476Y-136861654D01*
X150916719Y-136848866D01*
X150935132Y-136837830D01*
X150954538Y-136828651D01*
X150974750Y-136821419D01*
X150995574Y-136816203D01*
X151016809Y-136813053D01*
X151038250Y-136812000D01*
X151475750Y-136812000D01*
X151497191Y-136813053D01*
G37*
G36*
X127176091Y-141904953D02*
G01*
X127197326Y-141908103D01*
X127218150Y-141913319D01*
X127238362Y-141920551D01*
X127257768Y-141929730D01*
X127276181Y-141940766D01*
X127293424Y-141953554D01*
X127309330Y-141967970D01*
X127323746Y-141983876D01*
X127336534Y-142001119D01*
X127347570Y-142019532D01*
X127356749Y-142038938D01*
X127363981Y-142059150D01*
X127369197Y-142079974D01*
X127372347Y-142101209D01*
X127373400Y-142122650D01*
X127373400Y-142560150D01*
X127372347Y-142581591D01*
X127369197Y-142602826D01*
X127363981Y-142623650D01*
X127356749Y-142643862D01*
X127347570Y-142663268D01*
X127336534Y-142681681D01*
X127323746Y-142698924D01*
X127309330Y-142714830D01*
X127293424Y-142729246D01*
X127276181Y-142742034D01*
X127257768Y-142753070D01*
X127238362Y-142762249D01*
X127218150Y-142769481D01*
X127197326Y-142774697D01*
X127176091Y-142777847D01*
X127154650Y-142778900D01*
X126642150Y-142778900D01*
X126620709Y-142777847D01*
X126599474Y-142774697D01*
X126578650Y-142769481D01*
X126558438Y-142762249D01*
X126539032Y-142753070D01*
X126520619Y-142742034D01*
X126503376Y-142729246D01*
X126487470Y-142714830D01*
X126473054Y-142698924D01*
X126460266Y-142681681D01*
X126449230Y-142663268D01*
X126440051Y-142643862D01*
X126432819Y-142623650D01*
X126427603Y-142602826D01*
X126424453Y-142581591D01*
X126423400Y-142560150D01*
X126423400Y-142122650D01*
X126424453Y-142101209D01*
X126427603Y-142079974D01*
X126432819Y-142059150D01*
X126440051Y-142038938D01*
X126449230Y-142019532D01*
X126460266Y-142001119D01*
X126473054Y-141983876D01*
X126487470Y-141967970D01*
X126503376Y-141953554D01*
X126520619Y-141940766D01*
X126539032Y-141929730D01*
X126558438Y-141920551D01*
X126578650Y-141913319D01*
X126599474Y-141908103D01*
X126620709Y-141904953D01*
X126642150Y-141903900D01*
X127154650Y-141903900D01*
X127176091Y-141904953D01*
G37*
G36*
X127176091Y-143479953D02*
G01*
X127197326Y-143483103D01*
X127218150Y-143488319D01*
X127238362Y-143495551D01*
X127257768Y-143504730D01*
X127276181Y-143515766D01*
X127293424Y-143528554D01*
X127309330Y-143542970D01*
X127323746Y-143558876D01*
X127336534Y-143576119D01*
X127347570Y-143594532D01*
X127356749Y-143613938D01*
X127363981Y-143634150D01*
X127369197Y-143654974D01*
X127372347Y-143676209D01*
X127373400Y-143697650D01*
X127373400Y-144135150D01*
X127372347Y-144156591D01*
X127369197Y-144177826D01*
X127363981Y-144198650D01*
X127356749Y-144218862D01*
X127347570Y-144238268D01*
X127336534Y-144256681D01*
X127323746Y-144273924D01*
X127309330Y-144289830D01*
X127293424Y-144304246D01*
X127276181Y-144317034D01*
X127257768Y-144328070D01*
X127238362Y-144337249D01*
X127218150Y-144344481D01*
X127197326Y-144349697D01*
X127176091Y-144352847D01*
X127154650Y-144353900D01*
X126642150Y-144353900D01*
X126620709Y-144352847D01*
X126599474Y-144349697D01*
X126578650Y-144344481D01*
X126558438Y-144337249D01*
X126539032Y-144328070D01*
X126520619Y-144317034D01*
X126503376Y-144304246D01*
X126487470Y-144289830D01*
X126473054Y-144273924D01*
X126460266Y-144256681D01*
X126449230Y-144238268D01*
X126440051Y-144218862D01*
X126432819Y-144198650D01*
X126427603Y-144177826D01*
X126424453Y-144156591D01*
X126423400Y-144135150D01*
X126423400Y-143697650D01*
X126424453Y-143676209D01*
X126427603Y-143654974D01*
X126432819Y-143634150D01*
X126440051Y-143613938D01*
X126449230Y-143594532D01*
X126460266Y-143576119D01*
X126473054Y-143558876D01*
X126487470Y-143542970D01*
X126503376Y-143528554D01*
X126520619Y-143515766D01*
X126539032Y-143504730D01*
X126558438Y-143495551D01*
X126578650Y-143488319D01*
X126599474Y-143483103D01*
X126620709Y-143479953D01*
X126642150Y-143478900D01*
X127154650Y-143478900D01*
X127176091Y-143479953D01*
G37*
G36*
X153110191Y-135098553D02*
G01*
X153131426Y-135101703D01*
X153152250Y-135106919D01*
X153172462Y-135114151D01*
X153191868Y-135123330D01*
X153210281Y-135134366D01*
X153227524Y-135147154D01*
X153243430Y-135161570D01*
X153257846Y-135177476D01*
X153270634Y-135194719D01*
X153281670Y-135213132D01*
X153290849Y-135232538D01*
X153298081Y-135252750D01*
X153303297Y-135273574D01*
X153306447Y-135294809D01*
X153307500Y-135316250D01*
X153307500Y-135828750D01*
X153306447Y-135850191D01*
X153303297Y-135871426D01*
X153298081Y-135892250D01*
X153290849Y-135912462D01*
X153281670Y-135931868D01*
X153270634Y-135950281D01*
X153257846Y-135967524D01*
X153243430Y-135983430D01*
X153227524Y-135997846D01*
X153210281Y-136010634D01*
X153191868Y-136021670D01*
X153172462Y-136030849D01*
X153152250Y-136038081D01*
X153131426Y-136043297D01*
X153110191Y-136046447D01*
X153088750Y-136047500D01*
X152651250Y-136047500D01*
X152629809Y-136046447D01*
X152608574Y-136043297D01*
X152587750Y-136038081D01*
X152567538Y-136030849D01*
X152548132Y-136021670D01*
X152529719Y-136010634D01*
X152512476Y-135997846D01*
X152496570Y-135983430D01*
X152482154Y-135967524D01*
X152469366Y-135950281D01*
X152458330Y-135931868D01*
X152449151Y-135912462D01*
X152441919Y-135892250D01*
X152436703Y-135871426D01*
X152433553Y-135850191D01*
X152432500Y-135828750D01*
X152432500Y-135316250D01*
X152433553Y-135294809D01*
X152436703Y-135273574D01*
X152441919Y-135252750D01*
X152449151Y-135232538D01*
X152458330Y-135213132D01*
X152469366Y-135194719D01*
X152482154Y-135177476D01*
X152496570Y-135161570D01*
X152512476Y-135147154D01*
X152529719Y-135134366D01*
X152548132Y-135123330D01*
X152567538Y-135114151D01*
X152587750Y-135106919D01*
X152608574Y-135101703D01*
X152629809Y-135098553D01*
X152651250Y-135097500D01*
X153088750Y-135097500D01*
X153110191Y-135098553D01*
G37*
G36*
X151535191Y-135098553D02*
G01*
X151556426Y-135101703D01*
X151577250Y-135106919D01*
X151597462Y-135114151D01*
X151616868Y-135123330D01*
X151635281Y-135134366D01*
X151652524Y-135147154D01*
X151668430Y-135161570D01*
X151682846Y-135177476D01*
X151695634Y-135194719D01*
X151706670Y-135213132D01*
X151715849Y-135232538D01*
X151723081Y-135252750D01*
X151728297Y-135273574D01*
X151731447Y-135294809D01*
X151732500Y-135316250D01*
X151732500Y-135828750D01*
X151731447Y-135850191D01*
X151728297Y-135871426D01*
X151723081Y-135892250D01*
X151715849Y-135912462D01*
X151706670Y-135931868D01*
X151695634Y-135950281D01*
X151682846Y-135967524D01*
X151668430Y-135983430D01*
X151652524Y-135997846D01*
X151635281Y-136010634D01*
X151616868Y-136021670D01*
X151597462Y-136030849D01*
X151577250Y-136038081D01*
X151556426Y-136043297D01*
X151535191Y-136046447D01*
X151513750Y-136047500D01*
X151076250Y-136047500D01*
X151054809Y-136046447D01*
X151033574Y-136043297D01*
X151012750Y-136038081D01*
X150992538Y-136030849D01*
X150973132Y-136021670D01*
X150954719Y-136010634D01*
X150937476Y-135997846D01*
X150921570Y-135983430D01*
X150907154Y-135967524D01*
X150894366Y-135950281D01*
X150883330Y-135931868D01*
X150874151Y-135912462D01*
X150866919Y-135892250D01*
X150861703Y-135871426D01*
X150858553Y-135850191D01*
X150857500Y-135828750D01*
X150857500Y-135316250D01*
X150858553Y-135294809D01*
X150861703Y-135273574D01*
X150866919Y-135252750D01*
X150874151Y-135232538D01*
X150883330Y-135213132D01*
X150894366Y-135194719D01*
X150907154Y-135177476D01*
X150921570Y-135161570D01*
X150937476Y-135147154D01*
X150954719Y-135134366D01*
X150973132Y-135123330D01*
X150992538Y-135114151D01*
X151012750Y-135106919D01*
X151033574Y-135101703D01*
X151054809Y-135098553D01*
X151076250Y-135097500D01*
X151513750Y-135097500D01*
X151535191Y-135098553D01*
G37*
G36*
X132100004Y-145883404D02*
G01*
X132124273Y-145887004D01*
X132148071Y-145892965D01*
X132171171Y-145901230D01*
X132193349Y-145911720D01*
X132214393Y-145924333D01*
X132234098Y-145938947D01*
X132252277Y-145955423D01*
X132268753Y-145973602D01*
X132283367Y-145993307D01*
X132295980Y-146014351D01*
X132306470Y-146036529D01*
X132314735Y-146059629D01*
X132320696Y-146083427D01*
X132324296Y-146107696D01*
X132325500Y-146132200D01*
X132325500Y-146882200D01*
X132324296Y-146906704D01*
X132320696Y-146930973D01*
X132314735Y-146954771D01*
X132306470Y-146977871D01*
X132295980Y-147000049D01*
X132283367Y-147021093D01*
X132268753Y-147040798D01*
X132252277Y-147058977D01*
X132234098Y-147075453D01*
X132214393Y-147090067D01*
X132193349Y-147102680D01*
X132171171Y-147113170D01*
X132148071Y-147121435D01*
X132124273Y-147127396D01*
X132100004Y-147130996D01*
X132075500Y-147132200D01*
X129925500Y-147132200D01*
X129900996Y-147130996D01*
X129876727Y-147127396D01*
X129852929Y-147121435D01*
X129829829Y-147113170D01*
X129807651Y-147102680D01*
X129786607Y-147090067D01*
X129766902Y-147075453D01*
X129748723Y-147058977D01*
X129732247Y-147040798D01*
X129717633Y-147021093D01*
X129705020Y-147000049D01*
X129694530Y-146977871D01*
X129686265Y-146954771D01*
X129680304Y-146930973D01*
X129676704Y-146906704D01*
X129675500Y-146882200D01*
X129675500Y-146132200D01*
X129676704Y-146107696D01*
X129680304Y-146083427D01*
X129686265Y-146059629D01*
X129694530Y-146036529D01*
X129705020Y-146014351D01*
X129717633Y-145993307D01*
X129732247Y-145973602D01*
X129748723Y-145955423D01*
X129766902Y-145938947D01*
X129786607Y-145924333D01*
X129807651Y-145911720D01*
X129829829Y-145901230D01*
X129852929Y-145892965D01*
X129876727Y-145887004D01*
X129900996Y-145883404D01*
X129925500Y-145882200D01*
X132075500Y-145882200D01*
X132100004Y-145883404D01*
G37*
G36*
X132100004Y-143083404D02*
G01*
X132124273Y-143087004D01*
X132148071Y-143092965D01*
X132171171Y-143101230D01*
X132193349Y-143111720D01*
X132214393Y-143124333D01*
X132234098Y-143138947D01*
X132252277Y-143155423D01*
X132268753Y-143173602D01*
X132283367Y-143193307D01*
X132295980Y-143214351D01*
X132306470Y-143236529D01*
X132314735Y-143259629D01*
X132320696Y-143283427D01*
X132324296Y-143307696D01*
X132325500Y-143332200D01*
X132325500Y-144082200D01*
X132324296Y-144106704D01*
X132320696Y-144130973D01*
X132314735Y-144154771D01*
X132306470Y-144177871D01*
X132295980Y-144200049D01*
X132283367Y-144221093D01*
X132268753Y-144240798D01*
X132252277Y-144258977D01*
X132234098Y-144275453D01*
X132214393Y-144290067D01*
X132193349Y-144302680D01*
X132171171Y-144313170D01*
X132148071Y-144321435D01*
X132124273Y-144327396D01*
X132100004Y-144330996D01*
X132075500Y-144332200D01*
X129925500Y-144332200D01*
X129900996Y-144330996D01*
X129876727Y-144327396D01*
X129852929Y-144321435D01*
X129829829Y-144313170D01*
X129807651Y-144302680D01*
X129786607Y-144290067D01*
X129766902Y-144275453D01*
X129748723Y-144258977D01*
X129732247Y-144240798D01*
X129717633Y-144221093D01*
X129705020Y-144200049D01*
X129694530Y-144177871D01*
X129686265Y-144154771D01*
X129680304Y-144130973D01*
X129676704Y-144106704D01*
X129675500Y-144082200D01*
X129675500Y-143332200D01*
X129676704Y-143307696D01*
X129680304Y-143283427D01*
X129686265Y-143259629D01*
X129694530Y-143236529D01*
X129705020Y-143214351D01*
X129717633Y-143193307D01*
X129732247Y-143173602D01*
X129748723Y-143155423D01*
X129766902Y-143138947D01*
X129786607Y-143124333D01*
X129807651Y-143111720D01*
X129829829Y-143101230D01*
X129852929Y-143092965D01*
X129876727Y-143087004D01*
X129900996Y-143083404D01*
X129925500Y-143082200D01*
X132075500Y-143082200D01*
X132100004Y-143083404D01*
G37*
G36*
X117964904Y-144692604D02*
G01*
X117989173Y-144696204D01*
X118012971Y-144702165D01*
X118036071Y-144710430D01*
X118058249Y-144720920D01*
X118079293Y-144733533D01*
X118098998Y-144748147D01*
X118117177Y-144764623D01*
X118133653Y-144782802D01*
X118148267Y-144802507D01*
X118160880Y-144823551D01*
X118171370Y-144845729D01*
X118179635Y-144868829D01*
X118185596Y-144892627D01*
X118189196Y-144916896D01*
X118190400Y-144941400D01*
X118190400Y-145691400D01*
X118189196Y-145715904D01*
X118185596Y-145740173D01*
X118179635Y-145763971D01*
X118171370Y-145787071D01*
X118160880Y-145809249D01*
X118148267Y-145830293D01*
X118133653Y-145849998D01*
X118117177Y-145868177D01*
X118098998Y-145884653D01*
X118079293Y-145899267D01*
X118058249Y-145911880D01*
X118036071Y-145922370D01*
X118012971Y-145930635D01*
X117989173Y-145936596D01*
X117964904Y-145940196D01*
X117940400Y-145941400D01*
X115790400Y-145941400D01*
X115765896Y-145940196D01*
X115741627Y-145936596D01*
X115717829Y-145930635D01*
X115694729Y-145922370D01*
X115672551Y-145911880D01*
X115651507Y-145899267D01*
X115631802Y-145884653D01*
X115613623Y-145868177D01*
X115597147Y-145849998D01*
X115582533Y-145830293D01*
X115569920Y-145809249D01*
X115559430Y-145787071D01*
X115551165Y-145763971D01*
X115545204Y-145740173D01*
X115541604Y-145715904D01*
X115540400Y-145691400D01*
X115540400Y-144941400D01*
X115541604Y-144916896D01*
X115545204Y-144892627D01*
X115551165Y-144868829D01*
X115559430Y-144845729D01*
X115569920Y-144823551D01*
X115582533Y-144802507D01*
X115597147Y-144782802D01*
X115613623Y-144764623D01*
X115631802Y-144748147D01*
X115651507Y-144733533D01*
X115672551Y-144720920D01*
X115694729Y-144710430D01*
X115717829Y-144702165D01*
X115741627Y-144696204D01*
X115765896Y-144692604D01*
X115790400Y-144691400D01*
X117940400Y-144691400D01*
X117964904Y-144692604D01*
G37*
G36*
X117964904Y-141892604D02*
G01*
X117989173Y-141896204D01*
X118012971Y-141902165D01*
X118036071Y-141910430D01*
X118058249Y-141920920D01*
X118079293Y-141933533D01*
X118098998Y-141948147D01*
X118117177Y-141964623D01*
X118133653Y-141982802D01*
X118148267Y-142002507D01*
X118160880Y-142023551D01*
X118171370Y-142045729D01*
X118179635Y-142068829D01*
X118185596Y-142092627D01*
X118189196Y-142116896D01*
X118190400Y-142141400D01*
X118190400Y-142891400D01*
X118189196Y-142915904D01*
X118185596Y-142940173D01*
X118179635Y-142963971D01*
X118171370Y-142987071D01*
X118160880Y-143009249D01*
X118148267Y-143030293D01*
X118133653Y-143049998D01*
X118117177Y-143068177D01*
X118098998Y-143084653D01*
X118079293Y-143099267D01*
X118058249Y-143111880D01*
X118036071Y-143122370D01*
X118012971Y-143130635D01*
X117989173Y-143136596D01*
X117964904Y-143140196D01*
X117940400Y-143141400D01*
X115790400Y-143141400D01*
X115765896Y-143140196D01*
X115741627Y-143136596D01*
X115717829Y-143130635D01*
X115694729Y-143122370D01*
X115672551Y-143111880D01*
X115651507Y-143099267D01*
X115631802Y-143084653D01*
X115613623Y-143068177D01*
X115597147Y-143049998D01*
X115582533Y-143030293D01*
X115569920Y-143009249D01*
X115559430Y-142987071D01*
X115551165Y-142963971D01*
X115545204Y-142940173D01*
X115541604Y-142915904D01*
X115540400Y-142891400D01*
X115540400Y-142141400D01*
X115541604Y-142116896D01*
X115545204Y-142092627D01*
X115551165Y-142068829D01*
X115559430Y-142045729D01*
X115569920Y-142023551D01*
X115582533Y-142002507D01*
X115597147Y-141982802D01*
X115613623Y-141964623D01*
X115631802Y-141948147D01*
X115651507Y-141933533D01*
X115672551Y-141920920D01*
X115694729Y-141910430D01*
X115717829Y-141902165D01*
X115741627Y-141896204D01*
X115765896Y-141892604D01*
X115790400Y-141891400D01*
X117940400Y-141891400D01*
X117964904Y-141892604D01*
G37*
G36*
X95312191Y-71471553D02*
G01*
X95333426Y-71474703D01*
X95354250Y-71479919D01*
X95374462Y-71487151D01*
X95393868Y-71496330D01*
X95412281Y-71507366D01*
X95429524Y-71520154D01*
X95445430Y-71534570D01*
X95459846Y-71550476D01*
X95472634Y-71567719D01*
X95483670Y-71586132D01*
X95492849Y-71605538D01*
X95500081Y-71625750D01*
X95505297Y-71646574D01*
X95508447Y-71667809D01*
X95509500Y-71689250D01*
X95509500Y-72201750D01*
X95508447Y-72223191D01*
X95505297Y-72244426D01*
X95500081Y-72265250D01*
X95492849Y-72285462D01*
X95483670Y-72304868D01*
X95472634Y-72323281D01*
X95459846Y-72340524D01*
X95445430Y-72356430D01*
X95429524Y-72370846D01*
X95412281Y-72383634D01*
X95393868Y-72394670D01*
X95374462Y-72403849D01*
X95354250Y-72411081D01*
X95333426Y-72416297D01*
X95312191Y-72419447D01*
X95290750Y-72420500D01*
X94853250Y-72420500D01*
X94831809Y-72419447D01*
X94810574Y-72416297D01*
X94789750Y-72411081D01*
X94769538Y-72403849D01*
X94750132Y-72394670D01*
X94731719Y-72383634D01*
X94714476Y-72370846D01*
X94698570Y-72356430D01*
X94684154Y-72340524D01*
X94671366Y-72323281D01*
X94660330Y-72304868D01*
X94651151Y-72285462D01*
X94643919Y-72265250D01*
X94638703Y-72244426D01*
X94635553Y-72223191D01*
X94634500Y-72201750D01*
X94634500Y-71689250D01*
X94635553Y-71667809D01*
X94638703Y-71646574D01*
X94643919Y-71625750D01*
X94651151Y-71605538D01*
X94660330Y-71586132D01*
X94671366Y-71567719D01*
X94684154Y-71550476D01*
X94698570Y-71534570D01*
X94714476Y-71520154D01*
X94731719Y-71507366D01*
X94750132Y-71496330D01*
X94769538Y-71487151D01*
X94789750Y-71479919D01*
X94810574Y-71474703D01*
X94831809Y-71471553D01*
X94853250Y-71470500D01*
X95290750Y-71470500D01*
X95312191Y-71471553D01*
G37*
G36*
X96887191Y-71471553D02*
G01*
X96908426Y-71474703D01*
X96929250Y-71479919D01*
X96949462Y-71487151D01*
X96968868Y-71496330D01*
X96987281Y-71507366D01*
X97004524Y-71520154D01*
X97020430Y-71534570D01*
X97034846Y-71550476D01*
X97047634Y-71567719D01*
X97058670Y-71586132D01*
X97067849Y-71605538D01*
X97075081Y-71625750D01*
X97080297Y-71646574D01*
X97083447Y-71667809D01*
X97084500Y-71689250D01*
X97084500Y-72201750D01*
X97083447Y-72223191D01*
X97080297Y-72244426D01*
X97075081Y-72265250D01*
X97067849Y-72285462D01*
X97058670Y-72304868D01*
X97047634Y-72323281D01*
X97034846Y-72340524D01*
X97020430Y-72356430D01*
X97004524Y-72370846D01*
X96987281Y-72383634D01*
X96968868Y-72394670D01*
X96949462Y-72403849D01*
X96929250Y-72411081D01*
X96908426Y-72416297D01*
X96887191Y-72419447D01*
X96865750Y-72420500D01*
X96428250Y-72420500D01*
X96406809Y-72419447D01*
X96385574Y-72416297D01*
X96364750Y-72411081D01*
X96344538Y-72403849D01*
X96325132Y-72394670D01*
X96306719Y-72383634D01*
X96289476Y-72370846D01*
X96273570Y-72356430D01*
X96259154Y-72340524D01*
X96246366Y-72323281D01*
X96235330Y-72304868D01*
X96226151Y-72285462D01*
X96218919Y-72265250D01*
X96213703Y-72244426D01*
X96210553Y-72223191D01*
X96209500Y-72201750D01*
X96209500Y-71689250D01*
X96210553Y-71667809D01*
X96213703Y-71646574D01*
X96218919Y-71625750D01*
X96226151Y-71605538D01*
X96235330Y-71586132D01*
X96246366Y-71567719D01*
X96259154Y-71550476D01*
X96273570Y-71534570D01*
X96289476Y-71520154D01*
X96306719Y-71507366D01*
X96325132Y-71496330D01*
X96344538Y-71487151D01*
X96364750Y-71479919D01*
X96385574Y-71474703D01*
X96406809Y-71471553D01*
X96428250Y-71470500D01*
X96865750Y-71470500D01*
X96887191Y-71471553D01*
G37*
G36*
X96821142Y-75056674D02*
G01*
X96844803Y-75060184D01*
X96868007Y-75065996D01*
X96890529Y-75074054D01*
X96912153Y-75084282D01*
X96932670Y-75096579D01*
X96951883Y-75110829D01*
X96969607Y-75126893D01*
X96985671Y-75144617D01*
X96999921Y-75163830D01*
X97012218Y-75184347D01*
X97022446Y-75205971D01*
X97030504Y-75228493D01*
X97036316Y-75251697D01*
X97039826Y-75275358D01*
X97041000Y-75299250D01*
X97041000Y-76211750D01*
X97039826Y-76235642D01*
X97036316Y-76259303D01*
X97030504Y-76282507D01*
X97022446Y-76305029D01*
X97012218Y-76326653D01*
X96999921Y-76347170D01*
X96985671Y-76366383D01*
X96969607Y-76384107D01*
X96951883Y-76400171D01*
X96932670Y-76414421D01*
X96912153Y-76426718D01*
X96890529Y-76436946D01*
X96868007Y-76445004D01*
X96844803Y-76450816D01*
X96821142Y-76454326D01*
X96797250Y-76455500D01*
X96309750Y-76455500D01*
X96285858Y-76454326D01*
X96262197Y-76450816D01*
X96238993Y-76445004D01*
X96216471Y-76436946D01*
X96194847Y-76426718D01*
X96174330Y-76414421D01*
X96155117Y-76400171D01*
X96137393Y-76384107D01*
X96121329Y-76366383D01*
X96107079Y-76347170D01*
X96094782Y-76326653D01*
X96084554Y-76305029D01*
X96076496Y-76282507D01*
X96070684Y-76259303D01*
X96067174Y-76235642D01*
X96066000Y-76211750D01*
X96066000Y-75299250D01*
X96067174Y-75275358D01*
X96070684Y-75251697D01*
X96076496Y-75228493D01*
X96084554Y-75205971D01*
X96094782Y-75184347D01*
X96107079Y-75163830D01*
X96121329Y-75144617D01*
X96137393Y-75126893D01*
X96155117Y-75110829D01*
X96174330Y-75096579D01*
X96194847Y-75084282D01*
X96216471Y-75074054D01*
X96238993Y-75065996D01*
X96262197Y-75060184D01*
X96285858Y-75056674D01*
X96309750Y-75055500D01*
X96797250Y-75055500D01*
X96821142Y-75056674D01*
G37*
G36*
X94946142Y-75056674D02*
G01*
X94969803Y-75060184D01*
X94993007Y-75065996D01*
X95015529Y-75074054D01*
X95037153Y-75084282D01*
X95057670Y-75096579D01*
X95076883Y-75110829D01*
X95094607Y-75126893D01*
X95110671Y-75144617D01*
X95124921Y-75163830D01*
X95137218Y-75184347D01*
X95147446Y-75205971D01*
X95155504Y-75228493D01*
X95161316Y-75251697D01*
X95164826Y-75275358D01*
X95166000Y-75299250D01*
X95166000Y-76211750D01*
X95164826Y-76235642D01*
X95161316Y-76259303D01*
X95155504Y-76282507D01*
X95147446Y-76305029D01*
X95137218Y-76326653D01*
X95124921Y-76347170D01*
X95110671Y-76366383D01*
X95094607Y-76384107D01*
X95076883Y-76400171D01*
X95057670Y-76414421D01*
X95037153Y-76426718D01*
X95015529Y-76436946D01*
X94993007Y-76445004D01*
X94969803Y-76450816D01*
X94946142Y-76454326D01*
X94922250Y-76455500D01*
X94434750Y-76455500D01*
X94410858Y-76454326D01*
X94387197Y-76450816D01*
X94363993Y-76445004D01*
X94341471Y-76436946D01*
X94319847Y-76426718D01*
X94299330Y-76414421D01*
X94280117Y-76400171D01*
X94262393Y-76384107D01*
X94246329Y-76366383D01*
X94232079Y-76347170D01*
X94219782Y-76326653D01*
X94209554Y-76305029D01*
X94201496Y-76282507D01*
X94195684Y-76259303D01*
X94192174Y-76235642D01*
X94191000Y-76211750D01*
X94191000Y-75299250D01*
X94192174Y-75275358D01*
X94195684Y-75251697D01*
X94201496Y-75228493D01*
X94209554Y-75205971D01*
X94219782Y-75184347D01*
X94232079Y-75163830D01*
X94246329Y-75144617D01*
X94262393Y-75126893D01*
X94280117Y-75110829D01*
X94299330Y-75096579D01*
X94319847Y-75084282D01*
X94341471Y-75074054D01*
X94363993Y-75065996D01*
X94387197Y-75060184D01*
X94410858Y-75056674D01*
X94434750Y-75055500D01*
X94922250Y-75055500D01*
X94946142Y-75056674D01*
G37*
G36*
X72118867Y-84720249D02*
G01*
X72143136Y-84723849D01*
X72166934Y-84729810D01*
X72190034Y-84738075D01*
X72212212Y-84748565D01*
X72233256Y-84761178D01*
X72252961Y-84775792D01*
X72271140Y-84792268D01*
X73756064Y-86277192D01*
X73772540Y-86295371D01*
X73787154Y-86315076D01*
X73799767Y-86336120D01*
X73810257Y-86358298D01*
X73818522Y-86381398D01*
X73824483Y-86405196D01*
X73828083Y-86429465D01*
X73829287Y-86453969D01*
X73828083Y-86478473D01*
X73824483Y-86502742D01*
X73818522Y-86526540D01*
X73810257Y-86549640D01*
X73799767Y-86571818D01*
X73787154Y-86592862D01*
X73772540Y-86612567D01*
X73756064Y-86630746D01*
X72978246Y-87408564D01*
X72960067Y-87425040D01*
X72940362Y-87439654D01*
X72919318Y-87452267D01*
X72897140Y-87462757D01*
X72874040Y-87471022D01*
X72850242Y-87476983D01*
X72825973Y-87480583D01*
X72801469Y-87481787D01*
X72776965Y-87480583D01*
X72752696Y-87476983D01*
X72728898Y-87471022D01*
X72705798Y-87462757D01*
X72683620Y-87452267D01*
X72662576Y-87439654D01*
X72642871Y-87425040D01*
X72624692Y-87408564D01*
X71139768Y-85923640D01*
X71123292Y-85905461D01*
X71108678Y-85885756D01*
X71096065Y-85864712D01*
X71085575Y-85842534D01*
X71077310Y-85819434D01*
X71071349Y-85795636D01*
X71067749Y-85771367D01*
X71066545Y-85746863D01*
X71067749Y-85722359D01*
X71071349Y-85698090D01*
X71077310Y-85674292D01*
X71085575Y-85651192D01*
X71096065Y-85629014D01*
X71108678Y-85607970D01*
X71123292Y-85588265D01*
X71139768Y-85570086D01*
X71917586Y-84792268D01*
X71935765Y-84775792D01*
X71955470Y-84761178D01*
X71976514Y-84748565D01*
X71998692Y-84738075D01*
X72021792Y-84729810D01*
X72045590Y-84723849D01*
X72069859Y-84720249D01*
X72094363Y-84719045D01*
X72118867Y-84720249D01*
G37*
G36*
X74664451Y-87265833D02*
G01*
X74688720Y-87269433D01*
X74712518Y-87275394D01*
X74735618Y-87283659D01*
X74757796Y-87294149D01*
X74778840Y-87306762D01*
X74798545Y-87321376D01*
X74816724Y-87337852D01*
X76301648Y-88822776D01*
X76318124Y-88840955D01*
X76332738Y-88860660D01*
X76345351Y-88881704D01*
X76355841Y-88903882D01*
X76364106Y-88926982D01*
X76370067Y-88950780D01*
X76373667Y-88975049D01*
X76374871Y-88999553D01*
X76373667Y-89024057D01*
X76370067Y-89048326D01*
X76364106Y-89072124D01*
X76355841Y-89095224D01*
X76345351Y-89117402D01*
X76332738Y-89138446D01*
X76318124Y-89158151D01*
X76301648Y-89176330D01*
X75523830Y-89954148D01*
X75505651Y-89970624D01*
X75485946Y-89985238D01*
X75464902Y-89997851D01*
X75442724Y-90008341D01*
X75419624Y-90016606D01*
X75395826Y-90022567D01*
X75371557Y-90026167D01*
X75347053Y-90027371D01*
X75322549Y-90026167D01*
X75298280Y-90022567D01*
X75274482Y-90016606D01*
X75251382Y-90008341D01*
X75229204Y-89997851D01*
X75208160Y-89985238D01*
X75188455Y-89970624D01*
X75170276Y-89954148D01*
X73685352Y-88469224D01*
X73668876Y-88451045D01*
X73654262Y-88431340D01*
X73641649Y-88410296D01*
X73631159Y-88388118D01*
X73622894Y-88365018D01*
X73616933Y-88341220D01*
X73613333Y-88316951D01*
X73612129Y-88292447D01*
X73613333Y-88267943D01*
X73616933Y-88243674D01*
X73622894Y-88219876D01*
X73631159Y-88196776D01*
X73641649Y-88174598D01*
X73654262Y-88153554D01*
X73668876Y-88133849D01*
X73685352Y-88115670D01*
X74463170Y-87337852D01*
X74481349Y-87321376D01*
X74501054Y-87306762D01*
X74522098Y-87294149D01*
X74544276Y-87283659D01*
X74567376Y-87275394D01*
X74591174Y-87269433D01*
X74615443Y-87265833D01*
X74639947Y-87264629D01*
X74664451Y-87265833D01*
G37*
G36*
X132750642Y-55330174D02*
G01*
X132774303Y-55333684D01*
X132797507Y-55339496D01*
X132820029Y-55347554D01*
X132841653Y-55357782D01*
X132862170Y-55370079D01*
X132881383Y-55384329D01*
X132899107Y-55400393D01*
X132915171Y-55418117D01*
X132929421Y-55437330D01*
X132941718Y-55457847D01*
X132951946Y-55479471D01*
X132960004Y-55501993D01*
X132965816Y-55525197D01*
X132969326Y-55548858D01*
X132970500Y-55572750D01*
X132970500Y-56060250D01*
X132969326Y-56084142D01*
X132965816Y-56107803D01*
X132960004Y-56131007D01*
X132951946Y-56153529D01*
X132941718Y-56175153D01*
X132929421Y-56195670D01*
X132915171Y-56214883D01*
X132899107Y-56232607D01*
X132881383Y-56248671D01*
X132862170Y-56262921D01*
X132841653Y-56275218D01*
X132820029Y-56285446D01*
X132797507Y-56293504D01*
X132774303Y-56299316D01*
X132750642Y-56302826D01*
X132726750Y-56304000D01*
X131814250Y-56304000D01*
X131790358Y-56302826D01*
X131766697Y-56299316D01*
X131743493Y-56293504D01*
X131720971Y-56285446D01*
X131699347Y-56275218D01*
X131678830Y-56262921D01*
X131659617Y-56248671D01*
X131641893Y-56232607D01*
X131625829Y-56214883D01*
X131611579Y-56195670D01*
X131599282Y-56175153D01*
X131589054Y-56153529D01*
X131580996Y-56131007D01*
X131575184Y-56107803D01*
X131571674Y-56084142D01*
X131570500Y-56060250D01*
X131570500Y-55572750D01*
X131571674Y-55548858D01*
X131575184Y-55525197D01*
X131580996Y-55501993D01*
X131589054Y-55479471D01*
X131599282Y-55457847D01*
X131611579Y-55437330D01*
X131625829Y-55418117D01*
X131641893Y-55400393D01*
X131659617Y-55384329D01*
X131678830Y-55370079D01*
X131699347Y-55357782D01*
X131720971Y-55347554D01*
X131743493Y-55339496D01*
X131766697Y-55333684D01*
X131790358Y-55330174D01*
X131814250Y-55329000D01*
X132726750Y-55329000D01*
X132750642Y-55330174D01*
G37*
G36*
X132750642Y-57205174D02*
G01*
X132774303Y-57208684D01*
X132797507Y-57214496D01*
X132820029Y-57222554D01*
X132841653Y-57232782D01*
X132862170Y-57245079D01*
X132881383Y-57259329D01*
X132899107Y-57275393D01*
X132915171Y-57293117D01*
X132929421Y-57312330D01*
X132941718Y-57332847D01*
X132951946Y-57354471D01*
X132960004Y-57376993D01*
X132965816Y-57400197D01*
X132969326Y-57423858D01*
X132970500Y-57447750D01*
X132970500Y-57935250D01*
X132969326Y-57959142D01*
X132965816Y-57982803D01*
X132960004Y-58006007D01*
X132951946Y-58028529D01*
X132941718Y-58050153D01*
X132929421Y-58070670D01*
X132915171Y-58089883D01*
X132899107Y-58107607D01*
X132881383Y-58123671D01*
X132862170Y-58137921D01*
X132841653Y-58150218D01*
X132820029Y-58160446D01*
X132797507Y-58168504D01*
X132774303Y-58174316D01*
X132750642Y-58177826D01*
X132726750Y-58179000D01*
X131814250Y-58179000D01*
X131790358Y-58177826D01*
X131766697Y-58174316D01*
X131743493Y-58168504D01*
X131720971Y-58160446D01*
X131699347Y-58150218D01*
X131678830Y-58137921D01*
X131659617Y-58123671D01*
X131641893Y-58107607D01*
X131625829Y-58089883D01*
X131611579Y-58070670D01*
X131599282Y-58050153D01*
X131589054Y-58028529D01*
X131580996Y-58006007D01*
X131575184Y-57982803D01*
X131571674Y-57959142D01*
X131570500Y-57935250D01*
X131570500Y-57447750D01*
X131571674Y-57423858D01*
X131575184Y-57400197D01*
X131580996Y-57376993D01*
X131589054Y-57354471D01*
X131599282Y-57332847D01*
X131611579Y-57312330D01*
X131625829Y-57293117D01*
X131641893Y-57275393D01*
X131659617Y-57259329D01*
X131678830Y-57245079D01*
X131699347Y-57232782D01*
X131720971Y-57222554D01*
X131743493Y-57214496D01*
X131766697Y-57208684D01*
X131790358Y-57205174D01*
X131814250Y-57204000D01*
X132726750Y-57204000D01*
X132750642Y-57205174D01*
G37*
G36*
X133490642Y-58737174D02*
G01*
X133514303Y-58740684D01*
X133537507Y-58746496D01*
X133560029Y-58754554D01*
X133581653Y-58764782D01*
X133602170Y-58777079D01*
X133621383Y-58791329D01*
X133639107Y-58807393D01*
X133655171Y-58825117D01*
X133669421Y-58844330D01*
X133681718Y-58864847D01*
X133691946Y-58886471D01*
X133700004Y-58908993D01*
X133705816Y-58932197D01*
X133709326Y-58955858D01*
X133710500Y-58979750D01*
X133710500Y-59892250D01*
X133709326Y-59916142D01*
X133705816Y-59939803D01*
X133700004Y-59963007D01*
X133691946Y-59985529D01*
X133681718Y-60007153D01*
X133669421Y-60027670D01*
X133655171Y-60046883D01*
X133639107Y-60064607D01*
X133621383Y-60080671D01*
X133602170Y-60094921D01*
X133581653Y-60107218D01*
X133560029Y-60117446D01*
X133537507Y-60125504D01*
X133514303Y-60131316D01*
X133490642Y-60134826D01*
X133466750Y-60136000D01*
X132979250Y-60136000D01*
X132955358Y-60134826D01*
X132931697Y-60131316D01*
X132908493Y-60125504D01*
X132885971Y-60117446D01*
X132864347Y-60107218D01*
X132843830Y-60094921D01*
X132824617Y-60080671D01*
X132806893Y-60064607D01*
X132790829Y-60046883D01*
X132776579Y-60027670D01*
X132764282Y-60007153D01*
X132754054Y-59985529D01*
X132745996Y-59963007D01*
X132740184Y-59939803D01*
X132736674Y-59916142D01*
X132735500Y-59892250D01*
X132735500Y-58979750D01*
X132736674Y-58955858D01*
X132740184Y-58932197D01*
X132745996Y-58908993D01*
X132754054Y-58886471D01*
X132764282Y-58864847D01*
X132776579Y-58844330D01*
X132790829Y-58825117D01*
X132806893Y-58807393D01*
X132824617Y-58791329D01*
X132843830Y-58777079D01*
X132864347Y-58764782D01*
X132885971Y-58754554D01*
X132908493Y-58746496D01*
X132931697Y-58740684D01*
X132955358Y-58737174D01*
X132979250Y-58736000D01*
X133466750Y-58736000D01*
X133490642Y-58737174D01*
G37*
G36*
X135365642Y-58737174D02*
G01*
X135389303Y-58740684D01*
X135412507Y-58746496D01*
X135435029Y-58754554D01*
X135456653Y-58764782D01*
X135477170Y-58777079D01*
X135496383Y-58791329D01*
X135514107Y-58807393D01*
X135530171Y-58825117D01*
X135544421Y-58844330D01*
X135556718Y-58864847D01*
X135566946Y-58886471D01*
X135575004Y-58908993D01*
X135580816Y-58932197D01*
X135584326Y-58955858D01*
X135585500Y-58979750D01*
X135585500Y-59892250D01*
X135584326Y-59916142D01*
X135580816Y-59939803D01*
X135575004Y-59963007D01*
X135566946Y-59985529D01*
X135556718Y-60007153D01*
X135544421Y-60027670D01*
X135530171Y-60046883D01*
X135514107Y-60064607D01*
X135496383Y-60080671D01*
X135477170Y-60094921D01*
X135456653Y-60107218D01*
X135435029Y-60117446D01*
X135412507Y-60125504D01*
X135389303Y-60131316D01*
X135365642Y-60134826D01*
X135341750Y-60136000D01*
X134854250Y-60136000D01*
X134830358Y-60134826D01*
X134806697Y-60131316D01*
X134783493Y-60125504D01*
X134760971Y-60117446D01*
X134739347Y-60107218D01*
X134718830Y-60094921D01*
X134699617Y-60080671D01*
X134681893Y-60064607D01*
X134665829Y-60046883D01*
X134651579Y-60027670D01*
X134639282Y-60007153D01*
X134629054Y-59985529D01*
X134620996Y-59963007D01*
X134615184Y-59939803D01*
X134611674Y-59916142D01*
X134610500Y-59892250D01*
X134610500Y-58979750D01*
X134611674Y-58955858D01*
X134615184Y-58932197D01*
X134620996Y-58908993D01*
X134629054Y-58886471D01*
X134639282Y-58864847D01*
X134651579Y-58844330D01*
X134665829Y-58825117D01*
X134681893Y-58807393D01*
X134699617Y-58791329D01*
X134718830Y-58777079D01*
X134739347Y-58764782D01*
X134760971Y-58754554D01*
X134783493Y-58746496D01*
X134806697Y-58740684D01*
X134830358Y-58737174D01*
X134854250Y-58736000D01*
X135341750Y-58736000D01*
X135365642Y-58737174D01*
G37*
M02*
