G04 #@! TF.GenerationSoftware,KiCad,Pcbnew,(5.1.7)-1*
G04 #@! TF.CreationDate,2021-09-30T08:59:25-07:00*
G04 #@! TF.ProjectId,LCP_PowerControl,4c43505f-506f-4776-9572-436f6e74726f,rev?*
G04 #@! TF.SameCoordinates,Original*
G04 #@! TF.FileFunction,Soldermask,Top*
G04 #@! TF.FilePolarity,Negative*
%FSLAX46Y46*%
G04 Gerber Fmt 4.6, Leading zero omitted, Abs format (unit mm)*
G04 Created by KiCad (PCBNEW (5.1.7)-1) date 2021-09-30 08:59:25*
%MOMM*%
%LPD*%
G01*
G04 APERTURE LIST*
%ADD10R,1.100000X1.100000*%
%ADD11C,0.100000*%
%ADD12R,0.900000X0.400000*%
%ADD13R,1.000000X1.500000*%
%ADD14C,1.500000*%
%ADD15C,1.000000*%
%ADD16O,2.400000X2.400000*%
%ADD17C,2.400000*%
%ADD18R,2.400000X2.400000*%
%ADD19R,9.000000X2.380000*%
%ADD20C,7.112000*%
%ADD21R,0.400000X2.400000*%
%ADD22R,1.000000X0.400000*%
%ADD23R,0.700000X0.250000*%
%ADD24R,0.300000X0.700000*%
%ADD25R,0.250000X0.700000*%
%ADD26R,0.650000X1.560000*%
%ADD27C,2.000000*%
%ADD28R,8.200000X2.600000*%
%ADD29C,2.010000*%
%ADD30R,1.000000X1.000000*%
G04 APERTURE END LIST*
D10*
X146434000Y-135128000D03*
X143634000Y-135128000D03*
D11*
G36*
X96391100Y-58826798D02*
G01*
X95782338Y-58033444D01*
X97964060Y-56359350D01*
X98572822Y-57152704D01*
X96391100Y-58826798D01*
G37*
G36*
X91821385Y-62333264D02*
G01*
X91212623Y-61539910D01*
X93394345Y-59865816D01*
X94003107Y-60659170D01*
X91821385Y-62333264D01*
G37*
G36*
X89386340Y-59159850D02*
G01*
X88777578Y-58366496D01*
X90959300Y-56692402D01*
X91568062Y-57485756D01*
X89386340Y-59159850D01*
G37*
G36*
X93956055Y-55653384D02*
G01*
X93347293Y-54860030D01*
X95529015Y-53185936D01*
X96137777Y-53979290D01*
X93956055Y-55653384D01*
G37*
G36*
G01*
X130042499Y-133940500D02*
X130942501Y-133940500D01*
G75*
G02*
X131192500Y-134190499I0J-249999D01*
G01*
X131192500Y-134715501D01*
G75*
G02*
X130942501Y-134965500I-249999J0D01*
G01*
X130042499Y-134965500D01*
G75*
G02*
X129792500Y-134715501I0J249999D01*
G01*
X129792500Y-134190499D01*
G75*
G02*
X130042499Y-133940500I249999J0D01*
G01*
G37*
G36*
G01*
X130042499Y-132115500D02*
X130942501Y-132115500D01*
G75*
G02*
X131192500Y-132365499I0J-249999D01*
G01*
X131192500Y-132890501D01*
G75*
G02*
X130942501Y-133140500I-249999J0D01*
G01*
X130042499Y-133140500D01*
G75*
G02*
X129792500Y-132890501I0J249999D01*
G01*
X129792500Y-132365499D01*
G75*
G02*
X130042499Y-132115500I249999J0D01*
G01*
G37*
G36*
G01*
X116593199Y-134258000D02*
X117493201Y-134258000D01*
G75*
G02*
X117743200Y-134507999I0J-249999D01*
G01*
X117743200Y-135033001D01*
G75*
G02*
X117493201Y-135283000I-249999J0D01*
G01*
X116593199Y-135283000D01*
G75*
G02*
X116343200Y-135033001I0J249999D01*
G01*
X116343200Y-134507999D01*
G75*
G02*
X116593199Y-134258000I249999J0D01*
G01*
G37*
G36*
G01*
X116593199Y-132433000D02*
X117493201Y-132433000D01*
G75*
G02*
X117743200Y-132682999I0J-249999D01*
G01*
X117743200Y-133208001D01*
G75*
G02*
X117493201Y-133458000I-249999J0D01*
G01*
X116593199Y-133458000D01*
G75*
G02*
X116343200Y-133208001I0J249999D01*
G01*
X116343200Y-132682999D01*
G75*
G02*
X116593199Y-132433000I249999J0D01*
G01*
G37*
G36*
G01*
X113450001Y-59100000D02*
X112549999Y-59100000D01*
G75*
G02*
X112300000Y-58850001I0J249999D01*
G01*
X112300000Y-58324999D01*
G75*
G02*
X112549999Y-58075000I249999J0D01*
G01*
X113450001Y-58075000D01*
G75*
G02*
X113700000Y-58324999I0J-249999D01*
G01*
X113700000Y-58850001D01*
G75*
G02*
X113450001Y-59100000I-249999J0D01*
G01*
G37*
G36*
G01*
X113450001Y-60925000D02*
X112549999Y-60925000D01*
G75*
G02*
X112300000Y-60675001I0J249999D01*
G01*
X112300000Y-60149999D01*
G75*
G02*
X112549999Y-59900000I249999J0D01*
G01*
X113450001Y-59900000D01*
G75*
G02*
X113700000Y-60149999I0J-249999D01*
G01*
X113700000Y-60675001D01*
G75*
G02*
X113450001Y-60925000I-249999J0D01*
G01*
G37*
G36*
G01*
X110049999Y-59900000D02*
X110950001Y-59900000D01*
G75*
G02*
X111200000Y-60149999I0J-249999D01*
G01*
X111200000Y-60675001D01*
G75*
G02*
X110950001Y-60925000I-249999J0D01*
G01*
X110049999Y-60925000D01*
G75*
G02*
X109800000Y-60675001I0J249999D01*
G01*
X109800000Y-60149999D01*
G75*
G02*
X110049999Y-59900000I249999J0D01*
G01*
G37*
G36*
G01*
X110049999Y-58075000D02*
X110950001Y-58075000D01*
G75*
G02*
X111200000Y-58324999I0J-249999D01*
G01*
X111200000Y-58850001D01*
G75*
G02*
X110950001Y-59100000I-249999J0D01*
G01*
X110049999Y-59100000D01*
G75*
G02*
X109800000Y-58850001I0J249999D01*
G01*
X109800000Y-58324999D01*
G75*
G02*
X110049999Y-58075000I249999J0D01*
G01*
G37*
D12*
X104150000Y-58900000D03*
X104150000Y-58100000D03*
X105850000Y-58100000D03*
X105850000Y-58900000D03*
G36*
G01*
X98535356Y-60898957D02*
X97898957Y-61535356D01*
G75*
G02*
X97545407Y-61535356I-176775J176775D01*
G01*
X97174174Y-61164123D01*
G75*
G02*
X97174174Y-60810573I176775J176775D01*
G01*
X97810573Y-60174174D01*
G75*
G02*
X98164123Y-60174174I176775J-176775D01*
G01*
X98535356Y-60545407D01*
G75*
G02*
X98535356Y-60898957I-176775J-176775D01*
G01*
G37*
G36*
G01*
X99825826Y-62189427D02*
X99189427Y-62825826D01*
G75*
G02*
X98835877Y-62825826I-176775J176775D01*
G01*
X98464644Y-62454593D01*
G75*
G02*
X98464644Y-62101043I176775J176775D01*
G01*
X99101043Y-61464644D01*
G75*
G02*
X99454593Y-61464644I176775J-176775D01*
G01*
X99825826Y-61835877D01*
G75*
G02*
X99825826Y-62189427I-176775J-176775D01*
G01*
G37*
D11*
G36*
X101671752Y-58893934D02*
G01*
X101106066Y-58328248D01*
X101742462Y-57691852D01*
X102308148Y-58257538D01*
X101671752Y-58893934D01*
G37*
G36*
X100929290Y-60979899D02*
G01*
X100363604Y-60414213D01*
X101000000Y-59777817D01*
X101565686Y-60343503D01*
X100929290Y-60979899D01*
G37*
G36*
X99585787Y-59636396D02*
G01*
X99020101Y-59070710D01*
X99656497Y-58434314D01*
X100222183Y-59000000D01*
X99585787Y-59636396D01*
G37*
D13*
X116500000Y-65000000D03*
D11*
G36*
X117800000Y-64250602D02*
G01*
X117824534Y-64250602D01*
X117873365Y-64255412D01*
X117921490Y-64264984D01*
X117968445Y-64279228D01*
X118013778Y-64298005D01*
X118057051Y-64321136D01*
X118097850Y-64348396D01*
X118135779Y-64379524D01*
X118170476Y-64414221D01*
X118201604Y-64452150D01*
X118228864Y-64492949D01*
X118251995Y-64536222D01*
X118270772Y-64581555D01*
X118285016Y-64628510D01*
X118294588Y-64676635D01*
X118299398Y-64725466D01*
X118299398Y-64750000D01*
X118300000Y-64750000D01*
X118300000Y-65250000D01*
X118299398Y-65250000D01*
X118299398Y-65274534D01*
X118294588Y-65323365D01*
X118285016Y-65371490D01*
X118270772Y-65418445D01*
X118251995Y-65463778D01*
X118228864Y-65507051D01*
X118201604Y-65547850D01*
X118170476Y-65585779D01*
X118135779Y-65620476D01*
X118097850Y-65651604D01*
X118057051Y-65678864D01*
X118013778Y-65701995D01*
X117968445Y-65720772D01*
X117921490Y-65735016D01*
X117873365Y-65744588D01*
X117824534Y-65749398D01*
X117800000Y-65749398D01*
X117800000Y-65750000D01*
X117250000Y-65750000D01*
X117250000Y-64250000D01*
X117800000Y-64250000D01*
X117800000Y-64250602D01*
G37*
G36*
X115750000Y-65750000D02*
G01*
X115200000Y-65750000D01*
X115200000Y-65749398D01*
X115175466Y-65749398D01*
X115126635Y-65744588D01*
X115078510Y-65735016D01*
X115031555Y-65720772D01*
X114986222Y-65701995D01*
X114942949Y-65678864D01*
X114902150Y-65651604D01*
X114864221Y-65620476D01*
X114829524Y-65585779D01*
X114798396Y-65547850D01*
X114771136Y-65507051D01*
X114748005Y-65463778D01*
X114729228Y-65418445D01*
X114714984Y-65371490D01*
X114705412Y-65323365D01*
X114700602Y-65274534D01*
X114700602Y-65250000D01*
X114700000Y-65250000D01*
X114700000Y-64750000D01*
X114700602Y-64750000D01*
X114700602Y-64725466D01*
X114705412Y-64676635D01*
X114714984Y-64628510D01*
X114729228Y-64581555D01*
X114748005Y-64536222D01*
X114771136Y-64492949D01*
X114798396Y-64452150D01*
X114829524Y-64414221D01*
X114864221Y-64379524D01*
X114902150Y-64348396D01*
X114942949Y-64321136D01*
X114986222Y-64298005D01*
X115031555Y-64279228D01*
X115078510Y-64264984D01*
X115126635Y-64255412D01*
X115175466Y-64250602D01*
X115200000Y-64250602D01*
X115200000Y-64250000D01*
X115750000Y-64250000D01*
X115750000Y-65750000D01*
G37*
D13*
X116500000Y-69500000D03*
D11*
G36*
X117800000Y-68750602D02*
G01*
X117824534Y-68750602D01*
X117873365Y-68755412D01*
X117921490Y-68764984D01*
X117968445Y-68779228D01*
X118013778Y-68798005D01*
X118057051Y-68821136D01*
X118097850Y-68848396D01*
X118135779Y-68879524D01*
X118170476Y-68914221D01*
X118201604Y-68952150D01*
X118228864Y-68992949D01*
X118251995Y-69036222D01*
X118270772Y-69081555D01*
X118285016Y-69128510D01*
X118294588Y-69176635D01*
X118299398Y-69225466D01*
X118299398Y-69250000D01*
X118300000Y-69250000D01*
X118300000Y-69750000D01*
X118299398Y-69750000D01*
X118299398Y-69774534D01*
X118294588Y-69823365D01*
X118285016Y-69871490D01*
X118270772Y-69918445D01*
X118251995Y-69963778D01*
X118228864Y-70007051D01*
X118201604Y-70047850D01*
X118170476Y-70085779D01*
X118135779Y-70120476D01*
X118097850Y-70151604D01*
X118057051Y-70178864D01*
X118013778Y-70201995D01*
X117968445Y-70220772D01*
X117921490Y-70235016D01*
X117873365Y-70244588D01*
X117824534Y-70249398D01*
X117800000Y-70249398D01*
X117800000Y-70250000D01*
X117250000Y-70250000D01*
X117250000Y-68750000D01*
X117800000Y-68750000D01*
X117800000Y-68750602D01*
G37*
G36*
X115750000Y-70250000D02*
G01*
X115200000Y-70250000D01*
X115200000Y-70249398D01*
X115175466Y-70249398D01*
X115126635Y-70244588D01*
X115078510Y-70235016D01*
X115031555Y-70220772D01*
X114986222Y-70201995D01*
X114942949Y-70178864D01*
X114902150Y-70151604D01*
X114864221Y-70120476D01*
X114829524Y-70085779D01*
X114798396Y-70047850D01*
X114771136Y-70007051D01*
X114748005Y-69963778D01*
X114729228Y-69918445D01*
X114714984Y-69871490D01*
X114705412Y-69823365D01*
X114700602Y-69774534D01*
X114700602Y-69750000D01*
X114700000Y-69750000D01*
X114700000Y-69250000D01*
X114700602Y-69250000D01*
X114700602Y-69225466D01*
X114705412Y-69176635D01*
X114714984Y-69128510D01*
X114729228Y-69081555D01*
X114748005Y-69036222D01*
X114771136Y-68992949D01*
X114798396Y-68952150D01*
X114829524Y-68914221D01*
X114864221Y-68879524D01*
X114902150Y-68848396D01*
X114942949Y-68821136D01*
X114986222Y-68798005D01*
X115031555Y-68779228D01*
X115078510Y-68764984D01*
X115126635Y-68755412D01*
X115175466Y-68750602D01*
X115200000Y-68750602D01*
X115200000Y-68750000D01*
X115750000Y-68750000D01*
X115750000Y-70250000D01*
G37*
G36*
G01*
X91935154Y-126521964D02*
X91935154Y-126521964D01*
G75*
G02*
X93137236Y-126521964I601041J-601041D01*
G01*
X93137236Y-126521964D01*
G75*
G02*
X93137236Y-127724046I-601041J-601041D01*
G01*
X93137236Y-127724046D01*
G75*
G02*
X91935154Y-127724046I-601041J601041D01*
G01*
X91935154Y-127724046D01*
G75*
G02*
X91935154Y-126521964I601041J601041D01*
G01*
G37*
G36*
G01*
X93731205Y-124725913D02*
X93731205Y-124725913D01*
G75*
G02*
X94933287Y-124725913I601041J-601041D01*
G01*
X94933287Y-124725913D01*
G75*
G02*
X94933287Y-125927995I-601041J-601041D01*
G01*
X94933287Y-125927995D01*
G75*
G02*
X93731205Y-125927995I-601041J601041D01*
G01*
X93731205Y-125927995D01*
G75*
G02*
X93731205Y-124725913I601041J601041D01*
G01*
G37*
G36*
G01*
X95527257Y-122929861D02*
X95527257Y-122929861D01*
G75*
G02*
X96729339Y-122929861I601041J-601041D01*
G01*
X96729339Y-122929861D01*
G75*
G02*
X96729339Y-124131943I-601041J-601041D01*
G01*
X96729339Y-124131943D01*
G75*
G02*
X95527257Y-124131943I-601041J601041D01*
G01*
X95527257Y-124131943D01*
G75*
G02*
X95527257Y-122929861I601041J601041D01*
G01*
G37*
G36*
G01*
X97323308Y-121133810D02*
X97323308Y-121133810D01*
G75*
G02*
X98525390Y-121133810I601041J-601041D01*
G01*
X98525390Y-121133810D01*
G75*
G02*
X98525390Y-122335892I-601041J-601041D01*
G01*
X98525390Y-122335892D01*
G75*
G02*
X97323308Y-122335892I-601041J601041D01*
G01*
X97323308Y-122335892D01*
G75*
G02*
X97323308Y-121133810I601041J601041D01*
G01*
G37*
G36*
X98518318Y-119938800D02*
G01*
X99720400Y-118736718D01*
X100922482Y-119938800D01*
X99720400Y-121140882D01*
X98518318Y-119938800D01*
G37*
D14*
X122430800Y-51768000D03*
X119430800Y-51768000D03*
X122430800Y-48768000D03*
G36*
G01*
X118680800Y-49268000D02*
X118680800Y-48268000D01*
G75*
G02*
X118930800Y-48018000I250000J0D01*
G01*
X119930800Y-48018000D01*
G75*
G02*
X120180800Y-48268000I0J-250000D01*
G01*
X120180800Y-49268000D01*
G75*
G02*
X119930800Y-49518000I-250000J0D01*
G01*
X118930800Y-49518000D01*
G75*
G02*
X118680800Y-49268000I0J250000D01*
G01*
G37*
D15*
X125430800Y-52708000D03*
X116430800Y-52708000D03*
G36*
G01*
X75210121Y-79933702D02*
X75210121Y-79933702D01*
G75*
G02*
X75874584Y-79691857I453154J-211309D01*
G01*
X75874584Y-79691857D01*
G75*
G02*
X76116429Y-80356320I-211309J-453154D01*
G01*
X76116429Y-80356320D01*
G75*
G02*
X75451966Y-80598165I-453154J211309D01*
G01*
X75451966Y-80598165D01*
G75*
G02*
X75210121Y-79933702I211309J453154D01*
G01*
G37*
G36*
G01*
X74059110Y-79396977D02*
X74059110Y-79396977D01*
G75*
G02*
X74723573Y-79155132I453154J-211309D01*
G01*
X74723573Y-79155132D01*
G75*
G02*
X74965418Y-79819595I-211309J-453154D01*
G01*
X74965418Y-79819595D01*
G75*
G02*
X74300955Y-80061440I-453154J211309D01*
G01*
X74300955Y-80061440D01*
G75*
G02*
X74059110Y-79396977I211309J453154D01*
G01*
G37*
G36*
G01*
X75746846Y-78782691D02*
X75746846Y-78782691D01*
G75*
G02*
X76411309Y-78540846I453154J-211309D01*
G01*
X76411309Y-78540846D01*
G75*
G02*
X76653154Y-79205309I-211309J-453154D01*
G01*
X76653154Y-79205309D01*
G75*
G02*
X75988691Y-79447154I-453154J211309D01*
G01*
X75988691Y-79447154D01*
G75*
G02*
X75746846Y-78782691I211309J453154D01*
G01*
G37*
G36*
G01*
X74595835Y-78245966D02*
X74595835Y-78245966D01*
G75*
G02*
X75260298Y-78004121I453154J-211309D01*
G01*
X75260298Y-78004121D01*
G75*
G02*
X75502143Y-78668584I-211309J-453154D01*
G01*
X75502143Y-78668584D01*
G75*
G02*
X74837680Y-78910429I-453154J211309D01*
G01*
X74837680Y-78910429D01*
G75*
G02*
X74595835Y-78245966I211309J453154D01*
G01*
G37*
G36*
G01*
X76283572Y-77631680D02*
X76283572Y-77631680D01*
G75*
G02*
X76948035Y-77389835I453154J-211309D01*
G01*
X76948035Y-77389835D01*
G75*
G02*
X77189880Y-78054298I-211309J-453154D01*
G01*
X77189880Y-78054298D01*
G75*
G02*
X76525417Y-78296143I-453154J211309D01*
G01*
X76525417Y-78296143D01*
G75*
G02*
X76283572Y-77631680I211309J453154D01*
G01*
G37*
G36*
G01*
X75132561Y-77094955D02*
X75132561Y-77094955D01*
G75*
G02*
X75797024Y-76853110I453154J-211309D01*
G01*
X75797024Y-76853110D01*
G75*
G02*
X76038869Y-77517573I-211309J-453154D01*
G01*
X76038869Y-77517573D01*
G75*
G02*
X75374406Y-77759418I-453154J211309D01*
G01*
X75374406Y-77759418D01*
G75*
G02*
X75132561Y-77094955I211309J453154D01*
G01*
G37*
G36*
G01*
X76820297Y-76480669D02*
X76820297Y-76480669D01*
G75*
G02*
X77484760Y-76238824I453154J-211309D01*
G01*
X77484760Y-76238824D01*
G75*
G02*
X77726605Y-76903287I-211309J-453154D01*
G01*
X77726605Y-76903287D01*
G75*
G02*
X77062142Y-77145132I-453154J211309D01*
G01*
X77062142Y-77145132D01*
G75*
G02*
X76820297Y-76480669I211309J453154D01*
G01*
G37*
G36*
G01*
X75669286Y-75943944D02*
X75669286Y-75943944D01*
G75*
G02*
X76333749Y-75702099I453154J-211309D01*
G01*
X76333749Y-75702099D01*
G75*
G02*
X76575594Y-76366562I-211309J-453154D01*
G01*
X76575594Y-76366562D01*
G75*
G02*
X75911131Y-76608407I-453154J211309D01*
G01*
X75911131Y-76608407D01*
G75*
G02*
X75669286Y-75943944I211309J453154D01*
G01*
G37*
G36*
G01*
X77357022Y-75329658D02*
X77357022Y-75329658D01*
G75*
G02*
X78021485Y-75087813I453154J-211309D01*
G01*
X78021485Y-75087813D01*
G75*
G02*
X78263330Y-75752276I-211309J-453154D01*
G01*
X78263330Y-75752276D01*
G75*
G02*
X77598867Y-75994121I-453154J211309D01*
G01*
X77598867Y-75994121D01*
G75*
G02*
X77357022Y-75329658I211309J453154D01*
G01*
G37*
D11*
G36*
X75994702Y-75246087D02*
G01*
X76417320Y-74339779D01*
X77323628Y-74762397D01*
X76901010Y-75668705D01*
X75994702Y-75246087D01*
G37*
G36*
G01*
X144748784Y-53437181D02*
X145394019Y-54082416D01*
G75*
G02*
X145394019Y-54427130I-172357J-172357D01*
G01*
X145049304Y-54771845D01*
G75*
G02*
X144704590Y-54771845I-172357J172357D01*
G01*
X144059355Y-54126610D01*
G75*
G02*
X144059355Y-53781896I172357J172357D01*
G01*
X144404070Y-53437181D01*
G75*
G02*
X144748784Y-53437181I172357J-172357D01*
G01*
G37*
G36*
G01*
X146074610Y-52111355D02*
X146719845Y-52756590D01*
G75*
G02*
X146719845Y-53101304I-172357J-172357D01*
G01*
X146375130Y-53446019D01*
G75*
G02*
X146030416Y-53446019I-172357J172357D01*
G01*
X145385181Y-52800784D01*
G75*
G02*
X145385181Y-52456070I172357J172357D01*
G01*
X145729896Y-52111355D01*
G75*
G02*
X146074610Y-52111355I172357J-172357D01*
G01*
G37*
G36*
G01*
X89363573Y-88320824D02*
X90035324Y-87649073D01*
G75*
G02*
X90388878Y-87649073I176777J-176777D01*
G01*
X90742431Y-88002626D01*
G75*
G02*
X90742431Y-88356180I-176777J-176777D01*
G01*
X90070680Y-89027931D01*
G75*
G02*
X89717126Y-89027931I-176777J176777D01*
G01*
X89363573Y-88674378D01*
G75*
G02*
X89363573Y-88320824I176777J176777D01*
G01*
G37*
G36*
G01*
X88020071Y-86977322D02*
X88691822Y-86305571D01*
G75*
G02*
X89045376Y-86305571I176777J-176777D01*
G01*
X89398929Y-86659124D01*
G75*
G02*
X89398929Y-87012678I-176777J-176777D01*
G01*
X88727178Y-87684429D01*
G75*
G02*
X88373624Y-87684429I-176777J176777D01*
G01*
X88020071Y-87330876D01*
G75*
G02*
X88020071Y-86977322I176777J176777D01*
G01*
G37*
G36*
G01*
X93172178Y-70529427D02*
X92500427Y-71201178D01*
G75*
G02*
X92146873Y-71201178I-176777J176777D01*
G01*
X91793320Y-70847625D01*
G75*
G02*
X91793320Y-70494071I176777J176777D01*
G01*
X92465071Y-69822320D01*
G75*
G02*
X92818625Y-69822320I176777J-176777D01*
G01*
X93172178Y-70175873D01*
G75*
G02*
X93172178Y-70529427I-176777J-176777D01*
G01*
G37*
G36*
G01*
X94515680Y-71872929D02*
X93843929Y-72544680D01*
G75*
G02*
X93490375Y-72544680I-176777J176777D01*
G01*
X93136822Y-72191127D01*
G75*
G02*
X93136822Y-71837573I176777J176777D01*
G01*
X93808573Y-71165822D01*
G75*
G02*
X94162127Y-71165822I176777J-176777D01*
G01*
X94515680Y-71519375D01*
G75*
G02*
X94515680Y-71872929I-176777J-176777D01*
G01*
G37*
D16*
X89217500Y-120078500D03*
D17*
X89217500Y-64198500D03*
G36*
G01*
X75506708Y-86378708D02*
X75506708Y-87478708D01*
G75*
G02*
X75256708Y-87728708I-250000J0D01*
G01*
X73156708Y-87728708D01*
G75*
G02*
X72906708Y-87478708I0J250000D01*
G01*
X72906708Y-86378708D01*
G75*
G02*
X73156708Y-86128708I250000J0D01*
G01*
X75256708Y-86128708D01*
G75*
G02*
X75506708Y-86378708I0J-250000D01*
G01*
G37*
G36*
G01*
X79106708Y-86378708D02*
X79106708Y-87478708D01*
G75*
G02*
X78856708Y-87728708I-250000J0D01*
G01*
X76756708Y-87728708D01*
G75*
G02*
X76506708Y-87478708I0J250000D01*
G01*
X76506708Y-86378708D01*
G75*
G02*
X76756708Y-86128708I250000J0D01*
G01*
X78856708Y-86128708D01*
G75*
G02*
X79106708Y-86378708I0J-250000D01*
G01*
G37*
G36*
G01*
X83093356Y-72677957D02*
X82456957Y-73314356D01*
G75*
G02*
X82103407Y-73314356I-176775J176775D01*
G01*
X81732174Y-72943123D01*
G75*
G02*
X81732174Y-72589573I176775J176775D01*
G01*
X82368573Y-71953174D01*
G75*
G02*
X82722123Y-71953174I176775J-176775D01*
G01*
X83093356Y-72324407D01*
G75*
G02*
X83093356Y-72677957I-176775J-176775D01*
G01*
G37*
G36*
G01*
X84383826Y-73968427D02*
X83747427Y-74604826D01*
G75*
G02*
X83393877Y-74604826I-176775J176775D01*
G01*
X83022644Y-74233593D01*
G75*
G02*
X83022644Y-73880043I176775J176775D01*
G01*
X83659043Y-73243644D01*
G75*
G02*
X84012593Y-73243644I176775J-176775D01*
G01*
X84383826Y-73614877D01*
G75*
G02*
X84383826Y-73968427I-176775J-176775D01*
G01*
G37*
D18*
X131347200Y-53848000D03*
D17*
X136347200Y-53848000D03*
G36*
G01*
X99230387Y-52109717D02*
X99230387Y-52109717D01*
G75*
G02*
X100319843Y-52617739I290717J-798739D01*
G01*
X100319843Y-52617739D01*
G75*
G02*
X99811821Y-53707195I-798739J-290717D01*
G01*
X99811821Y-53707195D01*
G75*
G02*
X98722365Y-53199173I-290717J798739D01*
G01*
X98722365Y-53199173D01*
G75*
G02*
X99230387Y-52109717I798739J290717D01*
G01*
G37*
G36*
G01*
X101617206Y-51240986D02*
X101617206Y-51240986D01*
G75*
G02*
X102706662Y-51749008I290717J-798739D01*
G01*
X102706662Y-51749008D01*
G75*
G02*
X102198640Y-52838464I-798739J-290717D01*
G01*
X102198640Y-52838464D01*
G75*
G02*
X101109184Y-52330442I-290717J798739D01*
G01*
X101109184Y-52330442D01*
G75*
G02*
X101617206Y-51240986I798739J290717D01*
G01*
G37*
G36*
G01*
X104004025Y-50372254D02*
X104004025Y-50372254D01*
G75*
G02*
X105093481Y-50880276I290717J-798739D01*
G01*
X105093481Y-50880276D01*
G75*
G02*
X104585459Y-51969732I-798739J-290717D01*
G01*
X104585459Y-51969732D01*
G75*
G02*
X103496003Y-51461710I-290717J798739D01*
G01*
X103496003Y-51461710D01*
G75*
G02*
X104004025Y-50372254I798739J290717D01*
G01*
G37*
G36*
G01*
X106390844Y-49503523D02*
X106390844Y-49503523D01*
G75*
G02*
X107480300Y-50011545I290717J-798739D01*
G01*
X107480300Y-50011545D01*
G75*
G02*
X106972278Y-51101001I-798739J-290717D01*
G01*
X106972278Y-51101001D01*
G75*
G02*
X105882822Y-50592979I-290717J798739D01*
G01*
X105882822Y-50592979D01*
G75*
G02*
X106390844Y-49503523I798739J290717D01*
G01*
G37*
G36*
G01*
X108777664Y-48634792D02*
X108777664Y-48634792D01*
G75*
G02*
X109867120Y-49142814I290717J-798739D01*
G01*
X109867120Y-49142814D01*
G75*
G02*
X109359098Y-50232270I-798739J-290717D01*
G01*
X109359098Y-50232270D01*
G75*
G02*
X108269642Y-49724248I-290717J798739D01*
G01*
X108269642Y-49724248D01*
G75*
G02*
X108777664Y-48634792I798739J290717D01*
G01*
G37*
D11*
G36*
X110365744Y-48056778D02*
G01*
X111963222Y-47475344D01*
X112544656Y-49072822D01*
X110947178Y-49654256D01*
X110365744Y-48056778D01*
G37*
D14*
X153162000Y-65389500D03*
G36*
G01*
X153912000Y-67889500D02*
X153912000Y-68889500D01*
G75*
G02*
X153662000Y-69139500I-250000J0D01*
G01*
X152662000Y-69139500D01*
G75*
G02*
X152412000Y-68889500I0J250000D01*
G01*
X152412000Y-67889500D01*
G75*
G02*
X152662000Y-67639500I250000J0D01*
G01*
X153662000Y-67639500D01*
G75*
G02*
X153912000Y-67889500I0J-250000D01*
G01*
G37*
D15*
X150162000Y-64449500D03*
X156162000Y-64449500D03*
G36*
G01*
X90972006Y-78579271D02*
X90326771Y-79224506D01*
G75*
G02*
X89982057Y-79224506I-172357J172357D01*
G01*
X89637342Y-78879791D01*
G75*
G02*
X89637342Y-78535077I172357J172357D01*
G01*
X90282577Y-77889842D01*
G75*
G02*
X90627291Y-77889842I172357J-172357D01*
G01*
X90972006Y-78234557D01*
G75*
G02*
X90972006Y-78579271I-172357J-172357D01*
G01*
G37*
G36*
G01*
X92297832Y-79905097D02*
X91652597Y-80550332D01*
G75*
G02*
X91307883Y-80550332I-172357J172357D01*
G01*
X90963168Y-80205617D01*
G75*
G02*
X90963168Y-79860903I172357J172357D01*
G01*
X91608403Y-79215668D01*
G75*
G02*
X91953117Y-79215668I172357J-172357D01*
G01*
X92297832Y-79560383D01*
G75*
G02*
X92297832Y-79905097I-172357J-172357D01*
G01*
G37*
G36*
G01*
X146301750Y-140964500D02*
X146814250Y-140964500D01*
G75*
G02*
X147033000Y-141183250I0J-218750D01*
G01*
X147033000Y-141620750D01*
G75*
G02*
X146814250Y-141839500I-218750J0D01*
G01*
X146301750Y-141839500D01*
G75*
G02*
X146083000Y-141620750I0J218750D01*
G01*
X146083000Y-141183250D01*
G75*
G02*
X146301750Y-140964500I218750J0D01*
G01*
G37*
G36*
G01*
X146301750Y-139389500D02*
X146814250Y-139389500D01*
G75*
G02*
X147033000Y-139608250I0J-218750D01*
G01*
X147033000Y-140045750D01*
G75*
G02*
X146814250Y-140264500I-218750J0D01*
G01*
X146301750Y-140264500D01*
G75*
G02*
X146083000Y-140045750I0J218750D01*
G01*
X146083000Y-139608250D01*
G75*
G02*
X146301750Y-139389500I218750J0D01*
G01*
G37*
D19*
X123723400Y-132717400D03*
X123723400Y-139367400D03*
D20*
X139572999Y-129071874D03*
X139572999Y-68580000D03*
X104648000Y-68580000D03*
X104648000Y-129071874D03*
D21*
X123723400Y-143170400D03*
D11*
G36*
X121768496Y-142369425D02*
G01*
X121768781Y-142368487D01*
X121769243Y-142367622D01*
X121769864Y-142366864D01*
X121770622Y-142366243D01*
X121771487Y-142365781D01*
X121772425Y-142365496D01*
X121773400Y-142365400D01*
X122368400Y-142365400D01*
X122368400Y-141970400D01*
X122368496Y-141969425D01*
X122368781Y-141968487D01*
X122369243Y-141967622D01*
X122369864Y-141966864D01*
X122370622Y-141966243D01*
X122371487Y-141965781D01*
X122372425Y-141965496D01*
X122373400Y-141965400D01*
X122773400Y-141965400D01*
X122774375Y-141965496D01*
X122775313Y-141965781D01*
X122776178Y-141966243D01*
X122776936Y-141966864D01*
X122777557Y-141967622D01*
X122778019Y-141968487D01*
X122778304Y-141969425D01*
X122778400Y-141970400D01*
X122778400Y-142770400D01*
X122778304Y-142771375D01*
X122778019Y-142772313D01*
X122777557Y-142773178D01*
X122776936Y-142773936D01*
X122776178Y-142774557D01*
X122775313Y-142775019D01*
X122774375Y-142775304D01*
X122773400Y-142775400D01*
X121773400Y-142775400D01*
X121772425Y-142775304D01*
X121771487Y-142775019D01*
X121770622Y-142774557D01*
X121769864Y-142773936D01*
X121769243Y-142773178D01*
X121768781Y-142772313D01*
X121768496Y-142771375D01*
X121768400Y-142770400D01*
X121768400Y-142370400D01*
X121768496Y-142369425D01*
G37*
G36*
X125678304Y-142771375D02*
G01*
X125678019Y-142772313D01*
X125677557Y-142773178D01*
X125676936Y-142773936D01*
X125676178Y-142774557D01*
X125675313Y-142775019D01*
X125674375Y-142775304D01*
X125673400Y-142775400D01*
X124673400Y-142775400D01*
X124672425Y-142775304D01*
X124671487Y-142775019D01*
X124670622Y-142774557D01*
X124669864Y-142773936D01*
X124669243Y-142773178D01*
X124668781Y-142772313D01*
X124668496Y-142771375D01*
X124668400Y-142770400D01*
X124668400Y-141970400D01*
X124668496Y-141969425D01*
X124668781Y-141968487D01*
X124669243Y-141967622D01*
X124669864Y-141966864D01*
X124670622Y-141966243D01*
X124671487Y-141965781D01*
X124672425Y-141965496D01*
X124673400Y-141965400D01*
X125073400Y-141965400D01*
X125074375Y-141965496D01*
X125075313Y-141965781D01*
X125076178Y-141966243D01*
X125076936Y-141966864D01*
X125077557Y-141967622D01*
X125078019Y-141968487D01*
X125078304Y-141969425D01*
X125078400Y-141970400D01*
X125078400Y-142365400D01*
X125673400Y-142365400D01*
X125674375Y-142365496D01*
X125675313Y-142365781D01*
X125676178Y-142366243D01*
X125676936Y-142366864D01*
X125677557Y-142367622D01*
X125678019Y-142368487D01*
X125678304Y-142369425D01*
X125678400Y-142370400D01*
X125678400Y-142770400D01*
X125678304Y-142771375D01*
G37*
D22*
X122273400Y-143720400D03*
X125173400Y-143720400D03*
D23*
X122123400Y-145295400D03*
X122123400Y-144795400D03*
X125323400Y-144795400D03*
X125323400Y-145295400D03*
D24*
X123723400Y-146020400D03*
D11*
G36*
X121768496Y-145669425D02*
G01*
X121768781Y-145668487D01*
X121769243Y-145667622D01*
X121769864Y-145666864D01*
X121770622Y-145666243D01*
X121771487Y-145665781D01*
X121772425Y-145665496D01*
X121773400Y-145665400D01*
X122773400Y-145665400D01*
X122774375Y-145665496D01*
X122775313Y-145665781D01*
X122776178Y-145666243D01*
X122776936Y-145666864D01*
X122777557Y-145667622D01*
X122778019Y-145668487D01*
X122778304Y-145669425D01*
X122778400Y-145670400D01*
X122778400Y-146370400D01*
X122778304Y-146371375D01*
X122778019Y-146372313D01*
X122777557Y-146373178D01*
X122776936Y-146373936D01*
X122776178Y-146374557D01*
X122775313Y-146375019D01*
X122774375Y-146375304D01*
X122773400Y-146375400D01*
X122373400Y-146375400D01*
X122372425Y-146375304D01*
X122371487Y-146375019D01*
X122370622Y-146374557D01*
X122369864Y-146373936D01*
X122369243Y-146373178D01*
X122368781Y-146372313D01*
X122368496Y-146371375D01*
X122368400Y-146370400D01*
X122368400Y-146025400D01*
X121773400Y-146025400D01*
X121772425Y-146025304D01*
X121771487Y-146025019D01*
X121770622Y-146024557D01*
X121769864Y-146023936D01*
X121769243Y-146023178D01*
X121768781Y-146022313D01*
X121768496Y-146021375D01*
X121768400Y-146020400D01*
X121768400Y-145670400D01*
X121768496Y-145669425D01*
G37*
G36*
X125678304Y-146021375D02*
G01*
X125678019Y-146022313D01*
X125677557Y-146023178D01*
X125676936Y-146023936D01*
X125676178Y-146024557D01*
X125675313Y-146025019D01*
X125674375Y-146025304D01*
X125673400Y-146025400D01*
X125078400Y-146025400D01*
X125078400Y-146370400D01*
X125078304Y-146371375D01*
X125078019Y-146372313D01*
X125077557Y-146373178D01*
X125076936Y-146373936D01*
X125076178Y-146374557D01*
X125075313Y-146375019D01*
X125074375Y-146375304D01*
X125073400Y-146375400D01*
X124673400Y-146375400D01*
X124672425Y-146375304D01*
X124671487Y-146375019D01*
X124670622Y-146374557D01*
X124669864Y-146373936D01*
X124669243Y-146373178D01*
X124668781Y-146372313D01*
X124668496Y-146371375D01*
X124668400Y-146370400D01*
X124668400Y-145670400D01*
X124668496Y-145669425D01*
X124668781Y-145668487D01*
X124669243Y-145667622D01*
X124669864Y-145666864D01*
X124670622Y-145666243D01*
X124671487Y-145665781D01*
X124672425Y-145665496D01*
X124673400Y-145665400D01*
X125673400Y-145665400D01*
X125674375Y-145665496D01*
X125675313Y-145665781D01*
X125676178Y-145666243D01*
X125676936Y-145666864D01*
X125677557Y-145667622D01*
X125678019Y-145668487D01*
X125678304Y-145669425D01*
X125678400Y-145670400D01*
X125678400Y-146020400D01*
X125678304Y-146021375D01*
G37*
D25*
X124248400Y-146020400D03*
X123198400Y-146020400D03*
D26*
X148910000Y-139192000D03*
X147960000Y-139192000D03*
X149860000Y-139192000D03*
X149860000Y-141892000D03*
X148910000Y-141892000D03*
X147960000Y-141892000D03*
D11*
G36*
X147637500Y-60160320D02*
G01*
X145516180Y-58039000D01*
X147637500Y-55917680D01*
X149758820Y-58039000D01*
X147637500Y-60160320D01*
G37*
G36*
X147778921Y-54998441D02*
G01*
X147460723Y-54680243D01*
X148203185Y-53937781D01*
X148521383Y-54255979D01*
X147778921Y-54998441D01*
G37*
G36*
X148238541Y-55458060D02*
G01*
X147920343Y-55139862D01*
X148662805Y-54397400D01*
X148981003Y-54715598D01*
X148238541Y-55458060D01*
G37*
G36*
X148698160Y-55917680D02*
G01*
X148379962Y-55599482D01*
X149122424Y-54857020D01*
X149440622Y-55175218D01*
X148698160Y-55917680D01*
G37*
G36*
X149157780Y-56377299D02*
G01*
X148839582Y-56059101D01*
X149582044Y-55316639D01*
X149900242Y-55634837D01*
X149157780Y-56377299D01*
G37*
G36*
X149617399Y-56836918D02*
G01*
X149299201Y-56518720D01*
X150041663Y-55776258D01*
X150359861Y-56094456D01*
X149617399Y-56836918D01*
G37*
G36*
X150077018Y-57296538D02*
G01*
X149758820Y-56978340D01*
X150501282Y-56235878D01*
X150819480Y-56554076D01*
X150077018Y-57296538D01*
G37*
G36*
X150536638Y-57756157D02*
G01*
X150218440Y-57437959D01*
X150960902Y-56695497D01*
X151279100Y-57013695D01*
X150536638Y-57756157D01*
G37*
G36*
X150996257Y-58215777D02*
G01*
X150678059Y-57897579D01*
X151420521Y-57155117D01*
X151738719Y-57473315D01*
X150996257Y-58215777D01*
G37*
G36*
X147071815Y-62140219D02*
G01*
X146753617Y-61822021D01*
X147496079Y-61079559D01*
X147814277Y-61397757D01*
X147071815Y-62140219D01*
G37*
G36*
X146612195Y-61680600D02*
G01*
X146293997Y-61362402D01*
X147036459Y-60619940D01*
X147354657Y-60938138D01*
X146612195Y-61680600D01*
G37*
G36*
X146152576Y-61220980D02*
G01*
X145834378Y-60902782D01*
X146576840Y-60160320D01*
X146895038Y-60478518D01*
X146152576Y-61220980D01*
G37*
G36*
X145692956Y-60761361D02*
G01*
X145374758Y-60443163D01*
X146117220Y-59700701D01*
X146435418Y-60018899D01*
X145692956Y-60761361D01*
G37*
G36*
X145233337Y-60301742D02*
G01*
X144915139Y-59983544D01*
X145657601Y-59241082D01*
X145975799Y-59559280D01*
X145233337Y-60301742D01*
G37*
G36*
X144773718Y-59842122D02*
G01*
X144455520Y-59523924D01*
X145197982Y-58781462D01*
X145516180Y-59099660D01*
X144773718Y-59842122D01*
G37*
G36*
X144314098Y-59382503D02*
G01*
X143995900Y-59064305D01*
X144738362Y-58321843D01*
X145056560Y-58640041D01*
X144314098Y-59382503D01*
G37*
G36*
X143854479Y-58922883D02*
G01*
X143536281Y-58604685D01*
X144278743Y-57862223D01*
X144596941Y-58180421D01*
X143854479Y-58922883D01*
G37*
D27*
X103187500Y-140843000D03*
X129222500Y-149796500D03*
X155511500Y-129603500D03*
X149034500Y-129667000D03*
X161480500Y-129413000D03*
G36*
G01*
X121457500Y-147955500D02*
X121112500Y-147955500D01*
G75*
G02*
X120965000Y-147808000I0J147500D01*
G01*
X120965000Y-147513000D01*
G75*
G02*
X121112500Y-147365500I147500J0D01*
G01*
X121457500Y-147365500D01*
G75*
G02*
X121605000Y-147513000I0J-147500D01*
G01*
X121605000Y-147808000D01*
G75*
G02*
X121457500Y-147955500I-147500J0D01*
G01*
G37*
G36*
G01*
X121457500Y-148925500D02*
X121112500Y-148925500D01*
G75*
G02*
X120965000Y-148778000I0J147500D01*
G01*
X120965000Y-148483000D01*
G75*
G02*
X121112500Y-148335500I147500J0D01*
G01*
X121457500Y-148335500D01*
G75*
G02*
X121605000Y-148483000I0J-147500D01*
G01*
X121605000Y-148778000D01*
G75*
G02*
X121457500Y-148925500I-147500J0D01*
G01*
G37*
G36*
G01*
X119969500Y-148358500D02*
X120314500Y-148358500D01*
G75*
G02*
X120462000Y-148506000I0J-147500D01*
G01*
X120462000Y-148801000D01*
G75*
G02*
X120314500Y-148948500I-147500J0D01*
G01*
X119969500Y-148948500D01*
G75*
G02*
X119822000Y-148801000I0J147500D01*
G01*
X119822000Y-148506000D01*
G75*
G02*
X119969500Y-148358500I147500J0D01*
G01*
G37*
G36*
G01*
X119969500Y-147388500D02*
X120314500Y-147388500D01*
G75*
G02*
X120462000Y-147536000I0J-147500D01*
G01*
X120462000Y-147831000D01*
G75*
G02*
X120314500Y-147978500I-147500J0D01*
G01*
X119969500Y-147978500D01*
G75*
G02*
X119822000Y-147831000I0J147500D01*
G01*
X119822000Y-147536000D01*
G75*
G02*
X119969500Y-147388500I147500J0D01*
G01*
G37*
G36*
G01*
X123906500Y-149120500D02*
X124251500Y-149120500D01*
G75*
G02*
X124399000Y-149268000I0J-147500D01*
G01*
X124399000Y-149563000D01*
G75*
G02*
X124251500Y-149710500I-147500J0D01*
G01*
X123906500Y-149710500D01*
G75*
G02*
X123759000Y-149563000I0J147500D01*
G01*
X123759000Y-149268000D01*
G75*
G02*
X123906500Y-149120500I147500J0D01*
G01*
G37*
G36*
G01*
X123906500Y-148150500D02*
X124251500Y-148150500D01*
G75*
G02*
X124399000Y-148298000I0J-147500D01*
G01*
X124399000Y-148593000D01*
G75*
G02*
X124251500Y-148740500I-147500J0D01*
G01*
X123906500Y-148740500D01*
G75*
G02*
X123759000Y-148593000I0J147500D01*
G01*
X123759000Y-148298000D01*
G75*
G02*
X123906500Y-148150500I147500J0D01*
G01*
G37*
G36*
G01*
X124922500Y-148018000D02*
X125267500Y-148018000D01*
G75*
G02*
X125415000Y-148165500I0J-147500D01*
G01*
X125415000Y-148460500D01*
G75*
G02*
X125267500Y-148608000I-147500J0D01*
G01*
X124922500Y-148608000D01*
G75*
G02*
X124775000Y-148460500I0J147500D01*
G01*
X124775000Y-148165500D01*
G75*
G02*
X124922500Y-148018000I147500J0D01*
G01*
G37*
G36*
G01*
X124922500Y-147048000D02*
X125267500Y-147048000D01*
G75*
G02*
X125415000Y-147195500I0J-147500D01*
G01*
X125415000Y-147490500D01*
G75*
G02*
X125267500Y-147638000I-147500J0D01*
G01*
X124922500Y-147638000D01*
G75*
G02*
X124775000Y-147490500I0J147500D01*
G01*
X124775000Y-147195500D01*
G75*
G02*
X124922500Y-147048000I147500J0D01*
G01*
G37*
G36*
G01*
X126700500Y-146303500D02*
X127045500Y-146303500D01*
G75*
G02*
X127193000Y-146451000I0J-147500D01*
G01*
X127193000Y-146746000D01*
G75*
G02*
X127045500Y-146893500I-147500J0D01*
G01*
X126700500Y-146893500D01*
G75*
G02*
X126553000Y-146746000I0J147500D01*
G01*
X126553000Y-146451000D01*
G75*
G02*
X126700500Y-146303500I147500J0D01*
G01*
G37*
G36*
G01*
X126700500Y-145333500D02*
X127045500Y-145333500D01*
G75*
G02*
X127193000Y-145481000I0J-147500D01*
G01*
X127193000Y-145776000D01*
G75*
G02*
X127045500Y-145923500I-147500J0D01*
G01*
X126700500Y-145923500D01*
G75*
G02*
X126553000Y-145776000I0J147500D01*
G01*
X126553000Y-145481000D01*
G75*
G02*
X126700500Y-145333500I147500J0D01*
G01*
G37*
G36*
G01*
X86308250Y-116248000D02*
X85395750Y-116248000D01*
G75*
G02*
X85152000Y-116004250I0J243750D01*
G01*
X85152000Y-115516750D01*
G75*
G02*
X85395750Y-115273000I243750J0D01*
G01*
X86308250Y-115273000D01*
G75*
G02*
X86552000Y-115516750I0J-243750D01*
G01*
X86552000Y-116004250D01*
G75*
G02*
X86308250Y-116248000I-243750J0D01*
G01*
G37*
G36*
G01*
X86308250Y-118123000D02*
X85395750Y-118123000D01*
G75*
G02*
X85152000Y-117879250I0J243750D01*
G01*
X85152000Y-117391750D01*
G75*
G02*
X85395750Y-117148000I243750J0D01*
G01*
X86308250Y-117148000D01*
G75*
G02*
X86552000Y-117391750I0J-243750D01*
G01*
X86552000Y-117879250D01*
G75*
G02*
X86308250Y-118123000I-243750J0D01*
G01*
G37*
G36*
G01*
X84905000Y-109422250D02*
X84905000Y-108509750D01*
G75*
G02*
X85148750Y-108266000I243750J0D01*
G01*
X85636250Y-108266000D01*
G75*
G02*
X85880000Y-108509750I0J-243750D01*
G01*
X85880000Y-109422250D01*
G75*
G02*
X85636250Y-109666000I-243750J0D01*
G01*
X85148750Y-109666000D01*
G75*
G02*
X84905000Y-109422250I0J243750D01*
G01*
G37*
G36*
G01*
X83030000Y-109422250D02*
X83030000Y-108509750D01*
G75*
G02*
X83273750Y-108266000I243750J0D01*
G01*
X83761250Y-108266000D01*
G75*
G02*
X84005000Y-108509750I0J-243750D01*
G01*
X84005000Y-109422250D01*
G75*
G02*
X83761250Y-109666000I-243750J0D01*
G01*
X83273750Y-109666000D01*
G75*
G02*
X83030000Y-109422250I0J243750D01*
G01*
G37*
G36*
G01*
X82307750Y-109707500D02*
X81395250Y-109707500D01*
G75*
G02*
X81151500Y-109463750I0J243750D01*
G01*
X81151500Y-108976250D01*
G75*
G02*
X81395250Y-108732500I243750J0D01*
G01*
X82307750Y-108732500D01*
G75*
G02*
X82551500Y-108976250I0J-243750D01*
G01*
X82551500Y-109463750D01*
G75*
G02*
X82307750Y-109707500I-243750J0D01*
G01*
G37*
G36*
G01*
X82307750Y-111582500D02*
X81395250Y-111582500D01*
G75*
G02*
X81151500Y-111338750I0J243750D01*
G01*
X81151500Y-110851250D01*
G75*
G02*
X81395250Y-110607500I243750J0D01*
G01*
X82307750Y-110607500D01*
G75*
G02*
X82551500Y-110851250I0J-243750D01*
G01*
X82551500Y-111338750D01*
G75*
G02*
X82307750Y-111582500I-243750J0D01*
G01*
G37*
D28*
X141218000Y-144024000D03*
X141218000Y-138424000D03*
D11*
G36*
X95428500Y-81318000D02*
G01*
X95428500Y-81818000D01*
X95427898Y-81818000D01*
X95427898Y-81842534D01*
X95423088Y-81891365D01*
X95413516Y-81939490D01*
X95399272Y-81986445D01*
X95380495Y-82031778D01*
X95357364Y-82075051D01*
X95330104Y-82115850D01*
X95298976Y-82153779D01*
X95264279Y-82188476D01*
X95226350Y-82219604D01*
X95185551Y-82246864D01*
X95142278Y-82269995D01*
X95096945Y-82288772D01*
X95049990Y-82303016D01*
X95001865Y-82312588D01*
X94953034Y-82317398D01*
X94928500Y-82317398D01*
X94928500Y-82318000D01*
X94428500Y-82318000D01*
X94428500Y-82317398D01*
X94403966Y-82317398D01*
X94355135Y-82312588D01*
X94307010Y-82303016D01*
X94260055Y-82288772D01*
X94214722Y-82269995D01*
X94171449Y-82246864D01*
X94130650Y-82219604D01*
X94092721Y-82188476D01*
X94058024Y-82153779D01*
X94026896Y-82115850D01*
X93999636Y-82075051D01*
X93976505Y-82031778D01*
X93957728Y-81986445D01*
X93943484Y-81939490D01*
X93933912Y-81891365D01*
X93929102Y-81842534D01*
X93929102Y-81818000D01*
X93928500Y-81818000D01*
X93928500Y-81318000D01*
X95428500Y-81318000D01*
G37*
G36*
X93929102Y-80518000D02*
G01*
X93929102Y-80493466D01*
X93933912Y-80444635D01*
X93943484Y-80396510D01*
X93957728Y-80349555D01*
X93976505Y-80304222D01*
X93999636Y-80260949D01*
X94026896Y-80220150D01*
X94058024Y-80182221D01*
X94092721Y-80147524D01*
X94130650Y-80116396D01*
X94171449Y-80089136D01*
X94214722Y-80066005D01*
X94260055Y-80047228D01*
X94307010Y-80032984D01*
X94355135Y-80023412D01*
X94403966Y-80018602D01*
X94428500Y-80018602D01*
X94428500Y-80018000D01*
X94928500Y-80018000D01*
X94928500Y-80018602D01*
X94953034Y-80018602D01*
X95001865Y-80023412D01*
X95049990Y-80032984D01*
X95096945Y-80047228D01*
X95142278Y-80066005D01*
X95185551Y-80089136D01*
X95226350Y-80116396D01*
X95264279Y-80147524D01*
X95298976Y-80182221D01*
X95330104Y-80220150D01*
X95357364Y-80260949D01*
X95380495Y-80304222D01*
X95399272Y-80349555D01*
X95413516Y-80396510D01*
X95423088Y-80444635D01*
X95427898Y-80493466D01*
X95427898Y-80518000D01*
X95428500Y-80518000D01*
X95428500Y-81018000D01*
X93928500Y-81018000D01*
X93928500Y-80518000D01*
X93929102Y-80518000D01*
G37*
G36*
X80734000Y-90094500D02*
G01*
X80234000Y-90094500D01*
X80234000Y-90093898D01*
X80209466Y-90093898D01*
X80160635Y-90089088D01*
X80112510Y-90079516D01*
X80065555Y-90065272D01*
X80020222Y-90046495D01*
X79976949Y-90023364D01*
X79936150Y-89996104D01*
X79898221Y-89964976D01*
X79863524Y-89930279D01*
X79832396Y-89892350D01*
X79805136Y-89851551D01*
X79782005Y-89808278D01*
X79763228Y-89762945D01*
X79748984Y-89715990D01*
X79739412Y-89667865D01*
X79734602Y-89619034D01*
X79734602Y-89594500D01*
X79734000Y-89594500D01*
X79734000Y-89094500D01*
X79734602Y-89094500D01*
X79734602Y-89069966D01*
X79739412Y-89021135D01*
X79748984Y-88973010D01*
X79763228Y-88926055D01*
X79782005Y-88880722D01*
X79805136Y-88837449D01*
X79832396Y-88796650D01*
X79863524Y-88758721D01*
X79898221Y-88724024D01*
X79936150Y-88692896D01*
X79976949Y-88665636D01*
X80020222Y-88642505D01*
X80065555Y-88623728D01*
X80112510Y-88609484D01*
X80160635Y-88599912D01*
X80209466Y-88595102D01*
X80234000Y-88595102D01*
X80234000Y-88594500D01*
X80734000Y-88594500D01*
X80734000Y-90094500D01*
G37*
G36*
X81534000Y-88595102D02*
G01*
X81558534Y-88595102D01*
X81607365Y-88599912D01*
X81655490Y-88609484D01*
X81702445Y-88623728D01*
X81747778Y-88642505D01*
X81791051Y-88665636D01*
X81831850Y-88692896D01*
X81869779Y-88724024D01*
X81904476Y-88758721D01*
X81935604Y-88796650D01*
X81962864Y-88837449D01*
X81985995Y-88880722D01*
X82004772Y-88926055D01*
X82019016Y-88973010D01*
X82028588Y-89021135D01*
X82033398Y-89069966D01*
X82033398Y-89094500D01*
X82034000Y-89094500D01*
X82034000Y-89594500D01*
X82033398Y-89594500D01*
X82033398Y-89619034D01*
X82028588Y-89667865D01*
X82019016Y-89715990D01*
X82004772Y-89762945D01*
X81985995Y-89808278D01*
X81962864Y-89851551D01*
X81935604Y-89892350D01*
X81904476Y-89930279D01*
X81869779Y-89964976D01*
X81831850Y-89996104D01*
X81791051Y-90023364D01*
X81747778Y-90046495D01*
X81702445Y-90065272D01*
X81655490Y-90079516D01*
X81607365Y-90089088D01*
X81558534Y-90093898D01*
X81534000Y-90093898D01*
X81534000Y-90094500D01*
X81034000Y-90094500D01*
X81034000Y-88594500D01*
X81534000Y-88594500D01*
X81534000Y-88595102D01*
G37*
D14*
X109793257Y-144244423D03*
G36*
G01*
X109870653Y-146853352D02*
X109611834Y-147819277D01*
G75*
G02*
X109305648Y-147996053I-241481J64705D01*
G01*
X108339723Y-147737234D01*
G75*
G02*
X108162947Y-147431048I64705J241481D01*
G01*
X108421766Y-146465123D01*
G75*
G02*
X108727952Y-146288347I241481J-64705D01*
G01*
X109693877Y-146547166D01*
G75*
G02*
X109870653Y-146853352I-64705J-241481D01*
G01*
G37*
D15*
X107138770Y-142559995D03*
X112934325Y-144112909D03*
D14*
X91666563Y-133871267D03*
G36*
G01*
X90634127Y-136268469D02*
X89991339Y-137034513D01*
G75*
G02*
X89639131Y-137065327I-191511J160697D01*
G01*
X88873087Y-136422539D01*
G75*
G02*
X88842273Y-136070331I160697J191511D01*
G01*
X89485061Y-135304287D01*
G75*
G02*
X89837269Y-135273473I191511J-160697D01*
G01*
X90603313Y-135916261D01*
G75*
G02*
X90634127Y-136268469I-160697J-191511D01*
G01*
G37*
D15*
X89972650Y-131222822D03*
X94568917Y-135079548D03*
D14*
X77012478Y-112689740D03*
G36*
G01*
X74919761Y-114249559D02*
X73980069Y-114591579D01*
G75*
G02*
X73659641Y-114442161I-85505J234923D01*
G01*
X73317621Y-113502469D01*
G75*
G02*
X73467039Y-113182041I234923J85505D01*
G01*
X74406731Y-112840021D01*
G75*
G02*
X74727159Y-112989439I85505J-234923D01*
G01*
X75069179Y-113929131D01*
G75*
G02*
X74919761Y-114249559I-234923J-85505D01*
G01*
G37*
D15*
X76869728Y-109549163D03*
X78921849Y-115187318D03*
D14*
X85051333Y-127637037D03*
G36*
G01*
X83618313Y-129818539D02*
X82852269Y-130461327D01*
G75*
G02*
X82500061Y-130430513I-160697J191511D01*
G01*
X81857273Y-129664469D01*
G75*
G02*
X81888087Y-129312261I191511J160697D01*
G01*
X82654131Y-128669473D01*
G75*
G02*
X83006339Y-128700287I160697J-191511D01*
G01*
X83649127Y-129466331D01*
G75*
G02*
X83618313Y-129818539I-191511J-160697D01*
G01*
G37*
D15*
X83843052Y-124734683D03*
X87699778Y-129330950D03*
D14*
X80525276Y-120369200D03*
G36*
G01*
X78735213Y-122268719D02*
X77869187Y-122768719D01*
G75*
G02*
X77527681Y-122677213I-125000J216506D01*
G01*
X77027681Y-121811187D01*
G75*
G02*
X77119187Y-121469681I216506J125000D01*
G01*
X77985213Y-120969681D01*
G75*
G02*
X78326719Y-121061187I125000J-216506D01*
G01*
X78826719Y-121927213D01*
G75*
G02*
X78735213Y-122268719I-216506J-125000D01*
G01*
G37*
D15*
X79839340Y-117301124D03*
X82839340Y-122497276D03*
D29*
X123494800Y-59232800D03*
X118394800Y-58032800D03*
X98863000Y-135552500D03*
X97663000Y-140652500D03*
G36*
G01*
X81462884Y-66513125D02*
X80876340Y-67212140D01*
G75*
G02*
X80532938Y-67242184I-186723J156679D01*
G01*
X80159492Y-66928825D01*
G75*
G02*
X80129448Y-66585423I156679J186723D01*
G01*
X80715992Y-65886408D01*
G75*
G02*
X81059394Y-65856364I186723J-156679D01*
G01*
X81432840Y-66169723D01*
G75*
G02*
X81462884Y-66513125I-156679J-186723D01*
G01*
G37*
G36*
G01*
X82899218Y-67718351D02*
X82312674Y-68417366D01*
G75*
G02*
X81969272Y-68447410I-186723J156679D01*
G01*
X81595826Y-68134051D01*
G75*
G02*
X81565782Y-67790649I156679J186723D01*
G01*
X82152326Y-67091634D01*
G75*
G02*
X82495728Y-67061590I186723J-156679D01*
G01*
X82869174Y-67374949D01*
G75*
G02*
X82899218Y-67718351I-156679J-186723D01*
G01*
G37*
G36*
G01*
X79782031Y-68930380D02*
X79258642Y-69677856D01*
G75*
G02*
X78919165Y-69737715I-199668J139809D01*
G01*
X78519828Y-69458097D01*
G75*
G02*
X78459969Y-69118620I139809J199668D01*
G01*
X78983358Y-68371144D01*
G75*
G02*
X79322835Y-68311285I199668J-139809D01*
G01*
X79722172Y-68590903D01*
G75*
G02*
X79782031Y-68930380I-139809J-199668D01*
G01*
G37*
G36*
G01*
X81317941Y-70005836D02*
X80794552Y-70753312D01*
G75*
G02*
X80455075Y-70813171I-199668J139809D01*
G01*
X80055738Y-70533553D01*
G75*
G02*
X79995879Y-70194076I139809J199668D01*
G01*
X80519268Y-69446600D01*
G75*
G02*
X80858745Y-69386741I199668J-139809D01*
G01*
X81258082Y-69666359D01*
G75*
G02*
X81317941Y-70005836I-139809J-199668D01*
G01*
G37*
D30*
X82804000Y-112689000D03*
X82804000Y-115189000D03*
G36*
G01*
X136007000Y-138991500D02*
X134757000Y-138991500D01*
G75*
G02*
X134507000Y-138741500I0J250000D01*
G01*
X134507000Y-137991500D01*
G75*
G02*
X134757000Y-137741500I250000J0D01*
G01*
X136007000Y-137741500D01*
G75*
G02*
X136257000Y-137991500I0J-250000D01*
G01*
X136257000Y-138741500D01*
G75*
G02*
X136007000Y-138991500I-250000J0D01*
G01*
G37*
G36*
G01*
X136007000Y-141791500D02*
X134757000Y-141791500D01*
G75*
G02*
X134507000Y-141541500I0J250000D01*
G01*
X134507000Y-140791500D01*
G75*
G02*
X134757000Y-140541500I250000J0D01*
G01*
X136007000Y-140541500D01*
G75*
G02*
X136257000Y-140791500I0J-250000D01*
G01*
X136257000Y-141541500D01*
G75*
G02*
X136007000Y-141791500I-250000J0D01*
G01*
G37*
G36*
G01*
X120119500Y-145115500D02*
X120119500Y-145460500D01*
G75*
G02*
X119972000Y-145608000I-147500J0D01*
G01*
X119677000Y-145608000D01*
G75*
G02*
X119529500Y-145460500I0J147500D01*
G01*
X119529500Y-145115500D01*
G75*
G02*
X119677000Y-144968000I147500J0D01*
G01*
X119972000Y-144968000D01*
G75*
G02*
X120119500Y-145115500I0J-147500D01*
G01*
G37*
G36*
G01*
X121089500Y-145115500D02*
X121089500Y-145460500D01*
G75*
G02*
X120942000Y-145608000I-147500J0D01*
G01*
X120647000Y-145608000D01*
G75*
G02*
X120499500Y-145460500I0J147500D01*
G01*
X120499500Y-145115500D01*
G75*
G02*
X120647000Y-144968000I147500J0D01*
G01*
X120942000Y-144968000D01*
G75*
G02*
X121089500Y-145115500I0J-147500D01*
G01*
G37*
G36*
G01*
X122425750Y-148749500D02*
X122938250Y-148749500D01*
G75*
G02*
X123157000Y-148968250I0J-218750D01*
G01*
X123157000Y-149405750D01*
G75*
G02*
X122938250Y-149624500I-218750J0D01*
G01*
X122425750Y-149624500D01*
G75*
G02*
X122207000Y-149405750I0J218750D01*
G01*
X122207000Y-148968250D01*
G75*
G02*
X122425750Y-148749500I218750J0D01*
G01*
G37*
G36*
G01*
X122425750Y-147174500D02*
X122938250Y-147174500D01*
G75*
G02*
X123157000Y-147393250I0J-218750D01*
G01*
X123157000Y-147830750D01*
G75*
G02*
X122938250Y-148049500I-218750J0D01*
G01*
X122425750Y-148049500D01*
G75*
G02*
X122207000Y-147830750I0J218750D01*
G01*
X122207000Y-147393250D01*
G75*
G02*
X122425750Y-147174500I218750J0D01*
G01*
G37*
G36*
G01*
X120842750Y-142741000D02*
X120330250Y-142741000D01*
G75*
G02*
X120111500Y-142522250I0J218750D01*
G01*
X120111500Y-142084750D01*
G75*
G02*
X120330250Y-141866000I218750J0D01*
G01*
X120842750Y-141866000D01*
G75*
G02*
X121061500Y-142084750I0J-218750D01*
G01*
X121061500Y-142522250D01*
G75*
G02*
X120842750Y-142741000I-218750J0D01*
G01*
G37*
G36*
G01*
X120842750Y-144316000D02*
X120330250Y-144316000D01*
G75*
G02*
X120111500Y-144097250I0J218750D01*
G01*
X120111500Y-143659750D01*
G75*
G02*
X120330250Y-143441000I218750J0D01*
G01*
X120842750Y-143441000D01*
G75*
G02*
X121061500Y-143659750I0J-218750D01*
G01*
X121061500Y-144097250D01*
G75*
G02*
X120842750Y-144316000I-218750J0D01*
G01*
G37*
G36*
G01*
X152394500Y-137543250D02*
X152394500Y-137030750D01*
G75*
G02*
X152613250Y-136812000I218750J0D01*
G01*
X153050750Y-136812000D01*
G75*
G02*
X153269500Y-137030750I0J-218750D01*
G01*
X153269500Y-137543250D01*
G75*
G02*
X153050750Y-137762000I-218750J0D01*
G01*
X152613250Y-137762000D01*
G75*
G02*
X152394500Y-137543250I0J218750D01*
G01*
G37*
G36*
G01*
X150819500Y-137543250D02*
X150819500Y-137030750D01*
G75*
G02*
X151038250Y-136812000I218750J0D01*
G01*
X151475750Y-136812000D01*
G75*
G02*
X151694500Y-137030750I0J-218750D01*
G01*
X151694500Y-137543250D01*
G75*
G02*
X151475750Y-137762000I-218750J0D01*
G01*
X151038250Y-137762000D01*
G75*
G02*
X150819500Y-137543250I0J218750D01*
G01*
G37*
G36*
G01*
X127154650Y-142778900D02*
X126642150Y-142778900D01*
G75*
G02*
X126423400Y-142560150I0J218750D01*
G01*
X126423400Y-142122650D01*
G75*
G02*
X126642150Y-141903900I218750J0D01*
G01*
X127154650Y-141903900D01*
G75*
G02*
X127373400Y-142122650I0J-218750D01*
G01*
X127373400Y-142560150D01*
G75*
G02*
X127154650Y-142778900I-218750J0D01*
G01*
G37*
G36*
G01*
X127154650Y-144353900D02*
X126642150Y-144353900D01*
G75*
G02*
X126423400Y-144135150I0J218750D01*
G01*
X126423400Y-143697650D01*
G75*
G02*
X126642150Y-143478900I218750J0D01*
G01*
X127154650Y-143478900D01*
G75*
G02*
X127373400Y-143697650I0J-218750D01*
G01*
X127373400Y-144135150D01*
G75*
G02*
X127154650Y-144353900I-218750J0D01*
G01*
G37*
G36*
G01*
X152432500Y-135828750D02*
X152432500Y-135316250D01*
G75*
G02*
X152651250Y-135097500I218750J0D01*
G01*
X153088750Y-135097500D01*
G75*
G02*
X153307500Y-135316250I0J-218750D01*
G01*
X153307500Y-135828750D01*
G75*
G02*
X153088750Y-136047500I-218750J0D01*
G01*
X152651250Y-136047500D01*
G75*
G02*
X152432500Y-135828750I0J218750D01*
G01*
G37*
G36*
G01*
X150857500Y-135828750D02*
X150857500Y-135316250D01*
G75*
G02*
X151076250Y-135097500I218750J0D01*
G01*
X151513750Y-135097500D01*
G75*
G02*
X151732500Y-135316250I0J-218750D01*
G01*
X151732500Y-135828750D01*
G75*
G02*
X151513750Y-136047500I-218750J0D01*
G01*
X151076250Y-136047500D01*
G75*
G02*
X150857500Y-135828750I0J218750D01*
G01*
G37*
G36*
G01*
X129925500Y-145882200D02*
X132075500Y-145882200D01*
G75*
G02*
X132325500Y-146132200I0J-250000D01*
G01*
X132325500Y-146882200D01*
G75*
G02*
X132075500Y-147132200I-250000J0D01*
G01*
X129925500Y-147132200D01*
G75*
G02*
X129675500Y-146882200I0J250000D01*
G01*
X129675500Y-146132200D01*
G75*
G02*
X129925500Y-145882200I250000J0D01*
G01*
G37*
G36*
G01*
X129925500Y-143082200D02*
X132075500Y-143082200D01*
G75*
G02*
X132325500Y-143332200I0J-250000D01*
G01*
X132325500Y-144082200D01*
G75*
G02*
X132075500Y-144332200I-250000J0D01*
G01*
X129925500Y-144332200D01*
G75*
G02*
X129675500Y-144082200I0J250000D01*
G01*
X129675500Y-143332200D01*
G75*
G02*
X129925500Y-143082200I250000J0D01*
G01*
G37*
G36*
G01*
X115790400Y-144691400D02*
X117940400Y-144691400D01*
G75*
G02*
X118190400Y-144941400I0J-250000D01*
G01*
X118190400Y-145691400D01*
G75*
G02*
X117940400Y-145941400I-250000J0D01*
G01*
X115790400Y-145941400D01*
G75*
G02*
X115540400Y-145691400I0J250000D01*
G01*
X115540400Y-144941400D01*
G75*
G02*
X115790400Y-144691400I250000J0D01*
G01*
G37*
G36*
G01*
X115790400Y-141891400D02*
X117940400Y-141891400D01*
G75*
G02*
X118190400Y-142141400I0J-250000D01*
G01*
X118190400Y-142891400D01*
G75*
G02*
X117940400Y-143141400I-250000J0D01*
G01*
X115790400Y-143141400D01*
G75*
G02*
X115540400Y-142891400I0J250000D01*
G01*
X115540400Y-142141400D01*
G75*
G02*
X115790400Y-141891400I250000J0D01*
G01*
G37*
G36*
G01*
X97484250Y-79433000D02*
X96571750Y-79433000D01*
G75*
G02*
X96328000Y-79189250I0J243750D01*
G01*
X96328000Y-78701750D01*
G75*
G02*
X96571750Y-78458000I243750J0D01*
G01*
X97484250Y-78458000D01*
G75*
G02*
X97728000Y-78701750I0J-243750D01*
G01*
X97728000Y-79189250D01*
G75*
G02*
X97484250Y-79433000I-243750J0D01*
G01*
G37*
G36*
G01*
X97484250Y-81308000D02*
X96571750Y-81308000D01*
G75*
G02*
X96328000Y-81064250I0J243750D01*
G01*
X96328000Y-80576750D01*
G75*
G02*
X96571750Y-80333000I243750J0D01*
G01*
X97484250Y-80333000D01*
G75*
G02*
X97728000Y-80576750I0J-243750D01*
G01*
X97728000Y-81064250D01*
G75*
G02*
X97484250Y-81308000I-243750J0D01*
G01*
G37*
G36*
G01*
X81522250Y-79761500D02*
X82434750Y-79761500D01*
G75*
G02*
X82678500Y-80005250I0J-243750D01*
G01*
X82678500Y-80492750D01*
G75*
G02*
X82434750Y-80736500I-243750J0D01*
G01*
X81522250Y-80736500D01*
G75*
G02*
X81278500Y-80492750I0J243750D01*
G01*
X81278500Y-80005250D01*
G75*
G02*
X81522250Y-79761500I243750J0D01*
G01*
G37*
G36*
G01*
X81522250Y-77886500D02*
X82434750Y-77886500D01*
G75*
G02*
X82678500Y-78130250I0J-243750D01*
G01*
X82678500Y-78617750D01*
G75*
G02*
X82434750Y-78861500I-243750J0D01*
G01*
X81522250Y-78861500D01*
G75*
G02*
X81278500Y-78617750I0J243750D01*
G01*
X81278500Y-78130250D01*
G75*
G02*
X81522250Y-77886500I243750J0D01*
G01*
G37*
M02*
