G04 #@! TF.GenerationSoftware,KiCad,Pcbnew,(5.1.7)-1*
G04 #@! TF.CreationDate,2020-12-22T22:25:20-08:00*
G04 #@! TF.ProjectId,LCP_PowerControl,4c43505f-506f-4776-9572-436f6e74726f,rev?*
G04 #@! TF.SameCoordinates,Original*
G04 #@! TF.FileFunction,Legend,Top*
G04 #@! TF.FilePolarity,Positive*
%FSLAX46Y46*%
G04 Gerber Fmt 4.6, Leading zero omitted, Abs format (unit mm)*
G04 Created by KiCad (PCBNEW (5.1.7)-1) date 2020-12-22 22:25:20*
%MOMM*%
%LPD*%
G01*
G04 APERTURE LIST*
%ADD10C,0.120000*%
%ADD11C,0.150000*%
%ADD12C,0.300000*%
%ADD13C,0.500000*%
%ADD14C,0.203200*%
%ADD15C,0.152400*%
G04 APERTURE END LIST*
D10*
X73194417Y-79760611D02*
X73939828Y-80108202D01*
X75648272Y-80904862D02*
X76393683Y-81252453D01*
X74497261Y-80368137D02*
X75090839Y-80644927D01*
X75313847Y-75215477D02*
X73194417Y-79760611D01*
X79128023Y-75388642D02*
X76393683Y-81252453D01*
X75313847Y-75215477D02*
X75827297Y-75454903D01*
X76848653Y-75931169D02*
X76978308Y-75991628D01*
X77049367Y-75965765D02*
X77109826Y-75836110D01*
X77586092Y-74814754D02*
X77641679Y-74695548D01*
X77641679Y-74695548D02*
X77825179Y-74781115D01*
X78382612Y-75041051D02*
X79128023Y-75388642D01*
X75635037Y-74526683D02*
X75956227Y-73837889D01*
X75956227Y-73837889D02*
X76980355Y-74315448D01*
X89716241Y-86962294D02*
X90085708Y-87331761D01*
X88676794Y-88001741D02*
X89046261Y-88371208D01*
X92819510Y-71887957D02*
X92450043Y-71518490D01*
X93858957Y-70848510D02*
X93489490Y-70479043D01*
X108130159Y-57931484D02*
X103676016Y-59552659D01*
X108130159Y-57931484D02*
X107993351Y-57555607D01*
X103676016Y-59552659D02*
X103539208Y-59176782D01*
X106508984Y-53477341D02*
X106645792Y-53853218D01*
X106508984Y-53477341D02*
X102054841Y-55098516D01*
X102054841Y-55098516D02*
X102191649Y-55474393D01*
X102513148Y-56357704D02*
X103217709Y-58293471D01*
X106967291Y-54736529D02*
X107671852Y-56672296D01*
X95587500Y-68018500D02*
X82847500Y-68018500D01*
X82847500Y-68018500D02*
X82847500Y-116258500D01*
X82847500Y-116258500D02*
X95587500Y-116258500D01*
X95587500Y-116258500D02*
X95587500Y-68018500D01*
X89217500Y-65638500D02*
X89217500Y-68018500D01*
X89217500Y-118638500D02*
X89217500Y-116258500D01*
X73746708Y-84668708D02*
X73746708Y-85868708D01*
X73746708Y-89188708D02*
X73746708Y-87988708D01*
X77202271Y-89188708D02*
X73746708Y-89188708D01*
X77202271Y-84668708D02*
X73746708Y-84668708D01*
X78266708Y-85733145D02*
X78266708Y-85868708D01*
X78266708Y-88124271D02*
X78266708Y-87988708D01*
X78266708Y-88124271D02*
X77202271Y-89188708D01*
X78266708Y-85733145D02*
X77202271Y-84668708D01*
X79006708Y-88488708D02*
X78506708Y-88488708D01*
X78756708Y-88738708D02*
X78756708Y-88238708D01*
X94174000Y-129790500D02*
X96834000Y-129790500D01*
X94174000Y-119570500D02*
X94174000Y-129790500D01*
X96834000Y-119570500D02*
X96834000Y-129790500D01*
X94174000Y-119570500D02*
X96834000Y-119570500D01*
X94174000Y-118300500D02*
X94174000Y-116970500D01*
X94174000Y-116970500D02*
X95504000Y-116970500D01*
X114383000Y-63829500D02*
X118503000Y-63829500D01*
X114383000Y-61769500D02*
X114383000Y-63829500D01*
X118503000Y-59709500D02*
X118503000Y-63829500D01*
X114383000Y-61769500D02*
X116443000Y-61769500D01*
X116443000Y-61769500D02*
X116443000Y-59709500D01*
X116443000Y-59709500D02*
X118503000Y-59709500D01*
X114383000Y-60769500D02*
X114383000Y-59709500D01*
X114383000Y-59709500D02*
X115443000Y-59709500D01*
X82698835Y-73959282D02*
X82377718Y-73638165D01*
X83738282Y-72919835D02*
X83417165Y-72598718D01*
X92950228Y-54544279D02*
X94660043Y-56581957D01*
X92950228Y-54544279D02*
X83175501Y-62746249D01*
X83175501Y-62746249D02*
X84885316Y-64783927D01*
X94660043Y-56581957D02*
X84885316Y-64783927D01*
X96651759Y-54910710D02*
X95632920Y-55765617D01*
X95796851Y-53891870D02*
X96651759Y-54910710D01*
X143633500Y-54102000D02*
G75*
G03*
X143633500Y-54102000I-6370000J0D01*
G01*
X137263500Y-60432000D02*
X137263500Y-47772000D01*
X137223500Y-60432000D02*
X137223500Y-47772000D01*
X137183500Y-60432000D02*
X137183500Y-47772000D01*
X137143500Y-60431000D02*
X137143500Y-47773000D01*
X137103500Y-60430000D02*
X137103500Y-47774000D01*
X137063500Y-60429000D02*
X137063500Y-47775000D01*
X137023500Y-60428000D02*
X137023500Y-47776000D01*
X136983500Y-60426000D02*
X136983500Y-47778000D01*
X136943500Y-60424000D02*
X136943500Y-47780000D01*
X136903500Y-60422000D02*
X136903500Y-47782000D01*
X136863500Y-60420000D02*
X136863500Y-47784000D01*
X136823500Y-60417000D02*
X136823500Y-47787000D01*
X136783500Y-60414000D02*
X136783500Y-47790000D01*
X136743500Y-60411000D02*
X136743500Y-47793000D01*
X136703500Y-60408000D02*
X136703500Y-47796000D01*
X136663500Y-60404000D02*
X136663500Y-47800000D01*
X136623500Y-60400000D02*
X136623500Y-47804000D01*
X136583500Y-60396000D02*
X136583500Y-47808000D01*
X136542500Y-60392000D02*
X136542500Y-47812000D01*
X136502500Y-60387000D02*
X136502500Y-47817000D01*
X136462500Y-60382000D02*
X136462500Y-47822000D01*
X136422500Y-60377000D02*
X136422500Y-47827000D01*
X136382500Y-60371000D02*
X136382500Y-47833000D01*
X136342500Y-60366000D02*
X136342500Y-47838000D01*
X136302500Y-60360000D02*
X136302500Y-47844000D01*
X136262500Y-60354000D02*
X136262500Y-47850000D01*
X136222500Y-60347000D02*
X136222500Y-47857000D01*
X136182500Y-60340000D02*
X136182500Y-55542000D01*
X136182500Y-52662000D02*
X136182500Y-47864000D01*
X136142500Y-60333000D02*
X136142500Y-55542000D01*
X136142500Y-52662000D02*
X136142500Y-47871000D01*
X136102500Y-60326000D02*
X136102500Y-55542000D01*
X136102500Y-52662000D02*
X136102500Y-47878000D01*
X136062500Y-60318000D02*
X136062500Y-55542000D01*
X136062500Y-52662000D02*
X136062500Y-47886000D01*
X136022500Y-60311000D02*
X136022500Y-55542000D01*
X136022500Y-52662000D02*
X136022500Y-47893000D01*
X135982500Y-60303000D02*
X135982500Y-55542000D01*
X135982500Y-52662000D02*
X135982500Y-47901000D01*
X135942500Y-60294000D02*
X135942500Y-55542000D01*
X135942500Y-52662000D02*
X135942500Y-47910000D01*
X135902500Y-60286000D02*
X135902500Y-55542000D01*
X135902500Y-52662000D02*
X135902500Y-47918000D01*
X135862500Y-60277000D02*
X135862500Y-55542000D01*
X135862500Y-52662000D02*
X135862500Y-47927000D01*
X135822500Y-60268000D02*
X135822500Y-55542000D01*
X135822500Y-52662000D02*
X135822500Y-47936000D01*
X135782500Y-60258000D02*
X135782500Y-55542000D01*
X135782500Y-52662000D02*
X135782500Y-47946000D01*
X135742500Y-60248000D02*
X135742500Y-55542000D01*
X135742500Y-52662000D02*
X135742500Y-47956000D01*
X135702500Y-60239000D02*
X135702500Y-55542000D01*
X135702500Y-52662000D02*
X135702500Y-47965000D01*
X135662500Y-60228000D02*
X135662500Y-55542000D01*
X135662500Y-52662000D02*
X135662500Y-47976000D01*
X135622500Y-60218000D02*
X135622500Y-55542000D01*
X135622500Y-52662000D02*
X135622500Y-47986000D01*
X135582500Y-60207000D02*
X135582500Y-55542000D01*
X135582500Y-52662000D02*
X135582500Y-47997000D01*
X135542500Y-60196000D02*
X135542500Y-55542000D01*
X135542500Y-52662000D02*
X135542500Y-48008000D01*
X135502500Y-60185000D02*
X135502500Y-55542000D01*
X135502500Y-52662000D02*
X135502500Y-48019000D01*
X135462500Y-60173000D02*
X135462500Y-55542000D01*
X135462500Y-52662000D02*
X135462500Y-48031000D01*
X135422500Y-60161000D02*
X135422500Y-55542000D01*
X135422500Y-52662000D02*
X135422500Y-48043000D01*
X135382500Y-60149000D02*
X135382500Y-55542000D01*
X135382500Y-52662000D02*
X135382500Y-48055000D01*
X135342500Y-60136000D02*
X135342500Y-55542000D01*
X135342500Y-52662000D02*
X135342500Y-48068000D01*
X135302500Y-60123000D02*
X135302500Y-55542000D01*
X135302500Y-52662000D02*
X135302500Y-48081000D01*
X135262500Y-60110000D02*
X135262500Y-55542000D01*
X135262500Y-52662000D02*
X135262500Y-48094000D01*
X135222500Y-60097000D02*
X135222500Y-55542000D01*
X135222500Y-52662000D02*
X135222500Y-48107000D01*
X135182500Y-60083000D02*
X135182500Y-55542000D01*
X135182500Y-52662000D02*
X135182500Y-48121000D01*
X135142500Y-60069000D02*
X135142500Y-55542000D01*
X135142500Y-52662000D02*
X135142500Y-48135000D01*
X135102500Y-60055000D02*
X135102500Y-55542000D01*
X135102500Y-52662000D02*
X135102500Y-48149000D01*
X135062500Y-60041000D02*
X135062500Y-55542000D01*
X135062500Y-52662000D02*
X135062500Y-48163000D01*
X135022500Y-60026000D02*
X135022500Y-55542000D01*
X135022500Y-52662000D02*
X135022500Y-48178000D01*
X134982500Y-60010000D02*
X134982500Y-55542000D01*
X134982500Y-52662000D02*
X134982500Y-48194000D01*
X134942500Y-59995000D02*
X134942500Y-55542000D01*
X134942500Y-52662000D02*
X134942500Y-48209000D01*
X134902500Y-59979000D02*
X134902500Y-55542000D01*
X134902500Y-52662000D02*
X134902500Y-48225000D01*
X134862500Y-59963000D02*
X134862500Y-55542000D01*
X134862500Y-52662000D02*
X134862500Y-48241000D01*
X134822500Y-59947000D02*
X134822500Y-55542000D01*
X134822500Y-52662000D02*
X134822500Y-48257000D01*
X134782500Y-59930000D02*
X134782500Y-55542000D01*
X134782500Y-52662000D02*
X134782500Y-48274000D01*
X134742500Y-59913000D02*
X134742500Y-55542000D01*
X134742500Y-52662000D02*
X134742500Y-48291000D01*
X134702500Y-59895000D02*
X134702500Y-55542000D01*
X134702500Y-52662000D02*
X134702500Y-48309000D01*
X134662500Y-59878000D02*
X134662500Y-55542000D01*
X134662500Y-52662000D02*
X134662500Y-48326000D01*
X134622500Y-59860000D02*
X134622500Y-55542000D01*
X134622500Y-52662000D02*
X134622500Y-48344000D01*
X134582500Y-59841000D02*
X134582500Y-55542000D01*
X134582500Y-52662000D02*
X134582500Y-48363000D01*
X134542500Y-59823000D02*
X134542500Y-55542000D01*
X134542500Y-52662000D02*
X134542500Y-48381000D01*
X134502500Y-59804000D02*
X134502500Y-55542000D01*
X134502500Y-52662000D02*
X134502500Y-48400000D01*
X134462500Y-59784000D02*
X134462500Y-55542000D01*
X134462500Y-52662000D02*
X134462500Y-48420000D01*
X134422500Y-59764000D02*
X134422500Y-55542000D01*
X134422500Y-52662000D02*
X134422500Y-48440000D01*
X134382500Y-59744000D02*
X134382500Y-55542000D01*
X134382500Y-52662000D02*
X134382500Y-48460000D01*
X134342500Y-59724000D02*
X134342500Y-55542000D01*
X134342500Y-52662000D02*
X134342500Y-48480000D01*
X134302500Y-59703000D02*
X134302500Y-55542000D01*
X134302500Y-52662000D02*
X134302500Y-48501000D01*
X134262500Y-59682000D02*
X134262500Y-55542000D01*
X134262500Y-52662000D02*
X134262500Y-48522000D01*
X134222500Y-59660000D02*
X134222500Y-55542000D01*
X134222500Y-52662000D02*
X134222500Y-48544000D01*
X134182500Y-59638000D02*
X134182500Y-55542000D01*
X134182500Y-52662000D02*
X134182500Y-48566000D01*
X134142500Y-59616000D02*
X134142500Y-55542000D01*
X134142500Y-52662000D02*
X134142500Y-48588000D01*
X134102500Y-59593000D02*
X134102500Y-55542000D01*
X134102500Y-52662000D02*
X134102500Y-48611000D01*
X134062500Y-59570000D02*
X134062500Y-55542000D01*
X134062500Y-52662000D02*
X134062500Y-48634000D01*
X134022500Y-59547000D02*
X134022500Y-55542000D01*
X134022500Y-52662000D02*
X134022500Y-48657000D01*
X133982500Y-59523000D02*
X133982500Y-55542000D01*
X133982500Y-52662000D02*
X133982500Y-48681000D01*
X133942500Y-59499000D02*
X133942500Y-55542000D01*
X133942500Y-52662000D02*
X133942500Y-48705000D01*
X133902500Y-59474000D02*
X133902500Y-55542000D01*
X133902500Y-52662000D02*
X133902500Y-48730000D01*
X133862500Y-59449000D02*
X133862500Y-55542000D01*
X133862500Y-52662000D02*
X133862500Y-48755000D01*
X133822500Y-59424000D02*
X133822500Y-55542000D01*
X133822500Y-52662000D02*
X133822500Y-48780000D01*
X133782500Y-59398000D02*
X133782500Y-55542000D01*
X133782500Y-52662000D02*
X133782500Y-48806000D01*
X133742500Y-59372000D02*
X133742500Y-55542000D01*
X133742500Y-52662000D02*
X133742500Y-48832000D01*
X133702500Y-59345000D02*
X133702500Y-55542000D01*
X133702500Y-52662000D02*
X133702500Y-48859000D01*
X133662500Y-59318000D02*
X133662500Y-55542000D01*
X133662500Y-52662000D02*
X133662500Y-48886000D01*
X133622500Y-59290000D02*
X133622500Y-55542000D01*
X133622500Y-52662000D02*
X133622500Y-48914000D01*
X133582500Y-59262000D02*
X133582500Y-55542000D01*
X133582500Y-52662000D02*
X133582500Y-48942000D01*
X133542500Y-59233000D02*
X133542500Y-55542000D01*
X133542500Y-52662000D02*
X133542500Y-48971000D01*
X133502500Y-59204000D02*
X133502500Y-55542000D01*
X133502500Y-52662000D02*
X133502500Y-49000000D01*
X133462500Y-59175000D02*
X133462500Y-55542000D01*
X133462500Y-52662000D02*
X133462500Y-49029000D01*
X133422500Y-59145000D02*
X133422500Y-55542000D01*
X133422500Y-52662000D02*
X133422500Y-49059000D01*
X133382500Y-59114000D02*
X133382500Y-55542000D01*
X133382500Y-52662000D02*
X133382500Y-49090000D01*
X133342500Y-59084000D02*
X133342500Y-55542000D01*
X133342500Y-52662000D02*
X133342500Y-49120000D01*
X133302500Y-59052000D02*
X133302500Y-49152000D01*
X133262500Y-59020000D02*
X133262500Y-49184000D01*
X133222500Y-58987000D02*
X133222500Y-49217000D01*
X133182500Y-58954000D02*
X133182500Y-49250000D01*
X133142500Y-58921000D02*
X133142500Y-49283000D01*
X133102500Y-58887000D02*
X133102500Y-49317000D01*
X133062500Y-58852000D02*
X133062500Y-49352000D01*
X133022500Y-58816000D02*
X133022500Y-49388000D01*
X132982500Y-58780000D02*
X132982500Y-49424000D01*
X132942500Y-58744000D02*
X132942500Y-49460000D01*
X132902500Y-58707000D02*
X132902500Y-49497000D01*
X132862500Y-58669000D02*
X132862500Y-49535000D01*
X132822500Y-58630000D02*
X132822500Y-49574000D01*
X132782500Y-58591000D02*
X132782500Y-49613000D01*
X132742500Y-58551000D02*
X132742500Y-49653000D01*
X132702500Y-58510000D02*
X132702500Y-49694000D01*
X132662500Y-58469000D02*
X132662500Y-49735000D01*
X132622500Y-58427000D02*
X132622500Y-49777000D01*
X132582500Y-58384000D02*
X132582500Y-49820000D01*
X132542500Y-58340000D02*
X132542500Y-49864000D01*
X132502500Y-58296000D02*
X132502500Y-49908000D01*
X132462500Y-58250000D02*
X132462500Y-49954000D01*
X132422500Y-58204000D02*
X132422500Y-50000000D01*
X132382500Y-58157000D02*
X132382500Y-50047000D01*
X132342500Y-58109000D02*
X132342500Y-50095000D01*
X132302500Y-58059000D02*
X132302500Y-50145000D01*
X132262500Y-58009000D02*
X132262500Y-50195000D01*
X132222500Y-57958000D02*
X132222500Y-50246000D01*
X132182500Y-57906000D02*
X132182500Y-50298000D01*
X132142500Y-57852000D02*
X132142500Y-50352000D01*
X132102500Y-57798000D02*
X132102500Y-50406000D01*
X132062500Y-57742000D02*
X132062500Y-50462000D01*
X132022500Y-57685000D02*
X132022500Y-50519000D01*
X131982500Y-57626000D02*
X131982500Y-50578000D01*
X131942500Y-57566000D02*
X131942500Y-50638000D01*
X131902500Y-57504000D02*
X131902500Y-50700000D01*
X131862500Y-57441000D02*
X131862500Y-50763000D01*
X131822500Y-57377000D02*
X131822500Y-50827000D01*
X131782500Y-57310000D02*
X131782500Y-50894000D01*
X131742500Y-57242000D02*
X131742500Y-50962000D01*
X131702500Y-57171000D02*
X131702500Y-51033000D01*
X131662500Y-57098000D02*
X131662500Y-51106000D01*
X131622500Y-57023000D02*
X131622500Y-51181000D01*
X131582500Y-56946000D02*
X131582500Y-51258000D01*
X131542500Y-56866000D02*
X131542500Y-51338000D01*
X131502500Y-56783000D02*
X131502500Y-51421000D01*
X131462500Y-56696000D02*
X131462500Y-51508000D01*
X131422500Y-56606000D02*
X131422500Y-51598000D01*
X131382500Y-56512000D02*
X131382500Y-51692000D01*
X131342500Y-56414000D02*
X131342500Y-51790000D01*
X131302500Y-56311000D02*
X131302500Y-51893000D01*
X131262500Y-56202000D02*
X131262500Y-52002000D01*
X131222500Y-56086000D02*
X131222500Y-52118000D01*
X131182500Y-55963000D02*
X131182500Y-52241000D01*
X131142500Y-55830000D02*
X131142500Y-52374000D01*
X131102500Y-55685000D02*
X131102500Y-52519000D01*
X131062500Y-55524000D02*
X131062500Y-52680000D01*
X131022500Y-55343000D02*
X131022500Y-52861000D01*
X130982500Y-55130000D02*
X130982500Y-53074000D01*
X130942500Y-54859000D02*
X130942500Y-53345000D01*
X130902500Y-54419000D02*
X130902500Y-53785000D01*
X144080582Y-57677000D02*
X142830582Y-57677000D01*
X143455582Y-58302000D02*
X143455582Y-57052000D01*
X126439500Y-70846500D02*
X126439500Y-66726500D01*
X116379500Y-70846500D02*
X126439500Y-70846500D01*
X114319500Y-66726500D02*
X126439500Y-66726500D01*
X116379500Y-70846500D02*
X116379500Y-68786500D01*
X116379500Y-68786500D02*
X114319500Y-68786500D01*
X114319500Y-68786500D02*
X114319500Y-66726500D01*
X115379500Y-70846500D02*
X114319500Y-70846500D01*
X114319500Y-70846500D02*
X114319500Y-69786500D01*
X109349704Y-47762074D02*
X110259477Y-50261657D01*
X109349704Y-47762074D02*
X97359226Y-52126251D01*
X97359226Y-52126251D02*
X98268999Y-54625834D01*
X110259477Y-50261657D02*
X98268999Y-54625834D01*
X112702678Y-49372404D02*
X111452887Y-49827291D01*
X112247791Y-48122613D02*
X112702678Y-49372404D01*
X156597000Y-63689500D02*
X156597000Y-63379500D01*
X156597000Y-63379500D02*
X149727000Y-63379500D01*
X149727000Y-63379500D02*
X149727000Y-63689500D01*
X156597000Y-65209500D02*
X156597000Y-70969500D01*
X156597000Y-70969500D02*
X155177000Y-70969500D01*
X155177000Y-70969500D02*
X155177000Y-70469500D01*
X155177000Y-70469500D02*
X151147000Y-70469500D01*
X151147000Y-70469500D02*
X151147000Y-70969500D01*
X151147000Y-70969500D02*
X149727000Y-70969500D01*
X149727000Y-70969500D02*
X149727000Y-65209500D01*
X90648383Y-79904975D02*
X90282699Y-79539291D01*
X91652475Y-78900883D02*
X91286791Y-78535199D01*
X147068000Y-140451721D02*
X147068000Y-140777279D01*
X146048000Y-140451721D02*
X146048000Y-140777279D01*
X118423400Y-141342400D02*
X118423400Y-130742400D01*
X129023400Y-130742400D02*
X129023400Y-141342400D01*
X119231500Y-53325500D02*
X119231500Y-53635500D01*
X119231500Y-53635500D02*
X129101500Y-53635500D01*
X129101500Y-53635500D02*
X129101500Y-53325500D01*
X119231500Y-51805500D02*
X119231500Y-46045500D01*
X119231500Y-46045500D02*
X120651500Y-46045500D01*
X120651500Y-46045500D02*
X120651500Y-46545500D01*
X120651500Y-46545500D02*
X127681500Y-46545500D01*
X127681500Y-46545500D02*
X127681500Y-46045500D01*
X127681500Y-46045500D02*
X129101500Y-46045500D01*
X129101500Y-46045500D02*
X129101500Y-51805500D01*
D11*
X121623400Y-146470400D02*
X125823400Y-146470400D01*
X125823400Y-146470400D02*
X125823400Y-141870400D01*
X125823400Y-141870400D02*
X121723400Y-141870400D01*
D10*
X121723400Y-141870400D02*
X121623400Y-141870400D01*
D11*
X121623400Y-141870400D02*
X121623400Y-146470400D01*
D12*
X121623400Y-146970400D02*
G75*
G03*
X121623400Y-146970400I-100000J0D01*
G01*
D10*
X150520000Y-141442000D02*
X150520000Y-139642000D01*
X147300000Y-139642000D02*
X147300000Y-142592000D01*
D11*
X147973376Y-61556856D02*
X151155356Y-58374876D01*
X143253438Y-58427909D02*
X147230914Y-54450433D01*
X104587500Y-140843000D02*
G75*
G03*
X104587500Y-140843000I-1400000J0D01*
G01*
X130622500Y-149796500D02*
G75*
G03*
X130622500Y-149796500I-1400000J0D01*
G01*
X156911500Y-129603500D02*
G75*
G03*
X156911500Y-129603500I-1400000J0D01*
G01*
X150434500Y-129667000D02*
G75*
G03*
X150434500Y-129667000I-1400000J0D01*
G01*
X162880500Y-129413000D02*
G75*
G03*
X162880500Y-129413000I-1400000J0D01*
G01*
X116716000Y-127952500D02*
G75*
G03*
X116716000Y-127952500I-1400000J0D01*
G01*
D10*
X119920500Y-57613500D02*
X119920500Y-56813500D01*
X121760500Y-57613500D02*
X121760500Y-56813500D01*
X85142000Y-116956578D02*
X85142000Y-116439422D01*
X86562000Y-116956578D02*
X86562000Y-116439422D01*
X84196422Y-108256000D02*
X84713578Y-108256000D01*
X84196422Y-109676000D02*
X84713578Y-109676000D01*
X81141500Y-110416078D02*
X81141500Y-109898922D01*
X82561500Y-110416078D02*
X82561500Y-109898922D01*
X145418000Y-142474000D02*
X145418000Y-139974000D01*
X137018000Y-139974000D02*
X137018000Y-142474000D01*
X94978500Y-82568000D02*
X94378500Y-82568000D01*
X95678500Y-80468000D02*
X95678500Y-81868000D01*
X94378500Y-79768000D02*
X94978500Y-79768000D01*
X93678500Y-81868000D02*
X93678500Y-80468000D01*
X94378500Y-82568000D02*
G75*
G02*
X93678500Y-81868000I0J700000D01*
G01*
X95678500Y-81868000D02*
G75*
G02*
X94978500Y-82568000I-700000J0D01*
G01*
X94978500Y-79768000D02*
G75*
G02*
X95678500Y-80468000I0J-700000D01*
G01*
X93678500Y-80468000D02*
G75*
G02*
X94378500Y-79768000I700000J0D01*
G01*
X79484000Y-89644500D02*
X79484000Y-89044500D01*
X81584000Y-90344500D02*
X80184000Y-90344500D01*
X82284000Y-89044500D02*
X82284000Y-89644500D01*
X80184000Y-88344500D02*
X81584000Y-88344500D01*
X79484000Y-89044500D02*
G75*
G02*
X80184000Y-88344500I700000J0D01*
G01*
X80184000Y-90344500D02*
G75*
G02*
X79484000Y-89644500I0J700000D01*
G01*
X82284000Y-89644500D02*
G75*
G02*
X81584000Y-90344500I-700000J0D01*
G01*
X81584000Y-88344500D02*
G75*
G02*
X82284000Y-89044500I0J-700000D01*
G01*
X113551205Y-143491392D02*
X113631439Y-143191955D01*
X113631439Y-143191955D02*
X106995528Y-141413868D01*
X106995528Y-141413868D02*
X106915294Y-141713305D01*
X113157800Y-144959599D02*
X111667002Y-150523332D01*
X111667002Y-150523332D02*
X110295387Y-150155809D01*
X110295387Y-150155809D02*
X110424797Y-149672846D01*
X110424797Y-149672846D02*
X106532116Y-148629805D01*
X106532116Y-148629805D02*
X106402706Y-149112768D01*
X106402706Y-149112768D02*
X105031092Y-148745245D01*
X105031092Y-148745245D02*
X106521889Y-143181512D01*
X95390664Y-134776967D02*
X95589929Y-134539493D01*
X95589929Y-134539493D02*
X90327203Y-130123542D01*
X90327203Y-130123542D02*
X90127939Y-130361016D01*
X94413627Y-135941354D02*
X90711171Y-140353770D01*
X90711171Y-140353770D02*
X89623388Y-139441012D01*
X89623388Y-139441012D02*
X89944781Y-139057989D01*
X89944781Y-139057989D02*
X86857622Y-136467555D01*
X86857622Y-136467555D02*
X86536228Y-136850578D01*
X86536228Y-136850578D02*
X85448445Y-135937819D01*
X85448445Y-135937819D02*
X89150902Y-131525403D01*
X79784795Y-115336149D02*
X80076099Y-115230123D01*
X80076099Y-115230123D02*
X77726421Y-108774435D01*
X77726421Y-108774435D02*
X77435116Y-108880461D01*
X78356462Y-115856020D02*
X72943832Y-117826056D01*
X72943832Y-117826056D02*
X72458164Y-116491693D01*
X72458164Y-116491693D02*
X72928010Y-116320683D01*
X72928010Y-116320683D02*
X71549669Y-112533721D01*
X71549669Y-112533721D02*
X71079822Y-112704731D01*
X71079822Y-112704731D02*
X70594154Y-111370368D01*
X70594154Y-111370368D02*
X76006783Y-109400332D01*
X88561584Y-129175661D02*
X88799058Y-128976397D01*
X88799058Y-128976397D02*
X84383107Y-123713671D01*
X84383107Y-123713671D02*
X84145633Y-123912936D01*
X87397197Y-130152698D02*
X82984781Y-133855155D01*
X82984781Y-133855155D02*
X82072022Y-132767372D01*
X82072022Y-132767372D02*
X82455045Y-132445978D01*
X82455045Y-132445978D02*
X79864611Y-129358819D01*
X79864611Y-129358819D02*
X79481588Y-129680212D01*
X79481588Y-129680212D02*
X78568830Y-128592429D01*
X78568830Y-128592429D02*
X82981246Y-124889973D01*
X123654000Y-59836500D02*
X124714000Y-59836500D01*
X123654000Y-60896500D02*
X123654000Y-59836500D01*
X125714000Y-59836500D02*
X127774000Y-59836500D01*
X125714000Y-61896500D02*
X125714000Y-59836500D01*
X123654000Y-61896500D02*
X125714000Y-61896500D01*
X127774000Y-59836500D02*
X127774000Y-63956500D01*
X123654000Y-61896500D02*
X123654000Y-63956500D01*
X123654000Y-63956500D02*
X127774000Y-63956500D01*
X83715019Y-122493997D02*
X83983487Y-122338997D01*
X83983487Y-122338997D02*
X80548487Y-116389403D01*
X80548487Y-116389403D02*
X80280019Y-116544403D01*
X82398661Y-123253997D02*
X77410354Y-126133997D01*
X77410354Y-126133997D02*
X76700354Y-124904241D01*
X76700354Y-124904241D02*
X77133367Y-124654241D01*
X77133367Y-124654241D02*
X75118367Y-121164159D01*
X75118367Y-121164159D02*
X74685354Y-121414159D01*
X74685354Y-121414159D02*
X73975354Y-120184403D01*
X73975354Y-120184403D02*
X78963661Y-117304403D01*
X117840000Y-45427500D02*
X117840000Y-47698500D01*
X117840000Y-49456500D02*
X117840000Y-56827500D01*
X114640000Y-45427500D02*
X114640000Y-52799500D01*
X114640000Y-54556500D02*
X114640000Y-56827500D01*
X117840000Y-45427500D02*
X114640000Y-45427500D01*
X117840000Y-56827500D02*
X114640000Y-56827500D01*
X96663000Y-143802500D02*
X96663000Y-141531500D01*
X96663000Y-139773500D02*
X96663000Y-132402500D01*
X99863000Y-143802500D02*
X99863000Y-136430500D01*
X99863000Y-134673500D02*
X99863000Y-132402500D01*
X96663000Y-143802500D02*
X99863000Y-143802500D01*
X96663000Y-132402500D02*
X99863000Y-132402500D01*
X80131212Y-67244502D02*
X82188042Y-68970387D01*
X82188042Y-68970387D02*
X83422194Y-67499581D01*
X83422194Y-67499581D02*
X81365365Y-65773697D01*
X78519170Y-69775038D02*
X80718593Y-71315090D01*
X80718593Y-71315090D02*
X81819860Y-69742318D01*
X81819860Y-69742318D02*
X79620436Y-68202266D01*
X81954000Y-115839000D02*
X83654000Y-115839000D01*
X83654000Y-115839000D02*
X83654000Y-112689000D01*
X81954000Y-115839000D02*
X81954000Y-112689000D01*
X117731000Y-133631721D02*
X117731000Y-133957279D01*
X116711000Y-133631721D02*
X116711000Y-133957279D01*
X131002500Y-133377721D02*
X131002500Y-133703279D01*
X129982500Y-133377721D02*
X129982500Y-133703279D01*
X134472000Y-140368564D02*
X134472000Y-139164436D01*
X136292000Y-140368564D02*
X136292000Y-139164436D01*
X123192000Y-148236721D02*
X123192000Y-148562279D01*
X122172000Y-148236721D02*
X122172000Y-148562279D01*
X120076500Y-143253779D02*
X120076500Y-142928221D01*
X121096500Y-143253779D02*
X121096500Y-142928221D01*
X151881721Y-136777000D02*
X152207279Y-136777000D01*
X151881721Y-137797000D02*
X152207279Y-137797000D01*
X126388400Y-143291679D02*
X126388400Y-142966121D01*
X127408400Y-143291679D02*
X127408400Y-142966121D01*
X151919721Y-135062500D02*
X152245279Y-135062500D01*
X151919721Y-136082500D02*
X152245279Y-136082500D01*
X132360500Y-144505136D02*
X132360500Y-145709264D01*
X129640500Y-144505136D02*
X129640500Y-145709264D01*
X118225400Y-143314336D02*
X118225400Y-144518464D01*
X115505400Y-143314336D02*
X115505400Y-144518464D01*
X96318000Y-80141578D02*
X96318000Y-79624422D01*
X97738000Y-80141578D02*
X97738000Y-79624422D01*
X82688500Y-79052922D02*
X82688500Y-79570078D01*
X81268500Y-79052922D02*
X81268500Y-79570078D01*
D11*
X78102815Y-79763168D02*
X78750178Y-80065038D01*
X78859526Y-80168570D01*
X78905592Y-80295134D01*
X78888375Y-80444732D01*
X78848126Y-80531047D01*
X78505309Y-78900018D02*
X78304062Y-79331593D01*
X78715513Y-79575997D01*
X78692480Y-79512715D01*
X78689572Y-79406276D01*
X78790195Y-79190488D01*
X78873602Y-79124298D01*
X78936884Y-79101265D01*
X79043324Y-79098357D01*
X79259111Y-79198980D01*
X79325302Y-79282387D01*
X79348335Y-79345669D01*
X79351243Y-79452109D01*
X79250619Y-79667896D01*
X79167212Y-79734087D01*
X79103930Y-79757120D01*
X86859393Y-88380469D02*
X86792049Y-88380469D01*
X86657362Y-88313125D01*
X86590019Y-88245782D01*
X86522675Y-88111095D01*
X86522675Y-87976408D01*
X86556347Y-87875393D01*
X86657362Y-87707034D01*
X86758377Y-87606019D01*
X86926736Y-87505003D01*
X87027751Y-87471332D01*
X87162438Y-87471332D01*
X87297125Y-87538675D01*
X87364469Y-87606019D01*
X87431812Y-87740706D01*
X87431812Y-87808049D01*
X87465484Y-89121248D02*
X87061423Y-88717187D01*
X87263454Y-88919217D02*
X87970561Y-88212110D01*
X87802202Y-88245782D01*
X87667515Y-88245782D01*
X87566500Y-88212110D01*
X88138919Y-89794683D02*
X87734858Y-89390622D01*
X87936889Y-89592652D02*
X88643996Y-88885545D01*
X88475637Y-88919217D01*
X88340950Y-88919217D01*
X88239935Y-88885545D01*
X93907893Y-69647969D02*
X93840549Y-69647969D01*
X93705862Y-69580625D01*
X93638519Y-69513282D01*
X93571175Y-69378595D01*
X93571175Y-69243908D01*
X93604847Y-69142893D01*
X93705862Y-68974534D01*
X93806877Y-68873519D01*
X93975236Y-68772503D01*
X94076251Y-68738832D01*
X94210938Y-68738832D01*
X94345625Y-68806175D01*
X94412969Y-68873519D01*
X94480312Y-69008206D01*
X94480312Y-69075549D01*
X94513984Y-70388748D02*
X94109923Y-69984687D01*
X94311954Y-70186717D02*
X95019061Y-69479610D01*
X94850702Y-69513282D01*
X94716015Y-69513282D01*
X94615000Y-69479610D01*
X95658824Y-70119374D02*
X95726167Y-70186717D01*
X95759839Y-70287732D01*
X95759839Y-70355076D01*
X95726167Y-70456091D01*
X95625152Y-70624450D01*
X95456793Y-70792809D01*
X95288435Y-70893824D01*
X95187419Y-70927496D01*
X95120076Y-70927496D01*
X95019061Y-70893824D01*
X94951717Y-70826480D01*
X94918045Y-70725465D01*
X94918045Y-70658122D01*
X94951717Y-70557106D01*
X95052732Y-70388748D01*
X95221091Y-70220389D01*
X95389450Y-70119374D01*
X95490465Y-70085702D01*
X95557809Y-70085702D01*
X95658824Y-70119374D01*
X107718975Y-59498559D02*
X107869503Y-59494446D01*
X108093240Y-59413013D01*
X108166447Y-59335692D01*
X108194908Y-59274658D01*
X108207082Y-59168877D01*
X108174509Y-59079383D01*
X108097188Y-59006175D01*
X108036154Y-58977714D01*
X107930373Y-58965540D01*
X107735097Y-58985940D01*
X107629316Y-58973766D01*
X107568282Y-58945305D01*
X107490961Y-58872097D01*
X107458388Y-58782603D01*
X107470562Y-58676822D01*
X107499022Y-58615788D01*
X107572230Y-58538467D01*
X107795967Y-58457034D01*
X107946495Y-58452921D01*
X108243439Y-58294167D02*
X108809196Y-59152426D01*
X108743885Y-58416071D01*
X109167174Y-59022133D01*
X109048890Y-58001007D01*
X110241108Y-58631253D02*
X109704141Y-58826693D01*
X109972625Y-58728973D02*
X109630605Y-57789280D01*
X109589970Y-57956095D01*
X109533049Y-58078163D01*
X109459841Y-58155484D01*
D13*
X87939666Y-96686404D02*
X86273000Y-94305452D01*
X85082523Y-96686404D02*
X85082523Y-91686404D01*
X86987285Y-91686404D01*
X87463476Y-91924500D01*
X87701571Y-92162595D01*
X87939666Y-92638785D01*
X87939666Y-93353071D01*
X87701571Y-93829261D01*
X87463476Y-94067357D01*
X86987285Y-94305452D01*
X85082523Y-94305452D01*
X92463476Y-91686404D02*
X90082523Y-91686404D01*
X89844428Y-94067357D01*
X90082523Y-93829261D01*
X90558714Y-93591166D01*
X91749190Y-93591166D01*
X92225380Y-93829261D01*
X92463476Y-94067357D01*
X92701571Y-94543547D01*
X92701571Y-95734023D01*
X92463476Y-96210214D01*
X92225380Y-96448309D01*
X91749190Y-96686404D01*
X90558714Y-96686404D01*
X90082523Y-96448309D01*
X89844428Y-96210214D01*
D11*
X75840041Y-90485850D02*
X75792422Y-90533469D01*
X75649565Y-90581088D01*
X75554327Y-90581088D01*
X75411469Y-90533469D01*
X75316231Y-90438231D01*
X75268612Y-90342993D01*
X75220993Y-90152517D01*
X75220993Y-90009660D01*
X75268612Y-89819184D01*
X75316231Y-89723946D01*
X75411469Y-89628708D01*
X75554327Y-89581088D01*
X75649565Y-89581088D01*
X75792422Y-89628708D01*
X75840041Y-89676327D01*
X76411469Y-90009660D02*
X76316231Y-89962041D01*
X76268612Y-89914422D01*
X76220993Y-89819184D01*
X76220993Y-89771565D01*
X76268612Y-89676327D01*
X76316231Y-89628708D01*
X76411469Y-89581088D01*
X76601946Y-89581088D01*
X76697184Y-89628708D01*
X76744803Y-89676327D01*
X76792422Y-89771565D01*
X76792422Y-89819184D01*
X76744803Y-89914422D01*
X76697184Y-89962041D01*
X76601946Y-90009660D01*
X76411469Y-90009660D01*
X76316231Y-90057279D01*
X76268612Y-90104898D01*
X76220993Y-90200136D01*
X76220993Y-90390612D01*
X76268612Y-90485850D01*
X76316231Y-90533469D01*
X76411469Y-90581088D01*
X76601946Y-90581088D01*
X76697184Y-90533469D01*
X76744803Y-90485850D01*
X76792422Y-90390612D01*
X76792422Y-90200136D01*
X76744803Y-90104898D01*
X76697184Y-90057279D01*
X76601946Y-90009660D01*
X97649312Y-118849453D02*
X98363598Y-118849453D01*
X98506455Y-118897072D01*
X98601693Y-118992310D01*
X98649312Y-119135167D01*
X98649312Y-119230405D01*
X97744551Y-118420881D02*
X97696932Y-118373262D01*
X97649312Y-118278024D01*
X97649312Y-118039929D01*
X97696932Y-117944691D01*
X97744551Y-117897072D01*
X97839789Y-117849453D01*
X97935027Y-117849453D01*
X98077884Y-117897072D01*
X98649312Y-118468500D01*
X98649312Y-117849453D01*
X112696666Y-60031380D02*
X112696666Y-60745666D01*
X112649047Y-60888523D01*
X112553809Y-60983761D01*
X112410952Y-61031380D01*
X112315714Y-61031380D01*
X113315714Y-60459952D02*
X113220476Y-60412333D01*
X113172857Y-60364714D01*
X113125238Y-60269476D01*
X113125238Y-60221857D01*
X113172857Y-60126619D01*
X113220476Y-60079000D01*
X113315714Y-60031380D01*
X113506190Y-60031380D01*
X113601428Y-60079000D01*
X113649047Y-60126619D01*
X113696666Y-60221857D01*
X113696666Y-60269476D01*
X113649047Y-60364714D01*
X113601428Y-60412333D01*
X113506190Y-60459952D01*
X113315714Y-60459952D01*
X113220476Y-60507571D01*
X113172857Y-60555190D01*
X113125238Y-60650428D01*
X113125238Y-60840904D01*
X113172857Y-60936142D01*
X113220476Y-60983761D01*
X113315714Y-61031380D01*
X113506190Y-61031380D01*
X113601428Y-60983761D01*
X113649047Y-60936142D01*
X113696666Y-60840904D01*
X113696666Y-60650428D01*
X113649047Y-60555190D01*
X113601428Y-60507571D01*
X113506190Y-60459952D01*
X83617049Y-71620312D02*
X83718064Y-71047893D01*
X83212988Y-71216251D02*
X83920095Y-70509145D01*
X84189469Y-70778519D01*
X84223141Y-70879534D01*
X84223141Y-70946877D01*
X84189469Y-71047893D01*
X84088454Y-71148908D01*
X83987438Y-71182580D01*
X83920095Y-71182580D01*
X83819080Y-71148908D01*
X83549706Y-70879534D01*
X84526187Y-71249923D02*
X84593530Y-71249923D01*
X84694545Y-71283595D01*
X84862904Y-71451954D01*
X84896576Y-71552969D01*
X84896576Y-71620312D01*
X84862904Y-71721328D01*
X84795561Y-71788671D01*
X84660874Y-71856015D01*
X83852751Y-71856015D01*
X84290484Y-72293748D01*
X84963919Y-72967183D02*
X84559858Y-72563122D01*
X84761889Y-72765152D02*
X85468996Y-72058045D01*
X85300637Y-72091717D01*
X85165950Y-72091717D01*
X85064935Y-72058045D01*
X95547866Y-56679351D02*
X96007000Y-57226525D01*
X96062348Y-57366569D01*
X96050609Y-57500744D01*
X95971783Y-57629049D01*
X95898827Y-57690267D01*
X96956698Y-56802608D02*
X96518958Y-57169915D01*
X96737828Y-56986261D02*
X96095040Y-56220217D01*
X96113910Y-56390870D01*
X96102172Y-56525044D01*
X96059824Y-56622740D01*
X97321481Y-56496518D02*
X97467394Y-56374083D01*
X97509742Y-56276386D01*
X97515611Y-56209299D01*
X97496741Y-56038646D01*
X97410783Y-55862124D01*
X97165912Y-55570298D01*
X97068216Y-55527950D01*
X97001128Y-55522081D01*
X96897563Y-55546820D01*
X96751650Y-55669256D01*
X96709302Y-55766952D01*
X96703433Y-55834039D01*
X96728172Y-55937605D01*
X96881217Y-56119997D01*
X96978913Y-56162344D01*
X97046000Y-56168214D01*
X97149566Y-56143474D01*
X97295479Y-56021038D01*
X97337827Y-55923342D01*
X97343696Y-55856255D01*
X97318957Y-55752689D01*
D14*
X137009500Y-62146285D02*
X136936928Y-62218857D01*
X136719214Y-62291428D01*
X136574071Y-62291428D01*
X136356357Y-62218857D01*
X136211214Y-62073714D01*
X136138642Y-61928571D01*
X136066071Y-61638285D01*
X136066071Y-61420571D01*
X136138642Y-61130285D01*
X136211214Y-60985142D01*
X136356357Y-60840000D01*
X136574071Y-60767428D01*
X136719214Y-60767428D01*
X136936928Y-60840000D01*
X137009500Y-60912571D01*
X138315785Y-61275428D02*
X138315785Y-62291428D01*
X137952928Y-60694857D02*
X137590071Y-61783428D01*
X138533500Y-61783428D01*
D11*
X113268166Y-71651880D02*
X113268166Y-72366166D01*
X113220547Y-72509023D01*
X113125309Y-72604261D01*
X112982452Y-72651880D01*
X112887214Y-72651880D01*
X114172928Y-71651880D02*
X113982452Y-71651880D01*
X113887214Y-71699500D01*
X113839595Y-71747119D01*
X113744357Y-71889976D01*
X113696738Y-72080452D01*
X113696738Y-72461404D01*
X113744357Y-72556642D01*
X113791976Y-72604261D01*
X113887214Y-72651880D01*
X114077690Y-72651880D01*
X114172928Y-72604261D01*
X114220547Y-72556642D01*
X114268166Y-72461404D01*
X114268166Y-72223309D01*
X114220547Y-72128071D01*
X114172928Y-72080452D01*
X114077690Y-72032833D01*
X113887214Y-72032833D01*
X113791976Y-72080452D01*
X113744357Y-72128071D01*
X113696738Y-72223309D01*
X111349213Y-50625325D02*
X111593513Y-51296534D01*
X111597626Y-51447062D01*
X111540705Y-51569130D01*
X111422749Y-51662737D01*
X111333255Y-51695311D01*
X112630926Y-51222997D02*
X112093958Y-51418437D01*
X112362442Y-51320717D02*
X112020422Y-50381025D01*
X111979787Y-50547840D01*
X111922866Y-50669908D01*
X111849658Y-50747228D01*
X149621976Y-62126880D02*
X149621976Y-62841166D01*
X149574357Y-62984023D01*
X149479119Y-63079261D01*
X149336261Y-63126880D01*
X149241023Y-63126880D01*
X150621976Y-63126880D02*
X150050547Y-63126880D01*
X150336261Y-63126880D02*
X150336261Y-62126880D01*
X150241023Y-62269738D01*
X150145785Y-62364976D01*
X150050547Y-62412595D01*
X150955309Y-62126880D02*
X151621976Y-62126880D01*
X151193404Y-63126880D01*
X91634459Y-77608156D02*
X91567115Y-77608156D01*
X91432428Y-77540812D01*
X91365085Y-77473469D01*
X91297741Y-77338782D01*
X91297741Y-77204095D01*
X91331413Y-77103080D01*
X91432428Y-76934721D01*
X91533443Y-76833706D01*
X91701802Y-76732690D01*
X91802817Y-76699019D01*
X91937504Y-76699019D01*
X92072191Y-76766362D01*
X92139535Y-76833706D01*
X92206878Y-76968393D01*
X92206878Y-77035736D01*
X92240550Y-78348935D02*
X91836489Y-77944874D01*
X92038520Y-78146904D02*
X92745627Y-77439797D01*
X92577268Y-77473469D01*
X92442581Y-77473469D01*
X92341566Y-77439797D01*
X93149688Y-77978545D02*
X93217031Y-77978545D01*
X93318046Y-78012217D01*
X93486405Y-78180576D01*
X93520077Y-78281591D01*
X93520077Y-78348935D01*
X93486405Y-78449950D01*
X93419062Y-78517293D01*
X93284375Y-78584637D01*
X92476253Y-78584637D01*
X92913985Y-79022370D01*
X146915142Y-137904457D02*
X146962761Y-137952076D01*
X147010380Y-138094933D01*
X147010380Y-138190171D01*
X146962761Y-138333028D01*
X146867523Y-138428266D01*
X146772285Y-138475885D01*
X146581809Y-138523504D01*
X146438952Y-138523504D01*
X146248476Y-138475885D01*
X146153238Y-138428266D01*
X146058000Y-138333028D01*
X146010380Y-138190171D01*
X146010380Y-138094933D01*
X146058000Y-137952076D01*
X146105619Y-137904457D01*
X146105619Y-137523504D02*
X146058000Y-137475885D01*
X146010380Y-137380647D01*
X146010380Y-137142552D01*
X146058000Y-137047314D01*
X146105619Y-136999695D01*
X146200857Y-136952076D01*
X146296095Y-136952076D01*
X146438952Y-136999695D01*
X147010380Y-137571123D01*
X147010380Y-136952076D01*
X146010380Y-136094933D02*
X146010380Y-136285409D01*
X146058000Y-136380647D01*
X146105619Y-136428266D01*
X146248476Y-136523504D01*
X146438952Y-136571123D01*
X146819904Y-136571123D01*
X146915142Y-136523504D01*
X146962761Y-136475885D01*
X147010380Y-136380647D01*
X147010380Y-136190171D01*
X146962761Y-136094933D01*
X146915142Y-136047314D01*
X146819904Y-135999695D01*
X146581809Y-135999695D01*
X146486571Y-136047314D01*
X146438952Y-136094933D01*
X146391333Y-136190171D01*
X146391333Y-136380647D01*
X146438952Y-136475885D01*
X146486571Y-136523504D01*
X146581809Y-136571123D01*
D12*
X123110666Y-129327161D02*
X122158285Y-129327161D01*
X122158285Y-127327161D01*
X123682095Y-127517638D02*
X123777333Y-127422400D01*
X123967809Y-127327161D01*
X124444000Y-127327161D01*
X124634476Y-127422400D01*
X124729714Y-127517638D01*
X124824952Y-127708114D01*
X124824952Y-127898590D01*
X124729714Y-128184304D01*
X123586857Y-129327161D01*
X124824952Y-129327161D01*
D11*
X124714476Y-54046880D02*
X124714476Y-54761166D01*
X124666857Y-54904023D01*
X124571619Y-54999261D01*
X124428761Y-55046880D01*
X124333523Y-55046880D01*
X125714476Y-55046880D02*
X125143047Y-55046880D01*
X125428761Y-55046880D02*
X125428761Y-54046880D01*
X125333523Y-54189738D01*
X125238285Y-54284976D01*
X125143047Y-54332595D01*
X126285904Y-54475452D02*
X126190666Y-54427833D01*
X126143047Y-54380214D01*
X126095428Y-54284976D01*
X126095428Y-54237357D01*
X126143047Y-54142119D01*
X126190666Y-54094500D01*
X126285904Y-54046880D01*
X126476380Y-54046880D01*
X126571619Y-54094500D01*
X126619238Y-54142119D01*
X126666857Y-54237357D01*
X126666857Y-54284976D01*
X126619238Y-54380214D01*
X126571619Y-54427833D01*
X126476380Y-54475452D01*
X126285904Y-54475452D01*
X126190666Y-54523071D01*
X126143047Y-54570690D01*
X126095428Y-54665928D01*
X126095428Y-54856404D01*
X126143047Y-54951642D01*
X126190666Y-54999261D01*
X126285904Y-55046880D01*
X126476380Y-55046880D01*
X126571619Y-54999261D01*
X126619238Y-54951642D01*
X126666857Y-54856404D01*
X126666857Y-54665928D01*
X126619238Y-54570690D01*
X126571619Y-54523071D01*
X126476380Y-54475452D01*
X125780895Y-140930380D02*
X125780895Y-141739904D01*
X125828514Y-141835142D01*
X125876133Y-141882761D01*
X125971371Y-141930380D01*
X126161847Y-141930380D01*
X126257085Y-141882761D01*
X126304704Y-141835142D01*
X126352323Y-141739904D01*
X126352323Y-140930380D01*
X127304704Y-140930380D02*
X126828514Y-140930380D01*
X126780895Y-141406571D01*
X126828514Y-141358952D01*
X126923752Y-141311333D01*
X127161847Y-141311333D01*
X127257085Y-141358952D01*
X127304704Y-141406571D01*
X127352323Y-141501809D01*
X127352323Y-141739904D01*
X127304704Y-141835142D01*
X127257085Y-141882761D01*
X127161847Y-141930380D01*
X126923752Y-141930380D01*
X126828514Y-141882761D01*
X126780895Y-141835142D01*
X147026380Y-144906904D02*
X147835904Y-144906904D01*
X147931142Y-144859285D01*
X147978761Y-144811666D01*
X148026380Y-144716428D01*
X148026380Y-144525952D01*
X147978761Y-144430714D01*
X147931142Y-144383095D01*
X147835904Y-144335476D01*
X147026380Y-144335476D01*
X147359714Y-143430714D02*
X148026380Y-143430714D01*
X146978761Y-143668809D02*
X147693047Y-143906904D01*
X147693047Y-143287857D01*
X143943557Y-55451544D02*
X144515977Y-56023964D01*
X144616992Y-56057636D01*
X144684336Y-56057636D01*
X144785351Y-56023964D01*
X144920038Y-55889277D01*
X144953710Y-55788262D01*
X144953710Y-55720918D01*
X144920038Y-55619903D01*
X144347618Y-55047483D01*
X144718008Y-54811781D02*
X144718008Y-54744438D01*
X144751679Y-54643422D01*
X144920038Y-54475064D01*
X145021053Y-54441392D01*
X145088397Y-54441392D01*
X145189412Y-54475064D01*
X145256756Y-54542407D01*
X145324099Y-54677094D01*
X145324099Y-55485216D01*
X145761832Y-55047483D01*
X105544928Y-143295428D02*
X105544928Y-142533523D01*
X105925880Y-142914476D02*
X105163976Y-142914476D01*
X105402071Y-141724000D02*
X105449690Y-141581142D01*
X105497309Y-141533523D01*
X105592547Y-141485904D01*
X105735404Y-141485904D01*
X105830642Y-141533523D01*
X105878261Y-141581142D01*
X105925880Y-141676380D01*
X105925880Y-142057333D01*
X104925880Y-142057333D01*
X104925880Y-141724000D01*
X104973500Y-141628761D01*
X105021119Y-141581142D01*
X105116357Y-141533523D01*
X105211595Y-141533523D01*
X105306833Y-141581142D01*
X105354452Y-141628761D01*
X105402071Y-141724000D01*
X105402071Y-142057333D01*
X105640166Y-141104952D02*
X105640166Y-140628761D01*
X105925880Y-141200190D02*
X104925880Y-140866857D01*
X105925880Y-140533523D01*
X104925880Y-140343047D02*
X104925880Y-139771619D01*
X105925880Y-140057333D02*
X104925880Y-140057333D01*
X104925880Y-139581142D02*
X104925880Y-139009714D01*
X105925880Y-139295428D02*
X104925880Y-139295428D01*
X131500226Y-150281955D02*
X130948268Y-150429851D01*
X131224247Y-150355903D02*
X130965428Y-149389977D01*
X130910409Y-149552616D01*
X130843065Y-149669258D01*
X130763397Y-149739904D01*
X131634028Y-149309424D02*
X131667699Y-149251103D01*
X131747368Y-149180457D01*
X131977350Y-149118833D01*
X132081668Y-149140180D01*
X132139989Y-149173852D01*
X132210635Y-149253520D01*
X132235284Y-149345513D01*
X132226262Y-149495827D01*
X131822201Y-150195682D01*
X132420155Y-150035460D01*
X132437315Y-148995586D02*
X133018109Y-149875239D01*
X133081265Y-148823040D01*
X133456727Y-149856309D02*
X134192670Y-149659114D01*
X134262431Y-148999536D02*
X134584406Y-148913263D01*
X134857968Y-149382250D02*
X134398003Y-149505497D01*
X134139184Y-148539572D01*
X134599149Y-148416324D01*
X135099390Y-148627377D02*
X135271936Y-149271328D01*
X135124039Y-148719370D02*
X135157711Y-148661049D01*
X135237379Y-148590403D01*
X135375369Y-148553429D01*
X135479686Y-148574776D01*
X135550332Y-148654444D01*
X135685904Y-149160405D01*
X153749595Y-127174928D02*
X154511500Y-127174928D01*
X154130547Y-127555880D02*
X154130547Y-126793976D01*
X154892452Y-126555880D02*
X155511500Y-126555880D01*
X155178166Y-126936833D01*
X155321023Y-126936833D01*
X155416261Y-126984452D01*
X155463880Y-127032071D01*
X155511500Y-127127309D01*
X155511500Y-127365404D01*
X155463880Y-127460642D01*
X155416261Y-127508261D01*
X155321023Y-127555880D01*
X155035309Y-127555880D01*
X154940071Y-127508261D01*
X154892452Y-127460642D01*
X155797214Y-126555880D02*
X156130547Y-127555880D01*
X156463880Y-126555880D01*
X156701976Y-126555880D02*
X157321023Y-126555880D01*
X156987690Y-126936833D01*
X157130547Y-126936833D01*
X157225785Y-126984452D01*
X157273404Y-127032071D01*
X157321023Y-127127309D01*
X157321023Y-127365404D01*
X157273404Y-127460642D01*
X157225785Y-127508261D01*
X157130547Y-127555880D01*
X156844833Y-127555880D01*
X156749595Y-127508261D01*
X156701976Y-127460642D01*
X147272595Y-127238428D02*
X148034500Y-127238428D01*
X147653547Y-127619380D02*
X147653547Y-126857476D01*
X149034500Y-127619380D02*
X148463071Y-127619380D01*
X148748785Y-127619380D02*
X148748785Y-126619380D01*
X148653547Y-126762238D01*
X148558309Y-126857476D01*
X148463071Y-126905095D01*
X149415452Y-126714619D02*
X149463071Y-126667000D01*
X149558309Y-126619380D01*
X149796404Y-126619380D01*
X149891642Y-126667000D01*
X149939261Y-126714619D01*
X149986880Y-126809857D01*
X149986880Y-126905095D01*
X149939261Y-127047952D01*
X149367833Y-127619380D01*
X149986880Y-127619380D01*
X150272595Y-126619380D02*
X150605928Y-127619380D01*
X150939261Y-126619380D01*
X160718595Y-126413000D02*
X160623357Y-126365380D01*
X160480500Y-126365380D01*
X160337642Y-126413000D01*
X160242404Y-126508238D01*
X160194785Y-126603476D01*
X160147166Y-126793952D01*
X160147166Y-126936809D01*
X160194785Y-127127285D01*
X160242404Y-127222523D01*
X160337642Y-127317761D01*
X160480500Y-127365380D01*
X160575738Y-127365380D01*
X160718595Y-127317761D01*
X160766214Y-127270142D01*
X160766214Y-126936809D01*
X160575738Y-126936809D01*
X161194785Y-127365380D02*
X161194785Y-126365380D01*
X161766214Y-127365380D01*
X161766214Y-126365380D01*
X162242404Y-127365380D02*
X162242404Y-126365380D01*
X162480500Y-126365380D01*
X162623357Y-126413000D01*
X162718595Y-126508238D01*
X162766214Y-126603476D01*
X162813833Y-126793952D01*
X162813833Y-126936809D01*
X162766214Y-127127285D01*
X162718595Y-127222523D01*
X162623357Y-127317761D01*
X162480500Y-127365380D01*
X162242404Y-127365380D01*
X110755371Y-126106228D02*
X111517276Y-126106228D01*
X111136323Y-126487180D02*
X111136323Y-125725276D01*
X112326800Y-125963371D02*
X112469657Y-126010990D01*
X112517276Y-126058609D01*
X112564895Y-126153847D01*
X112564895Y-126296704D01*
X112517276Y-126391942D01*
X112469657Y-126439561D01*
X112374419Y-126487180D01*
X111993466Y-126487180D01*
X111993466Y-125487180D01*
X112326800Y-125487180D01*
X112422038Y-125534800D01*
X112469657Y-125582419D01*
X112517276Y-125677657D01*
X112517276Y-125772895D01*
X112469657Y-125868133D01*
X112422038Y-125915752D01*
X112326800Y-125963371D01*
X111993466Y-125963371D01*
X112945847Y-126201466D02*
X113422038Y-126201466D01*
X112850609Y-126487180D02*
X113183942Y-125487180D01*
X113517276Y-126487180D01*
X113707752Y-125487180D02*
X114279180Y-125487180D01*
X113993466Y-126487180D02*
X113993466Y-125487180D01*
X114469657Y-125487180D02*
X115041085Y-125487180D01*
X114755371Y-126487180D02*
X114755371Y-125487180D01*
X123769380Y-57840476D02*
X123293190Y-58173809D01*
X123769380Y-58411904D02*
X122769380Y-58411904D01*
X122769380Y-58030952D01*
X122817000Y-57935714D01*
X122864619Y-57888095D01*
X122959857Y-57840476D01*
X123102714Y-57840476D01*
X123197952Y-57888095D01*
X123245571Y-57935714D01*
X123293190Y-58030952D01*
X123293190Y-58411904D01*
X123769380Y-57411904D02*
X122769380Y-57411904D01*
X123769380Y-56840476D01*
X122769380Y-56840476D01*
X122769380Y-56459523D02*
X122769380Y-55840476D01*
X123150333Y-56173809D01*
X123150333Y-56030952D01*
X123197952Y-55935714D01*
X123245571Y-55888095D01*
X123340809Y-55840476D01*
X123578904Y-55840476D01*
X123674142Y-55888095D01*
X123721761Y-55935714D01*
X123769380Y-56030952D01*
X123769380Y-56316666D01*
X123721761Y-56411904D01*
X123674142Y-56459523D01*
X121864380Y-151137857D02*
X121388190Y-151471190D01*
X121864380Y-151709285D02*
X120864380Y-151709285D01*
X120864380Y-151328333D01*
X120912000Y-151233095D01*
X120959619Y-151185476D01*
X121054857Y-151137857D01*
X121197714Y-151137857D01*
X121292952Y-151185476D01*
X121340571Y-151233095D01*
X121388190Y-151328333D01*
X121388190Y-151709285D01*
X120959619Y-150756904D02*
X120912000Y-150709285D01*
X120864380Y-150614047D01*
X120864380Y-150375952D01*
X120912000Y-150280714D01*
X120959619Y-150233095D01*
X121054857Y-150185476D01*
X121150095Y-150185476D01*
X121292952Y-150233095D01*
X121864380Y-150804523D01*
X121864380Y-150185476D01*
X120864380Y-149566428D02*
X120864380Y-149471190D01*
X120912000Y-149375952D01*
X120959619Y-149328333D01*
X121054857Y-149280714D01*
X121245333Y-149233095D01*
X121483428Y-149233095D01*
X121673904Y-149280714D01*
X121769142Y-149328333D01*
X121816761Y-149375952D01*
X121864380Y-149471190D01*
X121864380Y-149566428D01*
X121816761Y-149661666D01*
X121769142Y-149709285D01*
X121673904Y-149756904D01*
X121483428Y-149804523D01*
X121245333Y-149804523D01*
X121054857Y-149756904D01*
X120959619Y-149709285D01*
X120912000Y-149661666D01*
X120864380Y-149566428D01*
X120403880Y-151201357D02*
X119927690Y-151534690D01*
X120403880Y-151772785D02*
X119403880Y-151772785D01*
X119403880Y-151391833D01*
X119451500Y-151296595D01*
X119499119Y-151248976D01*
X119594357Y-151201357D01*
X119737214Y-151201357D01*
X119832452Y-151248976D01*
X119880071Y-151296595D01*
X119927690Y-151391833D01*
X119927690Y-151772785D01*
X120403880Y-150248976D02*
X120403880Y-150820404D01*
X120403880Y-150534690D02*
X119403880Y-150534690D01*
X119546738Y-150629928D01*
X119641976Y-150725166D01*
X119689595Y-150820404D01*
X120403880Y-149772785D02*
X120403880Y-149582309D01*
X120356261Y-149487071D01*
X120308642Y-149439452D01*
X120165785Y-149344214D01*
X119975309Y-149296595D01*
X119594357Y-149296595D01*
X119499119Y-149344214D01*
X119451500Y-149391833D01*
X119403880Y-149487071D01*
X119403880Y-149677547D01*
X119451500Y-149772785D01*
X119499119Y-149820404D01*
X119594357Y-149868023D01*
X119832452Y-149868023D01*
X119927690Y-149820404D01*
X119975309Y-149772785D01*
X120022928Y-149677547D01*
X120022928Y-149487071D01*
X119975309Y-149391833D01*
X119927690Y-149344214D01*
X119832452Y-149296595D01*
D15*
X124665619Y-151783142D02*
X124181809Y-152121809D01*
X124665619Y-152363714D02*
X123649619Y-152363714D01*
X123649619Y-151976666D01*
X123698000Y-151879904D01*
X123746380Y-151831523D01*
X123843142Y-151783142D01*
X123988285Y-151783142D01*
X124085047Y-151831523D01*
X124133428Y-151879904D01*
X124181809Y-151976666D01*
X124181809Y-152363714D01*
X124665619Y-150815523D02*
X124665619Y-151396095D01*
X124665619Y-151105809D02*
X123649619Y-151105809D01*
X123794761Y-151202571D01*
X123891523Y-151299333D01*
X123939904Y-151396095D01*
X124085047Y-150234952D02*
X124036666Y-150331714D01*
X123988285Y-150380095D01*
X123891523Y-150428476D01*
X123843142Y-150428476D01*
X123746380Y-150380095D01*
X123698000Y-150331714D01*
X123649619Y-150234952D01*
X123649619Y-150041428D01*
X123698000Y-149944666D01*
X123746380Y-149896285D01*
X123843142Y-149847904D01*
X123891523Y-149847904D01*
X123988285Y-149896285D01*
X124036666Y-149944666D01*
X124085047Y-150041428D01*
X124085047Y-150234952D01*
X124133428Y-150331714D01*
X124181809Y-150380095D01*
X124278571Y-150428476D01*
X124472095Y-150428476D01*
X124568857Y-150380095D01*
X124617238Y-150331714D01*
X124665619Y-150234952D01*
X124665619Y-150041428D01*
X124617238Y-149944666D01*
X124568857Y-149896285D01*
X124472095Y-149847904D01*
X124278571Y-149847904D01*
X124181809Y-149896285D01*
X124133428Y-149944666D01*
X124085047Y-150041428D01*
D11*
X126817380Y-149042357D02*
X126341190Y-149375690D01*
X126817380Y-149613785D02*
X125817380Y-149613785D01*
X125817380Y-149232833D01*
X125865000Y-149137595D01*
X125912619Y-149089976D01*
X126007857Y-149042357D01*
X126150714Y-149042357D01*
X126245952Y-149089976D01*
X126293571Y-149137595D01*
X126341190Y-149232833D01*
X126341190Y-149613785D01*
X126817380Y-148089976D02*
X126817380Y-148661404D01*
X126817380Y-148375690D02*
X125817380Y-148375690D01*
X125960238Y-148470928D01*
X126055476Y-148566166D01*
X126103095Y-148661404D01*
X125817380Y-147185214D02*
X125817380Y-147661404D01*
X126293571Y-147709023D01*
X126245952Y-147661404D01*
X126198333Y-147566166D01*
X126198333Y-147328071D01*
X126245952Y-147232833D01*
X126293571Y-147185214D01*
X126388809Y-147137595D01*
X126626904Y-147137595D01*
X126722142Y-147185214D01*
X126769761Y-147232833D01*
X126817380Y-147328071D01*
X126817380Y-147566166D01*
X126769761Y-147661404D01*
X126722142Y-147709023D01*
X128404880Y-146883357D02*
X127928690Y-147216690D01*
X128404880Y-147454785D02*
X127404880Y-147454785D01*
X127404880Y-147073833D01*
X127452500Y-146978595D01*
X127500119Y-146930976D01*
X127595357Y-146883357D01*
X127738214Y-146883357D01*
X127833452Y-146930976D01*
X127881071Y-146978595D01*
X127928690Y-147073833D01*
X127928690Y-147454785D01*
X128404880Y-145930976D02*
X128404880Y-146502404D01*
X128404880Y-146216690D02*
X127404880Y-146216690D01*
X127547738Y-146311928D01*
X127642976Y-146407166D01*
X127690595Y-146502404D01*
X127738214Y-145073833D02*
X128404880Y-145073833D01*
X127357261Y-145311928D02*
X128071547Y-145550023D01*
X128071547Y-144930976D01*
X88018880Y-116498666D02*
X87542690Y-116832000D01*
X88018880Y-117070095D02*
X87018880Y-117070095D01*
X87018880Y-116689142D01*
X87066500Y-116593904D01*
X87114119Y-116546285D01*
X87209357Y-116498666D01*
X87352214Y-116498666D01*
X87447452Y-116546285D01*
X87495071Y-116593904D01*
X87542690Y-116689142D01*
X87542690Y-117070095D01*
X87352214Y-115641523D02*
X88018880Y-115641523D01*
X86971261Y-115879619D02*
X87685547Y-116117714D01*
X87685547Y-115498666D01*
X84415333Y-107767380D02*
X84082000Y-107291190D01*
X83843904Y-107767380D02*
X83843904Y-106767380D01*
X84224857Y-106767380D01*
X84320095Y-106815000D01*
X84367714Y-106862619D01*
X84415333Y-106957857D01*
X84415333Y-107100714D01*
X84367714Y-107195952D01*
X84320095Y-107243571D01*
X84224857Y-107291190D01*
X83843904Y-107291190D01*
X84796285Y-106862619D02*
X84843904Y-106815000D01*
X84939142Y-106767380D01*
X85177238Y-106767380D01*
X85272476Y-106815000D01*
X85320095Y-106862619D01*
X85367714Y-106957857D01*
X85367714Y-107053095D01*
X85320095Y-107195952D01*
X84748666Y-107767380D01*
X85367714Y-107767380D01*
X80716380Y-109069166D02*
X80240190Y-109402500D01*
X80716380Y-109640595D02*
X79716380Y-109640595D01*
X79716380Y-109259642D01*
X79764000Y-109164404D01*
X79811619Y-109116785D01*
X79906857Y-109069166D01*
X80049714Y-109069166D01*
X80144952Y-109116785D01*
X80192571Y-109164404D01*
X80240190Y-109259642D01*
X80240190Y-109640595D01*
X80716380Y-108116785D02*
X80716380Y-108688214D01*
X80716380Y-108402500D02*
X79716380Y-108402500D01*
X79859238Y-108497738D01*
X79954476Y-108592976D01*
X80002095Y-108688214D01*
D12*
X140827166Y-136286761D02*
X139874785Y-136286761D01*
X139874785Y-134286761D01*
X142541452Y-136286761D02*
X141398595Y-136286761D01*
X141970023Y-136286761D02*
X141970023Y-134286761D01*
X141779547Y-134572476D01*
X141589071Y-134762952D01*
X141398595Y-134858190D01*
D11*
X92330880Y-82001333D02*
X93045166Y-82001333D01*
X93188023Y-82048952D01*
X93283261Y-82144190D01*
X93330880Y-82287047D01*
X93330880Y-82382285D01*
X93330880Y-81525142D02*
X92330880Y-81525142D01*
X92330880Y-81144190D01*
X92378500Y-81048952D01*
X92426119Y-81001333D01*
X92521357Y-80953714D01*
X92664214Y-80953714D01*
X92759452Y-81001333D01*
X92807071Y-81048952D01*
X92854690Y-81144190D01*
X92854690Y-81525142D01*
X92426119Y-80572761D02*
X92378500Y-80525142D01*
X92330880Y-80429904D01*
X92330880Y-80191809D01*
X92378500Y-80096571D01*
X92426119Y-80048952D01*
X92521357Y-80001333D01*
X92616595Y-80001333D01*
X92759452Y-80048952D01*
X93330880Y-80620380D01*
X93330880Y-80001333D01*
X81923000Y-92296833D02*
X81875380Y-92392071D01*
X81875380Y-92534928D01*
X81923000Y-92677785D01*
X82018238Y-92773023D01*
X82113476Y-92820642D01*
X82303952Y-92868261D01*
X82446809Y-92868261D01*
X82637285Y-92820642D01*
X82732523Y-92773023D01*
X82827761Y-92677785D01*
X82875380Y-92534928D01*
X82875380Y-92439690D01*
X82827761Y-92296833D01*
X82780142Y-92249214D01*
X82446809Y-92249214D01*
X82446809Y-92439690D01*
X82875380Y-91820642D02*
X81875380Y-91820642D01*
X82875380Y-91249214D01*
X81875380Y-91249214D01*
X82875380Y-90773023D02*
X81875380Y-90773023D01*
X81875380Y-90534928D01*
X81923000Y-90392071D01*
X82018238Y-90296833D01*
X82113476Y-90249214D01*
X82303952Y-90201595D01*
X82446809Y-90201595D01*
X82637285Y-90249214D01*
X82732523Y-90296833D01*
X82827761Y-90392071D01*
X82875380Y-90534928D01*
X82875380Y-90773023D01*
X82494428Y-89773023D02*
X82494428Y-89011119D01*
X81923000Y-88011119D02*
X81875380Y-88106357D01*
X81875380Y-88249214D01*
X81923000Y-88392071D01*
X82018238Y-88487309D01*
X82113476Y-88534928D01*
X82303952Y-88582547D01*
X82446809Y-88582547D01*
X82637285Y-88534928D01*
X82732523Y-88487309D01*
X82827761Y-88392071D01*
X82875380Y-88249214D01*
X82875380Y-88153976D01*
X82827761Y-88011119D01*
X82780142Y-87963500D01*
X82446809Y-87963500D01*
X82446809Y-88153976D01*
X82875380Y-87534928D02*
X81875380Y-87534928D01*
X82875380Y-86963500D01*
X81875380Y-86963500D01*
X82875380Y-86487309D02*
X81875380Y-86487309D01*
X81875380Y-86249214D01*
X81923000Y-86106357D01*
X82018238Y-86011119D01*
X82113476Y-85963500D01*
X82303952Y-85915880D01*
X82446809Y-85915880D01*
X82637285Y-85963500D01*
X82732523Y-86011119D01*
X82827761Y-86106357D01*
X82875380Y-86249214D01*
X82875380Y-86487309D01*
X82589666Y-85534928D02*
X82589666Y-85058738D01*
X82875380Y-85630166D02*
X81875380Y-85296833D01*
X82875380Y-84963500D01*
X112542194Y-149324720D02*
X112357323Y-150014667D01*
X112274352Y-150140332D01*
X112157710Y-150207675D01*
X112007396Y-150216697D01*
X111915403Y-150192048D01*
X113249301Y-150549465D02*
X112697343Y-150401568D01*
X112973322Y-150475517D02*
X113232141Y-149509591D01*
X113103174Y-149622931D01*
X112986531Y-149690274D01*
X112882214Y-149711621D01*
X113851442Y-149774130D02*
X113909763Y-149740458D01*
X114014081Y-149719111D01*
X114244063Y-149780734D01*
X114323731Y-149851380D01*
X114357403Y-149909702D01*
X114378750Y-150014019D01*
X114354101Y-150106012D01*
X114271130Y-150231677D01*
X113571276Y-150635738D01*
X114169230Y-150795959D01*
X92086271Y-140639747D02*
X91627137Y-141186922D01*
X91498832Y-141265748D01*
X91364657Y-141277486D01*
X91224614Y-141222138D01*
X91151657Y-141160920D01*
X92209528Y-142048579D02*
X91771788Y-141681272D01*
X91990658Y-141864926D02*
X92633446Y-141098881D01*
X92468662Y-141147098D01*
X92334488Y-141158837D01*
X92230922Y-141134097D01*
X92939094Y-142660758D02*
X92501354Y-142293451D01*
X92720224Y-142477104D02*
X93363012Y-141711060D01*
X93198228Y-141759277D01*
X93064054Y-141771016D01*
X92960488Y-141746276D01*
X72183220Y-107954498D02*
X71512011Y-108198798D01*
X71361482Y-108202911D01*
X71239414Y-108145990D01*
X71145807Y-108028035D01*
X71113234Y-107938540D01*
X71585547Y-109236211D02*
X71390107Y-108699244D01*
X71487827Y-108967727D02*
X72427520Y-108625707D01*
X72260705Y-108585073D01*
X72138637Y-108528152D01*
X72061316Y-108454944D01*
X72736967Y-109475905D02*
X72769540Y-109565400D01*
X72757366Y-109671181D01*
X72728905Y-109732215D01*
X72655697Y-109809536D01*
X72492995Y-109919430D01*
X72269259Y-110000863D01*
X72073983Y-110021262D01*
X71968202Y-110009088D01*
X71907168Y-109980628D01*
X71829847Y-109907420D01*
X71797274Y-109817925D01*
X71809448Y-109712144D01*
X71837908Y-109651110D01*
X71911116Y-109573790D01*
X72073819Y-109463896D01*
X72297555Y-109382462D01*
X72492831Y-109362063D01*
X72598612Y-109374237D01*
X72659646Y-109402697D01*
X72736967Y-109475905D01*
X84533237Y-134063449D02*
X83986063Y-134522583D01*
X83846019Y-134577931D01*
X83711845Y-134566192D01*
X83583539Y-134487366D01*
X83522322Y-134414410D01*
X84103891Y-135107498D02*
X84226327Y-135253411D01*
X84324023Y-135295759D01*
X84391110Y-135301628D01*
X84561763Y-135282758D01*
X84738285Y-135196800D01*
X85030112Y-134951929D01*
X85072460Y-134854233D01*
X85078329Y-134787145D01*
X85053589Y-134683580D01*
X84931154Y-134537667D01*
X84833457Y-134495319D01*
X84766370Y-134489450D01*
X84662805Y-134514189D01*
X84480413Y-134667234D01*
X84438065Y-134764930D01*
X84432196Y-134832017D01*
X84456936Y-134935583D01*
X84579371Y-135081496D01*
X84677068Y-135123844D01*
X84744155Y-135129713D01*
X84847720Y-135104973D01*
X121891100Y-59968365D02*
X121891100Y-60682651D01*
X121843481Y-60825508D01*
X121748243Y-60920746D01*
X121605386Y-60968365D01*
X121510148Y-60968365D01*
X122272053Y-59968365D02*
X122938719Y-59968365D01*
X122510148Y-60968365D01*
X78590385Y-126539115D02*
X77971795Y-126896258D01*
X77824268Y-126926447D01*
X77694170Y-126891587D01*
X77581502Y-126791679D01*
X77533883Y-126709200D01*
X78780861Y-126869029D02*
X79090385Y-127405140D01*
X78593804Y-127306941D01*
X78665232Y-127430659D01*
X78671612Y-127536947D01*
X78654182Y-127601996D01*
X78595513Y-127690855D01*
X78389317Y-127809902D01*
X78283029Y-127816282D01*
X78217980Y-127798852D01*
X78129121Y-127740183D01*
X77986264Y-127492747D01*
X77979884Y-127386459D01*
X77997314Y-127321410D01*
X113720571Y-53482833D02*
X113720571Y-53816166D01*
X114244380Y-53816166D02*
X113244380Y-53816166D01*
X113244380Y-53339976D01*
X113244380Y-53054261D02*
X113244380Y-52435214D01*
X113625333Y-52768547D01*
X113625333Y-52625690D01*
X113672952Y-52530452D01*
X113720571Y-52482833D01*
X113815809Y-52435214D01*
X114053904Y-52435214D01*
X114149142Y-52482833D01*
X114196761Y-52530452D01*
X114244380Y-52625690D01*
X114244380Y-52911404D01*
X114196761Y-53006642D01*
X114149142Y-53054261D01*
X95691571Y-138435833D02*
X95691571Y-138769166D01*
X96215380Y-138769166D02*
X95215380Y-138769166D01*
X95215380Y-138292976D01*
X96215380Y-137388214D02*
X96215380Y-137959642D01*
X96215380Y-137673928D02*
X95215380Y-137673928D01*
X95358238Y-137769166D01*
X95453476Y-137864404D01*
X95501095Y-137959642D01*
X83819105Y-69499698D02*
X83053060Y-68856911D01*
X83206105Y-68674519D01*
X83334410Y-68595693D01*
X83468585Y-68583954D01*
X83572150Y-68608694D01*
X83748672Y-68694651D01*
X83858107Y-68786478D01*
X83973412Y-68945392D01*
X84015759Y-69043088D01*
X84027498Y-69177263D01*
X83972150Y-69317307D01*
X83819105Y-69499698D01*
X83634630Y-68163823D02*
X84063155Y-67653126D01*
X84553719Y-68624219D01*
X81862214Y-71857087D02*
X81043062Y-71283510D01*
X81179628Y-71088474D01*
X81300575Y-70998766D01*
X81433216Y-70975377D01*
X81538543Y-70990997D01*
X81721885Y-71061242D01*
X81838907Y-71143181D01*
X81967623Y-71291441D01*
X82018324Y-71385075D01*
X82041712Y-71517716D01*
X81998780Y-71662051D01*
X81862214Y-71857087D01*
X81862457Y-70113293D02*
X81753204Y-70269322D01*
X81737585Y-70374650D01*
X81749279Y-70440970D01*
X81811675Y-70600924D01*
X81940391Y-70749184D01*
X82252449Y-70967689D01*
X82357776Y-70983308D01*
X82424097Y-70971614D01*
X82517730Y-70920913D01*
X82626983Y-70764884D01*
X82642602Y-70659556D01*
X82630908Y-70593236D01*
X82580207Y-70499602D01*
X82385170Y-70363037D01*
X82279843Y-70347418D01*
X82213522Y-70359112D01*
X82119889Y-70409813D01*
X82010636Y-70565842D01*
X81995017Y-70671170D01*
X82006711Y-70737490D01*
X82057412Y-70831124D01*
X84843880Y-115038095D02*
X83843880Y-115038095D01*
X83843880Y-114800000D01*
X83891500Y-114657142D01*
X83986738Y-114561904D01*
X84081976Y-114514285D01*
X84272452Y-114466666D01*
X84415309Y-114466666D01*
X84605785Y-114514285D01*
X84701023Y-114561904D01*
X84796261Y-114657142D01*
X84843880Y-114800000D01*
X84843880Y-115038095D01*
X84843880Y-113514285D02*
X84843880Y-114085714D01*
X84843880Y-113800000D02*
X83843880Y-113800000D01*
X83986738Y-113895238D01*
X84081976Y-113990476D01*
X84129595Y-114085714D01*
X116117642Y-133484857D02*
X116165261Y-133532476D01*
X116212880Y-133675333D01*
X116212880Y-133770571D01*
X116165261Y-133913428D01*
X116070023Y-134008666D01*
X115974785Y-134056285D01*
X115784309Y-134103904D01*
X115641452Y-134103904D01*
X115450976Y-134056285D01*
X115355738Y-134008666D01*
X115260500Y-133913428D01*
X115212880Y-133770571D01*
X115212880Y-133675333D01*
X115260500Y-133532476D01*
X115308119Y-133484857D01*
X115212880Y-133151523D02*
X115212880Y-132532476D01*
X115593833Y-132865809D01*
X115593833Y-132722952D01*
X115641452Y-132627714D01*
X115689071Y-132580095D01*
X115784309Y-132532476D01*
X116022404Y-132532476D01*
X116117642Y-132580095D01*
X116165261Y-132627714D01*
X116212880Y-132722952D01*
X116212880Y-133008666D01*
X116165261Y-133103904D01*
X116117642Y-133151523D01*
X115212880Y-132199142D02*
X115212880Y-131580095D01*
X115593833Y-131913428D01*
X115593833Y-131770571D01*
X115641452Y-131675333D01*
X115689071Y-131627714D01*
X115784309Y-131580095D01*
X116022404Y-131580095D01*
X116117642Y-131627714D01*
X116165261Y-131675333D01*
X116212880Y-131770571D01*
X116212880Y-132056285D01*
X116165261Y-132151523D01*
X116117642Y-132199142D01*
X132279642Y-134183357D02*
X132327261Y-134230976D01*
X132374880Y-134373833D01*
X132374880Y-134469071D01*
X132327261Y-134611928D01*
X132232023Y-134707166D01*
X132136785Y-134754785D01*
X131946309Y-134802404D01*
X131803452Y-134802404D01*
X131612976Y-134754785D01*
X131517738Y-134707166D01*
X131422500Y-134611928D01*
X131374880Y-134469071D01*
X131374880Y-134373833D01*
X131422500Y-134230976D01*
X131470119Y-134183357D01*
X131374880Y-133850023D02*
X131374880Y-133230976D01*
X131755833Y-133564309D01*
X131755833Y-133421452D01*
X131803452Y-133326214D01*
X131851071Y-133278595D01*
X131946309Y-133230976D01*
X132184404Y-133230976D01*
X132279642Y-133278595D01*
X132327261Y-133326214D01*
X132374880Y-133421452D01*
X132374880Y-133707166D01*
X132327261Y-133802404D01*
X132279642Y-133850023D01*
X132374880Y-132278595D02*
X132374880Y-132850023D01*
X132374880Y-132564309D02*
X131374880Y-132564309D01*
X131517738Y-132659547D01*
X131612976Y-132754785D01*
X131660595Y-132850023D01*
X135929642Y-136405857D02*
X135977261Y-136453476D01*
X136024880Y-136596333D01*
X136024880Y-136691571D01*
X135977261Y-136834428D01*
X135882023Y-136929666D01*
X135786785Y-136977285D01*
X135596309Y-137024904D01*
X135453452Y-137024904D01*
X135262976Y-136977285D01*
X135167738Y-136929666D01*
X135072500Y-136834428D01*
X135024880Y-136691571D01*
X135024880Y-136596333D01*
X135072500Y-136453476D01*
X135120119Y-136405857D01*
X135120119Y-136024904D02*
X135072500Y-135977285D01*
X135024880Y-135882047D01*
X135024880Y-135643952D01*
X135072500Y-135548714D01*
X135120119Y-135501095D01*
X135215357Y-135453476D01*
X135310595Y-135453476D01*
X135453452Y-135501095D01*
X136024880Y-136072523D01*
X136024880Y-135453476D01*
X136024880Y-134977285D02*
X136024880Y-134786809D01*
X135977261Y-134691571D01*
X135929642Y-134643952D01*
X135786785Y-134548714D01*
X135596309Y-134501095D01*
X135215357Y-134501095D01*
X135120119Y-134548714D01*
X135072500Y-134596333D01*
X135024880Y-134691571D01*
X135024880Y-134882047D01*
X135072500Y-134977285D01*
X135120119Y-135024904D01*
X135215357Y-135072523D01*
X135453452Y-135072523D01*
X135548690Y-135024904D01*
X135596309Y-134977285D01*
X135643928Y-134882047D01*
X135643928Y-134691571D01*
X135596309Y-134596333D01*
X135548690Y-134548714D01*
X135453452Y-134501095D01*
X118330742Y-147016742D02*
X118283123Y-147064361D01*
X118140266Y-147111980D01*
X118045028Y-147111980D01*
X117902171Y-147064361D01*
X117806933Y-146969123D01*
X117759314Y-146873885D01*
X117711695Y-146683409D01*
X117711695Y-146540552D01*
X117759314Y-146350076D01*
X117806933Y-146254838D01*
X117902171Y-146159600D01*
X118045028Y-146111980D01*
X118140266Y-146111980D01*
X118283123Y-146159600D01*
X118330742Y-146207219D01*
X118711695Y-146207219D02*
X118759314Y-146159600D01*
X118854552Y-146111980D01*
X119092647Y-146111980D01*
X119187885Y-146159600D01*
X119235504Y-146207219D01*
X119283123Y-146302457D01*
X119283123Y-146397695D01*
X119235504Y-146540552D01*
X118664076Y-147111980D01*
X119283123Y-147111980D01*
X119616457Y-146111980D02*
X120283123Y-146111980D01*
X119854552Y-147111980D01*
X123102642Y-151569657D02*
X123150261Y-151617276D01*
X123197880Y-151760133D01*
X123197880Y-151855371D01*
X123150261Y-151998228D01*
X123055023Y-152093466D01*
X122959785Y-152141085D01*
X122769309Y-152188704D01*
X122626452Y-152188704D01*
X122435976Y-152141085D01*
X122340738Y-152093466D01*
X122245500Y-151998228D01*
X122197880Y-151855371D01*
X122197880Y-151760133D01*
X122245500Y-151617276D01*
X122293119Y-151569657D01*
X122293119Y-151188704D02*
X122245500Y-151141085D01*
X122197880Y-151045847D01*
X122197880Y-150807752D01*
X122245500Y-150712514D01*
X122293119Y-150664895D01*
X122388357Y-150617276D01*
X122483595Y-150617276D01*
X122626452Y-150664895D01*
X123197880Y-151236323D01*
X123197880Y-150617276D01*
X122531214Y-149760133D02*
X123197880Y-149760133D01*
X122150261Y-149998228D02*
X122864547Y-150236323D01*
X122864547Y-149617276D01*
X119513642Y-143733857D02*
X119561261Y-143781476D01*
X119608880Y-143924333D01*
X119608880Y-144019571D01*
X119561261Y-144162428D01*
X119466023Y-144257666D01*
X119370785Y-144305285D01*
X119180309Y-144352904D01*
X119037452Y-144352904D01*
X118846976Y-144305285D01*
X118751738Y-144257666D01*
X118656500Y-144162428D01*
X118608880Y-144019571D01*
X118608880Y-143924333D01*
X118656500Y-143781476D01*
X118704119Y-143733857D01*
X118704119Y-143352904D02*
X118656500Y-143305285D01*
X118608880Y-143210047D01*
X118608880Y-142971952D01*
X118656500Y-142876714D01*
X118704119Y-142829095D01*
X118799357Y-142781476D01*
X118894595Y-142781476D01*
X119037452Y-142829095D01*
X119608880Y-143400523D01*
X119608880Y-142781476D01*
X118704119Y-142400523D02*
X118656500Y-142352904D01*
X118608880Y-142257666D01*
X118608880Y-142019571D01*
X118656500Y-141924333D01*
X118704119Y-141876714D01*
X118799357Y-141829095D01*
X118894595Y-141829095D01*
X119037452Y-141876714D01*
X119608880Y-142448142D01*
X119608880Y-141829095D01*
X154805142Y-137580642D02*
X154757523Y-137628261D01*
X154614666Y-137675880D01*
X154519428Y-137675880D01*
X154376571Y-137628261D01*
X154281333Y-137533023D01*
X154233714Y-137437785D01*
X154186095Y-137247309D01*
X154186095Y-137104452D01*
X154233714Y-136913976D01*
X154281333Y-136818738D01*
X154376571Y-136723500D01*
X154519428Y-136675880D01*
X154614666Y-136675880D01*
X154757523Y-136723500D01*
X154805142Y-136771119D01*
X155186095Y-136771119D02*
X155233714Y-136723500D01*
X155328952Y-136675880D01*
X155567047Y-136675880D01*
X155662285Y-136723500D01*
X155709904Y-136771119D01*
X155757523Y-136866357D01*
X155757523Y-136961595D01*
X155709904Y-137104452D01*
X155138476Y-137675880D01*
X155757523Y-137675880D01*
X156709904Y-137675880D02*
X156138476Y-137675880D01*
X156424190Y-137675880D02*
X156424190Y-136675880D01*
X156328952Y-136818738D01*
X156233714Y-136913976D01*
X156138476Y-136961595D01*
X128677942Y-143594057D02*
X128725561Y-143641676D01*
X128773180Y-143784533D01*
X128773180Y-143879771D01*
X128725561Y-144022628D01*
X128630323Y-144117866D01*
X128535085Y-144165485D01*
X128344609Y-144213104D01*
X128201752Y-144213104D01*
X128011276Y-144165485D01*
X127916038Y-144117866D01*
X127820800Y-144022628D01*
X127773180Y-143879771D01*
X127773180Y-143784533D01*
X127820800Y-143641676D01*
X127868419Y-143594057D01*
X127868419Y-143213104D02*
X127820800Y-143165485D01*
X127773180Y-143070247D01*
X127773180Y-142832152D01*
X127820800Y-142736914D01*
X127868419Y-142689295D01*
X127963657Y-142641676D01*
X128058895Y-142641676D01*
X128201752Y-142689295D01*
X128773180Y-143260723D01*
X128773180Y-142641676D01*
X127773180Y-142022628D02*
X127773180Y-141927390D01*
X127820800Y-141832152D01*
X127868419Y-141784533D01*
X127963657Y-141736914D01*
X128154133Y-141689295D01*
X128392228Y-141689295D01*
X128582704Y-141736914D01*
X128677942Y-141784533D01*
X128725561Y-141832152D01*
X128773180Y-141927390D01*
X128773180Y-142022628D01*
X128725561Y-142117866D01*
X128677942Y-142165485D01*
X128582704Y-142213104D01*
X128392228Y-142260723D01*
X128154133Y-142260723D01*
X127963657Y-142213104D01*
X127868419Y-142165485D01*
X127820800Y-142117866D01*
X127773180Y-142022628D01*
X154805142Y-135866142D02*
X154757523Y-135913761D01*
X154614666Y-135961380D01*
X154519428Y-135961380D01*
X154376571Y-135913761D01*
X154281333Y-135818523D01*
X154233714Y-135723285D01*
X154186095Y-135532809D01*
X154186095Y-135389952D01*
X154233714Y-135199476D01*
X154281333Y-135104238D01*
X154376571Y-135009000D01*
X154519428Y-134961380D01*
X154614666Y-134961380D01*
X154757523Y-135009000D01*
X154805142Y-135056619D01*
X155757523Y-135961380D02*
X155186095Y-135961380D01*
X155471809Y-135961380D02*
X155471809Y-134961380D01*
X155376571Y-135104238D01*
X155281333Y-135199476D01*
X155186095Y-135247095D01*
X156233714Y-135961380D02*
X156424190Y-135961380D01*
X156519428Y-135913761D01*
X156567047Y-135866142D01*
X156662285Y-135723285D01*
X156709904Y-135532809D01*
X156709904Y-135151857D01*
X156662285Y-135056619D01*
X156614666Y-135009000D01*
X156519428Y-134961380D01*
X156328952Y-134961380D01*
X156233714Y-135009000D01*
X156186095Y-135056619D01*
X156138476Y-135151857D01*
X156138476Y-135389952D01*
X156186095Y-135485190D01*
X156233714Y-135532809D01*
X156328952Y-135580428D01*
X156519428Y-135580428D01*
X156614666Y-135532809D01*
X156662285Y-135485190D01*
X156709904Y-135389952D01*
X133707142Y-146248357D02*
X133754761Y-146295976D01*
X133802380Y-146438833D01*
X133802380Y-146534071D01*
X133754761Y-146676928D01*
X133659523Y-146772166D01*
X133564285Y-146819785D01*
X133373809Y-146867404D01*
X133230952Y-146867404D01*
X133040476Y-146819785D01*
X132945238Y-146772166D01*
X132850000Y-146676928D01*
X132802380Y-146534071D01*
X132802380Y-146438833D01*
X132850000Y-146295976D01*
X132897619Y-146248357D01*
X133802380Y-145295976D02*
X133802380Y-145867404D01*
X133802380Y-145581690D02*
X132802380Y-145581690D01*
X132945238Y-145676928D01*
X133040476Y-145772166D01*
X133088095Y-145867404D01*
X133230952Y-144724547D02*
X133183333Y-144819785D01*
X133135714Y-144867404D01*
X133040476Y-144915023D01*
X132992857Y-144915023D01*
X132897619Y-144867404D01*
X132850000Y-144819785D01*
X132802380Y-144724547D01*
X132802380Y-144534071D01*
X132850000Y-144438833D01*
X132897619Y-144391214D01*
X132992857Y-144343595D01*
X133040476Y-144343595D01*
X133135714Y-144391214D01*
X133183333Y-144438833D01*
X133230952Y-144534071D01*
X133230952Y-144724547D01*
X133278571Y-144819785D01*
X133326190Y-144867404D01*
X133421428Y-144915023D01*
X133611904Y-144915023D01*
X133707142Y-144867404D01*
X133754761Y-144819785D01*
X133802380Y-144724547D01*
X133802380Y-144534071D01*
X133754761Y-144438833D01*
X133707142Y-144391214D01*
X133611904Y-144343595D01*
X133421428Y-144343595D01*
X133326190Y-144391214D01*
X133278571Y-144438833D01*
X133230952Y-144534071D01*
X115114342Y-144762457D02*
X115161961Y-144810076D01*
X115209580Y-144952933D01*
X115209580Y-145048171D01*
X115161961Y-145191028D01*
X115066723Y-145286266D01*
X114971485Y-145333885D01*
X114781009Y-145381504D01*
X114638152Y-145381504D01*
X114447676Y-145333885D01*
X114352438Y-145286266D01*
X114257200Y-145191028D01*
X114209580Y-145048171D01*
X114209580Y-144952933D01*
X114257200Y-144810076D01*
X114304819Y-144762457D01*
X115209580Y-143810076D02*
X115209580Y-144381504D01*
X115209580Y-144095790D02*
X114209580Y-144095790D01*
X114352438Y-144191028D01*
X114447676Y-144286266D01*
X114495295Y-144381504D01*
X114209580Y-143476742D02*
X114209580Y-142810076D01*
X115209580Y-143238647D01*
X99226642Y-80398857D02*
X99274261Y-80446476D01*
X99321880Y-80589333D01*
X99321880Y-80684571D01*
X99274261Y-80827428D01*
X99179023Y-80922666D01*
X99083785Y-80970285D01*
X98893309Y-81017904D01*
X98750452Y-81017904D01*
X98559976Y-80970285D01*
X98464738Y-80922666D01*
X98369500Y-80827428D01*
X98321880Y-80684571D01*
X98321880Y-80589333D01*
X98369500Y-80446476D01*
X98417119Y-80398857D01*
X99321880Y-79446476D02*
X99321880Y-80017904D01*
X99321880Y-79732190D02*
X98321880Y-79732190D01*
X98464738Y-79827428D01*
X98559976Y-79922666D01*
X98607595Y-80017904D01*
X98321880Y-79113142D02*
X98321880Y-78494095D01*
X98702833Y-78827428D01*
X98702833Y-78684571D01*
X98750452Y-78589333D01*
X98798071Y-78541714D01*
X98893309Y-78494095D01*
X99131404Y-78494095D01*
X99226642Y-78541714D01*
X99274261Y-78589333D01*
X99321880Y-78684571D01*
X99321880Y-78970285D01*
X99274261Y-79065523D01*
X99226642Y-79113142D01*
X84050142Y-78843166D02*
X84097761Y-78890785D01*
X84145380Y-79033642D01*
X84145380Y-79128880D01*
X84097761Y-79271738D01*
X84002523Y-79366976D01*
X83907285Y-79414595D01*
X83716809Y-79462214D01*
X83573952Y-79462214D01*
X83383476Y-79414595D01*
X83288238Y-79366976D01*
X83193000Y-79271738D01*
X83145380Y-79128880D01*
X83145380Y-79033642D01*
X83193000Y-78890785D01*
X83240619Y-78843166D01*
X84145380Y-78366976D02*
X84145380Y-78176500D01*
X84097761Y-78081261D01*
X84050142Y-78033642D01*
X83907285Y-77938404D01*
X83716809Y-77890785D01*
X83335857Y-77890785D01*
X83240619Y-77938404D01*
X83193000Y-77986023D01*
X83145380Y-78081261D01*
X83145380Y-78271738D01*
X83193000Y-78366976D01*
X83240619Y-78414595D01*
X83335857Y-78462214D01*
X83573952Y-78462214D01*
X83669190Y-78414595D01*
X83716809Y-78366976D01*
X83764428Y-78271738D01*
X83764428Y-78081261D01*
X83716809Y-77986023D01*
X83669190Y-77938404D01*
X83573952Y-77890785D01*
M02*
