G04 #@! TF.GenerationSoftware,KiCad,Pcbnew,(5.1.7)-1*
G04 #@! TF.CreationDate,2021-09-30T08:59:25-07:00*
G04 #@! TF.ProjectId,LCP_PowerControl,4c43505f-506f-4776-9572-436f6e74726f,rev?*
G04 #@! TF.SameCoordinates,Original*
G04 #@! TF.FileFunction,Legend,Bot*
G04 #@! TF.FilePolarity,Positive*
%FSLAX46Y46*%
G04 Gerber Fmt 4.6, Leading zero omitted, Abs format (unit mm)*
G04 Created by KiCad (PCBNEW (5.1.7)-1) date 2021-09-30 08:59:25*
%MOMM*%
%LPD*%
G01*
G04 APERTURE LIST*
%ADD10C,0.120000*%
%ADD11C,0.150000*%
%ADD12C,0.300000*%
G04 APERTURE END LIST*
D10*
X118527500Y-133668936D02*
X118527500Y-134123064D01*
X117057500Y-133668936D02*
X117057500Y-134123064D01*
X87451000Y-117548922D02*
X87451000Y-118066078D01*
X86031000Y-117548922D02*
X86031000Y-118066078D01*
X94092579Y-85390984D02*
X93137984Y-86345579D01*
X95330016Y-86628421D02*
X94375421Y-87583016D01*
X152652000Y-139964279D02*
X152652000Y-139638721D01*
X153672000Y-139964279D02*
X153672000Y-139638721D01*
X87974249Y-86691880D02*
X87026725Y-87639403D01*
X88646000Y-87363631D02*
X87974249Y-86691880D01*
X89317751Y-86691880D02*
X88646000Y-87363631D01*
X95872631Y-80137000D02*
X95200880Y-79465249D01*
X95200880Y-80808751D02*
X95872631Y-80137000D01*
X81419369Y-80137000D02*
X82091120Y-80808751D01*
X82091120Y-79465249D02*
X81419369Y-80137000D01*
X88646000Y-72910369D02*
X89317751Y-73582120D01*
X87974249Y-73582120D02*
X88646000Y-72910369D01*
D11*
X84719000Y-114333500D02*
X84719000Y-112233500D01*
X87969000Y-115108500D02*
X87969000Y-112233500D01*
D10*
X81592000Y-70090500D02*
X80792000Y-70090500D01*
X81592000Y-68250500D02*
X80792000Y-68250500D01*
X93109200Y-119215600D02*
X93909200Y-119215600D01*
X93109200Y-121055600D02*
X93909200Y-121055600D01*
X91090000Y-100374500D02*
X91090000Y-101174500D01*
X89250000Y-100374500D02*
X89250000Y-101174500D01*
X152021000Y-140019721D02*
X152021000Y-140345279D01*
X151001000Y-140019721D02*
X151001000Y-140345279D01*
X84788158Y-65623132D02*
X84422474Y-65257448D01*
X85792250Y-64619040D02*
X85426566Y-64253356D01*
X146397117Y-62271525D02*
X146762801Y-62637209D01*
X145393025Y-63275617D02*
X145758709Y-63641301D01*
X143067204Y-59005112D02*
X143432888Y-59370796D01*
X142063112Y-60009204D02*
X142428796Y-60374888D01*
X127049600Y-66949822D02*
X127049600Y-67466978D01*
X125629600Y-66949822D02*
X125629600Y-67466978D01*
X122274400Y-67263778D02*
X122274400Y-66746622D01*
X120854400Y-67263778D02*
X120854400Y-66746622D01*
X85927000Y-105420422D02*
X85927000Y-105937578D01*
X84507000Y-105420422D02*
X84507000Y-105937578D01*
X87895500Y-106406422D02*
X87895500Y-106923578D01*
X86475500Y-106406422D02*
X86475500Y-106923578D01*
X88602078Y-110184000D02*
X88084922Y-110184000D01*
X88602078Y-108764000D02*
X88084922Y-108764000D01*
X82100922Y-108129000D02*
X82618078Y-108129000D01*
X82100922Y-109549000D02*
X82618078Y-109549000D01*
X81234500Y-116962000D02*
X82694500Y-116962000D01*
X81234500Y-113802000D02*
X83394500Y-113802000D01*
X81234500Y-113802000D02*
X81234500Y-114732000D01*
X81234500Y-116962000D02*
X81234500Y-116032000D01*
X80782000Y-110952500D02*
X80782000Y-112412500D01*
X83942000Y-110952500D02*
X83942000Y-113112500D01*
X83942000Y-110952500D02*
X83012000Y-110952500D01*
X80782000Y-110952500D02*
X81712000Y-110952500D01*
X104698712Y-139135124D02*
X109773052Y-140982033D01*
X105827378Y-136034139D02*
X110901718Y-137881047D01*
X104698712Y-139135124D02*
X105827378Y-136034139D01*
X88460500Y-112292500D02*
X91610500Y-112292500D01*
X88460500Y-110592500D02*
X91610500Y-110592500D01*
X88460500Y-112292500D02*
X88460500Y-110592500D01*
X90067500Y-108326000D02*
X90067500Y-105176000D01*
X88367500Y-108326000D02*
X88367500Y-105176000D01*
X90067500Y-108326000D02*
X88367500Y-108326000D01*
X84035000Y-106210500D02*
X84035000Y-103060500D01*
X82335000Y-106210500D02*
X82335000Y-103060500D01*
X84035000Y-106210500D02*
X82335000Y-106210500D01*
X120080500Y-146242721D02*
X120080500Y-146568279D01*
X119060500Y-146242721D02*
X119060500Y-146568279D01*
X134980000Y-140299064D02*
X134980000Y-139094936D01*
X136800000Y-140299064D02*
X136800000Y-139094936D01*
X118225400Y-143184336D02*
X118225400Y-144388464D01*
X115505400Y-143184336D02*
X115505400Y-144388464D01*
X132614500Y-144619436D02*
X132614500Y-145823564D01*
X129894500Y-144619436D02*
X129894500Y-145823564D01*
X80299779Y-73370000D02*
X79974221Y-73370000D01*
X80299779Y-72350000D02*
X79974221Y-72350000D01*
X97313227Y-84129022D02*
X97083022Y-84359227D01*
X96591978Y-83407773D02*
X96361773Y-83637978D01*
X91076620Y-88796131D02*
X91306825Y-88565926D01*
X91797869Y-89517380D02*
X92028074Y-89287175D01*
X153618000Y-60470522D02*
X153618000Y-60987678D01*
X152198000Y-60470522D02*
X152198000Y-60987678D01*
X155853200Y-60470522D02*
X155853200Y-60987678D01*
X154433200Y-60470522D02*
X154433200Y-60987678D01*
X89657422Y-114733000D02*
X90174578Y-114733000D01*
X89657422Y-116153000D02*
X90174578Y-116153000D01*
X85482500Y-117518922D02*
X85482500Y-118036078D01*
X84062500Y-117518922D02*
X84062500Y-118036078D01*
D11*
X116841542Y-132402342D02*
X116889161Y-132354723D01*
X116936780Y-132211866D01*
X116936780Y-132116628D01*
X116889161Y-131973771D01*
X116793923Y-131878533D01*
X116698685Y-131830914D01*
X116508209Y-131783295D01*
X116365352Y-131783295D01*
X116174876Y-131830914D01*
X116079638Y-131878533D01*
X115984400Y-131973771D01*
X115936780Y-132116628D01*
X115936780Y-132211866D01*
X115984400Y-132354723D01*
X116032019Y-132402342D01*
X115936780Y-132735676D02*
X115936780Y-133354723D01*
X116317733Y-133021390D01*
X116317733Y-133164247D01*
X116365352Y-133259485D01*
X116412971Y-133307104D01*
X116508209Y-133354723D01*
X116746304Y-133354723D01*
X116841542Y-133307104D01*
X116889161Y-133259485D01*
X116936780Y-133164247D01*
X116936780Y-132878533D01*
X116889161Y-132783295D01*
X116841542Y-132735676D01*
X116032019Y-133735676D02*
X115984400Y-133783295D01*
X115936780Y-133878533D01*
X115936780Y-134116628D01*
X115984400Y-134211866D01*
X116032019Y-134259485D01*
X116127257Y-134307104D01*
X116222495Y-134307104D01*
X116365352Y-134259485D01*
X116936780Y-133688057D01*
X116936780Y-134307104D01*
X87275942Y-120534133D02*
X87323561Y-120486514D01*
X87371180Y-120343657D01*
X87371180Y-120248419D01*
X87323561Y-120105561D01*
X87228323Y-120010323D01*
X87133085Y-119962704D01*
X86942609Y-119915085D01*
X86799752Y-119915085D01*
X86609276Y-119962704D01*
X86514038Y-120010323D01*
X86418800Y-120105561D01*
X86371180Y-120248419D01*
X86371180Y-120343657D01*
X86418800Y-120486514D01*
X86466419Y-120534133D01*
X86466419Y-120915085D02*
X86418800Y-120962704D01*
X86371180Y-121057942D01*
X86371180Y-121296038D01*
X86418800Y-121391276D01*
X86466419Y-121438895D01*
X86561657Y-121486514D01*
X86656895Y-121486514D01*
X86799752Y-121438895D01*
X87371180Y-120867466D01*
X87371180Y-121486514D01*
X96839882Y-86450946D02*
X97176600Y-86787664D01*
X96705195Y-85844855D02*
X96839882Y-86450946D01*
X96233791Y-86316259D01*
X96334806Y-87629457D02*
X96738867Y-87225396D01*
X96536836Y-87427427D02*
X95829730Y-86720320D01*
X95998088Y-86753992D01*
X96132775Y-86753992D01*
X96233791Y-86720320D01*
X154325580Y-136161542D02*
X153849390Y-135828209D01*
X154325580Y-135590114D02*
X153325580Y-135590114D01*
X153325580Y-135971066D01*
X153373200Y-136066304D01*
X153420819Y-136113923D01*
X153516057Y-136161542D01*
X153658914Y-136161542D01*
X153754152Y-136113923D01*
X153801771Y-136066304D01*
X153849390Y-135971066D01*
X153849390Y-135590114D01*
X154325580Y-137113923D02*
X154325580Y-136542495D01*
X154325580Y-136828209D02*
X153325580Y-136828209D01*
X153468438Y-136732971D01*
X153563676Y-136637733D01*
X153611295Y-136542495D01*
X153325580Y-137447257D02*
X153325580Y-138113923D01*
X154325580Y-137685352D01*
D12*
X87425045Y-88381553D02*
X88569885Y-89526393D01*
X88637228Y-89728423D01*
X88637228Y-89863110D01*
X88569885Y-90065141D01*
X88300511Y-90334515D01*
X88098480Y-90401858D01*
X87963793Y-90401858D01*
X87761763Y-90334515D01*
X86616923Y-89189675D01*
X86078175Y-89728423D02*
X85202710Y-90603889D01*
X86212862Y-90671232D01*
X86010832Y-90873263D01*
X85943488Y-91075293D01*
X85943488Y-91209980D01*
X86010832Y-91412011D01*
X86347549Y-91748728D01*
X86549580Y-91816072D01*
X86684267Y-91816072D01*
X86886297Y-91748728D01*
X87290358Y-91344667D01*
X87357702Y-91142637D01*
X87357702Y-91007950D01*
D11*
X89050880Y-112649095D02*
X89860404Y-112649095D01*
X89955642Y-112696714D01*
X90003261Y-112744333D01*
X90050880Y-112839571D01*
X90050880Y-113030047D01*
X90003261Y-113125285D01*
X89955642Y-113172904D01*
X89860404Y-113220523D01*
X89050880Y-113220523D01*
X90050880Y-114220523D02*
X90050880Y-113649095D01*
X90050880Y-113934809D02*
X89050880Y-113934809D01*
X89193738Y-113839571D01*
X89288976Y-113744333D01*
X89336595Y-113649095D01*
X84891476Y-70048380D02*
X85224809Y-69572190D01*
X85462904Y-70048380D02*
X85462904Y-69048380D01*
X85081952Y-69048380D01*
X84986714Y-69096000D01*
X84939095Y-69143619D01*
X84891476Y-69238857D01*
X84891476Y-69381714D01*
X84939095Y-69476952D01*
X84986714Y-69524571D01*
X85081952Y-69572190D01*
X85462904Y-69572190D01*
X84462904Y-70048380D02*
X84462904Y-69048380D01*
X83891476Y-70048380D01*
X83891476Y-69048380D01*
X82986714Y-69381714D02*
X82986714Y-70048380D01*
X83224809Y-69000761D02*
X83462904Y-69715047D01*
X82843857Y-69715047D01*
X94302176Y-122194480D02*
X94635509Y-121718290D01*
X94873604Y-122194480D02*
X94873604Y-121194480D01*
X94492652Y-121194480D01*
X94397414Y-121242100D01*
X94349795Y-121289719D01*
X94302176Y-121384957D01*
X94302176Y-121527814D01*
X94349795Y-121623052D01*
X94397414Y-121670671D01*
X94492652Y-121718290D01*
X94873604Y-121718290D01*
X93873604Y-122194480D02*
X93873604Y-121194480D01*
X93302176Y-122194480D01*
X93302176Y-121194480D01*
X92873604Y-121289719D02*
X92825985Y-121242100D01*
X92730747Y-121194480D01*
X92492652Y-121194480D01*
X92397414Y-121242100D01*
X92349795Y-121289719D01*
X92302176Y-121384957D01*
X92302176Y-121480195D01*
X92349795Y-121623052D01*
X92921223Y-122194480D01*
X92302176Y-122194480D01*
X92372380Y-100084023D02*
X91896190Y-99750690D01*
X92372380Y-99512595D02*
X91372380Y-99512595D01*
X91372380Y-99893547D01*
X91420000Y-99988785D01*
X91467619Y-100036404D01*
X91562857Y-100084023D01*
X91705714Y-100084023D01*
X91800952Y-100036404D01*
X91848571Y-99988785D01*
X91896190Y-99893547D01*
X91896190Y-99512595D01*
X92372380Y-100512595D02*
X91372380Y-100512595D01*
X92372380Y-101084023D01*
X91372380Y-101084023D01*
X92372380Y-102084023D02*
X92372380Y-101512595D01*
X92372380Y-101798309D02*
X91372380Y-101798309D01*
X91515238Y-101703071D01*
X91610476Y-101607833D01*
X91658095Y-101512595D01*
X151937980Y-136720342D02*
X151461790Y-136387009D01*
X151937980Y-136148914D02*
X150937980Y-136148914D01*
X150937980Y-136529866D01*
X150985600Y-136625104D01*
X151033219Y-136672723D01*
X151128457Y-136720342D01*
X151271314Y-136720342D01*
X151366552Y-136672723D01*
X151414171Y-136625104D01*
X151461790Y-136529866D01*
X151461790Y-136148914D01*
X151937980Y-137672723D02*
X151937980Y-137101295D01*
X151937980Y-137387009D02*
X150937980Y-137387009D01*
X151080838Y-137291771D01*
X151176076Y-137196533D01*
X151223695Y-137101295D01*
X150937980Y-138529866D02*
X150937980Y-138339390D01*
X150985600Y-138244152D01*
X151033219Y-138196533D01*
X151176076Y-138101295D01*
X151366552Y-138053676D01*
X151747504Y-138053676D01*
X151842742Y-138101295D01*
X151890361Y-138148914D01*
X151937980Y-138244152D01*
X151937980Y-138434628D01*
X151890361Y-138529866D01*
X151842742Y-138577485D01*
X151747504Y-138625104D01*
X151509409Y-138625104D01*
X151414171Y-138577485D01*
X151366552Y-138529866D01*
X151318933Y-138434628D01*
X151318933Y-138244152D01*
X151366552Y-138148914D01*
X151414171Y-138101295D01*
X151509409Y-138053676D01*
X86542133Y-64427192D02*
X87114552Y-64326177D01*
X86946194Y-64831253D02*
X87653300Y-64124146D01*
X87383926Y-63854772D01*
X87282911Y-63821100D01*
X87215568Y-63821100D01*
X87114552Y-63854772D01*
X87013537Y-63955787D01*
X86979865Y-64056803D01*
X86979865Y-64124146D01*
X87013537Y-64225161D01*
X87282911Y-64494535D01*
X85868697Y-63753757D02*
X86272758Y-64157818D01*
X86070728Y-63955787D02*
X86777835Y-63248680D01*
X86744163Y-63417039D01*
X86744163Y-63551726D01*
X86777835Y-63652742D01*
X86340102Y-62810948D02*
X85902369Y-62373215D01*
X85868697Y-62878291D01*
X85767682Y-62777276D01*
X85666667Y-62743604D01*
X85599323Y-62743604D01*
X85498308Y-62777276D01*
X85329949Y-62945635D01*
X85296278Y-63046650D01*
X85296278Y-63113993D01*
X85329949Y-63215009D01*
X85531980Y-63417039D01*
X85632995Y-63450711D01*
X85700339Y-63450711D01*
X147657887Y-62344050D02*
X148230306Y-62243035D01*
X148061948Y-62748111D02*
X148769054Y-62041004D01*
X148499680Y-61771630D01*
X148398665Y-61737958D01*
X148331322Y-61737958D01*
X148230306Y-61771630D01*
X148129291Y-61872645D01*
X148095619Y-61973661D01*
X148095619Y-62041004D01*
X148129291Y-62142019D01*
X148398665Y-62411393D01*
X146984451Y-61670615D02*
X147388512Y-62074676D01*
X147186482Y-61872645D02*
X147893589Y-61165538D01*
X147859917Y-61333897D01*
X147859917Y-61468584D01*
X147893589Y-61569599D01*
X147354841Y-60761477D02*
X147354841Y-60694134D01*
X147321169Y-60593119D01*
X147152810Y-60424760D01*
X147051795Y-60391088D01*
X146984451Y-60391088D01*
X146883436Y-60424760D01*
X146816093Y-60492103D01*
X146748749Y-60626790D01*
X146748749Y-61434912D01*
X146311016Y-60997180D01*
X144355887Y-59092850D02*
X144928306Y-58991835D01*
X144759948Y-59496911D02*
X145467054Y-58789804D01*
X145197680Y-58520430D01*
X145096665Y-58486758D01*
X145029322Y-58486758D01*
X144928306Y-58520430D01*
X144827291Y-58621445D01*
X144793619Y-58722461D01*
X144793619Y-58789804D01*
X144827291Y-58890819D01*
X145096665Y-59160193D01*
X143682451Y-58419415D02*
X144086512Y-58823476D01*
X143884482Y-58621445D02*
X144591589Y-57914338D01*
X144557917Y-58082697D01*
X144557917Y-58217384D01*
X144591589Y-58318399D01*
X143009016Y-57745980D02*
X143413077Y-58150041D01*
X143211047Y-57948010D02*
X143918154Y-57240903D01*
X143884482Y-57409262D01*
X143884482Y-57543949D01*
X143918154Y-57644964D01*
X125141980Y-66565542D02*
X124665790Y-66232209D01*
X125141980Y-65994114D02*
X124141980Y-65994114D01*
X124141980Y-66375066D01*
X124189600Y-66470304D01*
X124237219Y-66517923D01*
X124332457Y-66565542D01*
X124475314Y-66565542D01*
X124570552Y-66517923D01*
X124618171Y-66470304D01*
X124665790Y-66375066D01*
X124665790Y-65994114D01*
X125141980Y-67517923D02*
X125141980Y-66946495D01*
X125141980Y-67232209D02*
X124141980Y-67232209D01*
X124284838Y-67136971D01*
X124380076Y-67041733D01*
X124427695Y-66946495D01*
X124141980Y-68136971D02*
X124141980Y-68232209D01*
X124189600Y-68327447D01*
X124237219Y-68375066D01*
X124332457Y-68422685D01*
X124522933Y-68470304D01*
X124761028Y-68470304D01*
X124951504Y-68422685D01*
X125046742Y-68375066D01*
X125094361Y-68327447D01*
X125141980Y-68232209D01*
X125141980Y-68136971D01*
X125094361Y-68041733D01*
X125046742Y-67994114D01*
X124951504Y-67946495D01*
X124761028Y-67898876D01*
X124522933Y-67898876D01*
X124332457Y-67946495D01*
X124237219Y-67994114D01*
X124189600Y-68041733D01*
X124141980Y-68136971D01*
X123947535Y-66484749D02*
X123471345Y-66151416D01*
X123947535Y-65913320D02*
X122947535Y-65913320D01*
X122947535Y-66294273D01*
X122995155Y-66389511D01*
X123042774Y-66437130D01*
X123138012Y-66484749D01*
X123280869Y-66484749D01*
X123376107Y-66437130D01*
X123423726Y-66389511D01*
X123471345Y-66294273D01*
X123471345Y-65913320D01*
X123947535Y-66960939D02*
X123947535Y-67151416D01*
X123899916Y-67246654D01*
X123852297Y-67294273D01*
X123709440Y-67389511D01*
X123518964Y-67437130D01*
X123138012Y-67437130D01*
X123042774Y-67389511D01*
X122995155Y-67341892D01*
X122947535Y-67246654D01*
X122947535Y-67056177D01*
X122995155Y-66960939D01*
X123042774Y-66913320D01*
X123138012Y-66865701D01*
X123376107Y-66865701D01*
X123471345Y-66913320D01*
X123518964Y-66960939D01*
X123566583Y-67056177D01*
X123566583Y-67246654D01*
X123518964Y-67341892D01*
X123471345Y-67389511D01*
X123376107Y-67437130D01*
X85745580Y-102855733D02*
X85269390Y-102522400D01*
X85745580Y-102284304D02*
X84745580Y-102284304D01*
X84745580Y-102665257D01*
X84793200Y-102760495D01*
X84840819Y-102808114D01*
X84936057Y-102855733D01*
X85078914Y-102855733D01*
X85174152Y-102808114D01*
X85221771Y-102760495D01*
X85269390Y-102665257D01*
X85269390Y-102284304D01*
X85174152Y-103427161D02*
X85126533Y-103331923D01*
X85078914Y-103284304D01*
X84983676Y-103236685D01*
X84936057Y-103236685D01*
X84840819Y-103284304D01*
X84793200Y-103331923D01*
X84745580Y-103427161D01*
X84745580Y-103617638D01*
X84793200Y-103712876D01*
X84840819Y-103760495D01*
X84936057Y-103808114D01*
X84983676Y-103808114D01*
X85078914Y-103760495D01*
X85126533Y-103712876D01*
X85174152Y-103617638D01*
X85174152Y-103427161D01*
X85221771Y-103331923D01*
X85269390Y-103284304D01*
X85364628Y-103236685D01*
X85555104Y-103236685D01*
X85650342Y-103284304D01*
X85697961Y-103331923D01*
X85745580Y-103427161D01*
X85745580Y-103617638D01*
X85697961Y-103712876D01*
X85650342Y-103760495D01*
X85555104Y-103808114D01*
X85364628Y-103808114D01*
X85269390Y-103760495D01*
X85221771Y-103712876D01*
X85174152Y-103617638D01*
X87929980Y-103617733D02*
X87453790Y-103284400D01*
X87929980Y-103046304D02*
X86929980Y-103046304D01*
X86929980Y-103427257D01*
X86977600Y-103522495D01*
X87025219Y-103570114D01*
X87120457Y-103617733D01*
X87263314Y-103617733D01*
X87358552Y-103570114D01*
X87406171Y-103522495D01*
X87453790Y-103427257D01*
X87453790Y-103046304D01*
X86929980Y-103951066D02*
X86929980Y-104617733D01*
X87929980Y-104189161D01*
X91149466Y-109875580D02*
X91482800Y-109399390D01*
X91720895Y-109875580D02*
X91720895Y-108875580D01*
X91339942Y-108875580D01*
X91244704Y-108923200D01*
X91197085Y-108970819D01*
X91149466Y-109066057D01*
X91149466Y-109208914D01*
X91197085Y-109304152D01*
X91244704Y-109351771D01*
X91339942Y-109399390D01*
X91720895Y-109399390D01*
X90292323Y-108875580D02*
X90482800Y-108875580D01*
X90578038Y-108923200D01*
X90625657Y-108970819D01*
X90720895Y-109113676D01*
X90768514Y-109304152D01*
X90768514Y-109685104D01*
X90720895Y-109780342D01*
X90673276Y-109827961D01*
X90578038Y-109875580D01*
X90387561Y-109875580D01*
X90292323Y-109827961D01*
X90244704Y-109780342D01*
X90197085Y-109685104D01*
X90197085Y-109447009D01*
X90244704Y-109351771D01*
X90292323Y-109304152D01*
X90387561Y-109256533D01*
X90578038Y-109256533D01*
X90673276Y-109304152D01*
X90720895Y-109351771D01*
X90768514Y-109447009D01*
X79871866Y-108707180D02*
X80205200Y-108230990D01*
X80443295Y-108707180D02*
X80443295Y-107707180D01*
X80062342Y-107707180D01*
X79967104Y-107754800D01*
X79919485Y-107802419D01*
X79871866Y-107897657D01*
X79871866Y-108040514D01*
X79919485Y-108135752D01*
X79967104Y-108183371D01*
X80062342Y-108230990D01*
X80443295Y-108230990D01*
X79538533Y-107707180D02*
X78919485Y-107707180D01*
X79252819Y-108088133D01*
X79109961Y-108088133D01*
X79014723Y-108135752D01*
X78967104Y-108183371D01*
X78919485Y-108278609D01*
X78919485Y-108516704D01*
X78967104Y-108611942D01*
X79014723Y-108659561D01*
X79109961Y-108707180D01*
X79395676Y-108707180D01*
X79490914Y-108659561D01*
X79538533Y-108611942D01*
X81934038Y-118454419D02*
X82029276Y-118406800D01*
X82124514Y-118311561D01*
X82267371Y-118168704D01*
X82362609Y-118121085D01*
X82457847Y-118121085D01*
X82410228Y-118359180D02*
X82505466Y-118311561D01*
X82600704Y-118216323D01*
X82648323Y-118025847D01*
X82648323Y-117692514D01*
X82600704Y-117502038D01*
X82505466Y-117406800D01*
X82410228Y-117359180D01*
X82219752Y-117359180D01*
X82124514Y-117406800D01*
X82029276Y-117502038D01*
X81981657Y-117692514D01*
X81981657Y-118025847D01*
X82029276Y-118216323D01*
X82124514Y-118311561D01*
X82219752Y-118359180D01*
X82410228Y-118359180D01*
X81600704Y-117454419D02*
X81553085Y-117406800D01*
X81457847Y-117359180D01*
X81219752Y-117359180D01*
X81124514Y-117406800D01*
X81076895Y-117454419D01*
X81029276Y-117549657D01*
X81029276Y-117644895D01*
X81076895Y-117787752D01*
X81648323Y-118359180D01*
X81029276Y-118359180D01*
X80211561Y-111779085D02*
X80259180Y-111683847D01*
X80259180Y-111493371D01*
X80211561Y-111398133D01*
X80116323Y-111350514D01*
X79735371Y-111350514D01*
X79640133Y-111398133D01*
X79592514Y-111493371D01*
X79592514Y-111683847D01*
X79640133Y-111779085D01*
X79735371Y-111826704D01*
X79830609Y-111826704D01*
X79925847Y-111350514D01*
X80259180Y-112779085D02*
X80259180Y-112207657D01*
X80259180Y-112493371D02*
X79259180Y-112493371D01*
X79402038Y-112398133D01*
X79497276Y-112302895D01*
X79544895Y-112207657D01*
X108141809Y-141774274D02*
X108483829Y-140834581D01*
X108260093Y-140753148D01*
X108109564Y-140749035D01*
X107987496Y-140805956D01*
X107910176Y-140879164D01*
X107800282Y-141041867D01*
X107751422Y-141176108D01*
X107731022Y-141371384D01*
X107743196Y-141477165D01*
X107800117Y-141599233D01*
X107918072Y-141692841D01*
X108141809Y-141774274D01*
X107096664Y-140329694D02*
X107544136Y-140492561D01*
X107426017Y-140956321D01*
X107397556Y-140895287D01*
X107324348Y-140817966D01*
X107100612Y-140736533D01*
X106994831Y-140748707D01*
X106933797Y-140777167D01*
X106856476Y-140850375D01*
X106775043Y-141074111D01*
X106787217Y-141179893D01*
X106815677Y-141240927D01*
X106888885Y-141318247D01*
X107112622Y-141399680D01*
X107218403Y-141387507D01*
X107279437Y-141359046D01*
X94565695Y-111856780D02*
X94565695Y-110856780D01*
X94327600Y-110856780D01*
X94184742Y-110904400D01*
X94089504Y-110999638D01*
X94041885Y-111094876D01*
X93994266Y-111285352D01*
X93994266Y-111428209D01*
X94041885Y-111618685D01*
X94089504Y-111713923D01*
X94184742Y-111809161D01*
X94327600Y-111856780D01*
X94565695Y-111856780D01*
X93137123Y-111190114D02*
X93137123Y-111856780D01*
X93375219Y-110809161D02*
X93613314Y-111523447D01*
X92994266Y-111523447D01*
X91384380Y-105052904D02*
X90384380Y-105052904D01*
X90384380Y-105291000D01*
X90432000Y-105433857D01*
X90527238Y-105529095D01*
X90622476Y-105576714D01*
X90812952Y-105624333D01*
X90955809Y-105624333D01*
X91146285Y-105576714D01*
X91241523Y-105529095D01*
X91336761Y-105433857D01*
X91384380Y-105291000D01*
X91384380Y-105052904D01*
X90384380Y-105957666D02*
X90384380Y-106576714D01*
X90765333Y-106243380D01*
X90765333Y-106386238D01*
X90812952Y-106481476D01*
X90860571Y-106529095D01*
X90955809Y-106576714D01*
X91193904Y-106576714D01*
X91289142Y-106529095D01*
X91336761Y-106481476D01*
X91384380Y-106386238D01*
X91384380Y-106100523D01*
X91336761Y-106005285D01*
X91289142Y-105957666D01*
X83764380Y-100607904D02*
X82764380Y-100607904D01*
X82764380Y-100846000D01*
X82812000Y-100988857D01*
X82907238Y-101084095D01*
X83002476Y-101131714D01*
X83192952Y-101179333D01*
X83335809Y-101179333D01*
X83526285Y-101131714D01*
X83621523Y-101084095D01*
X83716761Y-100988857D01*
X83764380Y-100846000D01*
X83764380Y-100607904D01*
X82859619Y-101560285D02*
X82812000Y-101607904D01*
X82764380Y-101703142D01*
X82764380Y-101941238D01*
X82812000Y-102036476D01*
X82859619Y-102084095D01*
X82954857Y-102131714D01*
X83050095Y-102131714D01*
X83192952Y-102084095D01*
X83764380Y-101512666D01*
X83764380Y-102131714D01*
X120702342Y-148556742D02*
X120749961Y-148509123D01*
X120797580Y-148366266D01*
X120797580Y-148271028D01*
X120749961Y-148128171D01*
X120654723Y-148032933D01*
X120559485Y-147985314D01*
X120369009Y-147937695D01*
X120226152Y-147937695D01*
X120035676Y-147985314D01*
X119940438Y-148032933D01*
X119845200Y-148128171D01*
X119797580Y-148271028D01*
X119797580Y-148366266D01*
X119845200Y-148509123D01*
X119892819Y-148556742D01*
X119797580Y-148890076D02*
X119797580Y-149509123D01*
X120178533Y-149175790D01*
X120178533Y-149318647D01*
X120226152Y-149413885D01*
X120273771Y-149461504D01*
X120369009Y-149509123D01*
X120607104Y-149509123D01*
X120702342Y-149461504D01*
X120749961Y-149413885D01*
X120797580Y-149318647D01*
X120797580Y-149032933D01*
X120749961Y-148937695D01*
X120702342Y-148890076D01*
X119797580Y-150128171D02*
X119797580Y-150223409D01*
X119845200Y-150318647D01*
X119892819Y-150366266D01*
X119988057Y-150413885D01*
X120178533Y-150461504D01*
X120416628Y-150461504D01*
X120607104Y-150413885D01*
X120702342Y-150366266D01*
X120749961Y-150318647D01*
X120797580Y-150223409D01*
X120797580Y-150128171D01*
X120749961Y-150032933D01*
X120702342Y-149985314D01*
X120607104Y-149937695D01*
X120416628Y-149890076D01*
X120178533Y-149890076D01*
X119988057Y-149937695D01*
X119892819Y-149985314D01*
X119845200Y-150032933D01*
X119797580Y-150128171D01*
X138025142Y-138345942D02*
X138072761Y-138298323D01*
X138120380Y-138155466D01*
X138120380Y-138060228D01*
X138072761Y-137917371D01*
X137977523Y-137822133D01*
X137882285Y-137774514D01*
X137691809Y-137726895D01*
X137548952Y-137726895D01*
X137358476Y-137774514D01*
X137263238Y-137822133D01*
X137168000Y-137917371D01*
X137120380Y-138060228D01*
X137120380Y-138155466D01*
X137168000Y-138298323D01*
X137215619Y-138345942D01*
X137215619Y-138726895D02*
X137168000Y-138774514D01*
X137120380Y-138869752D01*
X137120380Y-139107847D01*
X137168000Y-139203085D01*
X137215619Y-139250704D01*
X137310857Y-139298323D01*
X137406095Y-139298323D01*
X137548952Y-139250704D01*
X138120380Y-138679276D01*
X138120380Y-139298323D01*
X137548952Y-139869752D02*
X137501333Y-139774514D01*
X137453714Y-139726895D01*
X137358476Y-139679276D01*
X137310857Y-139679276D01*
X137215619Y-139726895D01*
X137168000Y-139774514D01*
X137120380Y-139869752D01*
X137120380Y-140060228D01*
X137168000Y-140155466D01*
X137215619Y-140203085D01*
X137310857Y-140250704D01*
X137358476Y-140250704D01*
X137453714Y-140203085D01*
X137501333Y-140155466D01*
X137548952Y-140060228D01*
X137548952Y-139869752D01*
X137596571Y-139774514D01*
X137644190Y-139726895D01*
X137739428Y-139679276D01*
X137929904Y-139679276D01*
X138025142Y-139726895D01*
X138072761Y-139774514D01*
X138120380Y-139869752D01*
X138120380Y-140060228D01*
X138072761Y-140155466D01*
X138025142Y-140203085D01*
X137929904Y-140250704D01*
X137739428Y-140250704D01*
X137644190Y-140203085D01*
X137596571Y-140155466D01*
X137548952Y-140060228D01*
X114942542Y-143143542D02*
X114990161Y-143095923D01*
X115037780Y-142953066D01*
X115037780Y-142857828D01*
X114990161Y-142714971D01*
X114894923Y-142619733D01*
X114799685Y-142572114D01*
X114609209Y-142524495D01*
X114466352Y-142524495D01*
X114275876Y-142572114D01*
X114180638Y-142619733D01*
X114085400Y-142714971D01*
X114037780Y-142857828D01*
X114037780Y-142953066D01*
X114085400Y-143095923D01*
X114133019Y-143143542D01*
X114133019Y-143524495D02*
X114085400Y-143572114D01*
X114037780Y-143667352D01*
X114037780Y-143905447D01*
X114085400Y-144000685D01*
X114133019Y-144048304D01*
X114228257Y-144095923D01*
X114323495Y-144095923D01*
X114466352Y-144048304D01*
X115037780Y-143476876D01*
X115037780Y-144095923D01*
X114037780Y-145000685D02*
X114037780Y-144524495D01*
X114513971Y-144476876D01*
X114466352Y-144524495D01*
X114418733Y-144619733D01*
X114418733Y-144857828D01*
X114466352Y-144953066D01*
X114513971Y-145000685D01*
X114609209Y-145048304D01*
X114847304Y-145048304D01*
X114942542Y-145000685D01*
X114990161Y-144953066D01*
X115037780Y-144857828D01*
X115037780Y-144619733D01*
X114990161Y-144524495D01*
X114942542Y-144476876D01*
X133808742Y-145203942D02*
X133856361Y-145156323D01*
X133903980Y-145013466D01*
X133903980Y-144918228D01*
X133856361Y-144775371D01*
X133761123Y-144680133D01*
X133665885Y-144632514D01*
X133475409Y-144584895D01*
X133332552Y-144584895D01*
X133142076Y-144632514D01*
X133046838Y-144680133D01*
X132951600Y-144775371D01*
X132903980Y-144918228D01*
X132903980Y-145013466D01*
X132951600Y-145156323D01*
X132999219Y-145203942D01*
X132999219Y-145584895D02*
X132951600Y-145632514D01*
X132903980Y-145727752D01*
X132903980Y-145965847D01*
X132951600Y-146061085D01*
X132999219Y-146108704D01*
X133094457Y-146156323D01*
X133189695Y-146156323D01*
X133332552Y-146108704D01*
X133903980Y-145537276D01*
X133903980Y-146156323D01*
X132903980Y-146489657D02*
X132903980Y-147108704D01*
X133284933Y-146775371D01*
X133284933Y-146918228D01*
X133332552Y-147013466D01*
X133380171Y-147061085D01*
X133475409Y-147108704D01*
X133713504Y-147108704D01*
X133808742Y-147061085D01*
X133856361Y-147013466D01*
X133903980Y-146918228D01*
X133903980Y-146632514D01*
X133856361Y-146537276D01*
X133808742Y-146489657D01*
X82176857Y-71921642D02*
X82224476Y-71969261D01*
X82367333Y-72016880D01*
X82462571Y-72016880D01*
X82605428Y-71969261D01*
X82700666Y-71874023D01*
X82748285Y-71778785D01*
X82795904Y-71588309D01*
X82795904Y-71445452D01*
X82748285Y-71254976D01*
X82700666Y-71159738D01*
X82605428Y-71064500D01*
X82462571Y-71016880D01*
X82367333Y-71016880D01*
X82224476Y-71064500D01*
X82176857Y-71112119D01*
X81224476Y-72016880D02*
X81795904Y-72016880D01*
X81510190Y-72016880D02*
X81510190Y-71016880D01*
X81605428Y-71159738D01*
X81700666Y-71254976D01*
X81795904Y-71302595D01*
X80367333Y-71016880D02*
X80557809Y-71016880D01*
X80653047Y-71064500D01*
X80700666Y-71112119D01*
X80795904Y-71254976D01*
X80843523Y-71445452D01*
X80843523Y-71826404D01*
X80795904Y-71921642D01*
X80748285Y-71969261D01*
X80653047Y-72016880D01*
X80462571Y-72016880D01*
X80367333Y-71969261D01*
X80319714Y-71921642D01*
X80272095Y-71826404D01*
X80272095Y-71588309D01*
X80319714Y-71493071D01*
X80367333Y-71445452D01*
X80462571Y-71397833D01*
X80653047Y-71397833D01*
X80748285Y-71445452D01*
X80795904Y-71493071D01*
X80843523Y-71588309D01*
X100338606Y-81903469D02*
X100405950Y-81903469D01*
X100540637Y-81836125D01*
X100607980Y-81768782D01*
X100675324Y-81634095D01*
X100675324Y-81499408D01*
X100641652Y-81398393D01*
X100540637Y-81230034D01*
X100439622Y-81129019D01*
X100271263Y-81028003D01*
X100170248Y-80994332D01*
X100035561Y-80994332D01*
X99900874Y-81061675D01*
X99833530Y-81129019D01*
X99766187Y-81263706D01*
X99766187Y-81331049D01*
X99732515Y-82644248D02*
X100136576Y-82240187D01*
X99934545Y-82442217D02*
X99227438Y-81735110D01*
X99395797Y-81768782D01*
X99530484Y-81768782D01*
X99631500Y-81735110D01*
X98385645Y-82576904D02*
X98722362Y-82240187D01*
X99092751Y-82543232D01*
X99025408Y-82543232D01*
X98924393Y-82576904D01*
X98756034Y-82745263D01*
X98722362Y-82846278D01*
X98722362Y-82913622D01*
X98756034Y-83014637D01*
X98924393Y-83182996D01*
X99025408Y-83216667D01*
X99092751Y-83216667D01*
X99193767Y-83182996D01*
X99362125Y-83014637D01*
X99395797Y-82913622D01*
X99395797Y-82846278D01*
X92337606Y-90793469D02*
X92404950Y-90793469D01*
X92539637Y-90726125D01*
X92606980Y-90658782D01*
X92674324Y-90524095D01*
X92674324Y-90389408D01*
X92640652Y-90288393D01*
X92539637Y-90120034D01*
X92438622Y-90019019D01*
X92270263Y-89918003D01*
X92169248Y-89884332D01*
X92034561Y-89884332D01*
X91899874Y-89951675D01*
X91832530Y-90019019D01*
X91765187Y-90153706D01*
X91765187Y-90221049D01*
X91731515Y-91534248D02*
X92135576Y-91130187D01*
X91933545Y-91332217D02*
X91226438Y-90625110D01*
X91394797Y-90658782D01*
X91529484Y-90658782D01*
X91630500Y-90625110D01*
X90654019Y-91668935D02*
X91125423Y-92140339D01*
X90553003Y-91231202D02*
X91226438Y-91567919D01*
X90788706Y-92005652D01*
X151334742Y-60894933D02*
X151382361Y-60847314D01*
X151429980Y-60704457D01*
X151429980Y-60609219D01*
X151382361Y-60466361D01*
X151287123Y-60371123D01*
X151191885Y-60323504D01*
X151001409Y-60275885D01*
X150858552Y-60275885D01*
X150668076Y-60323504D01*
X150572838Y-60371123D01*
X150477600Y-60466361D01*
X150429980Y-60609219D01*
X150429980Y-60704457D01*
X150477600Y-60847314D01*
X150525219Y-60894933D01*
X150429980Y-61752076D02*
X150429980Y-61561600D01*
X150477600Y-61466361D01*
X150525219Y-61418742D01*
X150668076Y-61323504D01*
X150858552Y-61275885D01*
X151239504Y-61275885D01*
X151334742Y-61323504D01*
X151382361Y-61371123D01*
X151429980Y-61466361D01*
X151429980Y-61656838D01*
X151382361Y-61752076D01*
X151334742Y-61799695D01*
X151239504Y-61847314D01*
X151001409Y-61847314D01*
X150906171Y-61799695D01*
X150858552Y-61752076D01*
X150810933Y-61656838D01*
X150810933Y-61466361D01*
X150858552Y-61371123D01*
X150906171Y-61323504D01*
X151001409Y-61275885D01*
X157278342Y-59726533D02*
X157325961Y-59678914D01*
X157373580Y-59536057D01*
X157373580Y-59440819D01*
X157325961Y-59297961D01*
X157230723Y-59202723D01*
X157135485Y-59155104D01*
X156945009Y-59107485D01*
X156802152Y-59107485D01*
X156611676Y-59155104D01*
X156516438Y-59202723D01*
X156421200Y-59297961D01*
X156373580Y-59440819D01*
X156373580Y-59536057D01*
X156421200Y-59678914D01*
X156468819Y-59726533D01*
X156373580Y-60631295D02*
X156373580Y-60155104D01*
X156849771Y-60107485D01*
X156802152Y-60155104D01*
X156754533Y-60250342D01*
X156754533Y-60488438D01*
X156802152Y-60583676D01*
X156849771Y-60631295D01*
X156945009Y-60678914D01*
X157183104Y-60678914D01*
X157278342Y-60631295D01*
X157325961Y-60583676D01*
X157373580Y-60488438D01*
X157373580Y-60250342D01*
X157325961Y-60155104D01*
X157278342Y-60107485D01*
X92775066Y-115825542D02*
X92822685Y-115873161D01*
X92965542Y-115920780D01*
X93060780Y-115920780D01*
X93203638Y-115873161D01*
X93298876Y-115777923D01*
X93346495Y-115682685D01*
X93394114Y-115492209D01*
X93394114Y-115349352D01*
X93346495Y-115158876D01*
X93298876Y-115063638D01*
X93203638Y-114968400D01*
X93060780Y-114920780D01*
X92965542Y-114920780D01*
X92822685Y-114968400D01*
X92775066Y-115016019D01*
X92441733Y-114920780D02*
X91822685Y-114920780D01*
X92156019Y-115301733D01*
X92013161Y-115301733D01*
X91917923Y-115349352D01*
X91870304Y-115396971D01*
X91822685Y-115492209D01*
X91822685Y-115730304D01*
X91870304Y-115825542D01*
X91917923Y-115873161D01*
X92013161Y-115920780D01*
X92298876Y-115920780D01*
X92394114Y-115873161D01*
X92441733Y-115825542D01*
X85243942Y-120534133D02*
X85291561Y-120486514D01*
X85339180Y-120343657D01*
X85339180Y-120248419D01*
X85291561Y-120105561D01*
X85196323Y-120010323D01*
X85101085Y-119962704D01*
X84910609Y-119915085D01*
X84767752Y-119915085D01*
X84577276Y-119962704D01*
X84482038Y-120010323D01*
X84386800Y-120105561D01*
X84339180Y-120248419D01*
X84339180Y-120343657D01*
X84386800Y-120486514D01*
X84434419Y-120534133D01*
X85339180Y-121486514D02*
X85339180Y-120915085D01*
X85339180Y-121200800D02*
X84339180Y-121200800D01*
X84482038Y-121105561D01*
X84577276Y-121010323D01*
X84624895Y-120915085D01*
M02*
