G04 #@! TF.GenerationSoftware,KiCad,Pcbnew,(5.1.5)-3*
G04 #@! TF.CreationDate,2020-10-13T22:13:04-07:00*
G04 #@! TF.ProjectId,LCP_PowerControl,4c43505f-506f-4776-9572-436f6e74726f,rev?*
G04 #@! TF.SameCoordinates,Original*
G04 #@! TF.FileFunction,Legend,Bot*
G04 #@! TF.FilePolarity,Positive*
%FSLAX46Y46*%
G04 Gerber Fmt 4.6, Leading zero omitted, Abs format (unit mm)*
G04 Created by KiCad (PCBNEW (5.1.5)-3) date 2020-10-13 22:13:04*
%MOMM*%
%LPD*%
G04 APERTURE LIST*
%ADD10C,0.120000*%
%ADD11C,0.150000*%
%ADD12C,0.300000*%
G04 APERTURE END LIST*
D10*
X95007500Y-85974422D02*
X95007500Y-86491578D01*
X93587500Y-85974422D02*
X93587500Y-86491578D01*
X87055000Y-87390000D02*
X85705000Y-87390000D01*
X87055000Y-89140000D02*
X85705000Y-89140000D01*
X152652000Y-139964279D02*
X152652000Y-139638721D01*
X153672000Y-139964279D02*
X153672000Y-139638721D01*
X81718000Y-83023000D02*
X80378000Y-83023000D01*
X81718000Y-83973000D02*
X81718000Y-83023000D01*
X82668000Y-83973000D02*
X81718000Y-83973000D01*
X91938000Y-83973000D02*
X91938000Y-83023000D01*
X90988000Y-83973000D02*
X91938000Y-83973000D01*
X81718000Y-73753000D02*
X81718000Y-74703000D01*
X82668000Y-73753000D02*
X81718000Y-73753000D01*
X91938000Y-73753000D02*
X91938000Y-74703000D01*
X90988000Y-73753000D02*
X91938000Y-73753000D01*
D11*
X84719000Y-114333500D02*
X84719000Y-112233500D01*
X87969000Y-115108500D02*
X87969000Y-112233500D01*
D10*
X87673500Y-69862000D02*
X86873500Y-69862000D01*
X87673500Y-68022000D02*
X86873500Y-68022000D01*
X153510500Y-59734500D02*
X153510500Y-60534500D01*
X151670500Y-59734500D02*
X151670500Y-60534500D01*
X86302000Y-96724000D02*
X87102000Y-96724000D01*
X86302000Y-98564000D02*
X87102000Y-98564000D01*
X152021000Y-140019721D02*
X152021000Y-140345279D01*
X151001000Y-140019721D02*
X151001000Y-140345279D01*
X120956000Y-52978578D02*
X120956000Y-52461422D01*
X122376000Y-52978578D02*
X122376000Y-52461422D01*
X124535000Y-52461422D02*
X124535000Y-52978578D01*
X123115000Y-52461422D02*
X123115000Y-52978578D01*
X120661500Y-48968922D02*
X120661500Y-49486078D01*
X119241500Y-48968922D02*
X119241500Y-49486078D01*
X120217000Y-54155078D02*
X120217000Y-53637922D01*
X118797000Y-54155078D02*
X118797000Y-53637922D01*
X85927000Y-105420422D02*
X85927000Y-105937578D01*
X84507000Y-105420422D02*
X84507000Y-105937578D01*
X87895500Y-106406422D02*
X87895500Y-106923578D01*
X86475500Y-106406422D02*
X86475500Y-106923578D01*
X88602078Y-110184000D02*
X88084922Y-110184000D01*
X88602078Y-108764000D02*
X88084922Y-108764000D01*
X82100922Y-108129000D02*
X82618078Y-108129000D01*
X82100922Y-109549000D02*
X82618078Y-109549000D01*
X81234500Y-116962000D02*
X82694500Y-116962000D01*
X81234500Y-113802000D02*
X83394500Y-113802000D01*
X81234500Y-113802000D02*
X81234500Y-114732000D01*
X81234500Y-116962000D02*
X81234500Y-116032000D01*
X80782000Y-110952500D02*
X80782000Y-112412500D01*
X83942000Y-110952500D02*
X83942000Y-113112500D01*
X83942000Y-110952500D02*
X83012000Y-110952500D01*
X80782000Y-110952500D02*
X81712000Y-110952500D01*
X95965000Y-82248500D02*
X94565000Y-82248500D01*
X93865000Y-82948500D02*
X93865000Y-83548500D01*
X94565000Y-84248500D02*
X95965000Y-84248500D01*
X96665000Y-83548500D02*
X96665000Y-82948500D01*
X96665000Y-82948500D02*
G75*
G03X95965000Y-82248500I-700000J0D01*
G01*
X95965000Y-84248500D02*
G75*
G03X96665000Y-83548500I0J700000D01*
G01*
X93865000Y-83548500D02*
G75*
G03X94565000Y-84248500I700000J0D01*
G01*
X94565000Y-82248500D02*
G75*
G03X93865000Y-82948500I0J-700000D01*
G01*
X99796727Y-144940784D02*
X104871067Y-146787693D01*
X100925393Y-141839799D02*
X105999733Y-143686707D01*
X99796727Y-144940784D02*
X100925393Y-141839799D01*
X88460500Y-112292500D02*
X91610500Y-112292500D01*
X88460500Y-110592500D02*
X91610500Y-110592500D01*
X88460500Y-112292500D02*
X88460500Y-110592500D01*
X90067500Y-108326000D02*
X90067500Y-105176000D01*
X88367500Y-108326000D02*
X88367500Y-105176000D01*
X90067500Y-108326000D02*
X88367500Y-108326000D01*
X84035000Y-106210500D02*
X84035000Y-103060500D01*
X82335000Y-106210500D02*
X82335000Y-103060500D01*
X84035000Y-106210500D02*
X82335000Y-106210500D01*
X118302500Y-133733221D02*
X118302500Y-134058779D01*
X117282500Y-133733221D02*
X117282500Y-134058779D01*
X120080500Y-146242721D02*
X120080500Y-146568279D01*
X119060500Y-146242721D02*
X119060500Y-146568279D01*
X134980000Y-140299064D02*
X134980000Y-139094936D01*
X136800000Y-140299064D02*
X136800000Y-139094936D01*
X118225400Y-143184336D02*
X118225400Y-144388464D01*
X115505400Y-143184336D02*
X115505400Y-144388464D01*
X132614500Y-144619436D02*
X132614500Y-145823564D01*
X129894500Y-144619436D02*
X129894500Y-145823564D01*
X87873721Y-90041000D02*
X88199279Y-90041000D01*
X87873721Y-91061000D02*
X88199279Y-91061000D01*
X84935279Y-91061000D02*
X84609721Y-91061000D01*
X84935279Y-90041000D02*
X84609721Y-90041000D01*
X91259922Y-87428000D02*
X91777078Y-87428000D01*
X91259922Y-88848000D02*
X91777078Y-88848000D01*
X82491078Y-71322000D02*
X81973922Y-71322000D01*
X82491078Y-69902000D02*
X81973922Y-69902000D01*
X80824000Y-86301078D02*
X80824000Y-85783922D01*
X82244000Y-86301078D02*
X82244000Y-85783922D01*
X129720078Y-63384500D02*
X129202922Y-63384500D01*
X129720078Y-61964500D02*
X129202922Y-61964500D01*
X89657422Y-114733000D02*
X90174578Y-114733000D01*
X89657422Y-116153000D02*
X90174578Y-116153000D01*
X87451000Y-117548922D02*
X87451000Y-118066078D01*
X86031000Y-117548922D02*
X86031000Y-118066078D01*
X85482500Y-117518922D02*
X85482500Y-118036078D01*
X84062500Y-117518922D02*
X84062500Y-118036078D01*
D11*
X96623142Y-85615542D02*
X96670761Y-85567923D01*
X96718380Y-85425066D01*
X96718380Y-85329828D01*
X96670761Y-85186971D01*
X96575523Y-85091733D01*
X96480285Y-85044114D01*
X96289809Y-84996495D01*
X96146952Y-84996495D01*
X95956476Y-85044114D01*
X95861238Y-85091733D01*
X95766000Y-85186971D01*
X95718380Y-85329828D01*
X95718380Y-85425066D01*
X95766000Y-85567923D01*
X95813619Y-85615542D01*
X96718380Y-86567923D02*
X96718380Y-85996495D01*
X96718380Y-86282209D02*
X95718380Y-86282209D01*
X95861238Y-86186971D01*
X95956476Y-86091733D01*
X96004095Y-85996495D01*
X95813619Y-86948876D02*
X95766000Y-86996495D01*
X95718380Y-87091733D01*
X95718380Y-87329828D01*
X95766000Y-87425066D01*
X95813619Y-87472685D01*
X95908857Y-87520304D01*
X96004095Y-87520304D01*
X96146952Y-87472685D01*
X96718380Y-86901257D01*
X96718380Y-87520304D01*
X86683790Y-86234590D02*
X86683790Y-86710780D01*
X87017123Y-85710780D02*
X86683790Y-86234590D01*
X86350457Y-85710780D01*
X85493314Y-86710780D02*
X86064742Y-86710780D01*
X85779028Y-86710780D02*
X85779028Y-85710780D01*
X85874266Y-85853638D01*
X85969504Y-85948876D01*
X86064742Y-85996495D01*
X154325580Y-136161542D02*
X153849390Y-135828209D01*
X154325580Y-135590114D02*
X153325580Y-135590114D01*
X153325580Y-135971066D01*
X153373200Y-136066304D01*
X153420819Y-136113923D01*
X153516057Y-136161542D01*
X153658914Y-136161542D01*
X153754152Y-136113923D01*
X153801771Y-136066304D01*
X153849390Y-135971066D01*
X153849390Y-135590114D01*
X154325580Y-137113923D02*
X154325580Y-136542495D01*
X154325580Y-136828209D02*
X153325580Y-136828209D01*
X153468438Y-136732971D01*
X153563676Y-136637733D01*
X153611295Y-136542495D01*
X153325580Y-137447257D02*
X153325580Y-138113923D01*
X154325580Y-137685352D01*
D12*
X95300609Y-71040761D02*
X95300609Y-72659809D01*
X95205371Y-72850285D01*
X95110133Y-72945523D01*
X94919657Y-73040761D01*
X94538704Y-73040761D01*
X94348228Y-72945523D01*
X94252990Y-72850285D01*
X94157752Y-72659809D01*
X94157752Y-71040761D01*
X93395847Y-71040761D02*
X92157752Y-71040761D01*
X92824419Y-71802666D01*
X92538704Y-71802666D01*
X92348228Y-71897904D01*
X92252990Y-71993142D01*
X92157752Y-72183619D01*
X92157752Y-72659809D01*
X92252990Y-72850285D01*
X92348228Y-72945523D01*
X92538704Y-73040761D01*
X93110133Y-73040761D01*
X93300609Y-72945523D01*
X93395847Y-72850285D01*
D11*
X88346380Y-112521595D02*
X89155904Y-112521595D01*
X89251142Y-112569214D01*
X89298761Y-112616833D01*
X89346380Y-112712071D01*
X89346380Y-112902547D01*
X89298761Y-112997785D01*
X89251142Y-113045404D01*
X89155904Y-113093023D01*
X88346380Y-113093023D01*
X89346380Y-114093023D02*
X89346380Y-113521595D01*
X89346380Y-113807309D02*
X88346380Y-113807309D01*
X88489238Y-113712071D01*
X88584476Y-113616833D01*
X88632095Y-113521595D01*
X88625276Y-71144380D02*
X88958609Y-70668190D01*
X89196704Y-71144380D02*
X89196704Y-70144380D01*
X88815752Y-70144380D01*
X88720514Y-70192000D01*
X88672895Y-70239619D01*
X88625276Y-70334857D01*
X88625276Y-70477714D01*
X88672895Y-70572952D01*
X88720514Y-70620571D01*
X88815752Y-70668190D01*
X89196704Y-70668190D01*
X88196704Y-71144380D02*
X88196704Y-70144380D01*
X87625276Y-71144380D01*
X87625276Y-70144380D01*
X86720514Y-70477714D02*
X86720514Y-71144380D01*
X86958609Y-70096761D02*
X87196704Y-70811047D01*
X86577657Y-70811047D01*
X151277580Y-59456723D02*
X150801390Y-59123390D01*
X151277580Y-58885295D02*
X150277580Y-58885295D01*
X150277580Y-59266247D01*
X150325200Y-59361485D01*
X150372819Y-59409104D01*
X150468057Y-59456723D01*
X150610914Y-59456723D01*
X150706152Y-59409104D01*
X150753771Y-59361485D01*
X150801390Y-59266247D01*
X150801390Y-58885295D01*
X151277580Y-59885295D02*
X150277580Y-59885295D01*
X151277580Y-60456723D01*
X150277580Y-60456723D01*
X150277580Y-60837676D02*
X150277580Y-61456723D01*
X150658533Y-61123390D01*
X150658533Y-61266247D01*
X150706152Y-61361485D01*
X150753771Y-61409104D01*
X150849009Y-61456723D01*
X151087104Y-61456723D01*
X151182342Y-61409104D01*
X151229961Y-61361485D01*
X151277580Y-61266247D01*
X151277580Y-60980533D01*
X151229961Y-60885295D01*
X151182342Y-60837676D01*
X87392476Y-96346380D02*
X87725809Y-95870190D01*
X87963904Y-96346380D02*
X87963904Y-95346380D01*
X87582952Y-95346380D01*
X87487714Y-95394000D01*
X87440095Y-95441619D01*
X87392476Y-95536857D01*
X87392476Y-95679714D01*
X87440095Y-95774952D01*
X87487714Y-95822571D01*
X87582952Y-95870190D01*
X87963904Y-95870190D01*
X86963904Y-96346380D02*
X86963904Y-95346380D01*
X86392476Y-96346380D01*
X86392476Y-95346380D01*
X85392476Y-96346380D02*
X85963904Y-96346380D01*
X85678190Y-96346380D02*
X85678190Y-95346380D01*
X85773428Y-95489238D01*
X85868666Y-95584476D01*
X85963904Y-95632095D01*
X151937980Y-136720342D02*
X151461790Y-136387009D01*
X151937980Y-136148914D02*
X150937980Y-136148914D01*
X150937980Y-136529866D01*
X150985600Y-136625104D01*
X151033219Y-136672723D01*
X151128457Y-136720342D01*
X151271314Y-136720342D01*
X151366552Y-136672723D01*
X151414171Y-136625104D01*
X151461790Y-136529866D01*
X151461790Y-136148914D01*
X151937980Y-137672723D02*
X151937980Y-137101295D01*
X151937980Y-137387009D02*
X150937980Y-137387009D01*
X151080838Y-137291771D01*
X151176076Y-137196533D01*
X151223695Y-137101295D01*
X150937980Y-138529866D02*
X150937980Y-138339390D01*
X150985600Y-138244152D01*
X151033219Y-138196533D01*
X151176076Y-138101295D01*
X151366552Y-138053676D01*
X151747504Y-138053676D01*
X151842742Y-138101295D01*
X151890361Y-138148914D01*
X151937980Y-138244152D01*
X151937980Y-138434628D01*
X151890361Y-138529866D01*
X151842742Y-138577485D01*
X151747504Y-138625104D01*
X151509409Y-138625104D01*
X151414171Y-138577485D01*
X151366552Y-138529866D01*
X151318933Y-138434628D01*
X151318933Y-138244152D01*
X151366552Y-138148914D01*
X151414171Y-138101295D01*
X151509409Y-138053676D01*
X122219980Y-55237142D02*
X121743790Y-54903809D01*
X122219980Y-54665714D02*
X121219980Y-54665714D01*
X121219980Y-55046666D01*
X121267600Y-55141904D01*
X121315219Y-55189523D01*
X121410457Y-55237142D01*
X121553314Y-55237142D01*
X121648552Y-55189523D01*
X121696171Y-55141904D01*
X121743790Y-55046666D01*
X121743790Y-54665714D01*
X122219980Y-56189523D02*
X122219980Y-55618095D01*
X122219980Y-55903809D02*
X121219980Y-55903809D01*
X121362838Y-55808571D01*
X121458076Y-55713333D01*
X121505695Y-55618095D01*
X121315219Y-56570476D02*
X121267600Y-56618095D01*
X121219980Y-56713333D01*
X121219980Y-56951428D01*
X121267600Y-57046666D01*
X121315219Y-57094285D01*
X121410457Y-57141904D01*
X121505695Y-57141904D01*
X121648552Y-57094285D01*
X122219980Y-56522857D01*
X122219980Y-57141904D01*
X124048780Y-55338742D02*
X123572590Y-55005409D01*
X124048780Y-54767314D02*
X123048780Y-54767314D01*
X123048780Y-55148266D01*
X123096400Y-55243504D01*
X123144019Y-55291123D01*
X123239257Y-55338742D01*
X123382114Y-55338742D01*
X123477352Y-55291123D01*
X123524971Y-55243504D01*
X123572590Y-55148266D01*
X123572590Y-54767314D01*
X124048780Y-56291123D02*
X124048780Y-55719695D01*
X124048780Y-56005409D02*
X123048780Y-56005409D01*
X123191638Y-55910171D01*
X123286876Y-55814933D01*
X123334495Y-55719695D01*
X124048780Y-57243504D02*
X124048780Y-56672076D01*
X124048780Y-56957790D02*
X123048780Y-56957790D01*
X123191638Y-56862552D01*
X123286876Y-56767314D01*
X123334495Y-56672076D01*
X118753880Y-48584642D02*
X118277690Y-48251309D01*
X118753880Y-48013214D02*
X117753880Y-48013214D01*
X117753880Y-48394166D01*
X117801500Y-48489404D01*
X117849119Y-48537023D01*
X117944357Y-48584642D01*
X118087214Y-48584642D01*
X118182452Y-48537023D01*
X118230071Y-48489404D01*
X118277690Y-48394166D01*
X118277690Y-48013214D01*
X118753880Y-49537023D02*
X118753880Y-48965595D01*
X118753880Y-49251309D02*
X117753880Y-49251309D01*
X117896738Y-49156071D01*
X117991976Y-49060833D01*
X118039595Y-48965595D01*
X117753880Y-50156071D02*
X117753880Y-50251309D01*
X117801500Y-50346547D01*
X117849119Y-50394166D01*
X117944357Y-50441785D01*
X118134833Y-50489404D01*
X118372928Y-50489404D01*
X118563404Y-50441785D01*
X118658642Y-50394166D01*
X118706261Y-50346547D01*
X118753880Y-50251309D01*
X118753880Y-50156071D01*
X118706261Y-50060833D01*
X118658642Y-50013214D01*
X118563404Y-49965595D01*
X118372928Y-49917976D01*
X118134833Y-49917976D01*
X117944357Y-49965595D01*
X117849119Y-50013214D01*
X117801500Y-50060833D01*
X117753880Y-50156071D01*
X119984780Y-56170533D02*
X119508590Y-55837200D01*
X119984780Y-55599104D02*
X118984780Y-55599104D01*
X118984780Y-55980057D01*
X119032400Y-56075295D01*
X119080019Y-56122914D01*
X119175257Y-56170533D01*
X119318114Y-56170533D01*
X119413352Y-56122914D01*
X119460971Y-56075295D01*
X119508590Y-55980057D01*
X119508590Y-55599104D01*
X119984780Y-56646723D02*
X119984780Y-56837200D01*
X119937161Y-56932438D01*
X119889542Y-56980057D01*
X119746685Y-57075295D01*
X119556209Y-57122914D01*
X119175257Y-57122914D01*
X119080019Y-57075295D01*
X119032400Y-57027676D01*
X118984780Y-56932438D01*
X118984780Y-56741961D01*
X119032400Y-56646723D01*
X119080019Y-56599104D01*
X119175257Y-56551485D01*
X119413352Y-56551485D01*
X119508590Y-56599104D01*
X119556209Y-56646723D01*
X119603828Y-56741961D01*
X119603828Y-56932438D01*
X119556209Y-57027676D01*
X119508590Y-57075295D01*
X119413352Y-57122914D01*
X85542380Y-102703333D02*
X85066190Y-102370000D01*
X85542380Y-102131904D02*
X84542380Y-102131904D01*
X84542380Y-102512857D01*
X84590000Y-102608095D01*
X84637619Y-102655714D01*
X84732857Y-102703333D01*
X84875714Y-102703333D01*
X84970952Y-102655714D01*
X85018571Y-102608095D01*
X85066190Y-102512857D01*
X85066190Y-102131904D01*
X84970952Y-103274761D02*
X84923333Y-103179523D01*
X84875714Y-103131904D01*
X84780476Y-103084285D01*
X84732857Y-103084285D01*
X84637619Y-103131904D01*
X84590000Y-103179523D01*
X84542380Y-103274761D01*
X84542380Y-103465238D01*
X84590000Y-103560476D01*
X84637619Y-103608095D01*
X84732857Y-103655714D01*
X84780476Y-103655714D01*
X84875714Y-103608095D01*
X84923333Y-103560476D01*
X84970952Y-103465238D01*
X84970952Y-103274761D01*
X85018571Y-103179523D01*
X85066190Y-103131904D01*
X85161428Y-103084285D01*
X85351904Y-103084285D01*
X85447142Y-103131904D01*
X85494761Y-103179523D01*
X85542380Y-103274761D01*
X85542380Y-103465238D01*
X85494761Y-103560476D01*
X85447142Y-103608095D01*
X85351904Y-103655714D01*
X85161428Y-103655714D01*
X85066190Y-103608095D01*
X85018571Y-103560476D01*
X84970952Y-103465238D01*
X87929980Y-103617733D02*
X87453790Y-103284400D01*
X87929980Y-103046304D02*
X86929980Y-103046304D01*
X86929980Y-103427257D01*
X86977600Y-103522495D01*
X87025219Y-103570114D01*
X87120457Y-103617733D01*
X87263314Y-103617733D01*
X87358552Y-103570114D01*
X87406171Y-103522495D01*
X87453790Y-103427257D01*
X87453790Y-103046304D01*
X86929980Y-103951066D02*
X86929980Y-104617733D01*
X87929980Y-104189161D01*
X88510166Y-108276380D02*
X88843500Y-107800190D01*
X89081595Y-108276380D02*
X89081595Y-107276380D01*
X88700642Y-107276380D01*
X88605404Y-107324000D01*
X88557785Y-107371619D01*
X88510166Y-107466857D01*
X88510166Y-107609714D01*
X88557785Y-107704952D01*
X88605404Y-107752571D01*
X88700642Y-107800190D01*
X89081595Y-107800190D01*
X87653023Y-107276380D02*
X87843500Y-107276380D01*
X87938738Y-107324000D01*
X87986357Y-107371619D01*
X88081595Y-107514476D01*
X88129214Y-107704952D01*
X88129214Y-108085904D01*
X88081595Y-108181142D01*
X88033976Y-108228761D01*
X87938738Y-108276380D01*
X87748261Y-108276380D01*
X87653023Y-108228761D01*
X87605404Y-108181142D01*
X87557785Y-108085904D01*
X87557785Y-107847809D01*
X87605404Y-107752571D01*
X87653023Y-107704952D01*
X87748261Y-107657333D01*
X87938738Y-107657333D01*
X88033976Y-107704952D01*
X88081595Y-107752571D01*
X88129214Y-107847809D01*
X79871866Y-108707180D02*
X80205200Y-108230990D01*
X80443295Y-108707180D02*
X80443295Y-107707180D01*
X80062342Y-107707180D01*
X79967104Y-107754800D01*
X79919485Y-107802419D01*
X79871866Y-107897657D01*
X79871866Y-108040514D01*
X79919485Y-108135752D01*
X79967104Y-108183371D01*
X80062342Y-108230990D01*
X80443295Y-108230990D01*
X79538533Y-107707180D02*
X78919485Y-107707180D01*
X79252819Y-108088133D01*
X79109961Y-108088133D01*
X79014723Y-108135752D01*
X78967104Y-108183371D01*
X78919485Y-108278609D01*
X78919485Y-108516704D01*
X78967104Y-108611942D01*
X79014723Y-108659561D01*
X79109961Y-108707180D01*
X79395676Y-108707180D01*
X79490914Y-108659561D01*
X79538533Y-108611942D01*
X81934038Y-118454419D02*
X82029276Y-118406800D01*
X82124514Y-118311561D01*
X82267371Y-118168704D01*
X82362609Y-118121085D01*
X82457847Y-118121085D01*
X82410228Y-118359180D02*
X82505466Y-118311561D01*
X82600704Y-118216323D01*
X82648323Y-118025847D01*
X82648323Y-117692514D01*
X82600704Y-117502038D01*
X82505466Y-117406800D01*
X82410228Y-117359180D01*
X82219752Y-117359180D01*
X82124514Y-117406800D01*
X82029276Y-117502038D01*
X81981657Y-117692514D01*
X81981657Y-118025847D01*
X82029276Y-118216323D01*
X82124514Y-118311561D01*
X82219752Y-118359180D01*
X82410228Y-118359180D01*
X81600704Y-117454419D02*
X81553085Y-117406800D01*
X81457847Y-117359180D01*
X81219752Y-117359180D01*
X81124514Y-117406800D01*
X81076895Y-117454419D01*
X81029276Y-117549657D01*
X81029276Y-117644895D01*
X81076895Y-117787752D01*
X81648323Y-118359180D01*
X81029276Y-118359180D01*
X80354419Y-111969561D02*
X80306800Y-111874323D01*
X80211561Y-111779085D01*
X80068704Y-111636228D01*
X80021085Y-111540990D01*
X80021085Y-111445752D01*
X80259180Y-111493371D02*
X80211561Y-111398133D01*
X80116323Y-111302895D01*
X79925847Y-111255276D01*
X79592514Y-111255276D01*
X79402038Y-111302895D01*
X79306800Y-111398133D01*
X79259180Y-111493371D01*
X79259180Y-111683847D01*
X79306800Y-111779085D01*
X79402038Y-111874323D01*
X79592514Y-111921942D01*
X79925847Y-111921942D01*
X80116323Y-111874323D01*
X80211561Y-111779085D01*
X80259180Y-111683847D01*
X80259180Y-111493371D01*
X80259180Y-112874323D02*
X80259180Y-112302895D01*
X80259180Y-112588609D02*
X79259180Y-112588609D01*
X79402038Y-112493371D01*
X79497276Y-112398133D01*
X79544895Y-112302895D01*
X96098333Y-80900880D02*
X96098333Y-81615166D01*
X96145952Y-81758023D01*
X96241190Y-81853261D01*
X96384047Y-81900880D01*
X96479285Y-81900880D01*
X95622142Y-81900880D02*
X95622142Y-80900880D01*
X95241190Y-80900880D01*
X95145952Y-80948500D01*
X95098333Y-80996119D01*
X95050714Y-81091357D01*
X95050714Y-81234214D01*
X95098333Y-81329452D01*
X95145952Y-81377071D01*
X95241190Y-81424690D01*
X95622142Y-81424690D01*
X94669761Y-80996119D02*
X94622142Y-80948500D01*
X94526904Y-80900880D01*
X94288809Y-80900880D01*
X94193571Y-80948500D01*
X94145952Y-80996119D01*
X94098333Y-81091357D01*
X94098333Y-81186595D01*
X94145952Y-81329452D01*
X94717380Y-81900880D01*
X94098333Y-81900880D01*
X103239824Y-147579934D02*
X103581844Y-146640241D01*
X103358108Y-146558808D01*
X103207579Y-146554695D01*
X103085511Y-146611616D01*
X103008191Y-146684824D01*
X102898297Y-146847527D01*
X102849437Y-146981768D01*
X102829037Y-147177044D01*
X102841211Y-147282825D01*
X102898132Y-147404893D01*
X103016087Y-147498501D01*
X103239824Y-147579934D01*
X102194679Y-146135354D02*
X102642151Y-146298221D01*
X102524032Y-146761981D01*
X102495571Y-146700947D01*
X102422363Y-146623626D01*
X102198627Y-146542193D01*
X102092846Y-146554367D01*
X102031812Y-146582827D01*
X101954491Y-146656035D01*
X101873058Y-146879771D01*
X101885232Y-146985553D01*
X101913692Y-147046587D01*
X101986900Y-147123907D01*
X102210637Y-147205340D01*
X102316418Y-147193167D01*
X102377452Y-147164706D01*
X94565695Y-111856780D02*
X94565695Y-110856780D01*
X94327600Y-110856780D01*
X94184742Y-110904400D01*
X94089504Y-110999638D01*
X94041885Y-111094876D01*
X93994266Y-111285352D01*
X93994266Y-111428209D01*
X94041885Y-111618685D01*
X94089504Y-111713923D01*
X94184742Y-111809161D01*
X94327600Y-111856780D01*
X94565695Y-111856780D01*
X93137123Y-111190114D02*
X93137123Y-111856780D01*
X93375219Y-110809161D02*
X93613314Y-111523447D01*
X92994266Y-111523447D01*
X90825580Y-102690704D02*
X89825580Y-102690704D01*
X89825580Y-102928800D01*
X89873200Y-103071657D01*
X89968438Y-103166895D01*
X90063676Y-103214514D01*
X90254152Y-103262133D01*
X90397009Y-103262133D01*
X90587485Y-103214514D01*
X90682723Y-103166895D01*
X90777961Y-103071657D01*
X90825580Y-102928800D01*
X90825580Y-102690704D01*
X89825580Y-103595466D02*
X89825580Y-104214514D01*
X90206533Y-103881180D01*
X90206533Y-104024038D01*
X90254152Y-104119276D01*
X90301771Y-104166895D01*
X90397009Y-104214514D01*
X90635104Y-104214514D01*
X90730342Y-104166895D01*
X90777961Y-104119276D01*
X90825580Y-104024038D01*
X90825580Y-103738323D01*
X90777961Y-103643085D01*
X90730342Y-103595466D01*
X84475580Y-100506304D02*
X83475580Y-100506304D01*
X83475580Y-100744400D01*
X83523200Y-100887257D01*
X83618438Y-100982495D01*
X83713676Y-101030114D01*
X83904152Y-101077733D01*
X84047009Y-101077733D01*
X84237485Y-101030114D01*
X84332723Y-100982495D01*
X84427961Y-100887257D01*
X84475580Y-100744400D01*
X84475580Y-100506304D01*
X83570819Y-101458685D02*
X83523200Y-101506304D01*
X83475580Y-101601542D01*
X83475580Y-101839638D01*
X83523200Y-101934876D01*
X83570819Y-101982495D01*
X83666057Y-102030114D01*
X83761295Y-102030114D01*
X83904152Y-101982495D01*
X84475580Y-101411066D01*
X84475580Y-102030114D01*
X116719642Y-133253142D02*
X116767261Y-133205523D01*
X116814880Y-133062666D01*
X116814880Y-132967428D01*
X116767261Y-132824571D01*
X116672023Y-132729333D01*
X116576785Y-132681714D01*
X116386309Y-132634095D01*
X116243452Y-132634095D01*
X116052976Y-132681714D01*
X115957738Y-132729333D01*
X115862500Y-132824571D01*
X115814880Y-132967428D01*
X115814880Y-133062666D01*
X115862500Y-133205523D01*
X115910119Y-133253142D01*
X115814880Y-133586476D02*
X115814880Y-134205523D01*
X116195833Y-133872190D01*
X116195833Y-134015047D01*
X116243452Y-134110285D01*
X116291071Y-134157904D01*
X116386309Y-134205523D01*
X116624404Y-134205523D01*
X116719642Y-134157904D01*
X116767261Y-134110285D01*
X116814880Y-134015047D01*
X116814880Y-133729333D01*
X116767261Y-133634095D01*
X116719642Y-133586476D01*
X115910119Y-134586476D02*
X115862500Y-134634095D01*
X115814880Y-134729333D01*
X115814880Y-134967428D01*
X115862500Y-135062666D01*
X115910119Y-135110285D01*
X116005357Y-135157904D01*
X116100595Y-135157904D01*
X116243452Y-135110285D01*
X116814880Y-134538857D01*
X116814880Y-135157904D01*
X118497642Y-145762642D02*
X118545261Y-145715023D01*
X118592880Y-145572166D01*
X118592880Y-145476928D01*
X118545261Y-145334071D01*
X118450023Y-145238833D01*
X118354785Y-145191214D01*
X118164309Y-145143595D01*
X118021452Y-145143595D01*
X117830976Y-145191214D01*
X117735738Y-145238833D01*
X117640500Y-145334071D01*
X117592880Y-145476928D01*
X117592880Y-145572166D01*
X117640500Y-145715023D01*
X117688119Y-145762642D01*
X117592880Y-146095976D02*
X117592880Y-146715023D01*
X117973833Y-146381690D01*
X117973833Y-146524547D01*
X118021452Y-146619785D01*
X118069071Y-146667404D01*
X118164309Y-146715023D01*
X118402404Y-146715023D01*
X118497642Y-146667404D01*
X118545261Y-146619785D01*
X118592880Y-146524547D01*
X118592880Y-146238833D01*
X118545261Y-146143595D01*
X118497642Y-146095976D01*
X117592880Y-147334071D02*
X117592880Y-147429309D01*
X117640500Y-147524547D01*
X117688119Y-147572166D01*
X117783357Y-147619785D01*
X117973833Y-147667404D01*
X118211928Y-147667404D01*
X118402404Y-147619785D01*
X118497642Y-147572166D01*
X118545261Y-147524547D01*
X118592880Y-147429309D01*
X118592880Y-147334071D01*
X118545261Y-147238833D01*
X118497642Y-147191214D01*
X118402404Y-147143595D01*
X118211928Y-147095976D01*
X117973833Y-147095976D01*
X117783357Y-147143595D01*
X117688119Y-147191214D01*
X117640500Y-147238833D01*
X117592880Y-147334071D01*
X138067142Y-139054142D02*
X138114761Y-139006523D01*
X138162380Y-138863666D01*
X138162380Y-138768428D01*
X138114761Y-138625571D01*
X138019523Y-138530333D01*
X137924285Y-138482714D01*
X137733809Y-138435095D01*
X137590952Y-138435095D01*
X137400476Y-138482714D01*
X137305238Y-138530333D01*
X137210000Y-138625571D01*
X137162380Y-138768428D01*
X137162380Y-138863666D01*
X137210000Y-139006523D01*
X137257619Y-139054142D01*
X137257619Y-139435095D02*
X137210000Y-139482714D01*
X137162380Y-139577952D01*
X137162380Y-139816047D01*
X137210000Y-139911285D01*
X137257619Y-139958904D01*
X137352857Y-140006523D01*
X137448095Y-140006523D01*
X137590952Y-139958904D01*
X138162380Y-139387476D01*
X138162380Y-140006523D01*
X137590952Y-140577952D02*
X137543333Y-140482714D01*
X137495714Y-140435095D01*
X137400476Y-140387476D01*
X137352857Y-140387476D01*
X137257619Y-140435095D01*
X137210000Y-140482714D01*
X137162380Y-140577952D01*
X137162380Y-140768428D01*
X137210000Y-140863666D01*
X137257619Y-140911285D01*
X137352857Y-140958904D01*
X137400476Y-140958904D01*
X137495714Y-140911285D01*
X137543333Y-140863666D01*
X137590952Y-140768428D01*
X137590952Y-140577952D01*
X137638571Y-140482714D01*
X137686190Y-140435095D01*
X137781428Y-140387476D01*
X137971904Y-140387476D01*
X138067142Y-140435095D01*
X138114761Y-140482714D01*
X138162380Y-140577952D01*
X138162380Y-140768428D01*
X138114761Y-140863666D01*
X138067142Y-140911285D01*
X137971904Y-140958904D01*
X137781428Y-140958904D01*
X137686190Y-140911285D01*
X137638571Y-140863666D01*
X137590952Y-140768428D01*
X114942542Y-143143542D02*
X114990161Y-143095923D01*
X115037780Y-142953066D01*
X115037780Y-142857828D01*
X114990161Y-142714971D01*
X114894923Y-142619733D01*
X114799685Y-142572114D01*
X114609209Y-142524495D01*
X114466352Y-142524495D01*
X114275876Y-142572114D01*
X114180638Y-142619733D01*
X114085400Y-142714971D01*
X114037780Y-142857828D01*
X114037780Y-142953066D01*
X114085400Y-143095923D01*
X114133019Y-143143542D01*
X114133019Y-143524495D02*
X114085400Y-143572114D01*
X114037780Y-143667352D01*
X114037780Y-143905447D01*
X114085400Y-144000685D01*
X114133019Y-144048304D01*
X114228257Y-144095923D01*
X114323495Y-144095923D01*
X114466352Y-144048304D01*
X115037780Y-143476876D01*
X115037780Y-144095923D01*
X114037780Y-145000685D02*
X114037780Y-144524495D01*
X114513971Y-144476876D01*
X114466352Y-144524495D01*
X114418733Y-144619733D01*
X114418733Y-144857828D01*
X114466352Y-144953066D01*
X114513971Y-145000685D01*
X114609209Y-145048304D01*
X114847304Y-145048304D01*
X114942542Y-145000685D01*
X114990161Y-144953066D01*
X115037780Y-144857828D01*
X115037780Y-144619733D01*
X114990161Y-144524495D01*
X114942542Y-144476876D01*
X134723142Y-144848342D02*
X134770761Y-144800723D01*
X134818380Y-144657866D01*
X134818380Y-144562628D01*
X134770761Y-144419771D01*
X134675523Y-144324533D01*
X134580285Y-144276914D01*
X134389809Y-144229295D01*
X134246952Y-144229295D01*
X134056476Y-144276914D01*
X133961238Y-144324533D01*
X133866000Y-144419771D01*
X133818380Y-144562628D01*
X133818380Y-144657866D01*
X133866000Y-144800723D01*
X133913619Y-144848342D01*
X133913619Y-145229295D02*
X133866000Y-145276914D01*
X133818380Y-145372152D01*
X133818380Y-145610247D01*
X133866000Y-145705485D01*
X133913619Y-145753104D01*
X134008857Y-145800723D01*
X134104095Y-145800723D01*
X134246952Y-145753104D01*
X134818380Y-145181676D01*
X134818380Y-145800723D01*
X133818380Y-146134057D02*
X133818380Y-146753104D01*
X134199333Y-146419771D01*
X134199333Y-146562628D01*
X134246952Y-146657866D01*
X134294571Y-146705485D01*
X134389809Y-146753104D01*
X134627904Y-146753104D01*
X134723142Y-146705485D01*
X134770761Y-146657866D01*
X134818380Y-146562628D01*
X134818380Y-146276914D01*
X134770761Y-146181676D01*
X134723142Y-146134057D01*
X88679357Y-92338142D02*
X88726976Y-92385761D01*
X88869833Y-92433380D01*
X88965071Y-92433380D01*
X89107928Y-92385761D01*
X89203166Y-92290523D01*
X89250785Y-92195285D01*
X89298404Y-92004809D01*
X89298404Y-91861952D01*
X89250785Y-91671476D01*
X89203166Y-91576238D01*
X89107928Y-91481000D01*
X88965071Y-91433380D01*
X88869833Y-91433380D01*
X88726976Y-91481000D01*
X88679357Y-91528619D01*
X87726976Y-92433380D02*
X88298404Y-92433380D01*
X88012690Y-92433380D02*
X88012690Y-91433380D01*
X88107928Y-91576238D01*
X88203166Y-91671476D01*
X88298404Y-91719095D01*
X86822214Y-91433380D02*
X87298404Y-91433380D01*
X87346023Y-91909571D01*
X87298404Y-91861952D01*
X87203166Y-91814333D01*
X86965071Y-91814333D01*
X86869833Y-91861952D01*
X86822214Y-91909571D01*
X86774595Y-92004809D01*
X86774595Y-92242904D01*
X86822214Y-92338142D01*
X86869833Y-92385761D01*
X86965071Y-92433380D01*
X87203166Y-92433380D01*
X87298404Y-92385761D01*
X87346023Y-92338142D01*
X84920057Y-92457542D02*
X84967676Y-92505161D01*
X85110533Y-92552780D01*
X85205771Y-92552780D01*
X85348628Y-92505161D01*
X85443866Y-92409923D01*
X85491485Y-92314685D01*
X85539104Y-92124209D01*
X85539104Y-91981352D01*
X85491485Y-91790876D01*
X85443866Y-91695638D01*
X85348628Y-91600400D01*
X85205771Y-91552780D01*
X85110533Y-91552780D01*
X84967676Y-91600400D01*
X84920057Y-91648019D01*
X83967676Y-92552780D02*
X84539104Y-92552780D01*
X84253390Y-92552780D02*
X84253390Y-91552780D01*
X84348628Y-91695638D01*
X84443866Y-91790876D01*
X84539104Y-91838495D01*
X83110533Y-91886114D02*
X83110533Y-92552780D01*
X83348628Y-91505161D02*
X83586723Y-92219447D01*
X82967676Y-92219447D01*
X92161357Y-90145142D02*
X92208976Y-90192761D01*
X92351833Y-90240380D01*
X92447071Y-90240380D01*
X92589928Y-90192761D01*
X92685166Y-90097523D01*
X92732785Y-90002285D01*
X92780404Y-89811809D01*
X92780404Y-89668952D01*
X92732785Y-89478476D01*
X92685166Y-89383238D01*
X92589928Y-89288000D01*
X92447071Y-89240380D01*
X92351833Y-89240380D01*
X92208976Y-89288000D01*
X92161357Y-89335619D01*
X91208976Y-90240380D02*
X91780404Y-90240380D01*
X91494690Y-90240380D02*
X91494690Y-89240380D01*
X91589928Y-89383238D01*
X91685166Y-89478476D01*
X91780404Y-89526095D01*
X90875642Y-89240380D02*
X90256595Y-89240380D01*
X90589928Y-89621333D01*
X90447071Y-89621333D01*
X90351833Y-89668952D01*
X90304214Y-89716571D01*
X90256595Y-89811809D01*
X90256595Y-90049904D01*
X90304214Y-90145142D01*
X90351833Y-90192761D01*
X90447071Y-90240380D01*
X90732785Y-90240380D01*
X90828023Y-90192761D01*
X90875642Y-90145142D01*
X82875357Y-69319142D02*
X82922976Y-69366761D01*
X83065833Y-69414380D01*
X83161071Y-69414380D01*
X83303928Y-69366761D01*
X83399166Y-69271523D01*
X83446785Y-69176285D01*
X83494404Y-68985809D01*
X83494404Y-68842952D01*
X83446785Y-68652476D01*
X83399166Y-68557238D01*
X83303928Y-68462000D01*
X83161071Y-68414380D01*
X83065833Y-68414380D01*
X82922976Y-68462000D01*
X82875357Y-68509619D01*
X81922976Y-69414380D02*
X82494404Y-69414380D01*
X82208690Y-69414380D02*
X82208690Y-68414380D01*
X82303928Y-68557238D01*
X82399166Y-68652476D01*
X82494404Y-68700095D01*
X80970595Y-69414380D02*
X81542023Y-69414380D01*
X81256309Y-69414380D02*
X81256309Y-68414380D01*
X81351547Y-68557238D01*
X81446785Y-68652476D01*
X81542023Y-68700095D01*
X80062342Y-85259942D02*
X80109961Y-85212323D01*
X80157580Y-85069466D01*
X80157580Y-84974228D01*
X80109961Y-84831371D01*
X80014723Y-84736133D01*
X79919485Y-84688514D01*
X79729009Y-84640895D01*
X79586152Y-84640895D01*
X79395676Y-84688514D01*
X79300438Y-84736133D01*
X79205200Y-84831371D01*
X79157580Y-84974228D01*
X79157580Y-85069466D01*
X79205200Y-85212323D01*
X79252819Y-85259942D01*
X80157580Y-86212323D02*
X80157580Y-85640895D01*
X80157580Y-85926609D02*
X79157580Y-85926609D01*
X79300438Y-85831371D01*
X79395676Y-85736133D01*
X79443295Y-85640895D01*
X79157580Y-86831371D02*
X79157580Y-86926609D01*
X79205200Y-87021847D01*
X79252819Y-87069466D01*
X79348057Y-87117085D01*
X79538533Y-87164704D01*
X79776628Y-87164704D01*
X79967104Y-87117085D01*
X80062342Y-87069466D01*
X80109961Y-87021847D01*
X80157580Y-86926609D01*
X80157580Y-86831371D01*
X80109961Y-86736133D01*
X80062342Y-86688514D01*
X79967104Y-86640895D01*
X79776628Y-86593276D01*
X79538533Y-86593276D01*
X79348057Y-86640895D01*
X79252819Y-86688514D01*
X79205200Y-86736133D01*
X79157580Y-86831371D01*
X129628166Y-61381642D02*
X129675785Y-61429261D01*
X129818642Y-61476880D01*
X129913880Y-61476880D01*
X130056738Y-61429261D01*
X130151976Y-61334023D01*
X130199595Y-61238785D01*
X130247214Y-61048309D01*
X130247214Y-60905452D01*
X130199595Y-60714976D01*
X130151976Y-60619738D01*
X130056738Y-60524500D01*
X129913880Y-60476880D01*
X129818642Y-60476880D01*
X129675785Y-60524500D01*
X129628166Y-60572119D01*
X128723404Y-60476880D02*
X129199595Y-60476880D01*
X129247214Y-60953071D01*
X129199595Y-60905452D01*
X129104357Y-60857833D01*
X128866261Y-60857833D01*
X128771023Y-60905452D01*
X128723404Y-60953071D01*
X128675785Y-61048309D01*
X128675785Y-61286404D01*
X128723404Y-61381642D01*
X128771023Y-61429261D01*
X128866261Y-61476880D01*
X129104357Y-61476880D01*
X129199595Y-61429261D01*
X129247214Y-61381642D01*
X92775066Y-115825542D02*
X92822685Y-115873161D01*
X92965542Y-115920780D01*
X93060780Y-115920780D01*
X93203638Y-115873161D01*
X93298876Y-115777923D01*
X93346495Y-115682685D01*
X93394114Y-115492209D01*
X93394114Y-115349352D01*
X93346495Y-115158876D01*
X93298876Y-115063638D01*
X93203638Y-114968400D01*
X93060780Y-114920780D01*
X92965542Y-114920780D01*
X92822685Y-114968400D01*
X92775066Y-115016019D01*
X92441733Y-114920780D02*
X91822685Y-114920780D01*
X92156019Y-115301733D01*
X92013161Y-115301733D01*
X91917923Y-115349352D01*
X91870304Y-115396971D01*
X91822685Y-115492209D01*
X91822685Y-115730304D01*
X91870304Y-115825542D01*
X91917923Y-115873161D01*
X92013161Y-115920780D01*
X92298876Y-115920780D01*
X92394114Y-115873161D01*
X92441733Y-115825542D01*
X87275942Y-120534133D02*
X87323561Y-120486514D01*
X87371180Y-120343657D01*
X87371180Y-120248419D01*
X87323561Y-120105561D01*
X87228323Y-120010323D01*
X87133085Y-119962704D01*
X86942609Y-119915085D01*
X86799752Y-119915085D01*
X86609276Y-119962704D01*
X86514038Y-120010323D01*
X86418800Y-120105561D01*
X86371180Y-120248419D01*
X86371180Y-120343657D01*
X86418800Y-120486514D01*
X86466419Y-120534133D01*
X86466419Y-120915085D02*
X86418800Y-120962704D01*
X86371180Y-121057942D01*
X86371180Y-121296038D01*
X86418800Y-121391276D01*
X86466419Y-121438895D01*
X86561657Y-121486514D01*
X86656895Y-121486514D01*
X86799752Y-121438895D01*
X87371180Y-120867466D01*
X87371180Y-121486514D01*
X85243942Y-120534133D02*
X85291561Y-120486514D01*
X85339180Y-120343657D01*
X85339180Y-120248419D01*
X85291561Y-120105561D01*
X85196323Y-120010323D01*
X85101085Y-119962704D01*
X84910609Y-119915085D01*
X84767752Y-119915085D01*
X84577276Y-119962704D01*
X84482038Y-120010323D01*
X84386800Y-120105561D01*
X84339180Y-120248419D01*
X84339180Y-120343657D01*
X84386800Y-120486514D01*
X84434419Y-120534133D01*
X85339180Y-121486514D02*
X85339180Y-120915085D01*
X85339180Y-121200800D02*
X84339180Y-121200800D01*
X84482038Y-121105561D01*
X84577276Y-121010323D01*
X84624895Y-120915085D01*
M02*
