M48
; DRILL file {KiCad (5.1.5)-3} date 10/13/2020 10:13:06 PM
; FORMAT={-:-/ absolute / inch / decimal}
; #@! TF.CreationDate,2020-10-13T22:13:06-07:00
; #@! TF.GenerationSoftware,Kicad,Pcbnew,(5.1.5)-3
; #@! TF.FileFunction,NonPlated,1,4,NPTH
FMAT,2
INCH
T1C0.0394
T2C0.1000
T3C0.2800
%
G90
G05
T1
X5.1381Y-2.5449
X3.3009Y-4.9108
X3.0264Y-4.313
X3.1072Y-4.5349
X5.8263Y-2.5324
X6.1806Y-2.5324
X3.5422Y-5.1663
X3.7232Y-5.3181
X4.9019Y-2.5449
X4.2181Y-5.6126
X4.4462Y-5.6737
X3.1433Y-4.6182
X3.2614Y-4.8227
X3.4527Y-5.0918
T2
X3.035Y-2.6525
X2.805Y-3.0925
X5.6425Y-5.87
X4.61Y-1.74
X5.87Y-5.7575
X6.205Y-2.2425
X4.7575Y-1.7225
X2.87Y-2.95
X4.465Y-6.0275
X3.6375Y-2.0875
X5.7575Y-5.8175
X5.1475Y-2.8825
X3.7625Y-2.015
X3.1125Y-2.5425
X3.195Y-2.44
X6.095Y-2.165
X3.8675Y-1.9575
X3.99Y-1.9
X2.92Y-2.8475
X4.06Y-5.905
X5.41Y-1.815
X5.0125Y-2.88
X4.4625Y-1.755
X5.11Y-1.755
X4.335Y-5.9875
X5.26Y-1.7825
X5.89Y-2.025
X5.9775Y-5.695
X4.0925Y-1.8475
X4.2Y-5.9425
X5.9975Y-2.0975
X2.76Y-3.1975
X3.5375Y-2.15
X3.9275Y-5.8625
X4.87Y-2.8825
T3
X4.12Y-5.0816
X5.495Y-5.0816
X4.12Y-2.7
X5.495Y-2.7
T0
M30
