G04 #@! TF.GenerationSoftware,KiCad,Pcbnew,(5.1.5)-3*
G04 #@! TF.CreationDate,2020-10-13T22:13:04-07:00*
G04 #@! TF.ProjectId,LCP_PowerControl,4c43505f-506f-4776-9572-436f6e74726f,rev?*
G04 #@! TF.SameCoordinates,Original*
G04 #@! TF.FileFunction,Profile,NP*
%FSLAX46Y46*%
G04 Gerber Fmt 4.6, Leading zero omitted, Abs format (unit mm)*
G04 Created by KiCad (PCBNEW (5.1.5)-3) date 2020-10-13 22:13:04*
%MOMM*%
%LPD*%
G04 APERTURE LIST*
%ADD10C,0.250000*%
%ADD11C,0.100000*%
G04 APERTURE END LIST*
D10*
X136097847Y-68996313D02*
X136097801Y-69278362D01*
X165862603Y-129821127D02*
G75*
G02X152590499Y-142938499I-43752104J30995190D01*
G01*
D11*
X141271225Y-148928441D02*
G75*
G02X115697001Y-152082499I-19160726J50102504D01*
G01*
X98504585Y-146969692D02*
G75*
G02X69715431Y-110219669I23605914J48143755D01*
G01*
D10*
X69714456Y-87431992D02*
G75*
G02X70802500Y-83248500I52396043J-11393945D01*
G01*
X75949750Y-71503220D02*
G75*
G02X77216001Y-69469001I46160749J-27322717D01*
G01*
D11*
X83348863Y-61760028D02*
G75*
G02X89154001Y-56515001I38761636J-37065909D01*
G01*
X106036104Y-47660180D02*
G75*
G02X111633001Y-46228001I16074395J-51165757D01*
G01*
X122682210Y-45192232D02*
G75*
G02X128142999Y-45529501I-571711J-53633705D01*
G01*
X138825581Y-47898074D02*
G75*
G02X147510499Y-51625501I-16715082J-50927863D01*
G01*
X157896511Y-58895730D02*
G75*
G02X165863453Y-67830145I-35786012J-39930207D01*
G01*
X157769570Y-149629709D02*
G75*
G02X143827499Y-156971999I-35659071J50803772D01*
G01*
X114410911Y-160466310D02*
G75*
G02X94805501Y-154622499I7699588J61640373D01*
G01*
D10*
X63079885Y-79763875D02*
G75*
G02X68643501Y-67373501I59030614J-19062062D01*
G01*
X70347028Y-64572240D02*
G75*
G02X77787501Y-55372001I51763471J-34253697D01*
G01*
D11*
X84211148Y-49797127D02*
G75*
G02X102997001Y-39878001I37899351J-49028810D01*
G01*
X110114137Y-37999052D02*
G75*
G02X122681999Y-36830001I11996362J-60826885D01*
G01*
X129229902Y-37146864D02*
G75*
G02X141414499Y-39814501I-7119403J-61679073D01*
G01*
X152266939Y-44651389D02*
G75*
G02X163829999Y-52959001I-30156440J-54174548D01*
G01*
D10*
X152590500Y-142938500D02*
X157769570Y-149629709D01*
D11*
X141271225Y-148928441D02*
X143827500Y-156972000D01*
X115697000Y-152082500D02*
X114410911Y-160466310D01*
X98504586Y-146969692D02*
X94805500Y-154622500D01*
D10*
X70802500Y-83248500D02*
X63079885Y-79763875D01*
X75949750Y-71503220D02*
X68643500Y-67373500D01*
X77216001Y-69469001D02*
X70347028Y-64572240D01*
D11*
X83348863Y-61760028D02*
X77787501Y-55372001D01*
X89154000Y-56515000D02*
X84211148Y-49797127D01*
X106036104Y-47660180D02*
X102997001Y-39878001D01*
X111633000Y-46228000D02*
X110114137Y-37999052D01*
X122682210Y-45192232D02*
X122682000Y-36830000D01*
X128143000Y-45529500D02*
X129229902Y-37146864D01*
X138825581Y-47898074D02*
X141414500Y-39814500D01*
X147510500Y-51625500D02*
X152266939Y-44651389D01*
X157896511Y-58895730D02*
X163830000Y-52959000D01*
D10*
X132651500Y-71818500D02*
X133477000Y-71818500D01*
X121666000Y-78740000D02*
X121666000Y-71818500D01*
X132651500Y-78740000D02*
X132651500Y-71818500D01*
X121666000Y-78740000D02*
X132651500Y-78740000D01*
X69715430Y-110219670D02*
G75*
G02X70617743Y-107690918I2481994J539730D01*
G01*
X136097801Y-69278362D02*
G75*
G02X133477000Y-71818500I-2521922J-20075D01*
G01*
X79052298Y-90946987D02*
G75*
G02X81529710Y-93991751I858766J-1831525D01*
G01*
X145570118Y-71838437D02*
X163790844Y-71838437D01*
X165863455Y-67830143D02*
G75*
G02X163790844Y-71838438I-2072611J-1468294D01*
G01*
X143047880Y-128653294D02*
G75*
G02X136097846Y-128655561I-3474881J-418580D01*
G01*
X133575879Y-125813438D02*
G75*
G02X136097846Y-128655561I0J-2539999D01*
G01*
X81529709Y-103660122D02*
G75*
G02X79052299Y-106704887I-1618645J-1213240D01*
G01*
X122110499Y-125837032D02*
G75*
G02X121666000Y-71818500I0J27011095D01*
G01*
X81529711Y-103660124D02*
G75*
G02X81529710Y-93991751I6449539J4834187D01*
G01*
X133575879Y-125813437D02*
X122110499Y-125837032D01*
X70617743Y-107690918D02*
G75*
G02X79052299Y-106704887I5012779J-6311734D01*
G01*
X163790843Y-125813438D02*
G75*
G02X165863454Y-129821730I1J-2539999D01*
G01*
X79052299Y-90946987D02*
G75*
G02X70617743Y-89960956I-3421777J7297765D01*
G01*
X145570118Y-71838436D02*
G75*
G02X143048151Y-68996313I0J2539999D01*
G01*
X136097847Y-68996313D02*
G75*
G02X143048151Y-68996313I3475152J416313D01*
G01*
X163790844Y-125813437D02*
X145570118Y-125813437D01*
X143048149Y-128655561D02*
G75*
G02X145570118Y-125813436I2521969J302124D01*
G01*
X70617743Y-89960956D02*
G75*
G02X69715431Y-87432204I1579681J1989022D01*
G01*
M02*
