M48
; DRILL file {KiCad (5.1.7)-1} date 12/22/20 22:25:21
; FORMAT={-:-/ absolute / inch / decimal}
; #@! TF.CreationDate,2020-12-22T22:25:21-08:00
; #@! TF.GenerationSoftware,Kicad,Pcbnew,(5.1.7)-1
; #@! TF.FileFunction,Plated,1,4,PTH
FMAT,2
INCH
T1C0.0118
T2C0.0157
T3C0.0200
T4C0.0256
T5C0.0315
T6C0.0394
T7C0.0398
T8C0.0472
%
G90
G05
T1
X3.075Y-2.7675
X3.0925Y-2.8125
X3.1275Y-2.81
X3.1375Y-2.6575
X3.1658Y-2.9908
X3.1675Y-2.955
X3.175Y-2.91
X3.23Y-4.225
X3.2325Y-4.0
X3.2454Y-3.8305
X3.2625Y-2.955
X3.285Y-2.69
X3.285Y-4.6775
X3.2957Y-4.3981
X3.2974Y-3.1593
X3.3025Y-3.905
X3.305Y-4.37
X3.3145Y-4.548
X3.3225Y-4.465
X3.3243Y-3.5141
X3.33Y-4.3472
X3.3616Y-3.1082
X3.3652Y-3.0618
X3.3653Y-2.9047
X3.3681Y-2.8684
X3.375Y-4.4575
X3.3765Y-3.179
X3.4025Y-3.13
X3.4125Y-3.085
X3.42Y-3.935
X3.4226Y-3.1526
X3.425Y-4.46
X3.4461Y-4.3636
X3.4507Y-3.3408
X3.455Y-4.6325
X3.4825Y-4.015
X3.4875Y-3.07
X3.4875Y-4.485
X3.5078Y-3.3525
X3.5175Y-3.0
X3.5275Y-3.1675
X3.5403Y-3.0761
X3.5425Y-2.9772
X3.5873Y-3.2818
X3.5875Y-3.8125
X3.59Y-4.6025
X3.5975Y-3.45
X3.6077Y-2.811
X3.6171Y-2.8391
X3.6375Y-3.1025
X3.6465Y-2.8424
X3.66Y-2.545
X3.6625Y-2.5
X3.6675Y-3.205
X3.6675Y-4.9025
X3.695Y-3.1425
X3.7091Y-2.8918
X3.72Y-3.8625
X3.7725Y-3.445
X3.825Y-3.3675
X3.8259Y-3.0469
X3.8475Y-4.87
X3.905Y-2.2175
X3.9371Y-2.7618
X3.94Y-3.1375
X3.955Y-2.1625
X3.9572Y-2.8027
X4.1025Y-2.2275
X4.1175Y-2.3025
X4.14Y-2.09
X4.1975Y-2.07
X4.2101Y-2.2176
X4.245Y-2.05
X4.245Y-2.2675
X4.269Y-2.4653
X4.385Y-2.4375
X4.405Y-2.1425
X4.405Y-2.2475
X4.5198Y-2.1996
X4.5523Y-2.2586
X4.59Y-5.175
X4.5975Y-2.1825
X4.6275Y-2.5275
X4.655Y-5.175
X4.6575Y-2.2116
X4.675Y-2.515
X4.685Y-5.605
X4.6925Y-5.6675
X4.695Y-5.8375
X4.705Y-2.23
X4.7128Y-2.4897
X4.7175Y-2.45
X4.72Y-5.5625
X4.7525Y-5.7875
X4.78Y-5.7575
X4.8Y-5.305
X4.83Y-5.9275
X4.8725Y-5.8075
X4.92Y-5.8875
X5.0487Y-2.7465
X5.05Y-5.5725
X5.0625Y-5.6275
X5.065Y-5.6825
X5.0925Y-5.17
X5.1525Y-5.17
X5.1549Y-2.7723
X5.1571Y-2.7428
X5.2625Y-5.6525
X5.3175Y-1.9875
X5.54Y-2.2
X5.55Y-2.365
X5.5725Y-2.39
X5.5925Y-2.4137
X5.6323Y-2.4302
X5.6525Y-2.4775
X5.7375Y-2.165
X5.7206Y-2.2544
X5.7513Y-2.2238
X5.7513Y-2.285
X5.7819Y-2.1931
X5.7819Y-2.2544
X5.7819Y-2.3156
X5.8125Y-2.2238
X5.8125Y-2.285
X5.8125Y-2.3462
X5.8431Y-2.2544
X5.8431Y-2.3156
X5.8431Y-2.3769
X5.8737Y-2.285
X5.8737Y-2.3462
X5.9044Y-2.3156
T2
X3.1367Y-3.0905
X3.15Y-3.1925
X3.1752Y-3.0766
X3.539Y-4.1063
X3.5425Y-3.57
X3.6443Y-3.65
X3.6513Y-4.3912
X3.6862Y-3.5016
X3.715Y-2.295
X3.735Y-3.475
X3.8599Y-3.2172
X4.3505Y-2.2655
X4.5625Y-5.2975
X4.6025Y-5.7875
X4.8175Y-2.2875
X5.12Y-5.3525
X5.1675Y-5.835
X5.2425Y-5.385
X5.2525Y-5.52
X5.455Y-5.56
X5.5375Y-5.56
X5.65Y-5.56
X5.6877Y-2.4177
X5.786Y-2.0479
X5.7875Y-2.575
X5.8625Y-5.66
X5.885Y-5.395
X5.905Y-2.1175
X5.9375Y-2.1375
X5.955Y-5.595
X6.0275Y-5.27
X6.125Y-5.4525
X6.15Y-2.34
T3
X2.81Y-3.4225
X3.075Y-3.5425
X3.1775Y-3.4225
X4.7899Y-5.2251
X4.805Y-5.4875
X4.935Y-5.485
X4.9499Y-5.2251
X5.9804Y-2.1754
T4
X2.9336Y-3.1342
X2.9547Y-3.0889
X2.9758Y-3.0436
X2.9789Y-3.1553
X2.9969Y-2.9982
X3.0Y-3.11
X3.0181Y-2.9529
X3.0211Y-3.0647
X3.0423Y-3.0194
X3.0634Y-2.9741
T5
X4.5425Y-2.6688
X4.5425Y-2.7475
X4.6212Y-2.6688
X4.6212Y-2.7475
X4.7Y-2.6688
X4.7Y-2.7475
X4.7787Y-2.6688
X4.7787Y-2.7475
X4.8575Y-2.6688
X4.8575Y-2.7475
X4.9362Y-2.6688
X4.9362Y-2.7475
X4.545Y-2.3925
X4.545Y-2.4712
X4.6237Y-2.3925
X4.6237Y-2.4712
X4.91Y-2.3975
X4.91Y-2.4762
X4.9887Y-2.3975
X4.9887Y-2.4762
T6
X4.292Y-5.793
X4.3226Y-5.6789
X3.3484Y-2.4768
X3.425Y-2.4125
X3.5016Y-2.3482
X3.5782Y-2.2839
X3.6548Y-2.2197
X3.7314Y-2.1554
X6.3575Y-5.095
X4.54Y-5.0375
X3.533Y-5.361
X3.6089Y-5.2705
X6.03Y-2.5744
X6.03Y-2.6925
X6.1225Y-5.1025
X2.921Y-4.477
X3.032Y-4.4366
X3.068Y-4.798
X3.1703Y-4.7389
X4.8294Y-1.9144
X4.8294Y-2.0325
X4.9475Y-1.9144
X4.9475Y-2.0325
X3.76Y-4.6575
X3.76Y-4.7575
X3.76Y-4.8575
X3.76Y-4.9575
X3.76Y-5.0575
X3.9002Y-2.0835
X3.9941Y-2.0493
X4.0881Y-2.0151
X4.1821Y-1.9809
X4.276Y-1.9467
X4.37Y-1.9125
X5.0875Y-5.8975
X5.8675Y-5.105
X3.258Y-5.101
X3.3485Y-5.0251
X4.0625Y-5.545
T7
X3.845Y-5.5375
X3.8922Y-5.3367
X4.5528Y-2.1133
X4.6Y-1.9125
T8
X3.5125Y-2.5275
X3.5125Y-4.7275
X5.3056Y-2.13
X5.5025Y-2.13
T0
M30
