G04 #@! TF.GenerationSoftware,KiCad,Pcbnew,(5.1.7)-1*
G04 #@! TF.CreationDate,2020-12-22T22:25:20-08:00*
G04 #@! TF.ProjectId,LCP_PowerControl,4c43505f-506f-4776-9572-436f6e74726f,rev?*
G04 #@! TF.SameCoordinates,Original*
G04 #@! TF.FileFunction,Copper,L4,Bot*
G04 #@! TF.FilePolarity,Positive*
%FSLAX46Y46*%
G04 Gerber Fmt 4.6, Leading zero omitted, Abs format (unit mm)*
G04 Created by KiCad (PCBNEW (5.1.7)-1) date 2020-12-22 22:25:20*
%MOMM*%
%LPD*%
G01*
G04 APERTURE LIST*
G04 #@! TA.AperFunction,ComponentPad*
%ADD10C,0.100000*%
G04 #@! TD*
G04 #@! TA.AperFunction,ComponentPad*
%ADD11O,2.400000X2.400000*%
G04 #@! TD*
G04 #@! TA.AperFunction,ComponentPad*
%ADD12C,2.400000*%
G04 #@! TD*
G04 #@! TA.AperFunction,ComponentPad*
%ADD13O,1.700000X1.700000*%
G04 #@! TD*
G04 #@! TA.AperFunction,ComponentPad*
%ADD14R,1.700000X1.700000*%
G04 #@! TD*
G04 #@! TA.AperFunction,ComponentPad*
%ADD15O,1.350000X1.350000*%
G04 #@! TD*
G04 #@! TA.AperFunction,ComponentPad*
%ADD16R,1.350000X1.350000*%
G04 #@! TD*
G04 #@! TA.AperFunction,ComponentPad*
%ADD17R,2.400000X2.400000*%
G04 #@! TD*
G04 #@! TA.AperFunction,ComponentPad*
%ADD18C,1.500000*%
G04 #@! TD*
G04 #@! TA.AperFunction,SMDPad,CuDef*
%ADD19C,0.100000*%
G04 #@! TD*
G04 #@! TA.AperFunction,ComponentPad*
%ADD20C,0.600000*%
G04 #@! TD*
G04 #@! TA.AperFunction,SMDPad,CuDef*
%ADD21R,2.350000X1.780000*%
G04 #@! TD*
G04 #@! TA.AperFunction,SMDPad,CuDef*
%ADD22R,0.250000X0.700000*%
G04 #@! TD*
G04 #@! TA.AperFunction,ComponentPad*
%ADD23C,2.000000*%
G04 #@! TD*
G04 #@! TA.AperFunction,SMDPad,CuDef*
%ADD24R,0.900000X0.400000*%
G04 #@! TD*
G04 #@! TA.AperFunction,SMDPad,CuDef*
%ADD25R,0.400000X0.900000*%
G04 #@! TD*
G04 #@! TA.AperFunction,SMDPad,CuDef*
%ADD26R,0.900000X0.800000*%
G04 #@! TD*
G04 #@! TA.AperFunction,SMDPad,CuDef*
%ADD27R,0.800000X0.900000*%
G04 #@! TD*
G04 #@! TA.AperFunction,ComponentPad*
%ADD28C,2.010000*%
G04 #@! TD*
G04 #@! TA.AperFunction,SMDPad,CuDef*
%ADD29R,1.000000X1.000000*%
G04 #@! TD*
G04 #@! TA.AperFunction,ViaPad*
%ADD30C,0.600000*%
G04 #@! TD*
G04 #@! TA.AperFunction,ViaPad*
%ADD31C,0.800000*%
G04 #@! TD*
G04 #@! TA.AperFunction,ViaPad*
%ADD32C,1.270000*%
G04 #@! TD*
G04 #@! TA.AperFunction,Conductor*
%ADD33C,0.203200*%
G04 #@! TD*
G04 #@! TA.AperFunction,Conductor*
%ADD34C,0.508000*%
G04 #@! TD*
G04 #@! TA.AperFunction,Conductor*
%ADD35C,1.016000*%
G04 #@! TD*
G04 #@! TA.AperFunction,Conductor*
%ADD36C,0.254000*%
G04 #@! TD*
G04 #@! TA.AperFunction,Conductor*
%ADD37C,0.457200*%
G04 #@! TD*
G04 #@! TA.AperFunction,Conductor*
%ADD38C,1.270000*%
G04 #@! TD*
G04 APERTURE END LIST*
G04 #@! TA.AperFunction,ComponentPad*
G36*
G01*
X75210121Y-79933702D02*
X75210121Y-79933702D01*
G75*
G02*
X75874584Y-79691857I453154J-211309D01*
G01*
X75874584Y-79691857D01*
G75*
G02*
X76116429Y-80356320I-211309J-453154D01*
G01*
X76116429Y-80356320D01*
G75*
G02*
X75451966Y-80598165I-453154J211309D01*
G01*
X75451966Y-80598165D01*
G75*
G02*
X75210121Y-79933702I211309J453154D01*
G01*
G37*
G04 #@! TD.AperFunction*
G04 #@! TA.AperFunction,ComponentPad*
G36*
G01*
X74059110Y-79396977D02*
X74059110Y-79396977D01*
G75*
G02*
X74723573Y-79155132I453154J-211309D01*
G01*
X74723573Y-79155132D01*
G75*
G02*
X74965418Y-79819595I-211309J-453154D01*
G01*
X74965418Y-79819595D01*
G75*
G02*
X74300955Y-80061440I-453154J211309D01*
G01*
X74300955Y-80061440D01*
G75*
G02*
X74059110Y-79396977I211309J453154D01*
G01*
G37*
G04 #@! TD.AperFunction*
G04 #@! TA.AperFunction,ComponentPad*
G36*
G01*
X75746846Y-78782691D02*
X75746846Y-78782691D01*
G75*
G02*
X76411309Y-78540846I453154J-211309D01*
G01*
X76411309Y-78540846D01*
G75*
G02*
X76653154Y-79205309I-211309J-453154D01*
G01*
X76653154Y-79205309D01*
G75*
G02*
X75988691Y-79447154I-453154J211309D01*
G01*
X75988691Y-79447154D01*
G75*
G02*
X75746846Y-78782691I211309J453154D01*
G01*
G37*
G04 #@! TD.AperFunction*
G04 #@! TA.AperFunction,ComponentPad*
G36*
G01*
X74595835Y-78245966D02*
X74595835Y-78245966D01*
G75*
G02*
X75260298Y-78004121I453154J-211309D01*
G01*
X75260298Y-78004121D01*
G75*
G02*
X75502143Y-78668584I-211309J-453154D01*
G01*
X75502143Y-78668584D01*
G75*
G02*
X74837680Y-78910429I-453154J211309D01*
G01*
X74837680Y-78910429D01*
G75*
G02*
X74595835Y-78245966I211309J453154D01*
G01*
G37*
G04 #@! TD.AperFunction*
G04 #@! TA.AperFunction,ComponentPad*
G36*
G01*
X76283572Y-77631680D02*
X76283572Y-77631680D01*
G75*
G02*
X76948035Y-77389835I453154J-211309D01*
G01*
X76948035Y-77389835D01*
G75*
G02*
X77189880Y-78054298I-211309J-453154D01*
G01*
X77189880Y-78054298D01*
G75*
G02*
X76525417Y-78296143I-453154J211309D01*
G01*
X76525417Y-78296143D01*
G75*
G02*
X76283572Y-77631680I211309J453154D01*
G01*
G37*
G04 #@! TD.AperFunction*
G04 #@! TA.AperFunction,ComponentPad*
G36*
G01*
X75132561Y-77094955D02*
X75132561Y-77094955D01*
G75*
G02*
X75797024Y-76853110I453154J-211309D01*
G01*
X75797024Y-76853110D01*
G75*
G02*
X76038869Y-77517573I-211309J-453154D01*
G01*
X76038869Y-77517573D01*
G75*
G02*
X75374406Y-77759418I-453154J211309D01*
G01*
X75374406Y-77759418D01*
G75*
G02*
X75132561Y-77094955I211309J453154D01*
G01*
G37*
G04 #@! TD.AperFunction*
G04 #@! TA.AperFunction,ComponentPad*
G36*
G01*
X76820297Y-76480669D02*
X76820297Y-76480669D01*
G75*
G02*
X77484760Y-76238824I453154J-211309D01*
G01*
X77484760Y-76238824D01*
G75*
G02*
X77726605Y-76903287I-211309J-453154D01*
G01*
X77726605Y-76903287D01*
G75*
G02*
X77062142Y-77145132I-453154J211309D01*
G01*
X77062142Y-77145132D01*
G75*
G02*
X76820297Y-76480669I211309J453154D01*
G01*
G37*
G04 #@! TD.AperFunction*
G04 #@! TA.AperFunction,ComponentPad*
G36*
G01*
X75669286Y-75943944D02*
X75669286Y-75943944D01*
G75*
G02*
X76333749Y-75702099I453154J-211309D01*
G01*
X76333749Y-75702099D01*
G75*
G02*
X76575594Y-76366562I-211309J-453154D01*
G01*
X76575594Y-76366562D01*
G75*
G02*
X75911131Y-76608407I-453154J211309D01*
G01*
X75911131Y-76608407D01*
G75*
G02*
X75669286Y-75943944I211309J453154D01*
G01*
G37*
G04 #@! TD.AperFunction*
G04 #@! TA.AperFunction,ComponentPad*
G36*
G01*
X77357022Y-75329658D02*
X77357022Y-75329658D01*
G75*
G02*
X78021485Y-75087813I453154J-211309D01*
G01*
X78021485Y-75087813D01*
G75*
G02*
X78263330Y-75752276I-211309J-453154D01*
G01*
X78263330Y-75752276D01*
G75*
G02*
X77598867Y-75994121I-453154J211309D01*
G01*
X77598867Y-75994121D01*
G75*
G02*
X77357022Y-75329658I211309J453154D01*
G01*
G37*
G04 #@! TD.AperFunction*
G04 #@! TA.AperFunction,ComponentPad*
D10*
G36*
X75994702Y-75246087D02*
G01*
X76417320Y-74339779D01*
X77323628Y-74762397D01*
X76901010Y-75668705D01*
X75994702Y-75246087D01*
G37*
G04 #@! TD.AperFunction*
G04 #@! TA.AperFunction,SMDPad,CuDef*
G36*
G01*
X147329500Y-53074250D02*
X147329500Y-53986750D01*
G75*
G02*
X147085750Y-54230500I-243750J0D01*
G01*
X146598250Y-54230500D01*
G75*
G02*
X146354500Y-53986750I0J243750D01*
G01*
X146354500Y-53074250D01*
G75*
G02*
X146598250Y-52830500I243750J0D01*
G01*
X147085750Y-52830500D01*
G75*
G02*
X147329500Y-53074250I0J-243750D01*
G01*
G37*
G04 #@! TD.AperFunction*
G04 #@! TA.AperFunction,SMDPad,CuDef*
G36*
G01*
X149204500Y-53074250D02*
X149204500Y-53986750D01*
G75*
G02*
X148960750Y-54230500I-243750J0D01*
G01*
X148473250Y-54230500D01*
G75*
G02*
X148229500Y-53986750I0J243750D01*
G01*
X148229500Y-53074250D01*
G75*
G02*
X148473250Y-52830500I243750J0D01*
G01*
X148960750Y-52830500D01*
G75*
G02*
X149204500Y-53074250I0J-243750D01*
G01*
G37*
G04 #@! TD.AperFunction*
D11*
X89217500Y-120078500D03*
D12*
X89217500Y-64198500D03*
G04 #@! TA.AperFunction,SMDPad,CuDef*
G36*
G01*
X86284750Y-118257500D02*
X87197250Y-118257500D01*
G75*
G02*
X87441000Y-118501250I0J-243750D01*
G01*
X87441000Y-118988750D01*
G75*
G02*
X87197250Y-119232500I-243750J0D01*
G01*
X86284750Y-119232500D01*
G75*
G02*
X86041000Y-118988750I0J243750D01*
G01*
X86041000Y-118501250D01*
G75*
G02*
X86284750Y-118257500I243750J0D01*
G01*
G37*
G04 #@! TD.AperFunction*
G04 #@! TA.AperFunction,SMDPad,CuDef*
G36*
G01*
X86284750Y-116382500D02*
X87197250Y-116382500D01*
G75*
G02*
X87441000Y-116626250I0J-243750D01*
G01*
X87441000Y-117113750D01*
G75*
G02*
X87197250Y-117357500I-243750J0D01*
G01*
X86284750Y-117357500D01*
G75*
G02*
X86041000Y-117113750I0J243750D01*
G01*
X86041000Y-116626250D01*
G75*
G02*
X86284750Y-116382500I243750J0D01*
G01*
G37*
G04 #@! TD.AperFunction*
D13*
X95504000Y-128460500D03*
X95504000Y-125920500D03*
X95504000Y-123380500D03*
X95504000Y-120840500D03*
D14*
X95504000Y-118300500D03*
D15*
X117443000Y-62769500D03*
X115443000Y-62769500D03*
X117443000Y-60769500D03*
D16*
X115443000Y-60769500D03*
G04 #@! TA.AperFunction,ComponentPad*
G36*
G01*
X84502879Y-62259043D02*
X84502879Y-62259043D01*
G75*
G02*
X85700386Y-62363812I546369J-651138D01*
G01*
X85700386Y-62363812D01*
G75*
G02*
X85595617Y-63561319I-651138J-546369D01*
G01*
X85595617Y-63561319D01*
G75*
G02*
X84398110Y-63456550I-546369J651138D01*
G01*
X84398110Y-63456550D01*
G75*
G02*
X84502879Y-62259043I651138J546369D01*
G01*
G37*
G04 #@! TD.AperFunction*
G04 #@! TA.AperFunction,ComponentPad*
G36*
G01*
X86448631Y-60626362D02*
X86448631Y-60626362D01*
G75*
G02*
X87646138Y-60731131I546369J-651138D01*
G01*
X87646138Y-60731131D01*
G75*
G02*
X87541369Y-61928638I-651138J-546369D01*
G01*
X87541369Y-61928638D01*
G75*
G02*
X86343862Y-61823869I-546369J651138D01*
G01*
X86343862Y-61823869D01*
G75*
G02*
X86448631Y-60626362I651138J546369D01*
G01*
G37*
G04 #@! TD.AperFunction*
G04 #@! TA.AperFunction,ComponentPad*
G36*
G01*
X88394384Y-58993682D02*
X88394384Y-58993682D01*
G75*
G02*
X89591891Y-59098451I546369J-651138D01*
G01*
X89591891Y-59098451D01*
G75*
G02*
X89487122Y-60295958I-651138J-546369D01*
G01*
X89487122Y-60295958D01*
G75*
G02*
X88289615Y-60191189I-546369J651138D01*
G01*
X88289615Y-60191189D01*
G75*
G02*
X88394384Y-58993682I651138J546369D01*
G01*
G37*
G04 #@! TD.AperFunction*
G04 #@! TA.AperFunction,ComponentPad*
G36*
G01*
X90340137Y-57361001D02*
X90340137Y-57361001D01*
G75*
G02*
X91537644Y-57465770I546369J-651138D01*
G01*
X91537644Y-57465770D01*
G75*
G02*
X91432875Y-58663277I-651138J-546369D01*
G01*
X91432875Y-58663277D01*
G75*
G02*
X90235368Y-58558508I-546369J651138D01*
G01*
X90235368Y-58558508D01*
G75*
G02*
X90340137Y-57361001I651138J546369D01*
G01*
G37*
G04 #@! TD.AperFunction*
G04 #@! TA.AperFunction,ComponentPad*
G36*
G01*
X92285890Y-55728321D02*
X92285890Y-55728321D01*
G75*
G02*
X93483397Y-55833090I546369J-651138D01*
G01*
X93483397Y-55833090D01*
G75*
G02*
X93378628Y-57030597I-651138J-546369D01*
G01*
X93378628Y-57030597D01*
G75*
G02*
X92181121Y-56925828I-546369J651138D01*
G01*
X92181121Y-56925828D01*
G75*
G02*
X92285890Y-55728321I651138J546369D01*
G01*
G37*
G04 #@! TD.AperFunction*
G04 #@! TA.AperFunction,ComponentPad*
D10*
G36*
X93580505Y-54642010D02*
G01*
X94882780Y-53549271D01*
X95975519Y-54851546D01*
X94673244Y-55944285D01*
X93580505Y-54642010D01*
G37*
G04 #@! TD.AperFunction*
D17*
X134763500Y-54102000D03*
D12*
X139763500Y-54102000D03*
D15*
X125379500Y-67786500D03*
X125379500Y-69786500D03*
X123379500Y-67786500D03*
X123379500Y-69786500D03*
X121379500Y-67786500D03*
X121379500Y-69786500D03*
X119379500Y-67786500D03*
X119379500Y-69786500D03*
X117379500Y-67786500D03*
X117379500Y-69786500D03*
X115379500Y-67786500D03*
D16*
X115379500Y-69786500D03*
G04 #@! TA.AperFunction,ComponentPad*
G36*
G01*
X98773187Y-52122417D02*
X98773187Y-52122417D01*
G75*
G02*
X99862643Y-52630439I290717J-798739D01*
G01*
X99862643Y-52630439D01*
G75*
G02*
X99354621Y-53719895I-798739J-290717D01*
G01*
X99354621Y-53719895D01*
G75*
G02*
X98265165Y-53211873I-290717J798739D01*
G01*
X98265165Y-53211873D01*
G75*
G02*
X98773187Y-52122417I798739J290717D01*
G01*
G37*
G04 #@! TD.AperFunction*
G04 #@! TA.AperFunction,ComponentPad*
G36*
G01*
X101160006Y-51253686D02*
X101160006Y-51253686D01*
G75*
G02*
X102249462Y-51761708I290717J-798739D01*
G01*
X102249462Y-51761708D01*
G75*
G02*
X101741440Y-52851164I-798739J-290717D01*
G01*
X101741440Y-52851164D01*
G75*
G02*
X100651984Y-52343142I-290717J798739D01*
G01*
X100651984Y-52343142D01*
G75*
G02*
X101160006Y-51253686I798739J290717D01*
G01*
G37*
G04 #@! TD.AperFunction*
G04 #@! TA.AperFunction,ComponentPad*
G36*
G01*
X103546825Y-50384954D02*
X103546825Y-50384954D01*
G75*
G02*
X104636281Y-50892976I290717J-798739D01*
G01*
X104636281Y-50892976D01*
G75*
G02*
X104128259Y-51982432I-798739J-290717D01*
G01*
X104128259Y-51982432D01*
G75*
G02*
X103038803Y-51474410I-290717J798739D01*
G01*
X103038803Y-51474410D01*
G75*
G02*
X103546825Y-50384954I798739J290717D01*
G01*
G37*
G04 #@! TD.AperFunction*
G04 #@! TA.AperFunction,ComponentPad*
G36*
G01*
X105933644Y-49516223D02*
X105933644Y-49516223D01*
G75*
G02*
X107023100Y-50024245I290717J-798739D01*
G01*
X107023100Y-50024245D01*
G75*
G02*
X106515078Y-51113701I-798739J-290717D01*
G01*
X106515078Y-51113701D01*
G75*
G02*
X105425622Y-50605679I-290717J798739D01*
G01*
X105425622Y-50605679D01*
G75*
G02*
X105933644Y-49516223I798739J290717D01*
G01*
G37*
G04 #@! TD.AperFunction*
G04 #@! TA.AperFunction,ComponentPad*
G36*
G01*
X108320464Y-48647492D02*
X108320464Y-48647492D01*
G75*
G02*
X109409920Y-49155514I290717J-798739D01*
G01*
X109409920Y-49155514D01*
G75*
G02*
X108901898Y-50244970I-798739J-290717D01*
G01*
X108901898Y-50244970D01*
G75*
G02*
X107812442Y-49736948I-290717J798739D01*
G01*
X107812442Y-49736948D01*
G75*
G02*
X108320464Y-48647492I798739J290717D01*
G01*
G37*
G04 #@! TD.AperFunction*
G04 #@! TA.AperFunction,ComponentPad*
D10*
G36*
X109908544Y-48069478D02*
G01*
X111506022Y-47488044D01*
X112087456Y-49085522D01*
X110489978Y-49666956D01*
X109908544Y-48069478D01*
G37*
G04 #@! TD.AperFunction*
D18*
X153162000Y-65389500D03*
G04 #@! TA.AperFunction,ComponentPad*
G36*
G01*
X153912000Y-67889500D02*
X153912000Y-68889500D01*
G75*
G02*
X153662000Y-69139500I-250000J0D01*
G01*
X152662000Y-69139500D01*
G75*
G02*
X152412000Y-68889500I0J250000D01*
G01*
X152412000Y-67889500D01*
G75*
G02*
X152662000Y-67639500I250000J0D01*
G01*
X153662000Y-67639500D01*
G75*
G02*
X153912000Y-67889500I0J-250000D01*
G01*
G37*
G04 #@! TD.AperFunction*
G04 #@! TA.AperFunction,SMDPad,CuDef*
D19*
G36*
X94835040Y-84613168D02*
G01*
X96107832Y-85885960D01*
X95400726Y-86593066D01*
X94127934Y-85320274D01*
X94835040Y-84613168D01*
G37*
G04 #@! TD.AperFunction*
G04 #@! TA.AperFunction,SMDPad,CuDef*
G36*
X93067274Y-86380934D02*
G01*
X94340066Y-87653726D01*
X93632960Y-88360832D01*
X92360168Y-87088040D01*
X93067274Y-86380934D01*
G37*
G04 #@! TD.AperFunction*
G04 #@! TA.AperFunction,SMDPad,CuDef*
G36*
G01*
X153418250Y-139451500D02*
X152905750Y-139451500D01*
G75*
G02*
X152687000Y-139232750I0J218750D01*
G01*
X152687000Y-138795250D01*
G75*
G02*
X152905750Y-138576500I218750J0D01*
G01*
X153418250Y-138576500D01*
G75*
G02*
X153637000Y-138795250I0J-218750D01*
G01*
X153637000Y-139232750D01*
G75*
G02*
X153418250Y-139451500I-218750J0D01*
G01*
G37*
G04 #@! TD.AperFunction*
G04 #@! TA.AperFunction,SMDPad,CuDef*
G36*
G01*
X153418250Y-141026500D02*
X152905750Y-141026500D01*
G75*
G02*
X152687000Y-140807750I0J218750D01*
G01*
X152687000Y-140370250D01*
G75*
G02*
X152905750Y-140151500I218750J0D01*
G01*
X153418250Y-140151500D01*
G75*
G02*
X153637000Y-140370250I0J-218750D01*
G01*
X153637000Y-140807750D01*
G75*
G02*
X153418250Y-141026500I-218750J0D01*
G01*
G37*
G04 #@! TD.AperFunction*
D18*
X125666500Y-51625500D03*
X122666500Y-51625500D03*
X125666500Y-48625500D03*
G04 #@! TA.AperFunction,ComponentPad*
G36*
G01*
X121916500Y-49125500D02*
X121916500Y-48125500D01*
G75*
G02*
X122166500Y-47875500I250000J0D01*
G01*
X123166500Y-47875500D01*
G75*
G02*
X123416500Y-48125500I0J-250000D01*
G01*
X123416500Y-49125500D01*
G75*
G02*
X123166500Y-49375500I-250000J0D01*
G01*
X122166500Y-49375500D01*
G75*
G02*
X121916500Y-49125500I0J250000D01*
G01*
G37*
G04 #@! TD.AperFunction*
G04 #@! TA.AperFunction,SMDPad,CuDef*
G36*
G01*
X90396090Y-87402522D02*
X89406140Y-86412572D01*
G75*
G02*
X89406140Y-86306506I53033J53033D01*
G01*
X89512206Y-86200440D01*
G75*
G02*
X89618272Y-86200440I53033J-53033D01*
G01*
X90608222Y-87190390D01*
G75*
G02*
X90608222Y-87296456I-53033J-53033D01*
G01*
X90502156Y-87402522D01*
G75*
G02*
X90396090Y-87402522I-53033J53033D01*
G01*
G37*
G04 #@! TD.AperFunction*
G04 #@! TA.AperFunction,SMDPad,CuDef*
G36*
G01*
X90749643Y-87048969D02*
X89759693Y-86059019D01*
G75*
G02*
X89759693Y-85952953I53033J53033D01*
G01*
X89865759Y-85846887D01*
G75*
G02*
X89971825Y-85846887I53033J-53033D01*
G01*
X90961775Y-86836837D01*
G75*
G02*
X90961775Y-86942903I-53033J-53033D01*
G01*
X90855709Y-87048969D01*
G75*
G02*
X90749643Y-87048969I-53033J53033D01*
G01*
G37*
G04 #@! TD.AperFunction*
G04 #@! TA.AperFunction,SMDPad,CuDef*
G36*
G01*
X91103196Y-86695416D02*
X90113246Y-85705466D01*
G75*
G02*
X90113246Y-85599400I53033J53033D01*
G01*
X90219312Y-85493334D01*
G75*
G02*
X90325378Y-85493334I53033J-53033D01*
G01*
X91315328Y-86483284D01*
G75*
G02*
X91315328Y-86589350I-53033J-53033D01*
G01*
X91209262Y-86695416D01*
G75*
G02*
X91103196Y-86695416I-53033J53033D01*
G01*
G37*
G04 #@! TD.AperFunction*
G04 #@! TA.AperFunction,SMDPad,CuDef*
G36*
G01*
X91456750Y-86341862D02*
X90466800Y-85351912D01*
G75*
G02*
X90466800Y-85245846I53033J53033D01*
G01*
X90572866Y-85139780D01*
G75*
G02*
X90678932Y-85139780I53033J-53033D01*
G01*
X91668882Y-86129730D01*
G75*
G02*
X91668882Y-86235796I-53033J-53033D01*
G01*
X91562816Y-86341862D01*
G75*
G02*
X91456750Y-86341862I-53033J53033D01*
G01*
G37*
G04 #@! TD.AperFunction*
G04 #@! TA.AperFunction,SMDPad,CuDef*
G36*
G01*
X91810303Y-85988309D02*
X90820353Y-84998359D01*
G75*
G02*
X90820353Y-84892293I53033J53033D01*
G01*
X90926419Y-84786227D01*
G75*
G02*
X91032485Y-84786227I53033J-53033D01*
G01*
X92022435Y-85776177D01*
G75*
G02*
X92022435Y-85882243I-53033J-53033D01*
G01*
X91916369Y-85988309D01*
G75*
G02*
X91810303Y-85988309I-53033J53033D01*
G01*
G37*
G04 #@! TD.AperFunction*
G04 #@! TA.AperFunction,SMDPad,CuDef*
G36*
G01*
X92163857Y-85634755D02*
X91173907Y-84644805D01*
G75*
G02*
X91173907Y-84538739I53033J53033D01*
G01*
X91279973Y-84432673D01*
G75*
G02*
X91386039Y-84432673I53033J-53033D01*
G01*
X92375989Y-85422623D01*
G75*
G02*
X92375989Y-85528689I-53033J-53033D01*
G01*
X92269923Y-85634755D01*
G75*
G02*
X92163857Y-85634755I-53033J53033D01*
G01*
G37*
G04 #@! TD.AperFunction*
G04 #@! TA.AperFunction,SMDPad,CuDef*
G36*
G01*
X92517410Y-85281202D02*
X91527460Y-84291252D01*
G75*
G02*
X91527460Y-84185186I53033J53033D01*
G01*
X91633526Y-84079120D01*
G75*
G02*
X91739592Y-84079120I53033J-53033D01*
G01*
X92729542Y-85069070D01*
G75*
G02*
X92729542Y-85175136I-53033J-53033D01*
G01*
X92623476Y-85281202D01*
G75*
G02*
X92517410Y-85281202I-53033J53033D01*
G01*
G37*
G04 #@! TD.AperFunction*
G04 #@! TA.AperFunction,SMDPad,CuDef*
G36*
G01*
X92870963Y-84927649D02*
X91881013Y-83937699D01*
G75*
G02*
X91881013Y-83831633I53033J53033D01*
G01*
X91987079Y-83725567D01*
G75*
G02*
X92093145Y-83725567I53033J-53033D01*
G01*
X93083095Y-84715517D01*
G75*
G02*
X93083095Y-84821583I-53033J-53033D01*
G01*
X92977029Y-84927649D01*
G75*
G02*
X92870963Y-84927649I-53033J53033D01*
G01*
G37*
G04 #@! TD.AperFunction*
G04 #@! TA.AperFunction,SMDPad,CuDef*
G36*
G01*
X93224517Y-84574095D02*
X92234567Y-83584145D01*
G75*
G02*
X92234567Y-83478079I53033J53033D01*
G01*
X92340633Y-83372013D01*
G75*
G02*
X92446699Y-83372013I53033J-53033D01*
G01*
X93436649Y-84361963D01*
G75*
G02*
X93436649Y-84468029I-53033J-53033D01*
G01*
X93330583Y-84574095D01*
G75*
G02*
X93224517Y-84574095I-53033J53033D01*
G01*
G37*
G04 #@! TD.AperFunction*
G04 #@! TA.AperFunction,SMDPad,CuDef*
G36*
G01*
X93578070Y-84220542D02*
X92588120Y-83230592D01*
G75*
G02*
X92588120Y-83124526I53033J53033D01*
G01*
X92694186Y-83018460D01*
G75*
G02*
X92800252Y-83018460I53033J-53033D01*
G01*
X93790202Y-84008410D01*
G75*
G02*
X93790202Y-84114476I-53033J-53033D01*
G01*
X93684136Y-84220542D01*
G75*
G02*
X93578070Y-84220542I-53033J53033D01*
G01*
G37*
G04 #@! TD.AperFunction*
G04 #@! TA.AperFunction,SMDPad,CuDef*
G36*
G01*
X93931623Y-83866989D02*
X92941673Y-82877039D01*
G75*
G02*
X92941673Y-82770973I53033J53033D01*
G01*
X93047739Y-82664907D01*
G75*
G02*
X93153805Y-82664907I53033J-53033D01*
G01*
X94143755Y-83654857D01*
G75*
G02*
X94143755Y-83760923I-53033J-53033D01*
G01*
X94037689Y-83866989D01*
G75*
G02*
X93931623Y-83866989I-53033J53033D01*
G01*
G37*
G04 #@! TD.AperFunction*
G04 #@! TA.AperFunction,SMDPad,CuDef*
G36*
G01*
X94285177Y-83513435D02*
X93295227Y-82523485D01*
G75*
G02*
X93295227Y-82417419I53033J53033D01*
G01*
X93401293Y-82311353D01*
G75*
G02*
X93507359Y-82311353I53033J-53033D01*
G01*
X94497309Y-83301303D01*
G75*
G02*
X94497309Y-83407369I-53033J-53033D01*
G01*
X94391243Y-83513435D01*
G75*
G02*
X94285177Y-83513435I-53033J53033D01*
G01*
G37*
G04 #@! TD.AperFunction*
G04 #@! TA.AperFunction,SMDPad,CuDef*
G36*
G01*
X94638730Y-83159882D02*
X93648780Y-82169932D01*
G75*
G02*
X93648780Y-82063866I53033J53033D01*
G01*
X93754846Y-81957800D01*
G75*
G02*
X93860912Y-81957800I53033J-53033D01*
G01*
X94850862Y-82947750D01*
G75*
G02*
X94850862Y-83053816I-53033J-53033D01*
G01*
X94744796Y-83159882D01*
G75*
G02*
X94638730Y-83159882I-53033J53033D01*
G01*
G37*
G04 #@! TD.AperFunction*
G04 #@! TA.AperFunction,SMDPad,CuDef*
G36*
G01*
X94992284Y-82806328D02*
X94002334Y-81816378D01*
G75*
G02*
X94002334Y-81710312I53033J53033D01*
G01*
X94108400Y-81604246D01*
G75*
G02*
X94214466Y-81604246I53033J-53033D01*
G01*
X95204416Y-82594196D01*
G75*
G02*
X95204416Y-82700262I-53033J-53033D01*
G01*
X95098350Y-82806328D01*
G75*
G02*
X94992284Y-82806328I-53033J53033D01*
G01*
G37*
G04 #@! TD.AperFunction*
G04 #@! TA.AperFunction,SMDPad,CuDef*
G36*
G01*
X95345837Y-82452775D02*
X94355887Y-81462825D01*
G75*
G02*
X94355887Y-81356759I53033J53033D01*
G01*
X94461953Y-81250693D01*
G75*
G02*
X94568019Y-81250693I53033J-53033D01*
G01*
X95557969Y-82240643D01*
G75*
G02*
X95557969Y-82346709I-53033J-53033D01*
G01*
X95451903Y-82452775D01*
G75*
G02*
X95345837Y-82452775I-53033J53033D01*
G01*
G37*
G04 #@! TD.AperFunction*
G04 #@! TA.AperFunction,SMDPad,CuDef*
G36*
G01*
X95699390Y-82099222D02*
X94709440Y-81109272D01*
G75*
G02*
X94709440Y-81003206I53033J53033D01*
G01*
X94815506Y-80897140D01*
G75*
G02*
X94921572Y-80897140I53033J-53033D01*
G01*
X95911522Y-81887090D01*
G75*
G02*
X95911522Y-81993156I-53033J-53033D01*
G01*
X95805456Y-82099222D01*
G75*
G02*
X95699390Y-82099222I-53033J53033D01*
G01*
G37*
G04 #@! TD.AperFunction*
G04 #@! TA.AperFunction,SMDPad,CuDef*
G36*
G01*
X94815506Y-79376860D02*
X94709440Y-79270794D01*
G75*
G02*
X94709440Y-79164728I53033J53033D01*
G01*
X95699390Y-78174778D01*
G75*
G02*
X95805456Y-78174778I53033J-53033D01*
G01*
X95911522Y-78280844D01*
G75*
G02*
X95911522Y-78386910I-53033J-53033D01*
G01*
X94921572Y-79376860D01*
G75*
G02*
X94815506Y-79376860I-53033J53033D01*
G01*
G37*
G04 #@! TD.AperFunction*
G04 #@! TA.AperFunction,SMDPad,CuDef*
G36*
G01*
X94461953Y-79023307D02*
X94355887Y-78917241D01*
G75*
G02*
X94355887Y-78811175I53033J53033D01*
G01*
X95345837Y-77821225D01*
G75*
G02*
X95451903Y-77821225I53033J-53033D01*
G01*
X95557969Y-77927291D01*
G75*
G02*
X95557969Y-78033357I-53033J-53033D01*
G01*
X94568019Y-79023307D01*
G75*
G02*
X94461953Y-79023307I-53033J53033D01*
G01*
G37*
G04 #@! TD.AperFunction*
G04 #@! TA.AperFunction,SMDPad,CuDef*
G36*
G01*
X94108400Y-78669754D02*
X94002334Y-78563688D01*
G75*
G02*
X94002334Y-78457622I53033J53033D01*
G01*
X94992284Y-77467672D01*
G75*
G02*
X95098350Y-77467672I53033J-53033D01*
G01*
X95204416Y-77573738D01*
G75*
G02*
X95204416Y-77679804I-53033J-53033D01*
G01*
X94214466Y-78669754D01*
G75*
G02*
X94108400Y-78669754I-53033J53033D01*
G01*
G37*
G04 #@! TD.AperFunction*
G04 #@! TA.AperFunction,SMDPad,CuDef*
G36*
G01*
X93754846Y-78316200D02*
X93648780Y-78210134D01*
G75*
G02*
X93648780Y-78104068I53033J53033D01*
G01*
X94638730Y-77114118D01*
G75*
G02*
X94744796Y-77114118I53033J-53033D01*
G01*
X94850862Y-77220184D01*
G75*
G02*
X94850862Y-77326250I-53033J-53033D01*
G01*
X93860912Y-78316200D01*
G75*
G02*
X93754846Y-78316200I-53033J53033D01*
G01*
G37*
G04 #@! TD.AperFunction*
G04 #@! TA.AperFunction,SMDPad,CuDef*
G36*
G01*
X93401293Y-77962647D02*
X93295227Y-77856581D01*
G75*
G02*
X93295227Y-77750515I53033J53033D01*
G01*
X94285177Y-76760565D01*
G75*
G02*
X94391243Y-76760565I53033J-53033D01*
G01*
X94497309Y-76866631D01*
G75*
G02*
X94497309Y-76972697I-53033J-53033D01*
G01*
X93507359Y-77962647D01*
G75*
G02*
X93401293Y-77962647I-53033J53033D01*
G01*
G37*
G04 #@! TD.AperFunction*
G04 #@! TA.AperFunction,SMDPad,CuDef*
G36*
G01*
X93047739Y-77609093D02*
X92941673Y-77503027D01*
G75*
G02*
X92941673Y-77396961I53033J53033D01*
G01*
X93931623Y-76407011D01*
G75*
G02*
X94037689Y-76407011I53033J-53033D01*
G01*
X94143755Y-76513077D01*
G75*
G02*
X94143755Y-76619143I-53033J-53033D01*
G01*
X93153805Y-77609093D01*
G75*
G02*
X93047739Y-77609093I-53033J53033D01*
G01*
G37*
G04 #@! TD.AperFunction*
G04 #@! TA.AperFunction,SMDPad,CuDef*
G36*
G01*
X92694186Y-77255540D02*
X92588120Y-77149474D01*
G75*
G02*
X92588120Y-77043408I53033J53033D01*
G01*
X93578070Y-76053458D01*
G75*
G02*
X93684136Y-76053458I53033J-53033D01*
G01*
X93790202Y-76159524D01*
G75*
G02*
X93790202Y-76265590I-53033J-53033D01*
G01*
X92800252Y-77255540D01*
G75*
G02*
X92694186Y-77255540I-53033J53033D01*
G01*
G37*
G04 #@! TD.AperFunction*
G04 #@! TA.AperFunction,SMDPad,CuDef*
G36*
G01*
X92340633Y-76901987D02*
X92234567Y-76795921D01*
G75*
G02*
X92234567Y-76689855I53033J53033D01*
G01*
X93224517Y-75699905D01*
G75*
G02*
X93330583Y-75699905I53033J-53033D01*
G01*
X93436649Y-75805971D01*
G75*
G02*
X93436649Y-75912037I-53033J-53033D01*
G01*
X92446699Y-76901987D01*
G75*
G02*
X92340633Y-76901987I-53033J53033D01*
G01*
G37*
G04 #@! TD.AperFunction*
G04 #@! TA.AperFunction,SMDPad,CuDef*
G36*
G01*
X91987079Y-76548433D02*
X91881013Y-76442367D01*
G75*
G02*
X91881013Y-76336301I53033J53033D01*
G01*
X92870963Y-75346351D01*
G75*
G02*
X92977029Y-75346351I53033J-53033D01*
G01*
X93083095Y-75452417D01*
G75*
G02*
X93083095Y-75558483I-53033J-53033D01*
G01*
X92093145Y-76548433D01*
G75*
G02*
X91987079Y-76548433I-53033J53033D01*
G01*
G37*
G04 #@! TD.AperFunction*
G04 #@! TA.AperFunction,SMDPad,CuDef*
G36*
G01*
X91633526Y-76194880D02*
X91527460Y-76088814D01*
G75*
G02*
X91527460Y-75982748I53033J53033D01*
G01*
X92517410Y-74992798D01*
G75*
G02*
X92623476Y-74992798I53033J-53033D01*
G01*
X92729542Y-75098864D01*
G75*
G02*
X92729542Y-75204930I-53033J-53033D01*
G01*
X91739592Y-76194880D01*
G75*
G02*
X91633526Y-76194880I-53033J53033D01*
G01*
G37*
G04 #@! TD.AperFunction*
G04 #@! TA.AperFunction,SMDPad,CuDef*
G36*
G01*
X91279973Y-75841327D02*
X91173907Y-75735261D01*
G75*
G02*
X91173907Y-75629195I53033J53033D01*
G01*
X92163857Y-74639245D01*
G75*
G02*
X92269923Y-74639245I53033J-53033D01*
G01*
X92375989Y-74745311D01*
G75*
G02*
X92375989Y-74851377I-53033J-53033D01*
G01*
X91386039Y-75841327D01*
G75*
G02*
X91279973Y-75841327I-53033J53033D01*
G01*
G37*
G04 #@! TD.AperFunction*
G04 #@! TA.AperFunction,SMDPad,CuDef*
G36*
G01*
X90926419Y-75487773D02*
X90820353Y-75381707D01*
G75*
G02*
X90820353Y-75275641I53033J53033D01*
G01*
X91810303Y-74285691D01*
G75*
G02*
X91916369Y-74285691I53033J-53033D01*
G01*
X92022435Y-74391757D01*
G75*
G02*
X92022435Y-74497823I-53033J-53033D01*
G01*
X91032485Y-75487773D01*
G75*
G02*
X90926419Y-75487773I-53033J53033D01*
G01*
G37*
G04 #@! TD.AperFunction*
G04 #@! TA.AperFunction,SMDPad,CuDef*
G36*
G01*
X90572866Y-75134220D02*
X90466800Y-75028154D01*
G75*
G02*
X90466800Y-74922088I53033J53033D01*
G01*
X91456750Y-73932138D01*
G75*
G02*
X91562816Y-73932138I53033J-53033D01*
G01*
X91668882Y-74038204D01*
G75*
G02*
X91668882Y-74144270I-53033J-53033D01*
G01*
X90678932Y-75134220D01*
G75*
G02*
X90572866Y-75134220I-53033J53033D01*
G01*
G37*
G04 #@! TD.AperFunction*
G04 #@! TA.AperFunction,SMDPad,CuDef*
G36*
G01*
X90219312Y-74780666D02*
X90113246Y-74674600D01*
G75*
G02*
X90113246Y-74568534I53033J53033D01*
G01*
X91103196Y-73578584D01*
G75*
G02*
X91209262Y-73578584I53033J-53033D01*
G01*
X91315328Y-73684650D01*
G75*
G02*
X91315328Y-73790716I-53033J-53033D01*
G01*
X90325378Y-74780666D01*
G75*
G02*
X90219312Y-74780666I-53033J53033D01*
G01*
G37*
G04 #@! TD.AperFunction*
G04 #@! TA.AperFunction,SMDPad,CuDef*
G36*
G01*
X89865759Y-74427113D02*
X89759693Y-74321047D01*
G75*
G02*
X89759693Y-74214981I53033J53033D01*
G01*
X90749643Y-73225031D01*
G75*
G02*
X90855709Y-73225031I53033J-53033D01*
G01*
X90961775Y-73331097D01*
G75*
G02*
X90961775Y-73437163I-53033J-53033D01*
G01*
X89971825Y-74427113D01*
G75*
G02*
X89865759Y-74427113I-53033J53033D01*
G01*
G37*
G04 #@! TD.AperFunction*
G04 #@! TA.AperFunction,SMDPad,CuDef*
G36*
G01*
X89512206Y-74073560D02*
X89406140Y-73967494D01*
G75*
G02*
X89406140Y-73861428I53033J53033D01*
G01*
X90396090Y-72871478D01*
G75*
G02*
X90502156Y-72871478I53033J-53033D01*
G01*
X90608222Y-72977544D01*
G75*
G02*
X90608222Y-73083610I-53033J-53033D01*
G01*
X89618272Y-74073560D01*
G75*
G02*
X89512206Y-74073560I-53033J53033D01*
G01*
G37*
G04 #@! TD.AperFunction*
G04 #@! TA.AperFunction,SMDPad,CuDef*
G36*
G01*
X87673728Y-74073560D02*
X86683778Y-73083610D01*
G75*
G02*
X86683778Y-72977544I53033J53033D01*
G01*
X86789844Y-72871478D01*
G75*
G02*
X86895910Y-72871478I53033J-53033D01*
G01*
X87885860Y-73861428D01*
G75*
G02*
X87885860Y-73967494I-53033J-53033D01*
G01*
X87779794Y-74073560D01*
G75*
G02*
X87673728Y-74073560I-53033J53033D01*
G01*
G37*
G04 #@! TD.AperFunction*
G04 #@! TA.AperFunction,SMDPad,CuDef*
G36*
G01*
X87320175Y-74427113D02*
X86330225Y-73437163D01*
G75*
G02*
X86330225Y-73331097I53033J53033D01*
G01*
X86436291Y-73225031D01*
G75*
G02*
X86542357Y-73225031I53033J-53033D01*
G01*
X87532307Y-74214981D01*
G75*
G02*
X87532307Y-74321047I-53033J-53033D01*
G01*
X87426241Y-74427113D01*
G75*
G02*
X87320175Y-74427113I-53033J53033D01*
G01*
G37*
G04 #@! TD.AperFunction*
G04 #@! TA.AperFunction,SMDPad,CuDef*
G36*
G01*
X86966622Y-74780666D02*
X85976672Y-73790716D01*
G75*
G02*
X85976672Y-73684650I53033J53033D01*
G01*
X86082738Y-73578584D01*
G75*
G02*
X86188804Y-73578584I53033J-53033D01*
G01*
X87178754Y-74568534D01*
G75*
G02*
X87178754Y-74674600I-53033J-53033D01*
G01*
X87072688Y-74780666D01*
G75*
G02*
X86966622Y-74780666I-53033J53033D01*
G01*
G37*
G04 #@! TD.AperFunction*
G04 #@! TA.AperFunction,SMDPad,CuDef*
G36*
G01*
X86613068Y-75134220D02*
X85623118Y-74144270D01*
G75*
G02*
X85623118Y-74038204I53033J53033D01*
G01*
X85729184Y-73932138D01*
G75*
G02*
X85835250Y-73932138I53033J-53033D01*
G01*
X86825200Y-74922088D01*
G75*
G02*
X86825200Y-75028154I-53033J-53033D01*
G01*
X86719134Y-75134220D01*
G75*
G02*
X86613068Y-75134220I-53033J53033D01*
G01*
G37*
G04 #@! TD.AperFunction*
G04 #@! TA.AperFunction,SMDPad,CuDef*
G36*
G01*
X86259515Y-75487773D02*
X85269565Y-74497823D01*
G75*
G02*
X85269565Y-74391757I53033J53033D01*
G01*
X85375631Y-74285691D01*
G75*
G02*
X85481697Y-74285691I53033J-53033D01*
G01*
X86471647Y-75275641D01*
G75*
G02*
X86471647Y-75381707I-53033J-53033D01*
G01*
X86365581Y-75487773D01*
G75*
G02*
X86259515Y-75487773I-53033J53033D01*
G01*
G37*
G04 #@! TD.AperFunction*
G04 #@! TA.AperFunction,SMDPad,CuDef*
G36*
G01*
X85905961Y-75841327D02*
X84916011Y-74851377D01*
G75*
G02*
X84916011Y-74745311I53033J53033D01*
G01*
X85022077Y-74639245D01*
G75*
G02*
X85128143Y-74639245I53033J-53033D01*
G01*
X86118093Y-75629195D01*
G75*
G02*
X86118093Y-75735261I-53033J-53033D01*
G01*
X86012027Y-75841327D01*
G75*
G02*
X85905961Y-75841327I-53033J53033D01*
G01*
G37*
G04 #@! TD.AperFunction*
G04 #@! TA.AperFunction,SMDPad,CuDef*
G36*
G01*
X85552408Y-76194880D02*
X84562458Y-75204930D01*
G75*
G02*
X84562458Y-75098864I53033J53033D01*
G01*
X84668524Y-74992798D01*
G75*
G02*
X84774590Y-74992798I53033J-53033D01*
G01*
X85764540Y-75982748D01*
G75*
G02*
X85764540Y-76088814I-53033J-53033D01*
G01*
X85658474Y-76194880D01*
G75*
G02*
X85552408Y-76194880I-53033J53033D01*
G01*
G37*
G04 #@! TD.AperFunction*
G04 #@! TA.AperFunction,SMDPad,CuDef*
G36*
G01*
X85198855Y-76548433D02*
X84208905Y-75558483D01*
G75*
G02*
X84208905Y-75452417I53033J53033D01*
G01*
X84314971Y-75346351D01*
G75*
G02*
X84421037Y-75346351I53033J-53033D01*
G01*
X85410987Y-76336301D01*
G75*
G02*
X85410987Y-76442367I-53033J-53033D01*
G01*
X85304921Y-76548433D01*
G75*
G02*
X85198855Y-76548433I-53033J53033D01*
G01*
G37*
G04 #@! TD.AperFunction*
G04 #@! TA.AperFunction,SMDPad,CuDef*
G36*
G01*
X84845301Y-76901987D02*
X83855351Y-75912037D01*
G75*
G02*
X83855351Y-75805971I53033J53033D01*
G01*
X83961417Y-75699905D01*
G75*
G02*
X84067483Y-75699905I53033J-53033D01*
G01*
X85057433Y-76689855D01*
G75*
G02*
X85057433Y-76795921I-53033J-53033D01*
G01*
X84951367Y-76901987D01*
G75*
G02*
X84845301Y-76901987I-53033J53033D01*
G01*
G37*
G04 #@! TD.AperFunction*
G04 #@! TA.AperFunction,SMDPad,CuDef*
G36*
G01*
X84491748Y-77255540D02*
X83501798Y-76265590D01*
G75*
G02*
X83501798Y-76159524I53033J53033D01*
G01*
X83607864Y-76053458D01*
G75*
G02*
X83713930Y-76053458I53033J-53033D01*
G01*
X84703880Y-77043408D01*
G75*
G02*
X84703880Y-77149474I-53033J-53033D01*
G01*
X84597814Y-77255540D01*
G75*
G02*
X84491748Y-77255540I-53033J53033D01*
G01*
G37*
G04 #@! TD.AperFunction*
G04 #@! TA.AperFunction,SMDPad,CuDef*
G36*
G01*
X84138195Y-77609093D02*
X83148245Y-76619143D01*
G75*
G02*
X83148245Y-76513077I53033J53033D01*
G01*
X83254311Y-76407011D01*
G75*
G02*
X83360377Y-76407011I53033J-53033D01*
G01*
X84350327Y-77396961D01*
G75*
G02*
X84350327Y-77503027I-53033J-53033D01*
G01*
X84244261Y-77609093D01*
G75*
G02*
X84138195Y-77609093I-53033J53033D01*
G01*
G37*
G04 #@! TD.AperFunction*
G04 #@! TA.AperFunction,SMDPad,CuDef*
G36*
G01*
X83784641Y-77962647D02*
X82794691Y-76972697D01*
G75*
G02*
X82794691Y-76866631I53033J53033D01*
G01*
X82900757Y-76760565D01*
G75*
G02*
X83006823Y-76760565I53033J-53033D01*
G01*
X83996773Y-77750515D01*
G75*
G02*
X83996773Y-77856581I-53033J-53033D01*
G01*
X83890707Y-77962647D01*
G75*
G02*
X83784641Y-77962647I-53033J53033D01*
G01*
G37*
G04 #@! TD.AperFunction*
G04 #@! TA.AperFunction,SMDPad,CuDef*
G36*
G01*
X83431088Y-78316200D02*
X82441138Y-77326250D01*
G75*
G02*
X82441138Y-77220184I53033J53033D01*
G01*
X82547204Y-77114118D01*
G75*
G02*
X82653270Y-77114118I53033J-53033D01*
G01*
X83643220Y-78104068D01*
G75*
G02*
X83643220Y-78210134I-53033J-53033D01*
G01*
X83537154Y-78316200D01*
G75*
G02*
X83431088Y-78316200I-53033J53033D01*
G01*
G37*
G04 #@! TD.AperFunction*
G04 #@! TA.AperFunction,SMDPad,CuDef*
G36*
G01*
X83077534Y-78669754D02*
X82087584Y-77679804D01*
G75*
G02*
X82087584Y-77573738I53033J53033D01*
G01*
X82193650Y-77467672D01*
G75*
G02*
X82299716Y-77467672I53033J-53033D01*
G01*
X83289666Y-78457622D01*
G75*
G02*
X83289666Y-78563688I-53033J-53033D01*
G01*
X83183600Y-78669754D01*
G75*
G02*
X83077534Y-78669754I-53033J53033D01*
G01*
G37*
G04 #@! TD.AperFunction*
G04 #@! TA.AperFunction,SMDPad,CuDef*
G36*
G01*
X82723981Y-79023307D02*
X81734031Y-78033357D01*
G75*
G02*
X81734031Y-77927291I53033J53033D01*
G01*
X81840097Y-77821225D01*
G75*
G02*
X81946163Y-77821225I53033J-53033D01*
G01*
X82936113Y-78811175D01*
G75*
G02*
X82936113Y-78917241I-53033J-53033D01*
G01*
X82830047Y-79023307D01*
G75*
G02*
X82723981Y-79023307I-53033J53033D01*
G01*
G37*
G04 #@! TD.AperFunction*
G04 #@! TA.AperFunction,SMDPad,CuDef*
G36*
G01*
X82370428Y-79376860D02*
X81380478Y-78386910D01*
G75*
G02*
X81380478Y-78280844I53033J53033D01*
G01*
X81486544Y-78174778D01*
G75*
G02*
X81592610Y-78174778I53033J-53033D01*
G01*
X82582560Y-79164728D01*
G75*
G02*
X82582560Y-79270794I-53033J-53033D01*
G01*
X82476494Y-79376860D01*
G75*
G02*
X82370428Y-79376860I-53033J53033D01*
G01*
G37*
G04 #@! TD.AperFunction*
G04 #@! TA.AperFunction,SMDPad,CuDef*
G36*
G01*
X81486544Y-82099222D02*
X81380478Y-81993156D01*
G75*
G02*
X81380478Y-81887090I53033J53033D01*
G01*
X82370428Y-80897140D01*
G75*
G02*
X82476494Y-80897140I53033J-53033D01*
G01*
X82582560Y-81003206D01*
G75*
G02*
X82582560Y-81109272I-53033J-53033D01*
G01*
X81592610Y-82099222D01*
G75*
G02*
X81486544Y-82099222I-53033J53033D01*
G01*
G37*
G04 #@! TD.AperFunction*
G04 #@! TA.AperFunction,SMDPad,CuDef*
G36*
G01*
X81840097Y-82452775D02*
X81734031Y-82346709D01*
G75*
G02*
X81734031Y-82240643I53033J53033D01*
G01*
X82723981Y-81250693D01*
G75*
G02*
X82830047Y-81250693I53033J-53033D01*
G01*
X82936113Y-81356759D01*
G75*
G02*
X82936113Y-81462825I-53033J-53033D01*
G01*
X81946163Y-82452775D01*
G75*
G02*
X81840097Y-82452775I-53033J53033D01*
G01*
G37*
G04 #@! TD.AperFunction*
G04 #@! TA.AperFunction,SMDPad,CuDef*
G36*
G01*
X82193650Y-82806328D02*
X82087584Y-82700262D01*
G75*
G02*
X82087584Y-82594196I53033J53033D01*
G01*
X83077534Y-81604246D01*
G75*
G02*
X83183600Y-81604246I53033J-53033D01*
G01*
X83289666Y-81710312D01*
G75*
G02*
X83289666Y-81816378I-53033J-53033D01*
G01*
X82299716Y-82806328D01*
G75*
G02*
X82193650Y-82806328I-53033J53033D01*
G01*
G37*
G04 #@! TD.AperFunction*
G04 #@! TA.AperFunction,SMDPad,CuDef*
G36*
G01*
X82547204Y-83159882D02*
X82441138Y-83053816D01*
G75*
G02*
X82441138Y-82947750I53033J53033D01*
G01*
X83431088Y-81957800D01*
G75*
G02*
X83537154Y-81957800I53033J-53033D01*
G01*
X83643220Y-82063866D01*
G75*
G02*
X83643220Y-82169932I-53033J-53033D01*
G01*
X82653270Y-83159882D01*
G75*
G02*
X82547204Y-83159882I-53033J53033D01*
G01*
G37*
G04 #@! TD.AperFunction*
G04 #@! TA.AperFunction,SMDPad,CuDef*
G36*
G01*
X82900757Y-83513435D02*
X82794691Y-83407369D01*
G75*
G02*
X82794691Y-83301303I53033J53033D01*
G01*
X83784641Y-82311353D01*
G75*
G02*
X83890707Y-82311353I53033J-53033D01*
G01*
X83996773Y-82417419D01*
G75*
G02*
X83996773Y-82523485I-53033J-53033D01*
G01*
X83006823Y-83513435D01*
G75*
G02*
X82900757Y-83513435I-53033J53033D01*
G01*
G37*
G04 #@! TD.AperFunction*
G04 #@! TA.AperFunction,SMDPad,CuDef*
G36*
G01*
X83254311Y-83866989D02*
X83148245Y-83760923D01*
G75*
G02*
X83148245Y-83654857I53033J53033D01*
G01*
X84138195Y-82664907D01*
G75*
G02*
X84244261Y-82664907I53033J-53033D01*
G01*
X84350327Y-82770973D01*
G75*
G02*
X84350327Y-82877039I-53033J-53033D01*
G01*
X83360377Y-83866989D01*
G75*
G02*
X83254311Y-83866989I-53033J53033D01*
G01*
G37*
G04 #@! TD.AperFunction*
G04 #@! TA.AperFunction,SMDPad,CuDef*
G36*
G01*
X83607864Y-84220542D02*
X83501798Y-84114476D01*
G75*
G02*
X83501798Y-84008410I53033J53033D01*
G01*
X84491748Y-83018460D01*
G75*
G02*
X84597814Y-83018460I53033J-53033D01*
G01*
X84703880Y-83124526D01*
G75*
G02*
X84703880Y-83230592I-53033J-53033D01*
G01*
X83713930Y-84220542D01*
G75*
G02*
X83607864Y-84220542I-53033J53033D01*
G01*
G37*
G04 #@! TD.AperFunction*
G04 #@! TA.AperFunction,SMDPad,CuDef*
G36*
G01*
X83961417Y-84574095D02*
X83855351Y-84468029D01*
G75*
G02*
X83855351Y-84361963I53033J53033D01*
G01*
X84845301Y-83372013D01*
G75*
G02*
X84951367Y-83372013I53033J-53033D01*
G01*
X85057433Y-83478079D01*
G75*
G02*
X85057433Y-83584145I-53033J-53033D01*
G01*
X84067483Y-84574095D01*
G75*
G02*
X83961417Y-84574095I-53033J53033D01*
G01*
G37*
G04 #@! TD.AperFunction*
G04 #@! TA.AperFunction,SMDPad,CuDef*
G36*
G01*
X84314971Y-84927649D02*
X84208905Y-84821583D01*
G75*
G02*
X84208905Y-84715517I53033J53033D01*
G01*
X85198855Y-83725567D01*
G75*
G02*
X85304921Y-83725567I53033J-53033D01*
G01*
X85410987Y-83831633D01*
G75*
G02*
X85410987Y-83937699I-53033J-53033D01*
G01*
X84421037Y-84927649D01*
G75*
G02*
X84314971Y-84927649I-53033J53033D01*
G01*
G37*
G04 #@! TD.AperFunction*
G04 #@! TA.AperFunction,SMDPad,CuDef*
G36*
G01*
X84668524Y-85281202D02*
X84562458Y-85175136D01*
G75*
G02*
X84562458Y-85069070I53033J53033D01*
G01*
X85552408Y-84079120D01*
G75*
G02*
X85658474Y-84079120I53033J-53033D01*
G01*
X85764540Y-84185186D01*
G75*
G02*
X85764540Y-84291252I-53033J-53033D01*
G01*
X84774590Y-85281202D01*
G75*
G02*
X84668524Y-85281202I-53033J53033D01*
G01*
G37*
G04 #@! TD.AperFunction*
G04 #@! TA.AperFunction,SMDPad,CuDef*
G36*
G01*
X85022077Y-85634755D02*
X84916011Y-85528689D01*
G75*
G02*
X84916011Y-85422623I53033J53033D01*
G01*
X85905961Y-84432673D01*
G75*
G02*
X86012027Y-84432673I53033J-53033D01*
G01*
X86118093Y-84538739D01*
G75*
G02*
X86118093Y-84644805I-53033J-53033D01*
G01*
X85128143Y-85634755D01*
G75*
G02*
X85022077Y-85634755I-53033J53033D01*
G01*
G37*
G04 #@! TD.AperFunction*
G04 #@! TA.AperFunction,SMDPad,CuDef*
G36*
G01*
X85375631Y-85988309D02*
X85269565Y-85882243D01*
G75*
G02*
X85269565Y-85776177I53033J53033D01*
G01*
X86259515Y-84786227D01*
G75*
G02*
X86365581Y-84786227I53033J-53033D01*
G01*
X86471647Y-84892293D01*
G75*
G02*
X86471647Y-84998359I-53033J-53033D01*
G01*
X85481697Y-85988309D01*
G75*
G02*
X85375631Y-85988309I-53033J53033D01*
G01*
G37*
G04 #@! TD.AperFunction*
G04 #@! TA.AperFunction,SMDPad,CuDef*
G36*
G01*
X85729184Y-86341862D02*
X85623118Y-86235796D01*
G75*
G02*
X85623118Y-86129730I53033J53033D01*
G01*
X86613068Y-85139780D01*
G75*
G02*
X86719134Y-85139780I53033J-53033D01*
G01*
X86825200Y-85245846D01*
G75*
G02*
X86825200Y-85351912I-53033J-53033D01*
G01*
X85835250Y-86341862D01*
G75*
G02*
X85729184Y-86341862I-53033J53033D01*
G01*
G37*
G04 #@! TD.AperFunction*
G04 #@! TA.AperFunction,SMDPad,CuDef*
G36*
G01*
X86082738Y-86695416D02*
X85976672Y-86589350D01*
G75*
G02*
X85976672Y-86483284I53033J53033D01*
G01*
X86966622Y-85493334D01*
G75*
G02*
X87072688Y-85493334I53033J-53033D01*
G01*
X87178754Y-85599400D01*
G75*
G02*
X87178754Y-85705466I-53033J-53033D01*
G01*
X86188804Y-86695416D01*
G75*
G02*
X86082738Y-86695416I-53033J53033D01*
G01*
G37*
G04 #@! TD.AperFunction*
G04 #@! TA.AperFunction,SMDPad,CuDef*
G36*
G01*
X86436291Y-87048969D02*
X86330225Y-86942903D01*
G75*
G02*
X86330225Y-86836837I53033J53033D01*
G01*
X87320175Y-85846887D01*
G75*
G02*
X87426241Y-85846887I53033J-53033D01*
G01*
X87532307Y-85952953D01*
G75*
G02*
X87532307Y-86059019I-53033J-53033D01*
G01*
X86542357Y-87048969D01*
G75*
G02*
X86436291Y-87048969I-53033J53033D01*
G01*
G37*
G04 #@! TD.AperFunction*
G04 #@! TA.AperFunction,SMDPad,CuDef*
G36*
G01*
X86789844Y-87402522D02*
X86683778Y-87296456D01*
G75*
G02*
X86683778Y-87190390I53033J53033D01*
G01*
X87673728Y-86200440D01*
G75*
G02*
X87779794Y-86200440I53033J-53033D01*
G01*
X87885860Y-86306506D01*
G75*
G02*
X87885860Y-86412572I-53033J-53033D01*
G01*
X86895910Y-87402522D01*
G75*
G02*
X86789844Y-87402522I-53033J53033D01*
G01*
G37*
G04 #@! TD.AperFunction*
D20*
X145304048Y-57261183D03*
X146081865Y-56483365D03*
X146859683Y-55705548D03*
X146081865Y-58039000D03*
X146859683Y-57261183D03*
X147637500Y-56483365D03*
X146859683Y-58816817D03*
X147637500Y-58039000D03*
X148415317Y-57261183D03*
X147637500Y-59594635D03*
X148415317Y-58816817D03*
X149193135Y-58039000D03*
X149970952Y-58816817D03*
X149193135Y-59594635D03*
X148415317Y-60372452D03*
G04 #@! TA.AperFunction,SMDPad,CuDef*
D19*
G36*
X148203185Y-61008848D02*
G01*
X144667652Y-57473315D01*
X147071815Y-55069152D01*
X150607348Y-58604685D01*
X148203185Y-61008848D01*
G37*
G04 #@! TD.AperFunction*
D21*
X86344000Y-113283500D03*
D22*
X85144000Y-111808500D03*
X85144000Y-114758500D03*
X87544000Y-114758500D03*
X87144000Y-114758500D03*
X86744000Y-114758500D03*
X86344000Y-114758500D03*
X85944000Y-114758500D03*
X85544000Y-114758500D03*
X85544000Y-111808500D03*
X85944000Y-111808500D03*
X86344000Y-111808500D03*
X86744000Y-111808500D03*
X87144000Y-111808500D03*
X87544000Y-111808500D03*
D23*
X103187500Y-140843000D03*
X129222500Y-149796500D03*
X155511500Y-129603500D03*
X149034500Y-129667000D03*
X161480500Y-129413000D03*
X115316000Y-127952500D03*
D24*
X82042000Y-69570500D03*
X82042000Y-68770500D03*
X80342000Y-68770500D03*
X80342000Y-69570500D03*
X100647500Y-120840500D03*
X100647500Y-120040500D03*
X98947500Y-120040500D03*
X98947500Y-120840500D03*
D25*
X90570000Y-99924500D03*
X89770000Y-99924500D03*
X89770000Y-101624500D03*
X90570000Y-101624500D03*
G04 #@! TA.AperFunction,SMDPad,CuDef*
G36*
G01*
X151254750Y-140532500D02*
X151767250Y-140532500D01*
G75*
G02*
X151986000Y-140751250I0J-218750D01*
G01*
X151986000Y-141188750D01*
G75*
G02*
X151767250Y-141407500I-218750J0D01*
G01*
X151254750Y-141407500D01*
G75*
G02*
X151036000Y-141188750I0J218750D01*
G01*
X151036000Y-140751250D01*
G75*
G02*
X151254750Y-140532500I218750J0D01*
G01*
G37*
G04 #@! TD.AperFunction*
G04 #@! TA.AperFunction,SMDPad,CuDef*
G36*
G01*
X151254750Y-138957500D02*
X151767250Y-138957500D01*
G75*
G02*
X151986000Y-139176250I0J-218750D01*
G01*
X151986000Y-139613750D01*
G75*
G02*
X151767250Y-139832500I-218750J0D01*
G01*
X151254750Y-139832500D01*
G75*
G02*
X151036000Y-139613750I0J218750D01*
G01*
X151036000Y-139176250D01*
G75*
G02*
X151254750Y-138957500I218750J0D01*
G01*
G37*
G04 #@! TD.AperFunction*
G04 #@! TA.AperFunction,SMDPad,CuDef*
G36*
G01*
X97167815Y-58177144D02*
X97479909Y-57319675D01*
G75*
G02*
X97792326Y-57173992I229050J-83367D01*
G01*
X98250426Y-57340727D01*
G75*
G02*
X98396109Y-57653144I-83367J-229050D01*
G01*
X98084015Y-58510613D01*
G75*
G02*
X97771598Y-58656296I-229050J83367D01*
G01*
X97313498Y-58489561D01*
G75*
G02*
X97167815Y-58177144I83367J229050D01*
G01*
G37*
G04 #@! TD.AperFunction*
G04 #@! TA.AperFunction,SMDPad,CuDef*
G36*
G01*
X95405891Y-57535856D02*
X95717985Y-56678387D01*
G75*
G02*
X96030402Y-56532704I229050J-83367D01*
G01*
X96488502Y-56699439D01*
G75*
G02*
X96634185Y-57011856I-83367J-229050D01*
G01*
X96322091Y-57869325D01*
G75*
G02*
X96009674Y-58015008I-229050J83367D01*
G01*
X95551574Y-57848273D01*
G75*
G02*
X95405891Y-57535856I83367J229050D01*
G01*
G37*
G04 #@! TD.AperFunction*
G04 #@! TA.AperFunction,SMDPad,CuDef*
G36*
G01*
X146073494Y-63597229D02*
X146718729Y-62951994D01*
G75*
G02*
X147063443Y-62951994I172357J-172357D01*
G01*
X147408158Y-63296709D01*
G75*
G02*
X147408158Y-63641423I-172357J-172357D01*
G01*
X146762923Y-64286658D01*
G75*
G02*
X146418209Y-64286658I-172357J172357D01*
G01*
X146073494Y-63941943D01*
G75*
G02*
X146073494Y-63597229I172357J172357D01*
G01*
G37*
G04 #@! TD.AperFunction*
G04 #@! TA.AperFunction,SMDPad,CuDef*
G36*
G01*
X144747668Y-62271403D02*
X145392903Y-61626168D01*
G75*
G02*
X145737617Y-61626168I172357J-172357D01*
G01*
X146082332Y-61970883D01*
G75*
G02*
X146082332Y-62315597I-172357J-172357D01*
G01*
X145437097Y-62960832D01*
G75*
G02*
X145092383Y-62960832I-172357J172357D01*
G01*
X144747668Y-62616117D01*
G75*
G02*
X144747668Y-62271403I172357J172357D01*
G01*
G37*
G04 #@! TD.AperFunction*
G04 #@! TA.AperFunction,SMDPad,CuDef*
G36*
G01*
X142743581Y-60330816D02*
X143388816Y-59685581D01*
G75*
G02*
X143733530Y-59685581I172357J-172357D01*
G01*
X144078245Y-60030296D01*
G75*
G02*
X144078245Y-60375010I-172357J-172357D01*
G01*
X143433010Y-61020245D01*
G75*
G02*
X143088296Y-61020245I-172357J172357D01*
G01*
X142743581Y-60675530D01*
G75*
G02*
X142743581Y-60330816I172357J172357D01*
G01*
G37*
G04 #@! TD.AperFunction*
G04 #@! TA.AperFunction,SMDPad,CuDef*
G36*
G01*
X141417755Y-59004990D02*
X142062990Y-58359755D01*
G75*
G02*
X142407704Y-58359755I172357J-172357D01*
G01*
X142752419Y-58704470D01*
G75*
G02*
X142752419Y-59049184I-172357J-172357D01*
G01*
X142107184Y-59694419D01*
G75*
G02*
X141762470Y-59694419I-172357J172357D01*
G01*
X141417755Y-59349704D01*
G75*
G02*
X141417755Y-59004990I172357J172357D01*
G01*
G37*
G04 #@! TD.AperFunction*
G04 #@! TA.AperFunction,SMDPad,CuDef*
G36*
G01*
X105503271Y-59141994D02*
X106148506Y-59787229D01*
G75*
G02*
X106148506Y-60131943I-172357J-172357D01*
G01*
X105803791Y-60476658D01*
G75*
G02*
X105459077Y-60476658I-172357J172357D01*
G01*
X104813842Y-59831423D01*
G75*
G02*
X104813842Y-59486709I172357J172357D01*
G01*
X105158557Y-59141994D01*
G75*
G02*
X105503271Y-59141994I172357J-172357D01*
G01*
G37*
G04 #@! TD.AperFunction*
G04 #@! TA.AperFunction,SMDPad,CuDef*
G36*
G01*
X106829097Y-57816168D02*
X107474332Y-58461403D01*
G75*
G02*
X107474332Y-58806117I-172357J-172357D01*
G01*
X107129617Y-59150832D01*
G75*
G02*
X106784903Y-59150832I-172357J172357D01*
G01*
X106139668Y-58505597D01*
G75*
G02*
X106139668Y-58160883I172357J172357D01*
G01*
X106484383Y-57816168D01*
G75*
G02*
X106829097Y-57816168I172357J-172357D01*
G01*
G37*
G04 #@! TD.AperFunction*
G04 #@! TA.AperFunction,SMDPad,CuDef*
G36*
G01*
X108189577Y-60730658D02*
X107544342Y-60085423D01*
G75*
G02*
X107544342Y-59740709I172357J172357D01*
G01*
X107889057Y-59395994D01*
G75*
G02*
X108233771Y-59395994I172357J-172357D01*
G01*
X108879006Y-60041229D01*
G75*
G02*
X108879006Y-60385943I-172357J-172357D01*
G01*
X108534291Y-60730658D01*
G75*
G02*
X108189577Y-60730658I-172357J172357D01*
G01*
G37*
G04 #@! TD.AperFunction*
G04 #@! TA.AperFunction,SMDPad,CuDef*
G36*
G01*
X109515403Y-59404832D02*
X108870168Y-58759597D01*
G75*
G02*
X108870168Y-58414883I172357J172357D01*
G01*
X109214883Y-58070168D01*
G75*
G02*
X109559597Y-58070168I172357J-172357D01*
G01*
X110204832Y-58715403D01*
G75*
G02*
X110204832Y-59060117I-172357J-172357D01*
G01*
X109860117Y-59404832D01*
G75*
G02*
X109515403Y-59404832I-172357J172357D01*
G01*
G37*
G04 #@! TD.AperFunction*
G04 #@! TA.AperFunction,SMDPad,CuDef*
G36*
G01*
X84760750Y-106129000D02*
X85673250Y-106129000D01*
G75*
G02*
X85917000Y-106372750I0J-243750D01*
G01*
X85917000Y-106860250D01*
G75*
G02*
X85673250Y-107104000I-243750J0D01*
G01*
X84760750Y-107104000D01*
G75*
G02*
X84517000Y-106860250I0J243750D01*
G01*
X84517000Y-106372750D01*
G75*
G02*
X84760750Y-106129000I243750J0D01*
G01*
G37*
G04 #@! TD.AperFunction*
G04 #@! TA.AperFunction,SMDPad,CuDef*
G36*
G01*
X84760750Y-104254000D02*
X85673250Y-104254000D01*
G75*
G02*
X85917000Y-104497750I0J-243750D01*
G01*
X85917000Y-104985250D01*
G75*
G02*
X85673250Y-105229000I-243750J0D01*
G01*
X84760750Y-105229000D01*
G75*
G02*
X84517000Y-104985250I0J243750D01*
G01*
X84517000Y-104497750D01*
G75*
G02*
X84760750Y-104254000I243750J0D01*
G01*
G37*
G04 #@! TD.AperFunction*
G04 #@! TA.AperFunction,SMDPad,CuDef*
G36*
G01*
X86729250Y-107115000D02*
X87641750Y-107115000D01*
G75*
G02*
X87885500Y-107358750I0J-243750D01*
G01*
X87885500Y-107846250D01*
G75*
G02*
X87641750Y-108090000I-243750J0D01*
G01*
X86729250Y-108090000D01*
G75*
G02*
X86485500Y-107846250I0J243750D01*
G01*
X86485500Y-107358750D01*
G75*
G02*
X86729250Y-107115000I243750J0D01*
G01*
G37*
G04 #@! TD.AperFunction*
G04 #@! TA.AperFunction,SMDPad,CuDef*
G36*
G01*
X86729250Y-105240000D02*
X87641750Y-105240000D01*
G75*
G02*
X87885500Y-105483750I0J-243750D01*
G01*
X87885500Y-105971250D01*
G75*
G02*
X87641750Y-106215000I-243750J0D01*
G01*
X86729250Y-106215000D01*
G75*
G02*
X86485500Y-105971250I0J243750D01*
G01*
X86485500Y-105483750D01*
G75*
G02*
X86729250Y-105240000I243750J0D01*
G01*
G37*
G04 #@! TD.AperFunction*
G04 #@! TA.AperFunction,SMDPad,CuDef*
G36*
G01*
X87893500Y-109017750D02*
X87893500Y-109930250D01*
G75*
G02*
X87649750Y-110174000I-243750J0D01*
G01*
X87162250Y-110174000D01*
G75*
G02*
X86918500Y-109930250I0J243750D01*
G01*
X86918500Y-109017750D01*
G75*
G02*
X87162250Y-108774000I243750J0D01*
G01*
X87649750Y-108774000D01*
G75*
G02*
X87893500Y-109017750I0J-243750D01*
G01*
G37*
G04 #@! TD.AperFunction*
G04 #@! TA.AperFunction,SMDPad,CuDef*
G36*
G01*
X89768500Y-109017750D02*
X89768500Y-109930250D01*
G75*
G02*
X89524750Y-110174000I-243750J0D01*
G01*
X89037250Y-110174000D01*
G75*
G02*
X88793500Y-109930250I0J243750D01*
G01*
X88793500Y-109017750D01*
G75*
G02*
X89037250Y-108774000I243750J0D01*
G01*
X89524750Y-108774000D01*
G75*
G02*
X89768500Y-109017750I0J-243750D01*
G01*
G37*
G04 #@! TD.AperFunction*
G04 #@! TA.AperFunction,SMDPad,CuDef*
G36*
G01*
X82809500Y-109295250D02*
X82809500Y-108382750D01*
G75*
G02*
X83053250Y-108139000I243750J0D01*
G01*
X83540750Y-108139000D01*
G75*
G02*
X83784500Y-108382750I0J-243750D01*
G01*
X83784500Y-109295250D01*
G75*
G02*
X83540750Y-109539000I-243750J0D01*
G01*
X83053250Y-109539000D01*
G75*
G02*
X82809500Y-109295250I0J243750D01*
G01*
G37*
G04 #@! TD.AperFunction*
G04 #@! TA.AperFunction,SMDPad,CuDef*
G36*
G01*
X80934500Y-109295250D02*
X80934500Y-108382750D01*
G75*
G02*
X81178250Y-108139000I243750J0D01*
G01*
X81665750Y-108139000D01*
G75*
G02*
X81909500Y-108382750I0J-243750D01*
G01*
X81909500Y-109295250D01*
G75*
G02*
X81665750Y-109539000I-243750J0D01*
G01*
X81178250Y-109539000D01*
G75*
G02*
X80934500Y-109295250I0J243750D01*
G01*
G37*
G04 #@! TD.AperFunction*
D26*
X80994500Y-115382000D03*
X82994500Y-116332000D03*
X82994500Y-114432000D03*
D27*
X82362000Y-110712500D03*
X81412000Y-112712500D03*
X83312000Y-112712500D03*
D18*
X109793257Y-144244423D03*
G04 #@! TA.AperFunction,ComponentPad*
G36*
G01*
X109870653Y-146853352D02*
X109611834Y-147819277D01*
G75*
G02*
X109305648Y-147996053I-241481J64705D01*
G01*
X108339723Y-147737234D01*
G75*
G02*
X108162947Y-147431048I64705J241481D01*
G01*
X108421766Y-146465123D01*
G75*
G02*
X108727952Y-146288347I241481J-64705D01*
G01*
X109693877Y-146547166D01*
G75*
G02*
X109870653Y-146853352I-64705J-241481D01*
G01*
G37*
G04 #@! TD.AperFunction*
X91666563Y-133871267D03*
G04 #@! TA.AperFunction,ComponentPad*
G36*
G01*
X90634127Y-136268469D02*
X89991339Y-137034513D01*
G75*
G02*
X89639131Y-137065327I-191511J160697D01*
G01*
X88873087Y-136422539D01*
G75*
G02*
X88842273Y-136070331I160697J191511D01*
G01*
X89485061Y-135304287D01*
G75*
G02*
X89837269Y-135273473I191511J-160697D01*
G01*
X90603313Y-135916261D01*
G75*
G02*
X90634127Y-136268469I-160697J-191511D01*
G01*
G37*
G04 #@! TD.AperFunction*
X77012478Y-112689740D03*
G04 #@! TA.AperFunction,ComponentPad*
G36*
G01*
X74919761Y-114249559D02*
X73980069Y-114591579D01*
G75*
G02*
X73659641Y-114442161I-85505J234923D01*
G01*
X73317621Y-113502469D01*
G75*
G02*
X73467039Y-113182041I234923J85505D01*
G01*
X74406731Y-112840021D01*
G75*
G02*
X74727159Y-112989439I85505J-234923D01*
G01*
X75069179Y-113929131D01*
G75*
G02*
X74919761Y-114249559I-234923J-85505D01*
G01*
G37*
G04 #@! TD.AperFunction*
X85051333Y-127637037D03*
G04 #@! TA.AperFunction,ComponentPad*
G36*
G01*
X83618313Y-129818539D02*
X82852269Y-130461327D01*
G75*
G02*
X82500061Y-130430513I-160697J191511D01*
G01*
X81857273Y-129664469D01*
G75*
G02*
X81888087Y-129312261I191511J160697D01*
G01*
X82654131Y-128669473D01*
G75*
G02*
X83006339Y-128700287I160697J-191511D01*
G01*
X83649127Y-129466331D01*
G75*
G02*
X83618313Y-129818539I-191511J-160697D01*
G01*
G37*
G04 #@! TD.AperFunction*
D16*
X124714000Y-60896500D03*
D15*
X126714000Y-60896500D03*
X124714000Y-62896500D03*
X126714000Y-62896500D03*
D18*
X80525276Y-120369200D03*
G04 #@! TA.AperFunction,ComponentPad*
G36*
G01*
X78735213Y-122268719D02*
X77869187Y-122768719D01*
G75*
G02*
X77527681Y-122677213I-125000J216506D01*
G01*
X77027681Y-121811187D01*
G75*
G02*
X77119187Y-121469681I216506J125000D01*
G01*
X77985213Y-120969681D01*
G75*
G02*
X78326719Y-121061187I125000J-216506D01*
G01*
X78826719Y-121927213D01*
G75*
G02*
X78735213Y-122268719I-216506J-125000D01*
G01*
G37*
G04 #@! TD.AperFunction*
D28*
X115640000Y-53677500D03*
X116840000Y-48577500D03*
X98863000Y-135552500D03*
X97663000Y-140652500D03*
G04 #@! TA.AperFunction,SMDPad,CuDef*
D19*
G36*
X108854951Y-139849738D02*
G01*
X109470587Y-138158291D01*
X111819819Y-139013342D01*
X111204183Y-140704789D01*
X108854951Y-139849738D01*
G37*
G04 #@! TD.AperFunction*
G04 #@! TA.AperFunction,SMDPad,CuDef*
G36*
X105096181Y-138481658D02*
G01*
X105711817Y-136790211D01*
X108061049Y-137645262D01*
X107445413Y-139336709D01*
X105096181Y-138481658D01*
G37*
G04 #@! TD.AperFunction*
D29*
X91610500Y-111442500D03*
X89110500Y-111442500D03*
X89217500Y-105176000D03*
X89217500Y-107676000D03*
X83185000Y-103060500D03*
X83185000Y-105560500D03*
G04 #@! TA.AperFunction,SMDPad,CuDef*
G36*
G01*
X117536250Y-134246000D02*
X118048750Y-134246000D01*
G75*
G02*
X118267500Y-134464750I0J-218750D01*
G01*
X118267500Y-134902250D01*
G75*
G02*
X118048750Y-135121000I-218750J0D01*
G01*
X117536250Y-135121000D01*
G75*
G02*
X117317500Y-134902250I0J218750D01*
G01*
X117317500Y-134464750D01*
G75*
G02*
X117536250Y-134246000I218750J0D01*
G01*
G37*
G04 #@! TD.AperFunction*
G04 #@! TA.AperFunction,SMDPad,CuDef*
G36*
G01*
X117536250Y-132671000D02*
X118048750Y-132671000D01*
G75*
G02*
X118267500Y-132889750I0J-218750D01*
G01*
X118267500Y-133327250D01*
G75*
G02*
X118048750Y-133546000I-218750J0D01*
G01*
X117536250Y-133546000D01*
G75*
G02*
X117317500Y-133327250I0J218750D01*
G01*
X117317500Y-132889750D01*
G75*
G02*
X117536250Y-132671000I218750J0D01*
G01*
G37*
G04 #@! TD.AperFunction*
G04 #@! TA.AperFunction,SMDPad,CuDef*
G36*
G01*
X119314250Y-146755500D02*
X119826750Y-146755500D01*
G75*
G02*
X120045500Y-146974250I0J-218750D01*
G01*
X120045500Y-147411750D01*
G75*
G02*
X119826750Y-147630500I-218750J0D01*
G01*
X119314250Y-147630500D01*
G75*
G02*
X119095500Y-147411750I0J218750D01*
G01*
X119095500Y-146974250D01*
G75*
G02*
X119314250Y-146755500I218750J0D01*
G01*
G37*
G04 #@! TD.AperFunction*
G04 #@! TA.AperFunction,SMDPad,CuDef*
G36*
G01*
X119314250Y-145180500D02*
X119826750Y-145180500D01*
G75*
G02*
X120045500Y-145399250I0J-218750D01*
G01*
X120045500Y-145836750D01*
G75*
G02*
X119826750Y-146055500I-218750J0D01*
G01*
X119314250Y-146055500D01*
G75*
G02*
X119095500Y-145836750I0J218750D01*
G01*
X119095500Y-145399250D01*
G75*
G02*
X119314250Y-145180500I218750J0D01*
G01*
G37*
G04 #@! TD.AperFunction*
G04 #@! TA.AperFunction,SMDPad,CuDef*
G36*
G01*
X136515000Y-138922000D02*
X135265000Y-138922000D01*
G75*
G02*
X135015000Y-138672000I0J250000D01*
G01*
X135015000Y-137922000D01*
G75*
G02*
X135265000Y-137672000I250000J0D01*
G01*
X136515000Y-137672000D01*
G75*
G02*
X136765000Y-137922000I0J-250000D01*
G01*
X136765000Y-138672000D01*
G75*
G02*
X136515000Y-138922000I-250000J0D01*
G01*
G37*
G04 #@! TD.AperFunction*
G04 #@! TA.AperFunction,SMDPad,CuDef*
G36*
G01*
X136515000Y-141722000D02*
X135265000Y-141722000D01*
G75*
G02*
X135015000Y-141472000I0J250000D01*
G01*
X135015000Y-140722000D01*
G75*
G02*
X135265000Y-140472000I250000J0D01*
G01*
X136515000Y-140472000D01*
G75*
G02*
X136765000Y-140722000I0J-250000D01*
G01*
X136765000Y-141472000D01*
G75*
G02*
X136515000Y-141722000I-250000J0D01*
G01*
G37*
G04 #@! TD.AperFunction*
G04 #@! TA.AperFunction,SMDPad,CuDef*
G36*
G01*
X115790400Y-144561400D02*
X117940400Y-144561400D01*
G75*
G02*
X118190400Y-144811400I0J-250000D01*
G01*
X118190400Y-145561400D01*
G75*
G02*
X117940400Y-145811400I-250000J0D01*
G01*
X115790400Y-145811400D01*
G75*
G02*
X115540400Y-145561400I0J250000D01*
G01*
X115540400Y-144811400D01*
G75*
G02*
X115790400Y-144561400I250000J0D01*
G01*
G37*
G04 #@! TD.AperFunction*
G04 #@! TA.AperFunction,SMDPad,CuDef*
G36*
G01*
X115790400Y-141761400D02*
X117940400Y-141761400D01*
G75*
G02*
X118190400Y-142011400I0J-250000D01*
G01*
X118190400Y-142761400D01*
G75*
G02*
X117940400Y-143011400I-250000J0D01*
G01*
X115790400Y-143011400D01*
G75*
G02*
X115540400Y-142761400I0J250000D01*
G01*
X115540400Y-142011400D01*
G75*
G02*
X115790400Y-141761400I250000J0D01*
G01*
G37*
G04 #@! TD.AperFunction*
G04 #@! TA.AperFunction,SMDPad,CuDef*
G36*
G01*
X130179500Y-145996500D02*
X132329500Y-145996500D01*
G75*
G02*
X132579500Y-146246500I0J-250000D01*
G01*
X132579500Y-146996500D01*
G75*
G02*
X132329500Y-147246500I-250000J0D01*
G01*
X130179500Y-147246500D01*
G75*
G02*
X129929500Y-146996500I0J250000D01*
G01*
X129929500Y-146246500D01*
G75*
G02*
X130179500Y-145996500I250000J0D01*
G01*
G37*
G04 #@! TD.AperFunction*
G04 #@! TA.AperFunction,SMDPad,CuDef*
G36*
G01*
X130179500Y-143196500D02*
X132329500Y-143196500D01*
G75*
G02*
X132579500Y-143446500I0J-250000D01*
G01*
X132579500Y-144196500D01*
G75*
G02*
X132329500Y-144446500I-250000J0D01*
G01*
X130179500Y-144446500D01*
G75*
G02*
X129929500Y-144196500I0J250000D01*
G01*
X129929500Y-143446500D01*
G75*
G02*
X130179500Y-143196500I250000J0D01*
G01*
G37*
G04 #@! TD.AperFunction*
G04 #@! TA.AperFunction,SMDPad,CuDef*
G36*
G01*
X79787000Y-72603750D02*
X79787000Y-73116250D01*
G75*
G02*
X79568250Y-73335000I-218750J0D01*
G01*
X79130750Y-73335000D01*
G75*
G02*
X78912000Y-73116250I0J218750D01*
G01*
X78912000Y-72603750D01*
G75*
G02*
X79130750Y-72385000I218750J0D01*
G01*
X79568250Y-72385000D01*
G75*
G02*
X79787000Y-72603750I0J-218750D01*
G01*
G37*
G04 #@! TD.AperFunction*
G04 #@! TA.AperFunction,SMDPad,CuDef*
G36*
G01*
X81362000Y-72603750D02*
X81362000Y-73116250D01*
G75*
G02*
X81143250Y-73335000I-218750J0D01*
G01*
X80705750Y-73335000D01*
G75*
G02*
X80487000Y-73116250I0J218750D01*
G01*
X80487000Y-72603750D01*
G75*
G02*
X80705750Y-72385000I218750J0D01*
G01*
X81143250Y-72385000D01*
G75*
G02*
X81362000Y-72603750I0J-218750D01*
G01*
G37*
G04 #@! TD.AperFunction*
G04 #@! TA.AperFunction,SMDPad,CuDef*
G36*
G01*
X96408816Y-83949791D02*
X96771209Y-84312184D01*
G75*
G02*
X96771209Y-84621544I-154680J-154680D01*
G01*
X96461850Y-84930903D01*
G75*
G02*
X96152490Y-84930903I-154680J154680D01*
G01*
X95790097Y-84568510D01*
G75*
G02*
X95790097Y-84259150I154680J154680D01*
G01*
X96099456Y-83949791D01*
G75*
G02*
X96408816Y-83949791I154680J-154680D01*
G01*
G37*
G04 #@! TD.AperFunction*
G04 #@! TA.AperFunction,SMDPad,CuDef*
G36*
G01*
X97522510Y-82836097D02*
X97884903Y-83198490D01*
G75*
G02*
X97884903Y-83507850I-154680J-154680D01*
G01*
X97575544Y-83817209D01*
G75*
G02*
X97266184Y-83817209I-154680J154680D01*
G01*
X96903791Y-83454816D01*
G75*
G02*
X96903791Y-83145456I154680J154680D01*
G01*
X97213150Y-82836097D01*
G75*
G02*
X97522510Y-82836097I154680J-154680D01*
G01*
G37*
G04 #@! TD.AperFunction*
G04 #@! TA.AperFunction,SMDPad,CuDef*
G36*
G01*
X91981031Y-88975362D02*
X91618638Y-88612969D01*
G75*
G02*
X91618638Y-88303609I154680J154680D01*
G01*
X91927997Y-87994250D01*
G75*
G02*
X92237357Y-87994250I154680J-154680D01*
G01*
X92599750Y-88356643D01*
G75*
G02*
X92599750Y-88666003I-154680J-154680D01*
G01*
X92290391Y-88975362D01*
G75*
G02*
X91981031Y-88975362I-154680J154680D01*
G01*
G37*
G04 #@! TD.AperFunction*
G04 #@! TA.AperFunction,SMDPad,CuDef*
G36*
G01*
X90867337Y-90089056D02*
X90504944Y-89726663D01*
G75*
G02*
X90504944Y-89417303I154680J154680D01*
G01*
X90814303Y-89107944D01*
G75*
G02*
X91123663Y-89107944I154680J-154680D01*
G01*
X91486056Y-89470337D01*
G75*
G02*
X91486056Y-89779697I-154680J-154680D01*
G01*
X91176697Y-90089056D01*
G75*
G02*
X90867337Y-90089056I-154680J154680D01*
G01*
G37*
G04 #@! TD.AperFunction*
G04 #@! TA.AperFunction,SMDPad,CuDef*
G36*
G01*
X151943750Y-57966000D02*
X152856250Y-57966000D01*
G75*
G02*
X153100000Y-58209750I0J-243750D01*
G01*
X153100000Y-58697250D01*
G75*
G02*
X152856250Y-58941000I-243750J0D01*
G01*
X151943750Y-58941000D01*
G75*
G02*
X151700000Y-58697250I0J243750D01*
G01*
X151700000Y-58209750D01*
G75*
G02*
X151943750Y-57966000I243750J0D01*
G01*
G37*
G04 #@! TD.AperFunction*
G04 #@! TA.AperFunction,SMDPad,CuDef*
G36*
G01*
X151943750Y-56091000D02*
X152856250Y-56091000D01*
G75*
G02*
X153100000Y-56334750I0J-243750D01*
G01*
X153100000Y-56822250D01*
G75*
G02*
X152856250Y-57066000I-243750J0D01*
G01*
X151943750Y-57066000D01*
G75*
G02*
X151700000Y-56822250I0J243750D01*
G01*
X151700000Y-56334750D01*
G75*
G02*
X151943750Y-56091000I243750J0D01*
G01*
G37*
G04 #@! TD.AperFunction*
G04 #@! TA.AperFunction,SMDPad,CuDef*
G36*
G01*
X153975750Y-58948500D02*
X154888250Y-58948500D01*
G75*
G02*
X155132000Y-59192250I0J-243750D01*
G01*
X155132000Y-59679750D01*
G75*
G02*
X154888250Y-59923500I-243750J0D01*
G01*
X153975750Y-59923500D01*
G75*
G02*
X153732000Y-59679750I0J243750D01*
G01*
X153732000Y-59192250D01*
G75*
G02*
X153975750Y-58948500I243750J0D01*
G01*
G37*
G04 #@! TD.AperFunction*
G04 #@! TA.AperFunction,SMDPad,CuDef*
G36*
G01*
X153975750Y-57073500D02*
X154888250Y-57073500D01*
G75*
G02*
X155132000Y-57317250I0J-243750D01*
G01*
X155132000Y-57804750D01*
G75*
G02*
X154888250Y-58048500I-243750J0D01*
G01*
X153975750Y-58048500D01*
G75*
G02*
X153732000Y-57804750I0J243750D01*
G01*
X153732000Y-57317250D01*
G75*
G02*
X153975750Y-57073500I243750J0D01*
G01*
G37*
G04 #@! TD.AperFunction*
G04 #@! TA.AperFunction,SMDPad,CuDef*
G36*
G01*
X90366000Y-115899250D02*
X90366000Y-114986750D01*
G75*
G02*
X90609750Y-114743000I243750J0D01*
G01*
X91097250Y-114743000D01*
G75*
G02*
X91341000Y-114986750I0J-243750D01*
G01*
X91341000Y-115899250D01*
G75*
G02*
X91097250Y-116143000I-243750J0D01*
G01*
X90609750Y-116143000D01*
G75*
G02*
X90366000Y-115899250I0J243750D01*
G01*
G37*
G04 #@! TD.AperFunction*
G04 #@! TA.AperFunction,SMDPad,CuDef*
G36*
G01*
X88491000Y-115899250D02*
X88491000Y-114986750D01*
G75*
G02*
X88734750Y-114743000I243750J0D01*
G01*
X89222250Y-114743000D01*
G75*
G02*
X89466000Y-114986750I0J-243750D01*
G01*
X89466000Y-115899250D01*
G75*
G02*
X89222250Y-116143000I-243750J0D01*
G01*
X88734750Y-116143000D01*
G75*
G02*
X88491000Y-115899250I0J243750D01*
G01*
G37*
G04 #@! TD.AperFunction*
G04 #@! TA.AperFunction,SMDPad,CuDef*
G36*
G01*
X84316250Y-118227500D02*
X85228750Y-118227500D01*
G75*
G02*
X85472500Y-118471250I0J-243750D01*
G01*
X85472500Y-118958750D01*
G75*
G02*
X85228750Y-119202500I-243750J0D01*
G01*
X84316250Y-119202500D01*
G75*
G02*
X84072500Y-118958750I0J243750D01*
G01*
X84072500Y-118471250D01*
G75*
G02*
X84316250Y-118227500I243750J0D01*
G01*
G37*
G04 #@! TD.AperFunction*
G04 #@! TA.AperFunction,SMDPad,CuDef*
G36*
G01*
X84316250Y-116352500D02*
X85228750Y-116352500D01*
G75*
G02*
X85472500Y-116596250I0J-243750D01*
G01*
X85472500Y-117083750D01*
G75*
G02*
X85228750Y-117327500I-243750J0D01*
G01*
X84316250Y-117327500D01*
G75*
G02*
X84072500Y-117083750I0J243750D01*
G01*
X84072500Y-116596250D01*
G75*
G02*
X84316250Y-116352500I243750J0D01*
G01*
G37*
G04 #@! TD.AperFunction*
D30*
X84391500Y-113411000D03*
X88582500Y-113919000D03*
X91186000Y-116903500D03*
X87757000Y-117665500D03*
X86995000Y-113284000D03*
X85725000Y-113220500D03*
X119888000Y-141287500D03*
X128270000Y-141541500D03*
X123761500Y-147510500D03*
X122682000Y-150558500D03*
X119253000Y-148272500D03*
D31*
X131254500Y-148209000D03*
X116903500Y-147002500D03*
X115887500Y-134556500D03*
X153098500Y-133858000D03*
X133159500Y-136779000D03*
X155575000Y-138493500D03*
X130048000Y-135953500D03*
X148907500Y-143764000D03*
D32*
X71374000Y-86931500D03*
X78105000Y-89979500D03*
D31*
X80010000Y-81089500D03*
D30*
X79438500Y-71374000D03*
D31*
X89979500Y-90678000D03*
X89890590Y-104300068D03*
D30*
X107823000Y-52070000D03*
X100457000Y-54927500D03*
D31*
X156210000Y-59436000D03*
X147002500Y-65405000D03*
X98042039Y-81718130D03*
D30*
X89923910Y-78134148D03*
D31*
X92741757Y-111537422D03*
D30*
X82042000Y-107315000D03*
X83711894Y-111712737D03*
X82105500Y-101600000D03*
X91376500Y-87630000D03*
X97177598Y-77392333D03*
X91634483Y-71400320D03*
X111887000Y-57086500D03*
D31*
X79673333Y-78497869D03*
D30*
X121412000Y-146240500D03*
X124968000Y-149542500D03*
X116586000Y-131445000D03*
X118237000Y-131445000D03*
X130873500Y-131318000D03*
X129349500Y-131318000D03*
X121920000Y-134747000D03*
D32*
X151901981Y-55255394D03*
X125727600Y-132717400D03*
X121663600Y-132717400D03*
D31*
X150812500Y-54292500D03*
X146963312Y-52016574D03*
X149987000Y-53784500D03*
X143510000Y-141224000D03*
X140652500Y-141224000D03*
X138557000Y-141224000D03*
X133413500Y-140208000D03*
D32*
X80708500Y-86931500D03*
D30*
X83439000Y-68326000D03*
D31*
X122364500Y-58102500D03*
X94361000Y-58293000D03*
D30*
X93154500Y-81407000D03*
X89098410Y-85153013D03*
X140970000Y-60071000D03*
X135064500Y-50482500D03*
X88582500Y-77978000D03*
X97726500Y-123698000D03*
X93154500Y-124523500D03*
X86868000Y-99949000D03*
X104584500Y-58483500D03*
X107823000Y-57594500D03*
X92622194Y-72195815D03*
D31*
X80649784Y-78144724D03*
D30*
X82867500Y-75057000D03*
X99187000Y-56324500D03*
X105156000Y-53086000D03*
X83439000Y-118808500D03*
X128651000Y-144335500D03*
X128587500Y-142938500D03*
X133667500Y-143573500D03*
X118999000Y-142367000D03*
X119189500Y-143954500D03*
D31*
X149479000Y-137033000D03*
D32*
X125349000Y-139319000D03*
X122047000Y-139382500D03*
D30*
X120713500Y-147002500D03*
X84188661Y-115518839D03*
X78105000Y-70294500D03*
X85478457Y-73779543D03*
X79692500Y-67500500D03*
X85548855Y-72856776D03*
X104203500Y-56578500D03*
X106937045Y-56327545D03*
X106616500Y-52578000D03*
D31*
X94869000Y-88265000D03*
D30*
X86934544Y-80076545D03*
D31*
X93628888Y-88939703D03*
D30*
X85762340Y-80745840D03*
D31*
X92563990Y-92710000D03*
D30*
X83753750Y-80246510D03*
X92392500Y-78803500D03*
X100076000Y-79692500D03*
X140716000Y-55880000D03*
X86423500Y-79502000D03*
X85383733Y-78947990D03*
X80412005Y-75967005D03*
X80454500Y-75057000D03*
X86677500Y-78359000D03*
X119824500Y-62230000D03*
X119705463Y-63238625D03*
X118745000Y-63881000D03*
X100512790Y-71188196D03*
X117538500Y-64198500D03*
X100001848Y-70150010D03*
X111379000Y-61912500D03*
X118299474Y-56174984D03*
X108431630Y-62618885D03*
X116776500Y-55435500D03*
X119507000Y-56642000D03*
X94488000Y-98107500D03*
X82433445Y-97295025D03*
X91122500Y-96837500D03*
X84437510Y-89257589D03*
X83883500Y-99187000D03*
X88455500Y-101981000D03*
X145732500Y-54991000D03*
X89344500Y-76200000D03*
X128236768Y-69762321D03*
X94210848Y-73452125D03*
X115627955Y-57367535D03*
X111887000Y-54419500D03*
X143059366Y-61726836D03*
X89979500Y-75620590D03*
X130990105Y-69666384D03*
X91874300Y-72113490D03*
X92964000Y-64643000D03*
X93027500Y-63500000D03*
X87648017Y-84855115D03*
X93853000Y-79819500D03*
X143573500Y-62928500D03*
X130934289Y-70416723D03*
X114803974Y-55869264D03*
X95821500Y-87503000D03*
X142049500Y-61307679D03*
X91118586Y-83357925D03*
D31*
X144466666Y-61408666D03*
X151257000Y-142113000D03*
X110503795Y-57544795D03*
D30*
X141541500Y-60706000D03*
X97155000Y-85534500D03*
X89598500Y-80454500D03*
X84582485Y-110418590D03*
X87531705Y-110836205D03*
X83947000Y-110998000D03*
X80645000Y-73914000D03*
X85475142Y-77770152D03*
X78549500Y-71437500D03*
D33*
X86344000Y-114758500D02*
X86344000Y-113283500D01*
X86086798Y-113283500D02*
X86344000Y-113283500D01*
X85144000Y-114226298D02*
X86086798Y-113283500D01*
X85144000Y-114758500D02*
X85144000Y-114226298D01*
D34*
X87947000Y-113283500D02*
X88582500Y-113919000D01*
X90853500Y-115443000D02*
X90853500Y-116571000D01*
X90853500Y-116571000D02*
X91186000Y-116903500D01*
X84802500Y-118745000D02*
X84772500Y-118715000D01*
X86741000Y-118745000D02*
X84802500Y-118745000D01*
X87376000Y-118745000D02*
X86741000Y-118745000D01*
X87757000Y-117665500D02*
X87376000Y-118745000D01*
X87121500Y-113283500D02*
X87122000Y-113284000D01*
X86344000Y-113283500D02*
X87121500Y-113283500D01*
X87122000Y-113284000D02*
X87947000Y-113283500D01*
X86614500Y-113283500D02*
X86344000Y-113283500D01*
X86995000Y-113284000D02*
X86614500Y-113283500D01*
X84519000Y-113283500D02*
X84391500Y-113411000D01*
X85725000Y-113220500D02*
X84519000Y-113283500D01*
X85725500Y-113283500D02*
X86344000Y-113283500D01*
X85725000Y-113220500D02*
X85725500Y-113283500D01*
D35*
X131254500Y-146621500D02*
X131254500Y-148209000D01*
X116865400Y-145186400D02*
X116865400Y-146964400D01*
X116865400Y-146964400D02*
X116903500Y-147002500D01*
X117792500Y-134683500D02*
X116014500Y-134683500D01*
X116014500Y-134683500D02*
X115887500Y-134556500D01*
X134677500Y-138297000D02*
X133159500Y-136779000D01*
X135890000Y-138297000D02*
X134677500Y-138297000D01*
X153162000Y-139014000D02*
X155054500Y-139014000D01*
X155054500Y-139014000D02*
X155575000Y-138493500D01*
D33*
X81981519Y-78775819D02*
X81950819Y-78775819D01*
D36*
X79349500Y-71463000D02*
X79438500Y-71374000D01*
X79349500Y-72860000D02*
X79349500Y-71463000D01*
D33*
X90995500Y-89662000D02*
X89979500Y-90678000D01*
X90995500Y-89598500D02*
X90995500Y-89662000D01*
D37*
X89217500Y-105176000D02*
X89217500Y-104973158D01*
X89217500Y-104973158D02*
X89890590Y-104300068D01*
D34*
X154432000Y-59436000D02*
X156210000Y-59436000D01*
D37*
X146740826Y-65143326D02*
X147002500Y-65405000D01*
X146740826Y-63619326D02*
X146740826Y-65143326D01*
D33*
X97394347Y-83326653D02*
X97394347Y-82365822D01*
X97394347Y-82365822D02*
X98042039Y-81718130D01*
D37*
X92646835Y-111442500D02*
X92741757Y-111537422D01*
X91610500Y-111442500D02*
X92646835Y-111442500D01*
D36*
X83297000Y-108570000D02*
X82042000Y-107315000D01*
X83297000Y-108839000D02*
X83297000Y-108570000D01*
X83185000Y-102679500D02*
X82105500Y-101600000D01*
X83185000Y-103060500D02*
X83185000Y-102679500D01*
D33*
X90714287Y-86094375D02*
X91551412Y-86931500D01*
X91551412Y-87455088D02*
X91376500Y-87630000D01*
X91551412Y-86931500D02*
X91551412Y-87455088D01*
D36*
X91294898Y-71739905D02*
X91634483Y-71400320D01*
X90360734Y-73826072D02*
X91294898Y-72891908D01*
X91294898Y-72891908D02*
X91294898Y-71739905D01*
D33*
X110236000Y-58737500D02*
X111887000Y-57086500D01*
X109537500Y-58737500D02*
X110236000Y-58737500D01*
D36*
X80073332Y-78897868D02*
X79673333Y-78497869D01*
X81828770Y-78897868D02*
X80073332Y-78897868D01*
X81950819Y-78775819D02*
X81828770Y-78897868D01*
D33*
X85944000Y-115668500D02*
X85944000Y-114758500D01*
X84772500Y-116840000D02*
X85944000Y-115668500D01*
D36*
X84264500Y-116332000D02*
X84772500Y-116840000D01*
X82994500Y-116332000D02*
X84264500Y-116332000D01*
D33*
X86744000Y-116867000D02*
X86741000Y-116870000D01*
X86744000Y-114758500D02*
X86744000Y-116867000D01*
X88978500Y-115443000D02*
X88228500Y-115443000D01*
X88228500Y-115443000D02*
X87544000Y-114758500D01*
D36*
X121412000Y-146240500D02*
X124714000Y-149542500D01*
X124714000Y-149542500D02*
X124968000Y-149542500D01*
X120789500Y-145618000D02*
X121412000Y-146240500D01*
X119570500Y-145618000D02*
X120789500Y-145618000D01*
D35*
X117792500Y-133108500D02*
X117792500Y-131889500D01*
X117792500Y-131889500D02*
X118237000Y-131445000D01*
X152400000Y-55753413D02*
X151901981Y-55255394D01*
X152400000Y-56578500D02*
X152400000Y-55753413D01*
D34*
X153382500Y-57561000D02*
X152400000Y-56578500D01*
X154432000Y-57561000D02*
X153382500Y-57561000D01*
X121005599Y-135661401D02*
X121920000Y-134747000D01*
X121412000Y-146240500D02*
X121005599Y-145834099D01*
X121005599Y-145834099D02*
X121005599Y-135661401D01*
X150860580Y-55483580D02*
X150749000Y-55372000D01*
X150860580Y-56658546D02*
X150860580Y-55483580D01*
X152400000Y-58197966D02*
X150860580Y-56658546D01*
X152400000Y-58453500D02*
X152400000Y-58197966D01*
X150812500Y-55308500D02*
X150812500Y-54292500D01*
X150749000Y-55372000D02*
X150812500Y-55308500D01*
D37*
X146963312Y-53409188D02*
X146842000Y-53530500D01*
X146963312Y-52016574D02*
X146963312Y-53409188D01*
X149733000Y-53530500D02*
X149987000Y-53784500D01*
X148717000Y-53530500D02*
X149733000Y-53530500D01*
D34*
X151511000Y-139395000D02*
X145339000Y-139395000D01*
X145339000Y-139395000D02*
X143510000Y-141224000D01*
D35*
X138430000Y-141097000D02*
X138557000Y-141224000D01*
X135890000Y-141097000D02*
X138430000Y-141097000D01*
X135001000Y-140208000D02*
X135890000Y-141097000D01*
X133413500Y-140208000D02*
X135001000Y-140208000D01*
D36*
X151689000Y-139395000D02*
X151511000Y-139395000D01*
X152407590Y-138676410D02*
X151689000Y-139395000D01*
X155511500Y-129603500D02*
X154622500Y-129603500D01*
X152407590Y-131818410D02*
X152407590Y-138676410D01*
X154622500Y-129603500D02*
X152407590Y-131818410D01*
D33*
X82042000Y-69570500D02*
X82042000Y-68770500D01*
X82994500Y-68770500D02*
X83439000Y-68326000D01*
X82042000Y-68770500D02*
X82994500Y-68770500D01*
D36*
X95380144Y-57273856D02*
X94361000Y-58293000D01*
X96020038Y-57273856D02*
X95380144Y-57273856D01*
D33*
X93154500Y-81463520D02*
X94249821Y-82558841D01*
X93154500Y-81407000D02*
X93154500Y-81463520D01*
D36*
X90360734Y-86447928D02*
X89098410Y-85185604D01*
X89098410Y-85185604D02*
X89098410Y-85153013D01*
X142013913Y-59027087D02*
X140970000Y-60071000D01*
X142085087Y-59027087D02*
X142013913Y-59027087D01*
X100647500Y-120040500D02*
X100647500Y-120840500D01*
X100584000Y-120840500D02*
X97726500Y-123698000D01*
X100647500Y-120840500D02*
X100584000Y-120840500D01*
D33*
X90570000Y-99924500D02*
X89770000Y-99924500D01*
X87351500Y-99924500D02*
X89770000Y-99924500D01*
X86868000Y-99949000D02*
X87351500Y-99924500D01*
X106934000Y-58483500D02*
X107823000Y-57594500D01*
X106807000Y-58483500D02*
X106934000Y-58483500D01*
D36*
X92322195Y-72495814D02*
X92622194Y-72195815D01*
X90714287Y-74103722D02*
X92322195Y-72495814D01*
X90714287Y-74179625D02*
X90714287Y-74103722D01*
X81049783Y-77744725D02*
X80649784Y-78144724D01*
X82335072Y-78422266D02*
X81657531Y-77744725D01*
X81657531Y-77744725D02*
X81049783Y-77744725D01*
D33*
X92128501Y-84680161D02*
X92128501Y-84699001D01*
X93350117Y-85920617D02*
X93350117Y-87370883D01*
X92128501Y-84699001D02*
X93350117Y-85920617D01*
X92236194Y-88484806D02*
X93350117Y-87370883D01*
X92109194Y-88484806D02*
X92236194Y-88484806D01*
X92482054Y-84326608D02*
X92482054Y-84354054D01*
X93731117Y-85603117D02*
X95117883Y-85603117D01*
X92482054Y-84354054D02*
X93731117Y-85603117D01*
X95117883Y-85603117D02*
X96280653Y-84440347D01*
X81216500Y-75889480D02*
X81216500Y-75565000D01*
X83042179Y-77715159D02*
X81216500Y-75889480D01*
X81557511Y-71751989D02*
X83759511Y-71751989D01*
X80924500Y-72385000D02*
X81557511Y-71751989D01*
X80924500Y-72860000D02*
X80924500Y-72385000D01*
X83759511Y-71751989D02*
X97599500Y-57912000D01*
X97778818Y-57912000D02*
X97781962Y-57915144D01*
X97599500Y-57912000D02*
X97778818Y-57912000D01*
X97781962Y-57729538D02*
X99187000Y-56324500D01*
X97781962Y-57915144D02*
X97781962Y-57729538D01*
X101917500Y-56324500D02*
X105156000Y-53086000D01*
X99187000Y-56324500D02*
X101917500Y-56324500D01*
D36*
X81216500Y-75565000D02*
X81224401Y-75557099D01*
X81224401Y-75557099D02*
X81224401Y-73159901D01*
X81224401Y-73159901D02*
X80924500Y-72860000D01*
D33*
X81216500Y-75889480D02*
X81216500Y-75946000D01*
X77017489Y-80145011D02*
X75663275Y-80145011D01*
X81216500Y-75946000D02*
X77017489Y-80145011D01*
D36*
X78073138Y-112689740D02*
X77012478Y-112689740D01*
X78956240Y-112689740D02*
X78073138Y-112689740D01*
X80994500Y-114728000D02*
X78956240Y-112689740D01*
X80994500Y-115382000D02*
X80994500Y-114728000D01*
D35*
X130740500Y-144335500D02*
X131254500Y-143821500D01*
X128651000Y-144335500D02*
X130740500Y-144335500D01*
X131502500Y-143573500D02*
X131254500Y-143821500D01*
X133667500Y-143573500D02*
X131502500Y-143573500D01*
X129470500Y-143821500D02*
X128587500Y-142938500D01*
X131254500Y-143821500D02*
X129470500Y-143821500D01*
X116865400Y-142386400D02*
X118979600Y-142386400D01*
X118979600Y-142386400D02*
X118999000Y-142367000D01*
X118433500Y-143954500D02*
X116865400Y-142386400D01*
X119189500Y-143954500D02*
X118433500Y-143954500D01*
D36*
X114316001Y-128952499D02*
X115316000Y-127952500D01*
X114316001Y-139837001D02*
X114316001Y-128952499D01*
X116865400Y-142386400D02*
X114316001Y-139837001D01*
D38*
X103799075Y-140843000D02*
X106578615Y-138063460D01*
X103187500Y-140843000D02*
X103799075Y-140843000D01*
D36*
X119761000Y-147002500D02*
X119570500Y-147193000D01*
X120713500Y-147002500D02*
X119761000Y-147002500D01*
X82994500Y-114432000D02*
X83101822Y-114432000D01*
X83101822Y-114432000D02*
X84188661Y-115518839D01*
D33*
X85144000Y-106689500D02*
X85217000Y-106616500D01*
X85144000Y-111808500D02*
X85144000Y-106689500D01*
X84161000Y-105560500D02*
X85217000Y-106616500D01*
X83185000Y-105560500D02*
X84161000Y-105560500D01*
D37*
X87259000Y-107676000D02*
X87185500Y-107602500D01*
X89217500Y-107676000D02*
X87259000Y-107676000D01*
D33*
X86344000Y-108444000D02*
X86344000Y-111808500D01*
X87185500Y-107602500D02*
X86344000Y-108444000D01*
D36*
X87406000Y-109474000D02*
X86804500Y-110075500D01*
D33*
X86744000Y-110136000D02*
X86744000Y-111808500D01*
X86804500Y-110075500D02*
X86744000Y-110136000D01*
D36*
X89110500Y-111178500D02*
X87406000Y-109474000D01*
X89110500Y-111442500D02*
X89110500Y-111178500D01*
D38*
X110337385Y-143700295D02*
X109793257Y-144244423D01*
X110337385Y-139431540D02*
X110337385Y-143700295D01*
D33*
X78829000Y-69570500D02*
X78105000Y-70294500D01*
X80342000Y-69570500D02*
X78829000Y-69570500D01*
X86224159Y-74533179D02*
X85478457Y-73787477D01*
X85478457Y-73787477D02*
X85478457Y-73779543D01*
X80342000Y-68150000D02*
X79692500Y-67500500D01*
X80342000Y-68770500D02*
X80342000Y-68150000D01*
X84916998Y-74001574D02*
X84916998Y-73488633D01*
X85870606Y-74886732D02*
X85802157Y-74886732D01*
X85802157Y-74886732D02*
X84916998Y-74001574D01*
X84916998Y-73488633D02*
X85548855Y-72856776D01*
D38*
X98863000Y-131819500D02*
X95504000Y-128460500D01*
X98863000Y-135552500D02*
X98863000Y-131819500D01*
D33*
X87284819Y-73472519D02*
X101663500Y-59093838D01*
X101688162Y-59093838D02*
X104203500Y-56578500D01*
X101663500Y-59093838D02*
X101688162Y-59093838D01*
X90007181Y-72227403D02*
X105907039Y-56327545D01*
X90007181Y-73472519D02*
X90007181Y-72227403D01*
X105907039Y-56327545D02*
X106937045Y-56327545D01*
X86407801Y-72894295D02*
X92500096Y-66802000D01*
X86407801Y-73302607D02*
X86407801Y-72894295D01*
X86931266Y-73826072D02*
X86407801Y-73302607D01*
X92500096Y-66802000D02*
X92519500Y-66802000D01*
X106616500Y-52705000D02*
X106616500Y-52578000D01*
X92519500Y-66802000D02*
X106616500Y-52705000D01*
X86934544Y-80357126D02*
X86934544Y-80076545D01*
X83212089Y-81681823D02*
X85609846Y-81681823D01*
X85609846Y-81681823D02*
X86934544Y-80357126D01*
X82688625Y-82205287D02*
X83212089Y-81681823D01*
X101917500Y-119093330D02*
X101917500Y-120709081D01*
X94869000Y-88830685D02*
X93662500Y-90037185D01*
X93662500Y-110393830D02*
X94106989Y-110838319D01*
X94106989Y-110838319D02*
X94106989Y-111282819D01*
X101917500Y-120709081D02*
X96706081Y-125920500D01*
X96706081Y-125920500D02*
X95504000Y-125920500D01*
X94106989Y-111282819D02*
X101917500Y-119093330D01*
X94869000Y-88265000D02*
X94869000Y-88830685D01*
X93662500Y-90037185D02*
X93662500Y-110393830D01*
X98044000Y-120840500D02*
X98947500Y-120840500D01*
X95504000Y-123380500D02*
X98044000Y-120840500D01*
X99885500Y-120555700D02*
X99885500Y-117564239D01*
X93751378Y-111430117D02*
X93751378Y-110985617D01*
X98947500Y-120840500D02*
X99600700Y-120840500D01*
X93228889Y-110463128D02*
X93228889Y-89339702D01*
X93751378Y-110985617D02*
X93228889Y-110463128D01*
X93228889Y-89339702D02*
X93628888Y-88939703D01*
X99600700Y-120840500D02*
X99885500Y-120555700D01*
X99885500Y-117564239D02*
X93751378Y-111430117D01*
X85462341Y-81045839D02*
X85762340Y-80745840D01*
X83140967Y-81045839D02*
X85462341Y-81045839D01*
X82335072Y-81851734D02*
X83140967Y-81045839D01*
X96304000Y-120040500D02*
X98947500Y-120040500D01*
X95504000Y-120840500D02*
X96304000Y-120040500D01*
X93395767Y-111132915D02*
X92563990Y-110301138D01*
X93395767Y-111577415D02*
X93395767Y-111132915D01*
X92563990Y-110301138D02*
X92563990Y-92710000D01*
X98947500Y-117129148D02*
X93395767Y-111577415D01*
X98947500Y-120040500D02*
X98947500Y-117129148D01*
X83021058Y-80246510D02*
X83753750Y-80246510D01*
X81981519Y-81286049D02*
X83021058Y-80246510D01*
X81981519Y-81498181D02*
X81981519Y-81286049D01*
D36*
X86711150Y-84484850D02*
X92392500Y-78803500D01*
X86065916Y-84484850D02*
X86711150Y-84484850D01*
X85517052Y-85033714D02*
X86065916Y-84484850D01*
X115150913Y-65844735D02*
X118642928Y-65844735D01*
X118642928Y-65844735D02*
X120035624Y-64452039D01*
X120035624Y-63765391D02*
X127921016Y-55880000D01*
X101303148Y-79692500D02*
X115150913Y-65844735D01*
X127921016Y-55880000D02*
X140716000Y-55880000D01*
X120035624Y-64452039D02*
X120035624Y-63765391D01*
X100076000Y-79692500D02*
X101303148Y-79692500D01*
D33*
X85739752Y-78393988D02*
X86423500Y-79077736D01*
X85135222Y-78393988D02*
X85739752Y-78393988D01*
X83749286Y-77008052D02*
X85135222Y-78393988D01*
X86423500Y-79077736D02*
X86423500Y-79502000D01*
X74341883Y-78457275D02*
X73596500Y-79202658D01*
X75048989Y-78457275D02*
X74341883Y-78457275D01*
X74687068Y-80899012D02*
X78612988Y-80899012D01*
X73596500Y-79808444D02*
X74687068Y-80899012D01*
X73596500Y-79202658D02*
X73596500Y-79808444D01*
X78612988Y-80899012D02*
X79819500Y-79692500D01*
X79819500Y-79692500D02*
X82740500Y-79692500D01*
X83212090Y-78592178D02*
X82688625Y-78068713D01*
X83212090Y-79220910D02*
X83212090Y-78592178D01*
X82740500Y-79692500D02*
X83212090Y-79220910D01*
X83395732Y-77361606D02*
X84982116Y-78947990D01*
X84982116Y-78947990D02*
X85383733Y-78947990D01*
X76736726Y-77842989D02*
X78536021Y-77842989D01*
X78536021Y-77842989D02*
X80412005Y-75967005D01*
X78819522Y-76691978D02*
X80454500Y-75057000D01*
X77273451Y-76691978D02*
X78819522Y-76691978D01*
X85371597Y-77216151D02*
X84456392Y-76300946D01*
X86677500Y-77934736D02*
X85958915Y-77216151D01*
X85958915Y-77216151D02*
X85371597Y-77216151D01*
X86677500Y-78359000D02*
X86677500Y-77934736D01*
X119299002Y-64146922D02*
X118337811Y-65108113D01*
X114845797Y-65108113D02*
X101176033Y-78777877D01*
X94077852Y-81679764D02*
X94603375Y-82205287D01*
X119010922Y-63326998D02*
X119299002Y-63615078D01*
X118337811Y-65108113D02*
X114845797Y-65108113D01*
X119824500Y-62230000D02*
X119010922Y-63043578D01*
X101176033Y-78777877D02*
X96072634Y-78777877D01*
X119299002Y-63615078D02*
X119299002Y-64146922D01*
X119010922Y-63043578D02*
X119010922Y-63326998D01*
X94077852Y-80772659D02*
X94077852Y-81679764D01*
X96072634Y-78777877D02*
X94077852Y-80772659D01*
X94433463Y-81328269D02*
X94433463Y-80919957D01*
X101323331Y-79133488D02*
X114993095Y-65463724D01*
X114993095Y-65463724D02*
X118485109Y-65463724D01*
X118485109Y-65463724D02*
X119654613Y-64294220D01*
X94956928Y-81851734D02*
X94433463Y-81328269D01*
X119654613Y-64294220D02*
X119654613Y-63289475D01*
X94433463Y-80919957D02*
X96219934Y-79133488D01*
X96219934Y-79133488D02*
X101323331Y-79133488D01*
X119654613Y-63289475D02*
X119705463Y-63238625D01*
X101028735Y-78422266D02*
X114698499Y-64752502D01*
X114698499Y-64752502D02*
X117873498Y-64752502D01*
X96412170Y-78422266D02*
X101028735Y-78422266D01*
X94956928Y-78422266D02*
X95480393Y-77898801D01*
X95888705Y-77898801D02*
X96412170Y-78422266D01*
X95480393Y-77898801D02*
X95888705Y-77898801D01*
X117873498Y-64752502D02*
X118745000Y-63881000D01*
X97894044Y-72656722D02*
X99044264Y-72656722D01*
X93542714Y-77008052D02*
X97894044Y-72656722D01*
X99044264Y-72656722D02*
X100512790Y-71188196D01*
X96036003Y-77543190D02*
X96559470Y-78066657D01*
X96559470Y-78066657D02*
X100881436Y-78066657D01*
X95128898Y-77543190D02*
X96036003Y-77543190D01*
X94603375Y-78068713D02*
X95128898Y-77543190D01*
X114749593Y-64198500D02*
X117538500Y-64198500D01*
X100881436Y-78066657D02*
X114749593Y-64198500D01*
X99693650Y-70150010D02*
X100001848Y-70150010D01*
X93189161Y-76654499D02*
X99693650Y-70150010D01*
X111709145Y-64503355D02*
X115443000Y-60769500D01*
X103310031Y-64503355D02*
X111709145Y-64503355D01*
X100815735Y-67061152D02*
X101650853Y-66226034D01*
X100952333Y-69611207D02*
X100815735Y-69474609D01*
X101422403Y-70774976D02*
X100952333Y-70304906D01*
X99655875Y-73367944D02*
X101422403Y-71601416D01*
X100815735Y-69474609D02*
X100815735Y-67061152D01*
X101650853Y-66162533D02*
X103310031Y-64503355D01*
X101422403Y-71601416D02*
X101422403Y-70774976D01*
X101650853Y-66226034D02*
X101650853Y-66162533D01*
X100952333Y-70304906D02*
X100952333Y-69611207D01*
X98597036Y-73367944D02*
X99655875Y-73367944D01*
X94249821Y-77715159D02*
X98597036Y-73367944D01*
X100104513Y-69032041D02*
X100104513Y-66766556D01*
X103015436Y-63792133D02*
X109499367Y-63792133D01*
X92835608Y-76300946D02*
X100104513Y-69032041D01*
X100939631Y-65867938D02*
X103015436Y-63792133D01*
X100104513Y-66766556D02*
X100939631Y-65931438D01*
X100939631Y-65931438D02*
X100939631Y-65867938D01*
X109499367Y-63792133D02*
X111379000Y-61912500D01*
D36*
X124269500Y-60896500D02*
X124714000Y-60896500D01*
X117379500Y-67786500D02*
X124269500Y-60896500D01*
D33*
X101295242Y-66015235D02*
X103162733Y-64147744D01*
X100596722Y-70475672D02*
X100596722Y-69924960D01*
X100460124Y-66913854D02*
X101295242Y-66078736D01*
X110326714Y-64147744D02*
X118299474Y-56174984D01*
X100596722Y-69924960D02*
X100460124Y-69788362D01*
X101066792Y-70945742D02*
X100596722Y-70475672D01*
X98245541Y-73012333D02*
X99508577Y-73012333D01*
X103162733Y-64147744D02*
X110326714Y-64147744D01*
X99508577Y-73012333D02*
X101066792Y-71454118D01*
X101066792Y-71454118D02*
X101066792Y-70945742D01*
X93896268Y-77361606D02*
X98245541Y-73012333D01*
X101295242Y-66078736D02*
X101295242Y-66015235D01*
X100460124Y-69788362D02*
X100460124Y-66913854D01*
X103685776Y-62618885D02*
X108431630Y-62618885D01*
X100584020Y-65784140D02*
X100584020Y-65720641D01*
X99695020Y-68770480D02*
X99695020Y-66673140D01*
X92482054Y-75947392D02*
X92518108Y-75947392D01*
X92518108Y-75947392D02*
X99695020Y-68770480D01*
X99695020Y-66673140D02*
X100584020Y-65784140D01*
X100584020Y-65720641D02*
X103685776Y-62618885D01*
X91774948Y-75104536D02*
X97218500Y-69660984D01*
X91774948Y-75240286D02*
X91774948Y-75104536D01*
X97218500Y-68072000D02*
X99821999Y-65468501D01*
X99821999Y-65468501D02*
X99821999Y-65405002D01*
X97218500Y-69660984D02*
X97218500Y-68072000D01*
X99821999Y-65405002D02*
X103612118Y-61614883D01*
X103612118Y-61614883D02*
X109009617Y-61614883D01*
X109009617Y-61614883D02*
X113411000Y-57213500D01*
X113411000Y-57213500D02*
X114998500Y-57213500D01*
X114998500Y-57213500D02*
X116776500Y-55435500D01*
D36*
X117443000Y-58706000D02*
X117443000Y-60769500D01*
X119507000Y-56642000D02*
X117443000Y-58706000D01*
X94488000Y-111125000D02*
X94488000Y-98107500D01*
X112099229Y-128736229D02*
X94488000Y-111125000D01*
X113284000Y-151257000D02*
X112099229Y-150072229D01*
X128270000Y-151257000D02*
X113284000Y-151257000D01*
X112099229Y-150072229D02*
X112099229Y-128736229D01*
X129222500Y-150304500D02*
X128270000Y-151257000D01*
X129222500Y-149796500D02*
X129222500Y-150304500D01*
X85163499Y-84680161D02*
X82433445Y-87410215D01*
X82433445Y-87410215D02*
X82433445Y-96870761D01*
X82433445Y-96870761D02*
X82433445Y-97295025D01*
X90570000Y-108185000D02*
X89281000Y-109474000D01*
X90570000Y-101624500D02*
X90570000Y-108185000D01*
D33*
X91122500Y-101072000D02*
X91122500Y-96837500D01*
X90570000Y-101624500D02*
X91122500Y-101072000D01*
X86224159Y-85740821D02*
X84437510Y-87527470D01*
X84437510Y-87527470D02*
X84437510Y-89257589D01*
X89770000Y-103143000D02*
X87185500Y-105727500D01*
X89770000Y-101624500D02*
X89770000Y-103143000D01*
X85870606Y-85387268D02*
X83883500Y-87374374D01*
X83883500Y-87374374D02*
X83883500Y-92265500D01*
X83883500Y-92265500D02*
X83883500Y-99187000D01*
X89413500Y-101981000D02*
X89770000Y-101624500D01*
X88455500Y-101981000D02*
X89413500Y-101981000D01*
D36*
X85217000Y-87455088D02*
X86577713Y-86094375D01*
X85217000Y-104741500D02*
X85217000Y-87455088D01*
X85166274Y-82664225D02*
X84351009Y-82664225D01*
X89344500Y-76200000D02*
X89344500Y-78486000D01*
X89344500Y-78486000D02*
X85166274Y-82664225D01*
X84351009Y-82664225D02*
X83749286Y-83265948D01*
X143008089Y-54991000D02*
X128236768Y-69762321D01*
X145732500Y-54991000D02*
X143008089Y-54991000D01*
X94210848Y-73452125D02*
X99314009Y-68348964D01*
X115327956Y-57667534D02*
X115627955Y-57367535D01*
X110437436Y-61995894D02*
X114765796Y-57667534D01*
X103769937Y-61995894D02*
X110437436Y-61995894D01*
X100203009Y-65562822D02*
X103769937Y-61995894D01*
X100203009Y-65626321D02*
X100203009Y-65562822D01*
X114765796Y-57667534D02*
X115327956Y-57667534D01*
X99314009Y-66515321D02*
X100203009Y-65626321D01*
X99314009Y-68348964D02*
X99314009Y-66515321D01*
X105481174Y-58424230D02*
X105481174Y-59809326D01*
X109664500Y-54419500D02*
X106618635Y-57465365D01*
X106618635Y-57465365D02*
X106440039Y-57465365D01*
X106440039Y-57465365D02*
X105481174Y-58424230D01*
X111887000Y-54419500D02*
X109664500Y-54419500D01*
X84651704Y-83070636D02*
X85844936Y-83070636D01*
X85844936Y-83070636D02*
X90503311Y-78412261D01*
X90503311Y-78412261D02*
X90503311Y-76144401D01*
X90503311Y-76144401D02*
X89979500Y-75620590D01*
X84102839Y-83619501D02*
X84651704Y-83070636D01*
X143059366Y-61726836D02*
X142759367Y-62026835D01*
X138629654Y-62026835D02*
X130990105Y-69666384D01*
X142759367Y-62026835D02*
X138629654Y-62026835D01*
X105481174Y-59809326D02*
X103602342Y-59809326D01*
X92245597Y-71166071D02*
X92245597Y-71742193D01*
X103602342Y-59809326D02*
X92245597Y-71166071D01*
X92245597Y-71742193D02*
X91874300Y-72113490D01*
D33*
X85517052Y-75240286D02*
X84556611Y-74279845D01*
X84556611Y-74279845D02*
X84556611Y-73050389D01*
X84556611Y-73050389D02*
X92964000Y-64643000D01*
X90519388Y-66008112D02*
X90519388Y-66071612D01*
X93027500Y-63500000D02*
X90519388Y-66008112D01*
X85163499Y-75458091D02*
X85163499Y-75593839D01*
X84201001Y-72390000D02*
X84201003Y-74495595D01*
X84201003Y-74495595D02*
X85163499Y-75458091D01*
X90519388Y-66071612D02*
X84201001Y-72390000D01*
D36*
X95859346Y-82047046D02*
X95310481Y-81498181D01*
X95859346Y-82440480D02*
X95859346Y-82047046D01*
X94838567Y-83461259D02*
X95859346Y-82440480D01*
X94445133Y-83461259D02*
X94838567Y-83461259D01*
X93896268Y-82912394D02*
X94445133Y-83461259D01*
X87648017Y-84855115D02*
X90139602Y-82363530D01*
D33*
X91774948Y-85033714D02*
X91251483Y-84510249D01*
X91251483Y-84510249D02*
X91251483Y-84008517D01*
D36*
X93347404Y-82363530D02*
X93896268Y-82912394D01*
D33*
X91251483Y-84008517D02*
X91821000Y-83439000D01*
X92301554Y-83439000D02*
X92835608Y-83973054D01*
X91821000Y-83439000D02*
X92301554Y-83439000D01*
X92835608Y-83973054D02*
X92265500Y-83402946D01*
X92989890Y-82363530D02*
X93031530Y-82363530D01*
X92265500Y-83402946D02*
X92265500Y-83087920D01*
D36*
X93031530Y-82363530D02*
X93347404Y-82363530D01*
D33*
X92265500Y-83087920D02*
X92989890Y-82363530D01*
D36*
X90139602Y-82363530D02*
X93031530Y-82363530D01*
D33*
X94266800Y-79819500D02*
X95310481Y-78775819D01*
X93853000Y-79819500D02*
X94266800Y-79819500D01*
X81041000Y-109220000D02*
X81422000Y-108839000D01*
X83312000Y-113365700D02*
X83312000Y-112712500D01*
X83698501Y-113752201D02*
X83312000Y-113365700D01*
X83698501Y-114245203D02*
X83698501Y-113752201D01*
X84815799Y-115362501D02*
X83698501Y-114245203D01*
X85493199Y-115362501D02*
X84815799Y-115362501D01*
X85544000Y-115311700D02*
X85493199Y-115362501D01*
X85544000Y-114758500D02*
X85544000Y-115311700D01*
D36*
X143573500Y-62928500D02*
X138585505Y-62928500D01*
X138585505Y-62928500D02*
X131097282Y-70416723D01*
X131097282Y-70416723D02*
X130934289Y-70416723D01*
X103537682Y-61150489D02*
X96837489Y-67850682D01*
X107187021Y-60063326D02*
X106016475Y-61233872D01*
X96837489Y-69470637D02*
X91421394Y-74886732D01*
X106016475Y-61233872D02*
X105246393Y-61233872D01*
X108211674Y-60063326D02*
X107187021Y-60063326D01*
X105163010Y-61150489D02*
X103537682Y-61150489D01*
X105246393Y-61233872D02*
X105163010Y-61150489D01*
X96837489Y-67850682D02*
X96837489Y-69470637D01*
X108211674Y-60063326D02*
X110022344Y-60063326D01*
X110022344Y-60063326D02*
X114216406Y-55869264D01*
X114216406Y-55869264D02*
X114803974Y-55869264D01*
X87284819Y-86801481D02*
X87833684Y-86252616D01*
X87833684Y-86252616D02*
X87833684Y-85584816D01*
X87833684Y-85584816D02*
X90060575Y-83357925D01*
X90060575Y-83357925D02*
X91118586Y-83357925D01*
X98634794Y-83727857D02*
X98634794Y-83510355D01*
X110997837Y-71147312D02*
X128626939Y-71147312D01*
X98634794Y-83510355D02*
X110997837Y-71147312D01*
X95821500Y-87503000D02*
X96044016Y-87503000D01*
X96044016Y-87503000D02*
X98228383Y-85318633D01*
X98228383Y-84134267D02*
X98634794Y-83727857D01*
X128626939Y-71147312D02*
X138466572Y-61307679D01*
X138466572Y-61307679D02*
X142049500Y-61307679D01*
X98228383Y-85318633D02*
X98228383Y-84134267D01*
D37*
X144978174Y-62745674D02*
X144978174Y-62682174D01*
X143410913Y-60352913D02*
X144466666Y-61408666D01*
X145415000Y-62293500D02*
X144530166Y-61408666D01*
X144530166Y-61408666D02*
X144466666Y-61408666D01*
D33*
X151257000Y-141224000D02*
X151511000Y-140970000D01*
X151257000Y-142113000D02*
X151257000Y-141224000D01*
X151892000Y-140589000D02*
X151511000Y-140970000D01*
X153162000Y-140589000D02*
X151892000Y-140589000D01*
D36*
X109130801Y-57544795D02*
X110503795Y-57544795D01*
X105848135Y-60827461D02*
X109130801Y-57544795D01*
X105414733Y-60827461D02*
X105848135Y-60827461D01*
X105331350Y-60744078D02*
X105414733Y-60827461D01*
X103369342Y-60744078D02*
X105331350Y-60744078D01*
X96431078Y-69206341D02*
X96431078Y-67682342D01*
X91067841Y-74533179D02*
X91104240Y-74533179D01*
X91104240Y-74533179D02*
X96431078Y-69206341D01*
X96431078Y-67682342D02*
X103369342Y-60744078D01*
X85358811Y-83777743D02*
X84809946Y-84326608D01*
X86275257Y-83777743D02*
X85358811Y-83777743D01*
X89598500Y-80454500D02*
X86275257Y-83777743D01*
X98228383Y-83342015D02*
X98228383Y-83559517D01*
X141541500Y-60706000D02*
X138112500Y-60706000D01*
X138112500Y-60706000D02*
X128077599Y-70740901D01*
X97155000Y-84632900D02*
X97155000Y-85534500D01*
X110829497Y-70740901D02*
X98228383Y-83342015D01*
X98228383Y-83559517D02*
X97155000Y-84632900D01*
X128077599Y-70740901D02*
X110829497Y-70740901D01*
D33*
X87144000Y-114758500D02*
X87144000Y-115465000D01*
D36*
X87144000Y-115465000D02*
X87503000Y-115824000D01*
D37*
X87503000Y-115824000D02*
X88201500Y-116522500D01*
D34*
X88201500Y-116522500D02*
X88455500Y-116776500D01*
D35*
X88455500Y-116776500D02*
X88773000Y-117094000D01*
D38*
X89217500Y-117538500D02*
X89217500Y-120078500D01*
X88773000Y-117094000D02*
X89217500Y-117538500D01*
D36*
X83309910Y-110418590D02*
X84582485Y-110418590D01*
X82362000Y-110712500D02*
X83016000Y-110712500D01*
X83016000Y-110712500D02*
X83309910Y-110418590D01*
D33*
X87144000Y-111808500D02*
X87144000Y-111223910D01*
X87144000Y-111223910D02*
X87531705Y-110836205D01*
D36*
X81412000Y-108849000D02*
X81422000Y-108839000D01*
X81412000Y-112712500D02*
X81412000Y-108849000D01*
X81412000Y-112008500D02*
X81978599Y-111441901D01*
X81412000Y-112712500D02*
X81412000Y-112008500D01*
X81978599Y-111441901D02*
X83122099Y-111441901D01*
X83566000Y-110998000D02*
X83947000Y-110998000D01*
X83122099Y-111441901D02*
X83566000Y-110998000D01*
D33*
X79018033Y-75540967D02*
X77810176Y-75540967D01*
X80645000Y-73914000D02*
X79018033Y-75540967D01*
X84102839Y-76654499D02*
X85218492Y-77770152D01*
X85218492Y-77770152D02*
X85475142Y-77770152D01*
X76659165Y-73327835D02*
X76659165Y-75004242D01*
X78549500Y-71437500D02*
X76659165Y-73327835D01*
M02*
