M48
; DRILL file {KiCad (5.1.5)-3} date 10/13/2020 10:13:06 PM
; FORMAT={-:-/ absolute / inch / decimal}
; #@! TF.CreationDate,2020-10-13T22:13:06-07:00
; #@! TF.GenerationSoftware,Kicad,Pcbnew,(5.1.5)-3
; #@! TF.FileFunction,Plated,1,4,PTH
FMAT,2
INCH
T1C0.0118
T2C0.0157
T3C0.0200
T4C0.0276
T5C0.0315
T6C0.0394
T7C0.0398
T8C0.0472
%
G90
G05
T1
X3.1225Y-4.32
X3.1475Y-2.815
X3.1525Y-4.3425
X3.158Y-3.446
X3.1775Y-2.695
X3.245Y-2.7325
X3.285Y-4.6775
X3.2875Y-4.385
X3.2925Y-2.6272
X3.305Y-4.2325
X3.31Y-2.725
X3.3145Y-4.548
X3.3225Y-3.0547
X3.3225Y-4.465
X3.3325Y-2.745
X3.3375Y-4.3529
X3.3475Y-3.6225
X3.3575Y-2.78
X3.375Y-3.025
X3.375Y-4.4575
X3.3925Y-2.7925
X3.4Y-3.0781
X3.4075Y-2.9375
X3.42Y-2.65
X3.425Y-4.46
X3.435Y-2.9603
X3.445Y-4.3625
X3.455Y-2.6475
X3.455Y-4.6325
X3.4725Y-3.62
X3.4738Y-2.9588
X3.4875Y-4.485
X3.515Y-3.0049
X3.5269Y-2.7374
X3.5325Y-3.12
X3.5497Y-2.6406
X3.55Y-2.98
X3.5519Y-2.7533
X3.5697Y-2.6925
X3.57Y-3.2075
X3.575Y-4.3225
X3.5761Y-2.514
X3.5825Y-3.0049
X3.59Y-2.62
X3.59Y-4.6025
X3.5925Y-3.4011
X3.5975Y-2.76
X3.6Y-2.8075
X3.6Y-3.43
X3.655Y-3.3575
X3.6605Y-2.9205
X3.6951Y-2.7351
X3.705Y-2.8525
X3.735Y-2.6075
X3.74Y-2.7925
X3.7787Y-2.635
X3.8662Y-2.6375
X3.8694Y-2.675
X3.885Y-3.1725
X3.8875Y-2.8075
X3.8875Y-2.85
X3.89Y-2.77
X3.8922Y-2.715
X3.8922Y-2.885
X3.8922Y-2.9225
X3.8928Y-2.9975
X3.9038Y-2.97
X3.9275Y-3.1875
X3.936Y-3.2159
X3.955Y-2.4475
X3.9574Y-3.0703
X3.9607Y-3.0408
X3.9801Y-3.0178
X4.0275Y-3.07
X4.04Y-2.015
X4.07Y-2.9975
X4.1025Y-2.47
X4.2561Y-2.2475
X4.2712Y-2.8937
X4.3214Y-2.2089
X4.345Y-2.12
X4.3672Y-2.04
X4.4005Y-2.2373
X4.435Y-2.1275
X4.45Y-2.09
X4.4625Y-2.2075
X4.4925Y-2.175
X4.5825Y-1.905
X4.59Y-5.175
X4.6098Y-2.0351
X4.6175Y-2.2475
X4.655Y-5.175
X4.6625Y-2.06
X4.67Y-2.2775
X4.6725Y-1.87
X4.685Y-5.605
X4.6925Y-5.6675
X4.695Y-5.8375
X4.72Y-5.5625
X4.7525Y-5.7875
X4.7707Y-2.2793
X4.78Y-5.7575
X4.8Y-5.305
X4.8225Y-5.1325
X4.83Y-5.9275
X4.862Y-2.6863
X4.8625Y-2.7425
X4.8725Y-5.8075
X4.8728Y-2.7139
X4.92Y-5.1275
X4.92Y-5.8875
X4.9225Y-2.7822
X4.965Y-2.085
X4.995Y-2.4675
X5.05Y-5.5725
X5.0625Y-5.6275
X5.065Y-5.6825
X5.07Y-2.175
X5.0925Y-5.17
X5.145Y-2.17
X5.1525Y-5.17
X5.2625Y-5.6525
X5.34Y-2.4175
X5.98Y-2.2125
X6.0675Y-2.365
X4.945Y-2.2042
X4.945Y-2.2475
X4.945Y-2.2908
X4.945Y-2.3341
X4.945Y-2.3774
X4.9883Y-2.2042
X4.9883Y-2.2475
X4.9883Y-2.2908
X4.9883Y-2.3341
X4.9883Y-2.3774
X5.0316Y-2.2042
X5.0316Y-2.2475
X5.0316Y-2.2908
X5.0316Y-2.3341
X5.0316Y-2.3774
T2
X2.84Y-3.485
X2.9325Y-3.3475
X3.0825Y-3.1025
X3.155Y-3.305
X3.2175Y-2.8475
X3.23Y-3.9925
X3.2825Y-3.45
X3.2875Y-2.97
X3.3225Y-2.9975
X3.325Y-3.8275
X3.38Y-3.2625
X3.3975Y-4.0775
X3.4135Y-3.1757
X3.455Y-3.1243
X3.4675Y-3.4075
X3.49Y-3.15
X3.5175Y-4.0725
X3.5275Y-3.7525
X3.54Y-3.805
X3.5775Y-4.2025
X3.64Y-3.405
X3.6825Y-3.8425
X3.7475Y-4.3075
X3.8225Y-2.245
X3.86Y-2.205
X3.8925Y-2.185
X4.5375Y-1.9131
X4.5625Y-5.2975
X4.6025Y-5.7875
X4.66Y-2.125
X4.665Y-2.0
X4.7196Y-2.2902
X4.728Y-2.3602
X4.7365Y-2.3237
X4.785Y-1.9867
X4.8117Y-2.355
X4.8573Y-2.0127
X4.89Y-1.9273
X4.9375Y-2.1483
X5.12Y-5.3525
X5.1675Y-5.835
X5.19Y-2.375
X5.19Y-2.42
X5.2425Y-5.385
X5.2525Y-5.52
X5.38Y-2.34
X5.455Y-5.56
X5.5375Y-5.56
X5.65Y-5.56
X5.8625Y-5.66
X5.885Y-5.395
X5.955Y-5.595
X6.0275Y-5.27
X6.125Y-5.4525
T3
X3.0225Y-4.235
X3.275Y-3.9325
T4
X3.5631Y-2.3149
X3.5918Y-2.3558
X3.604Y-2.2862
X3.6327Y-2.3271
X3.645Y-2.2575
X3.6737Y-2.2985
X3.686Y-2.2288
X3.7146Y-2.2698
X3.7269Y-2.2001
X3.7556Y-2.2411
T5
X5.7981Y-2.2057
X5.8375Y-2.1375
X5.8663Y-2.2451
X5.9057Y-2.1769
X5.5342Y-2.0814
X5.5675Y-2.01
X5.6056Y-2.1146
X5.6389Y-2.0433
X4.29Y-1.925
X4.3104Y-2.0011
X4.3661Y-1.9046
X4.3864Y-1.9807
X5.3724Y-2.24
X5.4057Y-2.1686
X5.4438Y-2.2733
X5.477Y-2.2019
X5.5151Y-2.3065
X5.5484Y-2.2352
X5.5865Y-2.3398
X5.6198Y-2.2684
X5.6579Y-2.3731
X5.6911Y-2.3017
X5.7292Y-2.4064
X5.7625Y-2.335
T6
X3.09Y-2.375
X2.921Y-4.477
X3.032Y-4.4366
X4.35Y-6.19
X6.3575Y-5.095
X5.9444Y-2.5694
X5.9444Y-2.6875
X6.0625Y-2.5694
X6.0625Y-2.6875
X5.1775Y-1.635
X3.533Y-5.361
X3.6089Y-5.2705
X4.1175Y-6.1175
X5.9925Y-5.8575
X5.7625Y-5.975
X3.773Y-5.593
X3.9Y-5.448
X4.83Y-1.8525
X4.9285Y-1.8699
X5.027Y-1.8872
X5.1254Y-1.9046
X5.2239Y-1.922
X5.3224Y-1.9393
X3.6368Y-4.8743
X3.7075Y-4.8036
X3.7075Y-4.945
X3.7782Y-4.7329
X3.7782Y-4.8743
X3.8489Y-4.6622
X3.8489Y-4.8036
X3.9196Y-4.7329
X5.0875Y-5.8975
X6.1225Y-5.1025
X5.3975Y-1.685
X3.4677Y-1.9359
X3.5177Y-2.0225
X3.5543Y-1.8859
X3.6043Y-1.9725
X3.6409Y-1.8359
X3.6909Y-1.9225
X3.7275Y-1.7859
X3.7775Y-1.8725
X5.02Y-2.5819
X5.02Y-2.7
X3.91Y-6.035
X4.4825Y-1.6275
X4.54Y-5.0375
X2.5826Y-3.0471
X2.6248Y-2.9565
X2.6671Y-2.8659
X2.6732Y-3.0894
X2.7094Y-2.7752
X2.7155Y-2.9988
X2.7577Y-2.9081
X2.8Y-2.8175
X2.911Y-3.2175
X2.9532Y-3.1269
X2.9955Y-3.0363
X3.0377Y-2.9456
X3.08Y-2.855
X3.7181Y-2.5399
X3.8Y-2.4825
X3.8819Y-2.4251
X3.9638Y-2.3678
X4.0457Y-2.3104
X4.1277Y-2.2531
X4.7025Y-1.6075
X4.9175Y-3.0125
X6.2825Y-2.0925
X4.292Y-5.793
X4.3226Y-5.6789
X4.49Y-2.635
X4.49Y-2.735
X4.59Y-2.635
X4.59Y-2.735
X4.69Y-2.635
X4.69Y-2.735
X4.79Y-2.635
X4.79Y-2.735
X6.0125Y-1.94
X3.068Y-4.798
X3.1703Y-4.7389
X3.9875Y-1.7425
X2.9925Y-2.535
X3.258Y-5.101
X3.3485Y-5.0251
X5.8675Y-5.105
X5.0725Y-3.015
T7
X3.0703Y-3.432
X3.1175Y-3.2312
X6.2975Y-2.505
X6.3395Y-2.7069
T8
X3.5125Y-2.5275
X3.5125Y-4.7275
X4.575Y-2.1525
X4.575Y-2.3494
T0
M30
