G04 #@! TF.GenerationSoftware,KiCad,Pcbnew,(5.1.7)-1*
G04 #@! TF.CreationDate,2021-09-30T08:59:25-07:00*
G04 #@! TF.ProjectId,LCP_PowerControl,4c43505f-506f-4776-9572-436f6e74726f,rev?*
G04 #@! TF.SameCoordinates,Original*
G04 #@! TF.FileFunction,Profile,NP*
%FSLAX46Y46*%
G04 Gerber Fmt 4.6, Leading zero omitted, Abs format (unit mm)*
G04 Created by KiCad (PCBNEW (5.1.7)-1) date 2021-09-30 08:59:25*
%MOMM*%
%LPD*%
G01*
G04 APERTURE LIST*
G04 #@! TA.AperFunction,Profile*
%ADD10C,0.250000*%
G04 #@! TD*
G04 #@! TA.AperFunction,Profile*
%ADD11C,0.100000*%
G04 #@! TD*
G04 APERTURE END LIST*
D10*
X136097847Y-68996313D02*
X136097801Y-69278362D01*
X165840565Y-129854016D02*
G75*
G02*
X152506524Y-142997670I-43730066J31028079D01*
G01*
D11*
X152506524Y-142997670D02*
G75*
G02*
X115696101Y-152060473I-30396025J44171733D01*
G01*
X115696101Y-152060473D02*
G75*
G02*
X69715431Y-110219669I6414398J53234536D01*
G01*
D10*
X69714456Y-87431992D02*
G75*
G02*
X70802500Y-83248500I52396043J-11393945D01*
G01*
X70803457Y-83248790D02*
G75*
G02*
X77233835Y-69480663I51307042J-15577147D01*
G01*
D11*
X77233836Y-69480663D02*
G75*
G02*
X89161369Y-56524461I44876663J-29345274D01*
G01*
X89161369Y-56524460D02*
G75*
G02*
X111635297Y-46239530I32949130J-42301477D01*
G01*
X111635297Y-46239530D02*
G75*
G02*
X128398962Y-45576380I10475202J-52586407D01*
G01*
X128398962Y-45576380D02*
G75*
G02*
X147519422Y-51608920I-6288463J-53249557D01*
G01*
X147519422Y-51608920D02*
G75*
G02*
X165863453Y-67830145I-25408923J-47217017D01*
G01*
D10*
X121666000Y-71818500D02*
X133477000Y-71818500D01*
X69715430Y-110219670D02*
G75*
G02*
X70617743Y-107690918I2481994J539730D01*
G01*
X136097801Y-69278362D02*
G75*
G02*
X133477000Y-71818500I-2521922J-20075D01*
G01*
X79052298Y-90946987D02*
G75*
G02*
X81529710Y-93991751I858766J-1831525D01*
G01*
X145570118Y-71838437D02*
X163790844Y-71838437D01*
X165863455Y-67830143D02*
G75*
G02*
X163790844Y-71838438I-2072611J-1468294D01*
G01*
X143047880Y-128653294D02*
G75*
G02*
X136097846Y-128655561I-3474881J-418580D01*
G01*
X133575879Y-125813438D02*
G75*
G02*
X136097846Y-128655561I0J-2539999D01*
G01*
X81529709Y-103660122D02*
G75*
G02*
X79052299Y-106704887I-1618645J-1213240D01*
G01*
X122110499Y-125837032D02*
G75*
G02*
X121666000Y-71818500I0J27011095D01*
G01*
X81529711Y-103660124D02*
G75*
G02*
X81529710Y-93991751I6449539J4834187D01*
G01*
X133575879Y-125813437D02*
X122110499Y-125837032D01*
X70617743Y-107690918D02*
G75*
G02*
X79052299Y-106704887I5012779J-6311734D01*
G01*
X163790843Y-125813143D02*
G75*
G02*
X165840565Y-129854016I1J-2540294D01*
G01*
X79052299Y-90946987D02*
G75*
G02*
X70617743Y-89960956I-3421777J7297765D01*
G01*
X145570118Y-71838436D02*
G75*
G02*
X143048151Y-68996313I0J2539999D01*
G01*
X136097847Y-68996313D02*
G75*
G02*
X143048151Y-68996313I3475152J416313D01*
G01*
X163790844Y-125813437D02*
X145570118Y-125813437D01*
X143048149Y-128655561D02*
G75*
G02*
X145570118Y-125813436I2521969J302124D01*
G01*
X70617743Y-89960956D02*
G75*
G02*
X69715431Y-87432204I1579681J1989022D01*
G01*
M02*
