G04 #@! TF.GenerationSoftware,KiCad,Pcbnew,(5.1.7)-1*
G04 #@! TF.CreationDate,2021-03-09T09:38:03-08:00*
G04 #@! TF.ProjectId,LCP_PowerControl,4c43505f-506f-4776-9572-436f6e74726f,rev?*
G04 #@! TF.SameCoordinates,Original*
G04 #@! TF.FileFunction,Soldermask,Bot*
G04 #@! TF.FilePolarity,Negative*
%FSLAX46Y46*%
G04 Gerber Fmt 4.6, Leading zero omitted, Abs format (unit mm)*
G04 Created by KiCad (PCBNEW (5.1.7)-1) date 2021-03-09 09:38:03*
%MOMM*%
%LPD*%
G01*
G04 APERTURE LIST*
%ADD10C,0.100000*%
%ADD11C,1.500000*%
%ADD12C,1.000000*%
%ADD13O,2.400000X2.400000*%
%ADD14C,2.400000*%
%ADD15R,2.400000X2.400000*%
%ADD16C,7.112000*%
%ADD17R,2.350000X1.780000*%
%ADD18R,0.250000X0.700000*%
%ADD19C,2.000000*%
%ADD20R,0.900000X0.400000*%
%ADD21R,0.400000X0.900000*%
%ADD22R,0.900000X0.800000*%
%ADD23R,0.800000X0.900000*%
%ADD24C,2.010000*%
%ADD25R,1.000000X1.000000*%
G04 APERTURE END LIST*
G36*
G01*
X91935154Y-126521964D02*
X91935154Y-126521964D01*
G75*
G02*
X93137236Y-126521964I601041J-601041D01*
G01*
X93137236Y-126521964D01*
G75*
G02*
X93137236Y-127724046I-601041J-601041D01*
G01*
X93137236Y-127724046D01*
G75*
G02*
X91935154Y-127724046I-601041J601041D01*
G01*
X91935154Y-127724046D01*
G75*
G02*
X91935154Y-126521964I601041J601041D01*
G01*
G37*
G36*
G01*
X93731205Y-124725913D02*
X93731205Y-124725913D01*
G75*
G02*
X94933287Y-124725913I601041J-601041D01*
G01*
X94933287Y-124725913D01*
G75*
G02*
X94933287Y-125927995I-601041J-601041D01*
G01*
X94933287Y-125927995D01*
G75*
G02*
X93731205Y-125927995I-601041J601041D01*
G01*
X93731205Y-125927995D01*
G75*
G02*
X93731205Y-124725913I601041J601041D01*
G01*
G37*
G36*
G01*
X95527257Y-122929861D02*
X95527257Y-122929861D01*
G75*
G02*
X96729339Y-122929861I601041J-601041D01*
G01*
X96729339Y-122929861D01*
G75*
G02*
X96729339Y-124131943I-601041J-601041D01*
G01*
X96729339Y-124131943D01*
G75*
G02*
X95527257Y-124131943I-601041J601041D01*
G01*
X95527257Y-124131943D01*
G75*
G02*
X95527257Y-122929861I601041J601041D01*
G01*
G37*
G36*
G01*
X97323308Y-121133810D02*
X97323308Y-121133810D01*
G75*
G02*
X98525390Y-121133810I601041J-601041D01*
G01*
X98525390Y-121133810D01*
G75*
G02*
X98525390Y-122335892I-601041J-601041D01*
G01*
X98525390Y-122335892D01*
G75*
G02*
X97323308Y-122335892I-601041J601041D01*
G01*
X97323308Y-122335892D01*
G75*
G02*
X97323308Y-121133810I601041J601041D01*
G01*
G37*
D10*
G36*
X98518318Y-119938800D02*
G01*
X99720400Y-118736718D01*
X100922482Y-119938800D01*
X99720400Y-121140882D01*
X98518318Y-119938800D01*
G37*
D11*
X122430800Y-51768000D03*
X119430800Y-51768000D03*
X122430800Y-48768000D03*
G36*
G01*
X118680800Y-49268000D02*
X118680800Y-48268000D01*
G75*
G02*
X118930800Y-48018000I250000J0D01*
G01*
X119930800Y-48018000D01*
G75*
G02*
X120180800Y-48268000I0J-250000D01*
G01*
X120180800Y-49268000D01*
G75*
G02*
X119930800Y-49518000I-250000J0D01*
G01*
X118930800Y-49518000D01*
G75*
G02*
X118680800Y-49268000I0J250000D01*
G01*
G37*
D12*
X125430800Y-52708000D03*
X116430800Y-52708000D03*
G36*
G01*
X75210121Y-79933702D02*
X75210121Y-79933702D01*
G75*
G02*
X75874584Y-79691857I453154J-211309D01*
G01*
X75874584Y-79691857D01*
G75*
G02*
X76116429Y-80356320I-211309J-453154D01*
G01*
X76116429Y-80356320D01*
G75*
G02*
X75451966Y-80598165I-453154J211309D01*
G01*
X75451966Y-80598165D01*
G75*
G02*
X75210121Y-79933702I211309J453154D01*
G01*
G37*
G36*
G01*
X74059110Y-79396977D02*
X74059110Y-79396977D01*
G75*
G02*
X74723573Y-79155132I453154J-211309D01*
G01*
X74723573Y-79155132D01*
G75*
G02*
X74965418Y-79819595I-211309J-453154D01*
G01*
X74965418Y-79819595D01*
G75*
G02*
X74300955Y-80061440I-453154J211309D01*
G01*
X74300955Y-80061440D01*
G75*
G02*
X74059110Y-79396977I211309J453154D01*
G01*
G37*
G36*
G01*
X75746846Y-78782691D02*
X75746846Y-78782691D01*
G75*
G02*
X76411309Y-78540846I453154J-211309D01*
G01*
X76411309Y-78540846D01*
G75*
G02*
X76653154Y-79205309I-211309J-453154D01*
G01*
X76653154Y-79205309D01*
G75*
G02*
X75988691Y-79447154I-453154J211309D01*
G01*
X75988691Y-79447154D01*
G75*
G02*
X75746846Y-78782691I211309J453154D01*
G01*
G37*
G36*
G01*
X74595835Y-78245966D02*
X74595835Y-78245966D01*
G75*
G02*
X75260298Y-78004121I453154J-211309D01*
G01*
X75260298Y-78004121D01*
G75*
G02*
X75502143Y-78668584I-211309J-453154D01*
G01*
X75502143Y-78668584D01*
G75*
G02*
X74837680Y-78910429I-453154J211309D01*
G01*
X74837680Y-78910429D01*
G75*
G02*
X74595835Y-78245966I211309J453154D01*
G01*
G37*
G36*
G01*
X76283572Y-77631680D02*
X76283572Y-77631680D01*
G75*
G02*
X76948035Y-77389835I453154J-211309D01*
G01*
X76948035Y-77389835D01*
G75*
G02*
X77189880Y-78054298I-211309J-453154D01*
G01*
X77189880Y-78054298D01*
G75*
G02*
X76525417Y-78296143I-453154J211309D01*
G01*
X76525417Y-78296143D01*
G75*
G02*
X76283572Y-77631680I211309J453154D01*
G01*
G37*
G36*
G01*
X75132561Y-77094955D02*
X75132561Y-77094955D01*
G75*
G02*
X75797024Y-76853110I453154J-211309D01*
G01*
X75797024Y-76853110D01*
G75*
G02*
X76038869Y-77517573I-211309J-453154D01*
G01*
X76038869Y-77517573D01*
G75*
G02*
X75374406Y-77759418I-453154J211309D01*
G01*
X75374406Y-77759418D01*
G75*
G02*
X75132561Y-77094955I211309J453154D01*
G01*
G37*
G36*
G01*
X76820297Y-76480669D02*
X76820297Y-76480669D01*
G75*
G02*
X77484760Y-76238824I453154J-211309D01*
G01*
X77484760Y-76238824D01*
G75*
G02*
X77726605Y-76903287I-211309J-453154D01*
G01*
X77726605Y-76903287D01*
G75*
G02*
X77062142Y-77145132I-453154J211309D01*
G01*
X77062142Y-77145132D01*
G75*
G02*
X76820297Y-76480669I211309J453154D01*
G01*
G37*
G36*
G01*
X75669286Y-75943944D02*
X75669286Y-75943944D01*
G75*
G02*
X76333749Y-75702099I453154J-211309D01*
G01*
X76333749Y-75702099D01*
G75*
G02*
X76575594Y-76366562I-211309J-453154D01*
G01*
X76575594Y-76366562D01*
G75*
G02*
X75911131Y-76608407I-453154J211309D01*
G01*
X75911131Y-76608407D01*
G75*
G02*
X75669286Y-75943944I211309J453154D01*
G01*
G37*
G36*
G01*
X77357022Y-75329658D02*
X77357022Y-75329658D01*
G75*
G02*
X78021485Y-75087813I453154J-211309D01*
G01*
X78021485Y-75087813D01*
G75*
G02*
X78263330Y-75752276I-211309J-453154D01*
G01*
X78263330Y-75752276D01*
G75*
G02*
X77598867Y-75994121I-453154J211309D01*
G01*
X77598867Y-75994121D01*
G75*
G02*
X77357022Y-75329658I211309J453154D01*
G01*
G37*
D10*
G36*
X75994702Y-75246087D02*
G01*
X76417320Y-74339779D01*
X77323628Y-74762397D01*
X76901010Y-75668705D01*
X75994702Y-75246087D01*
G37*
G36*
G01*
X147329500Y-53074250D02*
X147329500Y-53986750D01*
G75*
G02*
X147085750Y-54230500I-243750J0D01*
G01*
X146598250Y-54230500D01*
G75*
G02*
X146354500Y-53986750I0J243750D01*
G01*
X146354500Y-53074250D01*
G75*
G02*
X146598250Y-52830500I243750J0D01*
G01*
X147085750Y-52830500D01*
G75*
G02*
X147329500Y-53074250I0J-243750D01*
G01*
G37*
G36*
G01*
X149204500Y-53074250D02*
X149204500Y-53986750D01*
G75*
G02*
X148960750Y-54230500I-243750J0D01*
G01*
X148473250Y-54230500D01*
G75*
G02*
X148229500Y-53986750I0J243750D01*
G01*
X148229500Y-53074250D01*
G75*
G02*
X148473250Y-52830500I243750J0D01*
G01*
X148960750Y-52830500D01*
G75*
G02*
X149204500Y-53074250I0J-243750D01*
G01*
G37*
D13*
X89217500Y-120078500D03*
D14*
X89217500Y-64198500D03*
G36*
G01*
X86284750Y-118257500D02*
X87197250Y-118257500D01*
G75*
G02*
X87441000Y-118501250I0J-243750D01*
G01*
X87441000Y-118988750D01*
G75*
G02*
X87197250Y-119232500I-243750J0D01*
G01*
X86284750Y-119232500D01*
G75*
G02*
X86041000Y-118988750I0J243750D01*
G01*
X86041000Y-118501250D01*
G75*
G02*
X86284750Y-118257500I243750J0D01*
G01*
G37*
G36*
G01*
X86284750Y-116382500D02*
X87197250Y-116382500D01*
G75*
G02*
X87441000Y-116626250I0J-243750D01*
G01*
X87441000Y-117113750D01*
G75*
G02*
X87197250Y-117357500I-243750J0D01*
G01*
X86284750Y-117357500D01*
G75*
G02*
X86041000Y-117113750I0J243750D01*
G01*
X86041000Y-116626250D01*
G75*
G02*
X86284750Y-116382500I243750J0D01*
G01*
G37*
D15*
X131347200Y-53848000D03*
D14*
X136347200Y-53848000D03*
G36*
G01*
X99230387Y-52109717D02*
X99230387Y-52109717D01*
G75*
G02*
X100319843Y-52617739I290717J-798739D01*
G01*
X100319843Y-52617739D01*
G75*
G02*
X99811821Y-53707195I-798739J-290717D01*
G01*
X99811821Y-53707195D01*
G75*
G02*
X98722365Y-53199173I-290717J798739D01*
G01*
X98722365Y-53199173D01*
G75*
G02*
X99230387Y-52109717I798739J290717D01*
G01*
G37*
G36*
G01*
X101617206Y-51240986D02*
X101617206Y-51240986D01*
G75*
G02*
X102706662Y-51749008I290717J-798739D01*
G01*
X102706662Y-51749008D01*
G75*
G02*
X102198640Y-52838464I-798739J-290717D01*
G01*
X102198640Y-52838464D01*
G75*
G02*
X101109184Y-52330442I-290717J798739D01*
G01*
X101109184Y-52330442D01*
G75*
G02*
X101617206Y-51240986I798739J290717D01*
G01*
G37*
G36*
G01*
X104004025Y-50372254D02*
X104004025Y-50372254D01*
G75*
G02*
X105093481Y-50880276I290717J-798739D01*
G01*
X105093481Y-50880276D01*
G75*
G02*
X104585459Y-51969732I-798739J-290717D01*
G01*
X104585459Y-51969732D01*
G75*
G02*
X103496003Y-51461710I-290717J798739D01*
G01*
X103496003Y-51461710D01*
G75*
G02*
X104004025Y-50372254I798739J290717D01*
G01*
G37*
G36*
G01*
X106390844Y-49503523D02*
X106390844Y-49503523D01*
G75*
G02*
X107480300Y-50011545I290717J-798739D01*
G01*
X107480300Y-50011545D01*
G75*
G02*
X106972278Y-51101001I-798739J-290717D01*
G01*
X106972278Y-51101001D01*
G75*
G02*
X105882822Y-50592979I-290717J798739D01*
G01*
X105882822Y-50592979D01*
G75*
G02*
X106390844Y-49503523I798739J290717D01*
G01*
G37*
G36*
G01*
X108777664Y-48634792D02*
X108777664Y-48634792D01*
G75*
G02*
X109867120Y-49142814I290717J-798739D01*
G01*
X109867120Y-49142814D01*
G75*
G02*
X109359098Y-50232270I-798739J-290717D01*
G01*
X109359098Y-50232270D01*
G75*
G02*
X108269642Y-49724248I-290717J798739D01*
G01*
X108269642Y-49724248D01*
G75*
G02*
X108777664Y-48634792I798739J290717D01*
G01*
G37*
D10*
G36*
X110365744Y-48056778D02*
G01*
X111963222Y-47475344D01*
X112544656Y-49072822D01*
X110947178Y-49654256D01*
X110365744Y-48056778D01*
G37*
D11*
X153162000Y-65389500D03*
G36*
G01*
X153912000Y-67889500D02*
X153912000Y-68889500D01*
G75*
G02*
X153662000Y-69139500I-250000J0D01*
G01*
X152662000Y-69139500D01*
G75*
G02*
X152412000Y-68889500I0J250000D01*
G01*
X152412000Y-67889500D01*
G75*
G02*
X152662000Y-67639500I250000J0D01*
G01*
X153662000Y-67639500D01*
G75*
G02*
X153912000Y-67889500I0J-250000D01*
G01*
G37*
D12*
X150162000Y-64449500D03*
X156162000Y-64449500D03*
D10*
G36*
X94835040Y-84613168D02*
G01*
X96107832Y-85885960D01*
X95400726Y-86593066D01*
X94127934Y-85320274D01*
X94835040Y-84613168D01*
G37*
G36*
X93067274Y-86380934D02*
G01*
X94340066Y-87653726D01*
X93632960Y-88360832D01*
X92360168Y-87088040D01*
X93067274Y-86380934D01*
G37*
G36*
G01*
X153418250Y-139451500D02*
X152905750Y-139451500D01*
G75*
G02*
X152687000Y-139232750I0J218750D01*
G01*
X152687000Y-138795250D01*
G75*
G02*
X152905750Y-138576500I218750J0D01*
G01*
X153418250Y-138576500D01*
G75*
G02*
X153637000Y-138795250I0J-218750D01*
G01*
X153637000Y-139232750D01*
G75*
G02*
X153418250Y-139451500I-218750J0D01*
G01*
G37*
G36*
G01*
X153418250Y-141026500D02*
X152905750Y-141026500D01*
G75*
G02*
X152687000Y-140807750I0J218750D01*
G01*
X152687000Y-140370250D01*
G75*
G02*
X152905750Y-140151500I218750J0D01*
G01*
X153418250Y-140151500D01*
G75*
G02*
X153637000Y-140370250I0J-218750D01*
G01*
X153637000Y-140807750D01*
G75*
G02*
X153418250Y-141026500I-218750J0D01*
G01*
G37*
D16*
X139572999Y-129071874D03*
X139572999Y-68580000D03*
X104648000Y-68580000D03*
X104648000Y-129071874D03*
G36*
G01*
X90396090Y-87402522D02*
X89406140Y-86412572D01*
G75*
G02*
X89406140Y-86306506I53033J53033D01*
G01*
X89512206Y-86200440D01*
G75*
G02*
X89618272Y-86200440I53033J-53033D01*
G01*
X90608222Y-87190390D01*
G75*
G02*
X90608222Y-87296456I-53033J-53033D01*
G01*
X90502156Y-87402522D01*
G75*
G02*
X90396090Y-87402522I-53033J53033D01*
G01*
G37*
G36*
G01*
X90749643Y-87048969D02*
X89759693Y-86059019D01*
G75*
G02*
X89759693Y-85952953I53033J53033D01*
G01*
X89865759Y-85846887D01*
G75*
G02*
X89971825Y-85846887I53033J-53033D01*
G01*
X90961775Y-86836837D01*
G75*
G02*
X90961775Y-86942903I-53033J-53033D01*
G01*
X90855709Y-87048969D01*
G75*
G02*
X90749643Y-87048969I-53033J53033D01*
G01*
G37*
G36*
G01*
X91103196Y-86695416D02*
X90113246Y-85705466D01*
G75*
G02*
X90113246Y-85599400I53033J53033D01*
G01*
X90219312Y-85493334D01*
G75*
G02*
X90325378Y-85493334I53033J-53033D01*
G01*
X91315328Y-86483284D01*
G75*
G02*
X91315328Y-86589350I-53033J-53033D01*
G01*
X91209262Y-86695416D01*
G75*
G02*
X91103196Y-86695416I-53033J53033D01*
G01*
G37*
G36*
G01*
X91456750Y-86341862D02*
X90466800Y-85351912D01*
G75*
G02*
X90466800Y-85245846I53033J53033D01*
G01*
X90572866Y-85139780D01*
G75*
G02*
X90678932Y-85139780I53033J-53033D01*
G01*
X91668882Y-86129730D01*
G75*
G02*
X91668882Y-86235796I-53033J-53033D01*
G01*
X91562816Y-86341862D01*
G75*
G02*
X91456750Y-86341862I-53033J53033D01*
G01*
G37*
G36*
G01*
X91810303Y-85988309D02*
X90820353Y-84998359D01*
G75*
G02*
X90820353Y-84892293I53033J53033D01*
G01*
X90926419Y-84786227D01*
G75*
G02*
X91032485Y-84786227I53033J-53033D01*
G01*
X92022435Y-85776177D01*
G75*
G02*
X92022435Y-85882243I-53033J-53033D01*
G01*
X91916369Y-85988309D01*
G75*
G02*
X91810303Y-85988309I-53033J53033D01*
G01*
G37*
G36*
G01*
X92163857Y-85634755D02*
X91173907Y-84644805D01*
G75*
G02*
X91173907Y-84538739I53033J53033D01*
G01*
X91279973Y-84432673D01*
G75*
G02*
X91386039Y-84432673I53033J-53033D01*
G01*
X92375989Y-85422623D01*
G75*
G02*
X92375989Y-85528689I-53033J-53033D01*
G01*
X92269923Y-85634755D01*
G75*
G02*
X92163857Y-85634755I-53033J53033D01*
G01*
G37*
G36*
G01*
X92517410Y-85281202D02*
X91527460Y-84291252D01*
G75*
G02*
X91527460Y-84185186I53033J53033D01*
G01*
X91633526Y-84079120D01*
G75*
G02*
X91739592Y-84079120I53033J-53033D01*
G01*
X92729542Y-85069070D01*
G75*
G02*
X92729542Y-85175136I-53033J-53033D01*
G01*
X92623476Y-85281202D01*
G75*
G02*
X92517410Y-85281202I-53033J53033D01*
G01*
G37*
G36*
G01*
X92870963Y-84927649D02*
X91881013Y-83937699D01*
G75*
G02*
X91881013Y-83831633I53033J53033D01*
G01*
X91987079Y-83725567D01*
G75*
G02*
X92093145Y-83725567I53033J-53033D01*
G01*
X93083095Y-84715517D01*
G75*
G02*
X93083095Y-84821583I-53033J-53033D01*
G01*
X92977029Y-84927649D01*
G75*
G02*
X92870963Y-84927649I-53033J53033D01*
G01*
G37*
G36*
G01*
X93224517Y-84574095D02*
X92234567Y-83584145D01*
G75*
G02*
X92234567Y-83478079I53033J53033D01*
G01*
X92340633Y-83372013D01*
G75*
G02*
X92446699Y-83372013I53033J-53033D01*
G01*
X93436649Y-84361963D01*
G75*
G02*
X93436649Y-84468029I-53033J-53033D01*
G01*
X93330583Y-84574095D01*
G75*
G02*
X93224517Y-84574095I-53033J53033D01*
G01*
G37*
G36*
G01*
X93578070Y-84220542D02*
X92588120Y-83230592D01*
G75*
G02*
X92588120Y-83124526I53033J53033D01*
G01*
X92694186Y-83018460D01*
G75*
G02*
X92800252Y-83018460I53033J-53033D01*
G01*
X93790202Y-84008410D01*
G75*
G02*
X93790202Y-84114476I-53033J-53033D01*
G01*
X93684136Y-84220542D01*
G75*
G02*
X93578070Y-84220542I-53033J53033D01*
G01*
G37*
G36*
G01*
X93931623Y-83866989D02*
X92941673Y-82877039D01*
G75*
G02*
X92941673Y-82770973I53033J53033D01*
G01*
X93047739Y-82664907D01*
G75*
G02*
X93153805Y-82664907I53033J-53033D01*
G01*
X94143755Y-83654857D01*
G75*
G02*
X94143755Y-83760923I-53033J-53033D01*
G01*
X94037689Y-83866989D01*
G75*
G02*
X93931623Y-83866989I-53033J53033D01*
G01*
G37*
G36*
G01*
X94285177Y-83513435D02*
X93295227Y-82523485D01*
G75*
G02*
X93295227Y-82417419I53033J53033D01*
G01*
X93401293Y-82311353D01*
G75*
G02*
X93507359Y-82311353I53033J-53033D01*
G01*
X94497309Y-83301303D01*
G75*
G02*
X94497309Y-83407369I-53033J-53033D01*
G01*
X94391243Y-83513435D01*
G75*
G02*
X94285177Y-83513435I-53033J53033D01*
G01*
G37*
G36*
G01*
X94638730Y-83159882D02*
X93648780Y-82169932D01*
G75*
G02*
X93648780Y-82063866I53033J53033D01*
G01*
X93754846Y-81957800D01*
G75*
G02*
X93860912Y-81957800I53033J-53033D01*
G01*
X94850862Y-82947750D01*
G75*
G02*
X94850862Y-83053816I-53033J-53033D01*
G01*
X94744796Y-83159882D01*
G75*
G02*
X94638730Y-83159882I-53033J53033D01*
G01*
G37*
G36*
G01*
X94992284Y-82806328D02*
X94002334Y-81816378D01*
G75*
G02*
X94002334Y-81710312I53033J53033D01*
G01*
X94108400Y-81604246D01*
G75*
G02*
X94214466Y-81604246I53033J-53033D01*
G01*
X95204416Y-82594196D01*
G75*
G02*
X95204416Y-82700262I-53033J-53033D01*
G01*
X95098350Y-82806328D01*
G75*
G02*
X94992284Y-82806328I-53033J53033D01*
G01*
G37*
G36*
G01*
X95345837Y-82452775D02*
X94355887Y-81462825D01*
G75*
G02*
X94355887Y-81356759I53033J53033D01*
G01*
X94461953Y-81250693D01*
G75*
G02*
X94568019Y-81250693I53033J-53033D01*
G01*
X95557969Y-82240643D01*
G75*
G02*
X95557969Y-82346709I-53033J-53033D01*
G01*
X95451903Y-82452775D01*
G75*
G02*
X95345837Y-82452775I-53033J53033D01*
G01*
G37*
G36*
G01*
X95699390Y-82099222D02*
X94709440Y-81109272D01*
G75*
G02*
X94709440Y-81003206I53033J53033D01*
G01*
X94815506Y-80897140D01*
G75*
G02*
X94921572Y-80897140I53033J-53033D01*
G01*
X95911522Y-81887090D01*
G75*
G02*
X95911522Y-81993156I-53033J-53033D01*
G01*
X95805456Y-82099222D01*
G75*
G02*
X95699390Y-82099222I-53033J53033D01*
G01*
G37*
G36*
G01*
X94815506Y-79376860D02*
X94709440Y-79270794D01*
G75*
G02*
X94709440Y-79164728I53033J53033D01*
G01*
X95699390Y-78174778D01*
G75*
G02*
X95805456Y-78174778I53033J-53033D01*
G01*
X95911522Y-78280844D01*
G75*
G02*
X95911522Y-78386910I-53033J-53033D01*
G01*
X94921572Y-79376860D01*
G75*
G02*
X94815506Y-79376860I-53033J53033D01*
G01*
G37*
G36*
G01*
X94461953Y-79023307D02*
X94355887Y-78917241D01*
G75*
G02*
X94355887Y-78811175I53033J53033D01*
G01*
X95345837Y-77821225D01*
G75*
G02*
X95451903Y-77821225I53033J-53033D01*
G01*
X95557969Y-77927291D01*
G75*
G02*
X95557969Y-78033357I-53033J-53033D01*
G01*
X94568019Y-79023307D01*
G75*
G02*
X94461953Y-79023307I-53033J53033D01*
G01*
G37*
G36*
G01*
X94108400Y-78669754D02*
X94002334Y-78563688D01*
G75*
G02*
X94002334Y-78457622I53033J53033D01*
G01*
X94992284Y-77467672D01*
G75*
G02*
X95098350Y-77467672I53033J-53033D01*
G01*
X95204416Y-77573738D01*
G75*
G02*
X95204416Y-77679804I-53033J-53033D01*
G01*
X94214466Y-78669754D01*
G75*
G02*
X94108400Y-78669754I-53033J53033D01*
G01*
G37*
G36*
G01*
X93754846Y-78316200D02*
X93648780Y-78210134D01*
G75*
G02*
X93648780Y-78104068I53033J53033D01*
G01*
X94638730Y-77114118D01*
G75*
G02*
X94744796Y-77114118I53033J-53033D01*
G01*
X94850862Y-77220184D01*
G75*
G02*
X94850862Y-77326250I-53033J-53033D01*
G01*
X93860912Y-78316200D01*
G75*
G02*
X93754846Y-78316200I-53033J53033D01*
G01*
G37*
G36*
G01*
X93401293Y-77962647D02*
X93295227Y-77856581D01*
G75*
G02*
X93295227Y-77750515I53033J53033D01*
G01*
X94285177Y-76760565D01*
G75*
G02*
X94391243Y-76760565I53033J-53033D01*
G01*
X94497309Y-76866631D01*
G75*
G02*
X94497309Y-76972697I-53033J-53033D01*
G01*
X93507359Y-77962647D01*
G75*
G02*
X93401293Y-77962647I-53033J53033D01*
G01*
G37*
G36*
G01*
X93047739Y-77609093D02*
X92941673Y-77503027D01*
G75*
G02*
X92941673Y-77396961I53033J53033D01*
G01*
X93931623Y-76407011D01*
G75*
G02*
X94037689Y-76407011I53033J-53033D01*
G01*
X94143755Y-76513077D01*
G75*
G02*
X94143755Y-76619143I-53033J-53033D01*
G01*
X93153805Y-77609093D01*
G75*
G02*
X93047739Y-77609093I-53033J53033D01*
G01*
G37*
G36*
G01*
X92694186Y-77255540D02*
X92588120Y-77149474D01*
G75*
G02*
X92588120Y-77043408I53033J53033D01*
G01*
X93578070Y-76053458D01*
G75*
G02*
X93684136Y-76053458I53033J-53033D01*
G01*
X93790202Y-76159524D01*
G75*
G02*
X93790202Y-76265590I-53033J-53033D01*
G01*
X92800252Y-77255540D01*
G75*
G02*
X92694186Y-77255540I-53033J53033D01*
G01*
G37*
G36*
G01*
X92340633Y-76901987D02*
X92234567Y-76795921D01*
G75*
G02*
X92234567Y-76689855I53033J53033D01*
G01*
X93224517Y-75699905D01*
G75*
G02*
X93330583Y-75699905I53033J-53033D01*
G01*
X93436649Y-75805971D01*
G75*
G02*
X93436649Y-75912037I-53033J-53033D01*
G01*
X92446699Y-76901987D01*
G75*
G02*
X92340633Y-76901987I-53033J53033D01*
G01*
G37*
G36*
G01*
X91987079Y-76548433D02*
X91881013Y-76442367D01*
G75*
G02*
X91881013Y-76336301I53033J53033D01*
G01*
X92870963Y-75346351D01*
G75*
G02*
X92977029Y-75346351I53033J-53033D01*
G01*
X93083095Y-75452417D01*
G75*
G02*
X93083095Y-75558483I-53033J-53033D01*
G01*
X92093145Y-76548433D01*
G75*
G02*
X91987079Y-76548433I-53033J53033D01*
G01*
G37*
G36*
G01*
X91633526Y-76194880D02*
X91527460Y-76088814D01*
G75*
G02*
X91527460Y-75982748I53033J53033D01*
G01*
X92517410Y-74992798D01*
G75*
G02*
X92623476Y-74992798I53033J-53033D01*
G01*
X92729542Y-75098864D01*
G75*
G02*
X92729542Y-75204930I-53033J-53033D01*
G01*
X91739592Y-76194880D01*
G75*
G02*
X91633526Y-76194880I-53033J53033D01*
G01*
G37*
G36*
G01*
X91279973Y-75841327D02*
X91173907Y-75735261D01*
G75*
G02*
X91173907Y-75629195I53033J53033D01*
G01*
X92163857Y-74639245D01*
G75*
G02*
X92269923Y-74639245I53033J-53033D01*
G01*
X92375989Y-74745311D01*
G75*
G02*
X92375989Y-74851377I-53033J-53033D01*
G01*
X91386039Y-75841327D01*
G75*
G02*
X91279973Y-75841327I-53033J53033D01*
G01*
G37*
G36*
G01*
X90926419Y-75487773D02*
X90820353Y-75381707D01*
G75*
G02*
X90820353Y-75275641I53033J53033D01*
G01*
X91810303Y-74285691D01*
G75*
G02*
X91916369Y-74285691I53033J-53033D01*
G01*
X92022435Y-74391757D01*
G75*
G02*
X92022435Y-74497823I-53033J-53033D01*
G01*
X91032485Y-75487773D01*
G75*
G02*
X90926419Y-75487773I-53033J53033D01*
G01*
G37*
G36*
G01*
X90572866Y-75134220D02*
X90466800Y-75028154D01*
G75*
G02*
X90466800Y-74922088I53033J53033D01*
G01*
X91456750Y-73932138D01*
G75*
G02*
X91562816Y-73932138I53033J-53033D01*
G01*
X91668882Y-74038204D01*
G75*
G02*
X91668882Y-74144270I-53033J-53033D01*
G01*
X90678932Y-75134220D01*
G75*
G02*
X90572866Y-75134220I-53033J53033D01*
G01*
G37*
G36*
G01*
X90219312Y-74780666D02*
X90113246Y-74674600D01*
G75*
G02*
X90113246Y-74568534I53033J53033D01*
G01*
X91103196Y-73578584D01*
G75*
G02*
X91209262Y-73578584I53033J-53033D01*
G01*
X91315328Y-73684650D01*
G75*
G02*
X91315328Y-73790716I-53033J-53033D01*
G01*
X90325378Y-74780666D01*
G75*
G02*
X90219312Y-74780666I-53033J53033D01*
G01*
G37*
G36*
G01*
X89865759Y-74427113D02*
X89759693Y-74321047D01*
G75*
G02*
X89759693Y-74214981I53033J53033D01*
G01*
X90749643Y-73225031D01*
G75*
G02*
X90855709Y-73225031I53033J-53033D01*
G01*
X90961775Y-73331097D01*
G75*
G02*
X90961775Y-73437163I-53033J-53033D01*
G01*
X89971825Y-74427113D01*
G75*
G02*
X89865759Y-74427113I-53033J53033D01*
G01*
G37*
G36*
G01*
X89512206Y-74073560D02*
X89406140Y-73967494D01*
G75*
G02*
X89406140Y-73861428I53033J53033D01*
G01*
X90396090Y-72871478D01*
G75*
G02*
X90502156Y-72871478I53033J-53033D01*
G01*
X90608222Y-72977544D01*
G75*
G02*
X90608222Y-73083610I-53033J-53033D01*
G01*
X89618272Y-74073560D01*
G75*
G02*
X89512206Y-74073560I-53033J53033D01*
G01*
G37*
G36*
G01*
X87673728Y-74073560D02*
X86683778Y-73083610D01*
G75*
G02*
X86683778Y-72977544I53033J53033D01*
G01*
X86789844Y-72871478D01*
G75*
G02*
X86895910Y-72871478I53033J-53033D01*
G01*
X87885860Y-73861428D01*
G75*
G02*
X87885860Y-73967494I-53033J-53033D01*
G01*
X87779794Y-74073560D01*
G75*
G02*
X87673728Y-74073560I-53033J53033D01*
G01*
G37*
G36*
G01*
X87320175Y-74427113D02*
X86330225Y-73437163D01*
G75*
G02*
X86330225Y-73331097I53033J53033D01*
G01*
X86436291Y-73225031D01*
G75*
G02*
X86542357Y-73225031I53033J-53033D01*
G01*
X87532307Y-74214981D01*
G75*
G02*
X87532307Y-74321047I-53033J-53033D01*
G01*
X87426241Y-74427113D01*
G75*
G02*
X87320175Y-74427113I-53033J53033D01*
G01*
G37*
G36*
G01*
X86966622Y-74780666D02*
X85976672Y-73790716D01*
G75*
G02*
X85976672Y-73684650I53033J53033D01*
G01*
X86082738Y-73578584D01*
G75*
G02*
X86188804Y-73578584I53033J-53033D01*
G01*
X87178754Y-74568534D01*
G75*
G02*
X87178754Y-74674600I-53033J-53033D01*
G01*
X87072688Y-74780666D01*
G75*
G02*
X86966622Y-74780666I-53033J53033D01*
G01*
G37*
G36*
G01*
X86613068Y-75134220D02*
X85623118Y-74144270D01*
G75*
G02*
X85623118Y-74038204I53033J53033D01*
G01*
X85729184Y-73932138D01*
G75*
G02*
X85835250Y-73932138I53033J-53033D01*
G01*
X86825200Y-74922088D01*
G75*
G02*
X86825200Y-75028154I-53033J-53033D01*
G01*
X86719134Y-75134220D01*
G75*
G02*
X86613068Y-75134220I-53033J53033D01*
G01*
G37*
G36*
G01*
X86259515Y-75487773D02*
X85269565Y-74497823D01*
G75*
G02*
X85269565Y-74391757I53033J53033D01*
G01*
X85375631Y-74285691D01*
G75*
G02*
X85481697Y-74285691I53033J-53033D01*
G01*
X86471647Y-75275641D01*
G75*
G02*
X86471647Y-75381707I-53033J-53033D01*
G01*
X86365581Y-75487773D01*
G75*
G02*
X86259515Y-75487773I-53033J53033D01*
G01*
G37*
G36*
G01*
X85905961Y-75841327D02*
X84916011Y-74851377D01*
G75*
G02*
X84916011Y-74745311I53033J53033D01*
G01*
X85022077Y-74639245D01*
G75*
G02*
X85128143Y-74639245I53033J-53033D01*
G01*
X86118093Y-75629195D01*
G75*
G02*
X86118093Y-75735261I-53033J-53033D01*
G01*
X86012027Y-75841327D01*
G75*
G02*
X85905961Y-75841327I-53033J53033D01*
G01*
G37*
G36*
G01*
X85552408Y-76194880D02*
X84562458Y-75204930D01*
G75*
G02*
X84562458Y-75098864I53033J53033D01*
G01*
X84668524Y-74992798D01*
G75*
G02*
X84774590Y-74992798I53033J-53033D01*
G01*
X85764540Y-75982748D01*
G75*
G02*
X85764540Y-76088814I-53033J-53033D01*
G01*
X85658474Y-76194880D01*
G75*
G02*
X85552408Y-76194880I-53033J53033D01*
G01*
G37*
G36*
G01*
X85198855Y-76548433D02*
X84208905Y-75558483D01*
G75*
G02*
X84208905Y-75452417I53033J53033D01*
G01*
X84314971Y-75346351D01*
G75*
G02*
X84421037Y-75346351I53033J-53033D01*
G01*
X85410987Y-76336301D01*
G75*
G02*
X85410987Y-76442367I-53033J-53033D01*
G01*
X85304921Y-76548433D01*
G75*
G02*
X85198855Y-76548433I-53033J53033D01*
G01*
G37*
G36*
G01*
X84845301Y-76901987D02*
X83855351Y-75912037D01*
G75*
G02*
X83855351Y-75805971I53033J53033D01*
G01*
X83961417Y-75699905D01*
G75*
G02*
X84067483Y-75699905I53033J-53033D01*
G01*
X85057433Y-76689855D01*
G75*
G02*
X85057433Y-76795921I-53033J-53033D01*
G01*
X84951367Y-76901987D01*
G75*
G02*
X84845301Y-76901987I-53033J53033D01*
G01*
G37*
G36*
G01*
X84491748Y-77255540D02*
X83501798Y-76265590D01*
G75*
G02*
X83501798Y-76159524I53033J53033D01*
G01*
X83607864Y-76053458D01*
G75*
G02*
X83713930Y-76053458I53033J-53033D01*
G01*
X84703880Y-77043408D01*
G75*
G02*
X84703880Y-77149474I-53033J-53033D01*
G01*
X84597814Y-77255540D01*
G75*
G02*
X84491748Y-77255540I-53033J53033D01*
G01*
G37*
G36*
G01*
X84138195Y-77609093D02*
X83148245Y-76619143D01*
G75*
G02*
X83148245Y-76513077I53033J53033D01*
G01*
X83254311Y-76407011D01*
G75*
G02*
X83360377Y-76407011I53033J-53033D01*
G01*
X84350327Y-77396961D01*
G75*
G02*
X84350327Y-77503027I-53033J-53033D01*
G01*
X84244261Y-77609093D01*
G75*
G02*
X84138195Y-77609093I-53033J53033D01*
G01*
G37*
G36*
G01*
X83784641Y-77962647D02*
X82794691Y-76972697D01*
G75*
G02*
X82794691Y-76866631I53033J53033D01*
G01*
X82900757Y-76760565D01*
G75*
G02*
X83006823Y-76760565I53033J-53033D01*
G01*
X83996773Y-77750515D01*
G75*
G02*
X83996773Y-77856581I-53033J-53033D01*
G01*
X83890707Y-77962647D01*
G75*
G02*
X83784641Y-77962647I-53033J53033D01*
G01*
G37*
G36*
G01*
X83431088Y-78316200D02*
X82441138Y-77326250D01*
G75*
G02*
X82441138Y-77220184I53033J53033D01*
G01*
X82547204Y-77114118D01*
G75*
G02*
X82653270Y-77114118I53033J-53033D01*
G01*
X83643220Y-78104068D01*
G75*
G02*
X83643220Y-78210134I-53033J-53033D01*
G01*
X83537154Y-78316200D01*
G75*
G02*
X83431088Y-78316200I-53033J53033D01*
G01*
G37*
G36*
G01*
X83077534Y-78669754D02*
X82087584Y-77679804D01*
G75*
G02*
X82087584Y-77573738I53033J53033D01*
G01*
X82193650Y-77467672D01*
G75*
G02*
X82299716Y-77467672I53033J-53033D01*
G01*
X83289666Y-78457622D01*
G75*
G02*
X83289666Y-78563688I-53033J-53033D01*
G01*
X83183600Y-78669754D01*
G75*
G02*
X83077534Y-78669754I-53033J53033D01*
G01*
G37*
G36*
G01*
X82723981Y-79023307D02*
X81734031Y-78033357D01*
G75*
G02*
X81734031Y-77927291I53033J53033D01*
G01*
X81840097Y-77821225D01*
G75*
G02*
X81946163Y-77821225I53033J-53033D01*
G01*
X82936113Y-78811175D01*
G75*
G02*
X82936113Y-78917241I-53033J-53033D01*
G01*
X82830047Y-79023307D01*
G75*
G02*
X82723981Y-79023307I-53033J53033D01*
G01*
G37*
G36*
G01*
X82370428Y-79376860D02*
X81380478Y-78386910D01*
G75*
G02*
X81380478Y-78280844I53033J53033D01*
G01*
X81486544Y-78174778D01*
G75*
G02*
X81592610Y-78174778I53033J-53033D01*
G01*
X82582560Y-79164728D01*
G75*
G02*
X82582560Y-79270794I-53033J-53033D01*
G01*
X82476494Y-79376860D01*
G75*
G02*
X82370428Y-79376860I-53033J53033D01*
G01*
G37*
G36*
G01*
X81486544Y-82099222D02*
X81380478Y-81993156D01*
G75*
G02*
X81380478Y-81887090I53033J53033D01*
G01*
X82370428Y-80897140D01*
G75*
G02*
X82476494Y-80897140I53033J-53033D01*
G01*
X82582560Y-81003206D01*
G75*
G02*
X82582560Y-81109272I-53033J-53033D01*
G01*
X81592610Y-82099222D01*
G75*
G02*
X81486544Y-82099222I-53033J53033D01*
G01*
G37*
G36*
G01*
X81840097Y-82452775D02*
X81734031Y-82346709D01*
G75*
G02*
X81734031Y-82240643I53033J53033D01*
G01*
X82723981Y-81250693D01*
G75*
G02*
X82830047Y-81250693I53033J-53033D01*
G01*
X82936113Y-81356759D01*
G75*
G02*
X82936113Y-81462825I-53033J-53033D01*
G01*
X81946163Y-82452775D01*
G75*
G02*
X81840097Y-82452775I-53033J53033D01*
G01*
G37*
G36*
G01*
X82193650Y-82806328D02*
X82087584Y-82700262D01*
G75*
G02*
X82087584Y-82594196I53033J53033D01*
G01*
X83077534Y-81604246D01*
G75*
G02*
X83183600Y-81604246I53033J-53033D01*
G01*
X83289666Y-81710312D01*
G75*
G02*
X83289666Y-81816378I-53033J-53033D01*
G01*
X82299716Y-82806328D01*
G75*
G02*
X82193650Y-82806328I-53033J53033D01*
G01*
G37*
G36*
G01*
X82547204Y-83159882D02*
X82441138Y-83053816D01*
G75*
G02*
X82441138Y-82947750I53033J53033D01*
G01*
X83431088Y-81957800D01*
G75*
G02*
X83537154Y-81957800I53033J-53033D01*
G01*
X83643220Y-82063866D01*
G75*
G02*
X83643220Y-82169932I-53033J-53033D01*
G01*
X82653270Y-83159882D01*
G75*
G02*
X82547204Y-83159882I-53033J53033D01*
G01*
G37*
G36*
G01*
X82900757Y-83513435D02*
X82794691Y-83407369D01*
G75*
G02*
X82794691Y-83301303I53033J53033D01*
G01*
X83784641Y-82311353D01*
G75*
G02*
X83890707Y-82311353I53033J-53033D01*
G01*
X83996773Y-82417419D01*
G75*
G02*
X83996773Y-82523485I-53033J-53033D01*
G01*
X83006823Y-83513435D01*
G75*
G02*
X82900757Y-83513435I-53033J53033D01*
G01*
G37*
G36*
G01*
X83254311Y-83866989D02*
X83148245Y-83760923D01*
G75*
G02*
X83148245Y-83654857I53033J53033D01*
G01*
X84138195Y-82664907D01*
G75*
G02*
X84244261Y-82664907I53033J-53033D01*
G01*
X84350327Y-82770973D01*
G75*
G02*
X84350327Y-82877039I-53033J-53033D01*
G01*
X83360377Y-83866989D01*
G75*
G02*
X83254311Y-83866989I-53033J53033D01*
G01*
G37*
G36*
G01*
X83607864Y-84220542D02*
X83501798Y-84114476D01*
G75*
G02*
X83501798Y-84008410I53033J53033D01*
G01*
X84491748Y-83018460D01*
G75*
G02*
X84597814Y-83018460I53033J-53033D01*
G01*
X84703880Y-83124526D01*
G75*
G02*
X84703880Y-83230592I-53033J-53033D01*
G01*
X83713930Y-84220542D01*
G75*
G02*
X83607864Y-84220542I-53033J53033D01*
G01*
G37*
G36*
G01*
X83961417Y-84574095D02*
X83855351Y-84468029D01*
G75*
G02*
X83855351Y-84361963I53033J53033D01*
G01*
X84845301Y-83372013D01*
G75*
G02*
X84951367Y-83372013I53033J-53033D01*
G01*
X85057433Y-83478079D01*
G75*
G02*
X85057433Y-83584145I-53033J-53033D01*
G01*
X84067483Y-84574095D01*
G75*
G02*
X83961417Y-84574095I-53033J53033D01*
G01*
G37*
G36*
G01*
X84314971Y-84927649D02*
X84208905Y-84821583D01*
G75*
G02*
X84208905Y-84715517I53033J53033D01*
G01*
X85198855Y-83725567D01*
G75*
G02*
X85304921Y-83725567I53033J-53033D01*
G01*
X85410987Y-83831633D01*
G75*
G02*
X85410987Y-83937699I-53033J-53033D01*
G01*
X84421037Y-84927649D01*
G75*
G02*
X84314971Y-84927649I-53033J53033D01*
G01*
G37*
G36*
G01*
X84668524Y-85281202D02*
X84562458Y-85175136D01*
G75*
G02*
X84562458Y-85069070I53033J53033D01*
G01*
X85552408Y-84079120D01*
G75*
G02*
X85658474Y-84079120I53033J-53033D01*
G01*
X85764540Y-84185186D01*
G75*
G02*
X85764540Y-84291252I-53033J-53033D01*
G01*
X84774590Y-85281202D01*
G75*
G02*
X84668524Y-85281202I-53033J53033D01*
G01*
G37*
G36*
G01*
X85022077Y-85634755D02*
X84916011Y-85528689D01*
G75*
G02*
X84916011Y-85422623I53033J53033D01*
G01*
X85905961Y-84432673D01*
G75*
G02*
X86012027Y-84432673I53033J-53033D01*
G01*
X86118093Y-84538739D01*
G75*
G02*
X86118093Y-84644805I-53033J-53033D01*
G01*
X85128143Y-85634755D01*
G75*
G02*
X85022077Y-85634755I-53033J53033D01*
G01*
G37*
G36*
G01*
X85375631Y-85988309D02*
X85269565Y-85882243D01*
G75*
G02*
X85269565Y-85776177I53033J53033D01*
G01*
X86259515Y-84786227D01*
G75*
G02*
X86365581Y-84786227I53033J-53033D01*
G01*
X86471647Y-84892293D01*
G75*
G02*
X86471647Y-84998359I-53033J-53033D01*
G01*
X85481697Y-85988309D01*
G75*
G02*
X85375631Y-85988309I-53033J53033D01*
G01*
G37*
G36*
G01*
X85729184Y-86341862D02*
X85623118Y-86235796D01*
G75*
G02*
X85623118Y-86129730I53033J53033D01*
G01*
X86613068Y-85139780D01*
G75*
G02*
X86719134Y-85139780I53033J-53033D01*
G01*
X86825200Y-85245846D01*
G75*
G02*
X86825200Y-85351912I-53033J-53033D01*
G01*
X85835250Y-86341862D01*
G75*
G02*
X85729184Y-86341862I-53033J53033D01*
G01*
G37*
G36*
G01*
X86082738Y-86695416D02*
X85976672Y-86589350D01*
G75*
G02*
X85976672Y-86483284I53033J53033D01*
G01*
X86966622Y-85493334D01*
G75*
G02*
X87072688Y-85493334I53033J-53033D01*
G01*
X87178754Y-85599400D01*
G75*
G02*
X87178754Y-85705466I-53033J-53033D01*
G01*
X86188804Y-86695416D01*
G75*
G02*
X86082738Y-86695416I-53033J53033D01*
G01*
G37*
G36*
G01*
X86436291Y-87048969D02*
X86330225Y-86942903D01*
G75*
G02*
X86330225Y-86836837I53033J53033D01*
G01*
X87320175Y-85846887D01*
G75*
G02*
X87426241Y-85846887I53033J-53033D01*
G01*
X87532307Y-85952953D01*
G75*
G02*
X87532307Y-86059019I-53033J-53033D01*
G01*
X86542357Y-87048969D01*
G75*
G02*
X86436291Y-87048969I-53033J53033D01*
G01*
G37*
G36*
G01*
X86789844Y-87402522D02*
X86683778Y-87296456D01*
G75*
G02*
X86683778Y-87190390I53033J53033D01*
G01*
X87673728Y-86200440D01*
G75*
G02*
X87779794Y-86200440I53033J-53033D01*
G01*
X87885860Y-86306506D01*
G75*
G02*
X87885860Y-86412572I-53033J-53033D01*
G01*
X86895910Y-87402522D01*
G75*
G02*
X86789844Y-87402522I-53033J53033D01*
G01*
G37*
D17*
X86344000Y-113283500D03*
D18*
X85144000Y-111808500D03*
X85144000Y-114758500D03*
X87544000Y-114758500D03*
X87144000Y-114758500D03*
X86744000Y-114758500D03*
X86344000Y-114758500D03*
X85944000Y-114758500D03*
X85544000Y-114758500D03*
X85544000Y-111808500D03*
X85944000Y-111808500D03*
X86344000Y-111808500D03*
X86744000Y-111808500D03*
X87144000Y-111808500D03*
X87544000Y-111808500D03*
D19*
X103187500Y-140843000D03*
X129222500Y-149796500D03*
X155511500Y-129603500D03*
X149034500Y-129667000D03*
X161480500Y-129413000D03*
X115316000Y-127952500D03*
D20*
X82042000Y-69570500D03*
X82042000Y-68770500D03*
X80342000Y-68770500D03*
X80342000Y-69570500D03*
X92659200Y-119735600D03*
X92659200Y-120535600D03*
X94359200Y-120535600D03*
X94359200Y-119735600D03*
D21*
X90570000Y-99924500D03*
X89770000Y-99924500D03*
X89770000Y-101624500D03*
X90570000Y-101624500D03*
G36*
G01*
X151254750Y-140532500D02*
X151767250Y-140532500D01*
G75*
G02*
X151986000Y-140751250I0J-218750D01*
G01*
X151986000Y-141188750D01*
G75*
G02*
X151767250Y-141407500I-218750J0D01*
G01*
X151254750Y-141407500D01*
G75*
G02*
X151036000Y-141188750I0J218750D01*
G01*
X151036000Y-140751250D01*
G75*
G02*
X151254750Y-140532500I218750J0D01*
G01*
G37*
G36*
G01*
X151254750Y-138957500D02*
X151767250Y-138957500D01*
G75*
G02*
X151986000Y-139176250I0J-218750D01*
G01*
X151986000Y-139613750D01*
G75*
G02*
X151767250Y-139832500I-218750J0D01*
G01*
X151254750Y-139832500D01*
G75*
G02*
X151036000Y-139613750I0J218750D01*
G01*
X151036000Y-139176250D01*
G75*
G02*
X151254750Y-138957500I218750J0D01*
G01*
G37*
G36*
G01*
X85111781Y-64297428D02*
X84466546Y-64942663D01*
G75*
G02*
X84121832Y-64942663I-172357J172357D01*
G01*
X83777117Y-64597948D01*
G75*
G02*
X83777117Y-64253234I172357J172357D01*
G01*
X84422352Y-63607999D01*
G75*
G02*
X84767066Y-63607999I172357J-172357D01*
G01*
X85111781Y-63952714D01*
G75*
G02*
X85111781Y-64297428I-172357J-172357D01*
G01*
G37*
G36*
G01*
X86437607Y-65623254D02*
X85792372Y-66268489D01*
G75*
G02*
X85447658Y-66268489I-172357J172357D01*
G01*
X85102943Y-65923774D01*
G75*
G02*
X85102943Y-65579060I172357J172357D01*
G01*
X85748178Y-64933825D01*
G75*
G02*
X86092892Y-64933825I172357J-172357D01*
G01*
X86437607Y-65278540D01*
G75*
G02*
X86437607Y-65623254I-172357J-172357D01*
G01*
G37*
G36*
G01*
X146073494Y-63597229D02*
X146718729Y-62951994D01*
G75*
G02*
X147063443Y-62951994I172357J-172357D01*
G01*
X147408158Y-63296709D01*
G75*
G02*
X147408158Y-63641423I-172357J-172357D01*
G01*
X146762923Y-64286658D01*
G75*
G02*
X146418209Y-64286658I-172357J172357D01*
G01*
X146073494Y-63941943D01*
G75*
G02*
X146073494Y-63597229I172357J172357D01*
G01*
G37*
G36*
G01*
X144747668Y-62271403D02*
X145392903Y-61626168D01*
G75*
G02*
X145737617Y-61626168I172357J-172357D01*
G01*
X146082332Y-61970883D01*
G75*
G02*
X146082332Y-62315597I-172357J-172357D01*
G01*
X145437097Y-62960832D01*
G75*
G02*
X145092383Y-62960832I-172357J172357D01*
G01*
X144747668Y-62616117D01*
G75*
G02*
X144747668Y-62271403I172357J172357D01*
G01*
G37*
G36*
G01*
X142743581Y-60330816D02*
X143388816Y-59685581D01*
G75*
G02*
X143733530Y-59685581I172357J-172357D01*
G01*
X144078245Y-60030296D01*
G75*
G02*
X144078245Y-60375010I-172357J-172357D01*
G01*
X143433010Y-61020245D01*
G75*
G02*
X143088296Y-61020245I-172357J172357D01*
G01*
X142743581Y-60675530D01*
G75*
G02*
X142743581Y-60330816I172357J172357D01*
G01*
G37*
G36*
G01*
X141417755Y-59004990D02*
X142062990Y-58359755D01*
G75*
G02*
X142407704Y-58359755I172357J-172357D01*
G01*
X142752419Y-58704470D01*
G75*
G02*
X142752419Y-59049184I-172357J-172357D01*
G01*
X142107184Y-59694419D01*
G75*
G02*
X141762470Y-59694419I-172357J172357D01*
G01*
X141417755Y-59349704D01*
G75*
G02*
X141417755Y-59004990I172357J172357D01*
G01*
G37*
G36*
G01*
X125883350Y-67658400D02*
X126795850Y-67658400D01*
G75*
G02*
X127039600Y-67902150I0J-243750D01*
G01*
X127039600Y-68389650D01*
G75*
G02*
X126795850Y-68633400I-243750J0D01*
G01*
X125883350Y-68633400D01*
G75*
G02*
X125639600Y-68389650I0J243750D01*
G01*
X125639600Y-67902150D01*
G75*
G02*
X125883350Y-67658400I243750J0D01*
G01*
G37*
G36*
G01*
X125883350Y-65783400D02*
X126795850Y-65783400D01*
G75*
G02*
X127039600Y-66027150I0J-243750D01*
G01*
X127039600Y-66514650D01*
G75*
G02*
X126795850Y-66758400I-243750J0D01*
G01*
X125883350Y-66758400D01*
G75*
G02*
X125639600Y-66514650I0J243750D01*
G01*
X125639600Y-66027150D01*
G75*
G02*
X125883350Y-65783400I243750J0D01*
G01*
G37*
G36*
G01*
X122020650Y-68430200D02*
X121108150Y-68430200D01*
G75*
G02*
X120864400Y-68186450I0J243750D01*
G01*
X120864400Y-67698950D01*
G75*
G02*
X121108150Y-67455200I243750J0D01*
G01*
X122020650Y-67455200D01*
G75*
G02*
X122264400Y-67698950I0J-243750D01*
G01*
X122264400Y-68186450D01*
G75*
G02*
X122020650Y-68430200I-243750J0D01*
G01*
G37*
G36*
G01*
X122020650Y-66555200D02*
X121108150Y-66555200D01*
G75*
G02*
X120864400Y-66311450I0J243750D01*
G01*
X120864400Y-65823950D01*
G75*
G02*
X121108150Y-65580200I243750J0D01*
G01*
X122020650Y-65580200D01*
G75*
G02*
X122264400Y-65823950I0J-243750D01*
G01*
X122264400Y-66311450D01*
G75*
G02*
X122020650Y-66555200I-243750J0D01*
G01*
G37*
G36*
G01*
X84760750Y-106129000D02*
X85673250Y-106129000D01*
G75*
G02*
X85917000Y-106372750I0J-243750D01*
G01*
X85917000Y-106860250D01*
G75*
G02*
X85673250Y-107104000I-243750J0D01*
G01*
X84760750Y-107104000D01*
G75*
G02*
X84517000Y-106860250I0J243750D01*
G01*
X84517000Y-106372750D01*
G75*
G02*
X84760750Y-106129000I243750J0D01*
G01*
G37*
G36*
G01*
X84760750Y-104254000D02*
X85673250Y-104254000D01*
G75*
G02*
X85917000Y-104497750I0J-243750D01*
G01*
X85917000Y-104985250D01*
G75*
G02*
X85673250Y-105229000I-243750J0D01*
G01*
X84760750Y-105229000D01*
G75*
G02*
X84517000Y-104985250I0J243750D01*
G01*
X84517000Y-104497750D01*
G75*
G02*
X84760750Y-104254000I243750J0D01*
G01*
G37*
G36*
G01*
X86729250Y-107115000D02*
X87641750Y-107115000D01*
G75*
G02*
X87885500Y-107358750I0J-243750D01*
G01*
X87885500Y-107846250D01*
G75*
G02*
X87641750Y-108090000I-243750J0D01*
G01*
X86729250Y-108090000D01*
G75*
G02*
X86485500Y-107846250I0J243750D01*
G01*
X86485500Y-107358750D01*
G75*
G02*
X86729250Y-107115000I243750J0D01*
G01*
G37*
G36*
G01*
X86729250Y-105240000D02*
X87641750Y-105240000D01*
G75*
G02*
X87885500Y-105483750I0J-243750D01*
G01*
X87885500Y-105971250D01*
G75*
G02*
X87641750Y-106215000I-243750J0D01*
G01*
X86729250Y-106215000D01*
G75*
G02*
X86485500Y-105971250I0J243750D01*
G01*
X86485500Y-105483750D01*
G75*
G02*
X86729250Y-105240000I243750J0D01*
G01*
G37*
G36*
G01*
X87893500Y-109017750D02*
X87893500Y-109930250D01*
G75*
G02*
X87649750Y-110174000I-243750J0D01*
G01*
X87162250Y-110174000D01*
G75*
G02*
X86918500Y-109930250I0J243750D01*
G01*
X86918500Y-109017750D01*
G75*
G02*
X87162250Y-108774000I243750J0D01*
G01*
X87649750Y-108774000D01*
G75*
G02*
X87893500Y-109017750I0J-243750D01*
G01*
G37*
G36*
G01*
X89768500Y-109017750D02*
X89768500Y-109930250D01*
G75*
G02*
X89524750Y-110174000I-243750J0D01*
G01*
X89037250Y-110174000D01*
G75*
G02*
X88793500Y-109930250I0J243750D01*
G01*
X88793500Y-109017750D01*
G75*
G02*
X89037250Y-108774000I243750J0D01*
G01*
X89524750Y-108774000D01*
G75*
G02*
X89768500Y-109017750I0J-243750D01*
G01*
G37*
G36*
G01*
X82809500Y-109295250D02*
X82809500Y-108382750D01*
G75*
G02*
X83053250Y-108139000I243750J0D01*
G01*
X83540750Y-108139000D01*
G75*
G02*
X83784500Y-108382750I0J-243750D01*
G01*
X83784500Y-109295250D01*
G75*
G02*
X83540750Y-109539000I-243750J0D01*
G01*
X83053250Y-109539000D01*
G75*
G02*
X82809500Y-109295250I0J243750D01*
G01*
G37*
G36*
G01*
X80934500Y-109295250D02*
X80934500Y-108382750D01*
G75*
G02*
X81178250Y-108139000I243750J0D01*
G01*
X81665750Y-108139000D01*
G75*
G02*
X81909500Y-108382750I0J-243750D01*
G01*
X81909500Y-109295250D01*
G75*
G02*
X81665750Y-109539000I-243750J0D01*
G01*
X81178250Y-109539000D01*
G75*
G02*
X80934500Y-109295250I0J243750D01*
G01*
G37*
D22*
X80994500Y-115382000D03*
X82994500Y-116332000D03*
X82994500Y-114432000D03*
D23*
X82362000Y-110712500D03*
X81412000Y-112712500D03*
X83312000Y-112712500D03*
D11*
X109793257Y-144244423D03*
G36*
G01*
X109870653Y-146853352D02*
X109611834Y-147819277D01*
G75*
G02*
X109305648Y-147996053I-241481J64705D01*
G01*
X108339723Y-147737234D01*
G75*
G02*
X108162947Y-147431048I64705J241481D01*
G01*
X108421766Y-146465123D01*
G75*
G02*
X108727952Y-146288347I241481J-64705D01*
G01*
X109693877Y-146547166D01*
G75*
G02*
X109870653Y-146853352I-64705J-241481D01*
G01*
G37*
D12*
X107138770Y-142559995D03*
X112934325Y-144112909D03*
D11*
X91666563Y-133871267D03*
G36*
G01*
X90634127Y-136268469D02*
X89991339Y-137034513D01*
G75*
G02*
X89639131Y-137065327I-191511J160697D01*
G01*
X88873087Y-136422539D01*
G75*
G02*
X88842273Y-136070331I160697J191511D01*
G01*
X89485061Y-135304287D01*
G75*
G02*
X89837269Y-135273473I191511J-160697D01*
G01*
X90603313Y-135916261D01*
G75*
G02*
X90634127Y-136268469I-160697J-191511D01*
G01*
G37*
D12*
X89972650Y-131222822D03*
X94568917Y-135079548D03*
D11*
X77012478Y-112689740D03*
G36*
G01*
X74919761Y-114249559D02*
X73980069Y-114591579D01*
G75*
G02*
X73659641Y-114442161I-85505J234923D01*
G01*
X73317621Y-113502469D01*
G75*
G02*
X73467039Y-113182041I234923J85505D01*
G01*
X74406731Y-112840021D01*
G75*
G02*
X74727159Y-112989439I85505J-234923D01*
G01*
X75069179Y-113929131D01*
G75*
G02*
X74919761Y-114249559I-234923J-85505D01*
G01*
G37*
D12*
X76869728Y-109549163D03*
X78921849Y-115187318D03*
D11*
X85051333Y-127637037D03*
G36*
G01*
X83618313Y-129818539D02*
X82852269Y-130461327D01*
G75*
G02*
X82500061Y-130430513I-160697J191511D01*
G01*
X81857273Y-129664469D01*
G75*
G02*
X81888087Y-129312261I191511J160697D01*
G01*
X82654131Y-128669473D01*
G75*
G02*
X83006339Y-128700287I160697J-191511D01*
G01*
X83649127Y-129466331D01*
G75*
G02*
X83618313Y-129818539I-191511J-160697D01*
G01*
G37*
D12*
X83843052Y-124734683D03*
X87699778Y-129330950D03*
D11*
X80525276Y-120369200D03*
G36*
G01*
X78735213Y-122268719D02*
X77869187Y-122768719D01*
G75*
G02*
X77527681Y-122677213I-125000J216506D01*
G01*
X77027681Y-121811187D01*
G75*
G02*
X77119187Y-121469681I216506J125000D01*
G01*
X77985213Y-120969681D01*
G75*
G02*
X78326719Y-121061187I125000J-216506D01*
G01*
X78826719Y-121927213D01*
G75*
G02*
X78735213Y-122268719I-216506J-125000D01*
G01*
G37*
D12*
X79839340Y-117301124D03*
X82839340Y-122497276D03*
D24*
X123494800Y-59232800D03*
X118394800Y-58032800D03*
X98863000Y-135552500D03*
X97663000Y-140652500D03*
D10*
G36*
X108854951Y-139849738D02*
G01*
X109470587Y-138158291D01*
X111819819Y-139013342D01*
X111204183Y-140704789D01*
X108854951Y-139849738D01*
G37*
G36*
X105096181Y-138481658D02*
G01*
X105711817Y-136790211D01*
X108061049Y-137645262D01*
X107445413Y-139336709D01*
X105096181Y-138481658D01*
G37*
D25*
X91610500Y-111442500D03*
X89110500Y-111442500D03*
X89217500Y-105176000D03*
X89217500Y-107676000D03*
X83185000Y-103060500D03*
X83185000Y-105560500D03*
G36*
G01*
X117536250Y-134246000D02*
X118048750Y-134246000D01*
G75*
G02*
X118267500Y-134464750I0J-218750D01*
G01*
X118267500Y-134902250D01*
G75*
G02*
X118048750Y-135121000I-218750J0D01*
G01*
X117536250Y-135121000D01*
G75*
G02*
X117317500Y-134902250I0J218750D01*
G01*
X117317500Y-134464750D01*
G75*
G02*
X117536250Y-134246000I218750J0D01*
G01*
G37*
G36*
G01*
X117536250Y-132671000D02*
X118048750Y-132671000D01*
G75*
G02*
X118267500Y-132889750I0J-218750D01*
G01*
X118267500Y-133327250D01*
G75*
G02*
X118048750Y-133546000I-218750J0D01*
G01*
X117536250Y-133546000D01*
G75*
G02*
X117317500Y-133327250I0J218750D01*
G01*
X117317500Y-132889750D01*
G75*
G02*
X117536250Y-132671000I218750J0D01*
G01*
G37*
G36*
G01*
X119314250Y-146755500D02*
X119826750Y-146755500D01*
G75*
G02*
X120045500Y-146974250I0J-218750D01*
G01*
X120045500Y-147411750D01*
G75*
G02*
X119826750Y-147630500I-218750J0D01*
G01*
X119314250Y-147630500D01*
G75*
G02*
X119095500Y-147411750I0J218750D01*
G01*
X119095500Y-146974250D01*
G75*
G02*
X119314250Y-146755500I218750J0D01*
G01*
G37*
G36*
G01*
X119314250Y-145180500D02*
X119826750Y-145180500D01*
G75*
G02*
X120045500Y-145399250I0J-218750D01*
G01*
X120045500Y-145836750D01*
G75*
G02*
X119826750Y-146055500I-218750J0D01*
G01*
X119314250Y-146055500D01*
G75*
G02*
X119095500Y-145836750I0J218750D01*
G01*
X119095500Y-145399250D01*
G75*
G02*
X119314250Y-145180500I218750J0D01*
G01*
G37*
G36*
G01*
X136515000Y-138922000D02*
X135265000Y-138922000D01*
G75*
G02*
X135015000Y-138672000I0J250000D01*
G01*
X135015000Y-137922000D01*
G75*
G02*
X135265000Y-137672000I250000J0D01*
G01*
X136515000Y-137672000D01*
G75*
G02*
X136765000Y-137922000I0J-250000D01*
G01*
X136765000Y-138672000D01*
G75*
G02*
X136515000Y-138922000I-250000J0D01*
G01*
G37*
G36*
G01*
X136515000Y-141722000D02*
X135265000Y-141722000D01*
G75*
G02*
X135015000Y-141472000I0J250000D01*
G01*
X135015000Y-140722000D01*
G75*
G02*
X135265000Y-140472000I250000J0D01*
G01*
X136515000Y-140472000D01*
G75*
G02*
X136765000Y-140722000I0J-250000D01*
G01*
X136765000Y-141472000D01*
G75*
G02*
X136515000Y-141722000I-250000J0D01*
G01*
G37*
G36*
G01*
X115790400Y-144561400D02*
X117940400Y-144561400D01*
G75*
G02*
X118190400Y-144811400I0J-250000D01*
G01*
X118190400Y-145561400D01*
G75*
G02*
X117940400Y-145811400I-250000J0D01*
G01*
X115790400Y-145811400D01*
G75*
G02*
X115540400Y-145561400I0J250000D01*
G01*
X115540400Y-144811400D01*
G75*
G02*
X115790400Y-144561400I250000J0D01*
G01*
G37*
G36*
G01*
X115790400Y-141761400D02*
X117940400Y-141761400D01*
G75*
G02*
X118190400Y-142011400I0J-250000D01*
G01*
X118190400Y-142761400D01*
G75*
G02*
X117940400Y-143011400I-250000J0D01*
G01*
X115790400Y-143011400D01*
G75*
G02*
X115540400Y-142761400I0J250000D01*
G01*
X115540400Y-142011400D01*
G75*
G02*
X115790400Y-141761400I250000J0D01*
G01*
G37*
G36*
G01*
X130179500Y-145996500D02*
X132329500Y-145996500D01*
G75*
G02*
X132579500Y-146246500I0J-250000D01*
G01*
X132579500Y-146996500D01*
G75*
G02*
X132329500Y-147246500I-250000J0D01*
G01*
X130179500Y-147246500D01*
G75*
G02*
X129929500Y-146996500I0J250000D01*
G01*
X129929500Y-146246500D01*
G75*
G02*
X130179500Y-145996500I250000J0D01*
G01*
G37*
G36*
G01*
X130179500Y-143196500D02*
X132329500Y-143196500D01*
G75*
G02*
X132579500Y-143446500I0J-250000D01*
G01*
X132579500Y-144196500D01*
G75*
G02*
X132329500Y-144446500I-250000J0D01*
G01*
X130179500Y-144446500D01*
G75*
G02*
X129929500Y-144196500I0J250000D01*
G01*
X129929500Y-143446500D01*
G75*
G02*
X130179500Y-143196500I250000J0D01*
G01*
G37*
G36*
G01*
X79787000Y-72603750D02*
X79787000Y-73116250D01*
G75*
G02*
X79568250Y-73335000I-218750J0D01*
G01*
X79130750Y-73335000D01*
G75*
G02*
X78912000Y-73116250I0J218750D01*
G01*
X78912000Y-72603750D01*
G75*
G02*
X79130750Y-72385000I218750J0D01*
G01*
X79568250Y-72385000D01*
G75*
G02*
X79787000Y-72603750I0J-218750D01*
G01*
G37*
G36*
G01*
X81362000Y-72603750D02*
X81362000Y-73116250D01*
G75*
G02*
X81143250Y-73335000I-218750J0D01*
G01*
X80705750Y-73335000D01*
G75*
G02*
X80487000Y-73116250I0J218750D01*
G01*
X80487000Y-72603750D01*
G75*
G02*
X80705750Y-72385000I218750J0D01*
G01*
X81143250Y-72385000D01*
G75*
G02*
X81362000Y-72603750I0J-218750D01*
G01*
G37*
G36*
G01*
X96408816Y-83949791D02*
X96771209Y-84312184D01*
G75*
G02*
X96771209Y-84621544I-154680J-154680D01*
G01*
X96461850Y-84930903D01*
G75*
G02*
X96152490Y-84930903I-154680J154680D01*
G01*
X95790097Y-84568510D01*
G75*
G02*
X95790097Y-84259150I154680J154680D01*
G01*
X96099456Y-83949791D01*
G75*
G02*
X96408816Y-83949791I154680J-154680D01*
G01*
G37*
G36*
G01*
X97522510Y-82836097D02*
X97884903Y-83198490D01*
G75*
G02*
X97884903Y-83507850I-154680J-154680D01*
G01*
X97575544Y-83817209D01*
G75*
G02*
X97266184Y-83817209I-154680J154680D01*
G01*
X96903791Y-83454816D01*
G75*
G02*
X96903791Y-83145456I154680J154680D01*
G01*
X97213150Y-82836097D01*
G75*
G02*
X97522510Y-82836097I154680J-154680D01*
G01*
G37*
G36*
G01*
X91981031Y-88975362D02*
X91618638Y-88612969D01*
G75*
G02*
X91618638Y-88303609I154680J154680D01*
G01*
X91927997Y-87994250D01*
G75*
G02*
X92237357Y-87994250I154680J-154680D01*
G01*
X92599750Y-88356643D01*
G75*
G02*
X92599750Y-88666003I-154680J-154680D01*
G01*
X92290391Y-88975362D01*
G75*
G02*
X91981031Y-88975362I-154680J154680D01*
G01*
G37*
G36*
G01*
X90867337Y-90089056D02*
X90504944Y-89726663D01*
G75*
G02*
X90504944Y-89417303I154680J154680D01*
G01*
X90814303Y-89107944D01*
G75*
G02*
X91123663Y-89107944I154680J-154680D01*
G01*
X91486056Y-89470337D01*
G75*
G02*
X91486056Y-89779697I-154680J-154680D01*
G01*
X91176697Y-90089056D01*
G75*
G02*
X90867337Y-90089056I-154680J154680D01*
G01*
G37*
G36*
G01*
X151943750Y-57966000D02*
X152856250Y-57966000D01*
G75*
G02*
X153100000Y-58209750I0J-243750D01*
G01*
X153100000Y-58697250D01*
G75*
G02*
X152856250Y-58941000I-243750J0D01*
G01*
X151943750Y-58941000D01*
G75*
G02*
X151700000Y-58697250I0J243750D01*
G01*
X151700000Y-58209750D01*
G75*
G02*
X151943750Y-57966000I243750J0D01*
G01*
G37*
G36*
G01*
X151943750Y-56091000D02*
X152856250Y-56091000D01*
G75*
G02*
X153100000Y-56334750I0J-243750D01*
G01*
X153100000Y-56822250D01*
G75*
G02*
X152856250Y-57066000I-243750J0D01*
G01*
X151943750Y-57066000D01*
G75*
G02*
X151700000Y-56822250I0J243750D01*
G01*
X151700000Y-56334750D01*
G75*
G02*
X151943750Y-56091000I243750J0D01*
G01*
G37*
G36*
G01*
X153975750Y-58948500D02*
X154888250Y-58948500D01*
G75*
G02*
X155132000Y-59192250I0J-243750D01*
G01*
X155132000Y-59679750D01*
G75*
G02*
X154888250Y-59923500I-243750J0D01*
G01*
X153975750Y-59923500D01*
G75*
G02*
X153732000Y-59679750I0J243750D01*
G01*
X153732000Y-59192250D01*
G75*
G02*
X153975750Y-58948500I243750J0D01*
G01*
G37*
G36*
G01*
X153975750Y-57073500D02*
X154888250Y-57073500D01*
G75*
G02*
X155132000Y-57317250I0J-243750D01*
G01*
X155132000Y-57804750D01*
G75*
G02*
X154888250Y-58048500I-243750J0D01*
G01*
X153975750Y-58048500D01*
G75*
G02*
X153732000Y-57804750I0J243750D01*
G01*
X153732000Y-57317250D01*
G75*
G02*
X153975750Y-57073500I243750J0D01*
G01*
G37*
G36*
G01*
X90366000Y-115899250D02*
X90366000Y-114986750D01*
G75*
G02*
X90609750Y-114743000I243750J0D01*
G01*
X91097250Y-114743000D01*
G75*
G02*
X91341000Y-114986750I0J-243750D01*
G01*
X91341000Y-115899250D01*
G75*
G02*
X91097250Y-116143000I-243750J0D01*
G01*
X90609750Y-116143000D01*
G75*
G02*
X90366000Y-115899250I0J243750D01*
G01*
G37*
G36*
G01*
X88491000Y-115899250D02*
X88491000Y-114986750D01*
G75*
G02*
X88734750Y-114743000I243750J0D01*
G01*
X89222250Y-114743000D01*
G75*
G02*
X89466000Y-114986750I0J-243750D01*
G01*
X89466000Y-115899250D01*
G75*
G02*
X89222250Y-116143000I-243750J0D01*
G01*
X88734750Y-116143000D01*
G75*
G02*
X88491000Y-115899250I0J243750D01*
G01*
G37*
G36*
G01*
X84316250Y-118227500D02*
X85228750Y-118227500D01*
G75*
G02*
X85472500Y-118471250I0J-243750D01*
G01*
X85472500Y-118958750D01*
G75*
G02*
X85228750Y-119202500I-243750J0D01*
G01*
X84316250Y-119202500D01*
G75*
G02*
X84072500Y-118958750I0J243750D01*
G01*
X84072500Y-118471250D01*
G75*
G02*
X84316250Y-118227500I243750J0D01*
G01*
G37*
G36*
G01*
X84316250Y-116352500D02*
X85228750Y-116352500D01*
G75*
G02*
X85472500Y-116596250I0J-243750D01*
G01*
X85472500Y-117083750D01*
G75*
G02*
X85228750Y-117327500I-243750J0D01*
G01*
X84316250Y-117327500D01*
G75*
G02*
X84072500Y-117083750I0J243750D01*
G01*
X84072500Y-116596250D01*
G75*
G02*
X84316250Y-116352500I243750J0D01*
G01*
G37*
M02*
