G04 #@! TF.GenerationSoftware,KiCad,Pcbnew,7.0.10*
G04 #@! TF.CreationDate,2024-12-11T17:53:56-08:00*
G04 #@! TF.ProjectId,LCP_PowerControl,4c43505f-506f-4776-9572-436f6e74726f,rev?*
G04 #@! TF.SameCoordinates,Original*
G04 #@! TF.FileFunction,Legend,Top*
G04 #@! TF.FilePolarity,Positive*
%FSLAX46Y46*%
G04 Gerber Fmt 4.6, Leading zero omitted, Abs format (unit mm)*
G04 Created by KiCad (PCBNEW 7.0.10) date 2024-12-11 17:53:56*
%MOMM*%
%LPD*%
G01*
G04 APERTURE LIST*
%ADD10C,0.300000*%
%ADD11C,0.101600*%
%ADD12C,0.150000*%
%ADD13C,0.254000*%
%ADD14C,0.200000*%
%ADD15C,0.203200*%
%ADD16C,0.100000*%
%ADD17C,0.120000*%
G04 APERTURE END LIST*
D10*
X114766114Y-143731128D02*
X114266114Y-143016842D01*
X113908971Y-143731128D02*
X113908971Y-142231128D01*
X113908971Y-142231128D02*
X114480400Y-142231128D01*
X114480400Y-142231128D02*
X114623257Y-142302557D01*
X114623257Y-142302557D02*
X114694686Y-142373985D01*
X114694686Y-142373985D02*
X114766114Y-142516842D01*
X114766114Y-142516842D02*
X114766114Y-142731128D01*
X114766114Y-142731128D02*
X114694686Y-142873985D01*
X114694686Y-142873985D02*
X114623257Y-142945414D01*
X114623257Y-142945414D02*
X114480400Y-143016842D01*
X114480400Y-143016842D02*
X113908971Y-143016842D01*
X115980400Y-143659700D02*
X115837543Y-143731128D01*
X115837543Y-143731128D02*
X115551829Y-143731128D01*
X115551829Y-143731128D02*
X115408971Y-143659700D01*
X115408971Y-143659700D02*
X115337543Y-143516842D01*
X115337543Y-143516842D02*
X115337543Y-142945414D01*
X115337543Y-142945414D02*
X115408971Y-142802557D01*
X115408971Y-142802557D02*
X115551829Y-142731128D01*
X115551829Y-142731128D02*
X115837543Y-142731128D01*
X115837543Y-142731128D02*
X115980400Y-142802557D01*
X115980400Y-142802557D02*
X116051829Y-142945414D01*
X116051829Y-142945414D02*
X116051829Y-143088271D01*
X116051829Y-143088271D02*
X115337543Y-143231128D01*
X116551828Y-142731128D02*
X116908971Y-143731128D01*
X116908971Y-143731128D02*
X117266114Y-142731128D01*
X117766114Y-142373985D02*
X117837542Y-142302557D01*
X117837542Y-142302557D02*
X117980400Y-142231128D01*
X117980400Y-142231128D02*
X118337542Y-142231128D01*
X118337542Y-142231128D02*
X118480400Y-142302557D01*
X118480400Y-142302557D02*
X118551828Y-142373985D01*
X118551828Y-142373985D02*
X118623257Y-142516842D01*
X118623257Y-142516842D02*
X118623257Y-142659700D01*
X118623257Y-142659700D02*
X118551828Y-142873985D01*
X118551828Y-142873985D02*
X117694685Y-143731128D01*
X117694685Y-143731128D02*
X118623257Y-143731128D01*
D11*
X98941746Y-121618827D02*
X98990127Y-121473684D01*
X98990127Y-121473684D02*
X99038508Y-121425303D01*
X99038508Y-121425303D02*
X99135270Y-121376922D01*
X99135270Y-121376922D02*
X99280413Y-121376922D01*
X99280413Y-121376922D02*
X99377175Y-121425303D01*
X99377175Y-121425303D02*
X99425556Y-121473684D01*
X99425556Y-121473684D02*
X99473936Y-121570446D01*
X99473936Y-121570446D02*
X99473936Y-121957494D01*
X99473936Y-121957494D02*
X98457936Y-121957494D01*
X98457936Y-121957494D02*
X98457936Y-121618827D01*
X98457936Y-121618827D02*
X98506317Y-121522065D01*
X98506317Y-121522065D02*
X98554698Y-121473684D01*
X98554698Y-121473684D02*
X98651460Y-121425303D01*
X98651460Y-121425303D02*
X98748222Y-121425303D01*
X98748222Y-121425303D02*
X98844984Y-121473684D01*
X98844984Y-121473684D02*
X98893365Y-121522065D01*
X98893365Y-121522065D02*
X98941746Y-121618827D01*
X98941746Y-121618827D02*
X98941746Y-121957494D01*
X99473936Y-120506065D02*
X98941746Y-120506065D01*
X98941746Y-120506065D02*
X98844984Y-120554446D01*
X98844984Y-120554446D02*
X98796603Y-120651208D01*
X98796603Y-120651208D02*
X98796603Y-120844732D01*
X98796603Y-120844732D02*
X98844984Y-120941494D01*
X99425556Y-120506065D02*
X99473936Y-120602827D01*
X99473936Y-120602827D02*
X99473936Y-120844732D01*
X99473936Y-120844732D02*
X99425556Y-120941494D01*
X99425556Y-120941494D02*
X99328794Y-120989875D01*
X99328794Y-120989875D02*
X99232032Y-120989875D01*
X99232032Y-120989875D02*
X99135270Y-120941494D01*
X99135270Y-120941494D02*
X99086889Y-120844732D01*
X99086889Y-120844732D02*
X99086889Y-120602827D01*
X99086889Y-120602827D02*
X99038508Y-120506065D01*
X98796603Y-120167399D02*
X98796603Y-119780351D01*
X98457936Y-120022256D02*
X99328794Y-120022256D01*
X99328794Y-120022256D02*
X99425556Y-119973875D01*
X99425556Y-119973875D02*
X99473936Y-119877113D01*
X99473936Y-119877113D02*
X99473936Y-119780351D01*
X98796603Y-119586828D02*
X98796603Y-119199780D01*
X98457936Y-119441685D02*
X99328794Y-119441685D01*
X99328794Y-119441685D02*
X99425556Y-119393304D01*
X99425556Y-119393304D02*
X99473936Y-119296542D01*
X99473936Y-119296542D02*
X99473936Y-119199780D01*
X98796603Y-118425685D02*
X99473936Y-118425685D01*
X98409556Y-118667590D02*
X99135270Y-118909495D01*
X99135270Y-118909495D02*
X99135270Y-118280542D01*
X98840146Y-98098427D02*
X98888527Y-97953284D01*
X98888527Y-97953284D02*
X98936908Y-97904903D01*
X98936908Y-97904903D02*
X99033670Y-97856522D01*
X99033670Y-97856522D02*
X99178813Y-97856522D01*
X99178813Y-97856522D02*
X99275575Y-97904903D01*
X99275575Y-97904903D02*
X99323956Y-97953284D01*
X99323956Y-97953284D02*
X99372336Y-98050046D01*
X99372336Y-98050046D02*
X99372336Y-98437094D01*
X99372336Y-98437094D02*
X98356336Y-98437094D01*
X98356336Y-98437094D02*
X98356336Y-98098427D01*
X98356336Y-98098427D02*
X98404717Y-98001665D01*
X98404717Y-98001665D02*
X98453098Y-97953284D01*
X98453098Y-97953284D02*
X98549860Y-97904903D01*
X98549860Y-97904903D02*
X98646622Y-97904903D01*
X98646622Y-97904903D02*
X98743384Y-97953284D01*
X98743384Y-97953284D02*
X98791765Y-98001665D01*
X98791765Y-98001665D02*
X98840146Y-98098427D01*
X98840146Y-98098427D02*
X98840146Y-98437094D01*
X99372336Y-96985665D02*
X98840146Y-96985665D01*
X98840146Y-96985665D02*
X98743384Y-97034046D01*
X98743384Y-97034046D02*
X98695003Y-97130808D01*
X98695003Y-97130808D02*
X98695003Y-97324332D01*
X98695003Y-97324332D02*
X98743384Y-97421094D01*
X99323956Y-96985665D02*
X99372336Y-97082427D01*
X99372336Y-97082427D02*
X99372336Y-97324332D01*
X99372336Y-97324332D02*
X99323956Y-97421094D01*
X99323956Y-97421094D02*
X99227194Y-97469475D01*
X99227194Y-97469475D02*
X99130432Y-97469475D01*
X99130432Y-97469475D02*
X99033670Y-97421094D01*
X99033670Y-97421094D02*
X98985289Y-97324332D01*
X98985289Y-97324332D02*
X98985289Y-97082427D01*
X98985289Y-97082427D02*
X98936908Y-96985665D01*
X98695003Y-96646999D02*
X98695003Y-96259951D01*
X98356336Y-96501856D02*
X99227194Y-96501856D01*
X99227194Y-96501856D02*
X99323956Y-96453475D01*
X99323956Y-96453475D02*
X99372336Y-96356713D01*
X99372336Y-96356713D02*
X99372336Y-96259951D01*
X98695003Y-96066428D02*
X98695003Y-95679380D01*
X98356336Y-95921285D02*
X99227194Y-95921285D01*
X99227194Y-95921285D02*
X99323956Y-95872904D01*
X99323956Y-95872904D02*
X99372336Y-95776142D01*
X99372336Y-95776142D02*
X99372336Y-95679380D01*
X99372336Y-94808523D02*
X99372336Y-95389095D01*
X99372336Y-95098809D02*
X98356336Y-95098809D01*
X98356336Y-95098809D02*
X98501479Y-95195571D01*
X98501479Y-95195571D02*
X98598241Y-95292333D01*
X98598241Y-95292333D02*
X98646622Y-95389095D01*
X98890946Y-112932027D02*
X98939327Y-112786884D01*
X98939327Y-112786884D02*
X98987708Y-112738503D01*
X98987708Y-112738503D02*
X99084470Y-112690122D01*
X99084470Y-112690122D02*
X99229613Y-112690122D01*
X99229613Y-112690122D02*
X99326375Y-112738503D01*
X99326375Y-112738503D02*
X99374756Y-112786884D01*
X99374756Y-112786884D02*
X99423136Y-112883646D01*
X99423136Y-112883646D02*
X99423136Y-113270694D01*
X99423136Y-113270694D02*
X98407136Y-113270694D01*
X98407136Y-113270694D02*
X98407136Y-112932027D01*
X98407136Y-112932027D02*
X98455517Y-112835265D01*
X98455517Y-112835265D02*
X98503898Y-112786884D01*
X98503898Y-112786884D02*
X98600660Y-112738503D01*
X98600660Y-112738503D02*
X98697422Y-112738503D01*
X98697422Y-112738503D02*
X98794184Y-112786884D01*
X98794184Y-112786884D02*
X98842565Y-112835265D01*
X98842565Y-112835265D02*
X98890946Y-112932027D01*
X98890946Y-112932027D02*
X98890946Y-113270694D01*
X99423136Y-111819265D02*
X98890946Y-111819265D01*
X98890946Y-111819265D02*
X98794184Y-111867646D01*
X98794184Y-111867646D02*
X98745803Y-111964408D01*
X98745803Y-111964408D02*
X98745803Y-112157932D01*
X98745803Y-112157932D02*
X98794184Y-112254694D01*
X99374756Y-111819265D02*
X99423136Y-111916027D01*
X99423136Y-111916027D02*
X99423136Y-112157932D01*
X99423136Y-112157932D02*
X99374756Y-112254694D01*
X99374756Y-112254694D02*
X99277994Y-112303075D01*
X99277994Y-112303075D02*
X99181232Y-112303075D01*
X99181232Y-112303075D02*
X99084470Y-112254694D01*
X99084470Y-112254694D02*
X99036089Y-112157932D01*
X99036089Y-112157932D02*
X99036089Y-111916027D01*
X99036089Y-111916027D02*
X98987708Y-111819265D01*
X98745803Y-111480599D02*
X98745803Y-111093551D01*
X98407136Y-111335456D02*
X99277994Y-111335456D01*
X99277994Y-111335456D02*
X99374756Y-111287075D01*
X99374756Y-111287075D02*
X99423136Y-111190313D01*
X99423136Y-111190313D02*
X99423136Y-111093551D01*
X98745803Y-110900028D02*
X98745803Y-110512980D01*
X98407136Y-110754885D02*
X99277994Y-110754885D01*
X99277994Y-110754885D02*
X99374756Y-110706504D01*
X99374756Y-110706504D02*
X99423136Y-110609742D01*
X99423136Y-110609742D02*
X99423136Y-110512980D01*
X98407136Y-110271076D02*
X98407136Y-109642123D01*
X98407136Y-109642123D02*
X98794184Y-109980790D01*
X98794184Y-109980790D02*
X98794184Y-109835647D01*
X98794184Y-109835647D02*
X98842565Y-109738885D01*
X98842565Y-109738885D02*
X98890946Y-109690504D01*
X98890946Y-109690504D02*
X98987708Y-109642123D01*
X98987708Y-109642123D02*
X99229613Y-109642123D01*
X99229613Y-109642123D02*
X99326375Y-109690504D01*
X99326375Y-109690504D02*
X99374756Y-109738885D01*
X99374756Y-109738885D02*
X99423136Y-109835647D01*
X99423136Y-109835647D02*
X99423136Y-110125933D01*
X99423136Y-110125933D02*
X99374756Y-110222695D01*
X99374756Y-110222695D02*
X99326375Y-110271076D01*
D12*
X92135581Y-134401038D02*
X92802247Y-136401038D01*
X92802247Y-136401038D02*
X93468914Y-134401038D01*
X94135581Y-136401038D02*
X94135581Y-135067704D01*
X94135581Y-134401038D02*
X94040343Y-134496276D01*
X94040343Y-134496276D02*
X94135581Y-134591514D01*
X94135581Y-134591514D02*
X94230819Y-134496276D01*
X94230819Y-134496276D02*
X94135581Y-134401038D01*
X94135581Y-134401038D02*
X94135581Y-134591514D01*
X95087962Y-135067704D02*
X95087962Y-136401038D01*
X95087962Y-135258180D02*
X95183200Y-135162942D01*
X95183200Y-135162942D02*
X95373676Y-135067704D01*
X95373676Y-135067704D02*
X95659391Y-135067704D01*
X95659391Y-135067704D02*
X95849867Y-135162942D01*
X95849867Y-135162942D02*
X95945105Y-135353419D01*
X95945105Y-135353419D02*
X95945105Y-136401038D01*
D13*
X106436886Y-141442718D02*
X105832124Y-141442718D01*
X105832124Y-141442718D02*
X105832124Y-140172718D01*
X107585934Y-141321765D02*
X107525458Y-141382242D01*
X107525458Y-141382242D02*
X107344029Y-141442718D01*
X107344029Y-141442718D02*
X107223077Y-141442718D01*
X107223077Y-141442718D02*
X107041648Y-141382242D01*
X107041648Y-141382242D02*
X106920696Y-141261289D01*
X106920696Y-141261289D02*
X106860219Y-141140337D01*
X106860219Y-141140337D02*
X106799743Y-140898432D01*
X106799743Y-140898432D02*
X106799743Y-140717003D01*
X106799743Y-140717003D02*
X106860219Y-140475099D01*
X106860219Y-140475099D02*
X106920696Y-140354146D01*
X106920696Y-140354146D02*
X107041648Y-140233194D01*
X107041648Y-140233194D02*
X107223077Y-140172718D01*
X107223077Y-140172718D02*
X107344029Y-140172718D01*
X107344029Y-140172718D02*
X107525458Y-140233194D01*
X107525458Y-140233194D02*
X107585934Y-140293670D01*
X108130219Y-141442718D02*
X108130219Y-140172718D01*
X108130219Y-140172718D02*
X108614029Y-140172718D01*
X108614029Y-140172718D02*
X108734981Y-140233194D01*
X108734981Y-140233194D02*
X108795458Y-140293670D01*
X108795458Y-140293670D02*
X108855934Y-140414622D01*
X108855934Y-140414622D02*
X108855934Y-140596051D01*
X108855934Y-140596051D02*
X108795458Y-140717003D01*
X108795458Y-140717003D02*
X108734981Y-140777480D01*
X108734981Y-140777480D02*
X108614029Y-140837956D01*
X108614029Y-140837956D02*
X108130219Y-140837956D01*
X109097839Y-141563670D02*
X110065458Y-141563670D01*
X110367838Y-141442718D02*
X110367838Y-140172718D01*
X110367838Y-140172718D02*
X110851648Y-140172718D01*
X110851648Y-140172718D02*
X110972600Y-140233194D01*
X110972600Y-140233194D02*
X111033077Y-140293670D01*
X111033077Y-140293670D02*
X111093553Y-140414622D01*
X111093553Y-140414622D02*
X111093553Y-140596051D01*
X111093553Y-140596051D02*
X111033077Y-140717003D01*
X111033077Y-140717003D02*
X110972600Y-140777480D01*
X110972600Y-140777480D02*
X110851648Y-140837956D01*
X110851648Y-140837956D02*
X110367838Y-140837956D01*
X111637838Y-141442718D02*
X111637838Y-140596051D01*
X111637838Y-140172718D02*
X111577362Y-140233194D01*
X111577362Y-140233194D02*
X111637838Y-140293670D01*
X111637838Y-140293670D02*
X111698315Y-140233194D01*
X111698315Y-140233194D02*
X111637838Y-140172718D01*
X111637838Y-140172718D02*
X111637838Y-140293670D01*
X112182124Y-141382242D02*
X112303077Y-141442718D01*
X112303077Y-141442718D02*
X112544981Y-141442718D01*
X112544981Y-141442718D02*
X112665934Y-141382242D01*
X112665934Y-141382242D02*
X112726410Y-141261289D01*
X112726410Y-141261289D02*
X112726410Y-141200813D01*
X112726410Y-141200813D02*
X112665934Y-141079861D01*
X112665934Y-141079861D02*
X112544981Y-141019384D01*
X112544981Y-141019384D02*
X112363553Y-141019384D01*
X112363553Y-141019384D02*
X112242600Y-140958908D01*
X112242600Y-140958908D02*
X112182124Y-140837956D01*
X112182124Y-140837956D02*
X112182124Y-140777480D01*
X112182124Y-140777480D02*
X112242600Y-140656527D01*
X112242600Y-140656527D02*
X112363553Y-140596051D01*
X112363553Y-140596051D02*
X112544981Y-140596051D01*
X112544981Y-140596051D02*
X112665934Y-140656527D01*
X113089267Y-140596051D02*
X113573076Y-140596051D01*
X113270695Y-140172718D02*
X113270695Y-141261289D01*
X113270695Y-141261289D02*
X113331172Y-141382242D01*
X113331172Y-141382242D02*
X113452124Y-141442718D01*
X113452124Y-141442718D02*
X113573076Y-141442718D01*
X114177838Y-141442718D02*
X114056886Y-141382242D01*
X114056886Y-141382242D02*
X113996409Y-141321765D01*
X113996409Y-141321765D02*
X113935933Y-141200813D01*
X113935933Y-141200813D02*
X113935933Y-140837956D01*
X113935933Y-140837956D02*
X113996409Y-140717003D01*
X113996409Y-140717003D02*
X114056886Y-140656527D01*
X114056886Y-140656527D02*
X114177838Y-140596051D01*
X114177838Y-140596051D02*
X114359267Y-140596051D01*
X114359267Y-140596051D02*
X114480219Y-140656527D01*
X114480219Y-140656527D02*
X114540695Y-140717003D01*
X114540695Y-140717003D02*
X114601171Y-140837956D01*
X114601171Y-140837956D02*
X114601171Y-141200813D01*
X114601171Y-141200813D02*
X114540695Y-141321765D01*
X114540695Y-141321765D02*
X114480219Y-141382242D01*
X114480219Y-141382242D02*
X114359267Y-141442718D01*
X114359267Y-141442718D02*
X114177838Y-141442718D01*
X115145457Y-140596051D02*
X115145457Y-141442718D01*
X115145457Y-140717003D02*
X115205934Y-140656527D01*
X115205934Y-140656527D02*
X115326886Y-140596051D01*
X115326886Y-140596051D02*
X115508315Y-140596051D01*
X115508315Y-140596051D02*
X115629267Y-140656527D01*
X115629267Y-140656527D02*
X115689743Y-140777480D01*
X115689743Y-140777480D02*
X115689743Y-141442718D01*
X116294505Y-141442718D02*
X116294505Y-140172718D01*
X116294505Y-140172718D02*
X116596886Y-140172718D01*
X116596886Y-140172718D02*
X116778315Y-140233194D01*
X116778315Y-140233194D02*
X116899267Y-140354146D01*
X116899267Y-140354146D02*
X116959744Y-140475099D01*
X116959744Y-140475099D02*
X117020220Y-140717003D01*
X117020220Y-140717003D02*
X117020220Y-140898432D01*
X117020220Y-140898432D02*
X116959744Y-141140337D01*
X116959744Y-141140337D02*
X116899267Y-141261289D01*
X116899267Y-141261289D02*
X116778315Y-141382242D01*
X116778315Y-141382242D02*
X116596886Y-141442718D01*
X116596886Y-141442718D02*
X116294505Y-141442718D01*
X117564505Y-141442718D02*
X117564505Y-140596051D01*
X117564505Y-140837956D02*
X117624982Y-140717003D01*
X117624982Y-140717003D02*
X117685458Y-140656527D01*
X117685458Y-140656527D02*
X117806410Y-140596051D01*
X117806410Y-140596051D02*
X117927363Y-140596051D01*
X118350695Y-141442718D02*
X118350695Y-140596051D01*
X118350695Y-140172718D02*
X118290219Y-140233194D01*
X118290219Y-140233194D02*
X118350695Y-140293670D01*
X118350695Y-140293670D02*
X118411172Y-140233194D01*
X118411172Y-140233194D02*
X118350695Y-140172718D01*
X118350695Y-140172718D02*
X118350695Y-140293670D01*
X118834505Y-140596051D02*
X119136886Y-141442718D01*
X119136886Y-141442718D02*
X119439267Y-140596051D01*
X120406886Y-141382242D02*
X120285934Y-141442718D01*
X120285934Y-141442718D02*
X120044029Y-141442718D01*
X120044029Y-141442718D02*
X119923076Y-141382242D01*
X119923076Y-141382242D02*
X119862600Y-141261289D01*
X119862600Y-141261289D02*
X119862600Y-140777480D01*
X119862600Y-140777480D02*
X119923076Y-140656527D01*
X119923076Y-140656527D02*
X120044029Y-140596051D01*
X120044029Y-140596051D02*
X120285934Y-140596051D01*
X120285934Y-140596051D02*
X120406886Y-140656527D01*
X120406886Y-140656527D02*
X120467362Y-140777480D01*
X120467362Y-140777480D02*
X120467362Y-140898432D01*
X120467362Y-140898432D02*
X119862600Y-141019384D01*
X121011647Y-141442718D02*
X121011647Y-140596051D01*
X121011647Y-140837956D02*
X121072124Y-140717003D01*
X121072124Y-140717003D02*
X121132600Y-140656527D01*
X121132600Y-140656527D02*
X121253552Y-140596051D01*
X121253552Y-140596051D02*
X121374505Y-140596051D01*
D14*
X131071271Y-106057342D02*
X131142700Y-106128770D01*
X131142700Y-106128770D02*
X131214128Y-106343056D01*
X131214128Y-106343056D02*
X131214128Y-106485913D01*
X131214128Y-106485913D02*
X131142700Y-106700199D01*
X131142700Y-106700199D02*
X130999842Y-106843056D01*
X130999842Y-106843056D02*
X130856985Y-106914485D01*
X130856985Y-106914485D02*
X130571271Y-106985913D01*
X130571271Y-106985913D02*
X130356985Y-106985913D01*
X130356985Y-106985913D02*
X130071271Y-106914485D01*
X130071271Y-106914485D02*
X129928414Y-106843056D01*
X129928414Y-106843056D02*
X129785557Y-106700199D01*
X129785557Y-106700199D02*
X129714128Y-106485913D01*
X129714128Y-106485913D02*
X129714128Y-106343056D01*
X129714128Y-106343056D02*
X129785557Y-106128770D01*
X129785557Y-106128770D02*
X129856985Y-106057342D01*
X131214128Y-105200199D02*
X131142700Y-105343056D01*
X131142700Y-105343056D02*
X131071271Y-105414485D01*
X131071271Y-105414485D02*
X130928414Y-105485913D01*
X130928414Y-105485913D02*
X130499842Y-105485913D01*
X130499842Y-105485913D02*
X130356985Y-105414485D01*
X130356985Y-105414485D02*
X130285557Y-105343056D01*
X130285557Y-105343056D02*
X130214128Y-105200199D01*
X130214128Y-105200199D02*
X130214128Y-104985913D01*
X130214128Y-104985913D02*
X130285557Y-104843056D01*
X130285557Y-104843056D02*
X130356985Y-104771628D01*
X130356985Y-104771628D02*
X130499842Y-104700199D01*
X130499842Y-104700199D02*
X130928414Y-104700199D01*
X130928414Y-104700199D02*
X131071271Y-104771628D01*
X131071271Y-104771628D02*
X131142700Y-104843056D01*
X131142700Y-104843056D02*
X131214128Y-104985913D01*
X131214128Y-104985913D02*
X131214128Y-105200199D01*
X130214128Y-104057342D02*
X131214128Y-104057342D01*
X130356985Y-104057342D02*
X130285557Y-103985913D01*
X130285557Y-103985913D02*
X130214128Y-103843056D01*
X130214128Y-103843056D02*
X130214128Y-103628770D01*
X130214128Y-103628770D02*
X130285557Y-103485913D01*
X130285557Y-103485913D02*
X130428414Y-103414485D01*
X130428414Y-103414485D02*
X131214128Y-103414485D01*
X130214128Y-102914484D02*
X130214128Y-102343056D01*
X129714128Y-102700199D02*
X130999842Y-102700199D01*
X130999842Y-102700199D02*
X131142700Y-102628770D01*
X131142700Y-102628770D02*
X131214128Y-102485913D01*
X131214128Y-102485913D02*
X131214128Y-102343056D01*
X131214128Y-101843056D02*
X130214128Y-101843056D01*
X130499842Y-101843056D02*
X130356985Y-101771627D01*
X130356985Y-101771627D02*
X130285557Y-101700199D01*
X130285557Y-101700199D02*
X130214128Y-101557341D01*
X130214128Y-101557341D02*
X130214128Y-101414484D01*
X131214128Y-100700199D02*
X131142700Y-100843056D01*
X131142700Y-100843056D02*
X131071271Y-100914485D01*
X131071271Y-100914485D02*
X130928414Y-100985913D01*
X130928414Y-100985913D02*
X130499842Y-100985913D01*
X130499842Y-100985913D02*
X130356985Y-100914485D01*
X130356985Y-100914485D02*
X130285557Y-100843056D01*
X130285557Y-100843056D02*
X130214128Y-100700199D01*
X130214128Y-100700199D02*
X130214128Y-100485913D01*
X130214128Y-100485913D02*
X130285557Y-100343056D01*
X130285557Y-100343056D02*
X130356985Y-100271628D01*
X130356985Y-100271628D02*
X130499842Y-100200199D01*
X130499842Y-100200199D02*
X130928414Y-100200199D01*
X130928414Y-100200199D02*
X131071271Y-100271628D01*
X131071271Y-100271628D02*
X131142700Y-100343056D01*
X131142700Y-100343056D02*
X131214128Y-100485913D01*
X131214128Y-100485913D02*
X131214128Y-100700199D01*
X131214128Y-99343056D02*
X131142700Y-99485913D01*
X131142700Y-99485913D02*
X130999842Y-99557342D01*
X130999842Y-99557342D02*
X129714128Y-99557342D01*
D12*
X120170957Y-140018542D02*
X120170957Y-139304257D01*
X120599528Y-140161399D02*
X119099528Y-139661399D01*
X119099528Y-139661399D02*
X120599528Y-139161399D01*
X120528100Y-138018543D02*
X120599528Y-138161400D01*
X120599528Y-138161400D02*
X120599528Y-138447114D01*
X120599528Y-138447114D02*
X120528100Y-138589971D01*
X120528100Y-138589971D02*
X120456671Y-138661400D01*
X120456671Y-138661400D02*
X120313814Y-138732828D01*
X120313814Y-138732828D02*
X119885242Y-138732828D01*
X119885242Y-138732828D02*
X119742385Y-138661400D01*
X119742385Y-138661400D02*
X119670957Y-138589971D01*
X119670957Y-138589971D02*
X119599528Y-138447114D01*
X119599528Y-138447114D02*
X119599528Y-138161400D01*
X119599528Y-138161400D02*
X119670957Y-138018543D01*
X119599528Y-137589971D02*
X119599528Y-137018543D01*
X119099528Y-137375686D02*
X120385242Y-137375686D01*
X120385242Y-137375686D02*
X120528100Y-137304257D01*
X120528100Y-137304257D02*
X120599528Y-137161400D01*
X120599528Y-137161400D02*
X120599528Y-137018543D01*
X119599528Y-135875686D02*
X120599528Y-135875686D01*
X119599528Y-136518543D02*
X120385242Y-136518543D01*
X120385242Y-136518543D02*
X120528100Y-136447114D01*
X120528100Y-136447114D02*
X120599528Y-136304257D01*
X120599528Y-136304257D02*
X120599528Y-136089971D01*
X120599528Y-136089971D02*
X120528100Y-135947114D01*
X120528100Y-135947114D02*
X120456671Y-135875686D01*
X120599528Y-134518543D02*
X119813814Y-134518543D01*
X119813814Y-134518543D02*
X119670957Y-134589971D01*
X119670957Y-134589971D02*
X119599528Y-134732828D01*
X119599528Y-134732828D02*
X119599528Y-135018543D01*
X119599528Y-135018543D02*
X119670957Y-135161400D01*
X120528100Y-134518543D02*
X120599528Y-134661400D01*
X120599528Y-134661400D02*
X120599528Y-135018543D01*
X120599528Y-135018543D02*
X120528100Y-135161400D01*
X120528100Y-135161400D02*
X120385242Y-135232828D01*
X120385242Y-135232828D02*
X120242385Y-135232828D01*
X120242385Y-135232828D02*
X120099528Y-135161400D01*
X120099528Y-135161400D02*
X120028100Y-135018543D01*
X120028100Y-135018543D02*
X120028100Y-134661400D01*
X120028100Y-134661400D02*
X119956671Y-134518543D01*
X119599528Y-134018542D02*
X119599528Y-133447114D01*
X119099528Y-133804257D02*
X120385242Y-133804257D01*
X120385242Y-133804257D02*
X120528100Y-133732828D01*
X120528100Y-133732828D02*
X120599528Y-133589971D01*
X120599528Y-133589971D02*
X120599528Y-133447114D01*
X120599528Y-132732828D02*
X120528100Y-132875685D01*
X120528100Y-132875685D02*
X120456671Y-132947114D01*
X120456671Y-132947114D02*
X120313814Y-133018542D01*
X120313814Y-133018542D02*
X119885242Y-133018542D01*
X119885242Y-133018542D02*
X119742385Y-132947114D01*
X119742385Y-132947114D02*
X119670957Y-132875685D01*
X119670957Y-132875685D02*
X119599528Y-132732828D01*
X119599528Y-132732828D02*
X119599528Y-132518542D01*
X119599528Y-132518542D02*
X119670957Y-132375685D01*
X119670957Y-132375685D02*
X119742385Y-132304257D01*
X119742385Y-132304257D02*
X119885242Y-132232828D01*
X119885242Y-132232828D02*
X120313814Y-132232828D01*
X120313814Y-132232828D02*
X120456671Y-132304257D01*
X120456671Y-132304257D02*
X120528100Y-132375685D01*
X120528100Y-132375685D02*
X120599528Y-132518542D01*
X120599528Y-132518542D02*
X120599528Y-132732828D01*
X120599528Y-131589971D02*
X119599528Y-131589971D01*
X119885242Y-131589971D02*
X119742385Y-131518542D01*
X119742385Y-131518542D02*
X119670957Y-131447114D01*
X119670957Y-131447114D02*
X119599528Y-131304256D01*
X119599528Y-131304256D02*
X119599528Y-131161399D01*
D11*
X98789346Y-105210427D02*
X98837727Y-105065284D01*
X98837727Y-105065284D02*
X98886108Y-105016903D01*
X98886108Y-105016903D02*
X98982870Y-104968522D01*
X98982870Y-104968522D02*
X99128013Y-104968522D01*
X99128013Y-104968522D02*
X99224775Y-105016903D01*
X99224775Y-105016903D02*
X99273156Y-105065284D01*
X99273156Y-105065284D02*
X99321536Y-105162046D01*
X99321536Y-105162046D02*
X99321536Y-105549094D01*
X99321536Y-105549094D02*
X98305536Y-105549094D01*
X98305536Y-105549094D02*
X98305536Y-105210427D01*
X98305536Y-105210427D02*
X98353917Y-105113665D01*
X98353917Y-105113665D02*
X98402298Y-105065284D01*
X98402298Y-105065284D02*
X98499060Y-105016903D01*
X98499060Y-105016903D02*
X98595822Y-105016903D01*
X98595822Y-105016903D02*
X98692584Y-105065284D01*
X98692584Y-105065284D02*
X98740965Y-105113665D01*
X98740965Y-105113665D02*
X98789346Y-105210427D01*
X98789346Y-105210427D02*
X98789346Y-105549094D01*
X99321536Y-104097665D02*
X98789346Y-104097665D01*
X98789346Y-104097665D02*
X98692584Y-104146046D01*
X98692584Y-104146046D02*
X98644203Y-104242808D01*
X98644203Y-104242808D02*
X98644203Y-104436332D01*
X98644203Y-104436332D02*
X98692584Y-104533094D01*
X99273156Y-104097665D02*
X99321536Y-104194427D01*
X99321536Y-104194427D02*
X99321536Y-104436332D01*
X99321536Y-104436332D02*
X99273156Y-104533094D01*
X99273156Y-104533094D02*
X99176394Y-104581475D01*
X99176394Y-104581475D02*
X99079632Y-104581475D01*
X99079632Y-104581475D02*
X98982870Y-104533094D01*
X98982870Y-104533094D02*
X98934489Y-104436332D01*
X98934489Y-104436332D02*
X98934489Y-104194427D01*
X98934489Y-104194427D02*
X98886108Y-104097665D01*
X98644203Y-103758999D02*
X98644203Y-103371951D01*
X98305536Y-103613856D02*
X99176394Y-103613856D01*
X99176394Y-103613856D02*
X99273156Y-103565475D01*
X99273156Y-103565475D02*
X99321536Y-103468713D01*
X99321536Y-103468713D02*
X99321536Y-103371951D01*
X98644203Y-103178428D02*
X98644203Y-102791380D01*
X98305536Y-103033285D02*
X99176394Y-103033285D01*
X99176394Y-103033285D02*
X99273156Y-102984904D01*
X99273156Y-102984904D02*
X99321536Y-102888142D01*
X99321536Y-102888142D02*
X99321536Y-102791380D01*
X98402298Y-102501095D02*
X98353917Y-102452714D01*
X98353917Y-102452714D02*
X98305536Y-102355952D01*
X98305536Y-102355952D02*
X98305536Y-102114047D01*
X98305536Y-102114047D02*
X98353917Y-102017285D01*
X98353917Y-102017285D02*
X98402298Y-101968904D01*
X98402298Y-101968904D02*
X98499060Y-101920523D01*
X98499060Y-101920523D02*
X98595822Y-101920523D01*
X98595822Y-101920523D02*
X98740965Y-101968904D01*
X98740965Y-101968904D02*
X99321536Y-102549476D01*
X99321536Y-102549476D02*
X99321536Y-101920523D01*
D12*
X130405614Y-122394942D02*
X130405614Y-121894942D01*
X131191328Y-121680656D02*
X131191328Y-122394942D01*
X131191328Y-122394942D02*
X129691328Y-122394942D01*
X129691328Y-122394942D02*
X129691328Y-121680656D01*
X130191328Y-121037799D02*
X131191328Y-121037799D01*
X130334185Y-121037799D02*
X130262757Y-120966370D01*
X130262757Y-120966370D02*
X130191328Y-120823513D01*
X130191328Y-120823513D02*
X130191328Y-120609227D01*
X130191328Y-120609227D02*
X130262757Y-120466370D01*
X130262757Y-120466370D02*
X130405614Y-120394942D01*
X130405614Y-120394942D02*
X131191328Y-120394942D01*
X131119900Y-119037799D02*
X131191328Y-119180656D01*
X131191328Y-119180656D02*
X131191328Y-119466370D01*
X131191328Y-119466370D02*
X131119900Y-119609227D01*
X131119900Y-119609227D02*
X131048471Y-119680656D01*
X131048471Y-119680656D02*
X130905614Y-119752084D01*
X130905614Y-119752084D02*
X130477042Y-119752084D01*
X130477042Y-119752084D02*
X130334185Y-119680656D01*
X130334185Y-119680656D02*
X130262757Y-119609227D01*
X130262757Y-119609227D02*
X130191328Y-119466370D01*
X130191328Y-119466370D02*
X130191328Y-119180656D01*
X130191328Y-119180656D02*
X130262757Y-119037799D01*
X131191328Y-118180656D02*
X131119900Y-118323513D01*
X131119900Y-118323513D02*
X131048471Y-118394942D01*
X131048471Y-118394942D02*
X130905614Y-118466370D01*
X130905614Y-118466370D02*
X130477042Y-118466370D01*
X130477042Y-118466370D02*
X130334185Y-118394942D01*
X130334185Y-118394942D02*
X130262757Y-118323513D01*
X130262757Y-118323513D02*
X130191328Y-118180656D01*
X130191328Y-118180656D02*
X130191328Y-117966370D01*
X130191328Y-117966370D02*
X130262757Y-117823513D01*
X130262757Y-117823513D02*
X130334185Y-117752085D01*
X130334185Y-117752085D02*
X130477042Y-117680656D01*
X130477042Y-117680656D02*
X130905614Y-117680656D01*
X130905614Y-117680656D02*
X131048471Y-117752085D01*
X131048471Y-117752085D02*
X131119900Y-117823513D01*
X131119900Y-117823513D02*
X131191328Y-117966370D01*
X131191328Y-117966370D02*
X131191328Y-118180656D01*
X131191328Y-116394942D02*
X129691328Y-116394942D01*
X131119900Y-116394942D02*
X131191328Y-116537799D01*
X131191328Y-116537799D02*
X131191328Y-116823513D01*
X131191328Y-116823513D02*
X131119900Y-116966370D01*
X131119900Y-116966370D02*
X131048471Y-117037799D01*
X131048471Y-117037799D02*
X130905614Y-117109227D01*
X130905614Y-117109227D02*
X130477042Y-117109227D01*
X130477042Y-117109227D02*
X130334185Y-117037799D01*
X130334185Y-117037799D02*
X130262757Y-116966370D01*
X130262757Y-116966370D02*
X130191328Y-116823513D01*
X130191328Y-116823513D02*
X130191328Y-116537799D01*
X130191328Y-116537799D02*
X130262757Y-116394942D01*
X131119900Y-115109227D02*
X131191328Y-115252084D01*
X131191328Y-115252084D02*
X131191328Y-115537799D01*
X131191328Y-115537799D02*
X131119900Y-115680656D01*
X131119900Y-115680656D02*
X130977042Y-115752084D01*
X130977042Y-115752084D02*
X130405614Y-115752084D01*
X130405614Y-115752084D02*
X130262757Y-115680656D01*
X130262757Y-115680656D02*
X130191328Y-115537799D01*
X130191328Y-115537799D02*
X130191328Y-115252084D01*
X130191328Y-115252084D02*
X130262757Y-115109227D01*
X130262757Y-115109227D02*
X130405614Y-115037799D01*
X130405614Y-115037799D02*
X130548471Y-115037799D01*
X130548471Y-115037799D02*
X130691328Y-115752084D01*
X131191328Y-114394942D02*
X130191328Y-114394942D01*
X130477042Y-114394942D02*
X130334185Y-114323513D01*
X130334185Y-114323513D02*
X130262757Y-114252085D01*
X130262757Y-114252085D02*
X130191328Y-114109227D01*
X130191328Y-114109227D02*
X130191328Y-113966370D01*
X131684523Y-73379819D02*
X131351190Y-72903628D01*
X131113095Y-73379819D02*
X131113095Y-72379819D01*
X131113095Y-72379819D02*
X131494047Y-72379819D01*
X131494047Y-72379819D02*
X131589285Y-72427438D01*
X131589285Y-72427438D02*
X131636904Y-72475057D01*
X131636904Y-72475057D02*
X131684523Y-72570295D01*
X131684523Y-72570295D02*
X131684523Y-72713152D01*
X131684523Y-72713152D02*
X131636904Y-72808390D01*
X131636904Y-72808390D02*
X131589285Y-72856009D01*
X131589285Y-72856009D02*
X131494047Y-72903628D01*
X131494047Y-72903628D02*
X131113095Y-72903628D01*
X132113095Y-73379819D02*
X132113095Y-72379819D01*
X132113095Y-72379819D02*
X132684523Y-73379819D01*
X132684523Y-73379819D02*
X132684523Y-72379819D01*
X133589285Y-72713152D02*
X133589285Y-73379819D01*
X133351190Y-72332200D02*
X133113095Y-73046485D01*
X133113095Y-73046485D02*
X133732142Y-73046485D01*
X134334819Y-85898333D02*
X135049104Y-85898333D01*
X135049104Y-85898333D02*
X135191961Y-85945952D01*
X135191961Y-85945952D02*
X135287200Y-86041190D01*
X135287200Y-86041190D02*
X135334819Y-86184047D01*
X135334819Y-86184047D02*
X135334819Y-86279285D01*
X134334819Y-84945952D02*
X134334819Y-85422142D01*
X134334819Y-85422142D02*
X134811009Y-85469761D01*
X134811009Y-85469761D02*
X134763390Y-85422142D01*
X134763390Y-85422142D02*
X134715771Y-85326904D01*
X134715771Y-85326904D02*
X134715771Y-85088809D01*
X134715771Y-85088809D02*
X134763390Y-84993571D01*
X134763390Y-84993571D02*
X134811009Y-84945952D01*
X134811009Y-84945952D02*
X134906247Y-84898333D01*
X134906247Y-84898333D02*
X135144342Y-84898333D01*
X135144342Y-84898333D02*
X135239580Y-84945952D01*
X135239580Y-84945952D02*
X135287200Y-84993571D01*
X135287200Y-84993571D02*
X135334819Y-85088809D01*
X135334819Y-85088809D02*
X135334819Y-85326904D01*
X135334819Y-85326904D02*
X135287200Y-85422142D01*
X135287200Y-85422142D02*
X135239580Y-85469761D01*
X113625333Y-139297580D02*
X113577714Y-139345200D01*
X113577714Y-139345200D02*
X113434857Y-139392819D01*
X113434857Y-139392819D02*
X113339619Y-139392819D01*
X113339619Y-139392819D02*
X113196762Y-139345200D01*
X113196762Y-139345200D02*
X113101524Y-139249961D01*
X113101524Y-139249961D02*
X113053905Y-139154723D01*
X113053905Y-139154723D02*
X113006286Y-138964247D01*
X113006286Y-138964247D02*
X113006286Y-138821390D01*
X113006286Y-138821390D02*
X113053905Y-138630914D01*
X113053905Y-138630914D02*
X113101524Y-138535676D01*
X113101524Y-138535676D02*
X113196762Y-138440438D01*
X113196762Y-138440438D02*
X113339619Y-138392819D01*
X113339619Y-138392819D02*
X113434857Y-138392819D01*
X113434857Y-138392819D02*
X113577714Y-138440438D01*
X113577714Y-138440438D02*
X113625333Y-138488057D01*
X114577714Y-139392819D02*
X114006286Y-139392819D01*
X114292000Y-139392819D02*
X114292000Y-138392819D01*
X114292000Y-138392819D02*
X114196762Y-138535676D01*
X114196762Y-138535676D02*
X114101524Y-138630914D01*
X114101524Y-138630914D02*
X114006286Y-138678533D01*
X99782333Y-141075580D02*
X99734714Y-141123200D01*
X99734714Y-141123200D02*
X99591857Y-141170819D01*
X99591857Y-141170819D02*
X99496619Y-141170819D01*
X99496619Y-141170819D02*
X99353762Y-141123200D01*
X99353762Y-141123200D02*
X99258524Y-141027961D01*
X99258524Y-141027961D02*
X99210905Y-140932723D01*
X99210905Y-140932723D02*
X99163286Y-140742247D01*
X99163286Y-140742247D02*
X99163286Y-140599390D01*
X99163286Y-140599390D02*
X99210905Y-140408914D01*
X99210905Y-140408914D02*
X99258524Y-140313676D01*
X99258524Y-140313676D02*
X99353762Y-140218438D01*
X99353762Y-140218438D02*
X99496619Y-140170819D01*
X99496619Y-140170819D02*
X99591857Y-140170819D01*
X99591857Y-140170819D02*
X99734714Y-140218438D01*
X99734714Y-140218438D02*
X99782333Y-140266057D01*
X100163286Y-140266057D02*
X100210905Y-140218438D01*
X100210905Y-140218438D02*
X100306143Y-140170819D01*
X100306143Y-140170819D02*
X100544238Y-140170819D01*
X100544238Y-140170819D02*
X100639476Y-140218438D01*
X100639476Y-140218438D02*
X100687095Y-140266057D01*
X100687095Y-140266057D02*
X100734714Y-140361295D01*
X100734714Y-140361295D02*
X100734714Y-140456533D01*
X100734714Y-140456533D02*
X100687095Y-140599390D01*
X100687095Y-140599390D02*
X100115667Y-141170819D01*
X100115667Y-141170819D02*
X100734714Y-141170819D01*
X100137933Y-139068980D02*
X100090314Y-139116600D01*
X100090314Y-139116600D02*
X99947457Y-139164219D01*
X99947457Y-139164219D02*
X99852219Y-139164219D01*
X99852219Y-139164219D02*
X99709362Y-139116600D01*
X99709362Y-139116600D02*
X99614124Y-139021361D01*
X99614124Y-139021361D02*
X99566505Y-138926123D01*
X99566505Y-138926123D02*
X99518886Y-138735647D01*
X99518886Y-138735647D02*
X99518886Y-138592790D01*
X99518886Y-138592790D02*
X99566505Y-138402314D01*
X99566505Y-138402314D02*
X99614124Y-138307076D01*
X99614124Y-138307076D02*
X99709362Y-138211838D01*
X99709362Y-138211838D02*
X99852219Y-138164219D01*
X99852219Y-138164219D02*
X99947457Y-138164219D01*
X99947457Y-138164219D02*
X100090314Y-138211838D01*
X100090314Y-138211838D02*
X100137933Y-138259457D01*
X100471267Y-138164219D02*
X101090314Y-138164219D01*
X101090314Y-138164219D02*
X100756981Y-138545171D01*
X100756981Y-138545171D02*
X100899838Y-138545171D01*
X100899838Y-138545171D02*
X100995076Y-138592790D01*
X100995076Y-138592790D02*
X101042695Y-138640409D01*
X101042695Y-138640409D02*
X101090314Y-138735647D01*
X101090314Y-138735647D02*
X101090314Y-138973742D01*
X101090314Y-138973742D02*
X101042695Y-139068980D01*
X101042695Y-139068980D02*
X100995076Y-139116600D01*
X100995076Y-139116600D02*
X100899838Y-139164219D01*
X100899838Y-139164219D02*
X100614124Y-139164219D01*
X100614124Y-139164219D02*
X100518886Y-139116600D01*
X100518886Y-139116600D02*
X100471267Y-139068980D01*
X112863333Y-92129780D02*
X112815714Y-92177400D01*
X112815714Y-92177400D02*
X112672857Y-92225019D01*
X112672857Y-92225019D02*
X112577619Y-92225019D01*
X112577619Y-92225019D02*
X112434762Y-92177400D01*
X112434762Y-92177400D02*
X112339524Y-92082161D01*
X112339524Y-92082161D02*
X112291905Y-91986923D01*
X112291905Y-91986923D02*
X112244286Y-91796447D01*
X112244286Y-91796447D02*
X112244286Y-91653590D01*
X112244286Y-91653590D02*
X112291905Y-91463114D01*
X112291905Y-91463114D02*
X112339524Y-91367876D01*
X112339524Y-91367876D02*
X112434762Y-91272638D01*
X112434762Y-91272638D02*
X112577619Y-91225019D01*
X112577619Y-91225019D02*
X112672857Y-91225019D01*
X112672857Y-91225019D02*
X112815714Y-91272638D01*
X112815714Y-91272638D02*
X112863333Y-91320257D01*
X113339524Y-92225019D02*
X113530000Y-92225019D01*
X113530000Y-92225019D02*
X113625238Y-92177400D01*
X113625238Y-92177400D02*
X113672857Y-92129780D01*
X113672857Y-92129780D02*
X113768095Y-91986923D01*
X113768095Y-91986923D02*
X113815714Y-91796447D01*
X113815714Y-91796447D02*
X113815714Y-91415495D01*
X113815714Y-91415495D02*
X113768095Y-91320257D01*
X113768095Y-91320257D02*
X113720476Y-91272638D01*
X113720476Y-91272638D02*
X113625238Y-91225019D01*
X113625238Y-91225019D02*
X113434762Y-91225019D01*
X113434762Y-91225019D02*
X113339524Y-91272638D01*
X113339524Y-91272638D02*
X113291905Y-91320257D01*
X113291905Y-91320257D02*
X113244286Y-91415495D01*
X113244286Y-91415495D02*
X113244286Y-91653590D01*
X113244286Y-91653590D02*
X113291905Y-91748828D01*
X113291905Y-91748828D02*
X113339524Y-91796447D01*
X113339524Y-91796447D02*
X113434762Y-91844066D01*
X113434762Y-91844066D02*
X113625238Y-91844066D01*
X113625238Y-91844066D02*
X113720476Y-91796447D01*
X113720476Y-91796447D02*
X113768095Y-91748828D01*
X113768095Y-91748828D02*
X113815714Y-91653590D01*
X110456742Y-78489980D02*
X110409123Y-78537600D01*
X110409123Y-78537600D02*
X110266266Y-78585219D01*
X110266266Y-78585219D02*
X110171028Y-78585219D01*
X110171028Y-78585219D02*
X110028171Y-78537600D01*
X110028171Y-78537600D02*
X109932933Y-78442361D01*
X109932933Y-78442361D02*
X109885314Y-78347123D01*
X109885314Y-78347123D02*
X109837695Y-78156647D01*
X109837695Y-78156647D02*
X109837695Y-78013790D01*
X109837695Y-78013790D02*
X109885314Y-77823314D01*
X109885314Y-77823314D02*
X109932933Y-77728076D01*
X109932933Y-77728076D02*
X110028171Y-77632838D01*
X110028171Y-77632838D02*
X110171028Y-77585219D01*
X110171028Y-77585219D02*
X110266266Y-77585219D01*
X110266266Y-77585219D02*
X110409123Y-77632838D01*
X110409123Y-77632838D02*
X110456742Y-77680457D01*
X111409123Y-78585219D02*
X110837695Y-78585219D01*
X111123409Y-78585219D02*
X111123409Y-77585219D01*
X111123409Y-77585219D02*
X111028171Y-77728076D01*
X111028171Y-77728076D02*
X110932933Y-77823314D01*
X110932933Y-77823314D02*
X110837695Y-77870933D01*
X111790076Y-77680457D02*
X111837695Y-77632838D01*
X111837695Y-77632838D02*
X111932933Y-77585219D01*
X111932933Y-77585219D02*
X112171028Y-77585219D01*
X112171028Y-77585219D02*
X112266266Y-77632838D01*
X112266266Y-77632838D02*
X112313885Y-77680457D01*
X112313885Y-77680457D02*
X112361504Y-77775695D01*
X112361504Y-77775695D02*
X112361504Y-77870933D01*
X112361504Y-77870933D02*
X112313885Y-78013790D01*
X112313885Y-78013790D02*
X111742457Y-78585219D01*
X111742457Y-78585219D02*
X112361504Y-78585219D01*
X110532942Y-80496580D02*
X110485323Y-80544200D01*
X110485323Y-80544200D02*
X110342466Y-80591819D01*
X110342466Y-80591819D02*
X110247228Y-80591819D01*
X110247228Y-80591819D02*
X110104371Y-80544200D01*
X110104371Y-80544200D02*
X110009133Y-80448961D01*
X110009133Y-80448961D02*
X109961514Y-80353723D01*
X109961514Y-80353723D02*
X109913895Y-80163247D01*
X109913895Y-80163247D02*
X109913895Y-80020390D01*
X109913895Y-80020390D02*
X109961514Y-79829914D01*
X109961514Y-79829914D02*
X110009133Y-79734676D01*
X110009133Y-79734676D02*
X110104371Y-79639438D01*
X110104371Y-79639438D02*
X110247228Y-79591819D01*
X110247228Y-79591819D02*
X110342466Y-79591819D01*
X110342466Y-79591819D02*
X110485323Y-79639438D01*
X110485323Y-79639438D02*
X110532942Y-79687057D01*
X111485323Y-80591819D02*
X110913895Y-80591819D01*
X111199609Y-80591819D02*
X111199609Y-79591819D01*
X111199609Y-79591819D02*
X111104371Y-79734676D01*
X111104371Y-79734676D02*
X111009133Y-79829914D01*
X111009133Y-79829914D02*
X110913895Y-79877533D01*
X111818657Y-79591819D02*
X112437704Y-79591819D01*
X112437704Y-79591819D02*
X112104371Y-79972771D01*
X112104371Y-79972771D02*
X112247228Y-79972771D01*
X112247228Y-79972771D02*
X112342466Y-80020390D01*
X112342466Y-80020390D02*
X112390085Y-80068009D01*
X112390085Y-80068009D02*
X112437704Y-80163247D01*
X112437704Y-80163247D02*
X112437704Y-80401342D01*
X112437704Y-80401342D02*
X112390085Y-80496580D01*
X112390085Y-80496580D02*
X112342466Y-80544200D01*
X112342466Y-80544200D02*
X112247228Y-80591819D01*
X112247228Y-80591819D02*
X111961514Y-80591819D01*
X111961514Y-80591819D02*
X111866276Y-80544200D01*
X111866276Y-80544200D02*
X111818657Y-80496580D01*
X112627580Y-88095057D02*
X112675200Y-88142676D01*
X112675200Y-88142676D02*
X112722819Y-88285533D01*
X112722819Y-88285533D02*
X112722819Y-88380771D01*
X112722819Y-88380771D02*
X112675200Y-88523628D01*
X112675200Y-88523628D02*
X112579961Y-88618866D01*
X112579961Y-88618866D02*
X112484723Y-88666485D01*
X112484723Y-88666485D02*
X112294247Y-88714104D01*
X112294247Y-88714104D02*
X112151390Y-88714104D01*
X112151390Y-88714104D02*
X111960914Y-88666485D01*
X111960914Y-88666485D02*
X111865676Y-88618866D01*
X111865676Y-88618866D02*
X111770438Y-88523628D01*
X111770438Y-88523628D02*
X111722819Y-88380771D01*
X111722819Y-88380771D02*
X111722819Y-88285533D01*
X111722819Y-88285533D02*
X111770438Y-88142676D01*
X111770438Y-88142676D02*
X111818057Y-88095057D01*
X112722819Y-87142676D02*
X112722819Y-87714104D01*
X112722819Y-87428390D02*
X111722819Y-87428390D01*
X111722819Y-87428390D02*
X111865676Y-87523628D01*
X111865676Y-87523628D02*
X111960914Y-87618866D01*
X111960914Y-87618866D02*
X112008533Y-87714104D01*
X112056152Y-86285533D02*
X112722819Y-86285533D01*
X111675200Y-86523628D02*
X112389485Y-86761723D01*
X112389485Y-86761723D02*
X112389485Y-86142676D01*
X99229942Y-91008580D02*
X99182323Y-91056200D01*
X99182323Y-91056200D02*
X99039466Y-91103819D01*
X99039466Y-91103819D02*
X98944228Y-91103819D01*
X98944228Y-91103819D02*
X98801371Y-91056200D01*
X98801371Y-91056200D02*
X98706133Y-90960961D01*
X98706133Y-90960961D02*
X98658514Y-90865723D01*
X98658514Y-90865723D02*
X98610895Y-90675247D01*
X98610895Y-90675247D02*
X98610895Y-90532390D01*
X98610895Y-90532390D02*
X98658514Y-90341914D01*
X98658514Y-90341914D02*
X98706133Y-90246676D01*
X98706133Y-90246676D02*
X98801371Y-90151438D01*
X98801371Y-90151438D02*
X98944228Y-90103819D01*
X98944228Y-90103819D02*
X99039466Y-90103819D01*
X99039466Y-90103819D02*
X99182323Y-90151438D01*
X99182323Y-90151438D02*
X99229942Y-90199057D01*
X100182323Y-91103819D02*
X99610895Y-91103819D01*
X99896609Y-91103819D02*
X99896609Y-90103819D01*
X99896609Y-90103819D02*
X99801371Y-90246676D01*
X99801371Y-90246676D02*
X99706133Y-90341914D01*
X99706133Y-90341914D02*
X99610895Y-90389533D01*
X100658514Y-91103819D02*
X100848990Y-91103819D01*
X100848990Y-91103819D02*
X100944228Y-91056200D01*
X100944228Y-91056200D02*
X100991847Y-91008580D01*
X100991847Y-91008580D02*
X101087085Y-90865723D01*
X101087085Y-90865723D02*
X101134704Y-90675247D01*
X101134704Y-90675247D02*
X101134704Y-90294295D01*
X101134704Y-90294295D02*
X101087085Y-90199057D01*
X101087085Y-90199057D02*
X101039466Y-90151438D01*
X101039466Y-90151438D02*
X100944228Y-90103819D01*
X100944228Y-90103819D02*
X100753752Y-90103819D01*
X100753752Y-90103819D02*
X100658514Y-90151438D01*
X100658514Y-90151438D02*
X100610895Y-90199057D01*
X100610895Y-90199057D02*
X100563276Y-90294295D01*
X100563276Y-90294295D02*
X100563276Y-90532390D01*
X100563276Y-90532390D02*
X100610895Y-90627628D01*
X100610895Y-90627628D02*
X100658514Y-90675247D01*
X100658514Y-90675247D02*
X100753752Y-90722866D01*
X100753752Y-90722866D02*
X100944228Y-90722866D01*
X100944228Y-90722866D02*
X101039466Y-90675247D01*
X101039466Y-90675247D02*
X101087085Y-90627628D01*
X101087085Y-90627628D02*
X101134704Y-90532390D01*
X100609780Y-104782857D02*
X100657400Y-104830476D01*
X100657400Y-104830476D02*
X100705019Y-104973333D01*
X100705019Y-104973333D02*
X100705019Y-105068571D01*
X100705019Y-105068571D02*
X100657400Y-105211428D01*
X100657400Y-105211428D02*
X100562161Y-105306666D01*
X100562161Y-105306666D02*
X100466923Y-105354285D01*
X100466923Y-105354285D02*
X100276447Y-105401904D01*
X100276447Y-105401904D02*
X100133590Y-105401904D01*
X100133590Y-105401904D02*
X99943114Y-105354285D01*
X99943114Y-105354285D02*
X99847876Y-105306666D01*
X99847876Y-105306666D02*
X99752638Y-105211428D01*
X99752638Y-105211428D02*
X99705019Y-105068571D01*
X99705019Y-105068571D02*
X99705019Y-104973333D01*
X99705019Y-104973333D02*
X99752638Y-104830476D01*
X99752638Y-104830476D02*
X99800257Y-104782857D01*
X99800257Y-104401904D02*
X99752638Y-104354285D01*
X99752638Y-104354285D02*
X99705019Y-104259047D01*
X99705019Y-104259047D02*
X99705019Y-104020952D01*
X99705019Y-104020952D02*
X99752638Y-103925714D01*
X99752638Y-103925714D02*
X99800257Y-103878095D01*
X99800257Y-103878095D02*
X99895495Y-103830476D01*
X99895495Y-103830476D02*
X99990733Y-103830476D01*
X99990733Y-103830476D02*
X100133590Y-103878095D01*
X100133590Y-103878095D02*
X100705019Y-104449523D01*
X100705019Y-104449523D02*
X100705019Y-103830476D01*
X100038352Y-102973333D02*
X100705019Y-102973333D01*
X99657400Y-103211428D02*
X100371685Y-103449523D01*
X100371685Y-103449523D02*
X100371685Y-102830476D01*
X91889342Y-78489980D02*
X91841723Y-78537600D01*
X91841723Y-78537600D02*
X91698866Y-78585219D01*
X91698866Y-78585219D02*
X91603628Y-78585219D01*
X91603628Y-78585219D02*
X91460771Y-78537600D01*
X91460771Y-78537600D02*
X91365533Y-78442361D01*
X91365533Y-78442361D02*
X91317914Y-78347123D01*
X91317914Y-78347123D02*
X91270295Y-78156647D01*
X91270295Y-78156647D02*
X91270295Y-78013790D01*
X91270295Y-78013790D02*
X91317914Y-77823314D01*
X91317914Y-77823314D02*
X91365533Y-77728076D01*
X91365533Y-77728076D02*
X91460771Y-77632838D01*
X91460771Y-77632838D02*
X91603628Y-77585219D01*
X91603628Y-77585219D02*
X91698866Y-77585219D01*
X91698866Y-77585219D02*
X91841723Y-77632838D01*
X91841723Y-77632838D02*
X91889342Y-77680457D01*
X92270295Y-77680457D02*
X92317914Y-77632838D01*
X92317914Y-77632838D02*
X92413152Y-77585219D01*
X92413152Y-77585219D02*
X92651247Y-77585219D01*
X92651247Y-77585219D02*
X92746485Y-77632838D01*
X92746485Y-77632838D02*
X92794104Y-77680457D01*
X92794104Y-77680457D02*
X92841723Y-77775695D01*
X92841723Y-77775695D02*
X92841723Y-77870933D01*
X92841723Y-77870933D02*
X92794104Y-78013790D01*
X92794104Y-78013790D02*
X92222676Y-78585219D01*
X92222676Y-78585219D02*
X92841723Y-78585219D01*
X93413152Y-78013790D02*
X93317914Y-77966171D01*
X93317914Y-77966171D02*
X93270295Y-77918552D01*
X93270295Y-77918552D02*
X93222676Y-77823314D01*
X93222676Y-77823314D02*
X93222676Y-77775695D01*
X93222676Y-77775695D02*
X93270295Y-77680457D01*
X93270295Y-77680457D02*
X93317914Y-77632838D01*
X93317914Y-77632838D02*
X93413152Y-77585219D01*
X93413152Y-77585219D02*
X93603628Y-77585219D01*
X93603628Y-77585219D02*
X93698866Y-77632838D01*
X93698866Y-77632838D02*
X93746485Y-77680457D01*
X93746485Y-77680457D02*
X93794104Y-77775695D01*
X93794104Y-77775695D02*
X93794104Y-77823314D01*
X93794104Y-77823314D02*
X93746485Y-77918552D01*
X93746485Y-77918552D02*
X93698866Y-77966171D01*
X93698866Y-77966171D02*
X93603628Y-78013790D01*
X93603628Y-78013790D02*
X93413152Y-78013790D01*
X93413152Y-78013790D02*
X93317914Y-78061409D01*
X93317914Y-78061409D02*
X93270295Y-78109028D01*
X93270295Y-78109028D02*
X93222676Y-78204266D01*
X93222676Y-78204266D02*
X93222676Y-78394742D01*
X93222676Y-78394742D02*
X93270295Y-78489980D01*
X93270295Y-78489980D02*
X93317914Y-78537600D01*
X93317914Y-78537600D02*
X93413152Y-78585219D01*
X93413152Y-78585219D02*
X93603628Y-78585219D01*
X93603628Y-78585219D02*
X93698866Y-78537600D01*
X93698866Y-78537600D02*
X93746485Y-78489980D01*
X93746485Y-78489980D02*
X93794104Y-78394742D01*
X93794104Y-78394742D02*
X93794104Y-78204266D01*
X93794104Y-78204266D02*
X93746485Y-78109028D01*
X93746485Y-78109028D02*
X93698866Y-78061409D01*
X93698866Y-78061409D02*
X93603628Y-78013790D01*
X117301180Y-124874257D02*
X117348800Y-124921876D01*
X117348800Y-124921876D02*
X117396419Y-125064733D01*
X117396419Y-125064733D02*
X117396419Y-125159971D01*
X117396419Y-125159971D02*
X117348800Y-125302828D01*
X117348800Y-125302828D02*
X117253561Y-125398066D01*
X117253561Y-125398066D02*
X117158323Y-125445685D01*
X117158323Y-125445685D02*
X116967847Y-125493304D01*
X116967847Y-125493304D02*
X116824990Y-125493304D01*
X116824990Y-125493304D02*
X116634514Y-125445685D01*
X116634514Y-125445685D02*
X116539276Y-125398066D01*
X116539276Y-125398066D02*
X116444038Y-125302828D01*
X116444038Y-125302828D02*
X116396419Y-125159971D01*
X116396419Y-125159971D02*
X116396419Y-125064733D01*
X116396419Y-125064733D02*
X116444038Y-124921876D01*
X116444038Y-124921876D02*
X116491657Y-124874257D01*
X116396419Y-124540923D02*
X116396419Y-123921876D01*
X116396419Y-123921876D02*
X116777371Y-124255209D01*
X116777371Y-124255209D02*
X116777371Y-124112352D01*
X116777371Y-124112352D02*
X116824990Y-124017114D01*
X116824990Y-124017114D02*
X116872609Y-123969495D01*
X116872609Y-123969495D02*
X116967847Y-123921876D01*
X116967847Y-123921876D02*
X117205942Y-123921876D01*
X117205942Y-123921876D02*
X117301180Y-123969495D01*
X117301180Y-123969495D02*
X117348800Y-124017114D01*
X117348800Y-124017114D02*
X117396419Y-124112352D01*
X117396419Y-124112352D02*
X117396419Y-124398066D01*
X117396419Y-124398066D02*
X117348800Y-124493304D01*
X117348800Y-124493304D02*
X117301180Y-124540923D01*
X116396419Y-123302828D02*
X116396419Y-123207590D01*
X116396419Y-123207590D02*
X116444038Y-123112352D01*
X116444038Y-123112352D02*
X116491657Y-123064733D01*
X116491657Y-123064733D02*
X116586895Y-123017114D01*
X116586895Y-123017114D02*
X116777371Y-122969495D01*
X116777371Y-122969495D02*
X117015466Y-122969495D01*
X117015466Y-122969495D02*
X117205942Y-123017114D01*
X117205942Y-123017114D02*
X117301180Y-123064733D01*
X117301180Y-123064733D02*
X117348800Y-123112352D01*
X117348800Y-123112352D02*
X117396419Y-123207590D01*
X117396419Y-123207590D02*
X117396419Y-123302828D01*
X117396419Y-123302828D02*
X117348800Y-123398066D01*
X117348800Y-123398066D02*
X117301180Y-123445685D01*
X117301180Y-123445685D02*
X117205942Y-123493304D01*
X117205942Y-123493304D02*
X117015466Y-123540923D01*
X117015466Y-123540923D02*
X116777371Y-123540923D01*
X116777371Y-123540923D02*
X116586895Y-123493304D01*
X116586895Y-123493304D02*
X116491657Y-123445685D01*
X116491657Y-123445685D02*
X116444038Y-123398066D01*
X116444038Y-123398066D02*
X116396419Y-123302828D01*
X135254819Y-79088094D02*
X134254819Y-79088094D01*
X134254819Y-79088094D02*
X134254819Y-78849999D01*
X134254819Y-78849999D02*
X134302438Y-78707142D01*
X134302438Y-78707142D02*
X134397676Y-78611904D01*
X134397676Y-78611904D02*
X134492914Y-78564285D01*
X134492914Y-78564285D02*
X134683390Y-78516666D01*
X134683390Y-78516666D02*
X134826247Y-78516666D01*
X134826247Y-78516666D02*
X135016723Y-78564285D01*
X135016723Y-78564285D02*
X135111961Y-78611904D01*
X135111961Y-78611904D02*
X135207200Y-78707142D01*
X135207200Y-78707142D02*
X135254819Y-78849999D01*
X135254819Y-78849999D02*
X135254819Y-79088094D01*
X134254819Y-77659523D02*
X134254819Y-77849999D01*
X134254819Y-77849999D02*
X134302438Y-77945237D01*
X134302438Y-77945237D02*
X134350057Y-77992856D01*
X134350057Y-77992856D02*
X134492914Y-78088094D01*
X134492914Y-78088094D02*
X134683390Y-78135713D01*
X134683390Y-78135713D02*
X135064342Y-78135713D01*
X135064342Y-78135713D02*
X135159580Y-78088094D01*
X135159580Y-78088094D02*
X135207200Y-78040475D01*
X135207200Y-78040475D02*
X135254819Y-77945237D01*
X135254819Y-77945237D02*
X135254819Y-77754761D01*
X135254819Y-77754761D02*
X135207200Y-77659523D01*
X135207200Y-77659523D02*
X135159580Y-77611904D01*
X135159580Y-77611904D02*
X135064342Y-77564285D01*
X135064342Y-77564285D02*
X134826247Y-77564285D01*
X134826247Y-77564285D02*
X134731009Y-77611904D01*
X134731009Y-77611904D02*
X134683390Y-77659523D01*
X134683390Y-77659523D02*
X134635771Y-77754761D01*
X134635771Y-77754761D02*
X134635771Y-77945237D01*
X134635771Y-77945237D02*
X134683390Y-78040475D01*
X134683390Y-78040475D02*
X134731009Y-78088094D01*
X134731009Y-78088094D02*
X134826247Y-78135713D01*
X98519504Y-124055887D02*
X99233789Y-124055887D01*
X99233789Y-124055887D02*
X99376646Y-124103506D01*
X99376646Y-124103506D02*
X99471885Y-124198744D01*
X99471885Y-124198744D02*
X99519504Y-124341601D01*
X99519504Y-124341601D02*
X99519504Y-124436839D01*
X98519504Y-123674934D02*
X98519504Y-123055887D01*
X98519504Y-123055887D02*
X98900456Y-123389220D01*
X98900456Y-123389220D02*
X98900456Y-123246363D01*
X98900456Y-123246363D02*
X98948075Y-123151125D01*
X98948075Y-123151125D02*
X98995694Y-123103506D01*
X98995694Y-123103506D02*
X99090932Y-123055887D01*
X99090932Y-123055887D02*
X99329027Y-123055887D01*
X99329027Y-123055887D02*
X99424265Y-123103506D01*
X99424265Y-123103506D02*
X99471885Y-123151125D01*
X99471885Y-123151125D02*
X99519504Y-123246363D01*
X99519504Y-123246363D02*
X99519504Y-123532077D01*
X99519504Y-123532077D02*
X99471885Y-123627315D01*
X99471885Y-123627315D02*
X99424265Y-123674934D01*
X98514819Y-108530923D02*
X99229104Y-108530923D01*
X99229104Y-108530923D02*
X99371961Y-108578542D01*
X99371961Y-108578542D02*
X99467200Y-108673780D01*
X99467200Y-108673780D02*
X99514819Y-108816637D01*
X99514819Y-108816637D02*
X99514819Y-108911875D01*
X99514819Y-107530923D02*
X99514819Y-108102351D01*
X99514819Y-107816637D02*
X98514819Y-107816637D01*
X98514819Y-107816637D02*
X98657676Y-107911875D01*
X98657676Y-107911875D02*
X98752914Y-108007113D01*
X98752914Y-108007113D02*
X98800533Y-108102351D01*
X98514819Y-106911875D02*
X98514819Y-106816637D01*
X98514819Y-106816637D02*
X98562438Y-106721399D01*
X98562438Y-106721399D02*
X98610057Y-106673780D01*
X98610057Y-106673780D02*
X98705295Y-106626161D01*
X98705295Y-106626161D02*
X98895771Y-106578542D01*
X98895771Y-106578542D02*
X99133866Y-106578542D01*
X99133866Y-106578542D02*
X99324342Y-106626161D01*
X99324342Y-106626161D02*
X99419580Y-106673780D01*
X99419580Y-106673780D02*
X99467200Y-106721399D01*
X99467200Y-106721399D02*
X99514819Y-106816637D01*
X99514819Y-106816637D02*
X99514819Y-106911875D01*
X99514819Y-106911875D02*
X99467200Y-107007113D01*
X99467200Y-107007113D02*
X99419580Y-107054732D01*
X99419580Y-107054732D02*
X99324342Y-107102351D01*
X99324342Y-107102351D02*
X99133866Y-107149970D01*
X99133866Y-107149970D02*
X98895771Y-107149970D01*
X98895771Y-107149970D02*
X98705295Y-107102351D01*
X98705295Y-107102351D02*
X98610057Y-107054732D01*
X98610057Y-107054732D02*
X98562438Y-107007113D01*
X98562438Y-107007113D02*
X98514819Y-106911875D01*
X98260819Y-116354123D02*
X98975104Y-116354123D01*
X98975104Y-116354123D02*
X99117961Y-116401742D01*
X99117961Y-116401742D02*
X99213200Y-116496980D01*
X99213200Y-116496980D02*
X99260819Y-116639837D01*
X99260819Y-116639837D02*
X99260819Y-116735075D01*
X99260819Y-115354123D02*
X99260819Y-115925551D01*
X99260819Y-115639837D02*
X98260819Y-115639837D01*
X98260819Y-115639837D02*
X98403676Y-115735075D01*
X98403676Y-115735075D02*
X98498914Y-115830313D01*
X98498914Y-115830313D02*
X98546533Y-115925551D01*
X99260819Y-114401742D02*
X99260819Y-114973170D01*
X99260819Y-114687456D02*
X98260819Y-114687456D01*
X98260819Y-114687456D02*
X98403676Y-114782694D01*
X98403676Y-114782694D02*
X98498914Y-114877932D01*
X98498914Y-114877932D02*
X98546533Y-114973170D01*
D15*
X129739164Y-135244114D02*
X130827735Y-135244114D01*
X130827735Y-135244114D02*
X131045450Y-135316685D01*
X131045450Y-135316685D02*
X131190593Y-135461828D01*
X131190593Y-135461828D02*
X131263164Y-135679542D01*
X131263164Y-135679542D02*
X131263164Y-135824685D01*
X131263164Y-133720114D02*
X131263164Y-134590971D01*
X131263164Y-134155542D02*
X129739164Y-134155542D01*
X129739164Y-134155542D02*
X129956878Y-134300685D01*
X129956878Y-134300685D02*
X130102021Y-134445828D01*
X130102021Y-134445828D02*
X130174593Y-134590971D01*
X129739164Y-133212113D02*
X129739164Y-132196113D01*
X129739164Y-132196113D02*
X131263164Y-132849256D01*
D12*
X117022666Y-74257819D02*
X117022666Y-74972104D01*
X117022666Y-74972104D02*
X116975047Y-75114961D01*
X116975047Y-75114961D02*
X116879809Y-75210200D01*
X116879809Y-75210200D02*
X116736952Y-75257819D01*
X116736952Y-75257819D02*
X116641714Y-75257819D01*
X117498857Y-75257819D02*
X117498857Y-74257819D01*
X117498857Y-74257819D02*
X117879809Y-74257819D01*
X117879809Y-74257819D02*
X117975047Y-74305438D01*
X117975047Y-74305438D02*
X118022666Y-74353057D01*
X118022666Y-74353057D02*
X118070285Y-74448295D01*
X118070285Y-74448295D02*
X118070285Y-74591152D01*
X118070285Y-74591152D02*
X118022666Y-74686390D01*
X118022666Y-74686390D02*
X117975047Y-74734009D01*
X117975047Y-74734009D02*
X117879809Y-74781628D01*
X117879809Y-74781628D02*
X117498857Y-74781628D01*
X119022666Y-75257819D02*
X118451238Y-75257819D01*
X118736952Y-75257819D02*
X118736952Y-74257819D01*
X118736952Y-74257819D02*
X118641714Y-74400676D01*
X118641714Y-74400676D02*
X118546476Y-74495914D01*
X118546476Y-74495914D02*
X118451238Y-74543533D01*
X122731419Y-76830133D02*
X123445704Y-76830133D01*
X123445704Y-76830133D02*
X123588561Y-76877752D01*
X123588561Y-76877752D02*
X123683800Y-76972990D01*
X123683800Y-76972990D02*
X123731419Y-77115847D01*
X123731419Y-77115847D02*
X123731419Y-77211085D01*
X123731419Y-76353942D02*
X122731419Y-76353942D01*
X122731419Y-76353942D02*
X122731419Y-75972990D01*
X122731419Y-75972990D02*
X122779038Y-75877752D01*
X122779038Y-75877752D02*
X122826657Y-75830133D01*
X122826657Y-75830133D02*
X122921895Y-75782514D01*
X122921895Y-75782514D02*
X123064752Y-75782514D01*
X123064752Y-75782514D02*
X123159990Y-75830133D01*
X123159990Y-75830133D02*
X123207609Y-75877752D01*
X123207609Y-75877752D02*
X123255228Y-75972990D01*
X123255228Y-75972990D02*
X123255228Y-76353942D01*
X122826657Y-75401561D02*
X122779038Y-75353942D01*
X122779038Y-75353942D02*
X122731419Y-75258704D01*
X122731419Y-75258704D02*
X122731419Y-75020609D01*
X122731419Y-75020609D02*
X122779038Y-74925371D01*
X122779038Y-74925371D02*
X122826657Y-74877752D01*
X122826657Y-74877752D02*
X122921895Y-74830133D01*
X122921895Y-74830133D02*
X123017133Y-74830133D01*
X123017133Y-74830133D02*
X123159990Y-74877752D01*
X123159990Y-74877752D02*
X123731419Y-75449180D01*
X123731419Y-75449180D02*
X123731419Y-74830133D01*
X116409000Y-128597114D02*
X116456619Y-128692352D01*
X116456619Y-128692352D02*
X116456619Y-128882828D01*
X116456619Y-128882828D02*
X116409000Y-128978066D01*
X116409000Y-128978066D02*
X116313761Y-129025685D01*
X116313761Y-129025685D02*
X115932809Y-129025685D01*
X115932809Y-129025685D02*
X115837571Y-128978066D01*
X115837571Y-128978066D02*
X115789952Y-128882828D01*
X115789952Y-128882828D02*
X115789952Y-128692352D01*
X115789952Y-128692352D02*
X115837571Y-128597114D01*
X115837571Y-128597114D02*
X115932809Y-128549495D01*
X115932809Y-128549495D02*
X116028047Y-128549495D01*
X116028047Y-128549495D02*
X116123285Y-129025685D01*
X116456619Y-127597114D02*
X116456619Y-128168542D01*
X116456619Y-127882828D02*
X115456619Y-127882828D01*
X115456619Y-127882828D02*
X115599476Y-127978066D01*
X115599476Y-127978066D02*
X115694714Y-128073304D01*
X115694714Y-128073304D02*
X115742333Y-128168542D01*
X112299761Y-126788057D02*
X112204523Y-126740438D01*
X112204523Y-126740438D02*
X112109285Y-126645200D01*
X112109285Y-126645200D02*
X111966428Y-126502342D01*
X111966428Y-126502342D02*
X111871190Y-126454723D01*
X111871190Y-126454723D02*
X111775952Y-126454723D01*
X111823571Y-126692819D02*
X111728333Y-126645200D01*
X111728333Y-126645200D02*
X111633095Y-126549961D01*
X111633095Y-126549961D02*
X111585476Y-126359485D01*
X111585476Y-126359485D02*
X111585476Y-126026152D01*
X111585476Y-126026152D02*
X111633095Y-125835676D01*
X111633095Y-125835676D02*
X111728333Y-125740438D01*
X111728333Y-125740438D02*
X111823571Y-125692819D01*
X111823571Y-125692819D02*
X112014047Y-125692819D01*
X112014047Y-125692819D02*
X112109285Y-125740438D01*
X112109285Y-125740438D02*
X112204523Y-125835676D01*
X112204523Y-125835676D02*
X112252142Y-126026152D01*
X112252142Y-126026152D02*
X112252142Y-126359485D01*
X112252142Y-126359485D02*
X112204523Y-126549961D01*
X112204523Y-126549961D02*
X112109285Y-126645200D01*
X112109285Y-126645200D02*
X112014047Y-126692819D01*
X112014047Y-126692819D02*
X111823571Y-126692819D01*
X112633095Y-125788057D02*
X112680714Y-125740438D01*
X112680714Y-125740438D02*
X112775952Y-125692819D01*
X112775952Y-125692819D02*
X113014047Y-125692819D01*
X113014047Y-125692819D02*
X113109285Y-125740438D01*
X113109285Y-125740438D02*
X113156904Y-125788057D01*
X113156904Y-125788057D02*
X113204523Y-125883295D01*
X113204523Y-125883295D02*
X113204523Y-125978533D01*
X113204523Y-125978533D02*
X113156904Y-126121390D01*
X113156904Y-126121390D02*
X112585476Y-126692819D01*
X112585476Y-126692819D02*
X113204523Y-126692819D01*
X105116333Y-121739819D02*
X104783000Y-121263628D01*
X104544905Y-121739819D02*
X104544905Y-120739819D01*
X104544905Y-120739819D02*
X104925857Y-120739819D01*
X104925857Y-120739819D02*
X105021095Y-120787438D01*
X105021095Y-120787438D02*
X105068714Y-120835057D01*
X105068714Y-120835057D02*
X105116333Y-120930295D01*
X105116333Y-120930295D02*
X105116333Y-121073152D01*
X105116333Y-121073152D02*
X105068714Y-121168390D01*
X105068714Y-121168390D02*
X105021095Y-121216009D01*
X105021095Y-121216009D02*
X104925857Y-121263628D01*
X104925857Y-121263628D02*
X104544905Y-121263628D01*
X106068714Y-121739819D02*
X105497286Y-121739819D01*
X105783000Y-121739819D02*
X105783000Y-120739819D01*
X105783000Y-120739819D02*
X105687762Y-120882676D01*
X105687762Y-120882676D02*
X105592524Y-120977914D01*
X105592524Y-120977914D02*
X105497286Y-121025533D01*
X110628133Y-124508419D02*
X110294800Y-124032228D01*
X110056705Y-124508419D02*
X110056705Y-123508419D01*
X110056705Y-123508419D02*
X110437657Y-123508419D01*
X110437657Y-123508419D02*
X110532895Y-123556038D01*
X110532895Y-123556038D02*
X110580514Y-123603657D01*
X110580514Y-123603657D02*
X110628133Y-123698895D01*
X110628133Y-123698895D02*
X110628133Y-123841752D01*
X110628133Y-123841752D02*
X110580514Y-123936990D01*
X110580514Y-123936990D02*
X110532895Y-123984609D01*
X110532895Y-123984609D02*
X110437657Y-124032228D01*
X110437657Y-124032228D02*
X110056705Y-124032228D01*
X111009086Y-123603657D02*
X111056705Y-123556038D01*
X111056705Y-123556038D02*
X111151943Y-123508419D01*
X111151943Y-123508419D02*
X111390038Y-123508419D01*
X111390038Y-123508419D02*
X111485276Y-123556038D01*
X111485276Y-123556038D02*
X111532895Y-123603657D01*
X111532895Y-123603657D02*
X111580514Y-123698895D01*
X111580514Y-123698895D02*
X111580514Y-123794133D01*
X111580514Y-123794133D02*
X111532895Y-123936990D01*
X111532895Y-123936990D02*
X110961467Y-124508419D01*
X110961467Y-124508419D02*
X111580514Y-124508419D01*
X101026933Y-132280819D02*
X100693600Y-131804628D01*
X100455505Y-132280819D02*
X100455505Y-131280819D01*
X100455505Y-131280819D02*
X100836457Y-131280819D01*
X100836457Y-131280819D02*
X100931695Y-131328438D01*
X100931695Y-131328438D02*
X100979314Y-131376057D01*
X100979314Y-131376057D02*
X101026933Y-131471295D01*
X101026933Y-131471295D02*
X101026933Y-131614152D01*
X101026933Y-131614152D02*
X100979314Y-131709390D01*
X100979314Y-131709390D02*
X100931695Y-131757009D01*
X100931695Y-131757009D02*
X100836457Y-131804628D01*
X100836457Y-131804628D02*
X100455505Y-131804628D01*
X101360267Y-131280819D02*
X101979314Y-131280819D01*
X101979314Y-131280819D02*
X101645981Y-131661771D01*
X101645981Y-131661771D02*
X101788838Y-131661771D01*
X101788838Y-131661771D02*
X101884076Y-131709390D01*
X101884076Y-131709390D02*
X101931695Y-131757009D01*
X101931695Y-131757009D02*
X101979314Y-131852247D01*
X101979314Y-131852247D02*
X101979314Y-132090342D01*
X101979314Y-132090342D02*
X101931695Y-132185580D01*
X101931695Y-132185580D02*
X101884076Y-132233200D01*
X101884076Y-132233200D02*
X101788838Y-132280819D01*
X101788838Y-132280819D02*
X101503124Y-132280819D01*
X101503124Y-132280819D02*
X101407886Y-132233200D01*
X101407886Y-132233200D02*
X101360267Y-132185580D01*
X105116333Y-130883819D02*
X104783000Y-130407628D01*
X104544905Y-130883819D02*
X104544905Y-129883819D01*
X104544905Y-129883819D02*
X104925857Y-129883819D01*
X104925857Y-129883819D02*
X105021095Y-129931438D01*
X105021095Y-129931438D02*
X105068714Y-129979057D01*
X105068714Y-129979057D02*
X105116333Y-130074295D01*
X105116333Y-130074295D02*
X105116333Y-130217152D01*
X105116333Y-130217152D02*
X105068714Y-130312390D01*
X105068714Y-130312390D02*
X105021095Y-130360009D01*
X105021095Y-130360009D02*
X104925857Y-130407628D01*
X104925857Y-130407628D02*
X104544905Y-130407628D01*
X105973476Y-130217152D02*
X105973476Y-130883819D01*
X105735381Y-129836200D02*
X105497286Y-130550485D01*
X105497286Y-130550485D02*
X106116333Y-130550485D01*
X129506742Y-145336419D02*
X129173409Y-144860228D01*
X128935314Y-145336419D02*
X128935314Y-144336419D01*
X128935314Y-144336419D02*
X129316266Y-144336419D01*
X129316266Y-144336419D02*
X129411504Y-144384038D01*
X129411504Y-144384038D02*
X129459123Y-144431657D01*
X129459123Y-144431657D02*
X129506742Y-144526895D01*
X129506742Y-144526895D02*
X129506742Y-144669752D01*
X129506742Y-144669752D02*
X129459123Y-144764990D01*
X129459123Y-144764990D02*
X129411504Y-144812609D01*
X129411504Y-144812609D02*
X129316266Y-144860228D01*
X129316266Y-144860228D02*
X128935314Y-144860228D01*
X130459123Y-145336419D02*
X129887695Y-145336419D01*
X130173409Y-145336419D02*
X130173409Y-144336419D01*
X130173409Y-144336419D02*
X130078171Y-144479276D01*
X130078171Y-144479276D02*
X129982933Y-144574514D01*
X129982933Y-144574514D02*
X129887695Y-144622133D01*
X131078171Y-144336419D02*
X131173409Y-144336419D01*
X131173409Y-144336419D02*
X131268647Y-144384038D01*
X131268647Y-144384038D02*
X131316266Y-144431657D01*
X131316266Y-144431657D02*
X131363885Y-144526895D01*
X131363885Y-144526895D02*
X131411504Y-144717371D01*
X131411504Y-144717371D02*
X131411504Y-144955466D01*
X131411504Y-144955466D02*
X131363885Y-145145942D01*
X131363885Y-145145942D02*
X131316266Y-145241180D01*
X131316266Y-145241180D02*
X131268647Y-145288800D01*
X131268647Y-145288800D02*
X131173409Y-145336419D01*
X131173409Y-145336419D02*
X131078171Y-145336419D01*
X131078171Y-145336419D02*
X130982933Y-145288800D01*
X130982933Y-145288800D02*
X130935314Y-145241180D01*
X130935314Y-145241180D02*
X130887695Y-145145942D01*
X130887695Y-145145942D02*
X130840076Y-144955466D01*
X130840076Y-144955466D02*
X130840076Y-144717371D01*
X130840076Y-144717371D02*
X130887695Y-144526895D01*
X130887695Y-144526895D02*
X130935314Y-144431657D01*
X130935314Y-144431657D02*
X130982933Y-144384038D01*
X130982933Y-144384038D02*
X131078171Y-144336419D01*
X121531142Y-142567819D02*
X121197809Y-142091628D01*
X120959714Y-142567819D02*
X120959714Y-141567819D01*
X120959714Y-141567819D02*
X121340666Y-141567819D01*
X121340666Y-141567819D02*
X121435904Y-141615438D01*
X121435904Y-141615438D02*
X121483523Y-141663057D01*
X121483523Y-141663057D02*
X121531142Y-141758295D01*
X121531142Y-141758295D02*
X121531142Y-141901152D01*
X121531142Y-141901152D02*
X121483523Y-141996390D01*
X121483523Y-141996390D02*
X121435904Y-142044009D01*
X121435904Y-142044009D02*
X121340666Y-142091628D01*
X121340666Y-142091628D02*
X120959714Y-142091628D01*
X122483523Y-142567819D02*
X121912095Y-142567819D01*
X122197809Y-142567819D02*
X122197809Y-141567819D01*
X122197809Y-141567819D02*
X122102571Y-141710676D01*
X122102571Y-141710676D02*
X122007333Y-141805914D01*
X122007333Y-141805914D02*
X121912095Y-141853533D01*
X123435904Y-142567819D02*
X122864476Y-142567819D01*
X123150190Y-142567819D02*
X123150190Y-141567819D01*
X123150190Y-141567819D02*
X123054952Y-141710676D01*
X123054952Y-141710676D02*
X122959714Y-141805914D01*
X122959714Y-141805914D02*
X122864476Y-141853533D01*
X130827342Y-96670219D02*
X130494009Y-96194028D01*
X130255914Y-96670219D02*
X130255914Y-95670219D01*
X130255914Y-95670219D02*
X130636866Y-95670219D01*
X130636866Y-95670219D02*
X130732104Y-95717838D01*
X130732104Y-95717838D02*
X130779723Y-95765457D01*
X130779723Y-95765457D02*
X130827342Y-95860695D01*
X130827342Y-95860695D02*
X130827342Y-96003552D01*
X130827342Y-96003552D02*
X130779723Y-96098790D01*
X130779723Y-96098790D02*
X130732104Y-96146409D01*
X130732104Y-96146409D02*
X130636866Y-96194028D01*
X130636866Y-96194028D02*
X130255914Y-96194028D01*
X131779723Y-96670219D02*
X131208295Y-96670219D01*
X131494009Y-96670219D02*
X131494009Y-95670219D01*
X131494009Y-95670219D02*
X131398771Y-95813076D01*
X131398771Y-95813076D02*
X131303533Y-95908314D01*
X131303533Y-95908314D02*
X131208295Y-95955933D01*
X132113057Y-95670219D02*
X132732104Y-95670219D01*
X132732104Y-95670219D02*
X132398771Y-96051171D01*
X132398771Y-96051171D02*
X132541628Y-96051171D01*
X132541628Y-96051171D02*
X132636866Y-96098790D01*
X132636866Y-96098790D02*
X132684485Y-96146409D01*
X132684485Y-96146409D02*
X132732104Y-96241647D01*
X132732104Y-96241647D02*
X132732104Y-96479742D01*
X132732104Y-96479742D02*
X132684485Y-96574980D01*
X132684485Y-96574980D02*
X132636866Y-96622600D01*
X132636866Y-96622600D02*
X132541628Y-96670219D01*
X132541628Y-96670219D02*
X132255914Y-96670219D01*
X132255914Y-96670219D02*
X132160676Y-96622600D01*
X132160676Y-96622600D02*
X132113057Y-96574980D01*
X90898742Y-86941819D02*
X90565409Y-86465628D01*
X90327314Y-86941819D02*
X90327314Y-85941819D01*
X90327314Y-85941819D02*
X90708266Y-85941819D01*
X90708266Y-85941819D02*
X90803504Y-85989438D01*
X90803504Y-85989438D02*
X90851123Y-86037057D01*
X90851123Y-86037057D02*
X90898742Y-86132295D01*
X90898742Y-86132295D02*
X90898742Y-86275152D01*
X90898742Y-86275152D02*
X90851123Y-86370390D01*
X90851123Y-86370390D02*
X90803504Y-86418009D01*
X90803504Y-86418009D02*
X90708266Y-86465628D01*
X90708266Y-86465628D02*
X90327314Y-86465628D01*
X91851123Y-86941819D02*
X91279695Y-86941819D01*
X91565409Y-86941819D02*
X91565409Y-85941819D01*
X91565409Y-85941819D02*
X91470171Y-86084676D01*
X91470171Y-86084676D02*
X91374933Y-86179914D01*
X91374933Y-86179914D02*
X91279695Y-86227533D01*
X92708266Y-85941819D02*
X92517790Y-85941819D01*
X92517790Y-85941819D02*
X92422552Y-85989438D01*
X92422552Y-85989438D02*
X92374933Y-86037057D01*
X92374933Y-86037057D02*
X92279695Y-86179914D01*
X92279695Y-86179914D02*
X92232076Y-86370390D01*
X92232076Y-86370390D02*
X92232076Y-86751342D01*
X92232076Y-86751342D02*
X92279695Y-86846580D01*
X92279695Y-86846580D02*
X92327314Y-86894200D01*
X92327314Y-86894200D02*
X92422552Y-86941819D01*
X92422552Y-86941819D02*
X92613028Y-86941819D01*
X92613028Y-86941819D02*
X92708266Y-86894200D01*
X92708266Y-86894200D02*
X92755885Y-86846580D01*
X92755885Y-86846580D02*
X92803504Y-86751342D01*
X92803504Y-86751342D02*
X92803504Y-86513247D01*
X92803504Y-86513247D02*
X92755885Y-86418009D01*
X92755885Y-86418009D02*
X92708266Y-86370390D01*
X92708266Y-86370390D02*
X92613028Y-86322771D01*
X92613028Y-86322771D02*
X92422552Y-86322771D01*
X92422552Y-86322771D02*
X92327314Y-86370390D01*
X92327314Y-86370390D02*
X92279695Y-86418009D01*
X92279695Y-86418009D02*
X92232076Y-86513247D01*
X91635342Y-91590019D02*
X91302009Y-91113828D01*
X91063914Y-91590019D02*
X91063914Y-90590019D01*
X91063914Y-90590019D02*
X91444866Y-90590019D01*
X91444866Y-90590019D02*
X91540104Y-90637638D01*
X91540104Y-90637638D02*
X91587723Y-90685257D01*
X91587723Y-90685257D02*
X91635342Y-90780495D01*
X91635342Y-90780495D02*
X91635342Y-90923352D01*
X91635342Y-90923352D02*
X91587723Y-91018590D01*
X91587723Y-91018590D02*
X91540104Y-91066209D01*
X91540104Y-91066209D02*
X91444866Y-91113828D01*
X91444866Y-91113828D02*
X91063914Y-91113828D01*
X92587723Y-91590019D02*
X92016295Y-91590019D01*
X92302009Y-91590019D02*
X92302009Y-90590019D01*
X92302009Y-90590019D02*
X92206771Y-90732876D01*
X92206771Y-90732876D02*
X92111533Y-90828114D01*
X92111533Y-90828114D02*
X92016295Y-90875733D01*
X92921057Y-90590019D02*
X93587723Y-90590019D01*
X93587723Y-90590019D02*
X93159152Y-91590019D01*
X113555542Y-125499019D02*
X113222209Y-125022828D01*
X112984114Y-125499019D02*
X112984114Y-124499019D01*
X112984114Y-124499019D02*
X113365066Y-124499019D01*
X113365066Y-124499019D02*
X113460304Y-124546638D01*
X113460304Y-124546638D02*
X113507923Y-124594257D01*
X113507923Y-124594257D02*
X113555542Y-124689495D01*
X113555542Y-124689495D02*
X113555542Y-124832352D01*
X113555542Y-124832352D02*
X113507923Y-124927590D01*
X113507923Y-124927590D02*
X113460304Y-124975209D01*
X113460304Y-124975209D02*
X113365066Y-125022828D01*
X113365066Y-125022828D02*
X112984114Y-125022828D01*
X114507923Y-125499019D02*
X113936495Y-125499019D01*
X114222209Y-125499019D02*
X114222209Y-124499019D01*
X114222209Y-124499019D02*
X114126971Y-124641876D01*
X114126971Y-124641876D02*
X114031733Y-124737114D01*
X114031733Y-124737114D02*
X113936495Y-124784733D01*
X114984114Y-125499019D02*
X115174590Y-125499019D01*
X115174590Y-125499019D02*
X115269828Y-125451400D01*
X115269828Y-125451400D02*
X115317447Y-125403780D01*
X115317447Y-125403780D02*
X115412685Y-125260923D01*
X115412685Y-125260923D02*
X115460304Y-125070447D01*
X115460304Y-125070447D02*
X115460304Y-124689495D01*
X115460304Y-124689495D02*
X115412685Y-124594257D01*
X115412685Y-124594257D02*
X115365066Y-124546638D01*
X115365066Y-124546638D02*
X115269828Y-124499019D01*
X115269828Y-124499019D02*
X115079352Y-124499019D01*
X115079352Y-124499019D02*
X114984114Y-124546638D01*
X114984114Y-124546638D02*
X114936495Y-124594257D01*
X114936495Y-124594257D02*
X114888876Y-124689495D01*
X114888876Y-124689495D02*
X114888876Y-124927590D01*
X114888876Y-124927590D02*
X114936495Y-125022828D01*
X114936495Y-125022828D02*
X114984114Y-125070447D01*
X114984114Y-125070447D02*
X115079352Y-125118066D01*
X115079352Y-125118066D02*
X115269828Y-125118066D01*
X115269828Y-125118066D02*
X115365066Y-125070447D01*
X115365066Y-125070447D02*
X115412685Y-125022828D01*
X115412685Y-125022828D02*
X115460304Y-124927590D01*
X113301542Y-120088819D02*
X112968209Y-119612628D01*
X112730114Y-120088819D02*
X112730114Y-119088819D01*
X112730114Y-119088819D02*
X113111066Y-119088819D01*
X113111066Y-119088819D02*
X113206304Y-119136438D01*
X113206304Y-119136438D02*
X113253923Y-119184057D01*
X113253923Y-119184057D02*
X113301542Y-119279295D01*
X113301542Y-119279295D02*
X113301542Y-119422152D01*
X113301542Y-119422152D02*
X113253923Y-119517390D01*
X113253923Y-119517390D02*
X113206304Y-119565009D01*
X113206304Y-119565009D02*
X113111066Y-119612628D01*
X113111066Y-119612628D02*
X112730114Y-119612628D01*
X113682495Y-119184057D02*
X113730114Y-119136438D01*
X113730114Y-119136438D02*
X113825352Y-119088819D01*
X113825352Y-119088819D02*
X114063447Y-119088819D01*
X114063447Y-119088819D02*
X114158685Y-119136438D01*
X114158685Y-119136438D02*
X114206304Y-119184057D01*
X114206304Y-119184057D02*
X114253923Y-119279295D01*
X114253923Y-119279295D02*
X114253923Y-119374533D01*
X114253923Y-119374533D02*
X114206304Y-119517390D01*
X114206304Y-119517390D02*
X113634876Y-120088819D01*
X113634876Y-120088819D02*
X114253923Y-120088819D01*
X114872971Y-119088819D02*
X114968209Y-119088819D01*
X114968209Y-119088819D02*
X115063447Y-119136438D01*
X115063447Y-119136438D02*
X115111066Y-119184057D01*
X115111066Y-119184057D02*
X115158685Y-119279295D01*
X115158685Y-119279295D02*
X115206304Y-119469771D01*
X115206304Y-119469771D02*
X115206304Y-119707866D01*
X115206304Y-119707866D02*
X115158685Y-119898342D01*
X115158685Y-119898342D02*
X115111066Y-119993580D01*
X115111066Y-119993580D02*
X115063447Y-120041200D01*
X115063447Y-120041200D02*
X114968209Y-120088819D01*
X114968209Y-120088819D02*
X114872971Y-120088819D01*
X114872971Y-120088819D02*
X114777733Y-120041200D01*
X114777733Y-120041200D02*
X114730114Y-119993580D01*
X114730114Y-119993580D02*
X114682495Y-119898342D01*
X114682495Y-119898342D02*
X114634876Y-119707866D01*
X114634876Y-119707866D02*
X114634876Y-119469771D01*
X114634876Y-119469771D02*
X114682495Y-119279295D01*
X114682495Y-119279295D02*
X114730114Y-119184057D01*
X114730114Y-119184057D02*
X114777733Y-119136438D01*
X114777733Y-119136438D02*
X114872971Y-119088819D01*
X119426123Y-98473419D02*
X119092790Y-97997228D01*
X118854695Y-98473419D02*
X118854695Y-97473419D01*
X118854695Y-97473419D02*
X119235647Y-97473419D01*
X119235647Y-97473419D02*
X119330885Y-97521038D01*
X119330885Y-97521038D02*
X119378504Y-97568657D01*
X119378504Y-97568657D02*
X119426123Y-97663895D01*
X119426123Y-97663895D02*
X119426123Y-97806752D01*
X119426123Y-97806752D02*
X119378504Y-97901990D01*
X119378504Y-97901990D02*
X119330885Y-97949609D01*
X119330885Y-97949609D02*
X119235647Y-97997228D01*
X119235647Y-97997228D02*
X118854695Y-97997228D01*
X119854695Y-98473419D02*
X119854695Y-97473419D01*
X119854695Y-97473419D02*
X120426123Y-98473419D01*
X120426123Y-98473419D02*
X120426123Y-97473419D01*
X121426123Y-98473419D02*
X120854695Y-98473419D01*
X121140409Y-98473419D02*
X121140409Y-97473419D01*
X121140409Y-97473419D02*
X121045171Y-97616276D01*
X121045171Y-97616276D02*
X120949933Y-97711514D01*
X120949933Y-97711514D02*
X120854695Y-97759133D01*
D10*
X116332190Y-91492638D02*
X116332190Y-93111685D01*
X116332190Y-93111685D02*
X116427428Y-93302161D01*
X116427428Y-93302161D02*
X116522666Y-93397400D01*
X116522666Y-93397400D02*
X116713142Y-93492638D01*
X116713142Y-93492638D02*
X117094095Y-93492638D01*
X117094095Y-93492638D02*
X117284571Y-93397400D01*
X117284571Y-93397400D02*
X117379809Y-93302161D01*
X117379809Y-93302161D02*
X117475047Y-93111685D01*
X117475047Y-93111685D02*
X117475047Y-91492638D01*
X118236952Y-91492638D02*
X119475047Y-91492638D01*
X119475047Y-91492638D02*
X118808380Y-92254542D01*
X118808380Y-92254542D02*
X119094095Y-92254542D01*
X119094095Y-92254542D02*
X119284571Y-92349780D01*
X119284571Y-92349780D02*
X119379809Y-92445019D01*
X119379809Y-92445019D02*
X119475047Y-92635495D01*
X119475047Y-92635495D02*
X119475047Y-93111685D01*
X119475047Y-93111685D02*
X119379809Y-93302161D01*
X119379809Y-93302161D02*
X119284571Y-93397400D01*
X119284571Y-93397400D02*
X119094095Y-93492638D01*
X119094095Y-93492638D02*
X118522666Y-93492638D01*
X118522666Y-93492638D02*
X118332190Y-93397400D01*
X118332190Y-93397400D02*
X118236952Y-93302161D01*
D12*
X112780028Y-85286790D02*
X113256219Y-85286790D01*
X112256219Y-85620123D02*
X112780028Y-85286790D01*
X112780028Y-85286790D02*
X112256219Y-84953457D01*
X113256219Y-84096314D02*
X113256219Y-84667742D01*
X113256219Y-84382028D02*
X112256219Y-84382028D01*
X112256219Y-84382028D02*
X112399076Y-84477266D01*
X112399076Y-84477266D02*
X112494314Y-84572504D01*
X112494314Y-84572504D02*
X112541933Y-84667742D01*
X101471505Y-123448219D02*
X101471505Y-122448219D01*
X101471505Y-122448219D02*
X101709600Y-122448219D01*
X101709600Y-122448219D02*
X101852457Y-122495838D01*
X101852457Y-122495838D02*
X101947695Y-122591076D01*
X101947695Y-122591076D02*
X101995314Y-122686314D01*
X101995314Y-122686314D02*
X102042933Y-122876790D01*
X102042933Y-122876790D02*
X102042933Y-123019647D01*
X102042933Y-123019647D02*
X101995314Y-123210123D01*
X101995314Y-123210123D02*
X101947695Y-123305361D01*
X101947695Y-123305361D02*
X101852457Y-123400600D01*
X101852457Y-123400600D02*
X101709600Y-123448219D01*
X101709600Y-123448219D02*
X101471505Y-123448219D01*
X102947695Y-122448219D02*
X102471505Y-122448219D01*
X102471505Y-122448219D02*
X102423886Y-122924409D01*
X102423886Y-122924409D02*
X102471505Y-122876790D01*
X102471505Y-122876790D02*
X102566743Y-122829171D01*
X102566743Y-122829171D02*
X102804838Y-122829171D01*
X102804838Y-122829171D02*
X102900076Y-122876790D01*
X102900076Y-122876790D02*
X102947695Y-122924409D01*
X102947695Y-122924409D02*
X102995314Y-123019647D01*
X102995314Y-123019647D02*
X102995314Y-123257742D01*
X102995314Y-123257742D02*
X102947695Y-123352980D01*
X102947695Y-123352980D02*
X102900076Y-123400600D01*
X102900076Y-123400600D02*
X102804838Y-123448219D01*
X102804838Y-123448219D02*
X102566743Y-123448219D01*
X102566743Y-123448219D02*
X102471505Y-123400600D01*
X102471505Y-123400600D02*
X102423886Y-123352980D01*
D10*
X109013666Y-84805838D02*
X108061285Y-84805838D01*
X108061285Y-84805838D02*
X108061285Y-82805838D01*
X110727952Y-84805838D02*
X109585095Y-84805838D01*
X110156523Y-84805838D02*
X110156523Y-82805838D01*
X110156523Y-82805838D02*
X109966047Y-83091552D01*
X109966047Y-83091552D02*
X109775571Y-83282028D01*
X109775571Y-83282028D02*
X109585095Y-83377266D01*
D12*
X95978742Y-93323580D02*
X95931123Y-93371200D01*
X95931123Y-93371200D02*
X95788266Y-93418819D01*
X95788266Y-93418819D02*
X95693028Y-93418819D01*
X95693028Y-93418819D02*
X95550171Y-93371200D01*
X95550171Y-93371200D02*
X95454933Y-93275961D01*
X95454933Y-93275961D02*
X95407314Y-93180723D01*
X95407314Y-93180723D02*
X95359695Y-92990247D01*
X95359695Y-92990247D02*
X95359695Y-92847390D01*
X95359695Y-92847390D02*
X95407314Y-92656914D01*
X95407314Y-92656914D02*
X95454933Y-92561676D01*
X95454933Y-92561676D02*
X95550171Y-92466438D01*
X95550171Y-92466438D02*
X95693028Y-92418819D01*
X95693028Y-92418819D02*
X95788266Y-92418819D01*
X95788266Y-92418819D02*
X95931123Y-92466438D01*
X95931123Y-92466438D02*
X95978742Y-92514057D01*
X96359695Y-92514057D02*
X96407314Y-92466438D01*
X96407314Y-92466438D02*
X96502552Y-92418819D01*
X96502552Y-92418819D02*
X96740647Y-92418819D01*
X96740647Y-92418819D02*
X96835885Y-92466438D01*
X96835885Y-92466438D02*
X96883504Y-92514057D01*
X96883504Y-92514057D02*
X96931123Y-92609295D01*
X96931123Y-92609295D02*
X96931123Y-92704533D01*
X96931123Y-92704533D02*
X96883504Y-92847390D01*
X96883504Y-92847390D02*
X96312076Y-93418819D01*
X96312076Y-93418819D02*
X96931123Y-93418819D01*
X97883504Y-93418819D02*
X97312076Y-93418819D01*
X97597790Y-93418819D02*
X97597790Y-92418819D01*
X97597790Y-92418819D02*
X97502552Y-92561676D01*
X97502552Y-92561676D02*
X97407314Y-92656914D01*
X97407314Y-92656914D02*
X97312076Y-92704533D01*
X93091095Y-85002019D02*
X93091095Y-85811542D01*
X93091095Y-85811542D02*
X93138714Y-85906780D01*
X93138714Y-85906780D02*
X93186333Y-85954400D01*
X93186333Y-85954400D02*
X93281571Y-86002019D01*
X93281571Y-86002019D02*
X93472047Y-86002019D01*
X93472047Y-86002019D02*
X93567285Y-85954400D01*
X93567285Y-85954400D02*
X93614904Y-85906780D01*
X93614904Y-85906780D02*
X93662523Y-85811542D01*
X93662523Y-85811542D02*
X93662523Y-85002019D01*
X94567285Y-85335352D02*
X94567285Y-86002019D01*
X94329190Y-84954400D02*
X94091095Y-85668685D01*
X94091095Y-85668685D02*
X94710142Y-85668685D01*
X90971019Y-93144933D02*
X91685304Y-93144933D01*
X91685304Y-93144933D02*
X91828161Y-93192552D01*
X91828161Y-93192552D02*
X91923400Y-93287790D01*
X91923400Y-93287790D02*
X91971019Y-93430647D01*
X91971019Y-93430647D02*
X91971019Y-93525885D01*
X91971019Y-92621123D02*
X91971019Y-92430647D01*
X91971019Y-92430647D02*
X91923400Y-92335409D01*
X91923400Y-92335409D02*
X91875780Y-92287790D01*
X91875780Y-92287790D02*
X91732923Y-92192552D01*
X91732923Y-92192552D02*
X91542447Y-92144933D01*
X91542447Y-92144933D02*
X91161495Y-92144933D01*
X91161495Y-92144933D02*
X91066257Y-92192552D01*
X91066257Y-92192552D02*
X91018638Y-92240171D01*
X91018638Y-92240171D02*
X90971019Y-92335409D01*
X90971019Y-92335409D02*
X90971019Y-92525885D01*
X90971019Y-92525885D02*
X91018638Y-92621123D01*
X91018638Y-92621123D02*
X91066257Y-92668742D01*
X91066257Y-92668742D02*
X91161495Y-92716361D01*
X91161495Y-92716361D02*
X91399590Y-92716361D01*
X91399590Y-92716361D02*
X91494828Y-92668742D01*
X91494828Y-92668742D02*
X91542447Y-92621123D01*
X91542447Y-92621123D02*
X91590066Y-92525885D01*
X91590066Y-92525885D02*
X91590066Y-92335409D01*
X91590066Y-92335409D02*
X91542447Y-92240171D01*
X91542447Y-92240171D02*
X91494828Y-92192552D01*
X91494828Y-92192552D02*
X91399590Y-92144933D01*
X110284419Y-121445257D02*
X109808228Y-121778590D01*
X110284419Y-122016685D02*
X109284419Y-122016685D01*
X109284419Y-122016685D02*
X109284419Y-121635733D01*
X109284419Y-121635733D02*
X109332038Y-121540495D01*
X109332038Y-121540495D02*
X109379657Y-121492876D01*
X109379657Y-121492876D02*
X109474895Y-121445257D01*
X109474895Y-121445257D02*
X109617752Y-121445257D01*
X109617752Y-121445257D02*
X109712990Y-121492876D01*
X109712990Y-121492876D02*
X109760609Y-121540495D01*
X109760609Y-121540495D02*
X109808228Y-121635733D01*
X109808228Y-121635733D02*
X109808228Y-122016685D01*
X110284419Y-120492876D02*
X110284419Y-121064304D01*
X110284419Y-120778590D02*
X109284419Y-120778590D01*
X109284419Y-120778590D02*
X109427276Y-120873828D01*
X109427276Y-120873828D02*
X109522514Y-120969066D01*
X109522514Y-120969066D02*
X109570133Y-121064304D01*
X109712990Y-119921447D02*
X109665371Y-120016685D01*
X109665371Y-120016685D02*
X109617752Y-120064304D01*
X109617752Y-120064304D02*
X109522514Y-120111923D01*
X109522514Y-120111923D02*
X109474895Y-120111923D01*
X109474895Y-120111923D02*
X109379657Y-120064304D01*
X109379657Y-120064304D02*
X109332038Y-120016685D01*
X109332038Y-120016685D02*
X109284419Y-119921447D01*
X109284419Y-119921447D02*
X109284419Y-119730971D01*
X109284419Y-119730971D02*
X109332038Y-119635733D01*
X109332038Y-119635733D02*
X109379657Y-119588114D01*
X109379657Y-119588114D02*
X109474895Y-119540495D01*
X109474895Y-119540495D02*
X109522514Y-119540495D01*
X109522514Y-119540495D02*
X109617752Y-119588114D01*
X109617752Y-119588114D02*
X109665371Y-119635733D01*
X109665371Y-119635733D02*
X109712990Y-119730971D01*
X109712990Y-119730971D02*
X109712990Y-119921447D01*
X109712990Y-119921447D02*
X109760609Y-120016685D01*
X109760609Y-120016685D02*
X109808228Y-120064304D01*
X109808228Y-120064304D02*
X109903466Y-120111923D01*
X109903466Y-120111923D02*
X110093942Y-120111923D01*
X110093942Y-120111923D02*
X110189180Y-120064304D01*
X110189180Y-120064304D02*
X110236800Y-120016685D01*
X110236800Y-120016685D02*
X110284419Y-119921447D01*
X110284419Y-119921447D02*
X110284419Y-119730971D01*
X110284419Y-119730971D02*
X110236800Y-119635733D01*
X110236800Y-119635733D02*
X110189180Y-119588114D01*
X110189180Y-119588114D02*
X110093942Y-119540495D01*
X110093942Y-119540495D02*
X109903466Y-119540495D01*
X109903466Y-119540495D02*
X109808228Y-119588114D01*
X109808228Y-119588114D02*
X109760609Y-119635733D01*
X109760609Y-119635733D02*
X109712990Y-119730971D01*
D16*
X120457933Y-116662419D02*
X119981743Y-116662419D01*
X119981743Y-116662419D02*
X119981743Y-115662419D01*
X120743648Y-115757657D02*
X120791267Y-115710038D01*
X120791267Y-115710038D02*
X120886505Y-115662419D01*
X120886505Y-115662419D02*
X121124600Y-115662419D01*
X121124600Y-115662419D02*
X121219838Y-115710038D01*
X121219838Y-115710038D02*
X121267457Y-115757657D01*
X121267457Y-115757657D02*
X121315076Y-115852895D01*
X121315076Y-115852895D02*
X121315076Y-115948133D01*
X121315076Y-115948133D02*
X121267457Y-116090990D01*
X121267457Y-116090990D02*
X120696029Y-116662419D01*
X120696029Y-116662419D02*
X121315076Y-116662419D01*
D12*
X111117142Y-107449580D02*
X111069523Y-107497200D01*
X111069523Y-107497200D02*
X110926666Y-107544819D01*
X110926666Y-107544819D02*
X110831428Y-107544819D01*
X110831428Y-107544819D02*
X110688571Y-107497200D01*
X110688571Y-107497200D02*
X110593333Y-107401961D01*
X110593333Y-107401961D02*
X110545714Y-107306723D01*
X110545714Y-107306723D02*
X110498095Y-107116247D01*
X110498095Y-107116247D02*
X110498095Y-106973390D01*
X110498095Y-106973390D02*
X110545714Y-106782914D01*
X110545714Y-106782914D02*
X110593333Y-106687676D01*
X110593333Y-106687676D02*
X110688571Y-106592438D01*
X110688571Y-106592438D02*
X110831428Y-106544819D01*
X110831428Y-106544819D02*
X110926666Y-106544819D01*
X110926666Y-106544819D02*
X111069523Y-106592438D01*
X111069523Y-106592438D02*
X111117142Y-106640057D01*
X111498095Y-106640057D02*
X111545714Y-106592438D01*
X111545714Y-106592438D02*
X111640952Y-106544819D01*
X111640952Y-106544819D02*
X111879047Y-106544819D01*
X111879047Y-106544819D02*
X111974285Y-106592438D01*
X111974285Y-106592438D02*
X112021904Y-106640057D01*
X112021904Y-106640057D02*
X112069523Y-106735295D01*
X112069523Y-106735295D02*
X112069523Y-106830533D01*
X112069523Y-106830533D02*
X112021904Y-106973390D01*
X112021904Y-106973390D02*
X111450476Y-107544819D01*
X111450476Y-107544819D02*
X112069523Y-107544819D01*
X112402857Y-106544819D02*
X113069523Y-106544819D01*
X113069523Y-106544819D02*
X112640952Y-107544819D01*
X120806380Y-124190357D02*
X120854000Y-124237976D01*
X120854000Y-124237976D02*
X120901619Y-124380833D01*
X120901619Y-124380833D02*
X120901619Y-124476071D01*
X120901619Y-124476071D02*
X120854000Y-124618928D01*
X120854000Y-124618928D02*
X120758761Y-124714166D01*
X120758761Y-124714166D02*
X120663523Y-124761785D01*
X120663523Y-124761785D02*
X120473047Y-124809404D01*
X120473047Y-124809404D02*
X120330190Y-124809404D01*
X120330190Y-124809404D02*
X120139714Y-124761785D01*
X120139714Y-124761785D02*
X120044476Y-124714166D01*
X120044476Y-124714166D02*
X119949238Y-124618928D01*
X119949238Y-124618928D02*
X119901619Y-124476071D01*
X119901619Y-124476071D02*
X119901619Y-124380833D01*
X119901619Y-124380833D02*
X119949238Y-124237976D01*
X119949238Y-124237976D02*
X119996857Y-124190357D01*
X119901619Y-123857023D02*
X119901619Y-123237976D01*
X119901619Y-123237976D02*
X120282571Y-123571309D01*
X120282571Y-123571309D02*
X120282571Y-123428452D01*
X120282571Y-123428452D02*
X120330190Y-123333214D01*
X120330190Y-123333214D02*
X120377809Y-123285595D01*
X120377809Y-123285595D02*
X120473047Y-123237976D01*
X120473047Y-123237976D02*
X120711142Y-123237976D01*
X120711142Y-123237976D02*
X120806380Y-123285595D01*
X120806380Y-123285595D02*
X120854000Y-123333214D01*
X120854000Y-123333214D02*
X120901619Y-123428452D01*
X120901619Y-123428452D02*
X120901619Y-123714166D01*
X120901619Y-123714166D02*
X120854000Y-123809404D01*
X120854000Y-123809404D02*
X120806380Y-123857023D01*
X119901619Y-122904642D02*
X119901619Y-122285595D01*
X119901619Y-122285595D02*
X120282571Y-122618928D01*
X120282571Y-122618928D02*
X120282571Y-122476071D01*
X120282571Y-122476071D02*
X120330190Y-122380833D01*
X120330190Y-122380833D02*
X120377809Y-122333214D01*
X120377809Y-122333214D02*
X120473047Y-122285595D01*
X120473047Y-122285595D02*
X120711142Y-122285595D01*
X120711142Y-122285595D02*
X120806380Y-122333214D01*
X120806380Y-122333214D02*
X120854000Y-122380833D01*
X120854000Y-122380833D02*
X120901619Y-122476071D01*
X120901619Y-122476071D02*
X120901619Y-122761785D01*
X120901619Y-122761785D02*
X120854000Y-122857023D01*
X120854000Y-122857023D02*
X120806380Y-122904642D01*
X100787580Y-99967057D02*
X100835200Y-100014676D01*
X100835200Y-100014676D02*
X100882819Y-100157533D01*
X100882819Y-100157533D02*
X100882819Y-100252771D01*
X100882819Y-100252771D02*
X100835200Y-100395628D01*
X100835200Y-100395628D02*
X100739961Y-100490866D01*
X100739961Y-100490866D02*
X100644723Y-100538485D01*
X100644723Y-100538485D02*
X100454247Y-100586104D01*
X100454247Y-100586104D02*
X100311390Y-100586104D01*
X100311390Y-100586104D02*
X100120914Y-100538485D01*
X100120914Y-100538485D02*
X100025676Y-100490866D01*
X100025676Y-100490866D02*
X99930438Y-100395628D01*
X99930438Y-100395628D02*
X99882819Y-100252771D01*
X99882819Y-100252771D02*
X99882819Y-100157533D01*
X99882819Y-100157533D02*
X99930438Y-100014676D01*
X99930438Y-100014676D02*
X99978057Y-99967057D01*
X99978057Y-99586104D02*
X99930438Y-99538485D01*
X99930438Y-99538485D02*
X99882819Y-99443247D01*
X99882819Y-99443247D02*
X99882819Y-99205152D01*
X99882819Y-99205152D02*
X99930438Y-99109914D01*
X99930438Y-99109914D02*
X99978057Y-99062295D01*
X99978057Y-99062295D02*
X100073295Y-99014676D01*
X100073295Y-99014676D02*
X100168533Y-99014676D01*
X100168533Y-99014676D02*
X100311390Y-99062295D01*
X100311390Y-99062295D02*
X100882819Y-99633723D01*
X100882819Y-99633723D02*
X100882819Y-99014676D01*
X99978057Y-98633723D02*
X99930438Y-98586104D01*
X99930438Y-98586104D02*
X99882819Y-98490866D01*
X99882819Y-98490866D02*
X99882819Y-98252771D01*
X99882819Y-98252771D02*
X99930438Y-98157533D01*
X99930438Y-98157533D02*
X99978057Y-98109914D01*
X99978057Y-98109914D02*
X100073295Y-98062295D01*
X100073295Y-98062295D02*
X100168533Y-98062295D01*
X100168533Y-98062295D02*
X100311390Y-98109914D01*
X100311390Y-98109914D02*
X100882819Y-98681342D01*
X100882819Y-98681342D02*
X100882819Y-98062295D01*
X110659942Y-100537180D02*
X110612323Y-100584800D01*
X110612323Y-100584800D02*
X110469466Y-100632419D01*
X110469466Y-100632419D02*
X110374228Y-100632419D01*
X110374228Y-100632419D02*
X110231371Y-100584800D01*
X110231371Y-100584800D02*
X110136133Y-100489561D01*
X110136133Y-100489561D02*
X110088514Y-100394323D01*
X110088514Y-100394323D02*
X110040895Y-100203847D01*
X110040895Y-100203847D02*
X110040895Y-100060990D01*
X110040895Y-100060990D02*
X110088514Y-99870514D01*
X110088514Y-99870514D02*
X110136133Y-99775276D01*
X110136133Y-99775276D02*
X110231371Y-99680038D01*
X110231371Y-99680038D02*
X110374228Y-99632419D01*
X110374228Y-99632419D02*
X110469466Y-99632419D01*
X110469466Y-99632419D02*
X110612323Y-99680038D01*
X110612323Y-99680038D02*
X110659942Y-99727657D01*
X111612323Y-100632419D02*
X111040895Y-100632419D01*
X111326609Y-100632419D02*
X111326609Y-99632419D01*
X111326609Y-99632419D02*
X111231371Y-99775276D01*
X111231371Y-99775276D02*
X111136133Y-99870514D01*
X111136133Y-99870514D02*
X111040895Y-99918133D01*
X112183752Y-100060990D02*
X112088514Y-100013371D01*
X112088514Y-100013371D02*
X112040895Y-99965752D01*
X112040895Y-99965752D02*
X111993276Y-99870514D01*
X111993276Y-99870514D02*
X111993276Y-99822895D01*
X111993276Y-99822895D02*
X112040895Y-99727657D01*
X112040895Y-99727657D02*
X112088514Y-99680038D01*
X112088514Y-99680038D02*
X112183752Y-99632419D01*
X112183752Y-99632419D02*
X112374228Y-99632419D01*
X112374228Y-99632419D02*
X112469466Y-99680038D01*
X112469466Y-99680038D02*
X112517085Y-99727657D01*
X112517085Y-99727657D02*
X112564704Y-99822895D01*
X112564704Y-99822895D02*
X112564704Y-99870514D01*
X112564704Y-99870514D02*
X112517085Y-99965752D01*
X112517085Y-99965752D02*
X112469466Y-100013371D01*
X112469466Y-100013371D02*
X112374228Y-100060990D01*
X112374228Y-100060990D02*
X112183752Y-100060990D01*
X112183752Y-100060990D02*
X112088514Y-100108609D01*
X112088514Y-100108609D02*
X112040895Y-100156228D01*
X112040895Y-100156228D02*
X111993276Y-100251466D01*
X111993276Y-100251466D02*
X111993276Y-100441942D01*
X111993276Y-100441942D02*
X112040895Y-100537180D01*
X112040895Y-100537180D02*
X112088514Y-100584800D01*
X112088514Y-100584800D02*
X112183752Y-100632419D01*
X112183752Y-100632419D02*
X112374228Y-100632419D01*
X112374228Y-100632419D02*
X112469466Y-100584800D01*
X112469466Y-100584800D02*
X112517085Y-100537180D01*
X112517085Y-100537180D02*
X112564704Y-100441942D01*
X112564704Y-100441942D02*
X112564704Y-100251466D01*
X112564704Y-100251466D02*
X112517085Y-100156228D01*
X112517085Y-100156228D02*
X112469466Y-100108609D01*
X112469466Y-100108609D02*
X112374228Y-100060990D01*
X105668342Y-112678980D02*
X105620723Y-112726600D01*
X105620723Y-112726600D02*
X105477866Y-112774219D01*
X105477866Y-112774219D02*
X105382628Y-112774219D01*
X105382628Y-112774219D02*
X105239771Y-112726600D01*
X105239771Y-112726600D02*
X105144533Y-112631361D01*
X105144533Y-112631361D02*
X105096914Y-112536123D01*
X105096914Y-112536123D02*
X105049295Y-112345647D01*
X105049295Y-112345647D02*
X105049295Y-112202790D01*
X105049295Y-112202790D02*
X105096914Y-112012314D01*
X105096914Y-112012314D02*
X105144533Y-111917076D01*
X105144533Y-111917076D02*
X105239771Y-111821838D01*
X105239771Y-111821838D02*
X105382628Y-111774219D01*
X105382628Y-111774219D02*
X105477866Y-111774219D01*
X105477866Y-111774219D02*
X105620723Y-111821838D01*
X105620723Y-111821838D02*
X105668342Y-111869457D01*
X106049295Y-111869457D02*
X106096914Y-111821838D01*
X106096914Y-111821838D02*
X106192152Y-111774219D01*
X106192152Y-111774219D02*
X106430247Y-111774219D01*
X106430247Y-111774219D02*
X106525485Y-111821838D01*
X106525485Y-111821838D02*
X106573104Y-111869457D01*
X106573104Y-111869457D02*
X106620723Y-111964695D01*
X106620723Y-111964695D02*
X106620723Y-112059933D01*
X106620723Y-112059933D02*
X106573104Y-112202790D01*
X106573104Y-112202790D02*
X106001676Y-112774219D01*
X106001676Y-112774219D02*
X106620723Y-112774219D01*
X106954057Y-111774219D02*
X107573104Y-111774219D01*
X107573104Y-111774219D02*
X107239771Y-112155171D01*
X107239771Y-112155171D02*
X107382628Y-112155171D01*
X107382628Y-112155171D02*
X107477866Y-112202790D01*
X107477866Y-112202790D02*
X107525485Y-112250409D01*
X107525485Y-112250409D02*
X107573104Y-112345647D01*
X107573104Y-112345647D02*
X107573104Y-112583742D01*
X107573104Y-112583742D02*
X107525485Y-112678980D01*
X107525485Y-112678980D02*
X107477866Y-112726600D01*
X107477866Y-112726600D02*
X107382628Y-112774219D01*
X107382628Y-112774219D02*
X107096914Y-112774219D01*
X107096914Y-112774219D02*
X107001676Y-112726600D01*
X107001676Y-112726600D02*
X106954057Y-112678980D01*
X111091742Y-103839180D02*
X111044123Y-103886800D01*
X111044123Y-103886800D02*
X110901266Y-103934419D01*
X110901266Y-103934419D02*
X110806028Y-103934419D01*
X110806028Y-103934419D02*
X110663171Y-103886800D01*
X110663171Y-103886800D02*
X110567933Y-103791561D01*
X110567933Y-103791561D02*
X110520314Y-103696323D01*
X110520314Y-103696323D02*
X110472695Y-103505847D01*
X110472695Y-103505847D02*
X110472695Y-103362990D01*
X110472695Y-103362990D02*
X110520314Y-103172514D01*
X110520314Y-103172514D02*
X110567933Y-103077276D01*
X110567933Y-103077276D02*
X110663171Y-102982038D01*
X110663171Y-102982038D02*
X110806028Y-102934419D01*
X110806028Y-102934419D02*
X110901266Y-102934419D01*
X110901266Y-102934419D02*
X111044123Y-102982038D01*
X111044123Y-102982038D02*
X111091742Y-103029657D01*
X112044123Y-103934419D02*
X111472695Y-103934419D01*
X111758409Y-103934419D02*
X111758409Y-102934419D01*
X111758409Y-102934419D02*
X111663171Y-103077276D01*
X111663171Y-103077276D02*
X111567933Y-103172514D01*
X111567933Y-103172514D02*
X111472695Y-103220133D01*
X112377457Y-102934419D02*
X113044123Y-102934419D01*
X113044123Y-102934419D02*
X112615552Y-103934419D01*
X106113342Y-120526980D02*
X106065723Y-120574600D01*
X106065723Y-120574600D02*
X105922866Y-120622219D01*
X105922866Y-120622219D02*
X105827628Y-120622219D01*
X105827628Y-120622219D02*
X105684771Y-120574600D01*
X105684771Y-120574600D02*
X105589533Y-120479361D01*
X105589533Y-120479361D02*
X105541914Y-120384123D01*
X105541914Y-120384123D02*
X105494295Y-120193647D01*
X105494295Y-120193647D02*
X105494295Y-120050790D01*
X105494295Y-120050790D02*
X105541914Y-119860314D01*
X105541914Y-119860314D02*
X105589533Y-119765076D01*
X105589533Y-119765076D02*
X105684771Y-119669838D01*
X105684771Y-119669838D02*
X105827628Y-119622219D01*
X105827628Y-119622219D02*
X105922866Y-119622219D01*
X105922866Y-119622219D02*
X106065723Y-119669838D01*
X106065723Y-119669838D02*
X106113342Y-119717457D01*
X106494295Y-119717457D02*
X106541914Y-119669838D01*
X106541914Y-119669838D02*
X106637152Y-119622219D01*
X106637152Y-119622219D02*
X106875247Y-119622219D01*
X106875247Y-119622219D02*
X106970485Y-119669838D01*
X106970485Y-119669838D02*
X107018104Y-119717457D01*
X107018104Y-119717457D02*
X107065723Y-119812695D01*
X107065723Y-119812695D02*
X107065723Y-119907933D01*
X107065723Y-119907933D02*
X107018104Y-120050790D01*
X107018104Y-120050790D02*
X106446676Y-120622219D01*
X106446676Y-120622219D02*
X107065723Y-120622219D01*
X107970485Y-119622219D02*
X107494295Y-119622219D01*
X107494295Y-119622219D02*
X107446676Y-120098409D01*
X107446676Y-120098409D02*
X107494295Y-120050790D01*
X107494295Y-120050790D02*
X107589533Y-120003171D01*
X107589533Y-120003171D02*
X107827628Y-120003171D01*
X107827628Y-120003171D02*
X107922866Y-120050790D01*
X107922866Y-120050790D02*
X107970485Y-120098409D01*
X107970485Y-120098409D02*
X108018104Y-120193647D01*
X108018104Y-120193647D02*
X108018104Y-120431742D01*
X108018104Y-120431742D02*
X107970485Y-120526980D01*
X107970485Y-120526980D02*
X107922866Y-120574600D01*
X107922866Y-120574600D02*
X107827628Y-120622219D01*
X107827628Y-120622219D02*
X107589533Y-120622219D01*
X107589533Y-120622219D02*
X107494295Y-120574600D01*
X107494295Y-120574600D02*
X107446676Y-120526980D01*
X123473380Y-110802657D02*
X123521000Y-110850276D01*
X123521000Y-110850276D02*
X123568619Y-110993133D01*
X123568619Y-110993133D02*
X123568619Y-111088371D01*
X123568619Y-111088371D02*
X123521000Y-111231228D01*
X123521000Y-111231228D02*
X123425761Y-111326466D01*
X123425761Y-111326466D02*
X123330523Y-111374085D01*
X123330523Y-111374085D02*
X123140047Y-111421704D01*
X123140047Y-111421704D02*
X122997190Y-111421704D01*
X122997190Y-111421704D02*
X122806714Y-111374085D01*
X122806714Y-111374085D02*
X122711476Y-111326466D01*
X122711476Y-111326466D02*
X122616238Y-111231228D01*
X122616238Y-111231228D02*
X122568619Y-111088371D01*
X122568619Y-111088371D02*
X122568619Y-110993133D01*
X122568619Y-110993133D02*
X122616238Y-110850276D01*
X122616238Y-110850276D02*
X122663857Y-110802657D01*
X122568619Y-110469323D02*
X122568619Y-109850276D01*
X122568619Y-109850276D02*
X122949571Y-110183609D01*
X122949571Y-110183609D02*
X122949571Y-110040752D01*
X122949571Y-110040752D02*
X122997190Y-109945514D01*
X122997190Y-109945514D02*
X123044809Y-109897895D01*
X123044809Y-109897895D02*
X123140047Y-109850276D01*
X123140047Y-109850276D02*
X123378142Y-109850276D01*
X123378142Y-109850276D02*
X123473380Y-109897895D01*
X123473380Y-109897895D02*
X123521000Y-109945514D01*
X123521000Y-109945514D02*
X123568619Y-110040752D01*
X123568619Y-110040752D02*
X123568619Y-110326466D01*
X123568619Y-110326466D02*
X123521000Y-110421704D01*
X123521000Y-110421704D02*
X123473380Y-110469323D01*
X123568619Y-108897895D02*
X123568619Y-109469323D01*
X123568619Y-109183609D02*
X122568619Y-109183609D01*
X122568619Y-109183609D02*
X122711476Y-109278847D01*
X122711476Y-109278847D02*
X122806714Y-109374085D01*
X122806714Y-109374085D02*
X122854333Y-109469323D01*
X120958780Y-110574057D02*
X121006400Y-110621676D01*
X121006400Y-110621676D02*
X121054019Y-110764533D01*
X121054019Y-110764533D02*
X121054019Y-110859771D01*
X121054019Y-110859771D02*
X121006400Y-111002628D01*
X121006400Y-111002628D02*
X120911161Y-111097866D01*
X120911161Y-111097866D02*
X120815923Y-111145485D01*
X120815923Y-111145485D02*
X120625447Y-111193104D01*
X120625447Y-111193104D02*
X120482590Y-111193104D01*
X120482590Y-111193104D02*
X120292114Y-111145485D01*
X120292114Y-111145485D02*
X120196876Y-111097866D01*
X120196876Y-111097866D02*
X120101638Y-111002628D01*
X120101638Y-111002628D02*
X120054019Y-110859771D01*
X120054019Y-110859771D02*
X120054019Y-110764533D01*
X120054019Y-110764533D02*
X120101638Y-110621676D01*
X120101638Y-110621676D02*
X120149257Y-110574057D01*
X120054019Y-110240723D02*
X120054019Y-109621676D01*
X120054019Y-109621676D02*
X120434971Y-109955009D01*
X120434971Y-109955009D02*
X120434971Y-109812152D01*
X120434971Y-109812152D02*
X120482590Y-109716914D01*
X120482590Y-109716914D02*
X120530209Y-109669295D01*
X120530209Y-109669295D02*
X120625447Y-109621676D01*
X120625447Y-109621676D02*
X120863542Y-109621676D01*
X120863542Y-109621676D02*
X120958780Y-109669295D01*
X120958780Y-109669295D02*
X121006400Y-109716914D01*
X121006400Y-109716914D02*
X121054019Y-109812152D01*
X121054019Y-109812152D02*
X121054019Y-110097866D01*
X121054019Y-110097866D02*
X121006400Y-110193104D01*
X121006400Y-110193104D02*
X120958780Y-110240723D01*
X120149257Y-109240723D02*
X120101638Y-109193104D01*
X120101638Y-109193104D02*
X120054019Y-109097866D01*
X120054019Y-109097866D02*
X120054019Y-108859771D01*
X120054019Y-108859771D02*
X120101638Y-108764533D01*
X120101638Y-108764533D02*
X120149257Y-108716914D01*
X120149257Y-108716914D02*
X120244495Y-108669295D01*
X120244495Y-108669295D02*
X120339733Y-108669295D01*
X120339733Y-108669295D02*
X120482590Y-108716914D01*
X120482590Y-108716914D02*
X121054019Y-109288342D01*
X121054019Y-109288342D02*
X121054019Y-108669295D01*
X104299980Y-121496057D02*
X104347600Y-121543676D01*
X104347600Y-121543676D02*
X104395219Y-121686533D01*
X104395219Y-121686533D02*
X104395219Y-121781771D01*
X104395219Y-121781771D02*
X104347600Y-121924628D01*
X104347600Y-121924628D02*
X104252361Y-122019866D01*
X104252361Y-122019866D02*
X104157123Y-122067485D01*
X104157123Y-122067485D02*
X103966647Y-122115104D01*
X103966647Y-122115104D02*
X103823790Y-122115104D01*
X103823790Y-122115104D02*
X103633314Y-122067485D01*
X103633314Y-122067485D02*
X103538076Y-122019866D01*
X103538076Y-122019866D02*
X103442838Y-121924628D01*
X103442838Y-121924628D02*
X103395219Y-121781771D01*
X103395219Y-121781771D02*
X103395219Y-121686533D01*
X103395219Y-121686533D02*
X103442838Y-121543676D01*
X103442838Y-121543676D02*
X103490457Y-121496057D01*
X103490457Y-121115104D02*
X103442838Y-121067485D01*
X103442838Y-121067485D02*
X103395219Y-120972247D01*
X103395219Y-120972247D02*
X103395219Y-120734152D01*
X103395219Y-120734152D02*
X103442838Y-120638914D01*
X103442838Y-120638914D02*
X103490457Y-120591295D01*
X103490457Y-120591295D02*
X103585695Y-120543676D01*
X103585695Y-120543676D02*
X103680933Y-120543676D01*
X103680933Y-120543676D02*
X103823790Y-120591295D01*
X103823790Y-120591295D02*
X104395219Y-121162723D01*
X104395219Y-121162723D02*
X104395219Y-120543676D01*
X103395219Y-119924628D02*
X103395219Y-119829390D01*
X103395219Y-119829390D02*
X103442838Y-119734152D01*
X103442838Y-119734152D02*
X103490457Y-119686533D01*
X103490457Y-119686533D02*
X103585695Y-119638914D01*
X103585695Y-119638914D02*
X103776171Y-119591295D01*
X103776171Y-119591295D02*
X104014266Y-119591295D01*
X104014266Y-119591295D02*
X104204742Y-119638914D01*
X104204742Y-119638914D02*
X104299980Y-119686533D01*
X104299980Y-119686533D02*
X104347600Y-119734152D01*
X104347600Y-119734152D02*
X104395219Y-119829390D01*
X104395219Y-119829390D02*
X104395219Y-119924628D01*
X104395219Y-119924628D02*
X104347600Y-120019866D01*
X104347600Y-120019866D02*
X104299980Y-120067485D01*
X104299980Y-120067485D02*
X104204742Y-120115104D01*
X104204742Y-120115104D02*
X104014266Y-120162723D01*
X104014266Y-120162723D02*
X103776171Y-120162723D01*
X103776171Y-120162723D02*
X103585695Y-120115104D01*
X103585695Y-120115104D02*
X103490457Y-120067485D01*
X103490457Y-120067485D02*
X103442838Y-120019866D01*
X103442838Y-120019866D02*
X103395219Y-119924628D01*
X103604219Y-117762257D02*
X103128028Y-118095590D01*
X103604219Y-118333685D02*
X102604219Y-118333685D01*
X102604219Y-118333685D02*
X102604219Y-117952733D01*
X102604219Y-117952733D02*
X102651838Y-117857495D01*
X102651838Y-117857495D02*
X102699457Y-117809876D01*
X102699457Y-117809876D02*
X102794695Y-117762257D01*
X102794695Y-117762257D02*
X102937552Y-117762257D01*
X102937552Y-117762257D02*
X103032790Y-117809876D01*
X103032790Y-117809876D02*
X103080409Y-117857495D01*
X103080409Y-117857495D02*
X103128028Y-117952733D01*
X103128028Y-117952733D02*
X103128028Y-118333685D01*
X103604219Y-116809876D02*
X103604219Y-117381304D01*
X103604219Y-117095590D02*
X102604219Y-117095590D01*
X102604219Y-117095590D02*
X102747076Y-117190828D01*
X102747076Y-117190828D02*
X102842314Y-117286066D01*
X102842314Y-117286066D02*
X102889933Y-117381304D01*
X102937552Y-115952733D02*
X103604219Y-115952733D01*
X102556600Y-116190828D02*
X103270885Y-116428923D01*
X103270885Y-116428923D02*
X103270885Y-115809876D01*
X91787742Y-80852180D02*
X91740123Y-80899800D01*
X91740123Y-80899800D02*
X91597266Y-80947419D01*
X91597266Y-80947419D02*
X91502028Y-80947419D01*
X91502028Y-80947419D02*
X91359171Y-80899800D01*
X91359171Y-80899800D02*
X91263933Y-80804561D01*
X91263933Y-80804561D02*
X91216314Y-80709323D01*
X91216314Y-80709323D02*
X91168695Y-80518847D01*
X91168695Y-80518847D02*
X91168695Y-80375990D01*
X91168695Y-80375990D02*
X91216314Y-80185514D01*
X91216314Y-80185514D02*
X91263933Y-80090276D01*
X91263933Y-80090276D02*
X91359171Y-79995038D01*
X91359171Y-79995038D02*
X91502028Y-79947419D01*
X91502028Y-79947419D02*
X91597266Y-79947419D01*
X91597266Y-79947419D02*
X91740123Y-79995038D01*
X91740123Y-79995038D02*
X91787742Y-80042657D01*
X92168695Y-80042657D02*
X92216314Y-79995038D01*
X92216314Y-79995038D02*
X92311552Y-79947419D01*
X92311552Y-79947419D02*
X92549647Y-79947419D01*
X92549647Y-79947419D02*
X92644885Y-79995038D01*
X92644885Y-79995038D02*
X92692504Y-80042657D01*
X92692504Y-80042657D02*
X92740123Y-80137895D01*
X92740123Y-80137895D02*
X92740123Y-80233133D01*
X92740123Y-80233133D02*
X92692504Y-80375990D01*
X92692504Y-80375990D02*
X92121076Y-80947419D01*
X92121076Y-80947419D02*
X92740123Y-80947419D01*
X93216314Y-80947419D02*
X93406790Y-80947419D01*
X93406790Y-80947419D02*
X93502028Y-80899800D01*
X93502028Y-80899800D02*
X93549647Y-80852180D01*
X93549647Y-80852180D02*
X93644885Y-80709323D01*
X93644885Y-80709323D02*
X93692504Y-80518847D01*
X93692504Y-80518847D02*
X93692504Y-80137895D01*
X93692504Y-80137895D02*
X93644885Y-80042657D01*
X93644885Y-80042657D02*
X93597266Y-79995038D01*
X93597266Y-79995038D02*
X93502028Y-79947419D01*
X93502028Y-79947419D02*
X93311552Y-79947419D01*
X93311552Y-79947419D02*
X93216314Y-79995038D01*
X93216314Y-79995038D02*
X93168695Y-80042657D01*
X93168695Y-80042657D02*
X93121076Y-80137895D01*
X93121076Y-80137895D02*
X93121076Y-80375990D01*
X93121076Y-80375990D02*
X93168695Y-80471228D01*
X93168695Y-80471228D02*
X93216314Y-80518847D01*
X93216314Y-80518847D02*
X93311552Y-80566466D01*
X93311552Y-80566466D02*
X93502028Y-80566466D01*
X93502028Y-80566466D02*
X93597266Y-80518847D01*
X93597266Y-80518847D02*
X93644885Y-80471228D01*
X93644885Y-80471228D02*
X93692504Y-80375990D01*
X100344505Y-87668819D02*
X100915933Y-87668819D01*
X100630219Y-88668819D02*
X100630219Y-87668819D01*
X101249267Y-88668819D02*
X101249267Y-87668819D01*
X101249267Y-87668819D02*
X101630219Y-87668819D01*
X101630219Y-87668819D02*
X101725457Y-87716438D01*
X101725457Y-87716438D02*
X101773076Y-87764057D01*
X101773076Y-87764057D02*
X101820695Y-87859295D01*
X101820695Y-87859295D02*
X101820695Y-88002152D01*
X101820695Y-88002152D02*
X101773076Y-88097390D01*
X101773076Y-88097390D02*
X101725457Y-88145009D01*
X101725457Y-88145009D02*
X101630219Y-88192628D01*
X101630219Y-88192628D02*
X101249267Y-88192628D01*
X102773076Y-88668819D02*
X102201648Y-88668819D01*
X102487362Y-88668819D02*
X102487362Y-87668819D01*
X102487362Y-87668819D02*
X102392124Y-87811676D01*
X102392124Y-87811676D02*
X102296886Y-87906914D01*
X102296886Y-87906914D02*
X102201648Y-87954533D01*
X103106410Y-87668819D02*
X103725457Y-87668819D01*
X103725457Y-87668819D02*
X103392124Y-88049771D01*
X103392124Y-88049771D02*
X103534981Y-88049771D01*
X103534981Y-88049771D02*
X103630219Y-88097390D01*
X103630219Y-88097390D02*
X103677838Y-88145009D01*
X103677838Y-88145009D02*
X103725457Y-88240247D01*
X103725457Y-88240247D02*
X103725457Y-88478342D01*
X103725457Y-88478342D02*
X103677838Y-88573580D01*
X103677838Y-88573580D02*
X103630219Y-88621200D01*
X103630219Y-88621200D02*
X103534981Y-88668819D01*
X103534981Y-88668819D02*
X103249267Y-88668819D01*
X103249267Y-88668819D02*
X103154029Y-88621200D01*
X103154029Y-88621200D02*
X103106410Y-88573580D01*
X129629819Y-127326923D02*
X130344104Y-127326923D01*
X130344104Y-127326923D02*
X130486961Y-127374542D01*
X130486961Y-127374542D02*
X130582200Y-127469780D01*
X130582200Y-127469780D02*
X130629819Y-127612637D01*
X130629819Y-127612637D02*
X130629819Y-127707875D01*
X130629819Y-126326923D02*
X130629819Y-126898351D01*
X130629819Y-126612637D02*
X129629819Y-126612637D01*
X129629819Y-126612637D02*
X129772676Y-126707875D01*
X129772676Y-126707875D02*
X129867914Y-126803113D01*
X129867914Y-126803113D02*
X129915533Y-126898351D01*
X130058390Y-125755494D02*
X130010771Y-125850732D01*
X130010771Y-125850732D02*
X129963152Y-125898351D01*
X129963152Y-125898351D02*
X129867914Y-125945970D01*
X129867914Y-125945970D02*
X129820295Y-125945970D01*
X129820295Y-125945970D02*
X129725057Y-125898351D01*
X129725057Y-125898351D02*
X129677438Y-125850732D01*
X129677438Y-125850732D02*
X129629819Y-125755494D01*
X129629819Y-125755494D02*
X129629819Y-125565018D01*
X129629819Y-125565018D02*
X129677438Y-125469780D01*
X129677438Y-125469780D02*
X129725057Y-125422161D01*
X129725057Y-125422161D02*
X129820295Y-125374542D01*
X129820295Y-125374542D02*
X129867914Y-125374542D01*
X129867914Y-125374542D02*
X129963152Y-125422161D01*
X129963152Y-125422161D02*
X130010771Y-125469780D01*
X130010771Y-125469780D02*
X130058390Y-125565018D01*
X130058390Y-125565018D02*
X130058390Y-125755494D01*
X130058390Y-125755494D02*
X130106009Y-125850732D01*
X130106009Y-125850732D02*
X130153628Y-125898351D01*
X130153628Y-125898351D02*
X130248866Y-125945970D01*
X130248866Y-125945970D02*
X130439342Y-125945970D01*
X130439342Y-125945970D02*
X130534580Y-125898351D01*
X130534580Y-125898351D02*
X130582200Y-125850732D01*
X130582200Y-125850732D02*
X130629819Y-125755494D01*
X130629819Y-125755494D02*
X130629819Y-125565018D01*
X130629819Y-125565018D02*
X130582200Y-125469780D01*
X130582200Y-125469780D02*
X130534580Y-125422161D01*
X130534580Y-125422161D02*
X130439342Y-125374542D01*
X130439342Y-125374542D02*
X130248866Y-125374542D01*
X130248866Y-125374542D02*
X130153628Y-125422161D01*
X130153628Y-125422161D02*
X130106009Y-125469780D01*
X130106009Y-125469780D02*
X130058390Y-125565018D01*
X122972533Y-128273980D02*
X122924914Y-128321600D01*
X122924914Y-128321600D02*
X122782057Y-128369219D01*
X122782057Y-128369219D02*
X122686819Y-128369219D01*
X122686819Y-128369219D02*
X122543962Y-128321600D01*
X122543962Y-128321600D02*
X122448724Y-128226361D01*
X122448724Y-128226361D02*
X122401105Y-128131123D01*
X122401105Y-128131123D02*
X122353486Y-127940647D01*
X122353486Y-127940647D02*
X122353486Y-127797790D01*
X122353486Y-127797790D02*
X122401105Y-127607314D01*
X122401105Y-127607314D02*
X122448724Y-127512076D01*
X122448724Y-127512076D02*
X122543962Y-127416838D01*
X122543962Y-127416838D02*
X122686819Y-127369219D01*
X122686819Y-127369219D02*
X122782057Y-127369219D01*
X122782057Y-127369219D02*
X122924914Y-127416838D01*
X122924914Y-127416838D02*
X122972533Y-127464457D01*
X123829676Y-127369219D02*
X123639200Y-127369219D01*
X123639200Y-127369219D02*
X123543962Y-127416838D01*
X123543962Y-127416838D02*
X123496343Y-127464457D01*
X123496343Y-127464457D02*
X123401105Y-127607314D01*
X123401105Y-127607314D02*
X123353486Y-127797790D01*
X123353486Y-127797790D02*
X123353486Y-128178742D01*
X123353486Y-128178742D02*
X123401105Y-128273980D01*
X123401105Y-128273980D02*
X123448724Y-128321600D01*
X123448724Y-128321600D02*
X123543962Y-128369219D01*
X123543962Y-128369219D02*
X123734438Y-128369219D01*
X123734438Y-128369219D02*
X123829676Y-128321600D01*
X123829676Y-128321600D02*
X123877295Y-128273980D01*
X123877295Y-128273980D02*
X123924914Y-128178742D01*
X123924914Y-128178742D02*
X123924914Y-127940647D01*
X123924914Y-127940647D02*
X123877295Y-127845409D01*
X123877295Y-127845409D02*
X123829676Y-127797790D01*
X123829676Y-127797790D02*
X123734438Y-127750171D01*
X123734438Y-127750171D02*
X123543962Y-127750171D01*
X123543962Y-127750171D02*
X123448724Y-127797790D01*
X123448724Y-127797790D02*
X123401105Y-127845409D01*
X123401105Y-127845409D02*
X123353486Y-127940647D01*
X123328133Y-122812980D02*
X123280514Y-122860600D01*
X123280514Y-122860600D02*
X123137657Y-122908219D01*
X123137657Y-122908219D02*
X123042419Y-122908219D01*
X123042419Y-122908219D02*
X122899562Y-122860600D01*
X122899562Y-122860600D02*
X122804324Y-122765361D01*
X122804324Y-122765361D02*
X122756705Y-122670123D01*
X122756705Y-122670123D02*
X122709086Y-122479647D01*
X122709086Y-122479647D02*
X122709086Y-122336790D01*
X122709086Y-122336790D02*
X122756705Y-122146314D01*
X122756705Y-122146314D02*
X122804324Y-122051076D01*
X122804324Y-122051076D02*
X122899562Y-121955838D01*
X122899562Y-121955838D02*
X123042419Y-121908219D01*
X123042419Y-121908219D02*
X123137657Y-121908219D01*
X123137657Y-121908219D02*
X123280514Y-121955838D01*
X123280514Y-121955838D02*
X123328133Y-122003457D01*
X124232895Y-121908219D02*
X123756705Y-121908219D01*
X123756705Y-121908219D02*
X123709086Y-122384409D01*
X123709086Y-122384409D02*
X123756705Y-122336790D01*
X123756705Y-122336790D02*
X123851943Y-122289171D01*
X123851943Y-122289171D02*
X124090038Y-122289171D01*
X124090038Y-122289171D02*
X124185276Y-122336790D01*
X124185276Y-122336790D02*
X124232895Y-122384409D01*
X124232895Y-122384409D02*
X124280514Y-122479647D01*
X124280514Y-122479647D02*
X124280514Y-122717742D01*
X124280514Y-122717742D02*
X124232895Y-122812980D01*
X124232895Y-122812980D02*
X124185276Y-122860600D01*
X124185276Y-122860600D02*
X124090038Y-122908219D01*
X124090038Y-122908219D02*
X123851943Y-122908219D01*
X123851943Y-122908219D02*
X123756705Y-122860600D01*
X123756705Y-122860600D02*
X123709086Y-122812980D01*
X120711933Y-129899580D02*
X120664314Y-129947200D01*
X120664314Y-129947200D02*
X120521457Y-129994819D01*
X120521457Y-129994819D02*
X120426219Y-129994819D01*
X120426219Y-129994819D02*
X120283362Y-129947200D01*
X120283362Y-129947200D02*
X120188124Y-129851961D01*
X120188124Y-129851961D02*
X120140505Y-129756723D01*
X120140505Y-129756723D02*
X120092886Y-129566247D01*
X120092886Y-129566247D02*
X120092886Y-129423390D01*
X120092886Y-129423390D02*
X120140505Y-129232914D01*
X120140505Y-129232914D02*
X120188124Y-129137676D01*
X120188124Y-129137676D02*
X120283362Y-129042438D01*
X120283362Y-129042438D02*
X120426219Y-128994819D01*
X120426219Y-128994819D02*
X120521457Y-128994819D01*
X120521457Y-128994819D02*
X120664314Y-129042438D01*
X120664314Y-129042438D02*
X120711933Y-129090057D01*
X121045267Y-128994819D02*
X121711933Y-128994819D01*
X121711933Y-128994819D02*
X121283362Y-129994819D01*
X121902419Y-136002704D02*
X122711942Y-136002704D01*
X122711942Y-136002704D02*
X122807180Y-135955085D01*
X122807180Y-135955085D02*
X122854800Y-135907466D01*
X122854800Y-135907466D02*
X122902419Y-135812228D01*
X122902419Y-135812228D02*
X122902419Y-135621752D01*
X122902419Y-135621752D02*
X122854800Y-135526514D01*
X122854800Y-135526514D02*
X122807180Y-135478895D01*
X122807180Y-135478895D02*
X122711942Y-135431276D01*
X122711942Y-135431276D02*
X121902419Y-135431276D01*
X121997657Y-135002704D02*
X121950038Y-134955085D01*
X121950038Y-134955085D02*
X121902419Y-134859847D01*
X121902419Y-134859847D02*
X121902419Y-134621752D01*
X121902419Y-134621752D02*
X121950038Y-134526514D01*
X121950038Y-134526514D02*
X121997657Y-134478895D01*
X121997657Y-134478895D02*
X122092895Y-134431276D01*
X122092895Y-134431276D02*
X122188133Y-134431276D01*
X122188133Y-134431276D02*
X122330990Y-134478895D01*
X122330990Y-134478895D02*
X122902419Y-135050323D01*
X122902419Y-135050323D02*
X122902419Y-134431276D01*
X121531142Y-144599819D02*
X121197809Y-144123628D01*
X120959714Y-144599819D02*
X120959714Y-143599819D01*
X120959714Y-143599819D02*
X121340666Y-143599819D01*
X121340666Y-143599819D02*
X121435904Y-143647438D01*
X121435904Y-143647438D02*
X121483523Y-143695057D01*
X121483523Y-143695057D02*
X121531142Y-143790295D01*
X121531142Y-143790295D02*
X121531142Y-143933152D01*
X121531142Y-143933152D02*
X121483523Y-144028390D01*
X121483523Y-144028390D02*
X121435904Y-144076009D01*
X121435904Y-144076009D02*
X121340666Y-144123628D01*
X121340666Y-144123628D02*
X120959714Y-144123628D01*
X122483523Y-144599819D02*
X121912095Y-144599819D01*
X122197809Y-144599819D02*
X122197809Y-143599819D01*
X122197809Y-143599819D02*
X122102571Y-143742676D01*
X122102571Y-143742676D02*
X122007333Y-143837914D01*
X122007333Y-143837914D02*
X121912095Y-143885533D01*
X122864476Y-143695057D02*
X122912095Y-143647438D01*
X122912095Y-143647438D02*
X123007333Y-143599819D01*
X123007333Y-143599819D02*
X123245428Y-143599819D01*
X123245428Y-143599819D02*
X123340666Y-143647438D01*
X123340666Y-143647438D02*
X123388285Y-143695057D01*
X123388285Y-143695057D02*
X123435904Y-143790295D01*
X123435904Y-143790295D02*
X123435904Y-143885533D01*
X123435904Y-143885533D02*
X123388285Y-144028390D01*
X123388285Y-144028390D02*
X122816857Y-144599819D01*
X122816857Y-144599819D02*
X123435904Y-144599819D01*
X126895266Y-130588609D02*
X126561933Y-130588609D01*
X126561933Y-131112419D02*
X126561933Y-130112419D01*
X126561933Y-130112419D02*
X127038123Y-130112419D01*
X127323838Y-130112419D02*
X127942885Y-130112419D01*
X127942885Y-130112419D02*
X127609552Y-130493371D01*
X127609552Y-130493371D02*
X127752409Y-130493371D01*
X127752409Y-130493371D02*
X127847647Y-130540990D01*
X127847647Y-130540990D02*
X127895266Y-130588609D01*
X127895266Y-130588609D02*
X127942885Y-130683847D01*
X127942885Y-130683847D02*
X127942885Y-130921942D01*
X127942885Y-130921942D02*
X127895266Y-131017180D01*
X127895266Y-131017180D02*
X127847647Y-131064800D01*
X127847647Y-131064800D02*
X127752409Y-131112419D01*
X127752409Y-131112419D02*
X127466695Y-131112419D01*
X127466695Y-131112419D02*
X127371457Y-131064800D01*
X127371457Y-131064800D02*
X127323838Y-131017180D01*
X125178409Y-112804533D02*
X125178409Y-113137866D01*
X125702219Y-113137866D02*
X124702219Y-113137866D01*
X124702219Y-113137866D02*
X124702219Y-112661676D01*
X125702219Y-111756914D02*
X125702219Y-112328342D01*
X125702219Y-112042628D02*
X124702219Y-112042628D01*
X124702219Y-112042628D02*
X124845076Y-112137866D01*
X124845076Y-112137866D02*
X124940314Y-112233104D01*
X124940314Y-112233104D02*
X124987933Y-112328342D01*
X100750905Y-71666819D02*
X101322333Y-71666819D01*
X101036619Y-72666819D02*
X101036619Y-71666819D01*
X101655667Y-72666819D02*
X101655667Y-71666819D01*
X101655667Y-71666819D02*
X102036619Y-71666819D01*
X102036619Y-71666819D02*
X102131857Y-71714438D01*
X102131857Y-71714438D02*
X102179476Y-71762057D01*
X102179476Y-71762057D02*
X102227095Y-71857295D01*
X102227095Y-71857295D02*
X102227095Y-72000152D01*
X102227095Y-72000152D02*
X102179476Y-72095390D01*
X102179476Y-72095390D02*
X102131857Y-72143009D01*
X102131857Y-72143009D02*
X102036619Y-72190628D01*
X102036619Y-72190628D02*
X101655667Y-72190628D01*
X103179476Y-72666819D02*
X102608048Y-72666819D01*
X102893762Y-72666819D02*
X102893762Y-71666819D01*
X102893762Y-71666819D02*
X102798524Y-71809676D01*
X102798524Y-71809676D02*
X102703286Y-71904914D01*
X102703286Y-71904914D02*
X102608048Y-71952533D01*
X104131857Y-72666819D02*
X103560429Y-72666819D01*
X103846143Y-72666819D02*
X103846143Y-71666819D01*
X103846143Y-71666819D02*
X103750905Y-71809676D01*
X103750905Y-71809676D02*
X103655667Y-71904914D01*
X103655667Y-71904914D02*
X103560429Y-71952533D01*
X112329933Y-98422619D02*
X111996600Y-97946428D01*
X111758505Y-98422619D02*
X111758505Y-97422619D01*
X111758505Y-97422619D02*
X112139457Y-97422619D01*
X112139457Y-97422619D02*
X112234695Y-97470238D01*
X112234695Y-97470238D02*
X112282314Y-97517857D01*
X112282314Y-97517857D02*
X112329933Y-97613095D01*
X112329933Y-97613095D02*
X112329933Y-97755952D01*
X112329933Y-97755952D02*
X112282314Y-97851190D01*
X112282314Y-97851190D02*
X112234695Y-97898809D01*
X112234695Y-97898809D02*
X112139457Y-97946428D01*
X112139457Y-97946428D02*
X111758505Y-97946428D01*
X112663267Y-97422619D02*
X113329933Y-97422619D01*
X113329933Y-97422619D02*
X112901362Y-98422619D01*
X132536905Y-82829819D02*
X132536905Y-81829819D01*
X132536905Y-81829819D02*
X132775000Y-81829819D01*
X132775000Y-81829819D02*
X132917857Y-81877438D01*
X132917857Y-81877438D02*
X133013095Y-81972676D01*
X133013095Y-81972676D02*
X133060714Y-82067914D01*
X133060714Y-82067914D02*
X133108333Y-82258390D01*
X133108333Y-82258390D02*
X133108333Y-82401247D01*
X133108333Y-82401247D02*
X133060714Y-82591723D01*
X133060714Y-82591723D02*
X133013095Y-82686961D01*
X133013095Y-82686961D02*
X132917857Y-82782200D01*
X132917857Y-82782200D02*
X132775000Y-82829819D01*
X132775000Y-82829819D02*
X132536905Y-82829819D01*
X133441667Y-81829819D02*
X134108333Y-81829819D01*
X134108333Y-81829819D02*
X133679762Y-82829819D01*
X130087019Y-112321933D02*
X130801304Y-112321933D01*
X130801304Y-112321933D02*
X130944161Y-112369552D01*
X130944161Y-112369552D02*
X131039400Y-112464790D01*
X131039400Y-112464790D02*
X131087019Y-112607647D01*
X131087019Y-112607647D02*
X131087019Y-112702885D01*
X130182257Y-111893361D02*
X130134638Y-111845742D01*
X130134638Y-111845742D02*
X130087019Y-111750504D01*
X130087019Y-111750504D02*
X130087019Y-111512409D01*
X130087019Y-111512409D02*
X130134638Y-111417171D01*
X130134638Y-111417171D02*
X130182257Y-111369552D01*
X130182257Y-111369552D02*
X130277495Y-111321933D01*
X130277495Y-111321933D02*
X130372733Y-111321933D01*
X130372733Y-111321933D02*
X130515590Y-111369552D01*
X130515590Y-111369552D02*
X131087019Y-111940980D01*
X131087019Y-111940980D02*
X131087019Y-111321933D01*
X128709380Y-94779057D02*
X128757000Y-94826676D01*
X128757000Y-94826676D02*
X128804619Y-94969533D01*
X128804619Y-94969533D02*
X128804619Y-95064771D01*
X128804619Y-95064771D02*
X128757000Y-95207628D01*
X128757000Y-95207628D02*
X128661761Y-95302866D01*
X128661761Y-95302866D02*
X128566523Y-95350485D01*
X128566523Y-95350485D02*
X128376047Y-95398104D01*
X128376047Y-95398104D02*
X128233190Y-95398104D01*
X128233190Y-95398104D02*
X128042714Y-95350485D01*
X128042714Y-95350485D02*
X127947476Y-95302866D01*
X127947476Y-95302866D02*
X127852238Y-95207628D01*
X127852238Y-95207628D02*
X127804619Y-95064771D01*
X127804619Y-95064771D02*
X127804619Y-94969533D01*
X127804619Y-94969533D02*
X127852238Y-94826676D01*
X127852238Y-94826676D02*
X127899857Y-94779057D01*
X128804619Y-93826676D02*
X128804619Y-94398104D01*
X128804619Y-94112390D02*
X127804619Y-94112390D01*
X127804619Y-94112390D02*
X127947476Y-94207628D01*
X127947476Y-94207628D02*
X128042714Y-94302866D01*
X128042714Y-94302866D02*
X128090333Y-94398104D01*
X127804619Y-92969533D02*
X127804619Y-93160009D01*
X127804619Y-93160009D02*
X127852238Y-93255247D01*
X127852238Y-93255247D02*
X127899857Y-93302866D01*
X127899857Y-93302866D02*
X128042714Y-93398104D01*
X128042714Y-93398104D02*
X128233190Y-93445723D01*
X128233190Y-93445723D02*
X128614142Y-93445723D01*
X128614142Y-93445723D02*
X128709380Y-93398104D01*
X128709380Y-93398104D02*
X128757000Y-93350485D01*
X128757000Y-93350485D02*
X128804619Y-93255247D01*
X128804619Y-93255247D02*
X128804619Y-93064771D01*
X128804619Y-93064771D02*
X128757000Y-92969533D01*
X128757000Y-92969533D02*
X128709380Y-92921914D01*
X128709380Y-92921914D02*
X128614142Y-92874295D01*
X128614142Y-92874295D02*
X128376047Y-92874295D01*
X128376047Y-92874295D02*
X128280809Y-92921914D01*
X128280809Y-92921914D02*
X128233190Y-92969533D01*
X128233190Y-92969533D02*
X128185571Y-93064771D01*
X128185571Y-93064771D02*
X128185571Y-93255247D01*
X128185571Y-93255247D02*
X128233190Y-93350485D01*
X128233190Y-93350485D02*
X128280809Y-93398104D01*
X128280809Y-93398104D02*
X128376047Y-93445723D01*
X131880780Y-89314257D02*
X131928400Y-89361876D01*
X131928400Y-89361876D02*
X131976019Y-89504733D01*
X131976019Y-89504733D02*
X131976019Y-89599971D01*
X131976019Y-89599971D02*
X131928400Y-89742828D01*
X131928400Y-89742828D02*
X131833161Y-89838066D01*
X131833161Y-89838066D02*
X131737923Y-89885685D01*
X131737923Y-89885685D02*
X131547447Y-89933304D01*
X131547447Y-89933304D02*
X131404590Y-89933304D01*
X131404590Y-89933304D02*
X131214114Y-89885685D01*
X131214114Y-89885685D02*
X131118876Y-89838066D01*
X131118876Y-89838066D02*
X131023638Y-89742828D01*
X131023638Y-89742828D02*
X130976019Y-89599971D01*
X130976019Y-89599971D02*
X130976019Y-89504733D01*
X130976019Y-89504733D02*
X131023638Y-89361876D01*
X131023638Y-89361876D02*
X131071257Y-89314257D01*
X131976019Y-88361876D02*
X131976019Y-88933304D01*
X131976019Y-88647590D02*
X130976019Y-88647590D01*
X130976019Y-88647590D02*
X131118876Y-88742828D01*
X131118876Y-88742828D02*
X131214114Y-88838066D01*
X131214114Y-88838066D02*
X131261733Y-88933304D01*
X131976019Y-87409495D02*
X131976019Y-87980923D01*
X131976019Y-87695209D02*
X130976019Y-87695209D01*
X130976019Y-87695209D02*
X131118876Y-87790447D01*
X131118876Y-87790447D02*
X131214114Y-87885685D01*
X131214114Y-87885685D02*
X131261733Y-87980923D01*
X129232142Y-74709580D02*
X129184523Y-74757200D01*
X129184523Y-74757200D02*
X129041666Y-74804819D01*
X129041666Y-74804819D02*
X128946428Y-74804819D01*
X128946428Y-74804819D02*
X128803571Y-74757200D01*
X128803571Y-74757200D02*
X128708333Y-74661961D01*
X128708333Y-74661961D02*
X128660714Y-74566723D01*
X128660714Y-74566723D02*
X128613095Y-74376247D01*
X128613095Y-74376247D02*
X128613095Y-74233390D01*
X128613095Y-74233390D02*
X128660714Y-74042914D01*
X128660714Y-74042914D02*
X128708333Y-73947676D01*
X128708333Y-73947676D02*
X128803571Y-73852438D01*
X128803571Y-73852438D02*
X128946428Y-73804819D01*
X128946428Y-73804819D02*
X129041666Y-73804819D01*
X129041666Y-73804819D02*
X129184523Y-73852438D01*
X129184523Y-73852438D02*
X129232142Y-73900057D01*
X130184523Y-74804819D02*
X129613095Y-74804819D01*
X129898809Y-74804819D02*
X129898809Y-73804819D01*
X129898809Y-73804819D02*
X129803571Y-73947676D01*
X129803571Y-73947676D02*
X129708333Y-74042914D01*
X129708333Y-74042914D02*
X129613095Y-74090533D01*
X130803571Y-73804819D02*
X130898809Y-73804819D01*
X130898809Y-73804819D02*
X130994047Y-73852438D01*
X130994047Y-73852438D02*
X131041666Y-73900057D01*
X131041666Y-73900057D02*
X131089285Y-73995295D01*
X131089285Y-73995295D02*
X131136904Y-74185771D01*
X131136904Y-74185771D02*
X131136904Y-74423866D01*
X131136904Y-74423866D02*
X131089285Y-74614342D01*
X131089285Y-74614342D02*
X131041666Y-74709580D01*
X131041666Y-74709580D02*
X130994047Y-74757200D01*
X130994047Y-74757200D02*
X130898809Y-74804819D01*
X130898809Y-74804819D02*
X130803571Y-74804819D01*
X130803571Y-74804819D02*
X130708333Y-74757200D01*
X130708333Y-74757200D02*
X130660714Y-74709580D01*
X130660714Y-74709580D02*
X130613095Y-74614342D01*
X130613095Y-74614342D02*
X130565476Y-74423866D01*
X130565476Y-74423866D02*
X130565476Y-74185771D01*
X130565476Y-74185771D02*
X130613095Y-73995295D01*
X130613095Y-73995295D02*
X130660714Y-73900057D01*
X130660714Y-73900057D02*
X130708333Y-73852438D01*
X130708333Y-73852438D02*
X130803571Y-73804819D01*
X132294333Y-141678819D02*
X131961000Y-141202628D01*
X131722905Y-141678819D02*
X131722905Y-140678819D01*
X131722905Y-140678819D02*
X132103857Y-140678819D01*
X132103857Y-140678819D02*
X132199095Y-140726438D01*
X132199095Y-140726438D02*
X132246714Y-140774057D01*
X132246714Y-140774057D02*
X132294333Y-140869295D01*
X132294333Y-140869295D02*
X132294333Y-141012152D01*
X132294333Y-141012152D02*
X132246714Y-141107390D01*
X132246714Y-141107390D02*
X132199095Y-141155009D01*
X132199095Y-141155009D02*
X132103857Y-141202628D01*
X132103857Y-141202628D02*
X131722905Y-141202628D01*
X132770524Y-141678819D02*
X132961000Y-141678819D01*
X132961000Y-141678819D02*
X133056238Y-141631200D01*
X133056238Y-141631200D02*
X133103857Y-141583580D01*
X133103857Y-141583580D02*
X133199095Y-141440723D01*
X133199095Y-141440723D02*
X133246714Y-141250247D01*
X133246714Y-141250247D02*
X133246714Y-140869295D01*
X133246714Y-140869295D02*
X133199095Y-140774057D01*
X133199095Y-140774057D02*
X133151476Y-140726438D01*
X133151476Y-140726438D02*
X133056238Y-140678819D01*
X133056238Y-140678819D02*
X132865762Y-140678819D01*
X132865762Y-140678819D02*
X132770524Y-140726438D01*
X132770524Y-140726438D02*
X132722905Y-140774057D01*
X132722905Y-140774057D02*
X132675286Y-140869295D01*
X132675286Y-140869295D02*
X132675286Y-141107390D01*
X132675286Y-141107390D02*
X132722905Y-141202628D01*
X132722905Y-141202628D02*
X132770524Y-141250247D01*
X132770524Y-141250247D02*
X132865762Y-141297866D01*
X132865762Y-141297866D02*
X133056238Y-141297866D01*
X133056238Y-141297866D02*
X133151476Y-141250247D01*
X133151476Y-141250247D02*
X133199095Y-141202628D01*
X133199095Y-141202628D02*
X133246714Y-141107390D01*
X137307142Y-79604819D02*
X136973809Y-79128628D01*
X136735714Y-79604819D02*
X136735714Y-78604819D01*
X136735714Y-78604819D02*
X137116666Y-78604819D01*
X137116666Y-78604819D02*
X137211904Y-78652438D01*
X137211904Y-78652438D02*
X137259523Y-78700057D01*
X137259523Y-78700057D02*
X137307142Y-78795295D01*
X137307142Y-78795295D02*
X137307142Y-78938152D01*
X137307142Y-78938152D02*
X137259523Y-79033390D01*
X137259523Y-79033390D02*
X137211904Y-79081009D01*
X137211904Y-79081009D02*
X137116666Y-79128628D01*
X137116666Y-79128628D02*
X136735714Y-79128628D01*
X137688095Y-78700057D02*
X137735714Y-78652438D01*
X137735714Y-78652438D02*
X137830952Y-78604819D01*
X137830952Y-78604819D02*
X138069047Y-78604819D01*
X138069047Y-78604819D02*
X138164285Y-78652438D01*
X138164285Y-78652438D02*
X138211904Y-78700057D01*
X138211904Y-78700057D02*
X138259523Y-78795295D01*
X138259523Y-78795295D02*
X138259523Y-78890533D01*
X138259523Y-78890533D02*
X138211904Y-79033390D01*
X138211904Y-79033390D02*
X137640476Y-79604819D01*
X137640476Y-79604819D02*
X138259523Y-79604819D01*
X139211904Y-79604819D02*
X138640476Y-79604819D01*
X138926190Y-79604819D02*
X138926190Y-78604819D01*
X138926190Y-78604819D02*
X138830952Y-78747676D01*
X138830952Y-78747676D02*
X138735714Y-78842914D01*
X138735714Y-78842914D02*
X138640476Y-78890533D01*
X110736142Y-82350780D02*
X110688523Y-82398400D01*
X110688523Y-82398400D02*
X110545666Y-82446019D01*
X110545666Y-82446019D02*
X110450428Y-82446019D01*
X110450428Y-82446019D02*
X110307571Y-82398400D01*
X110307571Y-82398400D02*
X110212333Y-82303161D01*
X110212333Y-82303161D02*
X110164714Y-82207923D01*
X110164714Y-82207923D02*
X110117095Y-82017447D01*
X110117095Y-82017447D02*
X110117095Y-81874590D01*
X110117095Y-81874590D02*
X110164714Y-81684114D01*
X110164714Y-81684114D02*
X110212333Y-81588876D01*
X110212333Y-81588876D02*
X110307571Y-81493638D01*
X110307571Y-81493638D02*
X110450428Y-81446019D01*
X110450428Y-81446019D02*
X110545666Y-81446019D01*
X110545666Y-81446019D02*
X110688523Y-81493638D01*
X110688523Y-81493638D02*
X110736142Y-81541257D01*
X111688523Y-82446019D02*
X111117095Y-82446019D01*
X111402809Y-82446019D02*
X111402809Y-81446019D01*
X111402809Y-81446019D02*
X111307571Y-81588876D01*
X111307571Y-81588876D02*
X111212333Y-81684114D01*
X111212333Y-81684114D02*
X111117095Y-81731733D01*
X112593285Y-81446019D02*
X112117095Y-81446019D01*
X112117095Y-81446019D02*
X112069476Y-81922209D01*
X112069476Y-81922209D02*
X112117095Y-81874590D01*
X112117095Y-81874590D02*
X112212333Y-81826971D01*
X112212333Y-81826971D02*
X112450428Y-81826971D01*
X112450428Y-81826971D02*
X112545666Y-81874590D01*
X112545666Y-81874590D02*
X112593285Y-81922209D01*
X112593285Y-81922209D02*
X112640904Y-82017447D01*
X112640904Y-82017447D02*
X112640904Y-82255542D01*
X112640904Y-82255542D02*
X112593285Y-82350780D01*
X112593285Y-82350780D02*
X112545666Y-82398400D01*
X112545666Y-82398400D02*
X112450428Y-82446019D01*
X112450428Y-82446019D02*
X112212333Y-82446019D01*
X112212333Y-82446019D02*
X112117095Y-82398400D01*
X112117095Y-82398400D02*
X112069476Y-82350780D01*
X112456933Y-94485619D02*
X112123600Y-94009428D01*
X111885505Y-94485619D02*
X111885505Y-93485619D01*
X111885505Y-93485619D02*
X112266457Y-93485619D01*
X112266457Y-93485619D02*
X112361695Y-93533238D01*
X112361695Y-93533238D02*
X112409314Y-93580857D01*
X112409314Y-93580857D02*
X112456933Y-93676095D01*
X112456933Y-93676095D02*
X112456933Y-93818952D01*
X112456933Y-93818952D02*
X112409314Y-93914190D01*
X112409314Y-93914190D02*
X112361695Y-93961809D01*
X112361695Y-93961809D02*
X112266457Y-94009428D01*
X112266457Y-94009428D02*
X111885505Y-94009428D01*
X113314076Y-93485619D02*
X113123600Y-93485619D01*
X113123600Y-93485619D02*
X113028362Y-93533238D01*
X113028362Y-93533238D02*
X112980743Y-93580857D01*
X112980743Y-93580857D02*
X112885505Y-93723714D01*
X112885505Y-93723714D02*
X112837886Y-93914190D01*
X112837886Y-93914190D02*
X112837886Y-94295142D01*
X112837886Y-94295142D02*
X112885505Y-94390380D01*
X112885505Y-94390380D02*
X112933124Y-94438000D01*
X112933124Y-94438000D02*
X113028362Y-94485619D01*
X113028362Y-94485619D02*
X113218838Y-94485619D01*
X113218838Y-94485619D02*
X113314076Y-94438000D01*
X113314076Y-94438000D02*
X113361695Y-94390380D01*
X113361695Y-94390380D02*
X113409314Y-94295142D01*
X113409314Y-94295142D02*
X113409314Y-94057047D01*
X113409314Y-94057047D02*
X113361695Y-93961809D01*
X113361695Y-93961809D02*
X113314076Y-93914190D01*
X113314076Y-93914190D02*
X113218838Y-93866571D01*
X113218838Y-93866571D02*
X113028362Y-93866571D01*
X113028362Y-93866571D02*
X112933124Y-93914190D01*
X112933124Y-93914190D02*
X112885505Y-93961809D01*
X112885505Y-93961809D02*
X112837886Y-94057047D01*
X131291666Y-70504819D02*
X131291666Y-71219104D01*
X131291666Y-71219104D02*
X131244047Y-71361961D01*
X131244047Y-71361961D02*
X131148809Y-71457200D01*
X131148809Y-71457200D02*
X131005952Y-71504819D01*
X131005952Y-71504819D02*
X130910714Y-71504819D01*
X132291666Y-71504819D02*
X131720238Y-71504819D01*
X132005952Y-71504819D02*
X132005952Y-70504819D01*
X132005952Y-70504819D02*
X131910714Y-70647676D01*
X131910714Y-70647676D02*
X131815476Y-70742914D01*
X131815476Y-70742914D02*
X131720238Y-70790533D01*
X98594019Y-130981723D02*
X99308304Y-130981723D01*
X99308304Y-130981723D02*
X99451161Y-131029342D01*
X99451161Y-131029342D02*
X99546400Y-131124580D01*
X99546400Y-131124580D02*
X99594019Y-131267437D01*
X99594019Y-131267437D02*
X99594019Y-131362675D01*
X99594019Y-129981723D02*
X99594019Y-130553151D01*
X99594019Y-130267437D02*
X98594019Y-130267437D01*
X98594019Y-130267437D02*
X98736876Y-130362675D01*
X98736876Y-130362675D02*
X98832114Y-130457913D01*
X98832114Y-130457913D02*
X98879733Y-130553151D01*
X98689257Y-129600770D02*
X98641638Y-129553151D01*
X98641638Y-129553151D02*
X98594019Y-129457913D01*
X98594019Y-129457913D02*
X98594019Y-129219818D01*
X98594019Y-129219818D02*
X98641638Y-129124580D01*
X98641638Y-129124580D02*
X98689257Y-129076961D01*
X98689257Y-129076961D02*
X98784495Y-129029342D01*
X98784495Y-129029342D02*
X98879733Y-129029342D01*
X98879733Y-129029342D02*
X99022590Y-129076961D01*
X99022590Y-129076961D02*
X99594019Y-129648389D01*
X99594019Y-129648389D02*
X99594019Y-129029342D01*
X92194142Y-84408180D02*
X92146523Y-84455800D01*
X92146523Y-84455800D02*
X92003666Y-84503419D01*
X92003666Y-84503419D02*
X91908428Y-84503419D01*
X91908428Y-84503419D02*
X91765571Y-84455800D01*
X91765571Y-84455800D02*
X91670333Y-84360561D01*
X91670333Y-84360561D02*
X91622714Y-84265323D01*
X91622714Y-84265323D02*
X91575095Y-84074847D01*
X91575095Y-84074847D02*
X91575095Y-83931990D01*
X91575095Y-83931990D02*
X91622714Y-83741514D01*
X91622714Y-83741514D02*
X91670333Y-83646276D01*
X91670333Y-83646276D02*
X91765571Y-83551038D01*
X91765571Y-83551038D02*
X91908428Y-83503419D01*
X91908428Y-83503419D02*
X92003666Y-83503419D01*
X92003666Y-83503419D02*
X92146523Y-83551038D01*
X92146523Y-83551038D02*
X92194142Y-83598657D01*
X92575095Y-83598657D02*
X92622714Y-83551038D01*
X92622714Y-83551038D02*
X92717952Y-83503419D01*
X92717952Y-83503419D02*
X92956047Y-83503419D01*
X92956047Y-83503419D02*
X93051285Y-83551038D01*
X93051285Y-83551038D02*
X93098904Y-83598657D01*
X93098904Y-83598657D02*
X93146523Y-83693895D01*
X93146523Y-83693895D02*
X93146523Y-83789133D01*
X93146523Y-83789133D02*
X93098904Y-83931990D01*
X93098904Y-83931990D02*
X92527476Y-84503419D01*
X92527476Y-84503419D02*
X93146523Y-84503419D01*
X94003666Y-83503419D02*
X93813190Y-83503419D01*
X93813190Y-83503419D02*
X93717952Y-83551038D01*
X93717952Y-83551038D02*
X93670333Y-83598657D01*
X93670333Y-83598657D02*
X93575095Y-83741514D01*
X93575095Y-83741514D02*
X93527476Y-83931990D01*
X93527476Y-83931990D02*
X93527476Y-84312942D01*
X93527476Y-84312942D02*
X93575095Y-84408180D01*
X93575095Y-84408180D02*
X93622714Y-84455800D01*
X93622714Y-84455800D02*
X93717952Y-84503419D01*
X93717952Y-84503419D02*
X93908428Y-84503419D01*
X93908428Y-84503419D02*
X94003666Y-84455800D01*
X94003666Y-84455800D02*
X94051285Y-84408180D01*
X94051285Y-84408180D02*
X94098904Y-84312942D01*
X94098904Y-84312942D02*
X94098904Y-84074847D01*
X94098904Y-84074847D02*
X94051285Y-83979609D01*
X94051285Y-83979609D02*
X94003666Y-83931990D01*
X94003666Y-83931990D02*
X93908428Y-83884371D01*
X93908428Y-83884371D02*
X93717952Y-83884371D01*
X93717952Y-83884371D02*
X93622714Y-83931990D01*
X93622714Y-83931990D02*
X93575095Y-83979609D01*
X93575095Y-83979609D02*
X93527476Y-84074847D01*
X117564819Y-104469933D02*
X118279104Y-104469933D01*
X118279104Y-104469933D02*
X118421961Y-104517552D01*
X118421961Y-104517552D02*
X118517200Y-104612790D01*
X118517200Y-104612790D02*
X118564819Y-104755647D01*
X118564819Y-104755647D02*
X118564819Y-104850885D01*
X118564819Y-103993742D02*
X117564819Y-103993742D01*
X117564819Y-103993742D02*
X117564819Y-103612790D01*
X117564819Y-103612790D02*
X117612438Y-103517552D01*
X117612438Y-103517552D02*
X117660057Y-103469933D01*
X117660057Y-103469933D02*
X117755295Y-103422314D01*
X117755295Y-103422314D02*
X117898152Y-103422314D01*
X117898152Y-103422314D02*
X117993390Y-103469933D01*
X117993390Y-103469933D02*
X118041009Y-103517552D01*
X118041009Y-103517552D02*
X118088628Y-103612790D01*
X118088628Y-103612790D02*
X118088628Y-103993742D01*
X117564819Y-103088980D02*
X117564819Y-102469933D01*
X117564819Y-102469933D02*
X117945771Y-102803266D01*
X117945771Y-102803266D02*
X117945771Y-102660409D01*
X117945771Y-102660409D02*
X117993390Y-102565171D01*
X117993390Y-102565171D02*
X118041009Y-102517552D01*
X118041009Y-102517552D02*
X118136247Y-102469933D01*
X118136247Y-102469933D02*
X118374342Y-102469933D01*
X118374342Y-102469933D02*
X118469580Y-102517552D01*
X118469580Y-102517552D02*
X118517200Y-102565171D01*
X118517200Y-102565171D02*
X118564819Y-102660409D01*
X118564819Y-102660409D02*
X118564819Y-102946123D01*
X118564819Y-102946123D02*
X118517200Y-103041361D01*
X118517200Y-103041361D02*
X118469580Y-103088980D01*
X119673019Y-106468332D02*
X119673019Y-105849285D01*
X119673019Y-105849285D02*
X120053971Y-106182618D01*
X120053971Y-106182618D02*
X120053971Y-106039761D01*
X120053971Y-106039761D02*
X120101590Y-105944523D01*
X120101590Y-105944523D02*
X120149209Y-105896904D01*
X120149209Y-105896904D02*
X120244447Y-105849285D01*
X120244447Y-105849285D02*
X120482542Y-105849285D01*
X120482542Y-105849285D02*
X120577780Y-105896904D01*
X120577780Y-105896904D02*
X120625400Y-105944523D01*
X120625400Y-105944523D02*
X120673019Y-106039761D01*
X120673019Y-106039761D02*
X120673019Y-106325475D01*
X120673019Y-106325475D02*
X120625400Y-106420713D01*
X120625400Y-106420713D02*
X120577780Y-106468332D01*
X120673019Y-100649285D02*
X120673019Y-101220713D01*
X120673019Y-100934999D02*
X119673019Y-100934999D01*
X119673019Y-100934999D02*
X119815876Y-101030237D01*
X119815876Y-101030237D02*
X119911114Y-101125475D01*
X119911114Y-101125475D02*
X119958733Y-101220713D01*
X121823266Y-94501619D02*
X121823266Y-95215904D01*
X121823266Y-95215904D02*
X121775647Y-95358761D01*
X121775647Y-95358761D02*
X121680409Y-95454000D01*
X121680409Y-95454000D02*
X121537552Y-95501619D01*
X121537552Y-95501619D02*
X121442314Y-95501619D01*
X122299457Y-95501619D02*
X122299457Y-94501619D01*
X122299457Y-94501619D02*
X122680409Y-94501619D01*
X122680409Y-94501619D02*
X122775647Y-94549238D01*
X122775647Y-94549238D02*
X122823266Y-94596857D01*
X122823266Y-94596857D02*
X122870885Y-94692095D01*
X122870885Y-94692095D02*
X122870885Y-94834952D01*
X122870885Y-94834952D02*
X122823266Y-94930190D01*
X122823266Y-94930190D02*
X122775647Y-94977809D01*
X122775647Y-94977809D02*
X122680409Y-95025428D01*
X122680409Y-95025428D02*
X122299457Y-95025428D01*
X123728028Y-94834952D02*
X123728028Y-95501619D01*
X123489933Y-94454000D02*
X123251838Y-95168285D01*
X123251838Y-95168285D02*
X123870885Y-95168285D01*
X125532867Y-96330419D02*
X126151914Y-96330419D01*
X126151914Y-96330419D02*
X125818581Y-96711371D01*
X125818581Y-96711371D02*
X125961438Y-96711371D01*
X125961438Y-96711371D02*
X126056676Y-96758990D01*
X126056676Y-96758990D02*
X126104295Y-96806609D01*
X126104295Y-96806609D02*
X126151914Y-96901847D01*
X126151914Y-96901847D02*
X126151914Y-97139942D01*
X126151914Y-97139942D02*
X126104295Y-97235180D01*
X126104295Y-97235180D02*
X126056676Y-97282800D01*
X126056676Y-97282800D02*
X125961438Y-97330419D01*
X125961438Y-97330419D02*
X125675724Y-97330419D01*
X125675724Y-97330419D02*
X125580486Y-97282800D01*
X125580486Y-97282800D02*
X125532867Y-97235180D01*
X120951914Y-97330419D02*
X120380486Y-97330419D01*
X120666200Y-97330419D02*
X120666200Y-96330419D01*
X120666200Y-96330419D02*
X120570962Y-96473276D01*
X120570962Y-96473276D02*
X120475724Y-96568514D01*
X120475724Y-96568514D02*
X120380486Y-96616133D01*
X128542568Y-100202064D02*
X128494949Y-100297302D01*
X128494949Y-100297302D02*
X128399711Y-100392540D01*
X128399711Y-100392540D02*
X128256853Y-100535397D01*
X128256853Y-100535397D02*
X128209234Y-100630635D01*
X128209234Y-100630635D02*
X128209234Y-100725873D01*
X128447330Y-100678254D02*
X128399711Y-100773492D01*
X128399711Y-100773492D02*
X128304472Y-100868730D01*
X128304472Y-100868730D02*
X128113996Y-100916349D01*
X128113996Y-100916349D02*
X127780663Y-100916349D01*
X127780663Y-100916349D02*
X127590187Y-100868730D01*
X127590187Y-100868730D02*
X127494949Y-100773492D01*
X127494949Y-100773492D02*
X127447330Y-100678254D01*
X127447330Y-100678254D02*
X127447330Y-100487778D01*
X127447330Y-100487778D02*
X127494949Y-100392540D01*
X127494949Y-100392540D02*
X127590187Y-100297302D01*
X127590187Y-100297302D02*
X127780663Y-100249683D01*
X127780663Y-100249683D02*
X128113996Y-100249683D01*
X128113996Y-100249683D02*
X128304472Y-100297302D01*
X128304472Y-100297302D02*
X128399711Y-100392540D01*
X128399711Y-100392540D02*
X128447330Y-100487778D01*
X128447330Y-100487778D02*
X128447330Y-100678254D01*
X128447330Y-99297302D02*
X128447330Y-99868730D01*
X128447330Y-99583016D02*
X127447330Y-99583016D01*
X127447330Y-99583016D02*
X127590187Y-99678254D01*
X127590187Y-99678254D02*
X127685425Y-99773492D01*
X127685425Y-99773492D02*
X127733044Y-99868730D01*
X121436019Y-100541057D02*
X120959828Y-100874390D01*
X121436019Y-101112485D02*
X120436019Y-101112485D01*
X120436019Y-101112485D02*
X120436019Y-100731533D01*
X120436019Y-100731533D02*
X120483638Y-100636295D01*
X120483638Y-100636295D02*
X120531257Y-100588676D01*
X120531257Y-100588676D02*
X120626495Y-100541057D01*
X120626495Y-100541057D02*
X120769352Y-100541057D01*
X120769352Y-100541057D02*
X120864590Y-100588676D01*
X120864590Y-100588676D02*
X120912209Y-100636295D01*
X120912209Y-100636295D02*
X120959828Y-100731533D01*
X120959828Y-100731533D02*
X120959828Y-101112485D01*
X120531257Y-100160104D02*
X120483638Y-100112485D01*
X120483638Y-100112485D02*
X120436019Y-100017247D01*
X120436019Y-100017247D02*
X120436019Y-99779152D01*
X120436019Y-99779152D02*
X120483638Y-99683914D01*
X120483638Y-99683914D02*
X120531257Y-99636295D01*
X120531257Y-99636295D02*
X120626495Y-99588676D01*
X120626495Y-99588676D02*
X120721733Y-99588676D01*
X120721733Y-99588676D02*
X120864590Y-99636295D01*
X120864590Y-99636295D02*
X121436019Y-100207723D01*
X121436019Y-100207723D02*
X121436019Y-99588676D01*
X120531257Y-99207723D02*
X120483638Y-99160104D01*
X120483638Y-99160104D02*
X120436019Y-99064866D01*
X120436019Y-99064866D02*
X120436019Y-98826771D01*
X120436019Y-98826771D02*
X120483638Y-98731533D01*
X120483638Y-98731533D02*
X120531257Y-98683914D01*
X120531257Y-98683914D02*
X120626495Y-98636295D01*
X120626495Y-98636295D02*
X120721733Y-98636295D01*
X120721733Y-98636295D02*
X120864590Y-98683914D01*
X120864590Y-98683914D02*
X121436019Y-99255342D01*
X121436019Y-99255342D02*
X121436019Y-98636295D01*
X123340019Y-107653057D02*
X122863828Y-107986390D01*
X123340019Y-108224485D02*
X122340019Y-108224485D01*
X122340019Y-108224485D02*
X122340019Y-107843533D01*
X122340019Y-107843533D02*
X122387638Y-107748295D01*
X122387638Y-107748295D02*
X122435257Y-107700676D01*
X122435257Y-107700676D02*
X122530495Y-107653057D01*
X122530495Y-107653057D02*
X122673352Y-107653057D01*
X122673352Y-107653057D02*
X122768590Y-107700676D01*
X122768590Y-107700676D02*
X122816209Y-107748295D01*
X122816209Y-107748295D02*
X122863828Y-107843533D01*
X122863828Y-107843533D02*
X122863828Y-108224485D01*
X122435257Y-107272104D02*
X122387638Y-107224485D01*
X122387638Y-107224485D02*
X122340019Y-107129247D01*
X122340019Y-107129247D02*
X122340019Y-106891152D01*
X122340019Y-106891152D02*
X122387638Y-106795914D01*
X122387638Y-106795914D02*
X122435257Y-106748295D01*
X122435257Y-106748295D02*
X122530495Y-106700676D01*
X122530495Y-106700676D02*
X122625733Y-106700676D01*
X122625733Y-106700676D02*
X122768590Y-106748295D01*
X122768590Y-106748295D02*
X123340019Y-107319723D01*
X123340019Y-107319723D02*
X123340019Y-106700676D01*
X122340019Y-106367342D02*
X122340019Y-105748295D01*
X122340019Y-105748295D02*
X122720971Y-106081628D01*
X122720971Y-106081628D02*
X122720971Y-105938771D01*
X122720971Y-105938771D02*
X122768590Y-105843533D01*
X122768590Y-105843533D02*
X122816209Y-105795914D01*
X122816209Y-105795914D02*
X122911447Y-105748295D01*
X122911447Y-105748295D02*
X123149542Y-105748295D01*
X123149542Y-105748295D02*
X123244780Y-105795914D01*
X123244780Y-105795914D02*
X123292400Y-105843533D01*
X123292400Y-105843533D02*
X123340019Y-105938771D01*
X123340019Y-105938771D02*
X123340019Y-106224485D01*
X123340019Y-106224485D02*
X123292400Y-106319723D01*
X123292400Y-106319723D02*
X123244780Y-106367342D01*
X125473619Y-107551457D02*
X124997428Y-107884790D01*
X125473619Y-108122885D02*
X124473619Y-108122885D01*
X124473619Y-108122885D02*
X124473619Y-107741933D01*
X124473619Y-107741933D02*
X124521238Y-107646695D01*
X124521238Y-107646695D02*
X124568857Y-107599076D01*
X124568857Y-107599076D02*
X124664095Y-107551457D01*
X124664095Y-107551457D02*
X124806952Y-107551457D01*
X124806952Y-107551457D02*
X124902190Y-107599076D01*
X124902190Y-107599076D02*
X124949809Y-107646695D01*
X124949809Y-107646695D02*
X124997428Y-107741933D01*
X124997428Y-107741933D02*
X124997428Y-108122885D01*
X124568857Y-107170504D02*
X124521238Y-107122885D01*
X124521238Y-107122885D02*
X124473619Y-107027647D01*
X124473619Y-107027647D02*
X124473619Y-106789552D01*
X124473619Y-106789552D02*
X124521238Y-106694314D01*
X124521238Y-106694314D02*
X124568857Y-106646695D01*
X124568857Y-106646695D02*
X124664095Y-106599076D01*
X124664095Y-106599076D02*
X124759333Y-106599076D01*
X124759333Y-106599076D02*
X124902190Y-106646695D01*
X124902190Y-106646695D02*
X125473619Y-107218123D01*
X125473619Y-107218123D02*
X125473619Y-106599076D01*
X124806952Y-105741933D02*
X125473619Y-105741933D01*
X124426000Y-105980028D02*
X125140285Y-106218123D01*
X125140285Y-106218123D02*
X125140285Y-105599076D01*
X109459733Y-90447019D02*
X109126400Y-89970828D01*
X108888305Y-90447019D02*
X108888305Y-89447019D01*
X108888305Y-89447019D02*
X109269257Y-89447019D01*
X109269257Y-89447019D02*
X109364495Y-89494638D01*
X109364495Y-89494638D02*
X109412114Y-89542257D01*
X109412114Y-89542257D02*
X109459733Y-89637495D01*
X109459733Y-89637495D02*
X109459733Y-89780352D01*
X109459733Y-89780352D02*
X109412114Y-89875590D01*
X109412114Y-89875590D02*
X109364495Y-89923209D01*
X109364495Y-89923209D02*
X109269257Y-89970828D01*
X109269257Y-89970828D02*
X108888305Y-89970828D01*
X110031162Y-89875590D02*
X109935924Y-89827971D01*
X109935924Y-89827971D02*
X109888305Y-89780352D01*
X109888305Y-89780352D02*
X109840686Y-89685114D01*
X109840686Y-89685114D02*
X109840686Y-89637495D01*
X109840686Y-89637495D02*
X109888305Y-89542257D01*
X109888305Y-89542257D02*
X109935924Y-89494638D01*
X109935924Y-89494638D02*
X110031162Y-89447019D01*
X110031162Y-89447019D02*
X110221638Y-89447019D01*
X110221638Y-89447019D02*
X110316876Y-89494638D01*
X110316876Y-89494638D02*
X110364495Y-89542257D01*
X110364495Y-89542257D02*
X110412114Y-89637495D01*
X110412114Y-89637495D02*
X110412114Y-89685114D01*
X110412114Y-89685114D02*
X110364495Y-89780352D01*
X110364495Y-89780352D02*
X110316876Y-89827971D01*
X110316876Y-89827971D02*
X110221638Y-89875590D01*
X110221638Y-89875590D02*
X110031162Y-89875590D01*
X110031162Y-89875590D02*
X109935924Y-89923209D01*
X109935924Y-89923209D02*
X109888305Y-89970828D01*
X109888305Y-89970828D02*
X109840686Y-90066066D01*
X109840686Y-90066066D02*
X109840686Y-90256542D01*
X109840686Y-90256542D02*
X109888305Y-90351780D01*
X109888305Y-90351780D02*
X109935924Y-90399400D01*
X109935924Y-90399400D02*
X110031162Y-90447019D01*
X110031162Y-90447019D02*
X110221638Y-90447019D01*
X110221638Y-90447019D02*
X110316876Y-90399400D01*
X110316876Y-90399400D02*
X110364495Y-90351780D01*
X110364495Y-90351780D02*
X110412114Y-90256542D01*
X110412114Y-90256542D02*
X110412114Y-90066066D01*
X110412114Y-90066066D02*
X110364495Y-89970828D01*
X110364495Y-89970828D02*
X110316876Y-89923209D01*
X110316876Y-89923209D02*
X110221638Y-89875590D01*
X108622180Y-107543695D02*
X107812657Y-107543695D01*
X107812657Y-107543695D02*
X107717419Y-107591314D01*
X107717419Y-107591314D02*
X107669800Y-107638933D01*
X107669800Y-107638933D02*
X107622180Y-107734171D01*
X107622180Y-107734171D02*
X107622180Y-107924647D01*
X107622180Y-107924647D02*
X107669800Y-108019885D01*
X107669800Y-108019885D02*
X107717419Y-108067504D01*
X107717419Y-108067504D02*
X107812657Y-108115123D01*
X107812657Y-108115123D02*
X108622180Y-108115123D01*
X108622180Y-109067504D02*
X108622180Y-108591314D01*
X108622180Y-108591314D02*
X108145990Y-108543695D01*
X108145990Y-108543695D02*
X108193609Y-108591314D01*
X108193609Y-108591314D02*
X108241228Y-108686552D01*
X108241228Y-108686552D02*
X108241228Y-108924647D01*
X108241228Y-108924647D02*
X108193609Y-109019885D01*
X108193609Y-109019885D02*
X108145990Y-109067504D01*
X108145990Y-109067504D02*
X108050752Y-109115123D01*
X108050752Y-109115123D02*
X107812657Y-109115123D01*
X107812657Y-109115123D02*
X107717419Y-109067504D01*
X107717419Y-109067504D02*
X107669800Y-109019885D01*
X107669800Y-109019885D02*
X107622180Y-108924647D01*
X107622180Y-108924647D02*
X107622180Y-108686552D01*
X107622180Y-108686552D02*
X107669800Y-108591314D01*
X107669800Y-108591314D02*
X107717419Y-108543695D01*
X108166819Y-135831904D02*
X108976342Y-135831904D01*
X108976342Y-135831904D02*
X109071580Y-135784285D01*
X109071580Y-135784285D02*
X109119200Y-135736666D01*
X109119200Y-135736666D02*
X109166819Y-135641428D01*
X109166819Y-135641428D02*
X109166819Y-135450952D01*
X109166819Y-135450952D02*
X109119200Y-135355714D01*
X109119200Y-135355714D02*
X109071580Y-135308095D01*
X109071580Y-135308095D02*
X108976342Y-135260476D01*
X108976342Y-135260476D02*
X108166819Y-135260476D01*
X109166819Y-134260476D02*
X109166819Y-134831904D01*
X109166819Y-134546190D02*
X108166819Y-134546190D01*
X108166819Y-134546190D02*
X108309676Y-134641428D01*
X108309676Y-134641428D02*
X108404914Y-134736666D01*
X108404914Y-134736666D02*
X108452533Y-134831904D01*
X101823005Y-95305219D02*
X101823005Y-94305219D01*
X101823005Y-94305219D02*
X102061100Y-94305219D01*
X102061100Y-94305219D02*
X102203957Y-94352838D01*
X102203957Y-94352838D02*
X102299195Y-94448076D01*
X102299195Y-94448076D02*
X102346814Y-94543314D01*
X102346814Y-94543314D02*
X102394433Y-94733790D01*
X102394433Y-94733790D02*
X102394433Y-94876647D01*
X102394433Y-94876647D02*
X102346814Y-95067123D01*
X102346814Y-95067123D02*
X102299195Y-95162361D01*
X102299195Y-95162361D02*
X102203957Y-95257600D01*
X102203957Y-95257600D02*
X102061100Y-95305219D01*
X102061100Y-95305219D02*
X101823005Y-95305219D01*
X103251576Y-94638552D02*
X103251576Y-95305219D01*
X103013481Y-94257600D02*
X102775386Y-94971885D01*
X102775386Y-94971885D02*
X103394433Y-94971885D01*
X106230533Y-74095780D02*
X106182914Y-74143400D01*
X106182914Y-74143400D02*
X106040057Y-74191019D01*
X106040057Y-74191019D02*
X105944819Y-74191019D01*
X105944819Y-74191019D02*
X105801962Y-74143400D01*
X105801962Y-74143400D02*
X105706724Y-74048161D01*
X105706724Y-74048161D02*
X105659105Y-73952923D01*
X105659105Y-73952923D02*
X105611486Y-73762447D01*
X105611486Y-73762447D02*
X105611486Y-73619590D01*
X105611486Y-73619590D02*
X105659105Y-73429114D01*
X105659105Y-73429114D02*
X105706724Y-73333876D01*
X105706724Y-73333876D02*
X105801962Y-73238638D01*
X105801962Y-73238638D02*
X105944819Y-73191019D01*
X105944819Y-73191019D02*
X106040057Y-73191019D01*
X106040057Y-73191019D02*
X106182914Y-73238638D01*
X106182914Y-73238638D02*
X106230533Y-73286257D01*
X106801962Y-73619590D02*
X106706724Y-73571971D01*
X106706724Y-73571971D02*
X106659105Y-73524352D01*
X106659105Y-73524352D02*
X106611486Y-73429114D01*
X106611486Y-73429114D02*
X106611486Y-73381495D01*
X106611486Y-73381495D02*
X106659105Y-73286257D01*
X106659105Y-73286257D02*
X106706724Y-73238638D01*
X106706724Y-73238638D02*
X106801962Y-73191019D01*
X106801962Y-73191019D02*
X106992438Y-73191019D01*
X106992438Y-73191019D02*
X107087676Y-73238638D01*
X107087676Y-73238638D02*
X107135295Y-73286257D01*
X107135295Y-73286257D02*
X107182914Y-73381495D01*
X107182914Y-73381495D02*
X107182914Y-73429114D01*
X107182914Y-73429114D02*
X107135295Y-73524352D01*
X107135295Y-73524352D02*
X107087676Y-73571971D01*
X107087676Y-73571971D02*
X106992438Y-73619590D01*
X106992438Y-73619590D02*
X106801962Y-73619590D01*
X106801962Y-73619590D02*
X106706724Y-73667209D01*
X106706724Y-73667209D02*
X106659105Y-73714828D01*
X106659105Y-73714828D02*
X106611486Y-73810066D01*
X106611486Y-73810066D02*
X106611486Y-74000542D01*
X106611486Y-74000542D02*
X106659105Y-74095780D01*
X106659105Y-74095780D02*
X106706724Y-74143400D01*
X106706724Y-74143400D02*
X106801962Y-74191019D01*
X106801962Y-74191019D02*
X106992438Y-74191019D01*
X106992438Y-74191019D02*
X107087676Y-74143400D01*
X107087676Y-74143400D02*
X107135295Y-74095780D01*
X107135295Y-74095780D02*
X107182914Y-74000542D01*
X107182914Y-74000542D02*
X107182914Y-73810066D01*
X107182914Y-73810066D02*
X107135295Y-73714828D01*
X107135295Y-73714828D02*
X107087676Y-73667209D01*
X107087676Y-73667209D02*
X106992438Y-73619590D01*
X101547705Y-97152619D02*
X101547705Y-96152619D01*
X101547705Y-96152619D02*
X101785800Y-96152619D01*
X101785800Y-96152619D02*
X101928657Y-96200238D01*
X101928657Y-96200238D02*
X102023895Y-96295476D01*
X102023895Y-96295476D02*
X102071514Y-96390714D01*
X102071514Y-96390714D02*
X102119133Y-96581190D01*
X102119133Y-96581190D02*
X102119133Y-96724047D01*
X102119133Y-96724047D02*
X102071514Y-96914523D01*
X102071514Y-96914523D02*
X102023895Y-97009761D01*
X102023895Y-97009761D02*
X101928657Y-97105000D01*
X101928657Y-97105000D02*
X101785800Y-97152619D01*
X101785800Y-97152619D02*
X101547705Y-97152619D01*
X102452467Y-96152619D02*
X103071514Y-96152619D01*
X103071514Y-96152619D02*
X102738181Y-96533571D01*
X102738181Y-96533571D02*
X102881038Y-96533571D01*
X102881038Y-96533571D02*
X102976276Y-96581190D01*
X102976276Y-96581190D02*
X103023895Y-96628809D01*
X103023895Y-96628809D02*
X103071514Y-96724047D01*
X103071514Y-96724047D02*
X103071514Y-96962142D01*
X103071514Y-96962142D02*
X103023895Y-97057380D01*
X103023895Y-97057380D02*
X102976276Y-97105000D01*
X102976276Y-97105000D02*
X102881038Y-97152619D01*
X102881038Y-97152619D02*
X102595324Y-97152619D01*
X102595324Y-97152619D02*
X102500086Y-97105000D01*
X102500086Y-97105000D02*
X102452467Y-97057380D01*
X135502819Y-91889333D02*
X136217104Y-91889333D01*
X136217104Y-91889333D02*
X136359961Y-91936952D01*
X136359961Y-91936952D02*
X136455200Y-92032190D01*
X136455200Y-92032190D02*
X136502819Y-92175047D01*
X136502819Y-92175047D02*
X136502819Y-92270285D01*
X135502819Y-90984571D02*
X135502819Y-91175047D01*
X135502819Y-91175047D02*
X135550438Y-91270285D01*
X135550438Y-91270285D02*
X135598057Y-91317904D01*
X135598057Y-91317904D02*
X135740914Y-91413142D01*
X135740914Y-91413142D02*
X135931390Y-91460761D01*
X135931390Y-91460761D02*
X136312342Y-91460761D01*
X136312342Y-91460761D02*
X136407580Y-91413142D01*
X136407580Y-91413142D02*
X136455200Y-91365523D01*
X136455200Y-91365523D02*
X136502819Y-91270285D01*
X136502819Y-91270285D02*
X136502819Y-91079809D01*
X136502819Y-91079809D02*
X136455200Y-90984571D01*
X136455200Y-90984571D02*
X136407580Y-90936952D01*
X136407580Y-90936952D02*
X136312342Y-90889333D01*
X136312342Y-90889333D02*
X136074247Y-90889333D01*
X136074247Y-90889333D02*
X135979009Y-90936952D01*
X135979009Y-90936952D02*
X135931390Y-90984571D01*
X135931390Y-90984571D02*
X135883771Y-91079809D01*
X135883771Y-91079809D02*
X135883771Y-91270285D01*
X135883771Y-91270285D02*
X135931390Y-91365523D01*
X135931390Y-91365523D02*
X135979009Y-91413142D01*
X135979009Y-91413142D02*
X136074247Y-91460761D01*
X130137819Y-97920133D02*
X130852104Y-97920133D01*
X130852104Y-97920133D02*
X130994961Y-97967752D01*
X130994961Y-97967752D02*
X131090200Y-98062990D01*
X131090200Y-98062990D02*
X131137819Y-98205847D01*
X131137819Y-98205847D02*
X131137819Y-98301085D01*
X130471152Y-97015371D02*
X131137819Y-97015371D01*
X130090200Y-97253466D02*
X130804485Y-97491561D01*
X130804485Y-97491561D02*
X130804485Y-96872514D01*
X108151705Y-131239419D02*
X108151705Y-130239419D01*
X108151705Y-130239419D02*
X108389800Y-130239419D01*
X108389800Y-130239419D02*
X108532657Y-130287038D01*
X108532657Y-130287038D02*
X108627895Y-130382276D01*
X108627895Y-130382276D02*
X108675514Y-130477514D01*
X108675514Y-130477514D02*
X108723133Y-130667990D01*
X108723133Y-130667990D02*
X108723133Y-130810847D01*
X108723133Y-130810847D02*
X108675514Y-131001323D01*
X108675514Y-131001323D02*
X108627895Y-131096561D01*
X108627895Y-131096561D02*
X108532657Y-131191800D01*
X108532657Y-131191800D02*
X108389800Y-131239419D01*
X108389800Y-131239419D02*
X108151705Y-131239419D01*
X109675514Y-131239419D02*
X109104086Y-131239419D01*
X109389800Y-131239419D02*
X109389800Y-130239419D01*
X109389800Y-130239419D02*
X109294562Y-130382276D01*
X109294562Y-130382276D02*
X109199324Y-130477514D01*
X109199324Y-130477514D02*
X109104086Y-130525133D01*
X105154505Y-90345419D02*
X105154505Y-89345419D01*
X105154505Y-89345419D02*
X105392600Y-89345419D01*
X105392600Y-89345419D02*
X105535457Y-89393038D01*
X105535457Y-89393038D02*
X105630695Y-89488276D01*
X105630695Y-89488276D02*
X105678314Y-89583514D01*
X105678314Y-89583514D02*
X105725933Y-89773990D01*
X105725933Y-89773990D02*
X105725933Y-89916847D01*
X105725933Y-89916847D02*
X105678314Y-90107323D01*
X105678314Y-90107323D02*
X105630695Y-90202561D01*
X105630695Y-90202561D02*
X105535457Y-90297800D01*
X105535457Y-90297800D02*
X105392600Y-90345419D01*
X105392600Y-90345419D02*
X105154505Y-90345419D01*
X106106886Y-89440657D02*
X106154505Y-89393038D01*
X106154505Y-89393038D02*
X106249743Y-89345419D01*
X106249743Y-89345419D02*
X106487838Y-89345419D01*
X106487838Y-89345419D02*
X106583076Y-89393038D01*
X106583076Y-89393038D02*
X106630695Y-89440657D01*
X106630695Y-89440657D02*
X106678314Y-89535895D01*
X106678314Y-89535895D02*
X106678314Y-89631133D01*
X106678314Y-89631133D02*
X106630695Y-89773990D01*
X106630695Y-89773990D02*
X106059267Y-90345419D01*
X106059267Y-90345419D02*
X106678314Y-90345419D01*
X103629619Y-113876057D02*
X103153428Y-114209390D01*
X103629619Y-114447485D02*
X102629619Y-114447485D01*
X102629619Y-114447485D02*
X102629619Y-114066533D01*
X102629619Y-114066533D02*
X102677238Y-113971295D01*
X102677238Y-113971295D02*
X102724857Y-113923676D01*
X102724857Y-113923676D02*
X102820095Y-113876057D01*
X102820095Y-113876057D02*
X102962952Y-113876057D01*
X102962952Y-113876057D02*
X103058190Y-113923676D01*
X103058190Y-113923676D02*
X103105809Y-113971295D01*
X103105809Y-113971295D02*
X103153428Y-114066533D01*
X103153428Y-114066533D02*
X103153428Y-114447485D01*
X103629619Y-112923676D02*
X103629619Y-113495104D01*
X103629619Y-113209390D02*
X102629619Y-113209390D01*
X102629619Y-113209390D02*
X102772476Y-113304628D01*
X102772476Y-113304628D02*
X102867714Y-113399866D01*
X102867714Y-113399866D02*
X102915333Y-113495104D01*
X102629619Y-112018914D02*
X102629619Y-112495104D01*
X102629619Y-112495104D02*
X103105809Y-112542723D01*
X103105809Y-112542723D02*
X103058190Y-112495104D01*
X103058190Y-112495104D02*
X103010571Y-112399866D01*
X103010571Y-112399866D02*
X103010571Y-112161771D01*
X103010571Y-112161771D02*
X103058190Y-112066533D01*
X103058190Y-112066533D02*
X103105809Y-112018914D01*
X103105809Y-112018914D02*
X103201047Y-111971295D01*
X103201047Y-111971295D02*
X103439142Y-111971295D01*
X103439142Y-111971295D02*
X103534380Y-112018914D01*
X103534380Y-112018914D02*
X103582000Y-112066533D01*
X103582000Y-112066533D02*
X103629619Y-112161771D01*
X103629619Y-112161771D02*
X103629619Y-112399866D01*
X103629619Y-112399866D02*
X103582000Y-112495104D01*
X103582000Y-112495104D02*
X103534380Y-112542723D01*
X92479905Y-82827019D02*
X92479905Y-81827019D01*
X92479905Y-81827019D02*
X92718000Y-81827019D01*
X92718000Y-81827019D02*
X92860857Y-81874638D01*
X92860857Y-81874638D02*
X92956095Y-81969876D01*
X92956095Y-81969876D02*
X93003714Y-82065114D01*
X93003714Y-82065114D02*
X93051333Y-82255590D01*
X93051333Y-82255590D02*
X93051333Y-82398447D01*
X93051333Y-82398447D02*
X93003714Y-82588923D01*
X93003714Y-82588923D02*
X92956095Y-82684161D01*
X92956095Y-82684161D02*
X92860857Y-82779400D01*
X92860857Y-82779400D02*
X92718000Y-82827019D01*
X92718000Y-82827019D02*
X92479905Y-82827019D01*
X93622762Y-82255590D02*
X93527524Y-82207971D01*
X93527524Y-82207971D02*
X93479905Y-82160352D01*
X93479905Y-82160352D02*
X93432286Y-82065114D01*
X93432286Y-82065114D02*
X93432286Y-82017495D01*
X93432286Y-82017495D02*
X93479905Y-81922257D01*
X93479905Y-81922257D02*
X93527524Y-81874638D01*
X93527524Y-81874638D02*
X93622762Y-81827019D01*
X93622762Y-81827019D02*
X93813238Y-81827019D01*
X93813238Y-81827019D02*
X93908476Y-81874638D01*
X93908476Y-81874638D02*
X93956095Y-81922257D01*
X93956095Y-81922257D02*
X94003714Y-82017495D01*
X94003714Y-82017495D02*
X94003714Y-82065114D01*
X94003714Y-82065114D02*
X93956095Y-82160352D01*
X93956095Y-82160352D02*
X93908476Y-82207971D01*
X93908476Y-82207971D02*
X93813238Y-82255590D01*
X93813238Y-82255590D02*
X93622762Y-82255590D01*
X93622762Y-82255590D02*
X93527524Y-82303209D01*
X93527524Y-82303209D02*
X93479905Y-82350828D01*
X93479905Y-82350828D02*
X93432286Y-82446066D01*
X93432286Y-82446066D02*
X93432286Y-82636542D01*
X93432286Y-82636542D02*
X93479905Y-82731780D01*
X93479905Y-82731780D02*
X93527524Y-82779400D01*
X93527524Y-82779400D02*
X93622762Y-82827019D01*
X93622762Y-82827019D02*
X93813238Y-82827019D01*
X93813238Y-82827019D02*
X93908476Y-82779400D01*
X93908476Y-82779400D02*
X93956095Y-82731780D01*
X93956095Y-82731780D02*
X94003714Y-82636542D01*
X94003714Y-82636542D02*
X94003714Y-82446066D01*
X94003714Y-82446066D02*
X93956095Y-82350828D01*
X93956095Y-82350828D02*
X93908476Y-82303209D01*
X93908476Y-82303209D02*
X93813238Y-82255590D01*
D17*
X131505000Y-75000000D02*
X131505000Y-75800000D01*
X133345000Y-75000000D02*
X133345000Y-75800000D01*
X136100000Y-82730000D02*
X136100000Y-89200000D01*
X136100000Y-82730000D02*
X136742470Y-82730000D01*
X136100000Y-89200000D02*
X136742470Y-89200000D01*
X137357530Y-82730000D02*
X137560000Y-82730000D01*
X137357530Y-89200000D02*
X138012470Y-89200000D01*
X138320000Y-82665000D02*
X139270000Y-82665000D01*
X138627530Y-89200000D02*
X139270000Y-89200000D01*
X139080000Y-84060000D02*
X139270000Y-84060000D01*
X139270000Y-82665000D02*
X139270000Y-83425000D01*
X139270000Y-84060000D02*
X139270000Y-89200000D01*
X110104422Y-138101000D02*
X110621578Y-138101000D01*
X110104422Y-139521000D02*
X110621578Y-139521000D01*
X103255578Y-141426000D02*
X102738422Y-141426000D01*
X103255578Y-140006000D02*
X102738422Y-140006000D01*
X103255578Y-139394000D02*
X102738422Y-139394000D01*
X103255578Y-137974000D02*
X102738422Y-137974000D01*
X115447578Y-90702200D02*
X114930422Y-90702200D01*
X115447578Y-89282200D02*
X114930422Y-89282200D01*
X114609378Y-78865800D02*
X114092222Y-78865800D01*
X114609378Y-77445800D02*
X114092222Y-77445800D01*
X114609378Y-80872400D02*
X114092222Y-80872400D01*
X114609378Y-79452400D02*
X114092222Y-79452400D01*
X114188021Y-87170800D02*
X114513579Y-87170800D01*
X114188021Y-88190800D02*
X114513579Y-88190800D01*
X99611548Y-91594000D02*
X100134052Y-91594000D01*
X99611548Y-93064000D02*
X100134052Y-93064000D01*
X101195200Y-104401252D02*
X101195200Y-103878748D01*
X102665200Y-104401252D02*
X102665200Y-103878748D01*
X96918864Y-79040400D02*
X95714736Y-79040400D01*
X96918864Y-77220400D02*
X95714736Y-77220400D01*
X117524200Y-120617348D02*
X117524200Y-121139852D01*
X116054200Y-120617348D02*
X116054200Y-121139852D01*
X134110000Y-79260000D02*
X134110000Y-77340000D01*
X134110000Y-77340000D02*
X131425000Y-77340000D01*
X131425000Y-79260000D02*
X134110000Y-79260000D01*
X90501000Y-125228000D02*
X90501000Y-123808000D01*
X96261000Y-125228000D02*
X90501000Y-125228000D01*
X97781000Y-125228000D02*
X98091000Y-125228000D01*
X98091000Y-125228000D02*
X98091000Y-118358000D01*
X90501000Y-123808000D02*
X91001000Y-123808000D01*
X91001000Y-123808000D02*
X91001000Y-119778000D01*
X90501000Y-119778000D02*
X90501000Y-118358000D01*
X91001000Y-119778000D02*
X90501000Y-119778000D01*
X90501000Y-118358000D02*
X96261000Y-118358000D01*
X98091000Y-118358000D02*
X97781000Y-118358000D01*
X90475600Y-108768800D02*
X90475600Y-107348800D01*
X96235600Y-108768800D02*
X90475600Y-108768800D01*
X97755600Y-108768800D02*
X98065600Y-108768800D01*
X98065600Y-108768800D02*
X98065600Y-101898800D01*
X90475600Y-107348800D02*
X90975600Y-107348800D01*
X90975600Y-107348800D02*
X90975600Y-103318800D01*
X90475600Y-103318800D02*
X90475600Y-101898800D01*
X90975600Y-103318800D02*
X90475600Y-103318800D01*
X90475600Y-101898800D02*
X96235600Y-101898800D01*
X98065600Y-101898800D02*
X97755600Y-101898800D01*
X90457200Y-116894000D02*
X90457200Y-115474000D01*
X96217200Y-116894000D02*
X90457200Y-116894000D01*
X97737200Y-116894000D02*
X98047200Y-116894000D01*
X98047200Y-116894000D02*
X98047200Y-110024000D01*
X90457200Y-115474000D02*
X90957200Y-115474000D01*
X90957200Y-115474000D02*
X90957200Y-111444000D01*
X90457200Y-111444000D02*
X90457200Y-110024000D01*
X90957200Y-111444000D02*
X90457200Y-111444000D01*
X90457200Y-110024000D02*
X96217200Y-110024000D01*
X98047200Y-110024000D02*
X97737200Y-110024000D01*
X139359000Y-131947000D02*
X139359000Y-133367000D01*
X133599000Y-131947000D02*
X139359000Y-131947000D01*
X132079000Y-131947000D02*
X131769000Y-131947000D01*
X131769000Y-131947000D02*
X131769000Y-138817000D01*
X139359000Y-133367000D02*
X138859000Y-133367000D01*
X138859000Y-133367000D02*
X138859000Y-137397000D01*
X139359000Y-137397000D02*
X139359000Y-138817000D01*
X138859000Y-137397000D02*
X139359000Y-137397000D01*
X139359000Y-138817000D02*
X133599000Y-138817000D01*
X131769000Y-138817000D02*
X132079000Y-138817000D01*
X117556000Y-75816000D02*
X118156000Y-75816000D01*
X118856000Y-76516000D02*
X118856000Y-77916000D01*
X116856000Y-77916000D02*
X116856000Y-76516000D01*
X118156000Y-78616000D02*
X117556000Y-78616000D01*
X118856000Y-76516000D02*
G75*
G03*
X118156000Y-75816000I-699999J1D01*
G01*
X117556000Y-75816000D02*
G75*
G03*
X116856000Y-76516000I-1J-699999D01*
G01*
X118156000Y-78616000D02*
G75*
G03*
X118856000Y-77916000I0J700000D01*
G01*
X116856000Y-77916000D02*
G75*
G03*
X117556000Y-78616000I700000J0D01*
G01*
X122431000Y-75773000D02*
X122431000Y-76373000D01*
X121731000Y-77073000D02*
X120331000Y-77073000D01*
X120331000Y-75073000D02*
X121731000Y-75073000D01*
X119631000Y-76373000D02*
X119631000Y-75773000D01*
X121731000Y-77073000D02*
G75*
G03*
X122431000Y-76373000I1J699999D01*
G01*
X122431000Y-75773000D02*
G75*
G03*
X121731000Y-75073000I-699999J1D01*
G01*
X119631000Y-76373000D02*
G75*
G03*
X120331000Y-77073000I700000J0D01*
G01*
X120331000Y-75073000D02*
G75*
G03*
X119631000Y-75773000I0J-700000D01*
G01*
X111754800Y-127662400D02*
X111754800Y-129822400D01*
X111754800Y-127662400D02*
X112684800Y-127662400D01*
X114914800Y-127662400D02*
X114914800Y-129122400D01*
X114914800Y-127662400D02*
X113984800Y-127662400D01*
X107952000Y-127818000D02*
X110112000Y-127818000D01*
X107952000Y-127818000D02*
X107952000Y-126888000D01*
X107952000Y-124658000D02*
X109412000Y-124658000D01*
X107952000Y-124658000D02*
X107952000Y-125588000D01*
X104573000Y-123956578D02*
X104573000Y-123439422D01*
X105993000Y-123956578D02*
X105993000Y-123439422D01*
X108047022Y-122124400D02*
X108564178Y-122124400D01*
X108047022Y-123544400D02*
X108564178Y-123544400D01*
X104246178Y-132663000D02*
X103729022Y-132663000D01*
X104246178Y-131243000D02*
X103729022Y-131243000D01*
X105993000Y-127757422D02*
X105993000Y-128274578D01*
X104573000Y-127757422D02*
X104573000Y-128274578D01*
X130052578Y-143788200D02*
X129535422Y-143788200D01*
X130052578Y-142368200D02*
X129535422Y-142368200D01*
X125217422Y-141657000D02*
X125734578Y-141657000D01*
X125217422Y-143077000D02*
X125734578Y-143077000D01*
X131065000Y-93908578D02*
X131065000Y-93391422D01*
X132485000Y-93908578D02*
X132485000Y-93391422D01*
X92140821Y-87450200D02*
X92466379Y-87450200D01*
X92140821Y-88470200D02*
X92466379Y-88470200D01*
X92540858Y-90108300D02*
X92066342Y-90108300D01*
X92540858Y-89063300D02*
X92066342Y-89063300D01*
X114222264Y-123874200D02*
X113768136Y-123874200D01*
X114222264Y-122404200D02*
X113768136Y-122404200D01*
X113768136Y-120423000D02*
X114222264Y-120423000D01*
X113768136Y-121893000D02*
X114222264Y-121893000D01*
X118369600Y-97148600D02*
X118369600Y-96348600D01*
X116529600Y-97148600D02*
X116529600Y-96348600D01*
X118540000Y-89450000D02*
X119490000Y-89450000D01*
X119490000Y-89450000D02*
X119490000Y-90790000D01*
X128760000Y-89450000D02*
X127810000Y-89450000D01*
X118540000Y-88500000D02*
X118540000Y-89450000D01*
X128760000Y-88500000D02*
X128760000Y-89450000D01*
X118540000Y-80180000D02*
X118540000Y-79230000D01*
X128760000Y-80180000D02*
X128760000Y-79230000D01*
X118540000Y-79230000D02*
X119490000Y-79230000D01*
X128760000Y-79230000D02*
X127810000Y-79230000D01*
X115556000Y-84161000D02*
X115556000Y-85511000D01*
X113806000Y-84161000D02*
X113806000Y-85511000D01*
X103834200Y-123962200D02*
X100534200Y-123962200D01*
X103834200Y-123962200D02*
X103834200Y-129362200D01*
X100534200Y-123962200D02*
X100534200Y-129362200D01*
X107628800Y-83800000D02*
X107628800Y-81300000D01*
X99228800Y-81300000D02*
X99228800Y-83800000D01*
X96654252Y-92175000D02*
X96131748Y-92175000D01*
X96654252Y-90705000D02*
X96131748Y-90705000D01*
X95391399Y-90129002D02*
X97191399Y-90129002D01*
X97191399Y-86909002D02*
X94241399Y-86909002D01*
X90501000Y-100793200D02*
X90501000Y-99373200D01*
X96261000Y-100793200D02*
X90501000Y-100793200D01*
X97781000Y-100793200D02*
X98091000Y-100793200D01*
X98091000Y-100793200D02*
X98091000Y-93923200D01*
X90501000Y-99373200D02*
X91001000Y-99373200D01*
X91001000Y-99373200D02*
X91001000Y-95343200D01*
X90501000Y-95343200D02*
X90501000Y-93923200D01*
X91001000Y-95343200D02*
X90501000Y-95343200D01*
X90501000Y-93923200D02*
X96261000Y-93923200D01*
X98091000Y-93923200D02*
X97781000Y-93923200D01*
X110491600Y-121105664D02*
X110491600Y-120651536D01*
X111961600Y-121105664D02*
X111961600Y-120651536D01*
D16*
X108972200Y-107076800D02*
X119272200Y-107076800D01*
X119272200Y-107076800D02*
X119272200Y-118576800D01*
X119272200Y-118576800D02*
X108972200Y-118576800D01*
X108972200Y-118576800D02*
X108972200Y-107076800D01*
D17*
X112021252Y-106145000D02*
X111498748Y-106145000D01*
X112021252Y-104675000D02*
X111498748Y-104675000D01*
X121283400Y-120143536D02*
X121283400Y-120597664D01*
X119813400Y-120143536D02*
X119813400Y-120597664D01*
X101373000Y-99585452D02*
X101373000Y-99062948D01*
X102843000Y-99585452D02*
X102843000Y-99062948D01*
X106890736Y-99452600D02*
X108094864Y-99452600D01*
X106890736Y-102172600D02*
X108094864Y-102172600D01*
X105519136Y-113219400D02*
X106723264Y-113219400D01*
X105519136Y-115939400D02*
X106723264Y-115939400D01*
X106865336Y-102830800D02*
X108069464Y-102830800D01*
X106865336Y-105550800D02*
X108069464Y-105550800D01*
X105493736Y-116546800D02*
X106697864Y-116546800D01*
X105493736Y-119266800D02*
X106697864Y-119266800D01*
X122099400Y-113282464D02*
X122099400Y-112828336D01*
X123569400Y-113282464D02*
X123569400Y-112828336D01*
X120016600Y-113257064D02*
X120016600Y-112802936D01*
X121486600Y-113257064D02*
X121486600Y-112802936D01*
X102995400Y-120591948D02*
X102995400Y-121114452D01*
X101525400Y-120591948D02*
X101525400Y-121114452D01*
X102208000Y-116257336D02*
X102208000Y-116711464D01*
X100738000Y-116257336D02*
X100738000Y-116711464D01*
X96918864Y-81453400D02*
X95714736Y-81453400D01*
X96918864Y-79633400D02*
X95714736Y-79633400D01*
X102782600Y-89662000D02*
G75*
G03*
X101382600Y-89662000I-700000J0D01*
G01*
X101382600Y-89662000D02*
G75*
G03*
X102782600Y-89662000I700000J0D01*
G01*
X139247000Y-116862000D02*
X139247000Y-118282000D01*
X133497000Y-116862000D02*
X139247000Y-116862000D01*
X131957000Y-116862000D02*
X131657000Y-116862000D01*
X131657000Y-116862000D02*
X131657000Y-127232000D01*
X139247000Y-118282000D02*
X138747000Y-118282000D01*
X138747000Y-118282000D02*
X138747000Y-125812000D01*
X139247000Y-125812000D02*
X139247000Y-127232000D01*
X138747000Y-125812000D02*
X139247000Y-125812000D01*
X139247000Y-127232000D02*
X133497000Y-127232000D01*
X131657000Y-127232000D02*
X131957000Y-127232000D01*
X126217178Y-128345000D02*
X125700022Y-128345000D01*
X126217178Y-126925000D02*
X125700022Y-126925000D01*
X126344178Y-123061800D02*
X125827022Y-123061800D01*
X126344178Y-121641800D02*
X125827022Y-121641800D01*
X124085878Y-130300800D02*
X123568722Y-130300800D01*
X124085878Y-128880800D02*
X123568722Y-128880800D01*
D12*
X123372000Y-138800000D02*
X123372000Y-133175000D01*
X128922000Y-137675000D02*
X128922000Y-133175000D01*
D17*
X125734578Y-145109000D02*
X125217422Y-145109000D01*
X125734578Y-143689000D02*
X125217422Y-143689000D01*
X139685000Y-131140000D02*
X139685000Y-127940000D01*
X139685000Y-131140000D02*
X137414000Y-131140000D01*
X139685000Y-127940000D02*
X132313000Y-127940000D01*
X135656000Y-131140000D02*
X128285000Y-131140000D01*
X130556000Y-127940000D02*
X128285000Y-127940000D01*
X128285000Y-131140000D02*
X128285000Y-127940000D01*
X126289000Y-113396000D02*
X129489000Y-113396000D01*
X126289000Y-113396000D02*
X126289000Y-111125000D01*
X129489000Y-113396000D02*
X129489000Y-106024000D01*
X126289000Y-109367000D02*
X126289000Y-101996000D01*
X129489000Y-104267000D02*
X129489000Y-101996000D01*
X126289000Y-101996000D02*
X129489000Y-101996000D01*
X103189000Y-73660000D02*
G75*
G03*
X101789000Y-73660000I-700000J0D01*
G01*
X101789000Y-73660000D02*
G75*
G03*
X103189000Y-73660000I700000J0D01*
G01*
X110088178Y-98042800D02*
X109571022Y-98042800D01*
X110088178Y-96622800D02*
X109571022Y-96622800D01*
X134060000Y-81510000D02*
X134060000Y-79590000D01*
X134060000Y-79590000D02*
X131375000Y-79590000D01*
X131375000Y-81510000D02*
X134060000Y-81510000D01*
X139232000Y-108583000D02*
X139232000Y-110003000D01*
X133482000Y-108583000D02*
X139232000Y-108583000D01*
X131942000Y-108583000D02*
X131642000Y-108583000D01*
X131642000Y-108583000D02*
X131642000Y-115953000D01*
X139232000Y-110003000D02*
X138732000Y-110003000D01*
X138732000Y-110003000D02*
X138732000Y-114533000D01*
X139232000Y-114533000D02*
X139232000Y-115953000D01*
X138732000Y-114533000D02*
X139232000Y-114533000D01*
X139232000Y-115953000D02*
X133482000Y-115953000D01*
X131642000Y-115953000D02*
X131942000Y-115953000D01*
X130460000Y-93262221D02*
X130460000Y-93587779D01*
X129440000Y-93262221D02*
X129440000Y-93587779D01*
X134008800Y-88384748D02*
X134008800Y-88907252D01*
X132538800Y-88384748D02*
X132538800Y-88907252D01*
X127094348Y-75007800D02*
X127616852Y-75007800D01*
X127094348Y-76477800D02*
X127616852Y-76477800D01*
X128900422Y-140260000D02*
X129417578Y-140260000D01*
X128900422Y-141680000D02*
X129417578Y-141680000D01*
X137697936Y-76640000D02*
X138152064Y-76640000D01*
X137697936Y-78110000D02*
X138152064Y-78110000D01*
X114188021Y-81481200D02*
X114513579Y-81481200D01*
X114188021Y-82501200D02*
X114513579Y-82501200D01*
X110215178Y-95375800D02*
X109698022Y-95375800D01*
X110215178Y-93955800D02*
X109698022Y-93955800D01*
X117580000Y-73590000D02*
X130340000Y-73590000D01*
X117580000Y-73590000D02*
X117580000Y-70930000D01*
X130340000Y-73590000D02*
X130340000Y-70930000D01*
X114980000Y-72260000D02*
X114980000Y-70930000D01*
X114980000Y-70930000D02*
X116310000Y-70930000D01*
X117580000Y-70930000D02*
X130340000Y-70930000D01*
X90511000Y-133483000D02*
X90511000Y-132063000D01*
X96271000Y-133483000D02*
X90511000Y-133483000D01*
X97791000Y-133483000D02*
X98101000Y-133483000D01*
X98101000Y-133483000D02*
X98101000Y-126613000D01*
X90511000Y-132063000D02*
X91011000Y-132063000D01*
X91011000Y-132063000D02*
X91011000Y-128033000D01*
X90511000Y-128033000D02*
X90511000Y-126613000D01*
X91011000Y-128033000D02*
X90511000Y-128033000D01*
X90511000Y-126613000D02*
X96271000Y-126613000D01*
X98101000Y-126613000D02*
X97791000Y-126613000D01*
X96806652Y-86307600D02*
X96284148Y-86307600D01*
X96806652Y-84837600D02*
X96284148Y-84837600D01*
X119918200Y-101485000D02*
X120518200Y-101485000D01*
X121218200Y-102135000D02*
X121218200Y-104935000D01*
X119218200Y-104935000D02*
X119218200Y-102135000D01*
X120518200Y-105585000D02*
X119918200Y-105585000D01*
X121218200Y-102185000D02*
G75*
G03*
X120518200Y-101485000I-699999J1D01*
G01*
X119918200Y-101485000D02*
G75*
G03*
X119218200Y-102185000I-1J-699999D01*
G01*
X120518200Y-105585000D02*
G75*
G03*
X121218200Y-104885000I0J700000D01*
G01*
X119218200Y-104885000D02*
G75*
G03*
X119918200Y-105585000I700000J0D01*
G01*
X121216200Y-97175600D02*
X121216200Y-96575600D01*
X121866200Y-95875600D02*
X124666200Y-95875600D01*
X124666200Y-97875600D02*
X121866200Y-97875600D01*
X125316200Y-96575600D02*
X125316200Y-97175600D01*
X121916200Y-95875600D02*
G75*
G03*
X121216200Y-96575600I-1J-699999D01*
G01*
X121216200Y-97175600D02*
G75*
G03*
X121916200Y-97875600I699999J-1D01*
G01*
X125316200Y-96575600D02*
G75*
G03*
X124616200Y-95875600I-700000J0D01*
G01*
X124616200Y-97875600D02*
G75*
G03*
X125316200Y-97175600I0J700000D01*
G01*
X126337600Y-98369000D02*
X124177600Y-98369000D01*
X126337600Y-98369000D02*
X126337600Y-99299000D01*
X126337600Y-101529000D02*
X124877600Y-101529000D01*
X126337600Y-101529000D02*
X126337600Y-100599000D01*
X121896200Y-100125264D02*
X121896200Y-99671136D01*
X123366200Y-100125264D02*
X123366200Y-99671136D01*
X122175600Y-103986064D02*
X122175600Y-103531936D01*
X123645600Y-103986064D02*
X123645600Y-103531936D01*
X125728400Y-103506536D02*
X125728400Y-103960664D01*
X124258400Y-103506536D02*
X124258400Y-103960664D01*
X109986578Y-92251600D02*
X109469422Y-92251600D01*
X109986578Y-90831600D02*
X109469422Y-90831600D01*
X104514500Y-136570000D02*
X104514500Y-133570000D01*
X107734500Y-136570000D02*
X107734500Y-133570000D01*
X104614500Y-137560000D02*
X104134500Y-137080000D01*
X104614500Y-137080000D01*
X104614500Y-137560000D01*
G36*
X104614500Y-137560000D02*
G01*
X104134500Y-137080000D01*
X104614500Y-137080000D01*
X104614500Y-137560000D01*
G37*
X107648600Y-95490400D02*
X107648600Y-93790400D01*
X107648600Y-95490400D02*
X104388600Y-95490400D01*
X107648600Y-93790400D02*
X104388600Y-93790400D01*
X113820200Y-75143800D02*
X113320200Y-75143800D01*
X113570200Y-75393800D02*
X113570200Y-74893800D01*
X113080200Y-74779363D02*
X113080200Y-74643800D01*
X113080200Y-74779363D02*
X112015763Y-75843800D01*
X113080200Y-72388237D02*
X113080200Y-72523800D01*
X113080200Y-72388237D02*
X112015763Y-71323800D01*
X112015763Y-75843800D02*
X108560200Y-75843800D01*
X112015763Y-71323800D02*
X108560200Y-71323800D01*
X108560200Y-75843800D02*
X108560200Y-74643800D01*
X108560200Y-71323800D02*
X108560200Y-72523800D01*
X107572400Y-98259000D02*
X107572400Y-96559000D01*
X107572400Y-98259000D02*
X104312400Y-98259000D01*
X107572400Y-96559000D02*
X104312400Y-96559000D01*
X136155000Y-93045000D02*
X133555000Y-93045000D01*
X136155000Y-93045000D02*
X136155000Y-95705000D01*
X133555000Y-93045000D02*
X133555000Y-95705000D01*
X138755000Y-94375000D02*
X138755000Y-95705000D01*
X138755000Y-95705000D02*
X137425000Y-95705000D01*
X136155000Y-95705000D02*
X133555000Y-95705000D01*
X139232000Y-97226400D02*
X139232000Y-98646400D01*
X133482000Y-97226400D02*
X139232000Y-97226400D01*
X131942000Y-97226400D02*
X131642000Y-97226400D01*
X131642000Y-97226400D02*
X131642000Y-107596400D01*
X139232000Y-98646400D02*
X138732000Y-98646400D01*
X138732000Y-98646400D02*
X138732000Y-106176400D01*
X139232000Y-106176400D02*
X139232000Y-107596400D01*
X138732000Y-106176400D02*
X139232000Y-106176400D01*
X139232000Y-107596400D02*
X133482000Y-107596400D01*
X131642000Y-107596400D02*
X131942000Y-107596400D01*
X106956000Y-128309000D02*
X106956000Y-130009000D01*
X106956000Y-128309000D02*
X110216000Y-128309000D01*
X106956000Y-130009000D02*
X110216000Y-130009000D01*
X107699400Y-92391600D02*
X107699400Y-90691600D01*
X107699400Y-92391600D02*
X104439400Y-92391600D01*
X107699400Y-90691600D02*
X104439400Y-90691600D01*
X100687200Y-113051964D02*
X100687200Y-112597836D01*
X102157200Y-113051964D02*
X102157200Y-112597836D01*
X98679200Y-84286600D02*
X98679200Y-82286600D01*
X98679200Y-84286600D02*
X94819200Y-84286600D01*
X98679200Y-82286600D02*
X94819200Y-82286600D01*
M02*
