G04 #@! TF.GenerationSoftware,KiCad,Pcbnew,(5.1.7)-1*
G04 #@! TF.CreationDate,2021-03-09T09:38:03-08:00*
G04 #@! TF.ProjectId,LCP_PowerControl,4c43505f-506f-4776-9572-436f6e74726f,rev?*
G04 #@! TF.SameCoordinates,Original*
G04 #@! TF.FileFunction,Legend,Top*
G04 #@! TF.FilePolarity,Positive*
%FSLAX46Y46*%
G04 Gerber Fmt 4.6, Leading zero omitted, Abs format (unit mm)*
G04 Created by KiCad (PCBNEW (5.1.7)-1) date 2021-03-09 09:38:03*
%MOMM*%
%LPD*%
G01*
G04 APERTURE LIST*
%ADD10C,0.300000*%
%ADD11C,0.120000*%
%ADD12C,0.150000*%
%ADD13C,0.203200*%
%ADD14C,0.500000*%
%ADD15C,0.152400*%
G04 APERTURE END LIST*
D10*
X145464285Y-134678571D02*
X144964285Y-133964285D01*
X144607142Y-134678571D02*
X144607142Y-133178571D01*
X145178571Y-133178571D01*
X145321428Y-133250000D01*
X145392857Y-133321428D01*
X145464285Y-133464285D01*
X145464285Y-133678571D01*
X145392857Y-133821428D01*
X145321428Y-133892857D01*
X145178571Y-133964285D01*
X144607142Y-133964285D01*
X146678571Y-134607142D02*
X146535714Y-134678571D01*
X146250000Y-134678571D01*
X146107142Y-134607142D01*
X146035714Y-134464285D01*
X146035714Y-133892857D01*
X146107142Y-133750000D01*
X146250000Y-133678571D01*
X146535714Y-133678571D01*
X146678571Y-133750000D01*
X146750000Y-133892857D01*
X146750000Y-134035714D01*
X146035714Y-134178571D01*
X147250000Y-133678571D02*
X147607142Y-134678571D01*
X147964285Y-133678571D01*
X149321428Y-134678571D02*
X148464285Y-134678571D01*
X148892857Y-134678571D02*
X148892857Y-133178571D01*
X148750000Y-133392857D01*
X148607142Y-133535714D01*
X148464285Y-133607142D01*
X149964285Y-134535714D02*
X150035714Y-134607142D01*
X149964285Y-134678571D01*
X149892857Y-134607142D01*
X149964285Y-134535714D01*
X149964285Y-134678571D01*
X151464285Y-134678571D02*
X150607142Y-134678571D01*
X151035714Y-134678571D02*
X151035714Y-133178571D01*
X150892857Y-133392857D01*
X150750000Y-133535714D01*
X150607142Y-133607142D01*
X145642857Y-132678571D02*
X144928571Y-132678571D01*
X144928571Y-131178571D01*
X147000000Y-132535714D02*
X146928571Y-132607142D01*
X146714285Y-132678571D01*
X146571428Y-132678571D01*
X146357142Y-132607142D01*
X146214285Y-132464285D01*
X146142857Y-132321428D01*
X146071428Y-132035714D01*
X146071428Y-131821428D01*
X146142857Y-131535714D01*
X146214285Y-131392857D01*
X146357142Y-131250000D01*
X146571428Y-131178571D01*
X146714285Y-131178571D01*
X146928571Y-131250000D01*
X147000000Y-131321428D01*
X147642857Y-132678571D02*
X147642857Y-131178571D01*
X148214285Y-131178571D01*
X148357142Y-131250000D01*
X148428571Y-131321428D01*
X148500000Y-131464285D01*
X148500000Y-131678571D01*
X148428571Y-131821428D01*
X148357142Y-131892857D01*
X148214285Y-131964285D01*
X147642857Y-131964285D01*
X148785714Y-132821428D02*
X149928571Y-132821428D01*
X150285714Y-132678571D02*
X150285714Y-131178571D01*
X150857142Y-131178571D01*
X151000000Y-131250000D01*
X151071428Y-131321428D01*
X151142857Y-131464285D01*
X151142857Y-131678571D01*
X151071428Y-131821428D01*
X151000000Y-131892857D01*
X150857142Y-131964285D01*
X150285714Y-131964285D01*
X151785714Y-132678571D02*
X151785714Y-131678571D01*
X151785714Y-131178571D02*
X151714285Y-131250000D01*
X151785714Y-131321428D01*
X151857142Y-131250000D01*
X151785714Y-131178571D01*
X151785714Y-131321428D01*
X152428571Y-132607142D02*
X152571428Y-132678571D01*
X152857142Y-132678571D01*
X153000000Y-132607142D01*
X153071428Y-132464285D01*
X153071428Y-132392857D01*
X153000000Y-132250000D01*
X152857142Y-132178571D01*
X152642857Y-132178571D01*
X152500000Y-132107142D01*
X152428571Y-131964285D01*
X152428571Y-131892857D01*
X152500000Y-131750000D01*
X152642857Y-131678571D01*
X152857142Y-131678571D01*
X153000000Y-131750000D01*
X153500000Y-131678571D02*
X154071428Y-131678571D01*
X153714285Y-131178571D02*
X153714285Y-132464285D01*
X153785714Y-132607142D01*
X153928571Y-132678571D01*
X154071428Y-132678571D01*
X154785714Y-132678571D02*
X154642857Y-132607142D01*
X154571428Y-132535714D01*
X154500000Y-132392857D01*
X154500000Y-131964285D01*
X154571428Y-131821428D01*
X154642857Y-131750000D01*
X154785714Y-131678571D01*
X155000000Y-131678571D01*
X155142857Y-131750000D01*
X155214285Y-131821428D01*
X155285714Y-131964285D01*
X155285714Y-132392857D01*
X155214285Y-132535714D01*
X155142857Y-132607142D01*
X155000000Y-132678571D01*
X154785714Y-132678571D01*
X155928571Y-131678571D02*
X155928571Y-132678571D01*
X155928571Y-131821428D02*
X156000000Y-131750000D01*
X156142857Y-131678571D01*
X156357142Y-131678571D01*
X156500000Y-131750000D01*
X156571428Y-131892857D01*
X156571428Y-132678571D01*
X157285714Y-132678571D02*
X157285714Y-131178571D01*
X157642857Y-131178571D01*
X157857142Y-131250000D01*
X158000000Y-131392857D01*
X158071428Y-131535714D01*
X158142857Y-131821428D01*
X158142857Y-132035714D01*
X158071428Y-132321428D01*
X158000000Y-132464285D01*
X157857142Y-132607142D01*
X157642857Y-132678571D01*
X157285714Y-132678571D01*
X158785714Y-132678571D02*
X158785714Y-131678571D01*
X158785714Y-131964285D02*
X158857142Y-131821428D01*
X158928571Y-131750000D01*
X159071428Y-131678571D01*
X159214285Y-131678571D01*
X159714285Y-132678571D02*
X159714285Y-131678571D01*
X159714285Y-131178571D02*
X159642857Y-131250000D01*
X159714285Y-131321428D01*
X159785714Y-131250000D01*
X159714285Y-131178571D01*
X159714285Y-131321428D01*
X160285714Y-131678571D02*
X160642857Y-132678571D01*
X161000000Y-131678571D01*
X162142857Y-132607142D02*
X162000000Y-132678571D01*
X161714285Y-132678571D01*
X161571428Y-132607142D01*
X161500000Y-132464285D01*
X161500000Y-131892857D01*
X161571428Y-131750000D01*
X161714285Y-131678571D01*
X162000000Y-131678571D01*
X162142857Y-131750000D01*
X162214285Y-131892857D01*
X162214285Y-132035714D01*
X161500000Y-132178571D01*
X162857142Y-132678571D02*
X162857142Y-131678571D01*
X162857142Y-131964285D02*
X162928571Y-131821428D01*
X163000000Y-131750000D01*
X163142857Y-131678571D01*
X163285714Y-131678571D01*
X101124387Y-56186172D02*
X101081697Y-56277723D01*
X100904764Y-56418134D01*
X100770522Y-56466994D01*
X100544729Y-56473163D01*
X100361628Y-56387781D01*
X100245647Y-56277970D01*
X100080806Y-56033916D01*
X100007516Y-55832553D01*
X99976917Y-55539640D01*
X99995177Y-55380968D01*
X100080559Y-55197866D01*
X100257492Y-55057455D01*
X100391734Y-55008595D01*
X100617526Y-55002426D01*
X100709077Y-55045117D01*
X101978698Y-56027254D02*
X101820027Y-56008993D01*
X101728476Y-55966302D01*
X101612495Y-55856490D01*
X101465915Y-55453765D01*
X101484176Y-55295093D01*
X101526866Y-55203542D01*
X101636678Y-55087561D01*
X101838041Y-55014271D01*
X101996713Y-55032532D01*
X102088264Y-55075223D01*
X102204245Y-55185035D01*
X102350825Y-55587760D01*
X102332564Y-55746432D01*
X102289873Y-55837983D01*
X102180061Y-55953964D01*
X101978698Y-56027254D01*
X102710613Y-54696681D02*
X103052633Y-55636374D01*
X102759473Y-54830923D02*
X102802164Y-54739372D01*
X102911975Y-54623391D01*
X103113338Y-54550101D01*
X103272010Y-54568362D01*
X103387991Y-54678174D01*
X103656721Y-55416504D01*
X104236379Y-55129513D02*
X104395051Y-55147773D01*
X104663534Y-55050053D01*
X104773346Y-54934072D01*
X104791607Y-54775401D01*
X104767177Y-54708280D01*
X104651196Y-54598468D01*
X104492524Y-54580207D01*
X104291162Y-54653497D01*
X104132490Y-54635236D01*
X104016509Y-54525424D01*
X103992079Y-54458304D01*
X104010340Y-54299632D01*
X104120152Y-54183651D01*
X104321514Y-54110361D01*
X104480186Y-54128622D01*
X105670348Y-54683603D02*
X105511676Y-54665342D01*
X105420125Y-54622651D01*
X105304144Y-54512840D01*
X105157564Y-54110114D01*
X105175825Y-53951442D01*
X105218516Y-53859892D01*
X105328328Y-53743911D01*
X105529690Y-53670621D01*
X105688362Y-53688881D01*
X105779913Y-53731572D01*
X105895894Y-53841384D01*
X106042474Y-54244110D01*
X106024213Y-54402781D01*
X105981522Y-54494332D01*
X105871711Y-54610313D01*
X105670348Y-54683603D01*
X106945645Y-54219433D02*
X106786973Y-54201172D01*
X106670992Y-54091360D01*
X106231252Y-52883184D01*
X107995149Y-53761432D02*
X107885338Y-53877413D01*
X107616854Y-53975133D01*
X107458182Y-53956872D01*
X107342201Y-53847060D01*
X107146761Y-53310093D01*
X107165022Y-53151421D01*
X107274834Y-53035440D01*
X107543318Y-52937720D01*
X107701989Y-52955981D01*
X107817970Y-53065793D01*
X107866830Y-53200035D01*
X107244481Y-53578577D01*
X109764723Y-53193373D02*
X109251693Y-51783834D01*
X109788660Y-51588394D01*
X109947332Y-51606654D01*
X110038883Y-51649345D01*
X110154864Y-51759157D01*
X110228154Y-51960520D01*
X110209893Y-52119192D01*
X110167202Y-52210743D01*
X110057390Y-52326724D01*
X109520423Y-52522164D01*
X111375625Y-52607052D02*
X111216953Y-52588792D01*
X111125402Y-52546101D01*
X111009421Y-52436289D01*
X110862841Y-52033563D01*
X110881102Y-51874892D01*
X110923793Y-51783341D01*
X111033604Y-51667360D01*
X111234967Y-51594070D01*
X111393639Y-51612331D01*
X111485190Y-51655022D01*
X111601171Y-51764833D01*
X111747751Y-52167559D01*
X111729490Y-52326231D01*
X111686799Y-52417781D01*
X111576987Y-52533762D01*
X111375625Y-52607052D01*
X112449559Y-52216172D02*
X112107539Y-51276480D01*
X112205259Y-51544963D02*
X112223520Y-51386291D01*
X112266211Y-51294740D01*
X112376022Y-51178760D01*
X112510264Y-51129900D01*
X112778748Y-51032179D02*
X113315715Y-50836739D01*
X112809100Y-50489043D02*
X113248841Y-51697219D01*
X113364822Y-51807031D01*
X113523493Y-51825292D01*
X113657735Y-51776432D01*
D11*
X104600000Y-57580000D02*
X105400000Y-57580000D01*
X104600000Y-59420000D02*
X105400000Y-59420000D01*
X113320000Y-59950000D02*
X113320000Y-60750000D01*
X111480000Y-59950000D02*
X111480000Y-60750000D01*
X98140835Y-62180282D02*
X97819718Y-61859165D01*
X99180282Y-61140835D02*
X98859165Y-60819718D01*
X102654630Y-59579828D02*
X101997021Y-58922218D01*
X100420172Y-57345370D02*
X101077782Y-58002979D01*
X100420172Y-57345370D02*
X98892822Y-58872721D01*
X102654630Y-59579828D02*
X101622254Y-60612203D01*
X114450000Y-64700000D02*
G75*
G02*
X115150000Y-64000000I700000J0D01*
G01*
X115150000Y-66000000D02*
G75*
G02*
X114450000Y-65300000I0J700000D01*
G01*
X118550000Y-65300000D02*
G75*
G02*
X117850000Y-66000000I-700000J0D01*
G01*
X117850000Y-64000000D02*
G75*
G02*
X118550000Y-64700000I0J-700000D01*
G01*
X114450000Y-65300000D02*
X114450000Y-64700000D01*
X117900000Y-66000000D02*
X115100000Y-66000000D01*
X118550000Y-64700000D02*
X118550000Y-65300000D01*
X115100000Y-64000000D02*
X117900000Y-64000000D01*
X114450000Y-69200000D02*
G75*
G02*
X115150000Y-68500000I700000J0D01*
G01*
X115150000Y-70500000D02*
G75*
G02*
X114450000Y-69800000I0J700000D01*
G01*
X118550000Y-69800000D02*
G75*
G02*
X117850000Y-70500000I-700000J0D01*
G01*
X117850000Y-68500000D02*
G75*
G02*
X118550000Y-69200000I0J-700000D01*
G01*
X114450000Y-69800000D02*
X114450000Y-69200000D01*
X117900000Y-70500000D02*
X115100000Y-70500000D01*
X118550000Y-69200000D02*
X118550000Y-69800000D01*
X115100000Y-68500000D02*
X117900000Y-68500000D01*
X90655291Y-127123005D02*
X92536195Y-129003909D01*
X97881922Y-119896374D02*
X90655291Y-127123005D01*
X99762826Y-121777278D02*
X92536195Y-129003909D01*
X97881922Y-119896374D02*
X99762826Y-121777278D01*
X98779948Y-118998348D02*
X99720400Y-118057896D01*
X99720400Y-118057896D02*
X100660852Y-118998348D01*
X115995800Y-53468000D02*
X115995800Y-53778000D01*
X115995800Y-53778000D02*
X125865800Y-53778000D01*
X125865800Y-53778000D02*
X125865800Y-53468000D01*
X115995800Y-51948000D02*
X115995800Y-46188000D01*
X115995800Y-46188000D02*
X117415800Y-46188000D01*
X117415800Y-46188000D02*
X117415800Y-46688000D01*
X117415800Y-46688000D02*
X124445800Y-46688000D01*
X124445800Y-46688000D02*
X124445800Y-46188000D01*
X124445800Y-46188000D02*
X125865800Y-46188000D01*
X125865800Y-46188000D02*
X125865800Y-51948000D01*
X73194417Y-79760611D02*
X73939828Y-80108202D01*
X75648272Y-80904862D02*
X76393683Y-81252453D01*
X74497261Y-80368137D02*
X75090839Y-80644927D01*
X75313847Y-75215477D02*
X73194417Y-79760611D01*
X79128023Y-75388642D02*
X76393683Y-81252453D01*
X75313847Y-75215477D02*
X75827297Y-75454903D01*
X76848653Y-75931169D02*
X76978308Y-75991628D01*
X77049367Y-75965765D02*
X77109826Y-75836110D01*
X77586092Y-74814754D02*
X77641679Y-74695548D01*
X77641679Y-74695548D02*
X77825179Y-74781115D01*
X78382612Y-75041051D02*
X79128023Y-75388642D01*
X75635037Y-74526683D02*
X75956227Y-73837889D01*
X75956227Y-73837889D02*
X76980355Y-74315448D01*
X89716241Y-86962294D02*
X90085708Y-87331761D01*
X88676794Y-88001741D02*
X89046261Y-88371208D01*
X92819510Y-71887957D02*
X92450043Y-71518490D01*
X93858957Y-70848510D02*
X93489490Y-70479043D01*
X90352188Y-57322117D02*
X94112683Y-54436588D01*
X90352188Y-57322117D02*
X90595693Y-57639459D01*
X94112683Y-54436588D02*
X94356187Y-54753929D01*
X93237717Y-61082612D02*
X92994213Y-60765271D01*
X93237717Y-61082612D02*
X96998212Y-58197083D01*
X96998212Y-58197083D02*
X96754707Y-57879741D01*
X96182472Y-57133989D02*
X94928423Y-55499681D01*
X92421977Y-60019519D02*
X91167928Y-58385211D01*
X95587500Y-68018500D02*
X82847500Y-68018500D01*
X82847500Y-68018500D02*
X82847500Y-116258500D01*
X82847500Y-116258500D02*
X95587500Y-116258500D01*
X95587500Y-116258500D02*
X95587500Y-68018500D01*
X89217500Y-65638500D02*
X89217500Y-68018500D01*
X89217500Y-118638500D02*
X89217500Y-116258500D01*
X73746708Y-84668708D02*
X73746708Y-85868708D01*
X73746708Y-89188708D02*
X73746708Y-87988708D01*
X77202271Y-89188708D02*
X73746708Y-89188708D01*
X77202271Y-84668708D02*
X73746708Y-84668708D01*
X78266708Y-85733145D02*
X78266708Y-85868708D01*
X78266708Y-88124271D02*
X78266708Y-87988708D01*
X78266708Y-88124271D02*
X77202271Y-89188708D01*
X78266708Y-85733145D02*
X77202271Y-84668708D01*
X79006708Y-88488708D02*
X78506708Y-88488708D01*
X78756708Y-88738708D02*
X78756708Y-88238708D01*
X82698835Y-73959282D02*
X82377718Y-73638165D01*
X83738282Y-72919835D02*
X83417165Y-72598718D01*
X140217200Y-53848000D02*
G75*
G03*
X140217200Y-53848000I-6370000J0D01*
G01*
X133847200Y-60178000D02*
X133847200Y-47518000D01*
X133807200Y-60178000D02*
X133807200Y-47518000D01*
X133767200Y-60178000D02*
X133767200Y-47518000D01*
X133727200Y-60177000D02*
X133727200Y-47519000D01*
X133687200Y-60176000D02*
X133687200Y-47520000D01*
X133647200Y-60175000D02*
X133647200Y-47521000D01*
X133607200Y-60174000D02*
X133607200Y-47522000D01*
X133567200Y-60172000D02*
X133567200Y-47524000D01*
X133527200Y-60170000D02*
X133527200Y-47526000D01*
X133487200Y-60168000D02*
X133487200Y-47528000D01*
X133447200Y-60166000D02*
X133447200Y-47530000D01*
X133407200Y-60163000D02*
X133407200Y-47533000D01*
X133367200Y-60160000D02*
X133367200Y-47536000D01*
X133327200Y-60157000D02*
X133327200Y-47539000D01*
X133287200Y-60154000D02*
X133287200Y-47542000D01*
X133247200Y-60150000D02*
X133247200Y-47546000D01*
X133207200Y-60146000D02*
X133207200Y-47550000D01*
X133167200Y-60142000D02*
X133167200Y-47554000D01*
X133126200Y-60138000D02*
X133126200Y-47558000D01*
X133086200Y-60133000D02*
X133086200Y-47563000D01*
X133046200Y-60128000D02*
X133046200Y-47568000D01*
X133006200Y-60123000D02*
X133006200Y-47573000D01*
X132966200Y-60117000D02*
X132966200Y-47579000D01*
X132926200Y-60112000D02*
X132926200Y-47584000D01*
X132886200Y-60106000D02*
X132886200Y-47590000D01*
X132846200Y-60100000D02*
X132846200Y-47596000D01*
X132806200Y-60093000D02*
X132806200Y-47603000D01*
X132766200Y-60086000D02*
X132766200Y-55288000D01*
X132766200Y-52408000D02*
X132766200Y-47610000D01*
X132726200Y-60079000D02*
X132726200Y-55288000D01*
X132726200Y-52408000D02*
X132726200Y-47617000D01*
X132686200Y-60072000D02*
X132686200Y-55288000D01*
X132686200Y-52408000D02*
X132686200Y-47624000D01*
X132646200Y-60064000D02*
X132646200Y-55288000D01*
X132646200Y-52408000D02*
X132646200Y-47632000D01*
X132606200Y-60057000D02*
X132606200Y-55288000D01*
X132606200Y-52408000D02*
X132606200Y-47639000D01*
X132566200Y-60049000D02*
X132566200Y-55288000D01*
X132566200Y-52408000D02*
X132566200Y-47647000D01*
X132526200Y-60040000D02*
X132526200Y-55288000D01*
X132526200Y-52408000D02*
X132526200Y-47656000D01*
X132486200Y-60032000D02*
X132486200Y-55288000D01*
X132486200Y-52408000D02*
X132486200Y-47664000D01*
X132446200Y-60023000D02*
X132446200Y-55288000D01*
X132446200Y-52408000D02*
X132446200Y-47673000D01*
X132406200Y-60014000D02*
X132406200Y-55288000D01*
X132406200Y-52408000D02*
X132406200Y-47682000D01*
X132366200Y-60004000D02*
X132366200Y-55288000D01*
X132366200Y-52408000D02*
X132366200Y-47692000D01*
X132326200Y-59994000D02*
X132326200Y-55288000D01*
X132326200Y-52408000D02*
X132326200Y-47702000D01*
X132286200Y-59985000D02*
X132286200Y-55288000D01*
X132286200Y-52408000D02*
X132286200Y-47711000D01*
X132246200Y-59974000D02*
X132246200Y-55288000D01*
X132246200Y-52408000D02*
X132246200Y-47722000D01*
X132206200Y-59964000D02*
X132206200Y-55288000D01*
X132206200Y-52408000D02*
X132206200Y-47732000D01*
X132166200Y-59953000D02*
X132166200Y-55288000D01*
X132166200Y-52408000D02*
X132166200Y-47743000D01*
X132126200Y-59942000D02*
X132126200Y-55288000D01*
X132126200Y-52408000D02*
X132126200Y-47754000D01*
X132086200Y-59931000D02*
X132086200Y-55288000D01*
X132086200Y-52408000D02*
X132086200Y-47765000D01*
X132046200Y-59919000D02*
X132046200Y-55288000D01*
X132046200Y-52408000D02*
X132046200Y-47777000D01*
X132006200Y-59907000D02*
X132006200Y-55288000D01*
X132006200Y-52408000D02*
X132006200Y-47789000D01*
X131966200Y-59895000D02*
X131966200Y-55288000D01*
X131966200Y-52408000D02*
X131966200Y-47801000D01*
X131926200Y-59882000D02*
X131926200Y-55288000D01*
X131926200Y-52408000D02*
X131926200Y-47814000D01*
X131886200Y-59869000D02*
X131886200Y-55288000D01*
X131886200Y-52408000D02*
X131886200Y-47827000D01*
X131846200Y-59856000D02*
X131846200Y-55288000D01*
X131846200Y-52408000D02*
X131846200Y-47840000D01*
X131806200Y-59843000D02*
X131806200Y-55288000D01*
X131806200Y-52408000D02*
X131806200Y-47853000D01*
X131766200Y-59829000D02*
X131766200Y-55288000D01*
X131766200Y-52408000D02*
X131766200Y-47867000D01*
X131726200Y-59815000D02*
X131726200Y-55288000D01*
X131726200Y-52408000D02*
X131726200Y-47881000D01*
X131686200Y-59801000D02*
X131686200Y-55288000D01*
X131686200Y-52408000D02*
X131686200Y-47895000D01*
X131646200Y-59787000D02*
X131646200Y-55288000D01*
X131646200Y-52408000D02*
X131646200Y-47909000D01*
X131606200Y-59772000D02*
X131606200Y-55288000D01*
X131606200Y-52408000D02*
X131606200Y-47924000D01*
X131566200Y-59756000D02*
X131566200Y-55288000D01*
X131566200Y-52408000D02*
X131566200Y-47940000D01*
X131526200Y-59741000D02*
X131526200Y-55288000D01*
X131526200Y-52408000D02*
X131526200Y-47955000D01*
X131486200Y-59725000D02*
X131486200Y-55288000D01*
X131486200Y-52408000D02*
X131486200Y-47971000D01*
X131446200Y-59709000D02*
X131446200Y-55288000D01*
X131446200Y-52408000D02*
X131446200Y-47987000D01*
X131406200Y-59693000D02*
X131406200Y-55288000D01*
X131406200Y-52408000D02*
X131406200Y-48003000D01*
X131366200Y-59676000D02*
X131366200Y-55288000D01*
X131366200Y-52408000D02*
X131366200Y-48020000D01*
X131326200Y-59659000D02*
X131326200Y-55288000D01*
X131326200Y-52408000D02*
X131326200Y-48037000D01*
X131286200Y-59641000D02*
X131286200Y-55288000D01*
X131286200Y-52408000D02*
X131286200Y-48055000D01*
X131246200Y-59624000D02*
X131246200Y-55288000D01*
X131246200Y-52408000D02*
X131246200Y-48072000D01*
X131206200Y-59606000D02*
X131206200Y-55288000D01*
X131206200Y-52408000D02*
X131206200Y-48090000D01*
X131166200Y-59587000D02*
X131166200Y-55288000D01*
X131166200Y-52408000D02*
X131166200Y-48109000D01*
X131126200Y-59569000D02*
X131126200Y-55288000D01*
X131126200Y-52408000D02*
X131126200Y-48127000D01*
X131086200Y-59550000D02*
X131086200Y-55288000D01*
X131086200Y-52408000D02*
X131086200Y-48146000D01*
X131046200Y-59530000D02*
X131046200Y-55288000D01*
X131046200Y-52408000D02*
X131046200Y-48166000D01*
X131006200Y-59510000D02*
X131006200Y-55288000D01*
X131006200Y-52408000D02*
X131006200Y-48186000D01*
X130966200Y-59490000D02*
X130966200Y-55288000D01*
X130966200Y-52408000D02*
X130966200Y-48206000D01*
X130926200Y-59470000D02*
X130926200Y-55288000D01*
X130926200Y-52408000D02*
X130926200Y-48226000D01*
X130886200Y-59449000D02*
X130886200Y-55288000D01*
X130886200Y-52408000D02*
X130886200Y-48247000D01*
X130846200Y-59428000D02*
X130846200Y-55288000D01*
X130846200Y-52408000D02*
X130846200Y-48268000D01*
X130806200Y-59406000D02*
X130806200Y-55288000D01*
X130806200Y-52408000D02*
X130806200Y-48290000D01*
X130766200Y-59384000D02*
X130766200Y-55288000D01*
X130766200Y-52408000D02*
X130766200Y-48312000D01*
X130726200Y-59362000D02*
X130726200Y-55288000D01*
X130726200Y-52408000D02*
X130726200Y-48334000D01*
X130686200Y-59339000D02*
X130686200Y-55288000D01*
X130686200Y-52408000D02*
X130686200Y-48357000D01*
X130646200Y-59316000D02*
X130646200Y-55288000D01*
X130646200Y-52408000D02*
X130646200Y-48380000D01*
X130606200Y-59293000D02*
X130606200Y-55288000D01*
X130606200Y-52408000D02*
X130606200Y-48403000D01*
X130566200Y-59269000D02*
X130566200Y-55288000D01*
X130566200Y-52408000D02*
X130566200Y-48427000D01*
X130526200Y-59245000D02*
X130526200Y-55288000D01*
X130526200Y-52408000D02*
X130526200Y-48451000D01*
X130486200Y-59220000D02*
X130486200Y-55288000D01*
X130486200Y-52408000D02*
X130486200Y-48476000D01*
X130446200Y-59195000D02*
X130446200Y-55288000D01*
X130446200Y-52408000D02*
X130446200Y-48501000D01*
X130406200Y-59170000D02*
X130406200Y-55288000D01*
X130406200Y-52408000D02*
X130406200Y-48526000D01*
X130366200Y-59144000D02*
X130366200Y-55288000D01*
X130366200Y-52408000D02*
X130366200Y-48552000D01*
X130326200Y-59118000D02*
X130326200Y-55288000D01*
X130326200Y-52408000D02*
X130326200Y-48578000D01*
X130286200Y-59091000D02*
X130286200Y-55288000D01*
X130286200Y-52408000D02*
X130286200Y-48605000D01*
X130246200Y-59064000D02*
X130246200Y-55288000D01*
X130246200Y-52408000D02*
X130246200Y-48632000D01*
X130206200Y-59036000D02*
X130206200Y-55288000D01*
X130206200Y-52408000D02*
X130206200Y-48660000D01*
X130166200Y-59008000D02*
X130166200Y-55288000D01*
X130166200Y-52408000D02*
X130166200Y-48688000D01*
X130126200Y-58979000D02*
X130126200Y-55288000D01*
X130126200Y-52408000D02*
X130126200Y-48717000D01*
X130086200Y-58950000D02*
X130086200Y-55288000D01*
X130086200Y-52408000D02*
X130086200Y-48746000D01*
X130046200Y-58921000D02*
X130046200Y-55288000D01*
X130046200Y-52408000D02*
X130046200Y-48775000D01*
X130006200Y-58891000D02*
X130006200Y-55288000D01*
X130006200Y-52408000D02*
X130006200Y-48805000D01*
X129966200Y-58860000D02*
X129966200Y-55288000D01*
X129966200Y-52408000D02*
X129966200Y-48836000D01*
X129926200Y-58830000D02*
X129926200Y-55288000D01*
X129926200Y-52408000D02*
X129926200Y-48866000D01*
X129886200Y-58798000D02*
X129886200Y-48898000D01*
X129846200Y-58766000D02*
X129846200Y-48930000D01*
X129806200Y-58733000D02*
X129806200Y-48963000D01*
X129766200Y-58700000D02*
X129766200Y-48996000D01*
X129726200Y-58667000D02*
X129726200Y-49029000D01*
X129686200Y-58633000D02*
X129686200Y-49063000D01*
X129646200Y-58598000D02*
X129646200Y-49098000D01*
X129606200Y-58562000D02*
X129606200Y-49134000D01*
X129566200Y-58526000D02*
X129566200Y-49170000D01*
X129526200Y-58490000D02*
X129526200Y-49206000D01*
X129486200Y-58453000D02*
X129486200Y-49243000D01*
X129446200Y-58415000D02*
X129446200Y-49281000D01*
X129406200Y-58376000D02*
X129406200Y-49320000D01*
X129366200Y-58337000D02*
X129366200Y-49359000D01*
X129326200Y-58297000D02*
X129326200Y-49399000D01*
X129286200Y-58256000D02*
X129286200Y-49440000D01*
X129246200Y-58215000D02*
X129246200Y-49481000D01*
X129206200Y-58173000D02*
X129206200Y-49523000D01*
X129166200Y-58130000D02*
X129166200Y-49566000D01*
X129126200Y-58086000D02*
X129126200Y-49610000D01*
X129086200Y-58042000D02*
X129086200Y-49654000D01*
X129046200Y-57996000D02*
X129046200Y-49700000D01*
X129006200Y-57950000D02*
X129006200Y-49746000D01*
X128966200Y-57903000D02*
X128966200Y-49793000D01*
X128926200Y-57855000D02*
X128926200Y-49841000D01*
X128886200Y-57805000D02*
X128886200Y-49891000D01*
X128846200Y-57755000D02*
X128846200Y-49941000D01*
X128806200Y-57704000D02*
X128806200Y-49992000D01*
X128766200Y-57652000D02*
X128766200Y-50044000D01*
X128726200Y-57598000D02*
X128726200Y-50098000D01*
X128686200Y-57544000D02*
X128686200Y-50152000D01*
X128646200Y-57488000D02*
X128646200Y-50208000D01*
X128606200Y-57431000D02*
X128606200Y-50265000D01*
X128566200Y-57372000D02*
X128566200Y-50324000D01*
X128526200Y-57312000D02*
X128526200Y-50384000D01*
X128486200Y-57250000D02*
X128486200Y-50446000D01*
X128446200Y-57187000D02*
X128446200Y-50509000D01*
X128406200Y-57123000D02*
X128406200Y-50573000D01*
X128366200Y-57056000D02*
X128366200Y-50640000D01*
X128326200Y-56988000D02*
X128326200Y-50708000D01*
X128286200Y-56917000D02*
X128286200Y-50779000D01*
X128246200Y-56844000D02*
X128246200Y-50852000D01*
X128206200Y-56769000D02*
X128206200Y-50927000D01*
X128166200Y-56692000D02*
X128166200Y-51004000D01*
X128126200Y-56612000D02*
X128126200Y-51084000D01*
X128086200Y-56529000D02*
X128086200Y-51167000D01*
X128046200Y-56442000D02*
X128046200Y-51254000D01*
X128006200Y-56352000D02*
X128006200Y-51344000D01*
X127966200Y-56258000D02*
X127966200Y-51438000D01*
X127926200Y-56160000D02*
X127926200Y-51536000D01*
X127886200Y-56057000D02*
X127886200Y-51639000D01*
X127846200Y-55948000D02*
X127846200Y-51748000D01*
X127806200Y-55832000D02*
X127806200Y-51864000D01*
X127766200Y-55709000D02*
X127766200Y-51987000D01*
X127726200Y-55576000D02*
X127726200Y-52120000D01*
X127686200Y-55431000D02*
X127686200Y-52265000D01*
X127646200Y-55270000D02*
X127646200Y-52426000D01*
X127606200Y-55089000D02*
X127606200Y-52607000D01*
X127566200Y-54876000D02*
X127566200Y-52820000D01*
X127526200Y-54605000D02*
X127526200Y-53091000D01*
X127486200Y-54165000D02*
X127486200Y-53531000D01*
X140664282Y-57423000D02*
X139414282Y-57423000D01*
X140039282Y-58048000D02*
X140039282Y-56798000D01*
X109806904Y-47749374D02*
X110716677Y-50248957D01*
X109806904Y-47749374D02*
X97816426Y-52113551D01*
X97816426Y-52113551D02*
X98726199Y-54613134D01*
X110716677Y-50248957D02*
X98726199Y-54613134D01*
X113159878Y-49359704D02*
X111910087Y-49814591D01*
X112704991Y-48109913D02*
X113159878Y-49359704D01*
X156597000Y-63689500D02*
X156597000Y-63379500D01*
X156597000Y-63379500D02*
X149727000Y-63379500D01*
X149727000Y-63379500D02*
X149727000Y-63689500D01*
X156597000Y-65209500D02*
X156597000Y-70969500D01*
X156597000Y-70969500D02*
X155177000Y-70969500D01*
X155177000Y-70969500D02*
X155177000Y-70469500D01*
X155177000Y-70469500D02*
X151147000Y-70469500D01*
X151147000Y-70469500D02*
X151147000Y-70969500D01*
X151147000Y-70969500D02*
X149727000Y-70969500D01*
X149727000Y-70969500D02*
X149727000Y-65209500D01*
X90648383Y-79904975D02*
X90282699Y-79539291D01*
X91652475Y-78900883D02*
X91286791Y-78535199D01*
X147068000Y-140451721D02*
X147068000Y-140777279D01*
X146048000Y-140451721D02*
X146048000Y-140777279D01*
X118423400Y-141342400D02*
X118423400Y-130742400D01*
X129023400Y-130742400D02*
X129023400Y-141342400D01*
D12*
X121623400Y-146470400D02*
X125823400Y-146470400D01*
X125823400Y-146470400D02*
X125823400Y-141870400D01*
X125823400Y-141870400D02*
X121723400Y-141870400D01*
D11*
X121723400Y-141870400D02*
X121623400Y-141870400D01*
D12*
X121623400Y-141870400D02*
X121623400Y-146470400D01*
D10*
X121623400Y-146970400D02*
G75*
G03*
X121623400Y-146970400I-100000J0D01*
G01*
D11*
X150520000Y-141442000D02*
X150520000Y-139642000D01*
X147300000Y-139642000D02*
X147300000Y-142592000D01*
D12*
X147973376Y-61556856D02*
X151155356Y-58374876D01*
X143253438Y-58427909D02*
X147230914Y-54450433D01*
X104587500Y-140843000D02*
G75*
G03*
X104587500Y-140843000I-1400000J0D01*
G01*
X130622500Y-149796500D02*
G75*
G03*
X130622500Y-149796500I-1400000J0D01*
G01*
X156911500Y-129603500D02*
G75*
G03*
X156911500Y-129603500I-1400000J0D01*
G01*
X150434500Y-129667000D02*
G75*
G03*
X150434500Y-129667000I-1400000J0D01*
G01*
X162880500Y-129413000D02*
G75*
G03*
X162880500Y-129413000I-1400000J0D01*
G01*
X116716000Y-127952500D02*
G75*
G03*
X116716000Y-127952500I-1400000J0D01*
G01*
D11*
X85142000Y-116956578D02*
X85142000Y-116439422D01*
X86562000Y-116956578D02*
X86562000Y-116439422D01*
X84196422Y-108256000D02*
X84713578Y-108256000D01*
X84196422Y-109676000D02*
X84713578Y-109676000D01*
X81141500Y-110416078D02*
X81141500Y-109898922D01*
X82561500Y-110416078D02*
X82561500Y-109898922D01*
X145418000Y-142474000D02*
X145418000Y-139974000D01*
X137018000Y-139974000D02*
X137018000Y-142474000D01*
X94978500Y-82568000D02*
X94378500Y-82568000D01*
X95678500Y-80468000D02*
X95678500Y-81868000D01*
X94378500Y-79768000D02*
X94978500Y-79768000D01*
X93678500Y-81868000D02*
X93678500Y-80468000D01*
X94378500Y-82568000D02*
G75*
G02*
X93678500Y-81868000I0J700000D01*
G01*
X95678500Y-81868000D02*
G75*
G02*
X94978500Y-82568000I-700000J0D01*
G01*
X94978500Y-79768000D02*
G75*
G02*
X95678500Y-80468000I0J-700000D01*
G01*
X93678500Y-80468000D02*
G75*
G02*
X94378500Y-79768000I700000J0D01*
G01*
X79484000Y-89644500D02*
X79484000Y-89044500D01*
X81584000Y-90344500D02*
X80184000Y-90344500D01*
X82284000Y-89044500D02*
X82284000Y-89644500D01*
X80184000Y-88344500D02*
X81584000Y-88344500D01*
X79484000Y-89044500D02*
G75*
G02*
X80184000Y-88344500I700000J0D01*
G01*
X80184000Y-90344500D02*
G75*
G02*
X79484000Y-89644500I0J700000D01*
G01*
X82284000Y-89644500D02*
G75*
G02*
X81584000Y-90344500I-700000J0D01*
G01*
X81584000Y-88344500D02*
G75*
G02*
X82284000Y-89044500I0J-700000D01*
G01*
X113551205Y-143491392D02*
X113631439Y-143191955D01*
X113631439Y-143191955D02*
X106995528Y-141413868D01*
X106995528Y-141413868D02*
X106915294Y-141713305D01*
X113157800Y-144959599D02*
X111667002Y-150523332D01*
X111667002Y-150523332D02*
X110295387Y-150155809D01*
X110295387Y-150155809D02*
X110424797Y-149672846D01*
X110424797Y-149672846D02*
X106532116Y-148629805D01*
X106532116Y-148629805D02*
X106402706Y-149112768D01*
X106402706Y-149112768D02*
X105031092Y-148745245D01*
X105031092Y-148745245D02*
X106521889Y-143181512D01*
X95390664Y-134776967D02*
X95589929Y-134539493D01*
X95589929Y-134539493D02*
X90327203Y-130123542D01*
X90327203Y-130123542D02*
X90127939Y-130361016D01*
X94413627Y-135941354D02*
X90711171Y-140353770D01*
X90711171Y-140353770D02*
X89623388Y-139441012D01*
X89623388Y-139441012D02*
X89944781Y-139057989D01*
X89944781Y-139057989D02*
X86857622Y-136467555D01*
X86857622Y-136467555D02*
X86536228Y-136850578D01*
X86536228Y-136850578D02*
X85448445Y-135937819D01*
X85448445Y-135937819D02*
X89150902Y-131525403D01*
X79784795Y-115336149D02*
X80076099Y-115230123D01*
X80076099Y-115230123D02*
X77726421Y-108774435D01*
X77726421Y-108774435D02*
X77435116Y-108880461D01*
X78356462Y-115856020D02*
X72943832Y-117826056D01*
X72943832Y-117826056D02*
X72458164Y-116491693D01*
X72458164Y-116491693D02*
X72928010Y-116320683D01*
X72928010Y-116320683D02*
X71549669Y-112533721D01*
X71549669Y-112533721D02*
X71079822Y-112704731D01*
X71079822Y-112704731D02*
X70594154Y-111370368D01*
X70594154Y-111370368D02*
X76006783Y-109400332D01*
X88561584Y-129175661D02*
X88799058Y-128976397D01*
X88799058Y-128976397D02*
X84383107Y-123713671D01*
X84383107Y-123713671D02*
X84145633Y-123912936D01*
X87397197Y-130152698D02*
X82984781Y-133855155D01*
X82984781Y-133855155D02*
X82072022Y-132767372D01*
X82072022Y-132767372D02*
X82455045Y-132445978D01*
X82455045Y-132445978D02*
X79864611Y-129358819D01*
X79864611Y-129358819D02*
X79481588Y-129680212D01*
X79481588Y-129680212D02*
X78568830Y-128592429D01*
X78568830Y-128592429D02*
X82981246Y-124889973D01*
X83715019Y-122493997D02*
X83983487Y-122338997D01*
X83983487Y-122338997D02*
X80548487Y-116389403D01*
X80548487Y-116389403D02*
X80280019Y-116544403D01*
X82398661Y-123253997D02*
X77410354Y-126133997D01*
X77410354Y-126133997D02*
X76700354Y-124904241D01*
X76700354Y-124904241D02*
X77133367Y-124654241D01*
X77133367Y-124654241D02*
X75118367Y-121164159D01*
X75118367Y-121164159D02*
X74685354Y-121414159D01*
X74685354Y-121414159D02*
X73975354Y-120184403D01*
X73975354Y-120184403D02*
X78963661Y-117304403D01*
X115244800Y-57032800D02*
X117515800Y-57032800D01*
X119273800Y-57032800D02*
X126644800Y-57032800D01*
X115244800Y-60232800D02*
X122616800Y-60232800D01*
X124373800Y-60232800D02*
X126644800Y-60232800D01*
X115244800Y-57032800D02*
X115244800Y-60232800D01*
X126644800Y-57032800D02*
X126644800Y-60232800D01*
X96663000Y-143802500D02*
X96663000Y-141531500D01*
X96663000Y-139773500D02*
X96663000Y-132402500D01*
X99863000Y-143802500D02*
X99863000Y-136430500D01*
X99863000Y-134673500D02*
X99863000Y-132402500D01*
X96663000Y-143802500D02*
X99863000Y-143802500D01*
X96663000Y-132402500D02*
X99863000Y-132402500D01*
X80131212Y-67244502D02*
X82188042Y-68970387D01*
X82188042Y-68970387D02*
X83422194Y-67499581D01*
X83422194Y-67499581D02*
X81365365Y-65773697D01*
X78519170Y-69775038D02*
X80718593Y-71315090D01*
X80718593Y-71315090D02*
X81819860Y-69742318D01*
X81819860Y-69742318D02*
X79620436Y-68202266D01*
X81954000Y-115839000D02*
X83654000Y-115839000D01*
X83654000Y-115839000D02*
X83654000Y-112689000D01*
X81954000Y-115839000D02*
X81954000Y-112689000D01*
X117553200Y-133695221D02*
X117553200Y-134020779D01*
X116533200Y-133695221D02*
X116533200Y-134020779D01*
X131002500Y-133377721D02*
X131002500Y-133703279D01*
X129982500Y-133377721D02*
X129982500Y-133703279D01*
X134472000Y-140368564D02*
X134472000Y-139164436D01*
X136292000Y-140368564D02*
X136292000Y-139164436D01*
X123192000Y-148236721D02*
X123192000Y-148562279D01*
X122172000Y-148236721D02*
X122172000Y-148562279D01*
X120076500Y-143253779D02*
X120076500Y-142928221D01*
X121096500Y-143253779D02*
X121096500Y-142928221D01*
X151881721Y-136777000D02*
X152207279Y-136777000D01*
X151881721Y-137797000D02*
X152207279Y-137797000D01*
X126388400Y-143291679D02*
X126388400Y-142966121D01*
X127408400Y-143291679D02*
X127408400Y-142966121D01*
X151919721Y-135062500D02*
X152245279Y-135062500D01*
X151919721Y-136082500D02*
X152245279Y-136082500D01*
X132360500Y-144505136D02*
X132360500Y-145709264D01*
X129640500Y-144505136D02*
X129640500Y-145709264D01*
X118225400Y-143314336D02*
X118225400Y-144518464D01*
X115505400Y-143314336D02*
X115505400Y-144518464D01*
X96318000Y-80141578D02*
X96318000Y-79624422D01*
X97738000Y-80141578D02*
X97738000Y-79624422D01*
X82688500Y-79052922D02*
X82688500Y-79570078D01*
X81268500Y-79052922D02*
X81268500Y-79570078D01*
D12*
X104309523Y-60702380D02*
X103976190Y-60226190D01*
X103738095Y-60702380D02*
X103738095Y-59702380D01*
X104119047Y-59702380D01*
X104214285Y-59750000D01*
X104261904Y-59797619D01*
X104309523Y-59892857D01*
X104309523Y-60035714D01*
X104261904Y-60130952D01*
X104214285Y-60178571D01*
X104119047Y-60226190D01*
X103738095Y-60226190D01*
X104738095Y-60702380D02*
X104738095Y-59702380D01*
X105309523Y-60702380D01*
X105309523Y-59702380D01*
X106261904Y-59702380D02*
X105785714Y-59702380D01*
X105738095Y-60178571D01*
X105785714Y-60130952D01*
X105880952Y-60083333D01*
X106119047Y-60083333D01*
X106214285Y-60130952D01*
X106261904Y-60178571D01*
X106309523Y-60273809D01*
X106309523Y-60511904D01*
X106261904Y-60607142D01*
X106214285Y-60654761D01*
X106119047Y-60702380D01*
X105880952Y-60702380D01*
X105785714Y-60654761D01*
X105738095Y-60607142D01*
X111102380Y-61040476D02*
X110626190Y-61373809D01*
X111102380Y-61611904D02*
X110102380Y-61611904D01*
X110102380Y-61230952D01*
X110150000Y-61135714D01*
X110197619Y-61088095D01*
X110292857Y-61040476D01*
X110435714Y-61040476D01*
X110530952Y-61088095D01*
X110578571Y-61135714D01*
X110626190Y-61230952D01*
X110626190Y-61611904D01*
X111102380Y-60611904D02*
X110102380Y-60611904D01*
X111102380Y-60040476D01*
X110102380Y-60040476D01*
X110102380Y-59659523D02*
X110102380Y-59040476D01*
X110483333Y-59373809D01*
X110483333Y-59230952D01*
X110530952Y-59135714D01*
X110578571Y-59088095D01*
X110673809Y-59040476D01*
X110911904Y-59040476D01*
X111007142Y-59088095D01*
X111054761Y-59135714D01*
X111102380Y-59230952D01*
X111102380Y-59516666D01*
X111054761Y-59611904D01*
X111007142Y-59659523D01*
X96558823Y-62532038D02*
X96659838Y-61959619D01*
X96154762Y-62127977D02*
X96861869Y-61420871D01*
X97131243Y-61690245D01*
X97164915Y-61791260D01*
X97164915Y-61858603D01*
X97131243Y-61959619D01*
X97030228Y-62060634D01*
X96929212Y-62094306D01*
X96861869Y-62094306D01*
X96760854Y-62060634D01*
X96491480Y-61791260D01*
X97467961Y-62161649D02*
X97535304Y-62161649D01*
X97636319Y-62195321D01*
X97804678Y-62363680D01*
X97838350Y-62464695D01*
X97838350Y-62532038D01*
X97804678Y-62633054D01*
X97737335Y-62700397D01*
X97602648Y-62767741D01*
X96794525Y-62767741D01*
X97232258Y-63205474D01*
X98141396Y-62835084D02*
X98208739Y-62835084D01*
X98309754Y-62868756D01*
X98478113Y-63037115D01*
X98511785Y-63138130D01*
X98511785Y-63205474D01*
X98478113Y-63306489D01*
X98410770Y-63373832D01*
X98276083Y-63441176D01*
X97467961Y-63441176D01*
X97905693Y-63878909D01*
X99552114Y-57686801D02*
X99451099Y-57720473D01*
X99316412Y-57720473D01*
X99114381Y-57720473D01*
X99013366Y-57754145D01*
X98946023Y-57821488D01*
X99148053Y-57956175D02*
X99047038Y-57989847D01*
X98912351Y-57989847D01*
X98743992Y-57888832D01*
X98508290Y-57653129D01*
X98407275Y-57484771D01*
X98407275Y-57350084D01*
X98440946Y-57249068D01*
X98575633Y-57114381D01*
X98676649Y-57080710D01*
X98811336Y-57080710D01*
X98979694Y-57181725D01*
X99215397Y-57417427D01*
X99316412Y-57585786D01*
X99316412Y-57720473D01*
X99282740Y-57821488D01*
X99148053Y-57956175D01*
X100124534Y-56979694D02*
X99720473Y-57383755D01*
X99922503Y-57181725D02*
X99215397Y-56474618D01*
X99249068Y-56642977D01*
X99249068Y-56777664D01*
X99215397Y-56878679D01*
X115666666Y-62652380D02*
X115666666Y-63366666D01*
X115619047Y-63509523D01*
X115523809Y-63604761D01*
X115380952Y-63652380D01*
X115285714Y-63652380D01*
X116142857Y-63652380D02*
X116142857Y-62652380D01*
X116523809Y-62652380D01*
X116619047Y-62700000D01*
X116666666Y-62747619D01*
X116714285Y-62842857D01*
X116714285Y-62985714D01*
X116666666Y-63080952D01*
X116619047Y-63128571D01*
X116523809Y-63176190D01*
X116142857Y-63176190D01*
X117571428Y-62985714D02*
X117571428Y-63652380D01*
X117333333Y-62604761D02*
X117095238Y-63319047D01*
X117714285Y-63319047D01*
X114185714Y-65452380D02*
X113614285Y-65452380D01*
X113900000Y-65452380D02*
X113900000Y-64452380D01*
X113804761Y-64595238D01*
X113709523Y-64690476D01*
X113614285Y-64738095D01*
X118766666Y-64452380D02*
X119385714Y-64452380D01*
X119052380Y-64833333D01*
X119195238Y-64833333D01*
X119290476Y-64880952D01*
X119338095Y-64928571D01*
X119385714Y-65023809D01*
X119385714Y-65261904D01*
X119338095Y-65357142D01*
X119290476Y-65404761D01*
X119195238Y-65452380D01*
X118909523Y-65452380D01*
X118814285Y-65404761D01*
X118766666Y-65357142D01*
X115666666Y-67152380D02*
X115666666Y-67866666D01*
X115619047Y-68009523D01*
X115523809Y-68104761D01*
X115380952Y-68152380D01*
X115285714Y-68152380D01*
X116142857Y-68152380D02*
X116142857Y-67152380D01*
X116523809Y-67152380D01*
X116619047Y-67200000D01*
X116666666Y-67247619D01*
X116714285Y-67342857D01*
X116714285Y-67485714D01*
X116666666Y-67580952D01*
X116619047Y-67628571D01*
X116523809Y-67676190D01*
X116142857Y-67676190D01*
X117047619Y-67152380D02*
X117666666Y-67152380D01*
X117333333Y-67533333D01*
X117476190Y-67533333D01*
X117571428Y-67580952D01*
X117619047Y-67628571D01*
X117666666Y-67723809D01*
X117666666Y-67961904D01*
X117619047Y-68057142D01*
X117571428Y-68104761D01*
X117476190Y-68152380D01*
X117190476Y-68152380D01*
X117095238Y-68104761D01*
X117047619Y-68057142D01*
X114185714Y-69952380D02*
X113614285Y-69952380D01*
X113900000Y-69952380D02*
X113900000Y-68952380D01*
X113804761Y-69095238D01*
X113709523Y-69190476D01*
X113614285Y-69238095D01*
X118766666Y-68952380D02*
X119385714Y-68952380D01*
X119052380Y-69333333D01*
X119195238Y-69333333D01*
X119290476Y-69380952D01*
X119338095Y-69428571D01*
X119385714Y-69523809D01*
X119385714Y-69761904D01*
X119338095Y-69857142D01*
X119290476Y-69904761D01*
X119195238Y-69952380D01*
X118909523Y-69952380D01*
X118814285Y-69904761D01*
X118766666Y-69857142D01*
X97370272Y-125222877D02*
X97875348Y-125727953D01*
X97942692Y-125862640D01*
X97942692Y-125997327D01*
X97875348Y-126132014D01*
X97808005Y-126199357D01*
X97740661Y-124987174D02*
X97740661Y-124919831D01*
X97774333Y-124818816D01*
X97942692Y-124650457D01*
X98043707Y-124616785D01*
X98111051Y-124616785D01*
X98212066Y-124650457D01*
X98279409Y-124717800D01*
X98346753Y-124852487D01*
X98346753Y-125660609D01*
X98784486Y-125222877D01*
D13*
X119619485Y-54943828D02*
X119619485Y-56032400D01*
X119546914Y-56250114D01*
X119401771Y-56395257D01*
X119184057Y-56467828D01*
X119038914Y-56467828D01*
X121143485Y-56467828D02*
X120272628Y-56467828D01*
X120708057Y-56467828D02*
X120708057Y-54943828D01*
X120562914Y-55161542D01*
X120417771Y-55306685D01*
X120272628Y-55379257D01*
X122014342Y-55596971D02*
X121869200Y-55524400D01*
X121796628Y-55451828D01*
X121724057Y-55306685D01*
X121724057Y-55234114D01*
X121796628Y-55088971D01*
X121869200Y-55016400D01*
X122014342Y-54943828D01*
X122304628Y-54943828D01*
X122449771Y-55016400D01*
X122522342Y-55088971D01*
X122594914Y-55234114D01*
X122594914Y-55306685D01*
X122522342Y-55451828D01*
X122449771Y-55524400D01*
X122304628Y-55596971D01*
X122014342Y-55596971D01*
X121869200Y-55669542D01*
X121796628Y-55742114D01*
X121724057Y-55887257D01*
X121724057Y-56177542D01*
X121796628Y-56322685D01*
X121869200Y-56395257D01*
X122014342Y-56467828D01*
X122304628Y-56467828D01*
X122449771Y-56395257D01*
X122522342Y-56322685D01*
X122594914Y-56177542D01*
X122594914Y-55887257D01*
X122522342Y-55742114D01*
X122449771Y-55669542D01*
X122304628Y-55596971D01*
D12*
X78102815Y-79763168D02*
X78750178Y-80065038D01*
X78859526Y-80168570D01*
X78905592Y-80295134D01*
X78888375Y-80444732D01*
X78848126Y-80531047D01*
X78505309Y-78900018D02*
X78304062Y-79331593D01*
X78715513Y-79575997D01*
X78692480Y-79512715D01*
X78689572Y-79406276D01*
X78790195Y-79190488D01*
X78873602Y-79124298D01*
X78936884Y-79101265D01*
X79043324Y-79098357D01*
X79259111Y-79198980D01*
X79325302Y-79282387D01*
X79348335Y-79345669D01*
X79351243Y-79452109D01*
X79250619Y-79667896D01*
X79167212Y-79734087D01*
X79103930Y-79757120D01*
X86859393Y-88380469D02*
X86792049Y-88380469D01*
X86657362Y-88313125D01*
X86590019Y-88245782D01*
X86522675Y-88111095D01*
X86522675Y-87976408D01*
X86556347Y-87875393D01*
X86657362Y-87707034D01*
X86758377Y-87606019D01*
X86926736Y-87505003D01*
X87027751Y-87471332D01*
X87162438Y-87471332D01*
X87297125Y-87538675D01*
X87364469Y-87606019D01*
X87431812Y-87740706D01*
X87431812Y-87808049D01*
X87465484Y-89121248D02*
X87061423Y-88717187D01*
X87263454Y-88919217D02*
X87970561Y-88212110D01*
X87802202Y-88245782D01*
X87667515Y-88245782D01*
X87566500Y-88212110D01*
X88138919Y-89794683D02*
X87734858Y-89390622D01*
X87936889Y-89592652D02*
X88643996Y-88885545D01*
X88475637Y-88919217D01*
X88340950Y-88919217D01*
X88239935Y-88885545D01*
X93907893Y-69647970D02*
X93840549Y-69647970D01*
X93705862Y-69580626D01*
X93638519Y-69513283D01*
X93571175Y-69378596D01*
X93571175Y-69243909D01*
X93604847Y-69142894D01*
X93705862Y-68974535D01*
X93806877Y-68873520D01*
X93975236Y-68772504D01*
X94076251Y-68738833D01*
X94210938Y-68738833D01*
X94345625Y-68806176D01*
X94412969Y-68873520D01*
X94480312Y-69008207D01*
X94480312Y-69075550D01*
X94513984Y-70388749D02*
X94109923Y-69984688D01*
X94311954Y-70186718D02*
X95019061Y-69479611D01*
X94850702Y-69513283D01*
X94716015Y-69513283D01*
X94615000Y-69479611D01*
X95658824Y-70119375D02*
X95726167Y-70186718D01*
X95759839Y-70287733D01*
X95759839Y-70355077D01*
X95726167Y-70456092D01*
X95625152Y-70624451D01*
X95456793Y-70792810D01*
X95288435Y-70893825D01*
X95187419Y-70927497D01*
X95120076Y-70927497D01*
X95019061Y-70893825D01*
X94951717Y-70826481D01*
X94918045Y-70725466D01*
X94918045Y-70658123D01*
X94951717Y-70557107D01*
X95052732Y-70388749D01*
X95221091Y-70220390D01*
X95389450Y-70119375D01*
X95490465Y-70085703D01*
X95557809Y-70085703D01*
X95658824Y-70119375D01*
X94895798Y-61534001D02*
X95038123Y-61484813D01*
X95227017Y-61339870D01*
X95273586Y-61244114D01*
X95282376Y-61177347D01*
X95262177Y-61072801D01*
X95204200Y-60997243D01*
X95108444Y-60950674D01*
X95041677Y-60941884D01*
X94937131Y-60962083D01*
X94757027Y-61040259D01*
X94652481Y-61060457D01*
X94585714Y-61051667D01*
X94489958Y-61005098D01*
X94431980Y-60929541D01*
X94411782Y-60824995D01*
X94420572Y-60758227D01*
X94467141Y-60662471D01*
X94656034Y-60517528D01*
X94798359Y-60468341D01*
X95033822Y-60227642D02*
X95831477Y-60876052D01*
X95547762Y-60193416D01*
X96133706Y-60644143D01*
X95713839Y-59705846D01*
X97040396Y-59948416D02*
X96587051Y-60296279D01*
X96813724Y-60122347D02*
X96204962Y-59328994D01*
X96216371Y-59500308D01*
X96198790Y-59633842D01*
X96152222Y-59729598D01*
D14*
X87939666Y-96686404D02*
X86273000Y-94305452D01*
X85082523Y-96686404D02*
X85082523Y-91686404D01*
X86987285Y-91686404D01*
X87463476Y-91924500D01*
X87701571Y-92162595D01*
X87939666Y-92638785D01*
X87939666Y-93353071D01*
X87701571Y-93829261D01*
X87463476Y-94067357D01*
X86987285Y-94305452D01*
X85082523Y-94305452D01*
X92463476Y-91686404D02*
X90082523Y-91686404D01*
X89844428Y-94067357D01*
X90082523Y-93829261D01*
X90558714Y-93591166D01*
X91749190Y-93591166D01*
X92225380Y-93829261D01*
X92463476Y-94067357D01*
X92701571Y-94543547D01*
X92701571Y-95734023D01*
X92463476Y-96210214D01*
X92225380Y-96448309D01*
X91749190Y-96686404D01*
X90558714Y-96686404D01*
X90082523Y-96448309D01*
X89844428Y-96210214D01*
D12*
X75840041Y-90485850D02*
X75792422Y-90533469D01*
X75649565Y-90581088D01*
X75554327Y-90581088D01*
X75411469Y-90533469D01*
X75316231Y-90438231D01*
X75268612Y-90342993D01*
X75220993Y-90152517D01*
X75220993Y-90009660D01*
X75268612Y-89819184D01*
X75316231Y-89723946D01*
X75411469Y-89628708D01*
X75554327Y-89581088D01*
X75649565Y-89581088D01*
X75792422Y-89628708D01*
X75840041Y-89676327D01*
X76411469Y-90009660D02*
X76316231Y-89962041D01*
X76268612Y-89914422D01*
X76220993Y-89819184D01*
X76220993Y-89771565D01*
X76268612Y-89676327D01*
X76316231Y-89628708D01*
X76411469Y-89581088D01*
X76601946Y-89581088D01*
X76697184Y-89628708D01*
X76744803Y-89676327D01*
X76792422Y-89771565D01*
X76792422Y-89819184D01*
X76744803Y-89914422D01*
X76697184Y-89962041D01*
X76601946Y-90009660D01*
X76411469Y-90009660D01*
X76316231Y-90057279D01*
X76268612Y-90104898D01*
X76220993Y-90200136D01*
X76220993Y-90390612D01*
X76268612Y-90485850D01*
X76316231Y-90533469D01*
X76411469Y-90581088D01*
X76601946Y-90581088D01*
X76697184Y-90533469D01*
X76744803Y-90485850D01*
X76792422Y-90390612D01*
X76792422Y-90200136D01*
X76744803Y-90104898D01*
X76697184Y-90057279D01*
X76601946Y-90009660D01*
X83401149Y-71493312D02*
X83502164Y-70920893D01*
X82997088Y-71089251D02*
X83704195Y-70382145D01*
X83973569Y-70651519D01*
X84007241Y-70752534D01*
X84007241Y-70819877D01*
X83973569Y-70920893D01*
X83872554Y-71021908D01*
X83771538Y-71055580D01*
X83704195Y-71055580D01*
X83603180Y-71021908D01*
X83333806Y-70752534D01*
X84310287Y-71122923D02*
X84377630Y-71122923D01*
X84478645Y-71156595D01*
X84647004Y-71324954D01*
X84680676Y-71425969D01*
X84680676Y-71493312D01*
X84647004Y-71594328D01*
X84579661Y-71661671D01*
X84444974Y-71729015D01*
X83636851Y-71729015D01*
X84074584Y-72166748D01*
X84748019Y-72840183D02*
X84343958Y-72436122D01*
X84545989Y-72638152D02*
X85253096Y-71931045D01*
X85084737Y-71964717D01*
X84950050Y-71964717D01*
X84849035Y-71931045D01*
D13*
X141325600Y-51039485D02*
X141253028Y-51112057D01*
X141035314Y-51184628D01*
X140890171Y-51184628D01*
X140672457Y-51112057D01*
X140527314Y-50966914D01*
X140454742Y-50821771D01*
X140382171Y-50531485D01*
X140382171Y-50313771D01*
X140454742Y-50023485D01*
X140527314Y-49878342D01*
X140672457Y-49733200D01*
X140890171Y-49660628D01*
X141035314Y-49660628D01*
X141253028Y-49733200D01*
X141325600Y-49805771D01*
X142631885Y-50168628D02*
X142631885Y-51184628D01*
X142269028Y-49588057D02*
X141906171Y-50676628D01*
X142849600Y-50676628D01*
D12*
X113088272Y-46538613D02*
X113332572Y-47209822D01*
X113336685Y-47360350D01*
X113279764Y-47482418D01*
X113161808Y-47576025D01*
X113072314Y-47608599D01*
X114369985Y-47136285D02*
X113833017Y-47331725D01*
X114101501Y-47234005D02*
X113759481Y-46294313D01*
X113718846Y-46461128D01*
X113661925Y-46583196D01*
X113588717Y-46660516D01*
D13*
X153299885Y-61344628D02*
X153299885Y-62433200D01*
X153227314Y-62650914D01*
X153082171Y-62796057D01*
X152864457Y-62868628D01*
X152719314Y-62868628D01*
X154823885Y-62868628D02*
X153953028Y-62868628D01*
X154388457Y-62868628D02*
X154388457Y-61344628D01*
X154243314Y-61562342D01*
X154098171Y-61707485D01*
X153953028Y-61780057D01*
X155331885Y-61344628D02*
X156347885Y-61344628D01*
X155694742Y-62868628D01*
D12*
X91634459Y-77608156D02*
X91567115Y-77608156D01*
X91432428Y-77540812D01*
X91365085Y-77473469D01*
X91297741Y-77338782D01*
X91297741Y-77204095D01*
X91331413Y-77103080D01*
X91432428Y-76934721D01*
X91533443Y-76833706D01*
X91701802Y-76732690D01*
X91802817Y-76699019D01*
X91937504Y-76699019D01*
X92072191Y-76766362D01*
X92139535Y-76833706D01*
X92206878Y-76968393D01*
X92206878Y-77035736D01*
X92240550Y-78348935D02*
X91836489Y-77944874D01*
X92038520Y-78146904D02*
X92745627Y-77439797D01*
X92577268Y-77473469D01*
X92442581Y-77473469D01*
X92341566Y-77439797D01*
X93149688Y-77978545D02*
X93217031Y-77978545D01*
X93318046Y-78012217D01*
X93486405Y-78180576D01*
X93520077Y-78281591D01*
X93520077Y-78348935D01*
X93486405Y-78449950D01*
X93419062Y-78517293D01*
X93284375Y-78584637D01*
X92476253Y-78584637D01*
X92913985Y-79022370D01*
X146915142Y-137904457D02*
X146962761Y-137952076D01*
X147010380Y-138094933D01*
X147010380Y-138190171D01*
X146962761Y-138333028D01*
X146867523Y-138428266D01*
X146772285Y-138475885D01*
X146581809Y-138523504D01*
X146438952Y-138523504D01*
X146248476Y-138475885D01*
X146153238Y-138428266D01*
X146058000Y-138333028D01*
X146010380Y-138190171D01*
X146010380Y-138094933D01*
X146058000Y-137952076D01*
X146105619Y-137904457D01*
X146105619Y-137523504D02*
X146058000Y-137475885D01*
X146010380Y-137380647D01*
X146010380Y-137142552D01*
X146058000Y-137047314D01*
X146105619Y-136999695D01*
X146200857Y-136952076D01*
X146296095Y-136952076D01*
X146438952Y-136999695D01*
X147010380Y-137571123D01*
X147010380Y-136952076D01*
X146010380Y-136094933D02*
X146010380Y-136285409D01*
X146058000Y-136380647D01*
X146105619Y-136428266D01*
X146248476Y-136523504D01*
X146438952Y-136571123D01*
X146819904Y-136571123D01*
X146915142Y-136523504D01*
X146962761Y-136475885D01*
X147010380Y-136380647D01*
X147010380Y-136190171D01*
X146962761Y-136094933D01*
X146915142Y-136047314D01*
X146819904Y-135999695D01*
X146581809Y-135999695D01*
X146486571Y-136047314D01*
X146438952Y-136094933D01*
X146391333Y-136190171D01*
X146391333Y-136380647D01*
X146438952Y-136475885D01*
X146486571Y-136523504D01*
X146581809Y-136571123D01*
D10*
X123110666Y-129327161D02*
X122158285Y-129327161D01*
X122158285Y-127327161D01*
X123682095Y-127517638D02*
X123777333Y-127422400D01*
X123967809Y-127327161D01*
X124444000Y-127327161D01*
X124634476Y-127422400D01*
X124729714Y-127517638D01*
X124824952Y-127708114D01*
X124824952Y-127898590D01*
X124729714Y-128184304D01*
X123586857Y-129327161D01*
X124824952Y-129327161D01*
D12*
X125780895Y-140930380D02*
X125780895Y-141739904D01*
X125828514Y-141835142D01*
X125876133Y-141882761D01*
X125971371Y-141930380D01*
X126161847Y-141930380D01*
X126257085Y-141882761D01*
X126304704Y-141835142D01*
X126352323Y-141739904D01*
X126352323Y-140930380D01*
X127304704Y-140930380D02*
X126828514Y-140930380D01*
X126780895Y-141406571D01*
X126828514Y-141358952D01*
X126923752Y-141311333D01*
X127161847Y-141311333D01*
X127257085Y-141358952D01*
X127304704Y-141406571D01*
X127352323Y-141501809D01*
X127352323Y-141739904D01*
X127304704Y-141835142D01*
X127257085Y-141882761D01*
X127161847Y-141930380D01*
X126923752Y-141930380D01*
X126828514Y-141882761D01*
X126780895Y-141835142D01*
X147026380Y-144906904D02*
X147835904Y-144906904D01*
X147931142Y-144859285D01*
X147978761Y-144811666D01*
X148026380Y-144716428D01*
X148026380Y-144525952D01*
X147978761Y-144430714D01*
X147931142Y-144383095D01*
X147835904Y-144335476D01*
X147026380Y-144335476D01*
X147359714Y-143430714D02*
X148026380Y-143430714D01*
X146978761Y-143668809D02*
X147693047Y-143906904D01*
X147693047Y-143287857D01*
X143943557Y-55451544D02*
X144515977Y-56023964D01*
X144616992Y-56057636D01*
X144684336Y-56057636D01*
X144785351Y-56023964D01*
X144920038Y-55889277D01*
X144953710Y-55788262D01*
X144953710Y-55720918D01*
X144920038Y-55619903D01*
X144347618Y-55047483D01*
X144718008Y-54811781D02*
X144718008Y-54744438D01*
X144751679Y-54643422D01*
X144920038Y-54475064D01*
X145021053Y-54441392D01*
X145088397Y-54441392D01*
X145189412Y-54475064D01*
X145256756Y-54542407D01*
X145324099Y-54677094D01*
X145324099Y-55485216D01*
X145761832Y-55047483D01*
X104170171Y-147854609D02*
X104170171Y-147521276D01*
X104693980Y-147378419D02*
X104693980Y-147854609D01*
X103693980Y-147854609D01*
X103693980Y-147378419D01*
X103693980Y-147045085D02*
X104693980Y-146378419D01*
X103693980Y-146378419D02*
X104693980Y-147045085D01*
X103693980Y-146140323D02*
X103693980Y-145568895D01*
X104693980Y-145854609D02*
X103693980Y-145854609D01*
X104789219Y-145473657D02*
X104789219Y-144711752D01*
X104693980Y-144473657D02*
X103693980Y-144473657D01*
X103693980Y-144092704D01*
X103741600Y-143997466D01*
X103789219Y-143949847D01*
X103884457Y-143902228D01*
X104027314Y-143902228D01*
X104122552Y-143949847D01*
X104170171Y-143997466D01*
X104217790Y-144092704D01*
X104217790Y-144473657D01*
X103693980Y-143568895D02*
X104693980Y-143330800D01*
X103979695Y-143140323D01*
X104693980Y-142949847D01*
X103693980Y-142711752D01*
X104693980Y-141759371D02*
X104217790Y-142092704D01*
X104693980Y-142330800D02*
X103693980Y-142330800D01*
X103693980Y-141949847D01*
X103741600Y-141854609D01*
X103789219Y-141806990D01*
X103884457Y-141759371D01*
X104027314Y-141759371D01*
X104122552Y-141806990D01*
X104170171Y-141854609D01*
X104217790Y-141949847D01*
X104217790Y-142330800D01*
X131779626Y-150840755D02*
X131227668Y-150988651D01*
X131503647Y-150914703D02*
X131244828Y-149948777D01*
X131189809Y-150111416D01*
X131122465Y-150228058D01*
X131042797Y-150298704D01*
X131913428Y-149868224D02*
X131947099Y-149809903D01*
X132026768Y-149739257D01*
X132256750Y-149677633D01*
X132361068Y-149698980D01*
X132419389Y-149732652D01*
X132490035Y-149812320D01*
X132514684Y-149904313D01*
X132505662Y-150054627D01*
X132101601Y-150754482D01*
X132699555Y-150594260D01*
X132716715Y-149554386D02*
X133297509Y-150434039D01*
X133360665Y-149381840D01*
X133736127Y-150415109D02*
X134472070Y-150217914D01*
X134541831Y-149558336D02*
X134863806Y-149472063D01*
X135137368Y-149941050D02*
X134677403Y-150064297D01*
X134418584Y-149098372D01*
X134878549Y-148975124D01*
X135378790Y-149186177D02*
X135551336Y-149830128D01*
X135403439Y-149278170D02*
X135437111Y-149219849D01*
X135516779Y-149149203D01*
X135654769Y-149112229D01*
X135759086Y-149133576D01*
X135829732Y-149213244D01*
X135965304Y-149719205D01*
X153749595Y-127174928D02*
X154511500Y-127174928D01*
X154130547Y-127555880D02*
X154130547Y-126793976D01*
X154892452Y-126555880D02*
X155511500Y-126555880D01*
X155178166Y-126936833D01*
X155321023Y-126936833D01*
X155416261Y-126984452D01*
X155463880Y-127032071D01*
X155511500Y-127127309D01*
X155511500Y-127365404D01*
X155463880Y-127460642D01*
X155416261Y-127508261D01*
X155321023Y-127555880D01*
X155035309Y-127555880D01*
X154940071Y-127508261D01*
X154892452Y-127460642D01*
X155797214Y-126555880D02*
X156130547Y-127555880D01*
X156463880Y-126555880D01*
X156701976Y-126555880D02*
X157321023Y-126555880D01*
X156987690Y-126936833D01*
X157130547Y-126936833D01*
X157225785Y-126984452D01*
X157273404Y-127032071D01*
X157321023Y-127127309D01*
X157321023Y-127365404D01*
X157273404Y-127460642D01*
X157225785Y-127508261D01*
X157130547Y-127555880D01*
X156844833Y-127555880D01*
X156749595Y-127508261D01*
X156701976Y-127460642D01*
X147272595Y-127238428D02*
X148034500Y-127238428D01*
X147653547Y-127619380D02*
X147653547Y-126857476D01*
X149034500Y-127619380D02*
X148463071Y-127619380D01*
X148748785Y-127619380D02*
X148748785Y-126619380D01*
X148653547Y-126762238D01*
X148558309Y-126857476D01*
X148463071Y-126905095D01*
X149415452Y-126714619D02*
X149463071Y-126667000D01*
X149558309Y-126619380D01*
X149796404Y-126619380D01*
X149891642Y-126667000D01*
X149939261Y-126714619D01*
X149986880Y-126809857D01*
X149986880Y-126905095D01*
X149939261Y-127047952D01*
X149367833Y-127619380D01*
X149986880Y-127619380D01*
X150272595Y-126619380D02*
X150605928Y-127619380D01*
X150939261Y-126619380D01*
X160718595Y-126413000D02*
X160623357Y-126365380D01*
X160480500Y-126365380D01*
X160337642Y-126413000D01*
X160242404Y-126508238D01*
X160194785Y-126603476D01*
X160147166Y-126793952D01*
X160147166Y-126936809D01*
X160194785Y-127127285D01*
X160242404Y-127222523D01*
X160337642Y-127317761D01*
X160480500Y-127365380D01*
X160575738Y-127365380D01*
X160718595Y-127317761D01*
X160766214Y-127270142D01*
X160766214Y-126936809D01*
X160575738Y-126936809D01*
X161194785Y-127365380D02*
X161194785Y-126365380D01*
X161766214Y-127365380D01*
X161766214Y-126365380D01*
X162242404Y-127365380D02*
X162242404Y-126365380D01*
X162480500Y-126365380D01*
X162623357Y-126413000D01*
X162718595Y-126508238D01*
X162766214Y-126603476D01*
X162813833Y-126793952D01*
X162813833Y-126936809D01*
X162766214Y-127127285D01*
X162718595Y-127222523D01*
X162623357Y-127317761D01*
X162480500Y-127365380D01*
X162242404Y-127365380D01*
X110501371Y-125953828D02*
X111263276Y-125953828D01*
X110882323Y-126334780D02*
X110882323Y-125572876D01*
X112072800Y-125810971D02*
X112215657Y-125858590D01*
X112263276Y-125906209D01*
X112310895Y-126001447D01*
X112310895Y-126144304D01*
X112263276Y-126239542D01*
X112215657Y-126287161D01*
X112120419Y-126334780D01*
X111739466Y-126334780D01*
X111739466Y-125334780D01*
X112072800Y-125334780D01*
X112168038Y-125382400D01*
X112215657Y-125430019D01*
X112263276Y-125525257D01*
X112263276Y-125620495D01*
X112215657Y-125715733D01*
X112168038Y-125763352D01*
X112072800Y-125810971D01*
X111739466Y-125810971D01*
X112691847Y-126049066D02*
X113168038Y-126049066D01*
X112596609Y-126334780D02*
X112929942Y-125334780D01*
X113263276Y-126334780D01*
X113453752Y-125334780D02*
X114025180Y-125334780D01*
X113739466Y-126334780D02*
X113739466Y-125334780D01*
X114215657Y-125334780D02*
X114787085Y-125334780D01*
X114501371Y-126334780D02*
X114501371Y-125334780D01*
X121864380Y-151137857D02*
X121388190Y-151471190D01*
X121864380Y-151709285D02*
X120864380Y-151709285D01*
X120864380Y-151328333D01*
X120912000Y-151233095D01*
X120959619Y-151185476D01*
X121054857Y-151137857D01*
X121197714Y-151137857D01*
X121292952Y-151185476D01*
X121340571Y-151233095D01*
X121388190Y-151328333D01*
X121388190Y-151709285D01*
X120959619Y-150756904D02*
X120912000Y-150709285D01*
X120864380Y-150614047D01*
X120864380Y-150375952D01*
X120912000Y-150280714D01*
X120959619Y-150233095D01*
X121054857Y-150185476D01*
X121150095Y-150185476D01*
X121292952Y-150233095D01*
X121864380Y-150804523D01*
X121864380Y-150185476D01*
X120864380Y-149566428D02*
X120864380Y-149471190D01*
X120912000Y-149375952D01*
X120959619Y-149328333D01*
X121054857Y-149280714D01*
X121245333Y-149233095D01*
X121483428Y-149233095D01*
X121673904Y-149280714D01*
X121769142Y-149328333D01*
X121816761Y-149375952D01*
X121864380Y-149471190D01*
X121864380Y-149566428D01*
X121816761Y-149661666D01*
X121769142Y-149709285D01*
X121673904Y-149756904D01*
X121483428Y-149804523D01*
X121245333Y-149804523D01*
X121054857Y-149756904D01*
X120959619Y-149709285D01*
X120912000Y-149661666D01*
X120864380Y-149566428D01*
X120403880Y-151201357D02*
X119927690Y-151534690D01*
X120403880Y-151772785D02*
X119403880Y-151772785D01*
X119403880Y-151391833D01*
X119451500Y-151296595D01*
X119499119Y-151248976D01*
X119594357Y-151201357D01*
X119737214Y-151201357D01*
X119832452Y-151248976D01*
X119880071Y-151296595D01*
X119927690Y-151391833D01*
X119927690Y-151772785D01*
X120403880Y-150248976D02*
X120403880Y-150820404D01*
X120403880Y-150534690D02*
X119403880Y-150534690D01*
X119546738Y-150629928D01*
X119641976Y-150725166D01*
X119689595Y-150820404D01*
X120403880Y-149772785D02*
X120403880Y-149582309D01*
X120356261Y-149487071D01*
X120308642Y-149439452D01*
X120165785Y-149344214D01*
X119975309Y-149296595D01*
X119594357Y-149296595D01*
X119499119Y-149344214D01*
X119451500Y-149391833D01*
X119403880Y-149487071D01*
X119403880Y-149677547D01*
X119451500Y-149772785D01*
X119499119Y-149820404D01*
X119594357Y-149868023D01*
X119832452Y-149868023D01*
X119927690Y-149820404D01*
X119975309Y-149772785D01*
X120022928Y-149677547D01*
X120022928Y-149487071D01*
X119975309Y-149391833D01*
X119927690Y-149344214D01*
X119832452Y-149296595D01*
D15*
X124665619Y-151783142D02*
X124181809Y-152121809D01*
X124665619Y-152363714D02*
X123649619Y-152363714D01*
X123649619Y-151976666D01*
X123698000Y-151879904D01*
X123746380Y-151831523D01*
X123843142Y-151783142D01*
X123988285Y-151783142D01*
X124085047Y-151831523D01*
X124133428Y-151879904D01*
X124181809Y-151976666D01*
X124181809Y-152363714D01*
X124665619Y-150815523D02*
X124665619Y-151396095D01*
X124665619Y-151105809D02*
X123649619Y-151105809D01*
X123794761Y-151202571D01*
X123891523Y-151299333D01*
X123939904Y-151396095D01*
X124085047Y-150234952D02*
X124036666Y-150331714D01*
X123988285Y-150380095D01*
X123891523Y-150428476D01*
X123843142Y-150428476D01*
X123746380Y-150380095D01*
X123698000Y-150331714D01*
X123649619Y-150234952D01*
X123649619Y-150041428D01*
X123698000Y-149944666D01*
X123746380Y-149896285D01*
X123843142Y-149847904D01*
X123891523Y-149847904D01*
X123988285Y-149896285D01*
X124036666Y-149944666D01*
X124085047Y-150041428D01*
X124085047Y-150234952D01*
X124133428Y-150331714D01*
X124181809Y-150380095D01*
X124278571Y-150428476D01*
X124472095Y-150428476D01*
X124568857Y-150380095D01*
X124617238Y-150331714D01*
X124665619Y-150234952D01*
X124665619Y-150041428D01*
X124617238Y-149944666D01*
X124568857Y-149896285D01*
X124472095Y-149847904D01*
X124278571Y-149847904D01*
X124181809Y-149896285D01*
X124133428Y-149944666D01*
X124085047Y-150041428D01*
D12*
X126817380Y-149042357D02*
X126341190Y-149375690D01*
X126817380Y-149613785D02*
X125817380Y-149613785D01*
X125817380Y-149232833D01*
X125865000Y-149137595D01*
X125912619Y-149089976D01*
X126007857Y-149042357D01*
X126150714Y-149042357D01*
X126245952Y-149089976D01*
X126293571Y-149137595D01*
X126341190Y-149232833D01*
X126341190Y-149613785D01*
X126817380Y-148089976D02*
X126817380Y-148661404D01*
X126817380Y-148375690D02*
X125817380Y-148375690D01*
X125960238Y-148470928D01*
X126055476Y-148566166D01*
X126103095Y-148661404D01*
X125817380Y-147185214D02*
X125817380Y-147661404D01*
X126293571Y-147709023D01*
X126245952Y-147661404D01*
X126198333Y-147566166D01*
X126198333Y-147328071D01*
X126245952Y-147232833D01*
X126293571Y-147185214D01*
X126388809Y-147137595D01*
X126626904Y-147137595D01*
X126722142Y-147185214D01*
X126769761Y-147232833D01*
X126817380Y-147328071D01*
X126817380Y-147566166D01*
X126769761Y-147661404D01*
X126722142Y-147709023D01*
X128404880Y-146883357D02*
X127928690Y-147216690D01*
X128404880Y-147454785D02*
X127404880Y-147454785D01*
X127404880Y-147073833D01*
X127452500Y-146978595D01*
X127500119Y-146930976D01*
X127595357Y-146883357D01*
X127738214Y-146883357D01*
X127833452Y-146930976D01*
X127881071Y-146978595D01*
X127928690Y-147073833D01*
X127928690Y-147454785D01*
X128404880Y-145930976D02*
X128404880Y-146502404D01*
X128404880Y-146216690D02*
X127404880Y-146216690D01*
X127547738Y-146311928D01*
X127642976Y-146407166D01*
X127690595Y-146502404D01*
X127738214Y-145073833D02*
X128404880Y-145073833D01*
X127357261Y-145311928D02*
X128071547Y-145550023D01*
X128071547Y-144930976D01*
X88018880Y-116498666D02*
X87542690Y-116832000D01*
X88018880Y-117070095D02*
X87018880Y-117070095D01*
X87018880Y-116689142D01*
X87066500Y-116593904D01*
X87114119Y-116546285D01*
X87209357Y-116498666D01*
X87352214Y-116498666D01*
X87447452Y-116546285D01*
X87495071Y-116593904D01*
X87542690Y-116689142D01*
X87542690Y-117070095D01*
X87352214Y-115641523D02*
X88018880Y-115641523D01*
X86971261Y-115879619D02*
X87685547Y-116117714D01*
X87685547Y-115498666D01*
X84415333Y-107767380D02*
X84082000Y-107291190D01*
X83843904Y-107767380D02*
X83843904Y-106767380D01*
X84224857Y-106767380D01*
X84320095Y-106815000D01*
X84367714Y-106862619D01*
X84415333Y-106957857D01*
X84415333Y-107100714D01*
X84367714Y-107195952D01*
X84320095Y-107243571D01*
X84224857Y-107291190D01*
X83843904Y-107291190D01*
X84796285Y-106862619D02*
X84843904Y-106815000D01*
X84939142Y-106767380D01*
X85177238Y-106767380D01*
X85272476Y-106815000D01*
X85320095Y-106862619D01*
X85367714Y-106957857D01*
X85367714Y-107053095D01*
X85320095Y-107195952D01*
X84748666Y-107767380D01*
X85367714Y-107767380D01*
X80716380Y-109069166D02*
X80240190Y-109402500D01*
X80716380Y-109640595D02*
X79716380Y-109640595D01*
X79716380Y-109259642D01*
X79764000Y-109164404D01*
X79811619Y-109116785D01*
X79906857Y-109069166D01*
X80049714Y-109069166D01*
X80144952Y-109116785D01*
X80192571Y-109164404D01*
X80240190Y-109259642D01*
X80240190Y-109640595D01*
X80716380Y-108116785D02*
X80716380Y-108688214D01*
X80716380Y-108402500D02*
X79716380Y-108402500D01*
X79859238Y-108497738D01*
X79954476Y-108592976D01*
X80002095Y-108688214D01*
D10*
X140827166Y-136286761D02*
X139874785Y-136286761D01*
X139874785Y-134286761D01*
X142541452Y-136286761D02*
X141398595Y-136286761D01*
X141970023Y-136286761D02*
X141970023Y-134286761D01*
X141779547Y-134572476D01*
X141589071Y-134762952D01*
X141398595Y-134858190D01*
D12*
X92330880Y-82001333D02*
X93045166Y-82001333D01*
X93188023Y-82048952D01*
X93283261Y-82144190D01*
X93330880Y-82287047D01*
X93330880Y-82382285D01*
X93330880Y-81525142D02*
X92330880Y-81525142D01*
X92330880Y-81144190D01*
X92378500Y-81048952D01*
X92426119Y-81001333D01*
X92521357Y-80953714D01*
X92664214Y-80953714D01*
X92759452Y-81001333D01*
X92807071Y-81048952D01*
X92854690Y-81144190D01*
X92854690Y-81525142D01*
X92426119Y-80572761D02*
X92378500Y-80525142D01*
X92330880Y-80429904D01*
X92330880Y-80191809D01*
X92378500Y-80096571D01*
X92426119Y-80048952D01*
X92521357Y-80001333D01*
X92616595Y-80001333D01*
X92759452Y-80048952D01*
X93330880Y-80620380D01*
X93330880Y-80001333D01*
X81646780Y-87904533D02*
X82361066Y-87904533D01*
X82503923Y-87952152D01*
X82599161Y-88047390D01*
X82646780Y-88190247D01*
X82646780Y-88285485D01*
X82646780Y-87428342D02*
X81646780Y-87428342D01*
X81646780Y-87047390D01*
X81694400Y-86952152D01*
X81742019Y-86904533D01*
X81837257Y-86856914D01*
X81980114Y-86856914D01*
X82075352Y-86904533D01*
X82122971Y-86952152D01*
X82170590Y-87047390D01*
X82170590Y-87428342D01*
X82646780Y-85904533D02*
X82646780Y-86475961D01*
X82646780Y-86190247D02*
X81646780Y-86190247D01*
X81789638Y-86285485D01*
X81884876Y-86380723D01*
X81932495Y-86475961D01*
D13*
X109819126Y-138117357D02*
X109537383Y-139168836D01*
X109410936Y-139360349D01*
X109233173Y-139462980D01*
X109004094Y-139476730D01*
X108863897Y-139439165D01*
X110896757Y-139983868D02*
X110055573Y-139758473D01*
X110476165Y-139871171D02*
X110870605Y-138399100D01*
X110674059Y-138571830D01*
X110496296Y-138674461D01*
X110337316Y-138706994D01*
X111814420Y-138802257D02*
X111903302Y-138750941D01*
X112062282Y-138718408D01*
X112412775Y-138812323D01*
X112534189Y-138919987D01*
X112585505Y-139008869D01*
X112618038Y-139167849D01*
X112580472Y-139308046D01*
X112454025Y-139499559D01*
X111387447Y-140115348D01*
X112298729Y-140359525D01*
D12*
X91922547Y-139917327D02*
X92469722Y-140376461D01*
X92548548Y-140504766D01*
X92560286Y-140638941D01*
X92504938Y-140778984D01*
X92443720Y-140851941D01*
X93331379Y-139794070D02*
X92964072Y-140231810D01*
X93147726Y-140012940D02*
X92381681Y-139370152D01*
X92429898Y-139534936D01*
X92441637Y-139669110D01*
X92416897Y-139772676D01*
X93943558Y-139064504D02*
X93576251Y-139502244D01*
X93759904Y-139283374D02*
X92993860Y-138640586D01*
X93042077Y-138805370D01*
X93053816Y-138939544D01*
X93029076Y-139043110D01*
X74134399Y-117872279D02*
X74378699Y-118543488D01*
X74382812Y-118694017D01*
X74325891Y-118816085D01*
X74207936Y-118909692D01*
X74118441Y-118942265D01*
X75416112Y-118469952D02*
X74879145Y-118665392D01*
X75147628Y-118567672D02*
X74805608Y-117627979D01*
X74764974Y-117794794D01*
X74708053Y-117916862D01*
X74634845Y-117994183D01*
X75655806Y-117318532D02*
X75745301Y-117285959D01*
X75851082Y-117298133D01*
X75912116Y-117326594D01*
X75989437Y-117399802D01*
X76099331Y-117562504D01*
X76180764Y-117786240D01*
X76201163Y-117981516D01*
X76188989Y-118087297D01*
X76160529Y-118148331D01*
X76087321Y-118225652D01*
X75997826Y-118258225D01*
X75892045Y-118246051D01*
X75831011Y-118217591D01*
X75753691Y-118144383D01*
X75643797Y-117981680D01*
X75562363Y-117757944D01*
X75541964Y-117562668D01*
X75554138Y-117456887D01*
X75582598Y-117395853D01*
X75655806Y-117318532D01*
X84990649Y-133195562D02*
X85449783Y-133742736D01*
X85505131Y-133882780D01*
X85493392Y-134016954D01*
X85414566Y-134145260D01*
X85341610Y-134206477D01*
X86034698Y-133624908D02*
X86180611Y-133502472D01*
X86222959Y-133404776D01*
X86228828Y-133337689D01*
X86209958Y-133167036D01*
X86124000Y-132990514D01*
X85879129Y-132698687D01*
X85781433Y-132656339D01*
X85714345Y-132650470D01*
X85610780Y-132675210D01*
X85464867Y-132797645D01*
X85422519Y-132895342D01*
X85416650Y-132962429D01*
X85441389Y-133065994D01*
X85594434Y-133248386D01*
X85692130Y-133290734D01*
X85759217Y-133296603D01*
X85862783Y-133271863D01*
X86008696Y-133149428D01*
X86051044Y-133051731D01*
X86056913Y-132984644D01*
X86032173Y-132881079D01*
X78990315Y-125727214D02*
X79347458Y-126345804D01*
X79377647Y-126493331D01*
X79342787Y-126623429D01*
X79242879Y-126736097D01*
X79160400Y-126783716D01*
X79320229Y-125536738D02*
X79856340Y-125227214D01*
X79758141Y-125723795D01*
X79881859Y-125652367D01*
X79988147Y-125645987D01*
X80053196Y-125663417D01*
X80142055Y-125722086D01*
X80261102Y-125928282D01*
X80267482Y-126034570D01*
X80250052Y-126099619D01*
X80191383Y-126188478D01*
X79943947Y-126331335D01*
X79837659Y-126337715D01*
X79772610Y-126320285D01*
X119707066Y-61396571D02*
X119373733Y-61396571D01*
X119373733Y-61920380D02*
X119373733Y-60920380D01*
X119849923Y-60920380D01*
X120135638Y-60920380D02*
X120754685Y-60920380D01*
X120421352Y-61301333D01*
X120564209Y-61301333D01*
X120659447Y-61348952D01*
X120707066Y-61396571D01*
X120754685Y-61491809D01*
X120754685Y-61729904D01*
X120707066Y-61825142D01*
X120659447Y-61872761D01*
X120564209Y-61920380D01*
X120278495Y-61920380D01*
X120183257Y-61872761D01*
X120135638Y-61825142D01*
X100664971Y-139779333D02*
X100664971Y-140112666D01*
X101188780Y-140112666D02*
X100188780Y-140112666D01*
X100188780Y-139636476D01*
X101188780Y-138731714D02*
X101188780Y-139303142D01*
X101188780Y-139017428D02*
X100188780Y-139017428D01*
X100331638Y-139112666D01*
X100426876Y-139207904D01*
X100474495Y-139303142D01*
X83819104Y-69499698D02*
X83053059Y-68856911D01*
X83206104Y-68674519D01*
X83334409Y-68595693D01*
X83468584Y-68583954D01*
X83572149Y-68608694D01*
X83748671Y-68694651D01*
X83858106Y-68786478D01*
X83973411Y-68945392D01*
X84015758Y-69043088D01*
X84027497Y-69177263D01*
X83972149Y-69317307D01*
X83819104Y-69499698D01*
X83634629Y-68163823D02*
X84063154Y-67653126D01*
X84553718Y-68624219D01*
X81862214Y-71857087D02*
X81043062Y-71283510D01*
X81179628Y-71088474D01*
X81300575Y-70998766D01*
X81433216Y-70975377D01*
X81538543Y-70990997D01*
X81721885Y-71061242D01*
X81838907Y-71143181D01*
X81967623Y-71291441D01*
X82018324Y-71385075D01*
X82041712Y-71517716D01*
X81998780Y-71662051D01*
X81862214Y-71857087D01*
X81862457Y-70113293D02*
X81753204Y-70269322D01*
X81737585Y-70374650D01*
X81749279Y-70440970D01*
X81811675Y-70600924D01*
X81940391Y-70749184D01*
X82252449Y-70967689D01*
X82357776Y-70983308D01*
X82424097Y-70971614D01*
X82517730Y-70920913D01*
X82626983Y-70764884D01*
X82642602Y-70659556D01*
X82630908Y-70593236D01*
X82580207Y-70499602D01*
X82385170Y-70363037D01*
X82279843Y-70347418D01*
X82213522Y-70359112D01*
X82119889Y-70409813D01*
X82010636Y-70565842D01*
X81995017Y-70671170D01*
X82006711Y-70737490D01*
X82057412Y-70831124D01*
X84843880Y-115038095D02*
X83843880Y-115038095D01*
X83843880Y-114800000D01*
X83891500Y-114657142D01*
X83986738Y-114561904D01*
X84081976Y-114514285D01*
X84272452Y-114466666D01*
X84415309Y-114466666D01*
X84605785Y-114514285D01*
X84701023Y-114561904D01*
X84796261Y-114657142D01*
X84843880Y-114800000D01*
X84843880Y-115038095D01*
X84843880Y-113514285D02*
X84843880Y-114085714D01*
X84843880Y-113800000D02*
X83843880Y-113800000D01*
X83986738Y-113895238D01*
X84081976Y-113990476D01*
X84129595Y-114085714D01*
X115939842Y-133548357D02*
X115987461Y-133595976D01*
X116035080Y-133738833D01*
X116035080Y-133834071D01*
X115987461Y-133976928D01*
X115892223Y-134072166D01*
X115796985Y-134119785D01*
X115606509Y-134167404D01*
X115463652Y-134167404D01*
X115273176Y-134119785D01*
X115177938Y-134072166D01*
X115082700Y-133976928D01*
X115035080Y-133834071D01*
X115035080Y-133738833D01*
X115082700Y-133595976D01*
X115130319Y-133548357D01*
X115035080Y-133215023D02*
X115035080Y-132595976D01*
X115416033Y-132929309D01*
X115416033Y-132786452D01*
X115463652Y-132691214D01*
X115511271Y-132643595D01*
X115606509Y-132595976D01*
X115844604Y-132595976D01*
X115939842Y-132643595D01*
X115987461Y-132691214D01*
X116035080Y-132786452D01*
X116035080Y-133072166D01*
X115987461Y-133167404D01*
X115939842Y-133215023D01*
X115035080Y-132262642D02*
X115035080Y-131643595D01*
X115416033Y-131976928D01*
X115416033Y-131834071D01*
X115463652Y-131738833D01*
X115511271Y-131691214D01*
X115606509Y-131643595D01*
X115844604Y-131643595D01*
X115939842Y-131691214D01*
X115987461Y-131738833D01*
X116035080Y-131834071D01*
X116035080Y-132119785D01*
X115987461Y-132215023D01*
X115939842Y-132262642D01*
X132279642Y-134183357D02*
X132327261Y-134230976D01*
X132374880Y-134373833D01*
X132374880Y-134469071D01*
X132327261Y-134611928D01*
X132232023Y-134707166D01*
X132136785Y-134754785D01*
X131946309Y-134802404D01*
X131803452Y-134802404D01*
X131612976Y-134754785D01*
X131517738Y-134707166D01*
X131422500Y-134611928D01*
X131374880Y-134469071D01*
X131374880Y-134373833D01*
X131422500Y-134230976D01*
X131470119Y-134183357D01*
X131374880Y-133850023D02*
X131374880Y-133230976D01*
X131755833Y-133564309D01*
X131755833Y-133421452D01*
X131803452Y-133326214D01*
X131851071Y-133278595D01*
X131946309Y-133230976D01*
X132184404Y-133230976D01*
X132279642Y-133278595D01*
X132327261Y-133326214D01*
X132374880Y-133421452D01*
X132374880Y-133707166D01*
X132327261Y-133802404D01*
X132279642Y-133850023D01*
X132374880Y-132278595D02*
X132374880Y-132850023D01*
X132374880Y-132564309D02*
X131374880Y-132564309D01*
X131517738Y-132659547D01*
X131612976Y-132754785D01*
X131660595Y-132850023D01*
X135929642Y-136405857D02*
X135977261Y-136453476D01*
X136024880Y-136596333D01*
X136024880Y-136691571D01*
X135977261Y-136834428D01*
X135882023Y-136929666D01*
X135786785Y-136977285D01*
X135596309Y-137024904D01*
X135453452Y-137024904D01*
X135262976Y-136977285D01*
X135167738Y-136929666D01*
X135072500Y-136834428D01*
X135024880Y-136691571D01*
X135024880Y-136596333D01*
X135072500Y-136453476D01*
X135120119Y-136405857D01*
X135120119Y-136024904D02*
X135072500Y-135977285D01*
X135024880Y-135882047D01*
X135024880Y-135643952D01*
X135072500Y-135548714D01*
X135120119Y-135501095D01*
X135215357Y-135453476D01*
X135310595Y-135453476D01*
X135453452Y-135501095D01*
X136024880Y-136072523D01*
X136024880Y-135453476D01*
X136024880Y-134977285D02*
X136024880Y-134786809D01*
X135977261Y-134691571D01*
X135929642Y-134643952D01*
X135786785Y-134548714D01*
X135596309Y-134501095D01*
X135215357Y-134501095D01*
X135120119Y-134548714D01*
X135072500Y-134596333D01*
X135024880Y-134691571D01*
X135024880Y-134882047D01*
X135072500Y-134977285D01*
X135120119Y-135024904D01*
X135215357Y-135072523D01*
X135453452Y-135072523D01*
X135548690Y-135024904D01*
X135596309Y-134977285D01*
X135643928Y-134882047D01*
X135643928Y-134691571D01*
X135596309Y-134596333D01*
X135548690Y-134548714D01*
X135453452Y-134501095D01*
X118635542Y-146965942D02*
X118587923Y-147013561D01*
X118445066Y-147061180D01*
X118349828Y-147061180D01*
X118206971Y-147013561D01*
X118111733Y-146918323D01*
X118064114Y-146823085D01*
X118016495Y-146632609D01*
X118016495Y-146489752D01*
X118064114Y-146299276D01*
X118111733Y-146204038D01*
X118206971Y-146108800D01*
X118349828Y-146061180D01*
X118445066Y-146061180D01*
X118587923Y-146108800D01*
X118635542Y-146156419D01*
X119016495Y-146156419D02*
X119064114Y-146108800D01*
X119159352Y-146061180D01*
X119397447Y-146061180D01*
X119492685Y-146108800D01*
X119540304Y-146156419D01*
X119587923Y-146251657D01*
X119587923Y-146346895D01*
X119540304Y-146489752D01*
X118968876Y-147061180D01*
X119587923Y-147061180D01*
X119921257Y-146061180D02*
X120587923Y-146061180D01*
X120159352Y-147061180D01*
X123102642Y-151569657D02*
X123150261Y-151617276D01*
X123197880Y-151760133D01*
X123197880Y-151855371D01*
X123150261Y-151998228D01*
X123055023Y-152093466D01*
X122959785Y-152141085D01*
X122769309Y-152188704D01*
X122626452Y-152188704D01*
X122435976Y-152141085D01*
X122340738Y-152093466D01*
X122245500Y-151998228D01*
X122197880Y-151855371D01*
X122197880Y-151760133D01*
X122245500Y-151617276D01*
X122293119Y-151569657D01*
X122293119Y-151188704D02*
X122245500Y-151141085D01*
X122197880Y-151045847D01*
X122197880Y-150807752D01*
X122245500Y-150712514D01*
X122293119Y-150664895D01*
X122388357Y-150617276D01*
X122483595Y-150617276D01*
X122626452Y-150664895D01*
X123197880Y-151236323D01*
X123197880Y-150617276D01*
X122531214Y-149760133D02*
X123197880Y-149760133D01*
X122150261Y-149998228D02*
X122864547Y-150236323D01*
X122864547Y-149617276D01*
X119513642Y-143733857D02*
X119561261Y-143781476D01*
X119608880Y-143924333D01*
X119608880Y-144019571D01*
X119561261Y-144162428D01*
X119466023Y-144257666D01*
X119370785Y-144305285D01*
X119180309Y-144352904D01*
X119037452Y-144352904D01*
X118846976Y-144305285D01*
X118751738Y-144257666D01*
X118656500Y-144162428D01*
X118608880Y-144019571D01*
X118608880Y-143924333D01*
X118656500Y-143781476D01*
X118704119Y-143733857D01*
X118704119Y-143352904D02*
X118656500Y-143305285D01*
X118608880Y-143210047D01*
X118608880Y-142971952D01*
X118656500Y-142876714D01*
X118704119Y-142829095D01*
X118799357Y-142781476D01*
X118894595Y-142781476D01*
X119037452Y-142829095D01*
X119608880Y-143400523D01*
X119608880Y-142781476D01*
X118704119Y-142400523D02*
X118656500Y-142352904D01*
X118608880Y-142257666D01*
X118608880Y-142019571D01*
X118656500Y-141924333D01*
X118704119Y-141876714D01*
X118799357Y-141829095D01*
X118894595Y-141829095D01*
X119037452Y-141876714D01*
X119608880Y-142448142D01*
X119608880Y-141829095D01*
X154805142Y-137580642D02*
X154757523Y-137628261D01*
X154614666Y-137675880D01*
X154519428Y-137675880D01*
X154376571Y-137628261D01*
X154281333Y-137533023D01*
X154233714Y-137437785D01*
X154186095Y-137247309D01*
X154186095Y-137104452D01*
X154233714Y-136913976D01*
X154281333Y-136818738D01*
X154376571Y-136723500D01*
X154519428Y-136675880D01*
X154614666Y-136675880D01*
X154757523Y-136723500D01*
X154805142Y-136771119D01*
X155186095Y-136771119D02*
X155233714Y-136723500D01*
X155328952Y-136675880D01*
X155567047Y-136675880D01*
X155662285Y-136723500D01*
X155709904Y-136771119D01*
X155757523Y-136866357D01*
X155757523Y-136961595D01*
X155709904Y-137104452D01*
X155138476Y-137675880D01*
X155757523Y-137675880D01*
X156709904Y-137675880D02*
X156138476Y-137675880D01*
X156424190Y-137675880D02*
X156424190Y-136675880D01*
X156328952Y-136818738D01*
X156233714Y-136913976D01*
X156138476Y-136961595D01*
X128677942Y-143594057D02*
X128725561Y-143641676D01*
X128773180Y-143784533D01*
X128773180Y-143879771D01*
X128725561Y-144022628D01*
X128630323Y-144117866D01*
X128535085Y-144165485D01*
X128344609Y-144213104D01*
X128201752Y-144213104D01*
X128011276Y-144165485D01*
X127916038Y-144117866D01*
X127820800Y-144022628D01*
X127773180Y-143879771D01*
X127773180Y-143784533D01*
X127820800Y-143641676D01*
X127868419Y-143594057D01*
X127868419Y-143213104D02*
X127820800Y-143165485D01*
X127773180Y-143070247D01*
X127773180Y-142832152D01*
X127820800Y-142736914D01*
X127868419Y-142689295D01*
X127963657Y-142641676D01*
X128058895Y-142641676D01*
X128201752Y-142689295D01*
X128773180Y-143260723D01*
X128773180Y-142641676D01*
X127773180Y-142022628D02*
X127773180Y-141927390D01*
X127820800Y-141832152D01*
X127868419Y-141784533D01*
X127963657Y-141736914D01*
X128154133Y-141689295D01*
X128392228Y-141689295D01*
X128582704Y-141736914D01*
X128677942Y-141784533D01*
X128725561Y-141832152D01*
X128773180Y-141927390D01*
X128773180Y-142022628D01*
X128725561Y-142117866D01*
X128677942Y-142165485D01*
X128582704Y-142213104D01*
X128392228Y-142260723D01*
X128154133Y-142260723D01*
X127963657Y-142213104D01*
X127868419Y-142165485D01*
X127820800Y-142117866D01*
X127773180Y-142022628D01*
X154805142Y-135866142D02*
X154757523Y-135913761D01*
X154614666Y-135961380D01*
X154519428Y-135961380D01*
X154376571Y-135913761D01*
X154281333Y-135818523D01*
X154233714Y-135723285D01*
X154186095Y-135532809D01*
X154186095Y-135389952D01*
X154233714Y-135199476D01*
X154281333Y-135104238D01*
X154376571Y-135009000D01*
X154519428Y-134961380D01*
X154614666Y-134961380D01*
X154757523Y-135009000D01*
X154805142Y-135056619D01*
X155757523Y-135961380D02*
X155186095Y-135961380D01*
X155471809Y-135961380D02*
X155471809Y-134961380D01*
X155376571Y-135104238D01*
X155281333Y-135199476D01*
X155186095Y-135247095D01*
X156233714Y-135961380D02*
X156424190Y-135961380D01*
X156519428Y-135913761D01*
X156567047Y-135866142D01*
X156662285Y-135723285D01*
X156709904Y-135532809D01*
X156709904Y-135151857D01*
X156662285Y-135056619D01*
X156614666Y-135009000D01*
X156519428Y-134961380D01*
X156328952Y-134961380D01*
X156233714Y-135009000D01*
X156186095Y-135056619D01*
X156138476Y-135151857D01*
X156138476Y-135389952D01*
X156186095Y-135485190D01*
X156233714Y-135532809D01*
X156328952Y-135580428D01*
X156519428Y-135580428D01*
X156614666Y-135532809D01*
X156662285Y-135485190D01*
X156709904Y-135389952D01*
X133707142Y-146248357D02*
X133754761Y-146295976D01*
X133802380Y-146438833D01*
X133802380Y-146534071D01*
X133754761Y-146676928D01*
X133659523Y-146772166D01*
X133564285Y-146819785D01*
X133373809Y-146867404D01*
X133230952Y-146867404D01*
X133040476Y-146819785D01*
X132945238Y-146772166D01*
X132850000Y-146676928D01*
X132802380Y-146534071D01*
X132802380Y-146438833D01*
X132850000Y-146295976D01*
X132897619Y-146248357D01*
X133802380Y-145295976D02*
X133802380Y-145867404D01*
X133802380Y-145581690D02*
X132802380Y-145581690D01*
X132945238Y-145676928D01*
X133040476Y-145772166D01*
X133088095Y-145867404D01*
X133230952Y-144724547D02*
X133183333Y-144819785D01*
X133135714Y-144867404D01*
X133040476Y-144915023D01*
X132992857Y-144915023D01*
X132897619Y-144867404D01*
X132850000Y-144819785D01*
X132802380Y-144724547D01*
X132802380Y-144534071D01*
X132850000Y-144438833D01*
X132897619Y-144391214D01*
X132992857Y-144343595D01*
X133040476Y-144343595D01*
X133135714Y-144391214D01*
X133183333Y-144438833D01*
X133230952Y-144534071D01*
X133230952Y-144724547D01*
X133278571Y-144819785D01*
X133326190Y-144867404D01*
X133421428Y-144915023D01*
X133611904Y-144915023D01*
X133707142Y-144867404D01*
X133754761Y-144819785D01*
X133802380Y-144724547D01*
X133802380Y-144534071D01*
X133754761Y-144438833D01*
X133707142Y-144391214D01*
X133611904Y-144343595D01*
X133421428Y-144343595D01*
X133326190Y-144391214D01*
X133278571Y-144438833D01*
X133230952Y-144534071D01*
X115114342Y-144762457D02*
X115161961Y-144810076D01*
X115209580Y-144952933D01*
X115209580Y-145048171D01*
X115161961Y-145191028D01*
X115066723Y-145286266D01*
X114971485Y-145333885D01*
X114781009Y-145381504D01*
X114638152Y-145381504D01*
X114447676Y-145333885D01*
X114352438Y-145286266D01*
X114257200Y-145191028D01*
X114209580Y-145048171D01*
X114209580Y-144952933D01*
X114257200Y-144810076D01*
X114304819Y-144762457D01*
X115209580Y-143810076D02*
X115209580Y-144381504D01*
X115209580Y-144095790D02*
X114209580Y-144095790D01*
X114352438Y-144191028D01*
X114447676Y-144286266D01*
X114495295Y-144381504D01*
X114209580Y-143476742D02*
X114209580Y-142810076D01*
X115209580Y-143238647D01*
X99226642Y-80398857D02*
X99274261Y-80446476D01*
X99321880Y-80589333D01*
X99321880Y-80684571D01*
X99274261Y-80827428D01*
X99179023Y-80922666D01*
X99083785Y-80970285D01*
X98893309Y-81017904D01*
X98750452Y-81017904D01*
X98559976Y-80970285D01*
X98464738Y-80922666D01*
X98369500Y-80827428D01*
X98321880Y-80684571D01*
X98321880Y-80589333D01*
X98369500Y-80446476D01*
X98417119Y-80398857D01*
X99321880Y-79446476D02*
X99321880Y-80017904D01*
X99321880Y-79732190D02*
X98321880Y-79732190D01*
X98464738Y-79827428D01*
X98559976Y-79922666D01*
X98607595Y-80017904D01*
X98321880Y-79113142D02*
X98321880Y-78494095D01*
X98702833Y-78827428D01*
X98702833Y-78684571D01*
X98750452Y-78589333D01*
X98798071Y-78541714D01*
X98893309Y-78494095D01*
X99131404Y-78494095D01*
X99226642Y-78541714D01*
X99274261Y-78589333D01*
X99321880Y-78684571D01*
X99321880Y-78970285D01*
X99274261Y-79065523D01*
X99226642Y-79113142D01*
X84050142Y-78843166D02*
X84097761Y-78890785D01*
X84145380Y-79033642D01*
X84145380Y-79128880D01*
X84097761Y-79271738D01*
X84002523Y-79366976D01*
X83907285Y-79414595D01*
X83716809Y-79462214D01*
X83573952Y-79462214D01*
X83383476Y-79414595D01*
X83288238Y-79366976D01*
X83193000Y-79271738D01*
X83145380Y-79128880D01*
X83145380Y-79033642D01*
X83193000Y-78890785D01*
X83240619Y-78843166D01*
X84145380Y-78366976D02*
X84145380Y-78176500D01*
X84097761Y-78081261D01*
X84050142Y-78033642D01*
X83907285Y-77938404D01*
X83716809Y-77890785D01*
X83335857Y-77890785D01*
X83240619Y-77938404D01*
X83193000Y-77986023D01*
X83145380Y-78081261D01*
X83145380Y-78271738D01*
X83193000Y-78366976D01*
X83240619Y-78414595D01*
X83335857Y-78462214D01*
X83573952Y-78462214D01*
X83669190Y-78414595D01*
X83716809Y-78366976D01*
X83764428Y-78271738D01*
X83764428Y-78081261D01*
X83716809Y-77986023D01*
X83669190Y-77938404D01*
X83573952Y-77890785D01*
M02*
