G04 #@! TF.GenerationSoftware,KiCad,Pcbnew,7.0.10*
G04 #@! TF.CreationDate,2024-12-11T17:53:56-08:00*
G04 #@! TF.ProjectId,LCP_PowerControl,4c43505f-506f-4776-9572-436f6e74726f,rev?*
G04 #@! TF.SameCoordinates,Original*
G04 #@! TF.FileFunction,Paste,Top*
G04 #@! TF.FilePolarity,Positive*
%FSLAX46Y46*%
G04 Gerber Fmt 4.6, Leading zero omitted, Abs format (unit mm)*
G04 Created by KiCad (PCBNEW 7.0.10) date 2024-12-11 17:53:56*
%MOMM*%
%LPD*%
G01*
G04 APERTURE LIST*
G04 Aperture macros list*
%AMRoundRect*
0 Rectangle with rounded corners*
0 $1 Rounding radius*
0 $2 $3 $4 $5 $6 $7 $8 $9 X,Y pos of 4 corners*
0 Add a 4 corners polygon primitive as box body*
4,1,4,$2,$3,$4,$5,$6,$7,$8,$9,$2,$3,0*
0 Add four circle primitives for the rounded corners*
1,1,$1+$1,$2,$3*
1,1,$1+$1,$4,$5*
1,1,$1+$1,$6,$7*
1,1,$1+$1,$8,$9*
0 Add four rect primitives between the rounded corners*
20,1,$1+$1,$2,$3,$4,$5,0*
20,1,$1+$1,$4,$5,$6,$7,0*
20,1,$1+$1,$6,$7,$8,$9,0*
20,1,$1+$1,$8,$9,$2,$3,0*%
G04 Aperture macros list end*
%ADD10R,0.400000X0.900000*%
%ADD11RoundRect,0.243750X-0.243750X-0.456250X0.243750X-0.456250X0.243750X0.456250X-0.243750X0.456250X0*%
%ADD12RoundRect,0.243750X0.243750X0.456250X-0.243750X0.456250X-0.243750X-0.456250X0.243750X-0.456250X0*%
%ADD13RoundRect,0.218750X-0.218750X-0.256250X0.218750X-0.256250X0.218750X0.256250X-0.218750X0.256250X0*%
%ADD14RoundRect,0.250000X-0.250000X-0.475000X0.250000X-0.475000X0.250000X0.475000X-0.250000X0.475000X0*%
%ADD15RoundRect,0.250000X0.475000X-0.250000X0.475000X0.250000X-0.475000X0.250000X-0.475000X-0.250000X0*%
%ADD16RoundRect,0.250000X0.375000X0.625000X-0.375000X0.625000X-0.375000X-0.625000X0.375000X-0.625000X0*%
%ADD17RoundRect,0.250000X-0.475000X0.250000X-0.475000X-0.250000X0.475000X-0.250000X0.475000X0.250000X0*%
%ADD18R,0.800000X0.900000*%
%ADD19R,0.900000X0.800000*%
%ADD20RoundRect,0.243750X0.456250X-0.243750X0.456250X0.243750X-0.456250X0.243750X-0.456250X-0.243750X0*%
%ADD21RoundRect,0.243750X-0.456250X0.243750X-0.456250X-0.243750X0.456250X-0.243750X0.456250X0.243750X0*%
%ADD22RoundRect,0.200000X0.200000X0.275000X-0.200000X0.275000X-0.200000X-0.275000X0.200000X-0.275000X0*%
%ADD23RoundRect,0.250000X0.262500X0.450000X-0.262500X0.450000X-0.262500X-0.450000X0.262500X-0.450000X0*%
%ADD24RoundRect,0.250000X-0.262500X-0.450000X0.262500X-0.450000X0.262500X0.450000X-0.262500X0.450000X0*%
%ADD25RoundRect,0.075000X0.075000X-0.700000X0.075000X0.700000X-0.075000X0.700000X-0.075000X-0.700000X0*%
%ADD26RoundRect,0.075000X0.700000X-0.075000X0.700000X0.075000X-0.700000X0.075000X-0.700000X-0.075000X0*%
%ADD27R,1.800000X1.000000*%
%ADD28R,1.800000X2.500000*%
%ADD29R,8.200000X2.600000*%
%ADD30RoundRect,0.250000X0.250000X0.475000X-0.250000X0.475000X-0.250000X-0.475000X0.250000X-0.475000X0*%
%ADD31R,1.560000X0.650000*%
%ADD32RoundRect,0.250000X0.450000X-0.262500X0.450000X0.262500X-0.450000X0.262500X-0.450000X-0.262500X0*%
%ADD33R,5.000000X4.000000*%
%ADD34RoundRect,0.249999X-0.450001X0.262501X-0.450001X-0.262501X0.450001X-0.262501X0.450001X0.262501X0*%
%ADD35RoundRect,0.250000X-0.375000X-1.075000X0.375000X-1.075000X0.375000X1.075000X-0.375000X1.075000X0*%
%ADD36RoundRect,0.249999X0.450001X-0.262501X0.450001X0.262501X-0.450001X0.262501X-0.450001X-0.262501X0*%
%ADD37RoundRect,0.250000X-0.450000X0.262500X-0.450000X-0.262500X0.450000X-0.262500X0.450000X0.262500X0*%
%ADD38R,0.800000X0.250000*%
%ADD39R,0.250000X0.800000*%
%ADD40R,0.800000X0.850000*%
%ADD41R,0.850000X0.850000*%
%ADD42R,0.450000X1.050000*%
%ADD43RoundRect,0.218750X-0.256250X0.218750X-0.256250X-0.218750X0.256250X-0.218750X0.256250X0.218750X0*%
%ADD44RoundRect,0.249998X-0.262502X-0.450002X0.262502X-0.450002X0.262502X0.450002X-0.262502X0.450002X0*%
%ADD45RoundRect,0.249998X0.450002X-0.262502X0.450002X0.262502X-0.450002X0.262502X-0.450002X-0.262502X0*%
%ADD46R,0.399999X1.074999*%
%ADD47R,0.249999X0.825000*%
%ADD48R,0.675000X0.249999*%
%ADD49R,0.825000X0.249999*%
%ADD50R,2.975000X0.349999*%
%ADD51R,0.970000X0.700000*%
%ADD52R,0.250000X0.700000*%
%ADD53RoundRect,0.250000X0.250000X0.250000X-0.250000X0.250000X-0.250000X-0.250000X0.250000X-0.250000X0*%
%ADD54RoundRect,0.250000X1.050000X0.550000X-1.050000X0.550000X-1.050000X-0.550000X1.050000X-0.550000X0*%
%ADD55RoundRect,0.250000X-0.250000X-0.250000X0.250000X-0.250000X0.250000X0.250000X-0.250000X0.250000X0*%
%ADD56RoundRect,0.250000X0.300000X0.300000X-0.300000X0.300000X-0.300000X-0.300000X0.300000X-0.300000X0*%
G04 APERTURE END LIST*
D10*
X132025000Y-76250000D03*
X132825000Y-76250000D03*
X132825000Y-74550000D03*
X132025000Y-74550000D03*
D11*
X109425500Y-138811000D03*
X111300500Y-138811000D03*
D12*
X103934500Y-140716000D03*
X102059500Y-140716000D03*
X103934500Y-138684000D03*
X102059500Y-138684000D03*
X116126500Y-89992200D03*
X114251500Y-89992200D03*
X115288300Y-78155800D03*
X113413300Y-78155800D03*
X115288300Y-80162400D03*
X113413300Y-80162400D03*
D13*
X113563300Y-87680800D03*
X115138300Y-87680800D03*
D14*
X98922800Y-92329000D03*
X100822800Y-92329000D03*
D15*
X101930200Y-105090000D03*
X101930200Y-103190000D03*
D16*
X97716800Y-78130400D03*
X94916800Y-78130400D03*
D17*
X116789200Y-119928600D03*
X116789200Y-121828600D03*
D12*
X133362500Y-78300000D03*
X131487500Y-78300000D03*
D18*
X112384800Y-129422400D03*
X114284800Y-129422400D03*
X113334800Y-127422400D03*
D19*
X109712000Y-127188000D03*
X109712000Y-125288000D03*
X107712000Y-126238000D03*
D20*
X105283000Y-124635500D03*
X105283000Y-122760500D03*
D11*
X107368100Y-122834400D03*
X109243100Y-122834400D03*
D12*
X104925100Y-131953000D03*
X103050100Y-131953000D03*
D21*
X105283000Y-127078500D03*
X105283000Y-128953500D03*
D12*
X130731500Y-143078200D03*
X128856500Y-143078200D03*
D11*
X124538500Y-142367000D03*
X126413500Y-142367000D03*
D20*
X131775000Y-94587500D03*
X131775000Y-92712500D03*
D13*
X91516100Y-87960200D03*
X93091100Y-87960200D03*
D22*
X93128600Y-89585800D03*
X91478600Y-89585800D03*
D23*
X114907700Y-123139200D03*
X113082700Y-123139200D03*
D24*
X113082700Y-121158000D03*
X114907700Y-121158000D03*
D10*
X117849600Y-95898600D03*
X117049600Y-95898600D03*
X117049600Y-97598600D03*
X117849600Y-97598600D03*
D25*
X119900000Y-90015000D03*
X120400000Y-90015000D03*
X120900000Y-90015000D03*
X121400000Y-90015000D03*
X121900000Y-90015000D03*
X122400000Y-90015000D03*
X122900000Y-90015000D03*
X123400000Y-90015000D03*
X123900000Y-90015000D03*
X124400000Y-90015000D03*
X124900000Y-90015000D03*
X125400000Y-90015000D03*
X125900000Y-90015000D03*
X126400000Y-90015000D03*
X126900000Y-90015000D03*
X127400000Y-90015000D03*
D26*
X129325000Y-88090000D03*
X129325000Y-87590000D03*
X129325000Y-87090000D03*
X129325000Y-86590000D03*
X129325000Y-86090000D03*
X129325000Y-85590000D03*
X129325000Y-85090000D03*
X129325000Y-84590000D03*
X129325000Y-84090000D03*
X129325000Y-83590000D03*
X129325000Y-83090000D03*
X129325000Y-82590000D03*
X129325000Y-82090000D03*
X129325000Y-81590000D03*
X129325000Y-81090000D03*
X129325000Y-80590000D03*
D25*
X127400000Y-78665000D03*
X126900000Y-78665000D03*
X126400000Y-78665000D03*
X125900000Y-78665000D03*
X125400000Y-78665000D03*
X124900000Y-78665000D03*
X124400000Y-78665000D03*
X123900000Y-78665000D03*
X123400000Y-78665000D03*
X122900000Y-78665000D03*
X122400000Y-78665000D03*
X121900000Y-78665000D03*
X121400000Y-78665000D03*
X120900000Y-78665000D03*
X120400000Y-78665000D03*
X119900000Y-78665000D03*
D26*
X117975000Y-80590000D03*
X117975000Y-81090000D03*
X117975000Y-81590000D03*
X117975000Y-82090000D03*
X117975000Y-82590000D03*
X117975000Y-83090000D03*
X117975000Y-83590000D03*
X117975000Y-84090000D03*
X117975000Y-84590000D03*
X117975000Y-85090000D03*
X117975000Y-85590000D03*
X117975000Y-86090000D03*
X117975000Y-86590000D03*
X117975000Y-87090000D03*
X117975000Y-87590000D03*
X117975000Y-88090000D03*
D27*
X114681000Y-86086000D03*
X114681000Y-83586000D03*
D28*
X102184200Y-125362200D03*
X102184200Y-129362200D03*
D29*
X103428800Y-85350000D03*
X103428800Y-79750000D03*
D30*
X97343000Y-91440000D03*
X95443000Y-91440000D03*
D31*
X94941399Y-87569002D03*
X94941399Y-88519002D03*
X94941399Y-89469002D03*
X97641399Y-89469002D03*
X97641399Y-88519002D03*
X97641399Y-87569002D03*
D32*
X111226600Y-121791100D03*
X111226600Y-119966100D03*
D33*
X114122200Y-108826800D03*
X114122200Y-116826800D03*
D30*
X112710000Y-105410000D03*
X110810000Y-105410000D03*
D34*
X120548400Y-119458100D03*
X120548400Y-121283100D03*
D15*
X102108000Y-100274200D03*
X102108000Y-98374200D03*
D35*
X106092800Y-100812600D03*
X108892800Y-100812600D03*
X104721200Y-114579400D03*
X107521200Y-114579400D03*
X106067400Y-104190800D03*
X108867400Y-104190800D03*
X104695800Y-117906800D03*
X107495800Y-117906800D03*
D36*
X122834400Y-113967900D03*
X122834400Y-112142900D03*
X120751600Y-113942500D03*
X120751600Y-112117500D03*
D17*
X102260400Y-119903200D03*
X102260400Y-121803200D03*
D37*
X101473000Y-115571900D03*
X101473000Y-117396900D03*
D16*
X97716800Y-80543400D03*
X94916800Y-80543400D03*
D12*
X126896100Y-127635000D03*
X125021100Y-127635000D03*
X127023100Y-122351800D03*
X125148100Y-122351800D03*
X124764800Y-129590800D03*
X122889800Y-129590800D03*
D38*
X125647000Y-136750000D03*
X126747000Y-136750000D03*
D39*
X124872000Y-135975000D03*
D40*
X125647000Y-135975000D03*
D41*
X126747000Y-135975000D03*
D39*
X127522000Y-135975000D03*
X124872000Y-134875000D03*
D41*
X125647000Y-134875000D03*
X126747000Y-134875000D03*
D39*
X127522000Y-134875000D03*
D38*
X125647000Y-134100000D03*
X126747000Y-134100000D03*
D42*
X123922000Y-138200000D03*
X124572000Y-138200000D03*
X125222000Y-138200000D03*
X125872000Y-138200000D03*
X126522000Y-138200000D03*
X127172000Y-138200000D03*
X127822000Y-138200000D03*
X128472000Y-138200000D03*
X128472000Y-132650000D03*
X127822000Y-132650000D03*
X127172000Y-132650000D03*
X126522000Y-132650000D03*
X125872000Y-132650000D03*
X125222000Y-132650000D03*
X124572000Y-132650000D03*
X123922000Y-132650000D03*
D12*
X126413500Y-144399000D03*
X124538500Y-144399000D03*
X110767100Y-97332800D03*
X108892100Y-97332800D03*
X133312500Y-80550000D03*
X131437500Y-80550000D03*
D43*
X129950000Y-92637500D03*
X129950000Y-94212500D03*
D17*
X133273800Y-87696000D03*
X133273800Y-89596000D03*
D14*
X126405600Y-75742800D03*
X128305600Y-75742800D03*
D11*
X128221500Y-140970000D03*
X130096500Y-140970000D03*
D44*
X137012500Y-77375000D03*
X138837500Y-77375000D03*
D13*
X113563300Y-81991200D03*
X115138300Y-81991200D03*
D12*
X110894100Y-94665800D03*
X109019100Y-94665800D03*
D30*
X97495400Y-85572600D03*
X95595400Y-85572600D03*
D19*
X124577600Y-98999000D03*
X124577600Y-100899000D03*
X126577600Y-99949000D03*
D45*
X122631200Y-100810700D03*
X122631200Y-98985700D03*
D36*
X122910600Y-104671500D03*
X122910600Y-102846500D03*
D34*
X124993400Y-102821100D03*
X124993400Y-104646100D03*
D12*
X110665500Y-91541600D03*
X108790500Y-91541600D03*
D46*
X105528199Y-107553001D03*
D47*
X104453200Y-107428000D03*
X103953201Y-107428000D03*
X103453199Y-107428000D03*
D48*
X102865199Y-108466001D03*
D49*
X102940201Y-108966000D03*
D48*
X102865199Y-109465999D03*
D47*
X103453199Y-110504000D03*
X103953201Y-110504000D03*
X104453200Y-110504000D03*
D46*
X105528199Y-110378999D03*
D50*
X105941200Y-108966000D03*
D51*
X105537000Y-135515000D03*
X106712000Y-135515000D03*
X105537000Y-134620000D03*
X106712000Y-134620000D03*
D52*
X104924500Y-136545000D03*
X105324500Y-136545000D03*
X105724500Y-136545000D03*
X106124500Y-136545000D03*
X106524500Y-136545000D03*
X106924500Y-136545000D03*
X107324500Y-136545000D03*
X107324500Y-133595000D03*
X106924500Y-133595000D03*
X106524500Y-133595000D03*
X106124500Y-133595000D03*
X105724500Y-133595000D03*
X105324500Y-133595000D03*
X104924500Y-133595000D03*
D53*
X106888600Y-94640400D03*
X104388600Y-94640400D03*
D54*
X112620200Y-73583800D03*
X109020200Y-73583800D03*
D53*
X106812400Y-97409000D03*
X104312400Y-97409000D03*
D55*
X107716000Y-129159000D03*
X110216000Y-129159000D03*
D53*
X106939400Y-91541600D03*
X104439400Y-91541600D03*
D32*
X101422200Y-113737400D03*
X101422200Y-111912400D03*
D56*
X97869200Y-83286600D03*
X95069200Y-83286600D03*
M02*
