G04 #@! TF.GenerationSoftware,KiCad,Pcbnew,(5.1.7)-1*
G04 #@! TF.CreationDate,2020-12-22T22:25:20-08:00*
G04 #@! TF.ProjectId,LCP_PowerControl,4c43505f-506f-4776-9572-436f6e74726f,rev?*
G04 #@! TF.SameCoordinates,Original*
G04 #@! TF.FileFunction,Copper,L1,Top*
G04 #@! TF.FilePolarity,Positive*
%FSLAX46Y46*%
G04 Gerber Fmt 4.6, Leading zero omitted, Abs format (unit mm)*
G04 Created by KiCad (PCBNEW (5.1.7)-1) date 2020-12-22 22:25:20*
%MOMM*%
%LPD*%
G01*
G04 APERTURE LIST*
G04 #@! TA.AperFunction,EtchedComponent*
%ADD10C,0.100000*%
G04 #@! TD*
G04 #@! TA.AperFunction,ComponentPad*
%ADD11C,0.100000*%
G04 #@! TD*
G04 #@! TA.AperFunction,SMDPad,CuDef*
%ADD12C,0.100000*%
G04 #@! TD*
G04 #@! TA.AperFunction,ComponentPad*
%ADD13O,2.400000X2.400000*%
G04 #@! TD*
G04 #@! TA.AperFunction,ComponentPad*
%ADD14C,2.400000*%
G04 #@! TD*
G04 #@! TA.AperFunction,ComponentPad*
%ADD15O,1.700000X1.700000*%
G04 #@! TD*
G04 #@! TA.AperFunction,ComponentPad*
%ADD16R,1.700000X1.700000*%
G04 #@! TD*
G04 #@! TA.AperFunction,ComponentPad*
%ADD17O,1.350000X1.350000*%
G04 #@! TD*
G04 #@! TA.AperFunction,ComponentPad*
%ADD18R,1.350000X1.350000*%
G04 #@! TD*
G04 #@! TA.AperFunction,ComponentPad*
%ADD19R,2.400000X2.400000*%
G04 #@! TD*
G04 #@! TA.AperFunction,ComponentPad*
%ADD20C,1.500000*%
G04 #@! TD*
G04 #@! TA.AperFunction,SMDPad,CuDef*
%ADD21R,9.000000X2.380000*%
G04 #@! TD*
G04 #@! TA.AperFunction,SMDPad,CuDef*
%ADD22R,0.400000X2.400000*%
G04 #@! TD*
G04 #@! TA.AperFunction,SMDPad,CuDef*
%ADD23R,1.000000X0.400000*%
G04 #@! TD*
G04 #@! TA.AperFunction,SMDPad,CuDef*
%ADD24R,0.700000X0.250000*%
G04 #@! TD*
G04 #@! TA.AperFunction,SMDPad,CuDef*
%ADD25R,0.300000X0.700000*%
G04 #@! TD*
G04 #@! TA.AperFunction,SMDPad,CuDef*
%ADD26R,0.250000X0.700000*%
G04 #@! TD*
G04 #@! TA.AperFunction,SMDPad,CuDef*
%ADD27R,0.650000X1.560000*%
G04 #@! TD*
G04 #@! TA.AperFunction,ComponentPad*
%ADD28C,0.600000*%
G04 #@! TD*
G04 #@! TA.AperFunction,ComponentPad*
%ADD29C,2.000000*%
G04 #@! TD*
G04 #@! TA.AperFunction,SMDPad,CuDef*
%ADD30R,0.400000X0.900000*%
G04 #@! TD*
G04 #@! TA.AperFunction,SMDPad,CuDef*
%ADD31R,8.200000X2.600000*%
G04 #@! TD*
G04 #@! TA.AperFunction,ComponentPad*
%ADD32C,2.010000*%
G04 #@! TD*
G04 #@! TA.AperFunction,SMDPad,CuDef*
%ADD33R,1.000000X1.000000*%
G04 #@! TD*
G04 #@! TA.AperFunction,ViaPad*
%ADD34C,0.600000*%
G04 #@! TD*
G04 #@! TA.AperFunction,ViaPad*
%ADD35C,0.800000*%
G04 #@! TD*
G04 #@! TA.AperFunction,ViaPad*
%ADD36C,1.270000*%
G04 #@! TD*
G04 #@! TA.AperFunction,Conductor*
%ADD37C,0.508000*%
G04 #@! TD*
G04 #@! TA.AperFunction,Conductor*
%ADD38C,0.254000*%
G04 #@! TD*
G04 #@! TA.AperFunction,Conductor*
%ADD39C,1.016000*%
G04 #@! TD*
G04 #@! TA.AperFunction,Conductor*
%ADD40C,0.203200*%
G04 #@! TD*
G04 #@! TA.AperFunction,Conductor*
%ADD41C,0.457200*%
G04 #@! TD*
G04 #@! TA.AperFunction,Conductor*
%ADD42C,1.270000*%
G04 #@! TD*
G04 #@! TA.AperFunction,Conductor*
%ADD43C,0.100000*%
G04 #@! TD*
G04 APERTURE END LIST*
D10*
G36*
X94378500Y-80918000D02*
G01*
X94378500Y-81418000D01*
X94978500Y-81418000D01*
X94978500Y-80918000D01*
X94378500Y-80918000D01*
G37*
G36*
X81134000Y-89044500D02*
G01*
X80634000Y-89044500D01*
X80634000Y-89644500D01*
X81134000Y-89644500D01*
X81134000Y-89044500D01*
G37*
G04 #@! TA.AperFunction,ComponentPad*
G36*
G01*
X75210121Y-79933702D02*
X75210121Y-79933702D01*
G75*
G02*
X75874584Y-79691857I453154J-211309D01*
G01*
X75874584Y-79691857D01*
G75*
G02*
X76116429Y-80356320I-211309J-453154D01*
G01*
X76116429Y-80356320D01*
G75*
G02*
X75451966Y-80598165I-453154J211309D01*
G01*
X75451966Y-80598165D01*
G75*
G02*
X75210121Y-79933702I211309J453154D01*
G01*
G37*
G04 #@! TD.AperFunction*
G04 #@! TA.AperFunction,ComponentPad*
G36*
G01*
X74059110Y-79396977D02*
X74059110Y-79396977D01*
G75*
G02*
X74723573Y-79155132I453154J-211309D01*
G01*
X74723573Y-79155132D01*
G75*
G02*
X74965418Y-79819595I-211309J-453154D01*
G01*
X74965418Y-79819595D01*
G75*
G02*
X74300955Y-80061440I-453154J211309D01*
G01*
X74300955Y-80061440D01*
G75*
G02*
X74059110Y-79396977I211309J453154D01*
G01*
G37*
G04 #@! TD.AperFunction*
G04 #@! TA.AperFunction,ComponentPad*
G36*
G01*
X75746846Y-78782691D02*
X75746846Y-78782691D01*
G75*
G02*
X76411309Y-78540846I453154J-211309D01*
G01*
X76411309Y-78540846D01*
G75*
G02*
X76653154Y-79205309I-211309J-453154D01*
G01*
X76653154Y-79205309D01*
G75*
G02*
X75988691Y-79447154I-453154J211309D01*
G01*
X75988691Y-79447154D01*
G75*
G02*
X75746846Y-78782691I211309J453154D01*
G01*
G37*
G04 #@! TD.AperFunction*
G04 #@! TA.AperFunction,ComponentPad*
G36*
G01*
X74595835Y-78245966D02*
X74595835Y-78245966D01*
G75*
G02*
X75260298Y-78004121I453154J-211309D01*
G01*
X75260298Y-78004121D01*
G75*
G02*
X75502143Y-78668584I-211309J-453154D01*
G01*
X75502143Y-78668584D01*
G75*
G02*
X74837680Y-78910429I-453154J211309D01*
G01*
X74837680Y-78910429D01*
G75*
G02*
X74595835Y-78245966I211309J453154D01*
G01*
G37*
G04 #@! TD.AperFunction*
G04 #@! TA.AperFunction,ComponentPad*
G36*
G01*
X76283572Y-77631680D02*
X76283572Y-77631680D01*
G75*
G02*
X76948035Y-77389835I453154J-211309D01*
G01*
X76948035Y-77389835D01*
G75*
G02*
X77189880Y-78054298I-211309J-453154D01*
G01*
X77189880Y-78054298D01*
G75*
G02*
X76525417Y-78296143I-453154J211309D01*
G01*
X76525417Y-78296143D01*
G75*
G02*
X76283572Y-77631680I211309J453154D01*
G01*
G37*
G04 #@! TD.AperFunction*
G04 #@! TA.AperFunction,ComponentPad*
G36*
G01*
X75132561Y-77094955D02*
X75132561Y-77094955D01*
G75*
G02*
X75797024Y-76853110I453154J-211309D01*
G01*
X75797024Y-76853110D01*
G75*
G02*
X76038869Y-77517573I-211309J-453154D01*
G01*
X76038869Y-77517573D01*
G75*
G02*
X75374406Y-77759418I-453154J211309D01*
G01*
X75374406Y-77759418D01*
G75*
G02*
X75132561Y-77094955I211309J453154D01*
G01*
G37*
G04 #@! TD.AperFunction*
G04 #@! TA.AperFunction,ComponentPad*
G36*
G01*
X76820297Y-76480669D02*
X76820297Y-76480669D01*
G75*
G02*
X77484760Y-76238824I453154J-211309D01*
G01*
X77484760Y-76238824D01*
G75*
G02*
X77726605Y-76903287I-211309J-453154D01*
G01*
X77726605Y-76903287D01*
G75*
G02*
X77062142Y-77145132I-453154J211309D01*
G01*
X77062142Y-77145132D01*
G75*
G02*
X76820297Y-76480669I211309J453154D01*
G01*
G37*
G04 #@! TD.AperFunction*
G04 #@! TA.AperFunction,ComponentPad*
G36*
G01*
X75669286Y-75943944D02*
X75669286Y-75943944D01*
G75*
G02*
X76333749Y-75702099I453154J-211309D01*
G01*
X76333749Y-75702099D01*
G75*
G02*
X76575594Y-76366562I-211309J-453154D01*
G01*
X76575594Y-76366562D01*
G75*
G02*
X75911131Y-76608407I-453154J211309D01*
G01*
X75911131Y-76608407D01*
G75*
G02*
X75669286Y-75943944I211309J453154D01*
G01*
G37*
G04 #@! TD.AperFunction*
G04 #@! TA.AperFunction,ComponentPad*
G36*
G01*
X77357022Y-75329658D02*
X77357022Y-75329658D01*
G75*
G02*
X78021485Y-75087813I453154J-211309D01*
G01*
X78021485Y-75087813D01*
G75*
G02*
X78263330Y-75752276I-211309J-453154D01*
G01*
X78263330Y-75752276D01*
G75*
G02*
X77598867Y-75994121I-453154J211309D01*
G01*
X77598867Y-75994121D01*
G75*
G02*
X77357022Y-75329658I211309J453154D01*
G01*
G37*
G04 #@! TD.AperFunction*
G04 #@! TA.AperFunction,ComponentPad*
D11*
G36*
X75994702Y-75246087D02*
G01*
X76417320Y-74339779D01*
X77323628Y-74762397D01*
X76901010Y-75668705D01*
X75994702Y-75246087D01*
G37*
G04 #@! TD.AperFunction*
G04 #@! TA.AperFunction,SMDPad,CuDef*
G36*
G01*
X89363573Y-88320824D02*
X90035324Y-87649073D01*
G75*
G02*
X90388878Y-87649073I176777J-176777D01*
G01*
X90742431Y-88002626D01*
G75*
G02*
X90742431Y-88356180I-176777J-176777D01*
G01*
X90070680Y-89027931D01*
G75*
G02*
X89717126Y-89027931I-176777J176777D01*
G01*
X89363573Y-88674378D01*
G75*
G02*
X89363573Y-88320824I176777J176777D01*
G01*
G37*
G04 #@! TD.AperFunction*
G04 #@! TA.AperFunction,SMDPad,CuDef*
G36*
G01*
X88020071Y-86977322D02*
X88691822Y-86305571D01*
G75*
G02*
X89045376Y-86305571I176777J-176777D01*
G01*
X89398929Y-86659124D01*
G75*
G02*
X89398929Y-87012678I-176777J-176777D01*
G01*
X88727178Y-87684429D01*
G75*
G02*
X88373624Y-87684429I-176777J176777D01*
G01*
X88020071Y-87330876D01*
G75*
G02*
X88020071Y-86977322I176777J176777D01*
G01*
G37*
G04 #@! TD.AperFunction*
G04 #@! TA.AperFunction,SMDPad,CuDef*
G36*
G01*
X93172178Y-70529427D02*
X92500427Y-71201178D01*
G75*
G02*
X92146873Y-71201178I-176777J176777D01*
G01*
X91793320Y-70847625D01*
G75*
G02*
X91793320Y-70494071I176777J176777D01*
G01*
X92465071Y-69822320D01*
G75*
G02*
X92818625Y-69822320I176777J-176777D01*
G01*
X93172178Y-70175873D01*
G75*
G02*
X93172178Y-70529427I-176777J-176777D01*
G01*
G37*
G04 #@! TD.AperFunction*
G04 #@! TA.AperFunction,SMDPad,CuDef*
G36*
G01*
X94515680Y-71872929D02*
X93843929Y-72544680D01*
G75*
G02*
X93490375Y-72544680I-176777J176777D01*
G01*
X93136822Y-72191127D01*
G75*
G02*
X93136822Y-71837573I176777J176777D01*
G01*
X93808573Y-71165822D01*
G75*
G02*
X94162127Y-71165822I176777J-176777D01*
G01*
X94515680Y-71519375D01*
G75*
G02*
X94515680Y-71872929I-176777J-176777D01*
G01*
G37*
G04 #@! TD.AperFunction*
G04 #@! TA.AperFunction,SMDPad,CuDef*
D12*
G36*
X108474703Y-52942788D02*
G01*
X108953531Y-54258358D01*
X107450023Y-54805590D01*
X106971195Y-53490020D01*
X108474703Y-52942788D01*
G37*
G04 #@! TD.AperFunction*
G04 #@! TA.AperFunction,SMDPad,CuDef*
G36*
X101708916Y-55405333D02*
G01*
X102187744Y-56720903D01*
X100684236Y-57268135D01*
X100205408Y-55952565D01*
X101708916Y-55405333D01*
G37*
G04 #@! TD.AperFunction*
G04 #@! TA.AperFunction,SMDPad,CuDef*
G36*
X109500764Y-55761865D02*
G01*
X109979592Y-57077435D01*
X108476084Y-57624667D01*
X107997256Y-56309097D01*
X109500764Y-55761865D01*
G37*
G04 #@! TD.AperFunction*
G04 #@! TA.AperFunction,SMDPad,CuDef*
G36*
X102734977Y-58224410D02*
G01*
X103213805Y-59539980D01*
X101710297Y-60087212D01*
X101231469Y-58771642D01*
X102734977Y-58224410D01*
G37*
G04 #@! TD.AperFunction*
D13*
X89217500Y-120078500D03*
D14*
X89217500Y-64198500D03*
G04 #@! TA.AperFunction,SMDPad,CuDef*
G36*
G01*
X75506708Y-86378708D02*
X75506708Y-87478708D01*
G75*
G02*
X75256708Y-87728708I-250000J0D01*
G01*
X73156708Y-87728708D01*
G75*
G02*
X72906708Y-87478708I0J250000D01*
G01*
X72906708Y-86378708D01*
G75*
G02*
X73156708Y-86128708I250000J0D01*
G01*
X75256708Y-86128708D01*
G75*
G02*
X75506708Y-86378708I0J-250000D01*
G01*
G37*
G04 #@! TD.AperFunction*
G04 #@! TA.AperFunction,SMDPad,CuDef*
G36*
G01*
X79106708Y-86378708D02*
X79106708Y-87478708D01*
G75*
G02*
X78856708Y-87728708I-250000J0D01*
G01*
X76756708Y-87728708D01*
G75*
G02*
X76506708Y-87478708I0J250000D01*
G01*
X76506708Y-86378708D01*
G75*
G02*
X76756708Y-86128708I250000J0D01*
G01*
X78856708Y-86128708D01*
G75*
G02*
X79106708Y-86378708I0J-250000D01*
G01*
G37*
G04 #@! TD.AperFunction*
D15*
X95504000Y-128460500D03*
X95504000Y-125920500D03*
X95504000Y-123380500D03*
X95504000Y-120840500D03*
D16*
X95504000Y-118300500D03*
D17*
X117443000Y-62769500D03*
X115443000Y-62769500D03*
X117443000Y-60769500D03*
D18*
X115443000Y-60769500D03*
G04 #@! TA.AperFunction,SMDPad,CuDef*
G36*
G01*
X83093356Y-72677958D02*
X82456958Y-73314356D01*
G75*
G02*
X82103406Y-73314356I-176776J176776D01*
G01*
X81732174Y-72943124D01*
G75*
G02*
X81732174Y-72589572I176776J176776D01*
G01*
X82368572Y-71953174D01*
G75*
G02*
X82722124Y-71953174I176776J-176776D01*
G01*
X83093356Y-72324406D01*
G75*
G02*
X83093356Y-72677958I-176776J-176776D01*
G01*
G37*
G04 #@! TD.AperFunction*
G04 #@! TA.AperFunction,SMDPad,CuDef*
G36*
G01*
X84383826Y-73968428D02*
X83747428Y-74604826D01*
G75*
G02*
X83393876Y-74604826I-176776J176776D01*
G01*
X83022644Y-74233594D01*
G75*
G02*
X83022644Y-73880042I176776J176776D01*
G01*
X83659042Y-73243644D01*
G75*
G02*
X84012594Y-73243644I176776J-176776D01*
G01*
X84383826Y-73614876D01*
G75*
G02*
X84383826Y-73968428I-176776J-176776D01*
G01*
G37*
G04 #@! TD.AperFunction*
G04 #@! TA.AperFunction,ComponentPad*
G36*
G01*
X84502879Y-62259043D02*
X84502879Y-62259043D01*
G75*
G02*
X85700386Y-62363812I546369J-651138D01*
G01*
X85700386Y-62363812D01*
G75*
G02*
X85595617Y-63561319I-651138J-546369D01*
G01*
X85595617Y-63561319D01*
G75*
G02*
X84398110Y-63456550I-546369J651138D01*
G01*
X84398110Y-63456550D01*
G75*
G02*
X84502879Y-62259043I651138J546369D01*
G01*
G37*
G04 #@! TD.AperFunction*
G04 #@! TA.AperFunction,ComponentPad*
G36*
G01*
X86448631Y-60626362D02*
X86448631Y-60626362D01*
G75*
G02*
X87646138Y-60731131I546369J-651138D01*
G01*
X87646138Y-60731131D01*
G75*
G02*
X87541369Y-61928638I-651138J-546369D01*
G01*
X87541369Y-61928638D01*
G75*
G02*
X86343862Y-61823869I-546369J651138D01*
G01*
X86343862Y-61823869D01*
G75*
G02*
X86448631Y-60626362I651138J546369D01*
G01*
G37*
G04 #@! TD.AperFunction*
G04 #@! TA.AperFunction,ComponentPad*
G36*
G01*
X88394384Y-58993682D02*
X88394384Y-58993682D01*
G75*
G02*
X89591891Y-59098451I546369J-651138D01*
G01*
X89591891Y-59098451D01*
G75*
G02*
X89487122Y-60295958I-651138J-546369D01*
G01*
X89487122Y-60295958D01*
G75*
G02*
X88289615Y-60191189I-546369J651138D01*
G01*
X88289615Y-60191189D01*
G75*
G02*
X88394384Y-58993682I651138J546369D01*
G01*
G37*
G04 #@! TD.AperFunction*
G04 #@! TA.AperFunction,ComponentPad*
G36*
G01*
X90340137Y-57361001D02*
X90340137Y-57361001D01*
G75*
G02*
X91537644Y-57465770I546369J-651138D01*
G01*
X91537644Y-57465770D01*
G75*
G02*
X91432875Y-58663277I-651138J-546369D01*
G01*
X91432875Y-58663277D01*
G75*
G02*
X90235368Y-58558508I-546369J651138D01*
G01*
X90235368Y-58558508D01*
G75*
G02*
X90340137Y-57361001I651138J546369D01*
G01*
G37*
G04 #@! TD.AperFunction*
G04 #@! TA.AperFunction,ComponentPad*
G36*
G01*
X92285890Y-55728321D02*
X92285890Y-55728321D01*
G75*
G02*
X93483397Y-55833090I546369J-651138D01*
G01*
X93483397Y-55833090D01*
G75*
G02*
X93378628Y-57030597I-651138J-546369D01*
G01*
X93378628Y-57030597D01*
G75*
G02*
X92181121Y-56925828I-546369J651138D01*
G01*
X92181121Y-56925828D01*
G75*
G02*
X92285890Y-55728321I651138J546369D01*
G01*
G37*
G04 #@! TD.AperFunction*
G04 #@! TA.AperFunction,ComponentPad*
D11*
G36*
X93580505Y-54642010D02*
G01*
X94882780Y-53549271D01*
X95975519Y-54851546D01*
X94673244Y-55944285D01*
X93580505Y-54642010D01*
G37*
G04 #@! TD.AperFunction*
D19*
X134763500Y-54102000D03*
D14*
X139763500Y-54102000D03*
D17*
X125379500Y-67786500D03*
X125379500Y-69786500D03*
X123379500Y-67786500D03*
X123379500Y-69786500D03*
X121379500Y-67786500D03*
X121379500Y-69786500D03*
X119379500Y-67786500D03*
X119379500Y-69786500D03*
X117379500Y-67786500D03*
X117379500Y-69786500D03*
X115379500Y-67786500D03*
D18*
X115379500Y-69786500D03*
G04 #@! TA.AperFunction,ComponentPad*
G36*
G01*
X98773187Y-52122417D02*
X98773187Y-52122417D01*
G75*
G02*
X99862643Y-52630439I290717J-798739D01*
G01*
X99862643Y-52630439D01*
G75*
G02*
X99354621Y-53719895I-798739J-290717D01*
G01*
X99354621Y-53719895D01*
G75*
G02*
X98265165Y-53211873I-290717J798739D01*
G01*
X98265165Y-53211873D01*
G75*
G02*
X98773187Y-52122417I798739J290717D01*
G01*
G37*
G04 #@! TD.AperFunction*
G04 #@! TA.AperFunction,ComponentPad*
G36*
G01*
X101160006Y-51253686D02*
X101160006Y-51253686D01*
G75*
G02*
X102249462Y-51761708I290717J-798739D01*
G01*
X102249462Y-51761708D01*
G75*
G02*
X101741440Y-52851164I-798739J-290717D01*
G01*
X101741440Y-52851164D01*
G75*
G02*
X100651984Y-52343142I-290717J798739D01*
G01*
X100651984Y-52343142D01*
G75*
G02*
X101160006Y-51253686I798739J290717D01*
G01*
G37*
G04 #@! TD.AperFunction*
G04 #@! TA.AperFunction,ComponentPad*
G36*
G01*
X103546825Y-50384954D02*
X103546825Y-50384954D01*
G75*
G02*
X104636281Y-50892976I290717J-798739D01*
G01*
X104636281Y-50892976D01*
G75*
G02*
X104128259Y-51982432I-798739J-290717D01*
G01*
X104128259Y-51982432D01*
G75*
G02*
X103038803Y-51474410I-290717J798739D01*
G01*
X103038803Y-51474410D01*
G75*
G02*
X103546825Y-50384954I798739J290717D01*
G01*
G37*
G04 #@! TD.AperFunction*
G04 #@! TA.AperFunction,ComponentPad*
G36*
G01*
X105933644Y-49516223D02*
X105933644Y-49516223D01*
G75*
G02*
X107023100Y-50024245I290717J-798739D01*
G01*
X107023100Y-50024245D01*
G75*
G02*
X106515078Y-51113701I-798739J-290717D01*
G01*
X106515078Y-51113701D01*
G75*
G02*
X105425622Y-50605679I-290717J798739D01*
G01*
X105425622Y-50605679D01*
G75*
G02*
X105933644Y-49516223I798739J290717D01*
G01*
G37*
G04 #@! TD.AperFunction*
G04 #@! TA.AperFunction,ComponentPad*
G36*
G01*
X108320464Y-48647492D02*
X108320464Y-48647492D01*
G75*
G02*
X109409920Y-49155514I290717J-798739D01*
G01*
X109409920Y-49155514D01*
G75*
G02*
X108901898Y-50244970I-798739J-290717D01*
G01*
X108901898Y-50244970D01*
G75*
G02*
X107812442Y-49736948I-290717J798739D01*
G01*
X107812442Y-49736948D01*
G75*
G02*
X108320464Y-48647492I798739J290717D01*
G01*
G37*
G04 #@! TD.AperFunction*
G04 #@! TA.AperFunction,ComponentPad*
D11*
G36*
X109908544Y-48069478D02*
G01*
X111506022Y-47488044D01*
X112087456Y-49085522D01*
X110489978Y-49666956D01*
X109908544Y-48069478D01*
G37*
G04 #@! TD.AperFunction*
D20*
X153162000Y-65389500D03*
G04 #@! TA.AperFunction,ComponentPad*
G36*
G01*
X153912000Y-67889500D02*
X153912000Y-68889500D01*
G75*
G02*
X153662000Y-69139500I-250000J0D01*
G01*
X152662000Y-69139500D01*
G75*
G02*
X152412000Y-68889500I0J250000D01*
G01*
X152412000Y-67889500D01*
G75*
G02*
X152662000Y-67639500I250000J0D01*
G01*
X153662000Y-67639500D01*
G75*
G02*
X153912000Y-67889500I0J-250000D01*
G01*
G37*
G04 #@! TD.AperFunction*
G04 #@! TA.AperFunction,SMDPad,CuDef*
G36*
G01*
X90972006Y-78579271D02*
X90326771Y-79224506D01*
G75*
G02*
X89982057Y-79224506I-172357J172357D01*
G01*
X89637342Y-78879791D01*
G75*
G02*
X89637342Y-78535077I172357J172357D01*
G01*
X90282577Y-77889842D01*
G75*
G02*
X90627291Y-77889842I172357J-172357D01*
G01*
X90972006Y-78234557D01*
G75*
G02*
X90972006Y-78579271I-172357J-172357D01*
G01*
G37*
G04 #@! TD.AperFunction*
G04 #@! TA.AperFunction,SMDPad,CuDef*
G36*
G01*
X92297832Y-79905097D02*
X91652597Y-80550332D01*
G75*
G02*
X91307883Y-80550332I-172357J172357D01*
G01*
X90963168Y-80205617D01*
G75*
G02*
X90963168Y-79860903I172357J172357D01*
G01*
X91608403Y-79215668D01*
G75*
G02*
X91953117Y-79215668I172357J-172357D01*
G01*
X92297832Y-79560383D01*
G75*
G02*
X92297832Y-79905097I-172357J-172357D01*
G01*
G37*
G04 #@! TD.AperFunction*
G04 #@! TA.AperFunction,SMDPad,CuDef*
G36*
G01*
X146301750Y-140964500D02*
X146814250Y-140964500D01*
G75*
G02*
X147033000Y-141183250I0J-218750D01*
G01*
X147033000Y-141620750D01*
G75*
G02*
X146814250Y-141839500I-218750J0D01*
G01*
X146301750Y-141839500D01*
G75*
G02*
X146083000Y-141620750I0J218750D01*
G01*
X146083000Y-141183250D01*
G75*
G02*
X146301750Y-140964500I218750J0D01*
G01*
G37*
G04 #@! TD.AperFunction*
G04 #@! TA.AperFunction,SMDPad,CuDef*
G36*
G01*
X146301750Y-139389500D02*
X146814250Y-139389500D01*
G75*
G02*
X147033000Y-139608250I0J-218750D01*
G01*
X147033000Y-140045750D01*
G75*
G02*
X146814250Y-140264500I-218750J0D01*
G01*
X146301750Y-140264500D01*
G75*
G02*
X146083000Y-140045750I0J218750D01*
G01*
X146083000Y-139608250D01*
G75*
G02*
X146301750Y-139389500I218750J0D01*
G01*
G37*
G04 #@! TD.AperFunction*
D21*
X123723400Y-132717400D03*
X123723400Y-139367400D03*
D20*
X125666500Y-51625500D03*
X122666500Y-51625500D03*
X125666500Y-48625500D03*
G04 #@! TA.AperFunction,ComponentPad*
G36*
G01*
X121916500Y-49125500D02*
X121916500Y-48125500D01*
G75*
G02*
X122166500Y-47875500I250000J0D01*
G01*
X123166500Y-47875500D01*
G75*
G02*
X123416500Y-48125500I0J-250000D01*
G01*
X123416500Y-49125500D01*
G75*
G02*
X123166500Y-49375500I-250000J0D01*
G01*
X122166500Y-49375500D01*
G75*
G02*
X121916500Y-49125500I0J250000D01*
G01*
G37*
G04 #@! TD.AperFunction*
D22*
X123723400Y-143170400D03*
G04 #@! TA.AperFunction,SMDPad,CuDef*
D12*
G36*
X121768496Y-142369425D02*
G01*
X121768781Y-142368487D01*
X121769243Y-142367622D01*
X121769864Y-142366864D01*
X121770622Y-142366243D01*
X121771487Y-142365781D01*
X121772425Y-142365496D01*
X121773400Y-142365400D01*
X122368400Y-142365400D01*
X122368400Y-141970400D01*
X122368496Y-141969425D01*
X122368781Y-141968487D01*
X122369243Y-141967622D01*
X122369864Y-141966864D01*
X122370622Y-141966243D01*
X122371487Y-141965781D01*
X122372425Y-141965496D01*
X122373400Y-141965400D01*
X122773400Y-141965400D01*
X122774375Y-141965496D01*
X122775313Y-141965781D01*
X122776178Y-141966243D01*
X122776936Y-141966864D01*
X122777557Y-141967622D01*
X122778019Y-141968487D01*
X122778304Y-141969425D01*
X122778400Y-141970400D01*
X122778400Y-142770400D01*
X122778304Y-142771375D01*
X122778019Y-142772313D01*
X122777557Y-142773178D01*
X122776936Y-142773936D01*
X122776178Y-142774557D01*
X122775313Y-142775019D01*
X122774375Y-142775304D01*
X122773400Y-142775400D01*
X121773400Y-142775400D01*
X121772425Y-142775304D01*
X121771487Y-142775019D01*
X121770622Y-142774557D01*
X121769864Y-142773936D01*
X121769243Y-142773178D01*
X121768781Y-142772313D01*
X121768496Y-142771375D01*
X121768400Y-142770400D01*
X121768400Y-142370400D01*
X121768496Y-142369425D01*
G37*
G04 #@! TD.AperFunction*
G04 #@! TA.AperFunction,SMDPad,CuDef*
G36*
X125678304Y-142771375D02*
G01*
X125678019Y-142772313D01*
X125677557Y-142773178D01*
X125676936Y-142773936D01*
X125676178Y-142774557D01*
X125675313Y-142775019D01*
X125674375Y-142775304D01*
X125673400Y-142775400D01*
X124673400Y-142775400D01*
X124672425Y-142775304D01*
X124671487Y-142775019D01*
X124670622Y-142774557D01*
X124669864Y-142773936D01*
X124669243Y-142773178D01*
X124668781Y-142772313D01*
X124668496Y-142771375D01*
X124668400Y-142770400D01*
X124668400Y-141970400D01*
X124668496Y-141969425D01*
X124668781Y-141968487D01*
X124669243Y-141967622D01*
X124669864Y-141966864D01*
X124670622Y-141966243D01*
X124671487Y-141965781D01*
X124672425Y-141965496D01*
X124673400Y-141965400D01*
X125073400Y-141965400D01*
X125074375Y-141965496D01*
X125075313Y-141965781D01*
X125076178Y-141966243D01*
X125076936Y-141966864D01*
X125077557Y-141967622D01*
X125078019Y-141968487D01*
X125078304Y-141969425D01*
X125078400Y-141970400D01*
X125078400Y-142365400D01*
X125673400Y-142365400D01*
X125674375Y-142365496D01*
X125675313Y-142365781D01*
X125676178Y-142366243D01*
X125676936Y-142366864D01*
X125677557Y-142367622D01*
X125678019Y-142368487D01*
X125678304Y-142369425D01*
X125678400Y-142370400D01*
X125678400Y-142770400D01*
X125678304Y-142771375D01*
G37*
G04 #@! TD.AperFunction*
D23*
X122273400Y-143720400D03*
X125173400Y-143720400D03*
D24*
X122123400Y-145295400D03*
X122123400Y-144795400D03*
X125323400Y-144795400D03*
X125323400Y-145295400D03*
D25*
X123723400Y-146020400D03*
G04 #@! TA.AperFunction,SMDPad,CuDef*
D12*
G36*
X121768496Y-145669425D02*
G01*
X121768781Y-145668487D01*
X121769243Y-145667622D01*
X121769864Y-145666864D01*
X121770622Y-145666243D01*
X121771487Y-145665781D01*
X121772425Y-145665496D01*
X121773400Y-145665400D01*
X122773400Y-145665400D01*
X122774375Y-145665496D01*
X122775313Y-145665781D01*
X122776178Y-145666243D01*
X122776936Y-145666864D01*
X122777557Y-145667622D01*
X122778019Y-145668487D01*
X122778304Y-145669425D01*
X122778400Y-145670400D01*
X122778400Y-146370400D01*
X122778304Y-146371375D01*
X122778019Y-146372313D01*
X122777557Y-146373178D01*
X122776936Y-146373936D01*
X122776178Y-146374557D01*
X122775313Y-146375019D01*
X122774375Y-146375304D01*
X122773400Y-146375400D01*
X122373400Y-146375400D01*
X122372425Y-146375304D01*
X122371487Y-146375019D01*
X122370622Y-146374557D01*
X122369864Y-146373936D01*
X122369243Y-146373178D01*
X122368781Y-146372313D01*
X122368496Y-146371375D01*
X122368400Y-146370400D01*
X122368400Y-146025400D01*
X121773400Y-146025400D01*
X121772425Y-146025304D01*
X121771487Y-146025019D01*
X121770622Y-146024557D01*
X121769864Y-146023936D01*
X121769243Y-146023178D01*
X121768781Y-146022313D01*
X121768496Y-146021375D01*
X121768400Y-146020400D01*
X121768400Y-145670400D01*
X121768496Y-145669425D01*
G37*
G04 #@! TD.AperFunction*
G04 #@! TA.AperFunction,SMDPad,CuDef*
G36*
X125678304Y-146021375D02*
G01*
X125678019Y-146022313D01*
X125677557Y-146023178D01*
X125676936Y-146023936D01*
X125676178Y-146024557D01*
X125675313Y-146025019D01*
X125674375Y-146025304D01*
X125673400Y-146025400D01*
X125078400Y-146025400D01*
X125078400Y-146370400D01*
X125078304Y-146371375D01*
X125078019Y-146372313D01*
X125077557Y-146373178D01*
X125076936Y-146373936D01*
X125076178Y-146374557D01*
X125075313Y-146375019D01*
X125074375Y-146375304D01*
X125073400Y-146375400D01*
X124673400Y-146375400D01*
X124672425Y-146375304D01*
X124671487Y-146375019D01*
X124670622Y-146374557D01*
X124669864Y-146373936D01*
X124669243Y-146373178D01*
X124668781Y-146372313D01*
X124668496Y-146371375D01*
X124668400Y-146370400D01*
X124668400Y-145670400D01*
X124668496Y-145669425D01*
X124668781Y-145668487D01*
X124669243Y-145667622D01*
X124669864Y-145666864D01*
X124670622Y-145666243D01*
X124671487Y-145665781D01*
X124672425Y-145665496D01*
X124673400Y-145665400D01*
X125673400Y-145665400D01*
X125674375Y-145665496D01*
X125675313Y-145665781D01*
X125676178Y-145666243D01*
X125676936Y-145666864D01*
X125677557Y-145667622D01*
X125678019Y-145668487D01*
X125678304Y-145669425D01*
X125678400Y-145670400D01*
X125678400Y-146020400D01*
X125678304Y-146021375D01*
G37*
G04 #@! TD.AperFunction*
D26*
X124248400Y-146020400D03*
X123198400Y-146020400D03*
D27*
X148910000Y-139192000D03*
X147960000Y-139192000D03*
X149860000Y-139192000D03*
X149860000Y-141892000D03*
X148910000Y-141892000D03*
X147960000Y-141892000D03*
D28*
X145304048Y-57261183D03*
X146081865Y-56483365D03*
X146859683Y-55705548D03*
X146081865Y-58039000D03*
X146859683Y-57261183D03*
X147637500Y-56483365D03*
X146859683Y-58816817D03*
X147637500Y-58039000D03*
X148415317Y-57261183D03*
X147637500Y-59594635D03*
X148415317Y-58816817D03*
X149193135Y-58039000D03*
X149970952Y-58816817D03*
X149193135Y-59594635D03*
X148415317Y-60372452D03*
G04 #@! TA.AperFunction,SMDPad,CuDef*
D12*
G36*
X148203185Y-61008848D02*
G01*
X144667652Y-57473315D01*
X147071815Y-55069152D01*
X150607348Y-58604685D01*
X148203185Y-61008848D01*
G37*
G04 #@! TD.AperFunction*
G04 #@! TA.AperFunction,SMDPad,CuDef*
G36*
X147778921Y-54998441D02*
G01*
X147460723Y-54680243D01*
X148203185Y-53937781D01*
X148521383Y-54255979D01*
X147778921Y-54998441D01*
G37*
G04 #@! TD.AperFunction*
G04 #@! TA.AperFunction,SMDPad,CuDef*
G36*
X148238541Y-55458060D02*
G01*
X147920343Y-55139862D01*
X148662805Y-54397400D01*
X148981003Y-54715598D01*
X148238541Y-55458060D01*
G37*
G04 #@! TD.AperFunction*
G04 #@! TA.AperFunction,SMDPad,CuDef*
G36*
X148698160Y-55917680D02*
G01*
X148379962Y-55599482D01*
X149122424Y-54857020D01*
X149440622Y-55175218D01*
X148698160Y-55917680D01*
G37*
G04 #@! TD.AperFunction*
G04 #@! TA.AperFunction,SMDPad,CuDef*
G36*
X149157780Y-56377299D02*
G01*
X148839582Y-56059101D01*
X149582044Y-55316639D01*
X149900242Y-55634837D01*
X149157780Y-56377299D01*
G37*
G04 #@! TD.AperFunction*
G04 #@! TA.AperFunction,SMDPad,CuDef*
G36*
X149617399Y-56836918D02*
G01*
X149299201Y-56518720D01*
X150041663Y-55776258D01*
X150359861Y-56094456D01*
X149617399Y-56836918D01*
G37*
G04 #@! TD.AperFunction*
G04 #@! TA.AperFunction,SMDPad,CuDef*
G36*
X150077018Y-57296538D02*
G01*
X149758820Y-56978340D01*
X150501282Y-56235878D01*
X150819480Y-56554076D01*
X150077018Y-57296538D01*
G37*
G04 #@! TD.AperFunction*
G04 #@! TA.AperFunction,SMDPad,CuDef*
G36*
X150536638Y-57756157D02*
G01*
X150218440Y-57437959D01*
X150960902Y-56695497D01*
X151279100Y-57013695D01*
X150536638Y-57756157D01*
G37*
G04 #@! TD.AperFunction*
G04 #@! TA.AperFunction,SMDPad,CuDef*
G36*
X150996257Y-58215777D02*
G01*
X150678059Y-57897579D01*
X151420521Y-57155117D01*
X151738719Y-57473315D01*
X150996257Y-58215777D01*
G37*
G04 #@! TD.AperFunction*
G04 #@! TA.AperFunction,SMDPad,CuDef*
G36*
X147071815Y-62140219D02*
G01*
X146753617Y-61822021D01*
X147496079Y-61079559D01*
X147814277Y-61397757D01*
X147071815Y-62140219D01*
G37*
G04 #@! TD.AperFunction*
G04 #@! TA.AperFunction,SMDPad,CuDef*
G36*
X146612195Y-61680600D02*
G01*
X146293997Y-61362402D01*
X147036459Y-60619940D01*
X147354657Y-60938138D01*
X146612195Y-61680600D01*
G37*
G04 #@! TD.AperFunction*
G04 #@! TA.AperFunction,SMDPad,CuDef*
G36*
X146152576Y-61220980D02*
G01*
X145834378Y-60902782D01*
X146576840Y-60160320D01*
X146895038Y-60478518D01*
X146152576Y-61220980D01*
G37*
G04 #@! TD.AperFunction*
G04 #@! TA.AperFunction,SMDPad,CuDef*
G36*
X145692956Y-60761361D02*
G01*
X145374758Y-60443163D01*
X146117220Y-59700701D01*
X146435418Y-60018899D01*
X145692956Y-60761361D01*
G37*
G04 #@! TD.AperFunction*
G04 #@! TA.AperFunction,SMDPad,CuDef*
G36*
X145233337Y-60301742D02*
G01*
X144915139Y-59983544D01*
X145657601Y-59241082D01*
X145975799Y-59559280D01*
X145233337Y-60301742D01*
G37*
G04 #@! TD.AperFunction*
G04 #@! TA.AperFunction,SMDPad,CuDef*
G36*
X144773718Y-59842122D02*
G01*
X144455520Y-59523924D01*
X145197982Y-58781462D01*
X145516180Y-59099660D01*
X144773718Y-59842122D01*
G37*
G04 #@! TD.AperFunction*
G04 #@! TA.AperFunction,SMDPad,CuDef*
G36*
X144314098Y-59382503D02*
G01*
X143995900Y-59064305D01*
X144738362Y-58321843D01*
X145056560Y-58640041D01*
X144314098Y-59382503D01*
G37*
G04 #@! TD.AperFunction*
G04 #@! TA.AperFunction,SMDPad,CuDef*
G36*
X143854479Y-58922883D02*
G01*
X143536281Y-58604685D01*
X144278743Y-57862223D01*
X144596941Y-58180421D01*
X143854479Y-58922883D01*
G37*
G04 #@! TD.AperFunction*
D29*
X103187500Y-140843000D03*
X129222500Y-149796500D03*
X155511500Y-129603500D03*
X149034500Y-129667000D03*
X161480500Y-129413000D03*
X115316000Y-127952500D03*
D30*
X121240500Y-58063500D03*
X120440500Y-58063500D03*
X120440500Y-56363500D03*
X121240500Y-56363500D03*
G04 #@! TA.AperFunction,SMDPad,CuDef*
G36*
G01*
X121457500Y-147955500D02*
X121112500Y-147955500D01*
G75*
G02*
X120965000Y-147808000I0J147500D01*
G01*
X120965000Y-147513000D01*
G75*
G02*
X121112500Y-147365500I147500J0D01*
G01*
X121457500Y-147365500D01*
G75*
G02*
X121605000Y-147513000I0J-147500D01*
G01*
X121605000Y-147808000D01*
G75*
G02*
X121457500Y-147955500I-147500J0D01*
G01*
G37*
G04 #@! TD.AperFunction*
G04 #@! TA.AperFunction,SMDPad,CuDef*
G36*
G01*
X121457500Y-148925500D02*
X121112500Y-148925500D01*
G75*
G02*
X120965000Y-148778000I0J147500D01*
G01*
X120965000Y-148483000D01*
G75*
G02*
X121112500Y-148335500I147500J0D01*
G01*
X121457500Y-148335500D01*
G75*
G02*
X121605000Y-148483000I0J-147500D01*
G01*
X121605000Y-148778000D01*
G75*
G02*
X121457500Y-148925500I-147500J0D01*
G01*
G37*
G04 #@! TD.AperFunction*
G04 #@! TA.AperFunction,SMDPad,CuDef*
G36*
G01*
X119969500Y-148358500D02*
X120314500Y-148358500D01*
G75*
G02*
X120462000Y-148506000I0J-147500D01*
G01*
X120462000Y-148801000D01*
G75*
G02*
X120314500Y-148948500I-147500J0D01*
G01*
X119969500Y-148948500D01*
G75*
G02*
X119822000Y-148801000I0J147500D01*
G01*
X119822000Y-148506000D01*
G75*
G02*
X119969500Y-148358500I147500J0D01*
G01*
G37*
G04 #@! TD.AperFunction*
G04 #@! TA.AperFunction,SMDPad,CuDef*
G36*
G01*
X119969500Y-147388500D02*
X120314500Y-147388500D01*
G75*
G02*
X120462000Y-147536000I0J-147500D01*
G01*
X120462000Y-147831000D01*
G75*
G02*
X120314500Y-147978500I-147500J0D01*
G01*
X119969500Y-147978500D01*
G75*
G02*
X119822000Y-147831000I0J147500D01*
G01*
X119822000Y-147536000D01*
G75*
G02*
X119969500Y-147388500I147500J0D01*
G01*
G37*
G04 #@! TD.AperFunction*
G04 #@! TA.AperFunction,SMDPad,CuDef*
G36*
G01*
X123906500Y-149120500D02*
X124251500Y-149120500D01*
G75*
G02*
X124399000Y-149268000I0J-147500D01*
G01*
X124399000Y-149563000D01*
G75*
G02*
X124251500Y-149710500I-147500J0D01*
G01*
X123906500Y-149710500D01*
G75*
G02*
X123759000Y-149563000I0J147500D01*
G01*
X123759000Y-149268000D01*
G75*
G02*
X123906500Y-149120500I147500J0D01*
G01*
G37*
G04 #@! TD.AperFunction*
G04 #@! TA.AperFunction,SMDPad,CuDef*
G36*
G01*
X123906500Y-148150500D02*
X124251500Y-148150500D01*
G75*
G02*
X124399000Y-148298000I0J-147500D01*
G01*
X124399000Y-148593000D01*
G75*
G02*
X124251500Y-148740500I-147500J0D01*
G01*
X123906500Y-148740500D01*
G75*
G02*
X123759000Y-148593000I0J147500D01*
G01*
X123759000Y-148298000D01*
G75*
G02*
X123906500Y-148150500I147500J0D01*
G01*
G37*
G04 #@! TD.AperFunction*
G04 #@! TA.AperFunction,SMDPad,CuDef*
G36*
G01*
X124922500Y-148018000D02*
X125267500Y-148018000D01*
G75*
G02*
X125415000Y-148165500I0J-147500D01*
G01*
X125415000Y-148460500D01*
G75*
G02*
X125267500Y-148608000I-147500J0D01*
G01*
X124922500Y-148608000D01*
G75*
G02*
X124775000Y-148460500I0J147500D01*
G01*
X124775000Y-148165500D01*
G75*
G02*
X124922500Y-148018000I147500J0D01*
G01*
G37*
G04 #@! TD.AperFunction*
G04 #@! TA.AperFunction,SMDPad,CuDef*
G36*
G01*
X124922500Y-147048000D02*
X125267500Y-147048000D01*
G75*
G02*
X125415000Y-147195500I0J-147500D01*
G01*
X125415000Y-147490500D01*
G75*
G02*
X125267500Y-147638000I-147500J0D01*
G01*
X124922500Y-147638000D01*
G75*
G02*
X124775000Y-147490500I0J147500D01*
G01*
X124775000Y-147195500D01*
G75*
G02*
X124922500Y-147048000I147500J0D01*
G01*
G37*
G04 #@! TD.AperFunction*
G04 #@! TA.AperFunction,SMDPad,CuDef*
G36*
G01*
X126700500Y-146303500D02*
X127045500Y-146303500D01*
G75*
G02*
X127193000Y-146451000I0J-147500D01*
G01*
X127193000Y-146746000D01*
G75*
G02*
X127045500Y-146893500I-147500J0D01*
G01*
X126700500Y-146893500D01*
G75*
G02*
X126553000Y-146746000I0J147500D01*
G01*
X126553000Y-146451000D01*
G75*
G02*
X126700500Y-146303500I147500J0D01*
G01*
G37*
G04 #@! TD.AperFunction*
G04 #@! TA.AperFunction,SMDPad,CuDef*
G36*
G01*
X126700500Y-145333500D02*
X127045500Y-145333500D01*
G75*
G02*
X127193000Y-145481000I0J-147500D01*
G01*
X127193000Y-145776000D01*
G75*
G02*
X127045500Y-145923500I-147500J0D01*
G01*
X126700500Y-145923500D01*
G75*
G02*
X126553000Y-145776000I0J147500D01*
G01*
X126553000Y-145481000D01*
G75*
G02*
X126700500Y-145333500I147500J0D01*
G01*
G37*
G04 #@! TD.AperFunction*
G04 #@! TA.AperFunction,SMDPad,CuDef*
G36*
G01*
X86308250Y-116248000D02*
X85395750Y-116248000D01*
G75*
G02*
X85152000Y-116004250I0J243750D01*
G01*
X85152000Y-115516750D01*
G75*
G02*
X85395750Y-115273000I243750J0D01*
G01*
X86308250Y-115273000D01*
G75*
G02*
X86552000Y-115516750I0J-243750D01*
G01*
X86552000Y-116004250D01*
G75*
G02*
X86308250Y-116248000I-243750J0D01*
G01*
G37*
G04 #@! TD.AperFunction*
G04 #@! TA.AperFunction,SMDPad,CuDef*
G36*
G01*
X86308250Y-118123000D02*
X85395750Y-118123000D01*
G75*
G02*
X85152000Y-117879250I0J243750D01*
G01*
X85152000Y-117391750D01*
G75*
G02*
X85395750Y-117148000I243750J0D01*
G01*
X86308250Y-117148000D01*
G75*
G02*
X86552000Y-117391750I0J-243750D01*
G01*
X86552000Y-117879250D01*
G75*
G02*
X86308250Y-118123000I-243750J0D01*
G01*
G37*
G04 #@! TD.AperFunction*
G04 #@! TA.AperFunction,SMDPad,CuDef*
G36*
G01*
X84905000Y-109422250D02*
X84905000Y-108509750D01*
G75*
G02*
X85148750Y-108266000I243750J0D01*
G01*
X85636250Y-108266000D01*
G75*
G02*
X85880000Y-108509750I0J-243750D01*
G01*
X85880000Y-109422250D01*
G75*
G02*
X85636250Y-109666000I-243750J0D01*
G01*
X85148750Y-109666000D01*
G75*
G02*
X84905000Y-109422250I0J243750D01*
G01*
G37*
G04 #@! TD.AperFunction*
G04 #@! TA.AperFunction,SMDPad,CuDef*
G36*
G01*
X83030000Y-109422250D02*
X83030000Y-108509750D01*
G75*
G02*
X83273750Y-108266000I243750J0D01*
G01*
X83761250Y-108266000D01*
G75*
G02*
X84005000Y-108509750I0J-243750D01*
G01*
X84005000Y-109422250D01*
G75*
G02*
X83761250Y-109666000I-243750J0D01*
G01*
X83273750Y-109666000D01*
G75*
G02*
X83030000Y-109422250I0J243750D01*
G01*
G37*
G04 #@! TD.AperFunction*
G04 #@! TA.AperFunction,SMDPad,CuDef*
G36*
G01*
X82307750Y-109707500D02*
X81395250Y-109707500D01*
G75*
G02*
X81151500Y-109463750I0J243750D01*
G01*
X81151500Y-108976250D01*
G75*
G02*
X81395250Y-108732500I243750J0D01*
G01*
X82307750Y-108732500D01*
G75*
G02*
X82551500Y-108976250I0J-243750D01*
G01*
X82551500Y-109463750D01*
G75*
G02*
X82307750Y-109707500I-243750J0D01*
G01*
G37*
G04 #@! TD.AperFunction*
G04 #@! TA.AperFunction,SMDPad,CuDef*
G36*
G01*
X82307750Y-111582500D02*
X81395250Y-111582500D01*
G75*
G02*
X81151500Y-111338750I0J243750D01*
G01*
X81151500Y-110851250D01*
G75*
G02*
X81395250Y-110607500I243750J0D01*
G01*
X82307750Y-110607500D01*
G75*
G02*
X82551500Y-110851250I0J-243750D01*
G01*
X82551500Y-111338750D01*
G75*
G02*
X82307750Y-111582500I-243750J0D01*
G01*
G37*
G04 #@! TD.AperFunction*
D31*
X141218000Y-144024000D03*
X141218000Y-138424000D03*
G04 #@! TA.AperFunction,SMDPad,CuDef*
D12*
G36*
X95428500Y-81318000D02*
G01*
X95428500Y-81818000D01*
X95427898Y-81818000D01*
X95427898Y-81842534D01*
X95423088Y-81891365D01*
X95413516Y-81939490D01*
X95399272Y-81986445D01*
X95380495Y-82031778D01*
X95357364Y-82075051D01*
X95330104Y-82115850D01*
X95298976Y-82153779D01*
X95264279Y-82188476D01*
X95226350Y-82219604D01*
X95185551Y-82246864D01*
X95142278Y-82269995D01*
X95096945Y-82288772D01*
X95049990Y-82303016D01*
X95001865Y-82312588D01*
X94953034Y-82317398D01*
X94928500Y-82317398D01*
X94928500Y-82318000D01*
X94428500Y-82318000D01*
X94428500Y-82317398D01*
X94403966Y-82317398D01*
X94355135Y-82312588D01*
X94307010Y-82303016D01*
X94260055Y-82288772D01*
X94214722Y-82269995D01*
X94171449Y-82246864D01*
X94130650Y-82219604D01*
X94092721Y-82188476D01*
X94058024Y-82153779D01*
X94026896Y-82115850D01*
X93999636Y-82075051D01*
X93976505Y-82031778D01*
X93957728Y-81986445D01*
X93943484Y-81939490D01*
X93933912Y-81891365D01*
X93929102Y-81842534D01*
X93929102Y-81818000D01*
X93928500Y-81818000D01*
X93928500Y-81318000D01*
X95428500Y-81318000D01*
G37*
G04 #@! TD.AperFunction*
G04 #@! TA.AperFunction,SMDPad,CuDef*
G36*
X93929102Y-80518000D02*
G01*
X93929102Y-80493466D01*
X93933912Y-80444635D01*
X93943484Y-80396510D01*
X93957728Y-80349555D01*
X93976505Y-80304222D01*
X93999636Y-80260949D01*
X94026896Y-80220150D01*
X94058024Y-80182221D01*
X94092721Y-80147524D01*
X94130650Y-80116396D01*
X94171449Y-80089136D01*
X94214722Y-80066005D01*
X94260055Y-80047228D01*
X94307010Y-80032984D01*
X94355135Y-80023412D01*
X94403966Y-80018602D01*
X94428500Y-80018602D01*
X94428500Y-80018000D01*
X94928500Y-80018000D01*
X94928500Y-80018602D01*
X94953034Y-80018602D01*
X95001865Y-80023412D01*
X95049990Y-80032984D01*
X95096945Y-80047228D01*
X95142278Y-80066005D01*
X95185551Y-80089136D01*
X95226350Y-80116396D01*
X95264279Y-80147524D01*
X95298976Y-80182221D01*
X95330104Y-80220150D01*
X95357364Y-80260949D01*
X95380495Y-80304222D01*
X95399272Y-80349555D01*
X95413516Y-80396510D01*
X95423088Y-80444635D01*
X95427898Y-80493466D01*
X95427898Y-80518000D01*
X95428500Y-80518000D01*
X95428500Y-81018000D01*
X93928500Y-81018000D01*
X93928500Y-80518000D01*
X93929102Y-80518000D01*
G37*
G04 #@! TD.AperFunction*
G04 #@! TA.AperFunction,SMDPad,CuDef*
G36*
X80734000Y-90094500D02*
G01*
X80234000Y-90094500D01*
X80234000Y-90093898D01*
X80209466Y-90093898D01*
X80160635Y-90089088D01*
X80112510Y-90079516D01*
X80065555Y-90065272D01*
X80020222Y-90046495D01*
X79976949Y-90023364D01*
X79936150Y-89996104D01*
X79898221Y-89964976D01*
X79863524Y-89930279D01*
X79832396Y-89892350D01*
X79805136Y-89851551D01*
X79782005Y-89808278D01*
X79763228Y-89762945D01*
X79748984Y-89715990D01*
X79739412Y-89667865D01*
X79734602Y-89619034D01*
X79734602Y-89594500D01*
X79734000Y-89594500D01*
X79734000Y-89094500D01*
X79734602Y-89094500D01*
X79734602Y-89069966D01*
X79739412Y-89021135D01*
X79748984Y-88973010D01*
X79763228Y-88926055D01*
X79782005Y-88880722D01*
X79805136Y-88837449D01*
X79832396Y-88796650D01*
X79863524Y-88758721D01*
X79898221Y-88724024D01*
X79936150Y-88692896D01*
X79976949Y-88665636D01*
X80020222Y-88642505D01*
X80065555Y-88623728D01*
X80112510Y-88609484D01*
X80160635Y-88599912D01*
X80209466Y-88595102D01*
X80234000Y-88595102D01*
X80234000Y-88594500D01*
X80734000Y-88594500D01*
X80734000Y-90094500D01*
G37*
G04 #@! TD.AperFunction*
G04 #@! TA.AperFunction,SMDPad,CuDef*
G36*
X81534000Y-88595102D02*
G01*
X81558534Y-88595102D01*
X81607365Y-88599912D01*
X81655490Y-88609484D01*
X81702445Y-88623728D01*
X81747778Y-88642505D01*
X81791051Y-88665636D01*
X81831850Y-88692896D01*
X81869779Y-88724024D01*
X81904476Y-88758721D01*
X81935604Y-88796650D01*
X81962864Y-88837449D01*
X81985995Y-88880722D01*
X82004772Y-88926055D01*
X82019016Y-88973010D01*
X82028588Y-89021135D01*
X82033398Y-89069966D01*
X82033398Y-89094500D01*
X82034000Y-89094500D01*
X82034000Y-89594500D01*
X82033398Y-89594500D01*
X82033398Y-89619034D01*
X82028588Y-89667865D01*
X82019016Y-89715990D01*
X82004772Y-89762945D01*
X81985995Y-89808278D01*
X81962864Y-89851551D01*
X81935604Y-89892350D01*
X81904476Y-89930279D01*
X81869779Y-89964976D01*
X81831850Y-89996104D01*
X81791051Y-90023364D01*
X81747778Y-90046495D01*
X81702445Y-90065272D01*
X81655490Y-90079516D01*
X81607365Y-90089088D01*
X81558534Y-90093898D01*
X81534000Y-90093898D01*
X81534000Y-90094500D01*
X81034000Y-90094500D01*
X81034000Y-88594500D01*
X81534000Y-88594500D01*
X81534000Y-88595102D01*
G37*
G04 #@! TD.AperFunction*
D20*
X109793257Y-144244423D03*
G04 #@! TA.AperFunction,ComponentPad*
G36*
G01*
X109870653Y-146853352D02*
X109611834Y-147819277D01*
G75*
G02*
X109305648Y-147996053I-241481J64705D01*
G01*
X108339723Y-147737234D01*
G75*
G02*
X108162947Y-147431048I64705J241481D01*
G01*
X108421766Y-146465123D01*
G75*
G02*
X108727952Y-146288347I241481J-64705D01*
G01*
X109693877Y-146547166D01*
G75*
G02*
X109870653Y-146853352I-64705J-241481D01*
G01*
G37*
G04 #@! TD.AperFunction*
X91666563Y-133871267D03*
G04 #@! TA.AperFunction,ComponentPad*
G36*
G01*
X90634127Y-136268469D02*
X89991339Y-137034513D01*
G75*
G02*
X89639131Y-137065327I-191511J160697D01*
G01*
X88873087Y-136422539D01*
G75*
G02*
X88842273Y-136070331I160697J191511D01*
G01*
X89485061Y-135304287D01*
G75*
G02*
X89837269Y-135273473I191511J-160697D01*
G01*
X90603313Y-135916261D01*
G75*
G02*
X90634127Y-136268469I-160697J-191511D01*
G01*
G37*
G04 #@! TD.AperFunction*
X77012478Y-112689740D03*
G04 #@! TA.AperFunction,ComponentPad*
G36*
G01*
X74919761Y-114249559D02*
X73980069Y-114591579D01*
G75*
G02*
X73659641Y-114442161I-85505J234923D01*
G01*
X73317621Y-113502469D01*
G75*
G02*
X73467039Y-113182041I234923J85505D01*
G01*
X74406731Y-112840021D01*
G75*
G02*
X74727159Y-112989439I85505J-234923D01*
G01*
X75069179Y-113929131D01*
G75*
G02*
X74919761Y-114249559I-234923J-85505D01*
G01*
G37*
G04 #@! TD.AperFunction*
X85051333Y-127637037D03*
G04 #@! TA.AperFunction,ComponentPad*
G36*
G01*
X83618313Y-129818539D02*
X82852269Y-130461327D01*
G75*
G02*
X82500061Y-130430513I-160697J191511D01*
G01*
X81857273Y-129664469D01*
G75*
G02*
X81888087Y-129312261I191511J160697D01*
G01*
X82654131Y-128669473D01*
G75*
G02*
X83006339Y-128700287I160697J-191511D01*
G01*
X83649127Y-129466331D01*
G75*
G02*
X83618313Y-129818539I-191511J-160697D01*
G01*
G37*
G04 #@! TD.AperFunction*
D18*
X124714000Y-60896500D03*
D17*
X126714000Y-60896500D03*
X124714000Y-62896500D03*
X126714000Y-62896500D03*
D20*
X80525276Y-120369200D03*
G04 #@! TA.AperFunction,ComponentPad*
G36*
G01*
X78735213Y-122268719D02*
X77869187Y-122768719D01*
G75*
G02*
X77527681Y-122677213I-125000J216506D01*
G01*
X77027681Y-121811187D01*
G75*
G02*
X77119187Y-121469681I216506J125000D01*
G01*
X77985213Y-120969681D01*
G75*
G02*
X78326719Y-121061187I125000J-216506D01*
G01*
X78826719Y-121927213D01*
G75*
G02*
X78735213Y-122268719I-216506J-125000D01*
G01*
G37*
G04 #@! TD.AperFunction*
D32*
X115640000Y-53677500D03*
X116840000Y-48577500D03*
X98863000Y-135552500D03*
X97663000Y-140652500D03*
G04 #@! TA.AperFunction,SMDPad,CuDef*
G36*
G01*
X81462884Y-66513125D02*
X80876340Y-67212140D01*
G75*
G02*
X80532938Y-67242184I-186723J156679D01*
G01*
X80159492Y-66928825D01*
G75*
G02*
X80129448Y-66585423I156679J186723D01*
G01*
X80715992Y-65886408D01*
G75*
G02*
X81059394Y-65856364I186723J-156679D01*
G01*
X81432840Y-66169723D01*
G75*
G02*
X81462884Y-66513125I-156679J-186723D01*
G01*
G37*
G04 #@! TD.AperFunction*
G04 #@! TA.AperFunction,SMDPad,CuDef*
G36*
G01*
X82899218Y-67718351D02*
X82312674Y-68417366D01*
G75*
G02*
X81969272Y-68447410I-186723J156679D01*
G01*
X81595826Y-68134051D01*
G75*
G02*
X81565782Y-67790649I156679J186723D01*
G01*
X82152326Y-67091634D01*
G75*
G02*
X82495728Y-67061590I186723J-156679D01*
G01*
X82869174Y-67374949D01*
G75*
G02*
X82899218Y-67718351I-156679J-186723D01*
G01*
G37*
G04 #@! TD.AperFunction*
G04 #@! TA.AperFunction,SMDPad,CuDef*
G36*
G01*
X79782031Y-68930380D02*
X79258642Y-69677856D01*
G75*
G02*
X78919165Y-69737715I-199668J139809D01*
G01*
X78519828Y-69458097D01*
G75*
G02*
X78459969Y-69118620I139809J199668D01*
G01*
X78983358Y-68371144D01*
G75*
G02*
X79322835Y-68311285I199668J-139809D01*
G01*
X79722172Y-68590903D01*
G75*
G02*
X79782031Y-68930380I-139809J-199668D01*
G01*
G37*
G04 #@! TD.AperFunction*
G04 #@! TA.AperFunction,SMDPad,CuDef*
G36*
G01*
X81317941Y-70005836D02*
X80794552Y-70753312D01*
G75*
G02*
X80455075Y-70813171I-199668J139809D01*
G01*
X80055738Y-70533553D01*
G75*
G02*
X79995879Y-70194076I139809J199668D01*
G01*
X80519268Y-69446600D01*
G75*
G02*
X80858745Y-69386741I199668J-139809D01*
G01*
X81258082Y-69666359D01*
G75*
G02*
X81317941Y-70005836I-139809J-199668D01*
G01*
G37*
G04 #@! TD.AperFunction*
D33*
X82804000Y-112689000D03*
X82804000Y-115189000D03*
G04 #@! TA.AperFunction,SMDPad,CuDef*
G36*
G01*
X116964750Y-134144500D02*
X117477250Y-134144500D01*
G75*
G02*
X117696000Y-134363250I0J-218750D01*
G01*
X117696000Y-134800750D01*
G75*
G02*
X117477250Y-135019500I-218750J0D01*
G01*
X116964750Y-135019500D01*
G75*
G02*
X116746000Y-134800750I0J218750D01*
G01*
X116746000Y-134363250D01*
G75*
G02*
X116964750Y-134144500I218750J0D01*
G01*
G37*
G04 #@! TD.AperFunction*
G04 #@! TA.AperFunction,SMDPad,CuDef*
G36*
G01*
X116964750Y-132569500D02*
X117477250Y-132569500D01*
G75*
G02*
X117696000Y-132788250I0J-218750D01*
G01*
X117696000Y-133225750D01*
G75*
G02*
X117477250Y-133444500I-218750J0D01*
G01*
X116964750Y-133444500D01*
G75*
G02*
X116746000Y-133225750I0J218750D01*
G01*
X116746000Y-132788250D01*
G75*
G02*
X116964750Y-132569500I218750J0D01*
G01*
G37*
G04 #@! TD.AperFunction*
G04 #@! TA.AperFunction,SMDPad,CuDef*
G36*
G01*
X130236250Y-133890500D02*
X130748750Y-133890500D01*
G75*
G02*
X130967500Y-134109250I0J-218750D01*
G01*
X130967500Y-134546750D01*
G75*
G02*
X130748750Y-134765500I-218750J0D01*
G01*
X130236250Y-134765500D01*
G75*
G02*
X130017500Y-134546750I0J218750D01*
G01*
X130017500Y-134109250D01*
G75*
G02*
X130236250Y-133890500I218750J0D01*
G01*
G37*
G04 #@! TD.AperFunction*
G04 #@! TA.AperFunction,SMDPad,CuDef*
G36*
G01*
X130236250Y-132315500D02*
X130748750Y-132315500D01*
G75*
G02*
X130967500Y-132534250I0J-218750D01*
G01*
X130967500Y-132971750D01*
G75*
G02*
X130748750Y-133190500I-218750J0D01*
G01*
X130236250Y-133190500D01*
G75*
G02*
X130017500Y-132971750I0J218750D01*
G01*
X130017500Y-132534250D01*
G75*
G02*
X130236250Y-132315500I218750J0D01*
G01*
G37*
G04 #@! TD.AperFunction*
G04 #@! TA.AperFunction,SMDPad,CuDef*
G36*
G01*
X136007000Y-138991500D02*
X134757000Y-138991500D01*
G75*
G02*
X134507000Y-138741500I0J250000D01*
G01*
X134507000Y-137991500D01*
G75*
G02*
X134757000Y-137741500I250000J0D01*
G01*
X136007000Y-137741500D01*
G75*
G02*
X136257000Y-137991500I0J-250000D01*
G01*
X136257000Y-138741500D01*
G75*
G02*
X136007000Y-138991500I-250000J0D01*
G01*
G37*
G04 #@! TD.AperFunction*
G04 #@! TA.AperFunction,SMDPad,CuDef*
G36*
G01*
X136007000Y-141791500D02*
X134757000Y-141791500D01*
G75*
G02*
X134507000Y-141541500I0J250000D01*
G01*
X134507000Y-140791500D01*
G75*
G02*
X134757000Y-140541500I250000J0D01*
G01*
X136007000Y-140541500D01*
G75*
G02*
X136257000Y-140791500I0J-250000D01*
G01*
X136257000Y-141541500D01*
G75*
G02*
X136007000Y-141791500I-250000J0D01*
G01*
G37*
G04 #@! TD.AperFunction*
G04 #@! TA.AperFunction,SMDPad,CuDef*
G36*
G01*
X120119500Y-145115500D02*
X120119500Y-145460500D01*
G75*
G02*
X119972000Y-145608000I-147500J0D01*
G01*
X119677000Y-145608000D01*
G75*
G02*
X119529500Y-145460500I0J147500D01*
G01*
X119529500Y-145115500D01*
G75*
G02*
X119677000Y-144968000I147500J0D01*
G01*
X119972000Y-144968000D01*
G75*
G02*
X120119500Y-145115500I0J-147500D01*
G01*
G37*
G04 #@! TD.AperFunction*
G04 #@! TA.AperFunction,SMDPad,CuDef*
G36*
G01*
X121089500Y-145115500D02*
X121089500Y-145460500D01*
G75*
G02*
X120942000Y-145608000I-147500J0D01*
G01*
X120647000Y-145608000D01*
G75*
G02*
X120499500Y-145460500I0J147500D01*
G01*
X120499500Y-145115500D01*
G75*
G02*
X120647000Y-144968000I147500J0D01*
G01*
X120942000Y-144968000D01*
G75*
G02*
X121089500Y-145115500I0J-147500D01*
G01*
G37*
G04 #@! TD.AperFunction*
G04 #@! TA.AperFunction,SMDPad,CuDef*
G36*
G01*
X122425750Y-148749500D02*
X122938250Y-148749500D01*
G75*
G02*
X123157000Y-148968250I0J-218750D01*
G01*
X123157000Y-149405750D01*
G75*
G02*
X122938250Y-149624500I-218750J0D01*
G01*
X122425750Y-149624500D01*
G75*
G02*
X122207000Y-149405750I0J218750D01*
G01*
X122207000Y-148968250D01*
G75*
G02*
X122425750Y-148749500I218750J0D01*
G01*
G37*
G04 #@! TD.AperFunction*
G04 #@! TA.AperFunction,SMDPad,CuDef*
G36*
G01*
X122425750Y-147174500D02*
X122938250Y-147174500D01*
G75*
G02*
X123157000Y-147393250I0J-218750D01*
G01*
X123157000Y-147830750D01*
G75*
G02*
X122938250Y-148049500I-218750J0D01*
G01*
X122425750Y-148049500D01*
G75*
G02*
X122207000Y-147830750I0J218750D01*
G01*
X122207000Y-147393250D01*
G75*
G02*
X122425750Y-147174500I218750J0D01*
G01*
G37*
G04 #@! TD.AperFunction*
G04 #@! TA.AperFunction,SMDPad,CuDef*
G36*
G01*
X120842750Y-142741000D02*
X120330250Y-142741000D01*
G75*
G02*
X120111500Y-142522250I0J218750D01*
G01*
X120111500Y-142084750D01*
G75*
G02*
X120330250Y-141866000I218750J0D01*
G01*
X120842750Y-141866000D01*
G75*
G02*
X121061500Y-142084750I0J-218750D01*
G01*
X121061500Y-142522250D01*
G75*
G02*
X120842750Y-142741000I-218750J0D01*
G01*
G37*
G04 #@! TD.AperFunction*
G04 #@! TA.AperFunction,SMDPad,CuDef*
G36*
G01*
X120842750Y-144316000D02*
X120330250Y-144316000D01*
G75*
G02*
X120111500Y-144097250I0J218750D01*
G01*
X120111500Y-143659750D01*
G75*
G02*
X120330250Y-143441000I218750J0D01*
G01*
X120842750Y-143441000D01*
G75*
G02*
X121061500Y-143659750I0J-218750D01*
G01*
X121061500Y-144097250D01*
G75*
G02*
X120842750Y-144316000I-218750J0D01*
G01*
G37*
G04 #@! TD.AperFunction*
G04 #@! TA.AperFunction,SMDPad,CuDef*
G36*
G01*
X152394500Y-137543250D02*
X152394500Y-137030750D01*
G75*
G02*
X152613250Y-136812000I218750J0D01*
G01*
X153050750Y-136812000D01*
G75*
G02*
X153269500Y-137030750I0J-218750D01*
G01*
X153269500Y-137543250D01*
G75*
G02*
X153050750Y-137762000I-218750J0D01*
G01*
X152613250Y-137762000D01*
G75*
G02*
X152394500Y-137543250I0J218750D01*
G01*
G37*
G04 #@! TD.AperFunction*
G04 #@! TA.AperFunction,SMDPad,CuDef*
G36*
G01*
X150819500Y-137543250D02*
X150819500Y-137030750D01*
G75*
G02*
X151038250Y-136812000I218750J0D01*
G01*
X151475750Y-136812000D01*
G75*
G02*
X151694500Y-137030750I0J-218750D01*
G01*
X151694500Y-137543250D01*
G75*
G02*
X151475750Y-137762000I-218750J0D01*
G01*
X151038250Y-137762000D01*
G75*
G02*
X150819500Y-137543250I0J218750D01*
G01*
G37*
G04 #@! TD.AperFunction*
G04 #@! TA.AperFunction,SMDPad,CuDef*
G36*
G01*
X127154650Y-142778900D02*
X126642150Y-142778900D01*
G75*
G02*
X126423400Y-142560150I0J218750D01*
G01*
X126423400Y-142122650D01*
G75*
G02*
X126642150Y-141903900I218750J0D01*
G01*
X127154650Y-141903900D01*
G75*
G02*
X127373400Y-142122650I0J-218750D01*
G01*
X127373400Y-142560150D01*
G75*
G02*
X127154650Y-142778900I-218750J0D01*
G01*
G37*
G04 #@! TD.AperFunction*
G04 #@! TA.AperFunction,SMDPad,CuDef*
G36*
G01*
X127154650Y-144353900D02*
X126642150Y-144353900D01*
G75*
G02*
X126423400Y-144135150I0J218750D01*
G01*
X126423400Y-143697650D01*
G75*
G02*
X126642150Y-143478900I218750J0D01*
G01*
X127154650Y-143478900D01*
G75*
G02*
X127373400Y-143697650I0J-218750D01*
G01*
X127373400Y-144135150D01*
G75*
G02*
X127154650Y-144353900I-218750J0D01*
G01*
G37*
G04 #@! TD.AperFunction*
G04 #@! TA.AperFunction,SMDPad,CuDef*
G36*
G01*
X152432500Y-135828750D02*
X152432500Y-135316250D01*
G75*
G02*
X152651250Y-135097500I218750J0D01*
G01*
X153088750Y-135097500D01*
G75*
G02*
X153307500Y-135316250I0J-218750D01*
G01*
X153307500Y-135828750D01*
G75*
G02*
X153088750Y-136047500I-218750J0D01*
G01*
X152651250Y-136047500D01*
G75*
G02*
X152432500Y-135828750I0J218750D01*
G01*
G37*
G04 #@! TD.AperFunction*
G04 #@! TA.AperFunction,SMDPad,CuDef*
G36*
G01*
X150857500Y-135828750D02*
X150857500Y-135316250D01*
G75*
G02*
X151076250Y-135097500I218750J0D01*
G01*
X151513750Y-135097500D01*
G75*
G02*
X151732500Y-135316250I0J-218750D01*
G01*
X151732500Y-135828750D01*
G75*
G02*
X151513750Y-136047500I-218750J0D01*
G01*
X151076250Y-136047500D01*
G75*
G02*
X150857500Y-135828750I0J218750D01*
G01*
G37*
G04 #@! TD.AperFunction*
G04 #@! TA.AperFunction,SMDPad,CuDef*
G36*
G01*
X129925500Y-145882200D02*
X132075500Y-145882200D01*
G75*
G02*
X132325500Y-146132200I0J-250000D01*
G01*
X132325500Y-146882200D01*
G75*
G02*
X132075500Y-147132200I-250000J0D01*
G01*
X129925500Y-147132200D01*
G75*
G02*
X129675500Y-146882200I0J250000D01*
G01*
X129675500Y-146132200D01*
G75*
G02*
X129925500Y-145882200I250000J0D01*
G01*
G37*
G04 #@! TD.AperFunction*
G04 #@! TA.AperFunction,SMDPad,CuDef*
G36*
G01*
X129925500Y-143082200D02*
X132075500Y-143082200D01*
G75*
G02*
X132325500Y-143332200I0J-250000D01*
G01*
X132325500Y-144082200D01*
G75*
G02*
X132075500Y-144332200I-250000J0D01*
G01*
X129925500Y-144332200D01*
G75*
G02*
X129675500Y-144082200I0J250000D01*
G01*
X129675500Y-143332200D01*
G75*
G02*
X129925500Y-143082200I250000J0D01*
G01*
G37*
G04 #@! TD.AperFunction*
G04 #@! TA.AperFunction,SMDPad,CuDef*
G36*
G01*
X115790400Y-144691400D02*
X117940400Y-144691400D01*
G75*
G02*
X118190400Y-144941400I0J-250000D01*
G01*
X118190400Y-145691400D01*
G75*
G02*
X117940400Y-145941400I-250000J0D01*
G01*
X115790400Y-145941400D01*
G75*
G02*
X115540400Y-145691400I0J250000D01*
G01*
X115540400Y-144941400D01*
G75*
G02*
X115790400Y-144691400I250000J0D01*
G01*
G37*
G04 #@! TD.AperFunction*
G04 #@! TA.AperFunction,SMDPad,CuDef*
G36*
G01*
X115790400Y-141891400D02*
X117940400Y-141891400D01*
G75*
G02*
X118190400Y-142141400I0J-250000D01*
G01*
X118190400Y-142891400D01*
G75*
G02*
X117940400Y-143141400I-250000J0D01*
G01*
X115790400Y-143141400D01*
G75*
G02*
X115540400Y-142891400I0J250000D01*
G01*
X115540400Y-142141400D01*
G75*
G02*
X115790400Y-141891400I250000J0D01*
G01*
G37*
G04 #@! TD.AperFunction*
G04 #@! TA.AperFunction,SMDPad,CuDef*
G36*
G01*
X97484250Y-79433000D02*
X96571750Y-79433000D01*
G75*
G02*
X96328000Y-79189250I0J243750D01*
G01*
X96328000Y-78701750D01*
G75*
G02*
X96571750Y-78458000I243750J0D01*
G01*
X97484250Y-78458000D01*
G75*
G02*
X97728000Y-78701750I0J-243750D01*
G01*
X97728000Y-79189250D01*
G75*
G02*
X97484250Y-79433000I-243750J0D01*
G01*
G37*
G04 #@! TD.AperFunction*
G04 #@! TA.AperFunction,SMDPad,CuDef*
G36*
G01*
X97484250Y-81308000D02*
X96571750Y-81308000D01*
G75*
G02*
X96328000Y-81064250I0J243750D01*
G01*
X96328000Y-80576750D01*
G75*
G02*
X96571750Y-80333000I243750J0D01*
G01*
X97484250Y-80333000D01*
G75*
G02*
X97728000Y-80576750I0J-243750D01*
G01*
X97728000Y-81064250D01*
G75*
G02*
X97484250Y-81308000I-243750J0D01*
G01*
G37*
G04 #@! TD.AperFunction*
G04 #@! TA.AperFunction,SMDPad,CuDef*
G36*
G01*
X81522250Y-79761500D02*
X82434750Y-79761500D01*
G75*
G02*
X82678500Y-80005250I0J-243750D01*
G01*
X82678500Y-80492750D01*
G75*
G02*
X82434750Y-80736500I-243750J0D01*
G01*
X81522250Y-80736500D01*
G75*
G02*
X81278500Y-80492750I0J243750D01*
G01*
X81278500Y-80005250D01*
G75*
G02*
X81522250Y-79761500I243750J0D01*
G01*
G37*
G04 #@! TD.AperFunction*
G04 #@! TA.AperFunction,SMDPad,CuDef*
G36*
G01*
X81522250Y-77886500D02*
X82434750Y-77886500D01*
G75*
G02*
X82678500Y-78130250I0J-243750D01*
G01*
X82678500Y-78617750D01*
G75*
G02*
X82434750Y-78861500I-243750J0D01*
G01*
X81522250Y-78861500D01*
G75*
G02*
X81278500Y-78617750I0J243750D01*
G01*
X81278500Y-78130250D01*
G75*
G02*
X81522250Y-77886500I243750J0D01*
G01*
G37*
G04 #@! TD.AperFunction*
D34*
X84391500Y-113411000D03*
X88582500Y-113919000D03*
X91186000Y-116903500D03*
X87757000Y-117665500D03*
X86995000Y-113284000D03*
X85725000Y-113220500D03*
X119888000Y-141287500D03*
X128270000Y-141541500D03*
X123761500Y-147510500D03*
X122682000Y-150558500D03*
X119253000Y-148272500D03*
D35*
X131254500Y-148209000D03*
X116903500Y-147002500D03*
X115887500Y-134556500D03*
X153098500Y-133858000D03*
X133159500Y-136779000D03*
X155575000Y-138493500D03*
X130048000Y-135953500D03*
X148907500Y-143764000D03*
D36*
X71374000Y-86931500D03*
X78105000Y-89979500D03*
D35*
X80010000Y-81089500D03*
D34*
X79438500Y-71374000D03*
D35*
X89979500Y-90678000D03*
X89890590Y-104300068D03*
D34*
X107823000Y-52070000D03*
X100457000Y-54927500D03*
D35*
X156210000Y-59436000D03*
X147002500Y-65405000D03*
X98042039Y-81718130D03*
D34*
X89923910Y-78134148D03*
D35*
X92741757Y-111537422D03*
D34*
X82042000Y-107315000D03*
X83711894Y-111712737D03*
X82105500Y-101600000D03*
X91376500Y-87630000D03*
X97177598Y-77392333D03*
X91634483Y-71400320D03*
X111887000Y-57086500D03*
D35*
X79673333Y-78497869D03*
D34*
X121412000Y-146240500D03*
X124968000Y-149542500D03*
X116586000Y-131445000D03*
X118237000Y-131445000D03*
X130873500Y-131318000D03*
X129349500Y-131318000D03*
X121920000Y-134747000D03*
D36*
X151901981Y-55255394D03*
X125727600Y-132717400D03*
X121663600Y-132717400D03*
D35*
X150812500Y-54292500D03*
X146963312Y-52016574D03*
X149987000Y-53784500D03*
X143510000Y-141224000D03*
X140652500Y-141224000D03*
X138557000Y-141224000D03*
X133413500Y-140208000D03*
D36*
X80708500Y-86931500D03*
D34*
X83439000Y-68326000D03*
D35*
X122364500Y-58102500D03*
X94361000Y-58293000D03*
D34*
X93154500Y-81407000D03*
X89098410Y-85153013D03*
X140970000Y-60071000D03*
X135064500Y-50482500D03*
X88582500Y-77978000D03*
X97726500Y-123698000D03*
X93154500Y-124523500D03*
X86868000Y-99949000D03*
X104584500Y-58483500D03*
X107823000Y-57594500D03*
X92622194Y-72195815D03*
D35*
X80649784Y-78144724D03*
D34*
X82867500Y-75057000D03*
X99187000Y-56324500D03*
X105156000Y-53086000D03*
X83439000Y-118808500D03*
X128651000Y-144335500D03*
X128587500Y-142938500D03*
X133667500Y-143573500D03*
X118999000Y-142367000D03*
X119189500Y-143954500D03*
D35*
X149479000Y-137033000D03*
D36*
X125349000Y-139319000D03*
X122047000Y-139382500D03*
D34*
X120713500Y-147002500D03*
X84188661Y-115518839D03*
X78105000Y-70294500D03*
X85478457Y-73779543D03*
X79692500Y-67500500D03*
X85548855Y-72856776D03*
X104203500Y-56578500D03*
X106937045Y-56327545D03*
X106616500Y-52578000D03*
D35*
X94869000Y-88265000D03*
D34*
X86934544Y-80076545D03*
D35*
X93628888Y-88939703D03*
D34*
X85762340Y-80745840D03*
D35*
X92563990Y-92710000D03*
D34*
X83753750Y-80246510D03*
X92392500Y-78803500D03*
X100076000Y-79692500D03*
X140716000Y-55880000D03*
X86423500Y-79502000D03*
X85383733Y-78947990D03*
X80412005Y-75967005D03*
X80454500Y-75057000D03*
X86677500Y-78359000D03*
X119824500Y-62230000D03*
X119705463Y-63238625D03*
X118745000Y-63881000D03*
X100512790Y-71188196D03*
X117538500Y-64198500D03*
X100001848Y-70150010D03*
X111379000Y-61912500D03*
X118299474Y-56174984D03*
X108431630Y-62618885D03*
X116776500Y-55435500D03*
X119507000Y-56642000D03*
X94488000Y-98107500D03*
X82433445Y-97295025D03*
X91122500Y-96837500D03*
X84437510Y-89257589D03*
X83883500Y-99187000D03*
X88455500Y-101981000D03*
X145732500Y-54991000D03*
X89344500Y-76200000D03*
X128236768Y-69762321D03*
X94210848Y-73452125D03*
X115627955Y-57367535D03*
X111887000Y-54419500D03*
X143059366Y-61726836D03*
X89979500Y-75620590D03*
X130990105Y-69666384D03*
X91874300Y-72113490D03*
X92964000Y-64643000D03*
X93027500Y-63500000D03*
X87648017Y-84855115D03*
X93853000Y-79819500D03*
X143573500Y-62928500D03*
X130934289Y-70416723D03*
X114803974Y-55869264D03*
X95821500Y-87503000D03*
X142049500Y-61307679D03*
X91118586Y-83357925D03*
D35*
X144466666Y-61408666D03*
X151257000Y-142113000D03*
X110503795Y-57544795D03*
D34*
X141541500Y-60706000D03*
X97155000Y-85534500D03*
X89598500Y-80454500D03*
X84582485Y-110418590D03*
X87531705Y-110836205D03*
X83947000Y-110998000D03*
X80645000Y-73914000D03*
X85475142Y-77770152D03*
X78549500Y-71437500D03*
D37*
X90233500Y-117665500D02*
X91186000Y-116903500D01*
X87757000Y-117665500D02*
X90233500Y-117665500D01*
X120853400Y-142570400D02*
X120586500Y-142303500D01*
X122573400Y-142570400D02*
X120853400Y-142570400D01*
X126669400Y-142570400D02*
X126898400Y-142341400D01*
X124873400Y-142570400D02*
X126669400Y-142570400D01*
X120586500Y-142303500D02*
X120586500Y-141986000D01*
X120586500Y-141986000D02*
X119888000Y-141287500D01*
X126898400Y-142341400D02*
X127470100Y-142341400D01*
X127470100Y-142341400D02*
X128270000Y-141541500D01*
D38*
X123723400Y-146020400D02*
X123723400Y-147472400D01*
X123723400Y-147472400D02*
X123761500Y-147510500D01*
X122682000Y-149187000D02*
X122682000Y-150558500D01*
X120142000Y-147683500D02*
X119842000Y-147683500D01*
X119842000Y-147683500D02*
X119253000Y-148272500D01*
D37*
X152870000Y-135572500D02*
X152870000Y-134086500D01*
X152870000Y-134086500D02*
X153098500Y-133858000D01*
D39*
X135382000Y-138366500D02*
X134747000Y-138366500D01*
X134747000Y-138366500D02*
X133159500Y-136779000D01*
D37*
X122573400Y-142570400D02*
X122301000Y-142298000D01*
X130111500Y-134328000D02*
X130111500Y-135890000D01*
X130111500Y-135890000D02*
X130048000Y-135953500D01*
D40*
X148910000Y-141892000D02*
X148910000Y-143761500D01*
X148910000Y-143761500D02*
X148907500Y-143764000D01*
D37*
X71376792Y-86928708D02*
X71374000Y-86931500D01*
X74206708Y-86928708D02*
X71376792Y-86928708D01*
X78740000Y-89344500D02*
X78105000Y-89979500D01*
X80234000Y-89344500D02*
X78740000Y-89344500D01*
D38*
X80850500Y-80249000D02*
X80010000Y-81089500D01*
X81978500Y-80249000D02*
X80850500Y-80249000D01*
D40*
X107962363Y-52209363D02*
X107823000Y-52070000D01*
X107962363Y-53874189D02*
X107962363Y-52209363D01*
X101196576Y-55667076D02*
X100457000Y-54927500D01*
X101196576Y-56336734D02*
X101196576Y-55667076D01*
D38*
X90053002Y-90604498D02*
X89979500Y-90678000D01*
X90053002Y-88338502D02*
X90053002Y-90604498D01*
D41*
X150077019Y-58816817D02*
X149970952Y-58816817D01*
X151208389Y-57685447D02*
X150077019Y-58816817D01*
X147637500Y-55740903D02*
X147637500Y-58039000D01*
X148450673Y-54927730D02*
X147637500Y-55740903D01*
X147637500Y-60337097D02*
X147637500Y-58039000D01*
X146824327Y-61150270D02*
X147637500Y-60337097D01*
D40*
X90304674Y-78557174D02*
X89923910Y-78176410D01*
X89923910Y-78176410D02*
X89923910Y-78134148D01*
D38*
X82804000Y-112689000D02*
X82804000Y-112620631D01*
X82804000Y-112620631D02*
X83711894Y-111712737D01*
D40*
X90761504Y-87630000D02*
X90053002Y-88338502D01*
X91376500Y-87630000D02*
X90761504Y-87630000D01*
X97028000Y-77541931D02*
X97177598Y-77392333D01*
X97028000Y-78945500D02*
X97028000Y-77541931D01*
D38*
X91634483Y-71360015D02*
X91634483Y-71400320D01*
X92482749Y-70511749D02*
X91634483Y-71360015D01*
D37*
X123725900Y-132714900D02*
X123723400Y-132717400D01*
D38*
X124968000Y-148440000D02*
X125095000Y-148313000D01*
X124968000Y-149542500D02*
X124968000Y-148440000D01*
X124841000Y-149415500D02*
X124968000Y-149542500D01*
X124079000Y-149415500D02*
X124841000Y-149415500D01*
X122573400Y-145820400D02*
X121832100Y-145820400D01*
X121832100Y-145820400D02*
X121412000Y-146240500D01*
D39*
X123759000Y-132753000D02*
X123723400Y-132717400D01*
X130111500Y-132753000D02*
X123759000Y-132753000D01*
X123433800Y-133007000D02*
X123723400Y-132717400D01*
X117411500Y-133007000D02*
X123433800Y-133007000D01*
X117411500Y-132270500D02*
X116586000Y-131445000D01*
X118237000Y-131445000D02*
X116586000Y-131445000D01*
X117411500Y-132270500D02*
X118237000Y-131445000D01*
X117411500Y-133007000D02*
X117411500Y-132270500D01*
X118237000Y-131445000D02*
X118237000Y-132016500D01*
X118046500Y-132847000D02*
X118046500Y-132397500D01*
X117411500Y-133007000D02*
X117886500Y-133007000D01*
X117886500Y-133007000D02*
X118046500Y-132847000D01*
X118237000Y-132016500D02*
X118046500Y-132397500D01*
X118046500Y-132397500D02*
X118937900Y-132717400D01*
X130111500Y-132753000D02*
X130111500Y-132080000D01*
X130111500Y-132080000D02*
X130873500Y-131318000D01*
X129349500Y-131991000D02*
X130111500Y-132753000D01*
X129349500Y-131318000D02*
X129349500Y-131991000D01*
X129413000Y-131699000D02*
X129349500Y-131318000D01*
X128968500Y-131699000D02*
X129413000Y-131699000D01*
X127950100Y-132717400D02*
X128968500Y-131699000D01*
D37*
X121920000Y-134520800D02*
X123723400Y-132717400D01*
X121920000Y-134747000D02*
X121920000Y-134520800D01*
D41*
X151133067Y-55943492D02*
X151193508Y-55943492D01*
X150310351Y-56766208D02*
X151133067Y-55943492D01*
X150289150Y-56766208D02*
X150310351Y-56766208D01*
D37*
X151193508Y-55943492D02*
X151447500Y-55689500D01*
X151447500Y-55689500D02*
X151638000Y-55499000D01*
D39*
X151658375Y-55499000D02*
X151901981Y-55255394D01*
X151638000Y-55499000D02*
X151658375Y-55499000D01*
D37*
X123723400Y-132717400D02*
X125727600Y-132717400D01*
D39*
X125727600Y-132717400D02*
X127950100Y-132717400D01*
D37*
X123723400Y-132717400D02*
X121663600Y-132717400D01*
D39*
X118937900Y-132717400D02*
X121663600Y-132717400D01*
D41*
X150748990Y-55387129D02*
X149829531Y-56306588D01*
X150748990Y-55130761D02*
X150748990Y-55387129D01*
X150812500Y-55067251D02*
X150748990Y-55130761D01*
X150812500Y-54292500D02*
X150812500Y-55067251D01*
X149362013Y-54935629D02*
X149362013Y-54415275D01*
X148910292Y-55387350D02*
X149362013Y-54935629D01*
X149362013Y-54415275D02*
X146963312Y-52016574D01*
X149987000Y-53784500D02*
X149987000Y-55229881D01*
X149987000Y-55229881D02*
X149369912Y-55846969D01*
D42*
X143510000Y-141732000D02*
X141218000Y-144024000D01*
D37*
X143510000Y-141224000D02*
X143510000Y-141732000D01*
D42*
X141218000Y-144024000D02*
X141218000Y-141789500D01*
D37*
X141218000Y-141789500D02*
X140652500Y-141224000D01*
D39*
X140595000Y-141166500D02*
X140652500Y-141224000D01*
X140652500Y-141224000D02*
X143510000Y-141224000D01*
X135382000Y-141166500D02*
X138557000Y-141224000D01*
X138557000Y-141224000D02*
X140595000Y-141166500D01*
X135382000Y-141166500D02*
X134372000Y-141166500D01*
X134372000Y-141166500D02*
X133413500Y-140208000D01*
D37*
X80705708Y-86928708D02*
X80708500Y-86931500D01*
X77806708Y-86928708D02*
X80705708Y-86928708D01*
D40*
X96030500Y-81818000D02*
X94678500Y-81818000D01*
X97028000Y-80820500D02*
X96030500Y-81818000D01*
D38*
X120440500Y-58063500D02*
X121240500Y-58063500D01*
X122325500Y-58063500D02*
X122364500Y-58102500D01*
X121240500Y-58063500D02*
X122325500Y-58063500D01*
D40*
X91630500Y-79883000D02*
X93154500Y-81407000D01*
X94678500Y-81818000D02*
X93565500Y-81818000D01*
X93565500Y-81818000D02*
X93154500Y-81407000D01*
D38*
X88709500Y-85541923D02*
X89098410Y-85153013D01*
X88709500Y-86995000D02*
X88709500Y-85541923D01*
X140970000Y-60071000D02*
X140970000Y-57405578D01*
X135064500Y-51500078D02*
X135064500Y-50482500D01*
X140970000Y-57405578D02*
X135064500Y-51500078D01*
X91630500Y-79883000D02*
X90043000Y-79883000D01*
X88582500Y-78422500D02*
X88582500Y-77978000D01*
X90043000Y-79883000D02*
X88582500Y-78422500D01*
X96901000Y-124523500D02*
X93154500Y-124523500D01*
X97726500Y-123698000D02*
X96901000Y-124523500D01*
D40*
X115379500Y-69786500D02*
X112585500Y-69786500D01*
X104584500Y-61785500D02*
X104584500Y-58483500D01*
X112585500Y-69786500D02*
X104584500Y-61785500D01*
D38*
X92962758Y-71855251D02*
X92622194Y-72195815D01*
X93826251Y-71855251D02*
X92962758Y-71855251D01*
X80879060Y-78374000D02*
X80649784Y-78144724D01*
X81978500Y-78374000D02*
X80879060Y-78374000D01*
D40*
X83703235Y-74221265D02*
X82867500Y-75057000D01*
X83703235Y-73924235D02*
X83703235Y-74221265D01*
X102018311Y-59155811D02*
X102222637Y-59155811D01*
X99187000Y-56324500D02*
X102018311Y-59155811D01*
X108763266Y-56693266D02*
X108988424Y-56693266D01*
X105156000Y-53086000D02*
X108763266Y-56693266D01*
D37*
X85852000Y-117635500D02*
X84612000Y-117635500D01*
X84612000Y-117635500D02*
X83439000Y-118808500D01*
D39*
X131000500Y-143707200D02*
X129279300Y-143707200D01*
X129279300Y-143707200D02*
X128651000Y-144335500D01*
X128231900Y-143916400D02*
X128651000Y-144335500D01*
X126898400Y-143916400D02*
X128231900Y-143916400D01*
X131000500Y-143707200D02*
X129356200Y-143707200D01*
X129356200Y-143707200D02*
X128587500Y-142938500D01*
X127609600Y-143916400D02*
X126898400Y-143916400D01*
X128587500Y-142938500D02*
X127609600Y-143916400D01*
X126702400Y-143720400D02*
X126898400Y-143916400D01*
X125173400Y-143720400D02*
X126702400Y-143720400D01*
X117014800Y-142367000D02*
X116865400Y-142516400D01*
X118999000Y-142367000D02*
X117014800Y-142367000D01*
X120111500Y-143878500D02*
X120586500Y-143878500D01*
X120086236Y-143878500D02*
X120111500Y-143878500D01*
X118999000Y-142791264D02*
X120086236Y-143878500D01*
X118999000Y-142367000D02*
X118999000Y-142791264D01*
X120586500Y-143878500D02*
X119265500Y-143878500D01*
X119265500Y-143878500D02*
X119189500Y-143954500D01*
X120744600Y-143720400D02*
X120586500Y-143878500D01*
D37*
X122273400Y-143720400D02*
X120744600Y-143720400D01*
X148910000Y-139192000D02*
X149860000Y-139192000D01*
X148910000Y-139192000D02*
X148910000Y-137602000D01*
X148910000Y-137602000D02*
X149479000Y-137033000D01*
X149860000Y-137414000D02*
X149479000Y-137033000D01*
X149860000Y-139192000D02*
X149860000Y-137414000D01*
X149733000Y-137287000D02*
X149479000Y-137033000D01*
X151257000Y-137287000D02*
X149733000Y-137287000D01*
X151295000Y-137249000D02*
X151257000Y-137287000D01*
X151295000Y-135572500D02*
X151295000Y-137249000D01*
D39*
X133533800Y-143707200D02*
X133667500Y-143573500D01*
X131000500Y-143707200D02*
X133533800Y-143707200D01*
D38*
X78607218Y-111095000D02*
X77012478Y-112689740D01*
X81851500Y-111095000D02*
X78607218Y-111095000D01*
X123198400Y-147095600D02*
X123198400Y-146020400D01*
X122682000Y-147612000D02*
X123198400Y-147095600D01*
D37*
X147048000Y-141892000D02*
X146558000Y-141402000D01*
X147960000Y-141892000D02*
X147048000Y-141892000D01*
D39*
X146685000Y-139319000D02*
X142748000Y-139319000D01*
D37*
X146628500Y-139319000D02*
X146685000Y-139319000D01*
X146558000Y-139389500D02*
X146628500Y-139319000D01*
X146558000Y-139827000D02*
X146558000Y-139389500D01*
X146755500Y-139192000D02*
X147960000Y-139192000D01*
X146558000Y-139389500D02*
X146755500Y-139192000D01*
X147193000Y-139192000D02*
X146558000Y-139827000D01*
X147960000Y-139192000D02*
X147193000Y-139192000D01*
D39*
X123723400Y-139367400D02*
X123723400Y-143170400D01*
D38*
X123723400Y-143473322D02*
X123723400Y-143170400D01*
X122942912Y-144253810D02*
X123723400Y-143473322D01*
X121687068Y-144253810D02*
X122942912Y-144253810D01*
X121274968Y-144665910D02*
X121687068Y-144253810D01*
X120126590Y-144665910D02*
X121274968Y-144665910D01*
X119824500Y-144968000D02*
X120126590Y-144665910D01*
X119824500Y-145288000D02*
X119824500Y-144968000D01*
D37*
X125300600Y-139367400D02*
X125349000Y-139319000D01*
X123723400Y-139367400D02*
X125300600Y-139367400D01*
X122062100Y-139367400D02*
X122047000Y-139382500D01*
X123723400Y-139367400D02*
X122062100Y-139367400D01*
D38*
X122116000Y-145288000D02*
X122123400Y-145295400D01*
X120794500Y-145288000D02*
X122116000Y-145288000D01*
X122123400Y-144795400D02*
X122123400Y-145295400D01*
X121285000Y-147660500D02*
X121285000Y-147574000D01*
X121285000Y-147574000D02*
X120713500Y-147002500D01*
X83133839Y-115518839D02*
X82804000Y-115189000D01*
X84188661Y-115518839D02*
X83133839Y-115518839D01*
X85610339Y-115518839D02*
X85852000Y-115760500D01*
X84188661Y-115518839D02*
X85610339Y-115518839D01*
D40*
X78105000Y-70040500D02*
X79121000Y-69024500D01*
X78105000Y-70294500D02*
X78105000Y-70040500D01*
D38*
X80708500Y-70151546D02*
X80656910Y-70099956D01*
D40*
X81798870Y-70099956D02*
X85478457Y-73779543D01*
X80656910Y-70099956D02*
X81798870Y-70099956D01*
X79844940Y-67500500D02*
X80796166Y-66549274D01*
X79692500Y-67500500D02*
X79844940Y-67500500D01*
X82232500Y-67754500D02*
X82232500Y-69540421D01*
X82232500Y-69540421D02*
X85548855Y-72856776D01*
D39*
X122618500Y-48577500D02*
X122666500Y-48625500D01*
X116840000Y-48577500D02*
X122618500Y-48577500D01*
D40*
X101450723Y-53825723D02*
X101450723Y-52052425D01*
X104203500Y-56578500D02*
X101450723Y-53825723D01*
X103837542Y-53228042D02*
X106937045Y-56327545D01*
X103837542Y-51183693D02*
X103837542Y-53228042D01*
X106616500Y-50707101D02*
X106224361Y-50314962D01*
X106616500Y-52578000D02*
X106616500Y-50707101D01*
X94869000Y-88265000D02*
X86934544Y-80330544D01*
X86934544Y-80330544D02*
X86934544Y-80076545D01*
X93628888Y-88188124D02*
X86186604Y-80745840D01*
X86186604Y-80745840D02*
X85762340Y-80745840D01*
X93628888Y-88939703D02*
X93628888Y-88188124D01*
X87842092Y-84334852D02*
X83753750Y-80246510D01*
X92563990Y-92710000D02*
X92563990Y-87798671D01*
X89100171Y-84334852D02*
X87842092Y-84334852D01*
X92563990Y-87798671D02*
X89100171Y-84334852D01*
D38*
X92392500Y-78803500D02*
X94297500Y-78803500D01*
X100056090Y-79712410D02*
X100076000Y-79692500D01*
X95206410Y-79712410D02*
X100056090Y-79712410D01*
X94297500Y-78803500D02*
X95206410Y-79712410D01*
X143228553Y-58392553D02*
X144066611Y-58392553D01*
X140716000Y-55880000D02*
X143228553Y-58392553D01*
D40*
X76708000Y-79502000D02*
X76200000Y-78994000D01*
X86423500Y-79502000D02*
X76708000Y-79502000D01*
X83956430Y-78947990D02*
X80975445Y-75967005D01*
X80975445Y-75967005D02*
X80412005Y-75967005D01*
X85383733Y-78947990D02*
X83956430Y-78947990D01*
X80878764Y-75057000D02*
X84180764Y-78359000D01*
X84180764Y-78359000D02*
X86677500Y-78359000D01*
X80454500Y-75057000D02*
X80878764Y-75057000D01*
X125379500Y-67785000D02*
X125379500Y-67786500D01*
X119824500Y-62230000D02*
X125379500Y-67785000D01*
X124450499Y-68857499D02*
X124450499Y-67482577D01*
X125379500Y-69786500D02*
X124450499Y-68857499D01*
X124450499Y-67482577D02*
X120206547Y-63238625D01*
X120206547Y-63238625D02*
X119705463Y-63238625D01*
X119474000Y-63881000D02*
X123379500Y-67786500D01*
X118745000Y-63881000D02*
X119474000Y-63881000D01*
X123379500Y-69786500D02*
X122094888Y-71071112D01*
X102921094Y-73596500D02*
X100512790Y-71188196D01*
X112380388Y-71071112D02*
X109855000Y-73596500D01*
X122094888Y-71071112D02*
X112380388Y-71071112D01*
X109855000Y-73596500D02*
X102921094Y-73596500D01*
X121126500Y-67786500D02*
X121379500Y-67786500D01*
X117538500Y-64198500D02*
X121126500Y-67786500D01*
X121379500Y-69786500D02*
X120450499Y-70715501D01*
X120450499Y-70715501D02*
X111846999Y-70715501D01*
X110172499Y-72390001D02*
X102666103Y-72390001D01*
X102666103Y-72390001D02*
X100426112Y-70150010D01*
X111846999Y-70715501D02*
X110172499Y-72390001D01*
X100426112Y-70150010D02*
X100001848Y-70150010D01*
D38*
X116397401Y-64677571D02*
X119379500Y-67659670D01*
X115443000Y-60769500D02*
X116397401Y-61723901D01*
X116397401Y-61723901D02*
X116397401Y-64677571D01*
X119379500Y-67659670D02*
X119379500Y-67786500D01*
D40*
X111379000Y-61912500D02*
X114871500Y-65405000D01*
X114871500Y-65405000D02*
X116586000Y-65405000D01*
X118308501Y-67127501D02*
X118308501Y-68715501D01*
X118308501Y-68715501D02*
X119379500Y-69786500D01*
X116586000Y-65405000D02*
X118308501Y-67127501D01*
X124714000Y-60896500D02*
X122166297Y-60896500D01*
X118299474Y-57029677D02*
X118299474Y-56174984D01*
X122166297Y-60896500D02*
X118299474Y-57029677D01*
X116450499Y-68857499D02*
X114670244Y-68857499D01*
X117379500Y-69786500D02*
X116450499Y-68857499D01*
X114670244Y-68857499D02*
X108431630Y-62618885D01*
D38*
X123695901Y-50596099D02*
X125666500Y-48625500D01*
X123695901Y-53908099D02*
X123695901Y-50596099D01*
X121240500Y-56363500D02*
X123695901Y-53908099D01*
X122181000Y-56363500D02*
X126714000Y-60896500D01*
X121240500Y-56363500D02*
X122181000Y-56363500D01*
X126714000Y-62896500D02*
X126714000Y-60896500D01*
D40*
X116776500Y-56009611D02*
X122615889Y-61849000D01*
X116776500Y-55435500D02*
X116776500Y-56009611D01*
X123666500Y-61849000D02*
X124714000Y-62896500D01*
X122615889Y-61849000D02*
X123666500Y-61849000D01*
D38*
X120440500Y-53851500D02*
X120440500Y-56363500D01*
X122666500Y-51625500D02*
X120440500Y-53851500D01*
X117443000Y-62769500D02*
X117443000Y-60769500D01*
X120440500Y-56817406D02*
X120440500Y-56363500D01*
X119682406Y-56817406D02*
X119507000Y-56642000D01*
X120440500Y-56817406D02*
X119682406Y-56817406D01*
X129222500Y-148382287D02*
X129222500Y-149796500D01*
X129222500Y-147054258D02*
X129222500Y-148382287D01*
X126963642Y-144795400D02*
X129222500Y-147054258D01*
X125323400Y-144795400D02*
X126963642Y-144795400D01*
X94488000Y-98107500D02*
X83245920Y-98107500D01*
X83245920Y-98107500D02*
X82433445Y-97295025D01*
D40*
X91122500Y-96837500D02*
X84437510Y-90152510D01*
X84437510Y-90152510D02*
X84437510Y-89257589D01*
X83883500Y-99187000D02*
X86614000Y-101917500D01*
X88392000Y-101917500D02*
X88455500Y-101981000D01*
X86614000Y-101917500D02*
X88392000Y-101917500D01*
D38*
X146255389Y-54468111D02*
X145732500Y-54991000D01*
X147991053Y-54468111D02*
X146255389Y-54468111D01*
X91462973Y-76200000D02*
X94210848Y-73452125D01*
X89344500Y-76200000D02*
X91462973Y-76200000D01*
X128236768Y-69762321D02*
X128236768Y-69282600D01*
X118631501Y-59677333D02*
X117937753Y-59677333D01*
X128236768Y-69282600D02*
X118631501Y-59677333D01*
X117937753Y-59677333D02*
X115627955Y-57367535D01*
X144643559Y-60142643D02*
X143059366Y-61726836D01*
X145445469Y-59771412D02*
X145074238Y-60142643D01*
X145074238Y-60142643D02*
X144643559Y-60142643D01*
X89979500Y-75620590D02*
X89979500Y-74008290D01*
X89979500Y-74008290D02*
X91874300Y-72113490D01*
X111887000Y-54419500D02*
X114459670Y-54419500D01*
X129770054Y-69666384D02*
X130990105Y-69666384D01*
X118968181Y-58864511D02*
X129770054Y-69666384D01*
X118904681Y-58864511D02*
X118968181Y-58864511D01*
X114459670Y-54419500D02*
X118904681Y-58864511D01*
D42*
X153162000Y-65389500D02*
X153162000Y-58293000D01*
D39*
X153162000Y-58293000D02*
X153162000Y-57594500D01*
X153162000Y-57594500D02*
X152146000Y-56578500D01*
D37*
X151396097Y-56578500D02*
X150748770Y-57225827D01*
X152146000Y-56578500D02*
X151396097Y-56578500D01*
D42*
X152196646Y-68389500D02*
X148069146Y-64262000D01*
X153162000Y-68389500D02*
X152196646Y-68389500D01*
D39*
X148069146Y-64262000D02*
X148069146Y-64185646D01*
X148069146Y-64185646D02*
X146939000Y-63055500D01*
D37*
X146939000Y-63055500D02*
X146621500Y-62738000D01*
X146621500Y-62272336D02*
X147283947Y-61609889D01*
X146621500Y-62738000D02*
X146621500Y-62272336D01*
D40*
X88461999Y-62744499D02*
X86995000Y-61277500D01*
X91065499Y-62744499D02*
X88461999Y-62744499D01*
X92964000Y-64643000D02*
X91065499Y-62744499D01*
X92795933Y-63500000D02*
X93027500Y-63500000D01*
X88940753Y-59644820D02*
X92795933Y-63500000D01*
D38*
X81534000Y-89344500D02*
X83158632Y-89344500D01*
X83158632Y-89344500D02*
X87648017Y-84855115D01*
D40*
X94551500Y-80518000D02*
X93853000Y-79819500D01*
X94678500Y-80518000D02*
X94551500Y-80518000D01*
X83327000Y-108775500D02*
X83517500Y-108966000D01*
D38*
X83263500Y-109220000D02*
X83517500Y-108966000D01*
X81851500Y-109220000D02*
X83263500Y-109220000D01*
X146364708Y-60690650D02*
X144145000Y-62910358D01*
X143591642Y-62910358D02*
X143573500Y-62928500D01*
X144145000Y-62910358D02*
X143591642Y-62910358D01*
X118799841Y-59270922D02*
X118629896Y-59270922D01*
X129945642Y-70416723D02*
X118799841Y-59270922D01*
X118629896Y-59270922D02*
X115228238Y-55869264D01*
X130934289Y-70416723D02*
X129945642Y-70416723D01*
X115228238Y-55869264D02*
X114803974Y-55869264D01*
X143674156Y-59683023D02*
X142049500Y-61307679D01*
X144614619Y-59683023D02*
X143674156Y-59683023D01*
X144985850Y-59311792D02*
X144614619Y-59683023D01*
X95821500Y-87503000D02*
X91676425Y-83357925D01*
X91676425Y-83357925D02*
X91118586Y-83357925D01*
D41*
X144727453Y-61408666D02*
X144466666Y-61408666D01*
X145905088Y-60231031D02*
X144727453Y-61408666D01*
D38*
X126539900Y-145295400D02*
X125323400Y-145295400D01*
X126873000Y-145628500D02*
X126539900Y-145295400D01*
X125095000Y-146042000D02*
X124873400Y-145820400D01*
X125095000Y-147343000D02*
X125095000Y-146042000D01*
D40*
X149860000Y-141892000D02*
X151036000Y-141892000D01*
X151036000Y-141892000D02*
X151257000Y-142113000D01*
D38*
X124248400Y-146624400D02*
X124248400Y-146020400D01*
X124340901Y-147888599D02*
X124340901Y-146716901D01*
X124340901Y-146716901D02*
X124248400Y-146624400D01*
X124079000Y-148150500D02*
X124340901Y-147888599D01*
X124079000Y-148445500D02*
X124079000Y-148150500D01*
X121470000Y-148445500D02*
X121285000Y-148630500D01*
X124079000Y-148445500D02*
X121470000Y-148445500D01*
X121262000Y-148653500D02*
X121285000Y-148630500D01*
X120142000Y-148653500D02*
X121262000Y-148653500D01*
X115443000Y-62769500D02*
X110503795Y-57830295D01*
X110503795Y-57830295D02*
X110503795Y-57544795D01*
X144154999Y-59223404D02*
X143341596Y-59223404D01*
X144526230Y-58852173D02*
X144154999Y-59223404D01*
X141859000Y-60706000D02*
X141541500Y-60706000D01*
X143341596Y-59223404D02*
X141859000Y-60706000D01*
X94678500Y-85534500D02*
X89598500Y-80454500D01*
X97155000Y-85534500D02*
X94678500Y-85534500D01*
X85392500Y-108966000D02*
X84582485Y-109776015D01*
X84582485Y-109776015D02*
X84582485Y-110418590D01*
D40*
X87474295Y-110836205D02*
X87531705Y-110836205D01*
D38*
X87369910Y-110998000D02*
X87531705Y-110836205D01*
X83947000Y-110998000D02*
X87369910Y-110998000D01*
D40*
X84501152Y-77770152D02*
X85475142Y-77770152D01*
X80645000Y-73914000D02*
X84501152Y-77770152D01*
X79745765Y-72633765D02*
X78549500Y-71437500D01*
X82412765Y-72633765D02*
X79745765Y-72633765D01*
D38*
X127889000Y-140244407D02*
X124101160Y-141548417D01*
X124078527Y-141558789D01*
X124058353Y-141573378D01*
X124041412Y-141591622D01*
X124032884Y-141605468D01*
X123998089Y-141594913D01*
X123923400Y-141587557D01*
X123523400Y-141587557D01*
X123448711Y-141594913D01*
X123443172Y-141596593D01*
X123441560Y-141580224D01*
X123434333Y-141556399D01*
X123422597Y-141534443D01*
X123406803Y-141515197D01*
X123387557Y-141499403D01*
X123356567Y-141484321D01*
X119570500Y-140242988D01*
X119570500Y-138557000D01*
X127889000Y-138557000D01*
X127889000Y-140244407D01*
G04 #@! TA.AperFunction,Conductor*
D43*
G36*
X127889000Y-140244407D02*
G01*
X124101160Y-141548417D01*
X124078527Y-141558789D01*
X124058353Y-141573378D01*
X124041412Y-141591622D01*
X124032884Y-141605468D01*
X123998089Y-141594913D01*
X123923400Y-141587557D01*
X123523400Y-141587557D01*
X123448711Y-141594913D01*
X123443172Y-141596593D01*
X123441560Y-141580224D01*
X123434333Y-141556399D01*
X123422597Y-141534443D01*
X123406803Y-141515197D01*
X123387557Y-141499403D01*
X123356567Y-141484321D01*
X119570500Y-140242988D01*
X119570500Y-138557000D01*
X127889000Y-138557000D01*
X127889000Y-140244407D01*
G37*
G04 #@! TD.AperFunction*
D40*
X111997730Y-124444303D02*
X112000314Y-124445321D01*
X112002839Y-124446509D01*
X112034827Y-124458916D01*
X113947028Y-125130434D01*
X113949697Y-125131260D01*
X113952289Y-125132250D01*
X113985117Y-125142225D01*
X115942285Y-125668477D01*
X115945008Y-125669101D01*
X115947666Y-125669893D01*
X115981150Y-125677378D01*
X117972267Y-126055404D01*
X117975026Y-126055821D01*
X117977740Y-126056413D01*
X118011691Y-126061366D01*
X120025545Y-126289035D01*
X120028326Y-126289244D01*
X120031079Y-126289631D01*
X120065305Y-126292025D01*
X122075016Y-126367474D01*
X122085489Y-126368484D01*
X133550421Y-126344890D01*
X133965523Y-126385592D01*
X134340328Y-126498752D01*
X134686011Y-126682555D01*
X134989411Y-126930002D01*
X135238970Y-127231667D01*
X135425182Y-127576061D01*
X135540957Y-127950066D01*
X135582851Y-128348661D01*
X135567794Y-128616653D01*
X135550415Y-128808303D01*
X135550633Y-128838215D01*
X135548373Y-128868061D01*
X135548589Y-128875478D01*
X135573247Y-129558112D01*
X135579677Y-129605868D01*
X135585435Y-129653662D01*
X135587087Y-129660896D01*
X135743866Y-130325741D01*
X135759437Y-130371302D01*
X135774380Y-130417103D01*
X135777406Y-130423878D01*
X136060335Y-131045611D01*
X136084466Y-131087292D01*
X136108014Y-131129307D01*
X136112293Y-131135357D01*
X136112298Y-131135365D01*
X136112303Y-131135371D01*
X136510602Y-131690302D01*
X136542370Y-131726502D01*
X136573628Y-131763142D01*
X136579003Y-131768247D01*
X136579008Y-131768253D01*
X136579014Y-131768258D01*
X137077512Y-132235257D01*
X137115725Y-132264612D01*
X137153488Y-132294469D01*
X137159752Y-132298433D01*
X137159757Y-132298437D01*
X137159762Y-132298439D01*
X137739477Y-132659719D01*
X137782658Y-132681090D01*
X137825506Y-132703046D01*
X137832418Y-132705717D01*
X137832427Y-132705722D01*
X137832436Y-132705725D01*
X138471278Y-132947522D01*
X138517749Y-132960088D01*
X138564084Y-132973314D01*
X138571393Y-132974594D01*
X139245045Y-133087703D01*
X139293079Y-133091004D01*
X139341093Y-133094978D01*
X139348511Y-133094814D01*
X140031302Y-133074923D01*
X140079085Y-133068828D01*
X140126935Y-133063403D01*
X140134180Y-133061801D01*
X140800103Y-132909667D01*
X140845802Y-132894404D01*
X140891677Y-132879791D01*
X140898473Y-132876813D01*
X141522165Y-132598231D01*
X141564081Y-132574353D01*
X141606191Y-132551137D01*
X141612267Y-132546904D01*
X141612280Y-132546896D01*
X141612291Y-132546887D01*
X142169982Y-132152477D01*
X142206420Y-132120949D01*
X142243261Y-132089960D01*
X142248410Y-132084617D01*
X142718883Y-131589384D01*
X142748480Y-131551408D01*
X142778624Y-131513824D01*
X142782632Y-131507588D01*
X142782636Y-131507583D01*
X142782638Y-131507578D01*
X143147957Y-130930400D01*
X143169627Y-130887373D01*
X143191883Y-130844675D01*
X143194607Y-130837773D01*
X143440862Y-130200625D01*
X143453768Y-130154186D01*
X143467301Y-130108001D01*
X143468630Y-130100711D01*
X143468633Y-130100701D01*
X143468634Y-130100691D01*
X143568822Y-129528482D01*
X147628100Y-129528482D01*
X147628100Y-129805518D01*
X147682147Y-130077232D01*
X147788164Y-130333180D01*
X147942078Y-130563528D01*
X148137972Y-130759422D01*
X148368320Y-130913336D01*
X148624268Y-131019353D01*
X148895982Y-131073400D01*
X149173018Y-131073400D01*
X149444732Y-131019353D01*
X149700680Y-130913336D01*
X149931028Y-130759422D01*
X150126922Y-130563528D01*
X150280836Y-130333180D01*
X150386853Y-130077232D01*
X150440900Y-129805518D01*
X150440900Y-129528482D01*
X150428270Y-129464982D01*
X154105100Y-129464982D01*
X154105100Y-129742018D01*
X154159147Y-130013732D01*
X154265164Y-130269680D01*
X154419078Y-130500028D01*
X154614972Y-130695922D01*
X154845320Y-130849836D01*
X155101268Y-130955853D01*
X155372982Y-131009900D01*
X155650018Y-131009900D01*
X155921732Y-130955853D01*
X156177680Y-130849836D01*
X156408028Y-130695922D01*
X156603922Y-130500028D01*
X156757836Y-130269680D01*
X156863853Y-130013732D01*
X156917900Y-129742018D01*
X156917900Y-129464982D01*
X156863853Y-129193268D01*
X156757836Y-128937320D01*
X156603922Y-128706972D01*
X156408028Y-128511078D01*
X156177680Y-128357164D01*
X155921732Y-128251147D01*
X155650018Y-128197100D01*
X155372982Y-128197100D01*
X155101268Y-128251147D01*
X154845320Y-128357164D01*
X154614972Y-128511078D01*
X154419078Y-128706972D01*
X154265164Y-128937320D01*
X154159147Y-129193268D01*
X154105100Y-129464982D01*
X150428270Y-129464982D01*
X150386853Y-129256768D01*
X150280836Y-129000820D01*
X150126922Y-128770472D01*
X149931028Y-128574578D01*
X149700680Y-128420664D01*
X149444732Y-128314647D01*
X149173018Y-128260600D01*
X148895982Y-128260600D01*
X148624268Y-128314647D01*
X148368320Y-128420664D01*
X148137972Y-128574578D01*
X147942078Y-128770472D01*
X147788164Y-129000820D01*
X147682147Y-129256768D01*
X147628100Y-129528482D01*
X143568822Y-129528482D01*
X143586441Y-129427856D01*
X143590078Y-129379834D01*
X143594386Y-129331860D01*
X143594274Y-129324441D01*
X143579404Y-128652998D01*
X143579534Y-128651561D01*
X143579426Y-128644142D01*
X143569894Y-128200627D01*
X143637668Y-127815029D01*
X143779052Y-127449928D01*
X143988650Y-127119254D01*
X144258494Y-126835581D01*
X144578292Y-126609725D01*
X144935868Y-126450288D01*
X145326652Y-126361280D01*
X145586871Y-126344837D01*
X163767851Y-126344837D01*
X164180542Y-126385301D01*
X164555406Y-126498480D01*
X164901137Y-126682309D01*
X165204584Y-126929793D01*
X165454182Y-127231504D01*
X165640419Y-127575944D01*
X165756211Y-127950006D01*
X165797141Y-128339430D01*
X165761652Y-128729390D01*
X165651097Y-129105024D01*
X165460823Y-129468984D01*
X165409522Y-129543062D01*
X163682337Y-131842864D01*
X161835980Y-134042715D01*
X159873377Y-136139476D01*
X157800245Y-138127046D01*
X155622665Y-139999593D01*
X153344075Y-141753894D01*
X152199541Y-142563910D01*
X152176534Y-142581146D01*
X152154491Y-142599601D01*
X152133479Y-142619221D01*
X152113559Y-142639948D01*
X152094789Y-142661723D01*
X152077224Y-142684481D01*
X152060915Y-142708155D01*
X152045910Y-142732677D01*
X152032254Y-142757975D01*
X152029941Y-142762878D01*
X149835187Y-144187249D01*
X148353755Y-145038530D01*
X143343882Y-147543467D01*
X142140216Y-148071417D01*
X139447758Y-149082542D01*
X136704572Y-149946577D01*
X133918670Y-150661003D01*
X131098211Y-151223722D01*
X128251451Y-151633092D01*
X125386724Y-151887912D01*
X122512382Y-151987440D01*
X119636892Y-151931382D01*
X116764671Y-151719609D01*
X115754668Y-151607769D01*
X112905680Y-151186019D01*
X111608936Y-150921707D01*
X111672366Y-144023636D01*
X112027925Y-144023636D01*
X112027925Y-144202182D01*
X112062757Y-144377296D01*
X112131083Y-144542251D01*
X112230278Y-144690706D01*
X112356528Y-144816956D01*
X112504983Y-144916151D01*
X112669938Y-144984477D01*
X112845052Y-145019309D01*
X113023598Y-145019309D01*
X113198712Y-144984477D01*
X113363667Y-144916151D01*
X113512122Y-144816956D01*
X113638372Y-144690706D01*
X113737567Y-144542251D01*
X113805893Y-144377296D01*
X113840725Y-144202182D01*
X113840725Y-144023636D01*
X113805893Y-143848522D01*
X113737567Y-143683567D01*
X113638372Y-143535112D01*
X113512122Y-143408862D01*
X113363667Y-143309667D01*
X113198712Y-143241341D01*
X113023598Y-143206509D01*
X112845052Y-143206509D01*
X112669938Y-143241341D01*
X112504983Y-143309667D01*
X112356528Y-143408862D01*
X112230278Y-143535112D01*
X112131083Y-143683567D01*
X112062757Y-143848522D01*
X112027925Y-144023636D01*
X111672366Y-144023636D01*
X111689673Y-142141400D01*
X115132034Y-142141400D01*
X115132034Y-142891400D01*
X115144684Y-143019841D01*
X115182149Y-143143346D01*
X115242989Y-143257169D01*
X115324865Y-143356935D01*
X115424631Y-143438811D01*
X115538454Y-143499651D01*
X115661959Y-143537116D01*
X115790400Y-143549766D01*
X117940400Y-143549766D01*
X118068841Y-143537116D01*
X118192346Y-143499651D01*
X118306169Y-143438811D01*
X118330879Y-143418532D01*
X118349294Y-143440971D01*
X118384185Y-143469605D01*
X118402217Y-143487637D01*
X118340617Y-143602882D01*
X118288332Y-143775247D01*
X118270676Y-143954500D01*
X118288332Y-144133753D01*
X118340617Y-144306118D01*
X118425526Y-144464970D01*
X118539794Y-144604206D01*
X118679030Y-144718474D01*
X118837882Y-144803383D01*
X119010247Y-144855668D01*
X119179706Y-144872359D01*
X119163447Y-144902779D01*
X119131815Y-145007056D01*
X119121134Y-145115500D01*
X119121134Y-145460500D01*
X119131815Y-145568944D01*
X119163447Y-145673221D01*
X119214814Y-145769323D01*
X119283943Y-145853557D01*
X119368177Y-145922686D01*
X119464279Y-145974053D01*
X119568556Y-146005685D01*
X119677000Y-146016366D01*
X119972000Y-146016366D01*
X120080444Y-146005685D01*
X120184721Y-145974053D01*
X120280823Y-145922686D01*
X120309500Y-145899151D01*
X120338177Y-145922686D01*
X120434279Y-145974053D01*
X120538556Y-146005685D01*
X120647000Y-146016366D01*
X120740238Y-146016366D01*
X120732747Y-146034451D01*
X120705600Y-146170926D01*
X120705600Y-146296100D01*
X120643926Y-146296100D01*
X120507451Y-146323247D01*
X120378894Y-146376496D01*
X120263196Y-146453803D01*
X120164803Y-146552196D01*
X120087496Y-146667894D01*
X120034247Y-146796451D01*
X120007100Y-146932926D01*
X120007100Y-147072074D01*
X120034247Y-147208549D01*
X120087496Y-147337106D01*
X120164803Y-147452804D01*
X120263196Y-147551197D01*
X120378894Y-147628504D01*
X120507451Y-147681753D01*
X120556634Y-147691536D01*
X120556634Y-147808000D01*
X120567315Y-147916444D01*
X120598947Y-148020721D01*
X120606478Y-148034810D01*
X120527221Y-147992447D01*
X120422944Y-147960815D01*
X120314500Y-147950134D01*
X119969500Y-147950134D01*
X119861056Y-147960815D01*
X119756779Y-147992447D01*
X119660677Y-148043814D01*
X119576443Y-148112943D01*
X119507314Y-148197177D01*
X119455947Y-148293279D01*
X119424315Y-148397556D01*
X119413634Y-148506000D01*
X119413634Y-148801000D01*
X119424315Y-148909444D01*
X119455947Y-149013721D01*
X119507314Y-149109823D01*
X119576443Y-149194057D01*
X119660677Y-149263186D01*
X119756779Y-149314553D01*
X119861056Y-149346185D01*
X119969500Y-149356866D01*
X120314500Y-149356866D01*
X120422944Y-149346185D01*
X120527221Y-149314553D01*
X120623323Y-149263186D01*
X120707557Y-149194057D01*
X120713431Y-149186900D01*
X120738748Y-149186900D01*
X120803677Y-149240186D01*
X120899779Y-149291553D01*
X121004056Y-149323185D01*
X121112500Y-149333866D01*
X121457500Y-149333866D01*
X121565944Y-149323185D01*
X121670221Y-149291553D01*
X121766323Y-149240186D01*
X121850557Y-149171057D01*
X121919686Y-149086823D01*
X121971053Y-148990721D01*
X121974639Y-148978900D01*
X123433772Y-148978900D01*
X123392947Y-149055279D01*
X123361315Y-149159556D01*
X123350634Y-149268000D01*
X123350634Y-149563000D01*
X123361315Y-149671444D01*
X123392947Y-149775721D01*
X123444314Y-149871823D01*
X123513443Y-149956057D01*
X123597677Y-150025186D01*
X123693779Y-150076553D01*
X123798056Y-150108185D01*
X123906500Y-150118866D01*
X124251500Y-150118866D01*
X124359944Y-150108185D01*
X124464221Y-150076553D01*
X124489526Y-150063027D01*
X124517696Y-150091197D01*
X124633394Y-150168504D01*
X124761951Y-150221753D01*
X124898426Y-150248900D01*
X125037574Y-150248900D01*
X125174049Y-150221753D01*
X125302606Y-150168504D01*
X125418304Y-150091197D01*
X125516697Y-149992804D01*
X125594004Y-149877106D01*
X125647253Y-149748549D01*
X125674400Y-149612074D01*
X125674400Y-149472926D01*
X125647253Y-149336451D01*
X125594004Y-149207894D01*
X125516697Y-149092196D01*
X125501400Y-149076899D01*
X125501400Y-148962733D01*
X125576323Y-148922686D01*
X125660557Y-148853557D01*
X125729686Y-148769323D01*
X125781053Y-148673221D01*
X125812685Y-148568944D01*
X125823366Y-148460500D01*
X125823366Y-148165500D01*
X125812685Y-148057056D01*
X125781053Y-147952779D01*
X125729686Y-147856677D01*
X125706151Y-147828000D01*
X125729686Y-147799323D01*
X125781053Y-147703221D01*
X125812685Y-147598944D01*
X125823366Y-147490500D01*
X125823366Y-147195500D01*
X125812685Y-147087056D01*
X125781053Y-146982779D01*
X125729686Y-146886677D01*
X125660557Y-146802443D01*
X125628400Y-146776052D01*
X125628400Y-146433766D01*
X125673400Y-146433766D01*
X125713415Y-146431801D01*
X125714390Y-146431705D01*
X125793093Y-146416033D01*
X125794031Y-146415748D01*
X125867701Y-146385227D01*
X125868566Y-146384765D01*
X125934975Y-146340448D01*
X125935733Y-146339827D01*
X125992827Y-146282733D01*
X125993448Y-146281975D01*
X126037765Y-146215566D01*
X126038227Y-146214701D01*
X126068748Y-146141031D01*
X126069033Y-146140093D01*
X126084705Y-146061390D01*
X126084801Y-146060415D01*
X126086766Y-146020400D01*
X126086766Y-145828800D01*
X126149834Y-145828800D01*
X126155315Y-145884444D01*
X126186947Y-145988721D01*
X126238314Y-146084823D01*
X126307443Y-146169057D01*
X126391677Y-146238186D01*
X126487779Y-146289553D01*
X126592056Y-146321185D01*
X126700500Y-146331866D01*
X127045500Y-146331866D01*
X127153944Y-146321185D01*
X127258221Y-146289553D01*
X127354323Y-146238186D01*
X127438557Y-146169057D01*
X127503646Y-146089745D01*
X128689100Y-147275199D01*
X128689101Y-148356083D01*
X128689100Y-148356093D01*
X128689100Y-148495165D01*
X128556320Y-148550164D01*
X128325972Y-148704078D01*
X128130078Y-148899972D01*
X127976164Y-149130320D01*
X127870147Y-149386268D01*
X127816100Y-149657982D01*
X127816100Y-149935018D01*
X127870147Y-150206732D01*
X127976164Y-150462680D01*
X128130078Y-150693028D01*
X128325972Y-150888922D01*
X128556320Y-151042836D01*
X128812268Y-151148853D01*
X129083982Y-151202900D01*
X129361018Y-151202900D01*
X129632732Y-151148853D01*
X129888680Y-151042836D01*
X130119028Y-150888922D01*
X130314922Y-150693028D01*
X130468836Y-150462680D01*
X130574853Y-150206732D01*
X130628900Y-149935018D01*
X130628900Y-149657982D01*
X130574853Y-149386268D01*
X130468836Y-149130320D01*
X130314922Y-148899972D01*
X130119028Y-148704078D01*
X129888680Y-148550164D01*
X129755900Y-148495165D01*
X129755900Y-147080452D01*
X129758480Y-147054258D01*
X129749229Y-146960332D01*
X129748181Y-146949693D01*
X129717681Y-146849147D01*
X129668151Y-146756483D01*
X129601495Y-146675263D01*
X129581145Y-146658562D01*
X127753383Y-144830800D01*
X127853144Y-144830800D01*
X127972663Y-144950319D01*
X128001294Y-144985206D01*
X128036181Y-145013837D01*
X128036184Y-145013840D01*
X128140530Y-145099474D01*
X128299381Y-145184383D01*
X128471746Y-145236668D01*
X128651000Y-145254324D01*
X128830253Y-145236668D01*
X129002618Y-145184383D01*
X129161471Y-145099474D01*
X129259152Y-145019309D01*
X129265816Y-145013840D01*
X129265818Y-145013838D01*
X129300706Y-144985206D01*
X129329338Y-144950318D01*
X129618586Y-144661070D01*
X129673554Y-144690451D01*
X129797059Y-144727916D01*
X129925500Y-144740566D01*
X132075500Y-144740566D01*
X132203941Y-144727916D01*
X132327446Y-144690451D01*
X132441269Y-144629611D01*
X132451030Y-144621600D01*
X133488885Y-144621600D01*
X133533800Y-144626024D01*
X133578715Y-144621600D01*
X133578718Y-144621600D01*
X133713054Y-144608369D01*
X133885419Y-144556083D01*
X134044271Y-144471174D01*
X134183507Y-144356907D01*
X134212146Y-144322010D01*
X134345840Y-144188316D01*
X134431474Y-144083971D01*
X134516382Y-143925118D01*
X134568668Y-143752753D01*
X134586324Y-143573501D01*
X134568668Y-143394247D01*
X134516382Y-143221882D01*
X134431474Y-143063030D01*
X134317206Y-142923794D01*
X134177970Y-142809526D01*
X134019118Y-142724618D01*
X133846753Y-142672332D01*
X133667499Y-142654676D01*
X133488247Y-142672332D01*
X133315882Y-142724618D01*
X133188321Y-142792800D01*
X132451030Y-142792800D01*
X132441269Y-142784789D01*
X132327446Y-142723949D01*
X132203941Y-142686484D01*
X132075500Y-142673834D01*
X129925500Y-142673834D01*
X129797059Y-142686484D01*
X129673554Y-142723949D01*
X129668700Y-142726543D01*
X129265837Y-142323681D01*
X129237206Y-142288794D01*
X129202317Y-142260161D01*
X129202316Y-142260160D01*
X129097970Y-142174526D01*
X128939118Y-142089617D01*
X128766753Y-142037332D01*
X128587500Y-142019676D01*
X128587499Y-142019676D01*
X128408245Y-142037332D01*
X128308240Y-142067668D01*
X128235882Y-142089617D01*
X128235880Y-142089618D01*
X128077028Y-142174526D01*
X127972683Y-142260161D01*
X127937794Y-142288794D01*
X127909163Y-142323681D01*
X127247774Y-142985070D01*
X127212871Y-142956426D01*
X127054019Y-142871517D01*
X126881654Y-142819231D01*
X126747318Y-142806000D01*
X126747315Y-142806000D01*
X126702400Y-142801576D01*
X126657485Y-142806000D01*
X126085018Y-142806000D01*
X126086766Y-142770400D01*
X126086766Y-142370400D01*
X126084801Y-142330385D01*
X126084705Y-142329410D01*
X126069033Y-142250707D01*
X126068748Y-142249769D01*
X126038227Y-142176099D01*
X126037765Y-142175234D01*
X125993448Y-142108825D01*
X125992827Y-142108067D01*
X125935733Y-142050973D01*
X125934975Y-142050352D01*
X125868566Y-142006035D01*
X125867701Y-142005573D01*
X125794031Y-141975052D01*
X125793093Y-141974767D01*
X125714390Y-141959095D01*
X125713415Y-141958999D01*
X125673400Y-141957034D01*
X125486110Y-141957034D01*
X125484801Y-141930385D01*
X125484705Y-141929410D01*
X125469033Y-141850707D01*
X125468748Y-141849769D01*
X125438227Y-141776099D01*
X125437765Y-141775234D01*
X125393448Y-141708825D01*
X125392827Y-141708067D01*
X125362923Y-141678163D01*
X127432264Y-140965766D01*
X128223400Y-140965766D01*
X128303068Y-140957919D01*
X128379675Y-140934681D01*
X128450276Y-140896944D01*
X128512158Y-140846158D01*
X128562944Y-140784276D01*
X128600681Y-140713675D01*
X128623919Y-140637068D01*
X128631766Y-140557400D01*
X128631766Y-140208000D01*
X132494676Y-140208000D01*
X132512332Y-140387253D01*
X132564617Y-140559618D01*
X132649526Y-140718470D01*
X132735160Y-140822816D01*
X133693658Y-141781315D01*
X133722293Y-141816207D01*
X133861529Y-141930474D01*
X134020381Y-142015383D01*
X134192746Y-142067669D01*
X134327082Y-142080900D01*
X134327085Y-142080900D01*
X134372000Y-142085324D01*
X134385268Y-142084017D01*
X134391231Y-142088911D01*
X134505054Y-142149751D01*
X134628559Y-142187216D01*
X134757000Y-142199866D01*
X136007000Y-142199866D01*
X136135441Y-142187216D01*
X136258946Y-142149751D01*
X136354526Y-142098662D01*
X138516735Y-142137820D01*
X138537889Y-142139303D01*
X138561626Y-142138633D01*
X138585353Y-142139063D01*
X138606482Y-142137368D01*
X140176601Y-142093068D01*
X140176601Y-142315634D01*
X137118000Y-142315634D01*
X137038332Y-142323481D01*
X136961725Y-142346719D01*
X136891124Y-142384456D01*
X136829242Y-142435242D01*
X136778456Y-142497124D01*
X136740719Y-142567725D01*
X136717481Y-142644332D01*
X136709634Y-142724000D01*
X136709634Y-145324000D01*
X136717481Y-145403668D01*
X136740719Y-145480275D01*
X136778456Y-145550876D01*
X136829242Y-145612758D01*
X136891124Y-145663544D01*
X136961725Y-145701281D01*
X137038332Y-145724519D01*
X137118000Y-145732366D01*
X145318000Y-145732366D01*
X145397668Y-145724519D01*
X145474275Y-145701281D01*
X145544876Y-145663544D01*
X145606758Y-145612758D01*
X145657544Y-145550876D01*
X145695281Y-145480275D01*
X145718519Y-145403668D01*
X145726366Y-145324000D01*
X145726366Y-142724000D01*
X145718519Y-142644332D01*
X145695281Y-142567725D01*
X145657544Y-142497124D01*
X145606758Y-142435242D01*
X145544876Y-142384456D01*
X145474275Y-142346719D01*
X145397668Y-142323481D01*
X145318000Y-142315634D01*
X144378224Y-142315634D01*
X144380081Y-142313371D01*
X144476782Y-142132456D01*
X144536330Y-141936150D01*
X144556437Y-141732001D01*
X144536330Y-141527851D01*
X144476782Y-141331546D01*
X144427342Y-141239050D01*
X144428824Y-141224000D01*
X144411169Y-141044746D01*
X144358883Y-140872381D01*
X144273974Y-140713529D01*
X144159707Y-140574293D01*
X144020471Y-140460026D01*
X143861619Y-140375117D01*
X143689254Y-140322831D01*
X143554918Y-140309600D01*
X140925668Y-140309600D01*
X140922538Y-140308039D01*
X140848099Y-140287732D01*
X140774253Y-140265332D01*
X140761313Y-140264057D01*
X140748767Y-140260635D01*
X140671792Y-140255240D01*
X140595000Y-140247676D01*
X140537231Y-140253366D01*
X138552376Y-140309367D01*
X136404922Y-140270476D01*
X136372769Y-140244089D01*
X136258946Y-140183249D01*
X136135441Y-140145784D01*
X136007000Y-140133134D01*
X134757000Y-140133134D01*
X134643017Y-140144360D01*
X134028316Y-139529660D01*
X133923970Y-139444026D01*
X133765118Y-139359117D01*
X133592753Y-139306832D01*
X133413500Y-139289176D01*
X133234247Y-139306832D01*
X133061882Y-139359117D01*
X132903030Y-139444026D01*
X132763794Y-139558294D01*
X132649526Y-139697530D01*
X132564617Y-139856382D01*
X132512332Y-140028747D01*
X132494676Y-140208000D01*
X128631766Y-140208000D01*
X128631766Y-138177400D01*
X128623919Y-138097732D01*
X128600681Y-138021125D01*
X128562944Y-137950524D01*
X128512158Y-137888642D01*
X128450276Y-137837856D01*
X128379675Y-137800119D01*
X128303068Y-137776881D01*
X128223400Y-137769034D01*
X119223400Y-137769034D01*
X119143732Y-137776881D01*
X119067125Y-137800119D01*
X118996524Y-137837856D01*
X118934642Y-137888642D01*
X118883856Y-137950524D01*
X118846119Y-138021125D01*
X118822881Y-138097732D01*
X118815034Y-138177400D01*
X118815034Y-140557400D01*
X118822881Y-140637068D01*
X118846119Y-140713675D01*
X118883856Y-140784276D01*
X118934642Y-140846158D01*
X118996524Y-140896944D01*
X119067125Y-140934681D01*
X119143732Y-140957919D01*
X119223400Y-140965766D01*
X120062895Y-140965766D01*
X122124692Y-141641765D01*
X122111825Y-141650352D01*
X122111067Y-141650973D01*
X122053973Y-141708067D01*
X122053352Y-141708825D01*
X122009035Y-141775234D01*
X122008573Y-141776099D01*
X121978052Y-141849769D01*
X121977767Y-141850707D01*
X121962095Y-141929410D01*
X121961999Y-141930385D01*
X121960690Y-141957034D01*
X121773400Y-141957034D01*
X121733385Y-141958999D01*
X121732410Y-141959095D01*
X121653707Y-141974767D01*
X121652769Y-141975052D01*
X121579099Y-142005573D01*
X121578234Y-142006035D01*
X121511825Y-142050352D01*
X121511067Y-142050973D01*
X121453973Y-142108067D01*
X121453352Y-142108825D01*
X121409035Y-142175234D01*
X121408573Y-142176099D01*
X121378052Y-142249769D01*
X121377767Y-142250707D01*
X121362095Y-142329410D01*
X121361999Y-142330385D01*
X121360034Y-142370400D01*
X121360034Y-142770400D01*
X121361999Y-142810415D01*
X121362095Y-142811390D01*
X121377767Y-142890093D01*
X121378052Y-142891031D01*
X121408573Y-142964701D01*
X121409035Y-142965566D01*
X121453352Y-143031975D01*
X121453973Y-143032733D01*
X121481240Y-143060000D01*
X121381275Y-143060000D01*
X121255070Y-142956426D01*
X121096218Y-142871518D01*
X120923853Y-142819232D01*
X120744599Y-142801576D01*
X120565347Y-142819232D01*
X120392982Y-142871518D01*
X120379576Y-142878684D01*
X119913400Y-142412508D01*
X119913400Y-142411918D01*
X119917824Y-142367000D01*
X119904904Y-142235816D01*
X119900169Y-142187746D01*
X119847883Y-142015381D01*
X119762974Y-141856529D01*
X119648707Y-141717293D01*
X119608658Y-141684426D01*
X119509471Y-141603026D01*
X119350619Y-141518117D01*
X119178254Y-141465831D01*
X119043918Y-141452600D01*
X119043917Y-141452600D01*
X118999000Y-141448176D01*
X118954082Y-141452600D01*
X117059718Y-141452600D01*
X117014800Y-141448176D01*
X116969883Y-141452600D01*
X116969882Y-141452600D01*
X116835546Y-141465831D01*
X116778835Y-141483034D01*
X115790400Y-141483034D01*
X115661959Y-141495684D01*
X115538454Y-141533149D01*
X115424631Y-141593989D01*
X115324865Y-141675865D01*
X115242989Y-141775631D01*
X115182149Y-141889454D01*
X115144684Y-142012959D01*
X115132034Y-142141400D01*
X111689673Y-142141400D01*
X111735810Y-137124000D01*
X136709634Y-137124000D01*
X136709634Y-139724000D01*
X136717481Y-139803668D01*
X136740719Y-139880275D01*
X136778456Y-139950876D01*
X136829242Y-140012758D01*
X136891124Y-140063544D01*
X136961725Y-140101281D01*
X137038332Y-140124519D01*
X137118000Y-140132366D01*
X142329934Y-140132366D01*
X142396381Y-140167883D01*
X142568746Y-140220169D01*
X142703082Y-140233400D01*
X145706494Y-140233400D01*
X145722370Y-140285737D01*
X145780322Y-140394157D01*
X145858312Y-140489188D01*
X145953343Y-140567178D01*
X146041876Y-140614500D01*
X145953343Y-140661822D01*
X145858312Y-140739812D01*
X145780322Y-140834843D01*
X145722370Y-140943263D01*
X145686684Y-141060906D01*
X145674634Y-141183250D01*
X145674634Y-141620750D01*
X145686684Y-141743094D01*
X145722370Y-141860737D01*
X145780322Y-141969157D01*
X145858312Y-142064188D01*
X145953343Y-142142178D01*
X146061763Y-142200130D01*
X146179406Y-142235816D01*
X146301750Y-142247866D01*
X146469919Y-142247866D01*
X146558086Y-142336033D01*
X146578767Y-142361233D01*
X146679326Y-142443759D01*
X146794053Y-142505082D01*
X146918539Y-142542844D01*
X146988981Y-142549782D01*
X147048000Y-142555595D01*
X147080439Y-142552400D01*
X147226634Y-142552400D01*
X147226634Y-142672000D01*
X147234481Y-142751668D01*
X147257719Y-142828275D01*
X147295456Y-142898876D01*
X147346242Y-142960758D01*
X147408124Y-143011544D01*
X147478725Y-143049281D01*
X147555332Y-143072519D01*
X147635000Y-143080366D01*
X148285000Y-143080366D01*
X148364668Y-143072519D01*
X148441275Y-143049281D01*
X148511876Y-143011544D01*
X148573758Y-142960758D01*
X148624544Y-142898876D01*
X148662281Y-142828275D01*
X148685519Y-142751668D01*
X148693366Y-142672000D01*
X148693366Y-141112000D01*
X149126634Y-141112000D01*
X149126634Y-142672000D01*
X149134481Y-142751668D01*
X149157719Y-142828275D01*
X149195456Y-142898876D01*
X149246242Y-142960758D01*
X149308124Y-143011544D01*
X149378725Y-143049281D01*
X149455332Y-143072519D01*
X149535000Y-143080366D01*
X150185000Y-143080366D01*
X150264668Y-143072519D01*
X150341275Y-143049281D01*
X150411876Y-143011544D01*
X150473758Y-142960758D01*
X150524544Y-142898876D01*
X150562281Y-142828275D01*
X150585519Y-142751668D01*
X150593366Y-142672000D01*
X150593366Y-142571284D01*
X150630628Y-142627050D01*
X150742950Y-142739372D01*
X150875026Y-142827623D01*
X151021782Y-142888411D01*
X151177577Y-142919400D01*
X151336423Y-142919400D01*
X151492218Y-142888411D01*
X151638974Y-142827623D01*
X151771050Y-142739372D01*
X151883372Y-142627050D01*
X151971623Y-142494974D01*
X152032411Y-142348218D01*
X152063400Y-142192423D01*
X152063400Y-142033577D01*
X152032411Y-141877782D01*
X151971623Y-141731026D01*
X151883372Y-141598950D01*
X151771050Y-141486628D01*
X151638974Y-141398377D01*
X151492218Y-141337589D01*
X151336423Y-141306600D01*
X151177577Y-141306600D01*
X151021782Y-141337589D01*
X150909735Y-141384000D01*
X150593366Y-141384000D01*
X150593366Y-141112000D01*
X150585519Y-141032332D01*
X150562281Y-140955725D01*
X150524544Y-140885124D01*
X150473758Y-140823242D01*
X150411876Y-140772456D01*
X150341275Y-140734719D01*
X150264668Y-140711481D01*
X150185000Y-140703634D01*
X149535000Y-140703634D01*
X149455332Y-140711481D01*
X149378725Y-140734719D01*
X149308124Y-140772456D01*
X149246242Y-140823242D01*
X149195456Y-140885124D01*
X149157719Y-140955725D01*
X149134481Y-141032332D01*
X149126634Y-141112000D01*
X148693366Y-141112000D01*
X148685519Y-141032332D01*
X148662281Y-140955725D01*
X148624544Y-140885124D01*
X148573758Y-140823242D01*
X148511876Y-140772456D01*
X148441275Y-140734719D01*
X148364668Y-140711481D01*
X148285000Y-140703634D01*
X147635000Y-140703634D01*
X147555332Y-140711481D01*
X147478725Y-140734719D01*
X147408124Y-140772456D01*
X147346242Y-140823242D01*
X147336089Y-140835613D01*
X147335678Y-140834843D01*
X147257688Y-140739812D01*
X147162657Y-140661822D01*
X147074124Y-140614500D01*
X147162657Y-140567178D01*
X147257688Y-140489188D01*
X147335678Y-140394157D01*
X147388461Y-140295407D01*
X147408124Y-140311544D01*
X147478725Y-140349281D01*
X147555332Y-140372519D01*
X147635000Y-140380366D01*
X148285000Y-140380366D01*
X148364668Y-140372519D01*
X148435000Y-140351184D01*
X148505332Y-140372519D01*
X148585000Y-140380366D01*
X149235000Y-140380366D01*
X149314668Y-140372519D01*
X149385000Y-140351184D01*
X149455332Y-140372519D01*
X149535000Y-140380366D01*
X150185000Y-140380366D01*
X150264668Y-140372519D01*
X150341275Y-140349281D01*
X150411876Y-140311544D01*
X150473758Y-140260758D01*
X150524544Y-140198876D01*
X150562281Y-140128275D01*
X150585519Y-140051668D01*
X150593366Y-139972000D01*
X150593366Y-138412000D01*
X150585519Y-138332332D01*
X150562281Y-138255725D01*
X150524544Y-138185124D01*
X150520400Y-138180075D01*
X150520400Y-137947400D01*
X150562569Y-137947400D01*
X150594812Y-137986688D01*
X150689843Y-138064678D01*
X150798263Y-138122630D01*
X150915906Y-138158316D01*
X151038250Y-138170366D01*
X151475750Y-138170366D01*
X151598094Y-138158316D01*
X151715737Y-138122630D01*
X151824157Y-138064678D01*
X151919188Y-137986688D01*
X151997178Y-137891657D01*
X152055130Y-137783237D01*
X152090816Y-137665594D01*
X152102866Y-137543250D01*
X152102866Y-137030750D01*
X152090816Y-136908406D01*
X152055130Y-136790763D01*
X151997178Y-136682343D01*
X151955400Y-136631436D01*
X151955400Y-136273655D01*
X151957188Y-136272188D01*
X152035178Y-136177157D01*
X152093130Y-136068737D01*
X152128816Y-135951094D01*
X152140866Y-135828750D01*
X152140866Y-135316250D01*
X152128816Y-135193906D01*
X152093130Y-135076263D01*
X152035178Y-134967843D01*
X151957188Y-134872812D01*
X151862157Y-134794822D01*
X151753737Y-134736870D01*
X151636094Y-134701184D01*
X151513750Y-134689134D01*
X151076250Y-134689134D01*
X150953906Y-134701184D01*
X150836263Y-134736870D01*
X150727843Y-134794822D01*
X150632812Y-134872812D01*
X150554822Y-134967843D01*
X150496870Y-135076263D01*
X150461184Y-135193906D01*
X150449134Y-135316250D01*
X150449134Y-135828750D01*
X150461184Y-135951094D01*
X150496870Y-136068737D01*
X150554822Y-136177157D01*
X150632812Y-136272188D01*
X150634600Y-136273656D01*
X150634601Y-136554658D01*
X150594812Y-136587312D01*
X150562569Y-136626600D01*
X150177302Y-136626600D01*
X150105372Y-136518950D01*
X149993050Y-136406628D01*
X149860974Y-136318377D01*
X149714218Y-136257589D01*
X149558423Y-136226600D01*
X149399577Y-136226600D01*
X149243782Y-136257589D01*
X149097026Y-136318377D01*
X148964950Y-136406628D01*
X148852628Y-136518950D01*
X148764377Y-136651026D01*
X148703589Y-136797782D01*
X148684549Y-136893505D01*
X148465967Y-137112087D01*
X148440768Y-137132767D01*
X148358242Y-137233326D01*
X148329581Y-137286947D01*
X148296918Y-137348054D01*
X148259156Y-137472540D01*
X148246405Y-137602000D01*
X148249601Y-137634448D01*
X148249601Y-138003634D01*
X147635000Y-138003634D01*
X147555332Y-138011481D01*
X147478725Y-138034719D01*
X147408124Y-138072456D01*
X147346242Y-138123242D01*
X147295456Y-138185124D01*
X147257719Y-138255725D01*
X147234481Y-138332332D01*
X147226634Y-138412000D01*
X147226634Y-138531600D01*
X147225439Y-138531600D01*
X147193000Y-138528405D01*
X147160561Y-138531600D01*
X147151644Y-138531600D01*
X147036619Y-138470117D01*
X146864254Y-138417831D01*
X146729918Y-138404600D01*
X145726366Y-138404600D01*
X145726366Y-137124000D01*
X145718519Y-137044332D01*
X145695281Y-136967725D01*
X145657544Y-136897124D01*
X145606758Y-136835242D01*
X145544876Y-136784456D01*
X145474275Y-136746719D01*
X145397668Y-136723481D01*
X145318000Y-136715634D01*
X137118000Y-136715634D01*
X137038332Y-136723481D01*
X136961725Y-136746719D01*
X136891124Y-136784456D01*
X136829242Y-136835242D01*
X136778456Y-136897124D01*
X136740719Y-136967725D01*
X136717481Y-137044332D01*
X136709634Y-137124000D01*
X111735810Y-137124000D01*
X111788031Y-131445000D01*
X115667176Y-131445000D01*
X115684831Y-131624254D01*
X115737117Y-131796619D01*
X115822026Y-131955471D01*
X115936293Y-132094707D01*
X115971189Y-132123346D01*
X116389110Y-132541266D01*
X116385370Y-132548263D01*
X116349684Y-132665906D01*
X116337634Y-132788250D01*
X116337634Y-133225750D01*
X116349684Y-133348094D01*
X116385370Y-133465737D01*
X116443322Y-133574157D01*
X116521312Y-133669188D01*
X116616343Y-133747178D01*
X116724763Y-133805130D01*
X116842406Y-133840816D01*
X116964750Y-133852866D01*
X117054237Y-133852866D01*
X117059881Y-133855883D01*
X117232246Y-133908169D01*
X117411500Y-133925824D01*
X117456417Y-133921400D01*
X117841585Y-133921400D01*
X117886500Y-133925824D01*
X117931415Y-133921400D01*
X118816413Y-133921400D01*
X118822881Y-133987068D01*
X118846119Y-134063675D01*
X118883856Y-134134276D01*
X118934642Y-134196158D01*
X118996524Y-134246944D01*
X119067125Y-134284681D01*
X119143732Y-134307919D01*
X119223400Y-134315766D01*
X121292081Y-134315766D01*
X121269156Y-134391340D01*
X121258686Y-134497642D01*
X121240747Y-134540951D01*
X121213600Y-134677426D01*
X121213600Y-134816574D01*
X121240747Y-134953049D01*
X121293996Y-135081606D01*
X121371303Y-135197304D01*
X121469696Y-135295697D01*
X121585394Y-135373004D01*
X121713951Y-135426253D01*
X121850426Y-135453400D01*
X121989574Y-135453400D01*
X122126049Y-135426253D01*
X122254606Y-135373004D01*
X122370304Y-135295697D01*
X122468697Y-135197304D01*
X122546004Y-135081606D01*
X122599253Y-134953049D01*
X122626400Y-134816574D01*
X122626400Y-134748346D01*
X123058980Y-134315766D01*
X128223400Y-134315766D01*
X128303068Y-134307919D01*
X128379675Y-134284681D01*
X128450276Y-134246944D01*
X128512158Y-134196158D01*
X128562944Y-134134276D01*
X128600681Y-134063675D01*
X128623919Y-133987068D01*
X128631766Y-133907400D01*
X128631766Y-133667400D01*
X130066582Y-133667400D01*
X130111500Y-133671824D01*
X130156417Y-133667400D01*
X130156418Y-133667400D01*
X130290754Y-133654169D01*
X130463119Y-133601883D01*
X130468763Y-133598866D01*
X130748750Y-133598866D01*
X130871094Y-133586816D01*
X130988737Y-133551130D01*
X131097157Y-133493178D01*
X131192188Y-133415188D01*
X131270178Y-133320157D01*
X131328130Y-133211737D01*
X131363816Y-133094094D01*
X131375866Y-132971750D01*
X131375866Y-132534250D01*
X131363816Y-132411906D01*
X131328130Y-132294263D01*
X131280153Y-132204504D01*
X131551840Y-131932817D01*
X131637474Y-131828471D01*
X131722383Y-131669619D01*
X131774668Y-131497254D01*
X131792324Y-131318000D01*
X131774668Y-131138747D01*
X131722383Y-130966382D01*
X131637474Y-130807529D01*
X131523206Y-130668294D01*
X131383971Y-130554026D01*
X131225118Y-130469117D01*
X131052753Y-130416832D01*
X130873500Y-130399176D01*
X130694246Y-130416832D01*
X130521881Y-130469117D01*
X130363029Y-130554026D01*
X130258683Y-130639660D01*
X130103260Y-130795083D01*
X130065383Y-130748930D01*
X130019158Y-130688878D01*
X130008335Y-130679416D01*
X129999207Y-130668293D01*
X129940610Y-130620204D01*
X129883555Y-130570322D01*
X129871086Y-130563148D01*
X129859970Y-130554026D01*
X129793122Y-130518295D01*
X129727428Y-130480500D01*
X129713807Y-130475899D01*
X129701118Y-130469117D01*
X129628570Y-130447110D01*
X129556779Y-130422862D01*
X129542519Y-130421007D01*
X129528753Y-130416831D01*
X129453304Y-130409400D01*
X129378163Y-130399624D01*
X129363818Y-130400586D01*
X129349500Y-130399176D01*
X129274052Y-130406607D01*
X129198447Y-130411678D01*
X129184563Y-130415421D01*
X129170246Y-130416831D01*
X129097693Y-130438840D01*
X129024534Y-130458562D01*
X129011649Y-130464941D01*
X128997881Y-130469117D01*
X128931028Y-130504851D01*
X128863110Y-130538473D01*
X128851712Y-130547247D01*
X128839029Y-130554026D01*
X128780430Y-130602117D01*
X128720378Y-130648342D01*
X128710916Y-130659165D01*
X128699793Y-130668293D01*
X128651704Y-130726890D01*
X128601822Y-130783945D01*
X128594648Y-130796414D01*
X128585526Y-130807530D01*
X128549795Y-130874378D01*
X128540160Y-130891126D01*
X128458028Y-130935026D01*
X128387833Y-130992634D01*
X128318793Y-131049293D01*
X128290158Y-131084185D01*
X128252448Y-131121895D01*
X128223400Y-131119034D01*
X119223400Y-131119034D01*
X119143732Y-131126881D01*
X119100063Y-131140127D01*
X119085883Y-131093381D01*
X119000974Y-130934529D01*
X118886707Y-130795293D01*
X118747471Y-130681026D01*
X118588619Y-130596117D01*
X118416254Y-130543831D01*
X118281918Y-130530600D01*
X118281917Y-130530600D01*
X118237000Y-130526176D01*
X118236999Y-130526176D01*
X118220927Y-130527759D01*
X118192082Y-130530600D01*
X116630915Y-130530600D01*
X116586000Y-130526176D01*
X116541085Y-130530600D01*
X116541082Y-130530600D01*
X116406746Y-130543831D01*
X116234381Y-130596117D01*
X116075529Y-130681026D01*
X115936293Y-130795293D01*
X115822026Y-130934529D01*
X115737117Y-131093381D01*
X115684831Y-131265746D01*
X115667176Y-131445000D01*
X111788031Y-131445000D01*
X111821420Y-127813982D01*
X113909600Y-127813982D01*
X113909600Y-128091018D01*
X113963647Y-128362732D01*
X114069664Y-128618680D01*
X114223578Y-128849028D01*
X114419472Y-129044922D01*
X114649820Y-129198836D01*
X114905768Y-129304853D01*
X115177482Y-129358900D01*
X115454518Y-129358900D01*
X115726232Y-129304853D01*
X115982180Y-129198836D01*
X116212528Y-129044922D01*
X116408422Y-128849028D01*
X116562336Y-128618680D01*
X116668353Y-128362732D01*
X116722400Y-128091018D01*
X116722400Y-127813982D01*
X116668353Y-127542268D01*
X116562336Y-127286320D01*
X116408422Y-127055972D01*
X116212528Y-126860078D01*
X115982180Y-126706164D01*
X115726232Y-126600147D01*
X115454518Y-126546100D01*
X115177482Y-126546100D01*
X114905768Y-126600147D01*
X114649820Y-126706164D01*
X114419472Y-126860078D01*
X114223578Y-127055972D01*
X114069664Y-127286320D01*
X113963647Y-127542268D01*
X113909600Y-127813982D01*
X111821420Y-127813982D01*
X111852989Y-124380917D01*
X111997730Y-124444303D01*
G04 #@! TA.AperFunction,Conductor*
D43*
G36*
X111997730Y-124444303D02*
G01*
X112000314Y-124445321D01*
X112002839Y-124446509D01*
X112034827Y-124458916D01*
X113947028Y-125130434D01*
X113949697Y-125131260D01*
X113952289Y-125132250D01*
X113985117Y-125142225D01*
X115942285Y-125668477D01*
X115945008Y-125669101D01*
X115947666Y-125669893D01*
X115981150Y-125677378D01*
X117972267Y-126055404D01*
X117975026Y-126055821D01*
X117977740Y-126056413D01*
X118011691Y-126061366D01*
X120025545Y-126289035D01*
X120028326Y-126289244D01*
X120031079Y-126289631D01*
X120065305Y-126292025D01*
X122075016Y-126367474D01*
X122085489Y-126368484D01*
X133550421Y-126344890D01*
X133965523Y-126385592D01*
X134340328Y-126498752D01*
X134686011Y-126682555D01*
X134989411Y-126930002D01*
X135238970Y-127231667D01*
X135425182Y-127576061D01*
X135540957Y-127950066D01*
X135582851Y-128348661D01*
X135567794Y-128616653D01*
X135550415Y-128808303D01*
X135550633Y-128838215D01*
X135548373Y-128868061D01*
X135548589Y-128875478D01*
X135573247Y-129558112D01*
X135579677Y-129605868D01*
X135585435Y-129653662D01*
X135587087Y-129660896D01*
X135743866Y-130325741D01*
X135759437Y-130371302D01*
X135774380Y-130417103D01*
X135777406Y-130423878D01*
X136060335Y-131045611D01*
X136084466Y-131087292D01*
X136108014Y-131129307D01*
X136112293Y-131135357D01*
X136112298Y-131135365D01*
X136112303Y-131135371D01*
X136510602Y-131690302D01*
X136542370Y-131726502D01*
X136573628Y-131763142D01*
X136579003Y-131768247D01*
X136579008Y-131768253D01*
X136579014Y-131768258D01*
X137077512Y-132235257D01*
X137115725Y-132264612D01*
X137153488Y-132294469D01*
X137159752Y-132298433D01*
X137159757Y-132298437D01*
X137159762Y-132298439D01*
X137739477Y-132659719D01*
X137782658Y-132681090D01*
X137825506Y-132703046D01*
X137832418Y-132705717D01*
X137832427Y-132705722D01*
X137832436Y-132705725D01*
X138471278Y-132947522D01*
X138517749Y-132960088D01*
X138564084Y-132973314D01*
X138571393Y-132974594D01*
X139245045Y-133087703D01*
X139293079Y-133091004D01*
X139341093Y-133094978D01*
X139348511Y-133094814D01*
X140031302Y-133074923D01*
X140079085Y-133068828D01*
X140126935Y-133063403D01*
X140134180Y-133061801D01*
X140800103Y-132909667D01*
X140845802Y-132894404D01*
X140891677Y-132879791D01*
X140898473Y-132876813D01*
X141522165Y-132598231D01*
X141564081Y-132574353D01*
X141606191Y-132551137D01*
X141612267Y-132546904D01*
X141612280Y-132546896D01*
X141612291Y-132546887D01*
X142169982Y-132152477D01*
X142206420Y-132120949D01*
X142243261Y-132089960D01*
X142248410Y-132084617D01*
X142718883Y-131589384D01*
X142748480Y-131551408D01*
X142778624Y-131513824D01*
X142782632Y-131507588D01*
X142782636Y-131507583D01*
X142782638Y-131507578D01*
X143147957Y-130930400D01*
X143169627Y-130887373D01*
X143191883Y-130844675D01*
X143194607Y-130837773D01*
X143440862Y-130200625D01*
X143453768Y-130154186D01*
X143467301Y-130108001D01*
X143468630Y-130100711D01*
X143468633Y-130100701D01*
X143468634Y-130100691D01*
X143568822Y-129528482D01*
X147628100Y-129528482D01*
X147628100Y-129805518D01*
X147682147Y-130077232D01*
X147788164Y-130333180D01*
X147942078Y-130563528D01*
X148137972Y-130759422D01*
X148368320Y-130913336D01*
X148624268Y-131019353D01*
X148895982Y-131073400D01*
X149173018Y-131073400D01*
X149444732Y-131019353D01*
X149700680Y-130913336D01*
X149931028Y-130759422D01*
X150126922Y-130563528D01*
X150280836Y-130333180D01*
X150386853Y-130077232D01*
X150440900Y-129805518D01*
X150440900Y-129528482D01*
X150428270Y-129464982D01*
X154105100Y-129464982D01*
X154105100Y-129742018D01*
X154159147Y-130013732D01*
X154265164Y-130269680D01*
X154419078Y-130500028D01*
X154614972Y-130695922D01*
X154845320Y-130849836D01*
X155101268Y-130955853D01*
X155372982Y-131009900D01*
X155650018Y-131009900D01*
X155921732Y-130955853D01*
X156177680Y-130849836D01*
X156408028Y-130695922D01*
X156603922Y-130500028D01*
X156757836Y-130269680D01*
X156863853Y-130013732D01*
X156917900Y-129742018D01*
X156917900Y-129464982D01*
X156863853Y-129193268D01*
X156757836Y-128937320D01*
X156603922Y-128706972D01*
X156408028Y-128511078D01*
X156177680Y-128357164D01*
X155921732Y-128251147D01*
X155650018Y-128197100D01*
X155372982Y-128197100D01*
X155101268Y-128251147D01*
X154845320Y-128357164D01*
X154614972Y-128511078D01*
X154419078Y-128706972D01*
X154265164Y-128937320D01*
X154159147Y-129193268D01*
X154105100Y-129464982D01*
X150428270Y-129464982D01*
X150386853Y-129256768D01*
X150280836Y-129000820D01*
X150126922Y-128770472D01*
X149931028Y-128574578D01*
X149700680Y-128420664D01*
X149444732Y-128314647D01*
X149173018Y-128260600D01*
X148895982Y-128260600D01*
X148624268Y-128314647D01*
X148368320Y-128420664D01*
X148137972Y-128574578D01*
X147942078Y-128770472D01*
X147788164Y-129000820D01*
X147682147Y-129256768D01*
X147628100Y-129528482D01*
X143568822Y-129528482D01*
X143586441Y-129427856D01*
X143590078Y-129379834D01*
X143594386Y-129331860D01*
X143594274Y-129324441D01*
X143579404Y-128652998D01*
X143579534Y-128651561D01*
X143579426Y-128644142D01*
X143569894Y-128200627D01*
X143637668Y-127815029D01*
X143779052Y-127449928D01*
X143988650Y-127119254D01*
X144258494Y-126835581D01*
X144578292Y-126609725D01*
X144935868Y-126450288D01*
X145326652Y-126361280D01*
X145586871Y-126344837D01*
X163767851Y-126344837D01*
X164180542Y-126385301D01*
X164555406Y-126498480D01*
X164901137Y-126682309D01*
X165204584Y-126929793D01*
X165454182Y-127231504D01*
X165640419Y-127575944D01*
X165756211Y-127950006D01*
X165797141Y-128339430D01*
X165761652Y-128729390D01*
X165651097Y-129105024D01*
X165460823Y-129468984D01*
X165409522Y-129543062D01*
X163682337Y-131842864D01*
X161835980Y-134042715D01*
X159873377Y-136139476D01*
X157800245Y-138127046D01*
X155622665Y-139999593D01*
X153344075Y-141753894D01*
X152199541Y-142563910D01*
X152176534Y-142581146D01*
X152154491Y-142599601D01*
X152133479Y-142619221D01*
X152113559Y-142639948D01*
X152094789Y-142661723D01*
X152077224Y-142684481D01*
X152060915Y-142708155D01*
X152045910Y-142732677D01*
X152032254Y-142757975D01*
X152029941Y-142762878D01*
X149835187Y-144187249D01*
X148353755Y-145038530D01*
X143343882Y-147543467D01*
X142140216Y-148071417D01*
X139447758Y-149082542D01*
X136704572Y-149946577D01*
X133918670Y-150661003D01*
X131098211Y-151223722D01*
X128251451Y-151633092D01*
X125386724Y-151887912D01*
X122512382Y-151987440D01*
X119636892Y-151931382D01*
X116764671Y-151719609D01*
X115754668Y-151607769D01*
X112905680Y-151186019D01*
X111608936Y-150921707D01*
X111672366Y-144023636D01*
X112027925Y-144023636D01*
X112027925Y-144202182D01*
X112062757Y-144377296D01*
X112131083Y-144542251D01*
X112230278Y-144690706D01*
X112356528Y-144816956D01*
X112504983Y-144916151D01*
X112669938Y-144984477D01*
X112845052Y-145019309D01*
X113023598Y-145019309D01*
X113198712Y-144984477D01*
X113363667Y-144916151D01*
X113512122Y-144816956D01*
X113638372Y-144690706D01*
X113737567Y-144542251D01*
X113805893Y-144377296D01*
X113840725Y-144202182D01*
X113840725Y-144023636D01*
X113805893Y-143848522D01*
X113737567Y-143683567D01*
X113638372Y-143535112D01*
X113512122Y-143408862D01*
X113363667Y-143309667D01*
X113198712Y-143241341D01*
X113023598Y-143206509D01*
X112845052Y-143206509D01*
X112669938Y-143241341D01*
X112504983Y-143309667D01*
X112356528Y-143408862D01*
X112230278Y-143535112D01*
X112131083Y-143683567D01*
X112062757Y-143848522D01*
X112027925Y-144023636D01*
X111672366Y-144023636D01*
X111689673Y-142141400D01*
X115132034Y-142141400D01*
X115132034Y-142891400D01*
X115144684Y-143019841D01*
X115182149Y-143143346D01*
X115242989Y-143257169D01*
X115324865Y-143356935D01*
X115424631Y-143438811D01*
X115538454Y-143499651D01*
X115661959Y-143537116D01*
X115790400Y-143549766D01*
X117940400Y-143549766D01*
X118068841Y-143537116D01*
X118192346Y-143499651D01*
X118306169Y-143438811D01*
X118330879Y-143418532D01*
X118349294Y-143440971D01*
X118384185Y-143469605D01*
X118402217Y-143487637D01*
X118340617Y-143602882D01*
X118288332Y-143775247D01*
X118270676Y-143954500D01*
X118288332Y-144133753D01*
X118340617Y-144306118D01*
X118425526Y-144464970D01*
X118539794Y-144604206D01*
X118679030Y-144718474D01*
X118837882Y-144803383D01*
X119010247Y-144855668D01*
X119179706Y-144872359D01*
X119163447Y-144902779D01*
X119131815Y-145007056D01*
X119121134Y-145115500D01*
X119121134Y-145460500D01*
X119131815Y-145568944D01*
X119163447Y-145673221D01*
X119214814Y-145769323D01*
X119283943Y-145853557D01*
X119368177Y-145922686D01*
X119464279Y-145974053D01*
X119568556Y-146005685D01*
X119677000Y-146016366D01*
X119972000Y-146016366D01*
X120080444Y-146005685D01*
X120184721Y-145974053D01*
X120280823Y-145922686D01*
X120309500Y-145899151D01*
X120338177Y-145922686D01*
X120434279Y-145974053D01*
X120538556Y-146005685D01*
X120647000Y-146016366D01*
X120740238Y-146016366D01*
X120732747Y-146034451D01*
X120705600Y-146170926D01*
X120705600Y-146296100D01*
X120643926Y-146296100D01*
X120507451Y-146323247D01*
X120378894Y-146376496D01*
X120263196Y-146453803D01*
X120164803Y-146552196D01*
X120087496Y-146667894D01*
X120034247Y-146796451D01*
X120007100Y-146932926D01*
X120007100Y-147072074D01*
X120034247Y-147208549D01*
X120087496Y-147337106D01*
X120164803Y-147452804D01*
X120263196Y-147551197D01*
X120378894Y-147628504D01*
X120507451Y-147681753D01*
X120556634Y-147691536D01*
X120556634Y-147808000D01*
X120567315Y-147916444D01*
X120598947Y-148020721D01*
X120606478Y-148034810D01*
X120527221Y-147992447D01*
X120422944Y-147960815D01*
X120314500Y-147950134D01*
X119969500Y-147950134D01*
X119861056Y-147960815D01*
X119756779Y-147992447D01*
X119660677Y-148043814D01*
X119576443Y-148112943D01*
X119507314Y-148197177D01*
X119455947Y-148293279D01*
X119424315Y-148397556D01*
X119413634Y-148506000D01*
X119413634Y-148801000D01*
X119424315Y-148909444D01*
X119455947Y-149013721D01*
X119507314Y-149109823D01*
X119576443Y-149194057D01*
X119660677Y-149263186D01*
X119756779Y-149314553D01*
X119861056Y-149346185D01*
X119969500Y-149356866D01*
X120314500Y-149356866D01*
X120422944Y-149346185D01*
X120527221Y-149314553D01*
X120623323Y-149263186D01*
X120707557Y-149194057D01*
X120713431Y-149186900D01*
X120738748Y-149186900D01*
X120803677Y-149240186D01*
X120899779Y-149291553D01*
X121004056Y-149323185D01*
X121112500Y-149333866D01*
X121457500Y-149333866D01*
X121565944Y-149323185D01*
X121670221Y-149291553D01*
X121766323Y-149240186D01*
X121850557Y-149171057D01*
X121919686Y-149086823D01*
X121971053Y-148990721D01*
X121974639Y-148978900D01*
X123433772Y-148978900D01*
X123392947Y-149055279D01*
X123361315Y-149159556D01*
X123350634Y-149268000D01*
X123350634Y-149563000D01*
X123361315Y-149671444D01*
X123392947Y-149775721D01*
X123444314Y-149871823D01*
X123513443Y-149956057D01*
X123597677Y-150025186D01*
X123693779Y-150076553D01*
X123798056Y-150108185D01*
X123906500Y-150118866D01*
X124251500Y-150118866D01*
X124359944Y-150108185D01*
X124464221Y-150076553D01*
X124489526Y-150063027D01*
X124517696Y-150091197D01*
X124633394Y-150168504D01*
X124761951Y-150221753D01*
X124898426Y-150248900D01*
X125037574Y-150248900D01*
X125174049Y-150221753D01*
X125302606Y-150168504D01*
X125418304Y-150091197D01*
X125516697Y-149992804D01*
X125594004Y-149877106D01*
X125647253Y-149748549D01*
X125674400Y-149612074D01*
X125674400Y-149472926D01*
X125647253Y-149336451D01*
X125594004Y-149207894D01*
X125516697Y-149092196D01*
X125501400Y-149076899D01*
X125501400Y-148962733D01*
X125576323Y-148922686D01*
X125660557Y-148853557D01*
X125729686Y-148769323D01*
X125781053Y-148673221D01*
X125812685Y-148568944D01*
X125823366Y-148460500D01*
X125823366Y-148165500D01*
X125812685Y-148057056D01*
X125781053Y-147952779D01*
X125729686Y-147856677D01*
X125706151Y-147828000D01*
X125729686Y-147799323D01*
X125781053Y-147703221D01*
X125812685Y-147598944D01*
X125823366Y-147490500D01*
X125823366Y-147195500D01*
X125812685Y-147087056D01*
X125781053Y-146982779D01*
X125729686Y-146886677D01*
X125660557Y-146802443D01*
X125628400Y-146776052D01*
X125628400Y-146433766D01*
X125673400Y-146433766D01*
X125713415Y-146431801D01*
X125714390Y-146431705D01*
X125793093Y-146416033D01*
X125794031Y-146415748D01*
X125867701Y-146385227D01*
X125868566Y-146384765D01*
X125934975Y-146340448D01*
X125935733Y-146339827D01*
X125992827Y-146282733D01*
X125993448Y-146281975D01*
X126037765Y-146215566D01*
X126038227Y-146214701D01*
X126068748Y-146141031D01*
X126069033Y-146140093D01*
X126084705Y-146061390D01*
X126084801Y-146060415D01*
X126086766Y-146020400D01*
X126086766Y-145828800D01*
X126149834Y-145828800D01*
X126155315Y-145884444D01*
X126186947Y-145988721D01*
X126238314Y-146084823D01*
X126307443Y-146169057D01*
X126391677Y-146238186D01*
X126487779Y-146289553D01*
X126592056Y-146321185D01*
X126700500Y-146331866D01*
X127045500Y-146331866D01*
X127153944Y-146321185D01*
X127258221Y-146289553D01*
X127354323Y-146238186D01*
X127438557Y-146169057D01*
X127503646Y-146089745D01*
X128689100Y-147275199D01*
X128689101Y-148356083D01*
X128689100Y-148356093D01*
X128689100Y-148495165D01*
X128556320Y-148550164D01*
X128325972Y-148704078D01*
X128130078Y-148899972D01*
X127976164Y-149130320D01*
X127870147Y-149386268D01*
X127816100Y-149657982D01*
X127816100Y-149935018D01*
X127870147Y-150206732D01*
X127976164Y-150462680D01*
X128130078Y-150693028D01*
X128325972Y-150888922D01*
X128556320Y-151042836D01*
X128812268Y-151148853D01*
X129083982Y-151202900D01*
X129361018Y-151202900D01*
X129632732Y-151148853D01*
X129888680Y-151042836D01*
X130119028Y-150888922D01*
X130314922Y-150693028D01*
X130468836Y-150462680D01*
X130574853Y-150206732D01*
X130628900Y-149935018D01*
X130628900Y-149657982D01*
X130574853Y-149386268D01*
X130468836Y-149130320D01*
X130314922Y-148899972D01*
X130119028Y-148704078D01*
X129888680Y-148550164D01*
X129755900Y-148495165D01*
X129755900Y-147080452D01*
X129758480Y-147054258D01*
X129749229Y-146960332D01*
X129748181Y-146949693D01*
X129717681Y-146849147D01*
X129668151Y-146756483D01*
X129601495Y-146675263D01*
X129581145Y-146658562D01*
X127753383Y-144830800D01*
X127853144Y-144830800D01*
X127972663Y-144950319D01*
X128001294Y-144985206D01*
X128036181Y-145013837D01*
X128036184Y-145013840D01*
X128140530Y-145099474D01*
X128299381Y-145184383D01*
X128471746Y-145236668D01*
X128651000Y-145254324D01*
X128830253Y-145236668D01*
X129002618Y-145184383D01*
X129161471Y-145099474D01*
X129259152Y-145019309D01*
X129265816Y-145013840D01*
X129265818Y-145013838D01*
X129300706Y-144985206D01*
X129329338Y-144950318D01*
X129618586Y-144661070D01*
X129673554Y-144690451D01*
X129797059Y-144727916D01*
X129925500Y-144740566D01*
X132075500Y-144740566D01*
X132203941Y-144727916D01*
X132327446Y-144690451D01*
X132441269Y-144629611D01*
X132451030Y-144621600D01*
X133488885Y-144621600D01*
X133533800Y-144626024D01*
X133578715Y-144621600D01*
X133578718Y-144621600D01*
X133713054Y-144608369D01*
X133885419Y-144556083D01*
X134044271Y-144471174D01*
X134183507Y-144356907D01*
X134212146Y-144322010D01*
X134345840Y-144188316D01*
X134431474Y-144083971D01*
X134516382Y-143925118D01*
X134568668Y-143752753D01*
X134586324Y-143573501D01*
X134568668Y-143394247D01*
X134516382Y-143221882D01*
X134431474Y-143063030D01*
X134317206Y-142923794D01*
X134177970Y-142809526D01*
X134019118Y-142724618D01*
X133846753Y-142672332D01*
X133667499Y-142654676D01*
X133488247Y-142672332D01*
X133315882Y-142724618D01*
X133188321Y-142792800D01*
X132451030Y-142792800D01*
X132441269Y-142784789D01*
X132327446Y-142723949D01*
X132203941Y-142686484D01*
X132075500Y-142673834D01*
X129925500Y-142673834D01*
X129797059Y-142686484D01*
X129673554Y-142723949D01*
X129668700Y-142726543D01*
X129265837Y-142323681D01*
X129237206Y-142288794D01*
X129202317Y-142260161D01*
X129202316Y-142260160D01*
X129097970Y-142174526D01*
X128939118Y-142089617D01*
X128766753Y-142037332D01*
X128587500Y-142019676D01*
X128587499Y-142019676D01*
X128408245Y-142037332D01*
X128308240Y-142067668D01*
X128235882Y-142089617D01*
X128235880Y-142089618D01*
X128077028Y-142174526D01*
X127972683Y-142260161D01*
X127937794Y-142288794D01*
X127909163Y-142323681D01*
X127247774Y-142985070D01*
X127212871Y-142956426D01*
X127054019Y-142871517D01*
X126881654Y-142819231D01*
X126747318Y-142806000D01*
X126747315Y-142806000D01*
X126702400Y-142801576D01*
X126657485Y-142806000D01*
X126085018Y-142806000D01*
X126086766Y-142770400D01*
X126086766Y-142370400D01*
X126084801Y-142330385D01*
X126084705Y-142329410D01*
X126069033Y-142250707D01*
X126068748Y-142249769D01*
X126038227Y-142176099D01*
X126037765Y-142175234D01*
X125993448Y-142108825D01*
X125992827Y-142108067D01*
X125935733Y-142050973D01*
X125934975Y-142050352D01*
X125868566Y-142006035D01*
X125867701Y-142005573D01*
X125794031Y-141975052D01*
X125793093Y-141974767D01*
X125714390Y-141959095D01*
X125713415Y-141958999D01*
X125673400Y-141957034D01*
X125486110Y-141957034D01*
X125484801Y-141930385D01*
X125484705Y-141929410D01*
X125469033Y-141850707D01*
X125468748Y-141849769D01*
X125438227Y-141776099D01*
X125437765Y-141775234D01*
X125393448Y-141708825D01*
X125392827Y-141708067D01*
X125362923Y-141678163D01*
X127432264Y-140965766D01*
X128223400Y-140965766D01*
X128303068Y-140957919D01*
X128379675Y-140934681D01*
X128450276Y-140896944D01*
X128512158Y-140846158D01*
X128562944Y-140784276D01*
X128600681Y-140713675D01*
X128623919Y-140637068D01*
X128631766Y-140557400D01*
X128631766Y-140208000D01*
X132494676Y-140208000D01*
X132512332Y-140387253D01*
X132564617Y-140559618D01*
X132649526Y-140718470D01*
X132735160Y-140822816D01*
X133693658Y-141781315D01*
X133722293Y-141816207D01*
X133861529Y-141930474D01*
X134020381Y-142015383D01*
X134192746Y-142067669D01*
X134327082Y-142080900D01*
X134327085Y-142080900D01*
X134372000Y-142085324D01*
X134385268Y-142084017D01*
X134391231Y-142088911D01*
X134505054Y-142149751D01*
X134628559Y-142187216D01*
X134757000Y-142199866D01*
X136007000Y-142199866D01*
X136135441Y-142187216D01*
X136258946Y-142149751D01*
X136354526Y-142098662D01*
X138516735Y-142137820D01*
X138537889Y-142139303D01*
X138561626Y-142138633D01*
X138585353Y-142139063D01*
X138606482Y-142137368D01*
X140176601Y-142093068D01*
X140176601Y-142315634D01*
X137118000Y-142315634D01*
X137038332Y-142323481D01*
X136961725Y-142346719D01*
X136891124Y-142384456D01*
X136829242Y-142435242D01*
X136778456Y-142497124D01*
X136740719Y-142567725D01*
X136717481Y-142644332D01*
X136709634Y-142724000D01*
X136709634Y-145324000D01*
X136717481Y-145403668D01*
X136740719Y-145480275D01*
X136778456Y-145550876D01*
X136829242Y-145612758D01*
X136891124Y-145663544D01*
X136961725Y-145701281D01*
X137038332Y-145724519D01*
X137118000Y-145732366D01*
X145318000Y-145732366D01*
X145397668Y-145724519D01*
X145474275Y-145701281D01*
X145544876Y-145663544D01*
X145606758Y-145612758D01*
X145657544Y-145550876D01*
X145695281Y-145480275D01*
X145718519Y-145403668D01*
X145726366Y-145324000D01*
X145726366Y-142724000D01*
X145718519Y-142644332D01*
X145695281Y-142567725D01*
X145657544Y-142497124D01*
X145606758Y-142435242D01*
X145544876Y-142384456D01*
X145474275Y-142346719D01*
X145397668Y-142323481D01*
X145318000Y-142315634D01*
X144378224Y-142315634D01*
X144380081Y-142313371D01*
X144476782Y-142132456D01*
X144536330Y-141936150D01*
X144556437Y-141732001D01*
X144536330Y-141527851D01*
X144476782Y-141331546D01*
X144427342Y-141239050D01*
X144428824Y-141224000D01*
X144411169Y-141044746D01*
X144358883Y-140872381D01*
X144273974Y-140713529D01*
X144159707Y-140574293D01*
X144020471Y-140460026D01*
X143861619Y-140375117D01*
X143689254Y-140322831D01*
X143554918Y-140309600D01*
X140925668Y-140309600D01*
X140922538Y-140308039D01*
X140848099Y-140287732D01*
X140774253Y-140265332D01*
X140761313Y-140264057D01*
X140748767Y-140260635D01*
X140671792Y-140255240D01*
X140595000Y-140247676D01*
X140537231Y-140253366D01*
X138552376Y-140309367D01*
X136404922Y-140270476D01*
X136372769Y-140244089D01*
X136258946Y-140183249D01*
X136135441Y-140145784D01*
X136007000Y-140133134D01*
X134757000Y-140133134D01*
X134643017Y-140144360D01*
X134028316Y-139529660D01*
X133923970Y-139444026D01*
X133765118Y-139359117D01*
X133592753Y-139306832D01*
X133413500Y-139289176D01*
X133234247Y-139306832D01*
X133061882Y-139359117D01*
X132903030Y-139444026D01*
X132763794Y-139558294D01*
X132649526Y-139697530D01*
X132564617Y-139856382D01*
X132512332Y-140028747D01*
X132494676Y-140208000D01*
X128631766Y-140208000D01*
X128631766Y-138177400D01*
X128623919Y-138097732D01*
X128600681Y-138021125D01*
X128562944Y-137950524D01*
X128512158Y-137888642D01*
X128450276Y-137837856D01*
X128379675Y-137800119D01*
X128303068Y-137776881D01*
X128223400Y-137769034D01*
X119223400Y-137769034D01*
X119143732Y-137776881D01*
X119067125Y-137800119D01*
X118996524Y-137837856D01*
X118934642Y-137888642D01*
X118883856Y-137950524D01*
X118846119Y-138021125D01*
X118822881Y-138097732D01*
X118815034Y-138177400D01*
X118815034Y-140557400D01*
X118822881Y-140637068D01*
X118846119Y-140713675D01*
X118883856Y-140784276D01*
X118934642Y-140846158D01*
X118996524Y-140896944D01*
X119067125Y-140934681D01*
X119143732Y-140957919D01*
X119223400Y-140965766D01*
X120062895Y-140965766D01*
X122124692Y-141641765D01*
X122111825Y-141650352D01*
X122111067Y-141650973D01*
X122053973Y-141708067D01*
X122053352Y-141708825D01*
X122009035Y-141775234D01*
X122008573Y-141776099D01*
X121978052Y-141849769D01*
X121977767Y-141850707D01*
X121962095Y-141929410D01*
X121961999Y-141930385D01*
X121960690Y-141957034D01*
X121773400Y-141957034D01*
X121733385Y-141958999D01*
X121732410Y-141959095D01*
X121653707Y-141974767D01*
X121652769Y-141975052D01*
X121579099Y-142005573D01*
X121578234Y-142006035D01*
X121511825Y-142050352D01*
X121511067Y-142050973D01*
X121453973Y-142108067D01*
X121453352Y-142108825D01*
X121409035Y-142175234D01*
X121408573Y-142176099D01*
X121378052Y-142249769D01*
X121377767Y-142250707D01*
X121362095Y-142329410D01*
X121361999Y-142330385D01*
X121360034Y-142370400D01*
X121360034Y-142770400D01*
X121361999Y-142810415D01*
X121362095Y-142811390D01*
X121377767Y-142890093D01*
X121378052Y-142891031D01*
X121408573Y-142964701D01*
X121409035Y-142965566D01*
X121453352Y-143031975D01*
X121453973Y-143032733D01*
X121481240Y-143060000D01*
X121381275Y-143060000D01*
X121255070Y-142956426D01*
X121096218Y-142871518D01*
X120923853Y-142819232D01*
X120744599Y-142801576D01*
X120565347Y-142819232D01*
X120392982Y-142871518D01*
X120379576Y-142878684D01*
X119913400Y-142412508D01*
X119913400Y-142411918D01*
X119917824Y-142367000D01*
X119904904Y-142235816D01*
X119900169Y-142187746D01*
X119847883Y-142015381D01*
X119762974Y-141856529D01*
X119648707Y-141717293D01*
X119608658Y-141684426D01*
X119509471Y-141603026D01*
X119350619Y-141518117D01*
X119178254Y-141465831D01*
X119043918Y-141452600D01*
X119043917Y-141452600D01*
X118999000Y-141448176D01*
X118954082Y-141452600D01*
X117059718Y-141452600D01*
X117014800Y-141448176D01*
X116969883Y-141452600D01*
X116969882Y-141452600D01*
X116835546Y-141465831D01*
X116778835Y-141483034D01*
X115790400Y-141483034D01*
X115661959Y-141495684D01*
X115538454Y-141533149D01*
X115424631Y-141593989D01*
X115324865Y-141675865D01*
X115242989Y-141775631D01*
X115182149Y-141889454D01*
X115144684Y-142012959D01*
X115132034Y-142141400D01*
X111689673Y-142141400D01*
X111735810Y-137124000D01*
X136709634Y-137124000D01*
X136709634Y-139724000D01*
X136717481Y-139803668D01*
X136740719Y-139880275D01*
X136778456Y-139950876D01*
X136829242Y-140012758D01*
X136891124Y-140063544D01*
X136961725Y-140101281D01*
X137038332Y-140124519D01*
X137118000Y-140132366D01*
X142329934Y-140132366D01*
X142396381Y-140167883D01*
X142568746Y-140220169D01*
X142703082Y-140233400D01*
X145706494Y-140233400D01*
X145722370Y-140285737D01*
X145780322Y-140394157D01*
X145858312Y-140489188D01*
X145953343Y-140567178D01*
X146041876Y-140614500D01*
X145953343Y-140661822D01*
X145858312Y-140739812D01*
X145780322Y-140834843D01*
X145722370Y-140943263D01*
X145686684Y-141060906D01*
X145674634Y-141183250D01*
X145674634Y-141620750D01*
X145686684Y-141743094D01*
X145722370Y-141860737D01*
X145780322Y-141969157D01*
X145858312Y-142064188D01*
X145953343Y-142142178D01*
X146061763Y-142200130D01*
X146179406Y-142235816D01*
X146301750Y-142247866D01*
X146469919Y-142247866D01*
X146558086Y-142336033D01*
X146578767Y-142361233D01*
X146679326Y-142443759D01*
X146794053Y-142505082D01*
X146918539Y-142542844D01*
X146988981Y-142549782D01*
X147048000Y-142555595D01*
X147080439Y-142552400D01*
X147226634Y-142552400D01*
X147226634Y-142672000D01*
X147234481Y-142751668D01*
X147257719Y-142828275D01*
X147295456Y-142898876D01*
X147346242Y-142960758D01*
X147408124Y-143011544D01*
X147478725Y-143049281D01*
X147555332Y-143072519D01*
X147635000Y-143080366D01*
X148285000Y-143080366D01*
X148364668Y-143072519D01*
X148441275Y-143049281D01*
X148511876Y-143011544D01*
X148573758Y-142960758D01*
X148624544Y-142898876D01*
X148662281Y-142828275D01*
X148685519Y-142751668D01*
X148693366Y-142672000D01*
X148693366Y-141112000D01*
X149126634Y-141112000D01*
X149126634Y-142672000D01*
X149134481Y-142751668D01*
X149157719Y-142828275D01*
X149195456Y-142898876D01*
X149246242Y-142960758D01*
X149308124Y-143011544D01*
X149378725Y-143049281D01*
X149455332Y-143072519D01*
X149535000Y-143080366D01*
X150185000Y-143080366D01*
X150264668Y-143072519D01*
X150341275Y-143049281D01*
X150411876Y-143011544D01*
X150473758Y-142960758D01*
X150524544Y-142898876D01*
X150562281Y-142828275D01*
X150585519Y-142751668D01*
X150593366Y-142672000D01*
X150593366Y-142571284D01*
X150630628Y-142627050D01*
X150742950Y-142739372D01*
X150875026Y-142827623D01*
X151021782Y-142888411D01*
X151177577Y-142919400D01*
X151336423Y-142919400D01*
X151492218Y-142888411D01*
X151638974Y-142827623D01*
X151771050Y-142739372D01*
X151883372Y-142627050D01*
X151971623Y-142494974D01*
X152032411Y-142348218D01*
X152063400Y-142192423D01*
X152063400Y-142033577D01*
X152032411Y-141877782D01*
X151971623Y-141731026D01*
X151883372Y-141598950D01*
X151771050Y-141486628D01*
X151638974Y-141398377D01*
X151492218Y-141337589D01*
X151336423Y-141306600D01*
X151177577Y-141306600D01*
X151021782Y-141337589D01*
X150909735Y-141384000D01*
X150593366Y-141384000D01*
X150593366Y-141112000D01*
X150585519Y-141032332D01*
X150562281Y-140955725D01*
X150524544Y-140885124D01*
X150473758Y-140823242D01*
X150411876Y-140772456D01*
X150341275Y-140734719D01*
X150264668Y-140711481D01*
X150185000Y-140703634D01*
X149535000Y-140703634D01*
X149455332Y-140711481D01*
X149378725Y-140734719D01*
X149308124Y-140772456D01*
X149246242Y-140823242D01*
X149195456Y-140885124D01*
X149157719Y-140955725D01*
X149134481Y-141032332D01*
X149126634Y-141112000D01*
X148693366Y-141112000D01*
X148685519Y-141032332D01*
X148662281Y-140955725D01*
X148624544Y-140885124D01*
X148573758Y-140823242D01*
X148511876Y-140772456D01*
X148441275Y-140734719D01*
X148364668Y-140711481D01*
X148285000Y-140703634D01*
X147635000Y-140703634D01*
X147555332Y-140711481D01*
X147478725Y-140734719D01*
X147408124Y-140772456D01*
X147346242Y-140823242D01*
X147336089Y-140835613D01*
X147335678Y-140834843D01*
X147257688Y-140739812D01*
X147162657Y-140661822D01*
X147074124Y-140614500D01*
X147162657Y-140567178D01*
X147257688Y-140489188D01*
X147335678Y-140394157D01*
X147388461Y-140295407D01*
X147408124Y-140311544D01*
X147478725Y-140349281D01*
X147555332Y-140372519D01*
X147635000Y-140380366D01*
X148285000Y-140380366D01*
X148364668Y-140372519D01*
X148435000Y-140351184D01*
X148505332Y-140372519D01*
X148585000Y-140380366D01*
X149235000Y-140380366D01*
X149314668Y-140372519D01*
X149385000Y-140351184D01*
X149455332Y-140372519D01*
X149535000Y-140380366D01*
X150185000Y-140380366D01*
X150264668Y-140372519D01*
X150341275Y-140349281D01*
X150411876Y-140311544D01*
X150473758Y-140260758D01*
X150524544Y-140198876D01*
X150562281Y-140128275D01*
X150585519Y-140051668D01*
X150593366Y-139972000D01*
X150593366Y-138412000D01*
X150585519Y-138332332D01*
X150562281Y-138255725D01*
X150524544Y-138185124D01*
X150520400Y-138180075D01*
X150520400Y-137947400D01*
X150562569Y-137947400D01*
X150594812Y-137986688D01*
X150689843Y-138064678D01*
X150798263Y-138122630D01*
X150915906Y-138158316D01*
X151038250Y-138170366D01*
X151475750Y-138170366D01*
X151598094Y-138158316D01*
X151715737Y-138122630D01*
X151824157Y-138064678D01*
X151919188Y-137986688D01*
X151997178Y-137891657D01*
X152055130Y-137783237D01*
X152090816Y-137665594D01*
X152102866Y-137543250D01*
X152102866Y-137030750D01*
X152090816Y-136908406D01*
X152055130Y-136790763D01*
X151997178Y-136682343D01*
X151955400Y-136631436D01*
X151955400Y-136273655D01*
X151957188Y-136272188D01*
X152035178Y-136177157D01*
X152093130Y-136068737D01*
X152128816Y-135951094D01*
X152140866Y-135828750D01*
X152140866Y-135316250D01*
X152128816Y-135193906D01*
X152093130Y-135076263D01*
X152035178Y-134967843D01*
X151957188Y-134872812D01*
X151862157Y-134794822D01*
X151753737Y-134736870D01*
X151636094Y-134701184D01*
X151513750Y-134689134D01*
X151076250Y-134689134D01*
X150953906Y-134701184D01*
X150836263Y-134736870D01*
X150727843Y-134794822D01*
X150632812Y-134872812D01*
X150554822Y-134967843D01*
X150496870Y-135076263D01*
X150461184Y-135193906D01*
X150449134Y-135316250D01*
X150449134Y-135828750D01*
X150461184Y-135951094D01*
X150496870Y-136068737D01*
X150554822Y-136177157D01*
X150632812Y-136272188D01*
X150634600Y-136273656D01*
X150634601Y-136554658D01*
X150594812Y-136587312D01*
X150562569Y-136626600D01*
X150177302Y-136626600D01*
X150105372Y-136518950D01*
X149993050Y-136406628D01*
X149860974Y-136318377D01*
X149714218Y-136257589D01*
X149558423Y-136226600D01*
X149399577Y-136226600D01*
X149243782Y-136257589D01*
X149097026Y-136318377D01*
X148964950Y-136406628D01*
X148852628Y-136518950D01*
X148764377Y-136651026D01*
X148703589Y-136797782D01*
X148684549Y-136893505D01*
X148465967Y-137112087D01*
X148440768Y-137132767D01*
X148358242Y-137233326D01*
X148329581Y-137286947D01*
X148296918Y-137348054D01*
X148259156Y-137472540D01*
X148246405Y-137602000D01*
X148249601Y-137634448D01*
X148249601Y-138003634D01*
X147635000Y-138003634D01*
X147555332Y-138011481D01*
X147478725Y-138034719D01*
X147408124Y-138072456D01*
X147346242Y-138123242D01*
X147295456Y-138185124D01*
X147257719Y-138255725D01*
X147234481Y-138332332D01*
X147226634Y-138412000D01*
X147226634Y-138531600D01*
X147225439Y-138531600D01*
X147193000Y-138528405D01*
X147160561Y-138531600D01*
X147151644Y-138531600D01*
X147036619Y-138470117D01*
X146864254Y-138417831D01*
X146729918Y-138404600D01*
X145726366Y-138404600D01*
X145726366Y-137124000D01*
X145718519Y-137044332D01*
X145695281Y-136967725D01*
X145657544Y-136897124D01*
X145606758Y-136835242D01*
X145544876Y-136784456D01*
X145474275Y-136746719D01*
X145397668Y-136723481D01*
X145318000Y-136715634D01*
X137118000Y-136715634D01*
X137038332Y-136723481D01*
X136961725Y-136746719D01*
X136891124Y-136784456D01*
X136829242Y-136835242D01*
X136778456Y-136897124D01*
X136740719Y-136967725D01*
X136717481Y-137044332D01*
X136709634Y-137124000D01*
X111735810Y-137124000D01*
X111788031Y-131445000D01*
X115667176Y-131445000D01*
X115684831Y-131624254D01*
X115737117Y-131796619D01*
X115822026Y-131955471D01*
X115936293Y-132094707D01*
X115971189Y-132123346D01*
X116389110Y-132541266D01*
X116385370Y-132548263D01*
X116349684Y-132665906D01*
X116337634Y-132788250D01*
X116337634Y-133225750D01*
X116349684Y-133348094D01*
X116385370Y-133465737D01*
X116443322Y-133574157D01*
X116521312Y-133669188D01*
X116616343Y-133747178D01*
X116724763Y-133805130D01*
X116842406Y-133840816D01*
X116964750Y-133852866D01*
X117054237Y-133852866D01*
X117059881Y-133855883D01*
X117232246Y-133908169D01*
X117411500Y-133925824D01*
X117456417Y-133921400D01*
X117841585Y-133921400D01*
X117886500Y-133925824D01*
X117931415Y-133921400D01*
X118816413Y-133921400D01*
X118822881Y-133987068D01*
X118846119Y-134063675D01*
X118883856Y-134134276D01*
X118934642Y-134196158D01*
X118996524Y-134246944D01*
X119067125Y-134284681D01*
X119143732Y-134307919D01*
X119223400Y-134315766D01*
X121292081Y-134315766D01*
X121269156Y-134391340D01*
X121258686Y-134497642D01*
X121240747Y-134540951D01*
X121213600Y-134677426D01*
X121213600Y-134816574D01*
X121240747Y-134953049D01*
X121293996Y-135081606D01*
X121371303Y-135197304D01*
X121469696Y-135295697D01*
X121585394Y-135373004D01*
X121713951Y-135426253D01*
X121850426Y-135453400D01*
X121989574Y-135453400D01*
X122126049Y-135426253D01*
X122254606Y-135373004D01*
X122370304Y-135295697D01*
X122468697Y-135197304D01*
X122546004Y-135081606D01*
X122599253Y-134953049D01*
X122626400Y-134816574D01*
X122626400Y-134748346D01*
X123058980Y-134315766D01*
X128223400Y-134315766D01*
X128303068Y-134307919D01*
X128379675Y-134284681D01*
X128450276Y-134246944D01*
X128512158Y-134196158D01*
X128562944Y-134134276D01*
X128600681Y-134063675D01*
X128623919Y-133987068D01*
X128631766Y-133907400D01*
X128631766Y-133667400D01*
X130066582Y-133667400D01*
X130111500Y-133671824D01*
X130156417Y-133667400D01*
X130156418Y-133667400D01*
X130290754Y-133654169D01*
X130463119Y-133601883D01*
X130468763Y-133598866D01*
X130748750Y-133598866D01*
X130871094Y-133586816D01*
X130988737Y-133551130D01*
X131097157Y-133493178D01*
X131192188Y-133415188D01*
X131270178Y-133320157D01*
X131328130Y-133211737D01*
X131363816Y-133094094D01*
X131375866Y-132971750D01*
X131375866Y-132534250D01*
X131363816Y-132411906D01*
X131328130Y-132294263D01*
X131280153Y-132204504D01*
X131551840Y-131932817D01*
X131637474Y-131828471D01*
X131722383Y-131669619D01*
X131774668Y-131497254D01*
X131792324Y-131318000D01*
X131774668Y-131138747D01*
X131722383Y-130966382D01*
X131637474Y-130807529D01*
X131523206Y-130668294D01*
X131383971Y-130554026D01*
X131225118Y-130469117D01*
X131052753Y-130416832D01*
X130873500Y-130399176D01*
X130694246Y-130416832D01*
X130521881Y-130469117D01*
X130363029Y-130554026D01*
X130258683Y-130639660D01*
X130103260Y-130795083D01*
X130065383Y-130748930D01*
X130019158Y-130688878D01*
X130008335Y-130679416D01*
X129999207Y-130668293D01*
X129940610Y-130620204D01*
X129883555Y-130570322D01*
X129871086Y-130563148D01*
X129859970Y-130554026D01*
X129793122Y-130518295D01*
X129727428Y-130480500D01*
X129713807Y-130475899D01*
X129701118Y-130469117D01*
X129628570Y-130447110D01*
X129556779Y-130422862D01*
X129542519Y-130421007D01*
X129528753Y-130416831D01*
X129453304Y-130409400D01*
X129378163Y-130399624D01*
X129363818Y-130400586D01*
X129349500Y-130399176D01*
X129274052Y-130406607D01*
X129198447Y-130411678D01*
X129184563Y-130415421D01*
X129170246Y-130416831D01*
X129097693Y-130438840D01*
X129024534Y-130458562D01*
X129011649Y-130464941D01*
X128997881Y-130469117D01*
X128931028Y-130504851D01*
X128863110Y-130538473D01*
X128851712Y-130547247D01*
X128839029Y-130554026D01*
X128780430Y-130602117D01*
X128720378Y-130648342D01*
X128710916Y-130659165D01*
X128699793Y-130668293D01*
X128651704Y-130726890D01*
X128601822Y-130783945D01*
X128594648Y-130796414D01*
X128585526Y-130807530D01*
X128549795Y-130874378D01*
X128540160Y-130891126D01*
X128458028Y-130935026D01*
X128387833Y-130992634D01*
X128318793Y-131049293D01*
X128290158Y-131084185D01*
X128252448Y-131121895D01*
X128223400Y-131119034D01*
X119223400Y-131119034D01*
X119143732Y-131126881D01*
X119100063Y-131140127D01*
X119085883Y-131093381D01*
X119000974Y-130934529D01*
X118886707Y-130795293D01*
X118747471Y-130681026D01*
X118588619Y-130596117D01*
X118416254Y-130543831D01*
X118281918Y-130530600D01*
X118281917Y-130530600D01*
X118237000Y-130526176D01*
X118236999Y-130526176D01*
X118220927Y-130527759D01*
X118192082Y-130530600D01*
X116630915Y-130530600D01*
X116586000Y-130526176D01*
X116541085Y-130530600D01*
X116541082Y-130530600D01*
X116406746Y-130543831D01*
X116234381Y-130596117D01*
X116075529Y-130681026D01*
X115936293Y-130795293D01*
X115822026Y-130934529D01*
X115737117Y-131093381D01*
X115684831Y-131265746D01*
X115667176Y-131445000D01*
X111788031Y-131445000D01*
X111821420Y-127813982D01*
X113909600Y-127813982D01*
X113909600Y-128091018D01*
X113963647Y-128362732D01*
X114069664Y-128618680D01*
X114223578Y-128849028D01*
X114419472Y-129044922D01*
X114649820Y-129198836D01*
X114905768Y-129304853D01*
X115177482Y-129358900D01*
X115454518Y-129358900D01*
X115726232Y-129304853D01*
X115982180Y-129198836D01*
X116212528Y-129044922D01*
X116408422Y-128849028D01*
X116562336Y-128618680D01*
X116668353Y-128362732D01*
X116722400Y-128091018D01*
X116722400Y-127813982D01*
X116668353Y-127542268D01*
X116562336Y-127286320D01*
X116408422Y-127055972D01*
X116212528Y-126860078D01*
X115982180Y-126706164D01*
X115726232Y-126600147D01*
X115454518Y-126546100D01*
X115177482Y-126546100D01*
X114905768Y-126600147D01*
X114649820Y-126706164D01*
X114419472Y-126860078D01*
X114223578Y-127055972D01*
X114069664Y-127286320D01*
X113963647Y-127542268D01*
X113909600Y-127813982D01*
X111821420Y-127813982D01*
X111852989Y-124380917D01*
X111997730Y-124444303D01*
G37*
G04 #@! TD.AperFunction*
D40*
X123753219Y-146829510D02*
X123802749Y-146922175D01*
X123807502Y-146927966D01*
X123807501Y-147667658D01*
X123720350Y-147754809D01*
X123700006Y-147771505D01*
X123685951Y-147788631D01*
X123597677Y-147835814D01*
X123561982Y-147865108D01*
X123565366Y-147830750D01*
X123565366Y-147484467D01*
X123577395Y-147474595D01*
X123604085Y-147442074D01*
X123613113Y-147431073D01*
X123644051Y-147393375D01*
X123693581Y-147300711D01*
X123724081Y-147200165D01*
X123731800Y-147121795D01*
X123731800Y-147121787D01*
X123734379Y-147095600D01*
X123731800Y-147069413D01*
X123731800Y-146778766D01*
X123737826Y-146778766D01*
X123753219Y-146829510D01*
G04 #@! TA.AperFunction,Conductor*
D43*
G36*
X123753219Y-146829510D02*
G01*
X123802749Y-146922175D01*
X123807502Y-146927966D01*
X123807501Y-147667658D01*
X123720350Y-147754809D01*
X123700006Y-147771505D01*
X123685951Y-147788631D01*
X123597677Y-147835814D01*
X123561982Y-147865108D01*
X123565366Y-147830750D01*
X123565366Y-147484467D01*
X123577395Y-147474595D01*
X123604085Y-147442074D01*
X123613113Y-147431073D01*
X123644051Y-147393375D01*
X123693581Y-147300711D01*
X123724081Y-147200165D01*
X123731800Y-147121795D01*
X123731800Y-147121787D01*
X123734379Y-147095600D01*
X123731800Y-147069413D01*
X123731800Y-146778766D01*
X123737826Y-146778766D01*
X123753219Y-146829510D01*
G37*
G04 #@! TD.AperFunction*
M02*
