M48
; DRILL file {KiCad 7.0.10} date Wed Dec 11 17:54:05 2024
; FORMAT={-:-/ absolute / inch / decimal}
; #@! TF.CreationDate,2024-12-11T17:54:05-08:00
; #@! TF.GenerationSoftware,Kicad,Pcbnew,7.0.10
; #@! TF.FileFunction,Plated,1,4,PTH
FMAT,2
INCH
; #@! TA.AperFunction,Plated,PTH,ViaDrill
T1C0.0118
; #@! TA.AperFunction,Plated,PTH,ComponentDrill
T2C0.0118
; #@! TA.AperFunction,Plated,PTH,ComponentDrill
T3C0.0276
; #@! TA.AperFunction,Plated,PTH,ComponentDrill
T4C0.0394
; #@! TA.AperFunction,Plated,PTH,ComponentDrill
T5C0.0398
; #@! TA.AperFunction,Plated,PTH,ComponentDrill
T6C0.0402
; #@! TA.AperFunction,Plated,PTH,ComponentDrill
T7C0.0472
; #@! TA.AperFunction,Plated,PTH,ComponentDrill
T8C0.0984
%
G90
G05
T1
X3.622Y-3.407
X3.707Y-3.612
X3.792Y-3.484
X3.862Y-3.007
X3.935Y-4.63
X3.9525Y-4.2603
X3.957Y-4.034
X3.958Y-3.062
X3.967Y-4.805
X3.9713Y-4.2879
X3.986Y-3.741
X3.997Y-3.84
X3.998Y-4.317
X4.004Y-3.002
X4.014Y-4.181
X4.026Y-4.443
X4.058Y-3.062
X4.074Y-5.269
X4.075Y-3.551
X4.0848Y-4.2652
X4.102Y-4.183
X4.106Y-3.001
X4.112Y-4.433
X4.116Y-5.291
X4.116Y-5.343
X4.141Y-3.663
X4.158Y-3.062
X4.205Y-4.389
X4.213Y-3.002
X4.215Y-4.76
X4.223Y-4.718
X4.225Y-4.189
X4.24Y-5.29
X4.243Y-5.345
X4.254Y-4.376
X4.257Y-4.221
X4.258Y-3.062
X4.258Y-3.137
X4.265Y-5.43
X4.284Y-4.18
X4.292Y-5.128
X4.305Y-5.295
X4.317Y-3.199
X4.318Y-4.474
X4.319Y-3.005
X4.32Y-3.103
X4.32Y-4.97
X4.327Y-4.397
X4.349Y-3.976
X4.354Y-4.078
X4.369Y-5.044
X4.385Y-5.24
X4.386Y-4.396
X4.415Y-3.081
X4.417Y-3.163
X4.423Y-3.229
X4.424Y-3.673
X4.463Y-4.4
X4.465Y-5.18
X4.47Y-2.81
X4.471Y-3.779
X4.484Y-4.157
X4.5Y-5.215
X4.544Y-4.156
X4.548Y-4.941
X4.553Y-3.919
X4.553Y-4.4
X4.5816Y-3.85
X4.616Y-3.52
X4.616Y-3.621
X4.623Y-4.1722
X4.629Y-4.284
X4.63Y-4.226
X4.63Y-4.359
X4.663Y-5.461
X4.6897Y-3.9967
X4.7216Y-3.5962
X4.7233Y-5.313
X4.73Y-3.255
X4.731Y-3.322
X4.74Y-3.74
X4.7427Y-4.347
X4.745Y-3.773
X4.77Y-2.935
X4.788Y-3.201
X4.7945Y-3.6845
X4.835Y-5.486
X4.842Y-5.686
X4.85Y-5.615
X4.853Y-3.633
X4.8632Y-3.4232
X4.87Y-3.86
X4.873Y-5.181
X4.88Y-4.015
X4.8894Y-3.6521
X4.892Y-3.619
X4.8958Y-4.1615
X4.909Y-3.192
X4.9317Y-4.254
X4.936Y-2.956
X4.9398Y-4.17
X4.943Y-3.873
X4.956Y-5.551
X4.96Y-3.165
X4.963Y-2.9064
X4.99Y-4.2
X4.996Y-3.647
X5.002Y-3.149
X5.0124Y-3.0432
X5.022Y-2.9277
X5.022Y-5.614
X5.0235Y-4.0315
X5.028Y-3.414
X5.0299Y-3.6372
X5.0394Y-3.1866
X5.05Y-5.496
X5.052Y-3.975
X5.058Y-3.619
X5.063Y-3.8555
X5.0632Y-2.9124
X5.0685Y-3.1437
X5.087Y-5.502
X5.096Y-2.983
X5.0984Y-3.753
X5.1054Y-3.6057
X5.127Y-4.698
X5.129Y-4.002
X5.1526Y-2.9715
X5.1643Y-3.955
X5.169Y-3.43
X5.174Y-5.534
X5.182Y-5.59
X5.1831Y-3.7805
X5.2Y-3.565
X5.316Y-3.46
X5.317Y-3.533
X5.333Y-3.3893
X5.3352Y-3.356
X5.3415Y-3.0364
X5.4616Y-3.0945
X5.486Y-3.568
T2
X4.8818Y-5.2884
X4.8818Y-5.3317
X4.8818Y-5.375
X4.9251Y-5.2884
X4.9251Y-5.3317
X4.9251Y-5.375
X4.9684Y-5.2884
X4.9684Y-5.3317
X4.9684Y-5.375
X5.0117Y-5.2884
X5.0117Y-5.3317
X5.0117Y-5.375
X5.055Y-5.2884
X5.055Y-5.3317
X5.055Y-5.375
T3
X5.3957Y-3.2844
X5.3957Y-3.3344
X5.3957Y-3.3844
X5.3957Y-3.4344
X5.3957Y-3.4844
X5.4457Y-3.2844
X5.4457Y-3.3344
X5.4457Y-3.3844
X5.4457Y-3.4344
X5.4457Y-3.4844
T4
X3.6629Y-4.4669
X3.6636Y-4.147
X3.6646Y-3.833
X3.6646Y-4.795
X3.665Y-5.12
X3.781Y-4.4669
X3.7817Y-4.147
X3.7827Y-3.833
X3.7827Y-4.795
X3.7831Y-5.12
X4.5791Y-2.8449
X4.6791Y-2.8449
X4.7791Y-2.8449
X4.8791Y-2.8449
X4.9791Y-2.8449
X5.0791Y-2.8449
X5.2669Y-5.33
X5.3104Y-3.7156
X5.385Y-5.33
X5.4104Y-3.7156
T5
X5.0114Y-4.3404
X5.0586Y-4.1396
X5.1746Y-5.0764
X5.3754Y-5.1236
T6
X5.2619Y-3.9729
X5.2619Y-4.091
X5.2619Y-4.42
X5.2625Y-4.7459
X5.2625Y-4.8641
X5.38Y-3.9729
X5.38Y-4.091
X5.38Y-4.42
X5.3806Y-4.7459
X5.3806Y-4.8641
T7
X4.334Y-3.435
X4.334Y-5.635
X4.8386Y-4.922
X5.0355Y-4.922
T8
X3.656Y-2.882
X3.656Y-5.622
X5.396Y-2.882
X5.396Y-5.623
M30
