%TF.GenerationSoftware,KiCad,Pcbnew,7.0.10*%
%TF.CreationDate,2024-12-11T17:54:10-08:00*%
%TF.ProjectId,LCP_PowerControl,4c43505f-506f-4776-9572-436f6e74726f,rev?*%
%TF.SameCoordinates,Original*%
%TF.FileFunction,Drillmap*%
%TF.FilePolarity,Positive*%
%FSLAX45Y45*%
G04 Gerber Fmt 4.5, Leading zero omitted, Abs format (unit mm)*
G04 Created by KiCad (PCBNEW 7.0.10) date 2024-12-11 17:54:10*
%MOMM*%
%LPD*%
G01*
G04 APERTURE LIST*
%ADD10C,0.100000*%
%ADD11C,0.200000*%
%ADD12C,0.102000*%
G04 APERTURE END LIST*
D10*
X8956000Y-6991000D02*
X14036000Y-6991000D01*
X14036000Y-14611000D01*
X8956000Y-14611000D01*
X8956000Y-6991000D01*
D11*
D10*
X9647720Y-10995900D02*
X9747720Y-11095900D01*
X9747720Y-10995900D02*
X9647720Y-11095900D01*
X9647720Y-11595900D02*
X9747720Y-11695900D01*
X9747720Y-11595900D02*
X9647720Y-11695900D01*
X9649560Y-10183380D02*
X9749560Y-10283380D01*
X9749560Y-10183380D02*
X9649560Y-10283380D01*
X9649560Y-10783380D02*
X9749560Y-10883380D01*
X9749560Y-10783380D02*
X9649560Y-10883380D01*
X9652100Y-9385820D02*
X9752100Y-9485820D01*
X9752100Y-9385820D02*
X9652100Y-9485820D01*
X9652100Y-9985820D02*
X9752100Y-10085820D01*
X9752100Y-9985820D02*
X9652100Y-10085820D01*
X9652100Y-11829300D02*
X9752100Y-11929300D01*
X9752100Y-11829300D02*
X9652100Y-11929300D01*
X9652100Y-12429300D02*
X9752100Y-12529300D01*
X9752100Y-12429300D02*
X9652100Y-12529300D01*
X9653100Y-12654800D02*
X9753100Y-12754800D01*
X9753100Y-12654800D02*
X9653100Y-12754800D01*
X9653100Y-13254800D02*
X9753100Y-13354800D01*
X9753100Y-13254800D02*
X9653100Y-13354800D01*
X13233900Y-13188200D02*
X13333900Y-13288200D01*
X13333900Y-13188200D02*
X13233900Y-13288200D01*
X13233900Y-13788200D02*
X13333900Y-13888200D01*
X13333900Y-13788200D02*
X13233900Y-13888200D01*
D12*
X13322200Y-9791140D02*
G75*
G03*
X13220200Y-9791140I-51000J0D01*
G01*
X13220200Y-9791140D02*
G75*
G03*
X13322200Y-9791140I51000J0D01*
G01*
X13322200Y-10691140D02*
G75*
G03*
X13220200Y-10691140I-51000J0D01*
G01*
X13220200Y-10691140D02*
G75*
G03*
X13322200Y-10691140I51000J0D01*
G01*
X13322200Y-10926800D02*
G75*
G03*
X13220200Y-10926800I-51000J0D01*
G01*
X13220200Y-10926800D02*
G75*
G03*
X13322200Y-10926800I51000J0D01*
G01*
X13322200Y-11526800D02*
G75*
G03*
X13220200Y-11526800I-51000J0D01*
G01*
X13220200Y-11526800D02*
G75*
G03*
X13322200Y-11526800I51000J0D01*
G01*
X13323700Y-11754700D02*
G75*
G03*
X13221700Y-11754700I-51000J0D01*
G01*
X13221700Y-11754700D02*
G75*
G03*
X13323700Y-11754700I51000J0D01*
G01*
X13323700Y-12654700D02*
G75*
G03*
X13221700Y-12654700I-51000J0D01*
G01*
X13221700Y-12654700D02*
G75*
G03*
X13323700Y-12654700I51000J0D01*
G01*
D11*
X9211777Y-14927484D02*
X9211777Y-14727484D01*
X9211777Y-14727484D02*
X9259396Y-14727484D01*
X9259396Y-14727484D02*
X9287967Y-14737008D01*
X9287967Y-14737008D02*
X9307015Y-14756055D01*
X9307015Y-14756055D02*
X9316539Y-14775103D01*
X9316539Y-14775103D02*
X9326063Y-14813198D01*
X9326063Y-14813198D02*
X9326063Y-14841769D01*
X9326063Y-14841769D02*
X9316539Y-14879865D01*
X9316539Y-14879865D02*
X9307015Y-14898912D01*
X9307015Y-14898912D02*
X9287967Y-14917960D01*
X9287967Y-14917960D02*
X9259396Y-14927484D01*
X9259396Y-14927484D02*
X9211777Y-14927484D01*
X9411777Y-14927484D02*
X9411777Y-14794150D01*
X9411777Y-14832246D02*
X9421301Y-14813198D01*
X9421301Y-14813198D02*
X9430824Y-14803674D01*
X9430824Y-14803674D02*
X9449872Y-14794150D01*
X9449872Y-14794150D02*
X9468920Y-14794150D01*
X9535586Y-14927484D02*
X9535586Y-14794150D01*
X9535586Y-14727484D02*
X9526063Y-14737008D01*
X9526063Y-14737008D02*
X9535586Y-14746531D01*
X9535586Y-14746531D02*
X9545110Y-14737008D01*
X9545110Y-14737008D02*
X9535586Y-14727484D01*
X9535586Y-14727484D02*
X9535586Y-14746531D01*
X9659396Y-14927484D02*
X9640348Y-14917960D01*
X9640348Y-14917960D02*
X9630824Y-14898912D01*
X9630824Y-14898912D02*
X9630824Y-14727484D01*
X9764158Y-14927484D02*
X9745110Y-14917960D01*
X9745110Y-14917960D02*
X9735586Y-14898912D01*
X9735586Y-14898912D02*
X9735586Y-14727484D01*
X9992729Y-14927484D02*
X9992729Y-14727484D01*
X9992729Y-14727484D02*
X10059396Y-14870341D01*
X10059396Y-14870341D02*
X10126063Y-14727484D01*
X10126063Y-14727484D02*
X10126063Y-14927484D01*
X10307015Y-14927484D02*
X10307015Y-14822722D01*
X10307015Y-14822722D02*
X10297491Y-14803674D01*
X10297491Y-14803674D02*
X10278444Y-14794150D01*
X10278444Y-14794150D02*
X10240348Y-14794150D01*
X10240348Y-14794150D02*
X10221301Y-14803674D01*
X10307015Y-14917960D02*
X10287967Y-14927484D01*
X10287967Y-14927484D02*
X10240348Y-14927484D01*
X10240348Y-14927484D02*
X10221301Y-14917960D01*
X10221301Y-14917960D02*
X10211777Y-14898912D01*
X10211777Y-14898912D02*
X10211777Y-14879865D01*
X10211777Y-14879865D02*
X10221301Y-14860817D01*
X10221301Y-14860817D02*
X10240348Y-14851293D01*
X10240348Y-14851293D02*
X10287967Y-14851293D01*
X10287967Y-14851293D02*
X10307015Y-14841769D01*
X10402253Y-14794150D02*
X10402253Y-14994150D01*
X10402253Y-14803674D02*
X10421301Y-14794150D01*
X10421301Y-14794150D02*
X10459396Y-14794150D01*
X10459396Y-14794150D02*
X10478444Y-14803674D01*
X10478444Y-14803674D02*
X10487967Y-14813198D01*
X10487967Y-14813198D02*
X10497491Y-14832246D01*
X10497491Y-14832246D02*
X10497491Y-14889388D01*
X10497491Y-14889388D02*
X10487967Y-14908436D01*
X10487967Y-14908436D02*
X10478444Y-14917960D01*
X10478444Y-14917960D02*
X10459396Y-14927484D01*
X10459396Y-14927484D02*
X10421301Y-14927484D01*
X10421301Y-14927484D02*
X10402253Y-14917960D01*
X10583205Y-14908436D02*
X10592729Y-14917960D01*
X10592729Y-14917960D02*
X10583205Y-14927484D01*
X10583205Y-14927484D02*
X10573682Y-14917960D01*
X10573682Y-14917960D02*
X10583205Y-14908436D01*
X10583205Y-14908436D02*
X10583205Y-14927484D01*
X10583205Y-14803674D02*
X10592729Y-14813198D01*
X10592729Y-14813198D02*
X10583205Y-14822722D01*
X10583205Y-14822722D02*
X10573682Y-14813198D01*
X10573682Y-14813198D02*
X10583205Y-14803674D01*
X10583205Y-14803674D02*
X10583205Y-14822722D01*
D10*
X8851000Y-15206000D02*
X8951000Y-15306000D01*
X8951000Y-15206000D02*
X8851000Y-15306000D01*
D11*
X9316539Y-15347484D02*
X9202253Y-15347484D01*
X9259396Y-15347484D02*
X9259396Y-15147484D01*
X9259396Y-15147484D02*
X9240348Y-15176055D01*
X9240348Y-15176055D02*
X9221301Y-15195103D01*
X9221301Y-15195103D02*
X9202253Y-15204627D01*
X9402253Y-15328436D02*
X9411777Y-15337960D01*
X9411777Y-15337960D02*
X9402253Y-15347484D01*
X9402253Y-15347484D02*
X9392729Y-15337960D01*
X9392729Y-15337960D02*
X9402253Y-15328436D01*
X9402253Y-15328436D02*
X9402253Y-15347484D01*
X9535586Y-15147484D02*
X9554634Y-15147484D01*
X9554634Y-15147484D02*
X9573682Y-15157008D01*
X9573682Y-15157008D02*
X9583205Y-15166531D01*
X9583205Y-15166531D02*
X9592729Y-15185579D01*
X9592729Y-15185579D02*
X9602253Y-15223674D01*
X9602253Y-15223674D02*
X9602253Y-15271293D01*
X9602253Y-15271293D02*
X9592729Y-15309388D01*
X9592729Y-15309388D02*
X9583205Y-15328436D01*
X9583205Y-15328436D02*
X9573682Y-15337960D01*
X9573682Y-15337960D02*
X9554634Y-15347484D01*
X9554634Y-15347484D02*
X9535586Y-15347484D01*
X9535586Y-15347484D02*
X9516539Y-15337960D01*
X9516539Y-15337960D02*
X9507015Y-15328436D01*
X9507015Y-15328436D02*
X9497491Y-15309388D01*
X9497491Y-15309388D02*
X9487967Y-15271293D01*
X9487967Y-15271293D02*
X9487967Y-15223674D01*
X9487967Y-15223674D02*
X9497491Y-15185579D01*
X9497491Y-15185579D02*
X9507015Y-15166531D01*
X9507015Y-15166531D02*
X9516539Y-15157008D01*
X9516539Y-15157008D02*
X9535586Y-15147484D01*
X9726063Y-15147484D02*
X9745110Y-15147484D01*
X9745110Y-15147484D02*
X9764158Y-15157008D01*
X9764158Y-15157008D02*
X9773682Y-15166531D01*
X9773682Y-15166531D02*
X9783205Y-15185579D01*
X9783205Y-15185579D02*
X9792729Y-15223674D01*
X9792729Y-15223674D02*
X9792729Y-15271293D01*
X9792729Y-15271293D02*
X9783205Y-15309388D01*
X9783205Y-15309388D02*
X9773682Y-15328436D01*
X9773682Y-15328436D02*
X9764158Y-15337960D01*
X9764158Y-15337960D02*
X9745110Y-15347484D01*
X9745110Y-15347484D02*
X9726063Y-15347484D01*
X9726063Y-15347484D02*
X9707015Y-15337960D01*
X9707015Y-15337960D02*
X9697491Y-15328436D01*
X9697491Y-15328436D02*
X9687967Y-15309388D01*
X9687967Y-15309388D02*
X9678444Y-15271293D01*
X9678444Y-15271293D02*
X9678444Y-15223674D01*
X9678444Y-15223674D02*
X9687967Y-15185579D01*
X9687967Y-15185579D02*
X9697491Y-15166531D01*
X9697491Y-15166531D02*
X9707015Y-15157008D01*
X9707015Y-15157008D02*
X9726063Y-15147484D01*
X9916539Y-15147484D02*
X9935586Y-15147484D01*
X9935586Y-15147484D02*
X9954634Y-15157008D01*
X9954634Y-15157008D02*
X9964158Y-15166531D01*
X9964158Y-15166531D02*
X9973682Y-15185579D01*
X9973682Y-15185579D02*
X9983205Y-15223674D01*
X9983205Y-15223674D02*
X9983205Y-15271293D01*
X9983205Y-15271293D02*
X9973682Y-15309388D01*
X9973682Y-15309388D02*
X9964158Y-15328436D01*
X9964158Y-15328436D02*
X9954634Y-15337960D01*
X9954634Y-15337960D02*
X9935586Y-15347484D01*
X9935586Y-15347484D02*
X9916539Y-15347484D01*
X9916539Y-15347484D02*
X9897491Y-15337960D01*
X9897491Y-15337960D02*
X9887967Y-15328436D01*
X9887967Y-15328436D02*
X9878444Y-15309388D01*
X9878444Y-15309388D02*
X9868920Y-15271293D01*
X9868920Y-15271293D02*
X9868920Y-15223674D01*
X9868920Y-15223674D02*
X9878444Y-15185579D01*
X9878444Y-15185579D02*
X9887967Y-15166531D01*
X9887967Y-15166531D02*
X9897491Y-15157008D01*
X9897491Y-15157008D02*
X9916539Y-15147484D01*
X10068920Y-15347484D02*
X10068920Y-15214150D01*
X10068920Y-15233198D02*
X10078444Y-15223674D01*
X10078444Y-15223674D02*
X10097491Y-15214150D01*
X10097491Y-15214150D02*
X10126063Y-15214150D01*
X10126063Y-15214150D02*
X10145110Y-15223674D01*
X10145110Y-15223674D02*
X10154634Y-15242722D01*
X10154634Y-15242722D02*
X10154634Y-15347484D01*
X10154634Y-15242722D02*
X10164158Y-15223674D01*
X10164158Y-15223674D02*
X10183205Y-15214150D01*
X10183205Y-15214150D02*
X10211777Y-15214150D01*
X10211777Y-15214150D02*
X10230825Y-15223674D01*
X10230825Y-15223674D02*
X10240348Y-15242722D01*
X10240348Y-15242722D02*
X10240348Y-15347484D01*
X10335586Y-15347484D02*
X10335586Y-15214150D01*
X10335586Y-15233198D02*
X10345110Y-15223674D01*
X10345110Y-15223674D02*
X10364158Y-15214150D01*
X10364158Y-15214150D02*
X10392729Y-15214150D01*
X10392729Y-15214150D02*
X10411777Y-15223674D01*
X10411777Y-15223674D02*
X10421301Y-15242722D01*
X10421301Y-15242722D02*
X10421301Y-15347484D01*
X10421301Y-15242722D02*
X10430825Y-15223674D01*
X10430825Y-15223674D02*
X10449872Y-15214150D01*
X10449872Y-15214150D02*
X10478444Y-15214150D01*
X10478444Y-15214150D02*
X10497491Y-15223674D01*
X10497491Y-15223674D02*
X10507015Y-15242722D01*
X10507015Y-15242722D02*
X10507015Y-15347484D01*
X10897491Y-15137960D02*
X10726063Y-15395103D01*
X11154634Y-15147484D02*
X11173682Y-15147484D01*
X11173682Y-15147484D02*
X11192729Y-15157008D01*
X11192729Y-15157008D02*
X11202253Y-15166531D01*
X11202253Y-15166531D02*
X11211777Y-15185579D01*
X11211777Y-15185579D02*
X11221301Y-15223674D01*
X11221301Y-15223674D02*
X11221301Y-15271293D01*
X11221301Y-15271293D02*
X11211777Y-15309388D01*
X11211777Y-15309388D02*
X11202253Y-15328436D01*
X11202253Y-15328436D02*
X11192729Y-15337960D01*
X11192729Y-15337960D02*
X11173682Y-15347484D01*
X11173682Y-15347484D02*
X11154634Y-15347484D01*
X11154634Y-15347484D02*
X11135587Y-15337960D01*
X11135587Y-15337960D02*
X11126063Y-15328436D01*
X11126063Y-15328436D02*
X11116539Y-15309388D01*
X11116539Y-15309388D02*
X11107015Y-15271293D01*
X11107015Y-15271293D02*
X11107015Y-15223674D01*
X11107015Y-15223674D02*
X11116539Y-15185579D01*
X11116539Y-15185579D02*
X11126063Y-15166531D01*
X11126063Y-15166531D02*
X11135587Y-15157008D01*
X11135587Y-15157008D02*
X11154634Y-15147484D01*
X11307015Y-15328436D02*
X11316539Y-15337960D01*
X11316539Y-15337960D02*
X11307015Y-15347484D01*
X11307015Y-15347484D02*
X11297491Y-15337960D01*
X11297491Y-15337960D02*
X11307015Y-15328436D01*
X11307015Y-15328436D02*
X11307015Y-15347484D01*
X11440348Y-15147484D02*
X11459396Y-15147484D01*
X11459396Y-15147484D02*
X11478444Y-15157008D01*
X11478444Y-15157008D02*
X11487967Y-15166531D01*
X11487967Y-15166531D02*
X11497491Y-15185579D01*
X11497491Y-15185579D02*
X11507015Y-15223674D01*
X11507015Y-15223674D02*
X11507015Y-15271293D01*
X11507015Y-15271293D02*
X11497491Y-15309388D01*
X11497491Y-15309388D02*
X11487967Y-15328436D01*
X11487967Y-15328436D02*
X11478444Y-15337960D01*
X11478444Y-15337960D02*
X11459396Y-15347484D01*
X11459396Y-15347484D02*
X11440348Y-15347484D01*
X11440348Y-15347484D02*
X11421301Y-15337960D01*
X11421301Y-15337960D02*
X11411777Y-15328436D01*
X11411777Y-15328436D02*
X11402253Y-15309388D01*
X11402253Y-15309388D02*
X11392729Y-15271293D01*
X11392729Y-15271293D02*
X11392729Y-15223674D01*
X11392729Y-15223674D02*
X11402253Y-15185579D01*
X11402253Y-15185579D02*
X11411777Y-15166531D01*
X11411777Y-15166531D02*
X11421301Y-15157008D01*
X11421301Y-15157008D02*
X11440348Y-15147484D01*
X11573682Y-15147484D02*
X11697491Y-15147484D01*
X11697491Y-15147484D02*
X11630825Y-15223674D01*
X11630825Y-15223674D02*
X11659396Y-15223674D01*
X11659396Y-15223674D02*
X11678444Y-15233198D01*
X11678444Y-15233198D02*
X11687967Y-15242722D01*
X11687967Y-15242722D02*
X11697491Y-15261769D01*
X11697491Y-15261769D02*
X11697491Y-15309388D01*
X11697491Y-15309388D02*
X11687967Y-15328436D01*
X11687967Y-15328436D02*
X11678444Y-15337960D01*
X11678444Y-15337960D02*
X11659396Y-15347484D01*
X11659396Y-15347484D02*
X11602253Y-15347484D01*
X11602253Y-15347484D02*
X11583206Y-15337960D01*
X11583206Y-15337960D02*
X11573682Y-15328436D01*
X11792729Y-15347484D02*
X11830825Y-15347484D01*
X11830825Y-15347484D02*
X11849872Y-15337960D01*
X11849872Y-15337960D02*
X11859396Y-15328436D01*
X11859396Y-15328436D02*
X11878444Y-15299865D01*
X11878444Y-15299865D02*
X11887967Y-15261769D01*
X11887967Y-15261769D02*
X11887967Y-15185579D01*
X11887967Y-15185579D02*
X11878444Y-15166531D01*
X11878444Y-15166531D02*
X11868920Y-15157008D01*
X11868920Y-15157008D02*
X11849872Y-15147484D01*
X11849872Y-15147484D02*
X11811777Y-15147484D01*
X11811777Y-15147484D02*
X11792729Y-15157008D01*
X11792729Y-15157008D02*
X11783206Y-15166531D01*
X11783206Y-15166531D02*
X11773682Y-15185579D01*
X11773682Y-15185579D02*
X11773682Y-15233198D01*
X11773682Y-15233198D02*
X11783206Y-15252246D01*
X11783206Y-15252246D02*
X11792729Y-15261769D01*
X11792729Y-15261769D02*
X11811777Y-15271293D01*
X11811777Y-15271293D02*
X11849872Y-15271293D01*
X11849872Y-15271293D02*
X11868920Y-15261769D01*
X11868920Y-15261769D02*
X11878444Y-15252246D01*
X11878444Y-15252246D02*
X11887967Y-15233198D01*
X12059396Y-15214150D02*
X12059396Y-15347484D01*
X12011777Y-15137960D02*
X11964158Y-15280817D01*
X11964158Y-15280817D02*
X12087967Y-15280817D01*
X12154634Y-15147484D02*
X12154634Y-15185579D01*
X12230825Y-15147484D02*
X12230825Y-15185579D01*
X12526063Y-15423674D02*
X12516539Y-15414150D01*
X12516539Y-15414150D02*
X12497491Y-15385579D01*
X12497491Y-15385579D02*
X12487968Y-15366531D01*
X12487968Y-15366531D02*
X12478444Y-15337960D01*
X12478444Y-15337960D02*
X12468920Y-15290341D01*
X12468920Y-15290341D02*
X12468920Y-15252246D01*
X12468920Y-15252246D02*
X12478444Y-15204627D01*
X12478444Y-15204627D02*
X12487968Y-15176055D01*
X12487968Y-15176055D02*
X12497491Y-15157008D01*
X12497491Y-15157008D02*
X12516539Y-15128436D01*
X12516539Y-15128436D02*
X12526063Y-15118912D01*
X12707015Y-15347484D02*
X12592729Y-15347484D01*
X12649872Y-15347484D02*
X12649872Y-15147484D01*
X12649872Y-15147484D02*
X12630825Y-15176055D01*
X12630825Y-15176055D02*
X12611777Y-15195103D01*
X12611777Y-15195103D02*
X12592729Y-15204627D01*
X12783206Y-15166531D02*
X12792729Y-15157008D01*
X12792729Y-15157008D02*
X12811777Y-15147484D01*
X12811777Y-15147484D02*
X12859396Y-15147484D01*
X12859396Y-15147484D02*
X12878444Y-15157008D01*
X12878444Y-15157008D02*
X12887968Y-15166531D01*
X12887968Y-15166531D02*
X12897491Y-15185579D01*
X12897491Y-15185579D02*
X12897491Y-15204627D01*
X12897491Y-15204627D02*
X12887968Y-15233198D01*
X12887968Y-15233198D02*
X12773682Y-15347484D01*
X12773682Y-15347484D02*
X12897491Y-15347484D01*
X13135587Y-15347484D02*
X13135587Y-15147484D01*
X13221301Y-15347484D02*
X13221301Y-15242722D01*
X13221301Y-15242722D02*
X13211777Y-15223674D01*
X13211777Y-15223674D02*
X13192730Y-15214150D01*
X13192730Y-15214150D02*
X13164158Y-15214150D01*
X13164158Y-15214150D02*
X13145110Y-15223674D01*
X13145110Y-15223674D02*
X13135587Y-15233198D01*
X13345110Y-15347484D02*
X13326063Y-15337960D01*
X13326063Y-15337960D02*
X13316539Y-15328436D01*
X13316539Y-15328436D02*
X13307015Y-15309388D01*
X13307015Y-15309388D02*
X13307015Y-15252246D01*
X13307015Y-15252246D02*
X13316539Y-15233198D01*
X13316539Y-15233198D02*
X13326063Y-15223674D01*
X13326063Y-15223674D02*
X13345110Y-15214150D01*
X13345110Y-15214150D02*
X13373682Y-15214150D01*
X13373682Y-15214150D02*
X13392730Y-15223674D01*
X13392730Y-15223674D02*
X13402253Y-15233198D01*
X13402253Y-15233198D02*
X13411777Y-15252246D01*
X13411777Y-15252246D02*
X13411777Y-15309388D01*
X13411777Y-15309388D02*
X13402253Y-15328436D01*
X13402253Y-15328436D02*
X13392730Y-15337960D01*
X13392730Y-15337960D02*
X13373682Y-15347484D01*
X13373682Y-15347484D02*
X13345110Y-15347484D01*
X13526063Y-15347484D02*
X13507015Y-15337960D01*
X13507015Y-15337960D02*
X13497491Y-15318912D01*
X13497491Y-15318912D02*
X13497491Y-15147484D01*
X13678444Y-15337960D02*
X13659396Y-15347484D01*
X13659396Y-15347484D02*
X13621301Y-15347484D01*
X13621301Y-15347484D02*
X13602253Y-15337960D01*
X13602253Y-15337960D02*
X13592730Y-15318912D01*
X13592730Y-15318912D02*
X13592730Y-15242722D01*
X13592730Y-15242722D02*
X13602253Y-15223674D01*
X13602253Y-15223674D02*
X13621301Y-15214150D01*
X13621301Y-15214150D02*
X13659396Y-15214150D01*
X13659396Y-15214150D02*
X13678444Y-15223674D01*
X13678444Y-15223674D02*
X13687968Y-15242722D01*
X13687968Y-15242722D02*
X13687968Y-15261769D01*
X13687968Y-15261769D02*
X13592730Y-15280817D01*
X13764158Y-15337960D02*
X13783206Y-15347484D01*
X13783206Y-15347484D02*
X13821301Y-15347484D01*
X13821301Y-15347484D02*
X13840349Y-15337960D01*
X13840349Y-15337960D02*
X13849872Y-15318912D01*
X13849872Y-15318912D02*
X13849872Y-15309388D01*
X13849872Y-15309388D02*
X13840349Y-15290341D01*
X13840349Y-15290341D02*
X13821301Y-15280817D01*
X13821301Y-15280817D02*
X13792730Y-15280817D01*
X13792730Y-15280817D02*
X13773682Y-15271293D01*
X13773682Y-15271293D02*
X13764158Y-15252246D01*
X13764158Y-15252246D02*
X13764158Y-15242722D01*
X13764158Y-15242722D02*
X13773682Y-15223674D01*
X13773682Y-15223674D02*
X13792730Y-15214150D01*
X13792730Y-15214150D02*
X13821301Y-15214150D01*
X13821301Y-15214150D02*
X13840349Y-15223674D01*
X13916539Y-15423674D02*
X13926063Y-15414150D01*
X13926063Y-15414150D02*
X13945111Y-15385579D01*
X13945111Y-15385579D02*
X13954634Y-15366531D01*
X13954634Y-15366531D02*
X13964158Y-15337960D01*
X13964158Y-15337960D02*
X13973682Y-15290341D01*
X13973682Y-15290341D02*
X13973682Y-15252246D01*
X13973682Y-15252246D02*
X13964158Y-15204627D01*
X13964158Y-15204627D02*
X13954634Y-15176055D01*
X13954634Y-15176055D02*
X13945111Y-15157008D01*
X13945111Y-15157008D02*
X13926063Y-15128436D01*
X13926063Y-15128436D02*
X13916539Y-15118912D01*
X14278444Y-15423674D02*
X14268920Y-15414150D01*
X14268920Y-15414150D02*
X14249872Y-15385579D01*
X14249872Y-15385579D02*
X14240349Y-15366531D01*
X14240349Y-15366531D02*
X14230825Y-15337960D01*
X14230825Y-15337960D02*
X14221301Y-15290341D01*
X14221301Y-15290341D02*
X14221301Y-15252246D01*
X14221301Y-15252246D02*
X14230825Y-15204627D01*
X14230825Y-15204627D02*
X14240349Y-15176055D01*
X14240349Y-15176055D02*
X14249872Y-15157008D01*
X14249872Y-15157008D02*
X14268920Y-15128436D01*
X14268920Y-15128436D02*
X14278444Y-15118912D01*
X14354634Y-15214150D02*
X14354634Y-15347484D01*
X14354634Y-15233198D02*
X14364158Y-15223674D01*
X14364158Y-15223674D02*
X14383206Y-15214150D01*
X14383206Y-15214150D02*
X14411777Y-15214150D01*
X14411777Y-15214150D02*
X14430825Y-15223674D01*
X14430825Y-15223674D02*
X14440349Y-15242722D01*
X14440349Y-15242722D02*
X14440349Y-15347484D01*
X14564158Y-15347484D02*
X14545111Y-15337960D01*
X14545111Y-15337960D02*
X14535587Y-15328436D01*
X14535587Y-15328436D02*
X14526063Y-15309388D01*
X14526063Y-15309388D02*
X14526063Y-15252246D01*
X14526063Y-15252246D02*
X14535587Y-15233198D01*
X14535587Y-15233198D02*
X14545111Y-15223674D01*
X14545111Y-15223674D02*
X14564158Y-15214150D01*
X14564158Y-15214150D02*
X14592730Y-15214150D01*
X14592730Y-15214150D02*
X14611777Y-15223674D01*
X14611777Y-15223674D02*
X14621301Y-15233198D01*
X14621301Y-15233198D02*
X14630825Y-15252246D01*
X14630825Y-15252246D02*
X14630825Y-15309388D01*
X14630825Y-15309388D02*
X14621301Y-15328436D01*
X14621301Y-15328436D02*
X14611777Y-15337960D01*
X14611777Y-15337960D02*
X14592730Y-15347484D01*
X14592730Y-15347484D02*
X14564158Y-15347484D01*
X14687968Y-15214150D02*
X14764158Y-15214150D01*
X14716539Y-15147484D02*
X14716539Y-15318912D01*
X14716539Y-15318912D02*
X14726063Y-15337960D01*
X14726063Y-15337960D02*
X14745111Y-15347484D01*
X14745111Y-15347484D02*
X14764158Y-15347484D01*
X14983206Y-15214150D02*
X14983206Y-15414150D01*
X14983206Y-15223674D02*
X15002253Y-15214150D01*
X15002253Y-15214150D02*
X15040349Y-15214150D01*
X15040349Y-15214150D02*
X15059396Y-15223674D01*
X15059396Y-15223674D02*
X15068920Y-15233198D01*
X15068920Y-15233198D02*
X15078444Y-15252246D01*
X15078444Y-15252246D02*
X15078444Y-15309388D01*
X15078444Y-15309388D02*
X15068920Y-15328436D01*
X15068920Y-15328436D02*
X15059396Y-15337960D01*
X15059396Y-15337960D02*
X15040349Y-15347484D01*
X15040349Y-15347484D02*
X15002253Y-15347484D01*
X15002253Y-15347484D02*
X14983206Y-15337960D01*
X15192730Y-15347484D02*
X15173682Y-15337960D01*
X15173682Y-15337960D02*
X15164158Y-15318912D01*
X15164158Y-15318912D02*
X15164158Y-15147484D01*
X15354634Y-15347484D02*
X15354634Y-15242722D01*
X15354634Y-15242722D02*
X15345111Y-15223674D01*
X15345111Y-15223674D02*
X15326063Y-15214150D01*
X15326063Y-15214150D02*
X15287968Y-15214150D01*
X15287968Y-15214150D02*
X15268920Y-15223674D01*
X15354634Y-15337960D02*
X15335587Y-15347484D01*
X15335587Y-15347484D02*
X15287968Y-15347484D01*
X15287968Y-15347484D02*
X15268920Y-15337960D01*
X15268920Y-15337960D02*
X15259396Y-15318912D01*
X15259396Y-15318912D02*
X15259396Y-15299865D01*
X15259396Y-15299865D02*
X15268920Y-15280817D01*
X15268920Y-15280817D02*
X15287968Y-15271293D01*
X15287968Y-15271293D02*
X15335587Y-15271293D01*
X15335587Y-15271293D02*
X15354634Y-15261769D01*
X15421301Y-15214150D02*
X15497492Y-15214150D01*
X15449873Y-15147484D02*
X15449873Y-15318912D01*
X15449873Y-15318912D02*
X15459396Y-15337960D01*
X15459396Y-15337960D02*
X15478444Y-15347484D01*
X15478444Y-15347484D02*
X15497492Y-15347484D01*
X15640349Y-15337960D02*
X15621301Y-15347484D01*
X15621301Y-15347484D02*
X15583206Y-15347484D01*
X15583206Y-15347484D02*
X15564158Y-15337960D01*
X15564158Y-15337960D02*
X15554634Y-15318912D01*
X15554634Y-15318912D02*
X15554634Y-15242722D01*
X15554634Y-15242722D02*
X15564158Y-15223674D01*
X15564158Y-15223674D02*
X15583206Y-15214150D01*
X15583206Y-15214150D02*
X15621301Y-15214150D01*
X15621301Y-15214150D02*
X15640349Y-15223674D01*
X15640349Y-15223674D02*
X15649873Y-15242722D01*
X15649873Y-15242722D02*
X15649873Y-15261769D01*
X15649873Y-15261769D02*
X15554634Y-15280817D01*
X15821301Y-15347484D02*
X15821301Y-15147484D01*
X15821301Y-15337960D02*
X15802254Y-15347484D01*
X15802254Y-15347484D02*
X15764158Y-15347484D01*
X15764158Y-15347484D02*
X15745111Y-15337960D01*
X15745111Y-15337960D02*
X15735587Y-15328436D01*
X15735587Y-15328436D02*
X15726063Y-15309388D01*
X15726063Y-15309388D02*
X15726063Y-15252246D01*
X15726063Y-15252246D02*
X15735587Y-15233198D01*
X15735587Y-15233198D02*
X15745111Y-15223674D01*
X15745111Y-15223674D02*
X15764158Y-15214150D01*
X15764158Y-15214150D02*
X15802254Y-15214150D01*
X15802254Y-15214150D02*
X15821301Y-15223674D01*
X15897492Y-15423674D02*
X15907015Y-15414150D01*
X15907015Y-15414150D02*
X15926063Y-15385579D01*
X15926063Y-15385579D02*
X15935587Y-15366531D01*
X15935587Y-15366531D02*
X15945111Y-15337960D01*
X15945111Y-15337960D02*
X15954634Y-15290341D01*
X15954634Y-15290341D02*
X15954634Y-15252246D01*
X15954634Y-15252246D02*
X15945111Y-15204627D01*
X15945111Y-15204627D02*
X15935587Y-15176055D01*
X15935587Y-15176055D02*
X15926063Y-15157008D01*
X15926063Y-15157008D02*
X15907015Y-15128436D01*
X15907015Y-15128436D02*
X15897492Y-15118912D01*
D12*
X8951000Y-15520000D02*
G75*
G03*
X8849000Y-15520000I-51000J0D01*
G01*
X8849000Y-15520000D02*
G75*
G03*
X8951000Y-15520000I51000J0D01*
G01*
D11*
X9316539Y-15611484D02*
X9202253Y-15611484D01*
X9259396Y-15611484D02*
X9259396Y-15411484D01*
X9259396Y-15411484D02*
X9240348Y-15440055D01*
X9240348Y-15440055D02*
X9221301Y-15459103D01*
X9221301Y-15459103D02*
X9202253Y-15468627D01*
X9402253Y-15592436D02*
X9411777Y-15601960D01*
X9411777Y-15601960D02*
X9402253Y-15611484D01*
X9402253Y-15611484D02*
X9392729Y-15601960D01*
X9392729Y-15601960D02*
X9402253Y-15592436D01*
X9402253Y-15592436D02*
X9402253Y-15611484D01*
X9535586Y-15411484D02*
X9554634Y-15411484D01*
X9554634Y-15411484D02*
X9573682Y-15421008D01*
X9573682Y-15421008D02*
X9583205Y-15430531D01*
X9583205Y-15430531D02*
X9592729Y-15449579D01*
X9592729Y-15449579D02*
X9602253Y-15487674D01*
X9602253Y-15487674D02*
X9602253Y-15535293D01*
X9602253Y-15535293D02*
X9592729Y-15573388D01*
X9592729Y-15573388D02*
X9583205Y-15592436D01*
X9583205Y-15592436D02*
X9573682Y-15601960D01*
X9573682Y-15601960D02*
X9554634Y-15611484D01*
X9554634Y-15611484D02*
X9535586Y-15611484D01*
X9535586Y-15611484D02*
X9516539Y-15601960D01*
X9516539Y-15601960D02*
X9507015Y-15592436D01*
X9507015Y-15592436D02*
X9497491Y-15573388D01*
X9497491Y-15573388D02*
X9487967Y-15535293D01*
X9487967Y-15535293D02*
X9487967Y-15487674D01*
X9487967Y-15487674D02*
X9497491Y-15449579D01*
X9497491Y-15449579D02*
X9507015Y-15430531D01*
X9507015Y-15430531D02*
X9516539Y-15421008D01*
X9516539Y-15421008D02*
X9535586Y-15411484D01*
X9678444Y-15430531D02*
X9687967Y-15421008D01*
X9687967Y-15421008D02*
X9707015Y-15411484D01*
X9707015Y-15411484D02*
X9754634Y-15411484D01*
X9754634Y-15411484D02*
X9773682Y-15421008D01*
X9773682Y-15421008D02*
X9783205Y-15430531D01*
X9783205Y-15430531D02*
X9792729Y-15449579D01*
X9792729Y-15449579D02*
X9792729Y-15468627D01*
X9792729Y-15468627D02*
X9783205Y-15497198D01*
X9783205Y-15497198D02*
X9668920Y-15611484D01*
X9668920Y-15611484D02*
X9792729Y-15611484D01*
X9916539Y-15411484D02*
X9935586Y-15411484D01*
X9935586Y-15411484D02*
X9954634Y-15421008D01*
X9954634Y-15421008D02*
X9964158Y-15430531D01*
X9964158Y-15430531D02*
X9973682Y-15449579D01*
X9973682Y-15449579D02*
X9983205Y-15487674D01*
X9983205Y-15487674D02*
X9983205Y-15535293D01*
X9983205Y-15535293D02*
X9973682Y-15573388D01*
X9973682Y-15573388D02*
X9964158Y-15592436D01*
X9964158Y-15592436D02*
X9954634Y-15601960D01*
X9954634Y-15601960D02*
X9935586Y-15611484D01*
X9935586Y-15611484D02*
X9916539Y-15611484D01*
X9916539Y-15611484D02*
X9897491Y-15601960D01*
X9897491Y-15601960D02*
X9887967Y-15592436D01*
X9887967Y-15592436D02*
X9878444Y-15573388D01*
X9878444Y-15573388D02*
X9868920Y-15535293D01*
X9868920Y-15535293D02*
X9868920Y-15487674D01*
X9868920Y-15487674D02*
X9878444Y-15449579D01*
X9878444Y-15449579D02*
X9887967Y-15430531D01*
X9887967Y-15430531D02*
X9897491Y-15421008D01*
X9897491Y-15421008D02*
X9916539Y-15411484D01*
X10068920Y-15611484D02*
X10068920Y-15478150D01*
X10068920Y-15497198D02*
X10078444Y-15487674D01*
X10078444Y-15487674D02*
X10097491Y-15478150D01*
X10097491Y-15478150D02*
X10126063Y-15478150D01*
X10126063Y-15478150D02*
X10145110Y-15487674D01*
X10145110Y-15487674D02*
X10154634Y-15506722D01*
X10154634Y-15506722D02*
X10154634Y-15611484D01*
X10154634Y-15506722D02*
X10164158Y-15487674D01*
X10164158Y-15487674D02*
X10183205Y-15478150D01*
X10183205Y-15478150D02*
X10211777Y-15478150D01*
X10211777Y-15478150D02*
X10230825Y-15487674D01*
X10230825Y-15487674D02*
X10240348Y-15506722D01*
X10240348Y-15506722D02*
X10240348Y-15611484D01*
X10335586Y-15611484D02*
X10335586Y-15478150D01*
X10335586Y-15497198D02*
X10345110Y-15487674D01*
X10345110Y-15487674D02*
X10364158Y-15478150D01*
X10364158Y-15478150D02*
X10392729Y-15478150D01*
X10392729Y-15478150D02*
X10411777Y-15487674D01*
X10411777Y-15487674D02*
X10421301Y-15506722D01*
X10421301Y-15506722D02*
X10421301Y-15611484D01*
X10421301Y-15506722D02*
X10430825Y-15487674D01*
X10430825Y-15487674D02*
X10449872Y-15478150D01*
X10449872Y-15478150D02*
X10478444Y-15478150D01*
X10478444Y-15478150D02*
X10497491Y-15487674D01*
X10497491Y-15487674D02*
X10507015Y-15506722D01*
X10507015Y-15506722D02*
X10507015Y-15611484D01*
X10897491Y-15401960D02*
X10726063Y-15659103D01*
X11154634Y-15411484D02*
X11173682Y-15411484D01*
X11173682Y-15411484D02*
X11192729Y-15421008D01*
X11192729Y-15421008D02*
X11202253Y-15430531D01*
X11202253Y-15430531D02*
X11211777Y-15449579D01*
X11211777Y-15449579D02*
X11221301Y-15487674D01*
X11221301Y-15487674D02*
X11221301Y-15535293D01*
X11221301Y-15535293D02*
X11211777Y-15573388D01*
X11211777Y-15573388D02*
X11202253Y-15592436D01*
X11202253Y-15592436D02*
X11192729Y-15601960D01*
X11192729Y-15601960D02*
X11173682Y-15611484D01*
X11173682Y-15611484D02*
X11154634Y-15611484D01*
X11154634Y-15611484D02*
X11135587Y-15601960D01*
X11135587Y-15601960D02*
X11126063Y-15592436D01*
X11126063Y-15592436D02*
X11116539Y-15573388D01*
X11116539Y-15573388D02*
X11107015Y-15535293D01*
X11107015Y-15535293D02*
X11107015Y-15487674D01*
X11107015Y-15487674D02*
X11116539Y-15449579D01*
X11116539Y-15449579D02*
X11126063Y-15430531D01*
X11126063Y-15430531D02*
X11135587Y-15421008D01*
X11135587Y-15421008D02*
X11154634Y-15411484D01*
X11307015Y-15592436D02*
X11316539Y-15601960D01*
X11316539Y-15601960D02*
X11307015Y-15611484D01*
X11307015Y-15611484D02*
X11297491Y-15601960D01*
X11297491Y-15601960D02*
X11307015Y-15592436D01*
X11307015Y-15592436D02*
X11307015Y-15611484D01*
X11440348Y-15411484D02*
X11459396Y-15411484D01*
X11459396Y-15411484D02*
X11478444Y-15421008D01*
X11478444Y-15421008D02*
X11487967Y-15430531D01*
X11487967Y-15430531D02*
X11497491Y-15449579D01*
X11497491Y-15449579D02*
X11507015Y-15487674D01*
X11507015Y-15487674D02*
X11507015Y-15535293D01*
X11507015Y-15535293D02*
X11497491Y-15573388D01*
X11497491Y-15573388D02*
X11487967Y-15592436D01*
X11487967Y-15592436D02*
X11478444Y-15601960D01*
X11478444Y-15601960D02*
X11459396Y-15611484D01*
X11459396Y-15611484D02*
X11440348Y-15611484D01*
X11440348Y-15611484D02*
X11421301Y-15601960D01*
X11421301Y-15601960D02*
X11411777Y-15592436D01*
X11411777Y-15592436D02*
X11402253Y-15573388D01*
X11402253Y-15573388D02*
X11392729Y-15535293D01*
X11392729Y-15535293D02*
X11392729Y-15487674D01*
X11392729Y-15487674D02*
X11402253Y-15449579D01*
X11402253Y-15449579D02*
X11411777Y-15430531D01*
X11411777Y-15430531D02*
X11421301Y-15421008D01*
X11421301Y-15421008D02*
X11440348Y-15411484D01*
X11678444Y-15478150D02*
X11678444Y-15611484D01*
X11630825Y-15401960D02*
X11583206Y-15544817D01*
X11583206Y-15544817D02*
X11707015Y-15544817D01*
X11821301Y-15411484D02*
X11840348Y-15411484D01*
X11840348Y-15411484D02*
X11859396Y-15421008D01*
X11859396Y-15421008D02*
X11868920Y-15430531D01*
X11868920Y-15430531D02*
X11878444Y-15449579D01*
X11878444Y-15449579D02*
X11887967Y-15487674D01*
X11887967Y-15487674D02*
X11887967Y-15535293D01*
X11887967Y-15535293D02*
X11878444Y-15573388D01*
X11878444Y-15573388D02*
X11868920Y-15592436D01*
X11868920Y-15592436D02*
X11859396Y-15601960D01*
X11859396Y-15601960D02*
X11840348Y-15611484D01*
X11840348Y-15611484D02*
X11821301Y-15611484D01*
X11821301Y-15611484D02*
X11802253Y-15601960D01*
X11802253Y-15601960D02*
X11792729Y-15592436D01*
X11792729Y-15592436D02*
X11783206Y-15573388D01*
X11783206Y-15573388D02*
X11773682Y-15535293D01*
X11773682Y-15535293D02*
X11773682Y-15487674D01*
X11773682Y-15487674D02*
X11783206Y-15449579D01*
X11783206Y-15449579D02*
X11792729Y-15430531D01*
X11792729Y-15430531D02*
X11802253Y-15421008D01*
X11802253Y-15421008D02*
X11821301Y-15411484D01*
X11964158Y-15430531D02*
X11973682Y-15421008D01*
X11973682Y-15421008D02*
X11992729Y-15411484D01*
X11992729Y-15411484D02*
X12040348Y-15411484D01*
X12040348Y-15411484D02*
X12059396Y-15421008D01*
X12059396Y-15421008D02*
X12068920Y-15430531D01*
X12068920Y-15430531D02*
X12078444Y-15449579D01*
X12078444Y-15449579D02*
X12078444Y-15468627D01*
X12078444Y-15468627D02*
X12068920Y-15497198D01*
X12068920Y-15497198D02*
X11954634Y-15611484D01*
X11954634Y-15611484D02*
X12078444Y-15611484D01*
X12154634Y-15411484D02*
X12154634Y-15449579D01*
X12230825Y-15411484D02*
X12230825Y-15449579D01*
X12526063Y-15687674D02*
X12516539Y-15678150D01*
X12516539Y-15678150D02*
X12497491Y-15649579D01*
X12497491Y-15649579D02*
X12487968Y-15630531D01*
X12487968Y-15630531D02*
X12478444Y-15601960D01*
X12478444Y-15601960D02*
X12468920Y-15554341D01*
X12468920Y-15554341D02*
X12468920Y-15516246D01*
X12468920Y-15516246D02*
X12478444Y-15468627D01*
X12478444Y-15468627D02*
X12487968Y-15440055D01*
X12487968Y-15440055D02*
X12497491Y-15421008D01*
X12497491Y-15421008D02*
X12516539Y-15392436D01*
X12516539Y-15392436D02*
X12526063Y-15382912D01*
X12687968Y-15411484D02*
X12649872Y-15411484D01*
X12649872Y-15411484D02*
X12630825Y-15421008D01*
X12630825Y-15421008D02*
X12621301Y-15430531D01*
X12621301Y-15430531D02*
X12602253Y-15459103D01*
X12602253Y-15459103D02*
X12592729Y-15497198D01*
X12592729Y-15497198D02*
X12592729Y-15573388D01*
X12592729Y-15573388D02*
X12602253Y-15592436D01*
X12602253Y-15592436D02*
X12611777Y-15601960D01*
X12611777Y-15601960D02*
X12630825Y-15611484D01*
X12630825Y-15611484D02*
X12668920Y-15611484D01*
X12668920Y-15611484D02*
X12687968Y-15601960D01*
X12687968Y-15601960D02*
X12697491Y-15592436D01*
X12697491Y-15592436D02*
X12707015Y-15573388D01*
X12707015Y-15573388D02*
X12707015Y-15525769D01*
X12707015Y-15525769D02*
X12697491Y-15506722D01*
X12697491Y-15506722D02*
X12687968Y-15497198D01*
X12687968Y-15497198D02*
X12668920Y-15487674D01*
X12668920Y-15487674D02*
X12630825Y-15487674D01*
X12630825Y-15487674D02*
X12611777Y-15497198D01*
X12611777Y-15497198D02*
X12602253Y-15506722D01*
X12602253Y-15506722D02*
X12592729Y-15525769D01*
X12945110Y-15611484D02*
X12945110Y-15411484D01*
X13030825Y-15611484D02*
X13030825Y-15506722D01*
X13030825Y-15506722D02*
X13021301Y-15487674D01*
X13021301Y-15487674D02*
X13002253Y-15478150D01*
X13002253Y-15478150D02*
X12973682Y-15478150D01*
X12973682Y-15478150D02*
X12954634Y-15487674D01*
X12954634Y-15487674D02*
X12945110Y-15497198D01*
X13154634Y-15611484D02*
X13135587Y-15601960D01*
X13135587Y-15601960D02*
X13126063Y-15592436D01*
X13126063Y-15592436D02*
X13116539Y-15573388D01*
X13116539Y-15573388D02*
X13116539Y-15516246D01*
X13116539Y-15516246D02*
X13126063Y-15497198D01*
X13126063Y-15497198D02*
X13135587Y-15487674D01*
X13135587Y-15487674D02*
X13154634Y-15478150D01*
X13154634Y-15478150D02*
X13183206Y-15478150D01*
X13183206Y-15478150D02*
X13202253Y-15487674D01*
X13202253Y-15487674D02*
X13211777Y-15497198D01*
X13211777Y-15497198D02*
X13221301Y-15516246D01*
X13221301Y-15516246D02*
X13221301Y-15573388D01*
X13221301Y-15573388D02*
X13211777Y-15592436D01*
X13211777Y-15592436D02*
X13202253Y-15601960D01*
X13202253Y-15601960D02*
X13183206Y-15611484D01*
X13183206Y-15611484D02*
X13154634Y-15611484D01*
X13335587Y-15611484D02*
X13316539Y-15601960D01*
X13316539Y-15601960D02*
X13307015Y-15582912D01*
X13307015Y-15582912D02*
X13307015Y-15411484D01*
X13487968Y-15601960D02*
X13468920Y-15611484D01*
X13468920Y-15611484D02*
X13430825Y-15611484D01*
X13430825Y-15611484D02*
X13411777Y-15601960D01*
X13411777Y-15601960D02*
X13402253Y-15582912D01*
X13402253Y-15582912D02*
X13402253Y-15506722D01*
X13402253Y-15506722D02*
X13411777Y-15487674D01*
X13411777Y-15487674D02*
X13430825Y-15478150D01*
X13430825Y-15478150D02*
X13468920Y-15478150D01*
X13468920Y-15478150D02*
X13487968Y-15487674D01*
X13487968Y-15487674D02*
X13497491Y-15506722D01*
X13497491Y-15506722D02*
X13497491Y-15525769D01*
X13497491Y-15525769D02*
X13402253Y-15544817D01*
X13573682Y-15601960D02*
X13592730Y-15611484D01*
X13592730Y-15611484D02*
X13630825Y-15611484D01*
X13630825Y-15611484D02*
X13649872Y-15601960D01*
X13649872Y-15601960D02*
X13659396Y-15582912D01*
X13659396Y-15582912D02*
X13659396Y-15573388D01*
X13659396Y-15573388D02*
X13649872Y-15554341D01*
X13649872Y-15554341D02*
X13630825Y-15544817D01*
X13630825Y-15544817D02*
X13602253Y-15544817D01*
X13602253Y-15544817D02*
X13583206Y-15535293D01*
X13583206Y-15535293D02*
X13573682Y-15516246D01*
X13573682Y-15516246D02*
X13573682Y-15506722D01*
X13573682Y-15506722D02*
X13583206Y-15487674D01*
X13583206Y-15487674D02*
X13602253Y-15478150D01*
X13602253Y-15478150D02*
X13630825Y-15478150D01*
X13630825Y-15478150D02*
X13649872Y-15487674D01*
X13726063Y-15687674D02*
X13735587Y-15678150D01*
X13735587Y-15678150D02*
X13754634Y-15649579D01*
X13754634Y-15649579D02*
X13764158Y-15630531D01*
X13764158Y-15630531D02*
X13773682Y-15601960D01*
X13773682Y-15601960D02*
X13783206Y-15554341D01*
X13783206Y-15554341D02*
X13783206Y-15516246D01*
X13783206Y-15516246D02*
X13773682Y-15468627D01*
X13773682Y-15468627D02*
X13764158Y-15440055D01*
X13764158Y-15440055D02*
X13754634Y-15421008D01*
X13754634Y-15421008D02*
X13735587Y-15392436D01*
X13735587Y-15392436D02*
X13726063Y-15382912D01*
X14087968Y-15687674D02*
X14078444Y-15678150D01*
X14078444Y-15678150D02*
X14059396Y-15649579D01*
X14059396Y-15649579D02*
X14049872Y-15630531D01*
X14049872Y-15630531D02*
X14040349Y-15601960D01*
X14040349Y-15601960D02*
X14030825Y-15554341D01*
X14030825Y-15554341D02*
X14030825Y-15516246D01*
X14030825Y-15516246D02*
X14040349Y-15468627D01*
X14040349Y-15468627D02*
X14049872Y-15440055D01*
X14049872Y-15440055D02*
X14059396Y-15421008D01*
X14059396Y-15421008D02*
X14078444Y-15392436D01*
X14078444Y-15392436D02*
X14087968Y-15382912D01*
X14164158Y-15478150D02*
X14164158Y-15611484D01*
X14164158Y-15497198D02*
X14173682Y-15487674D01*
X14173682Y-15487674D02*
X14192730Y-15478150D01*
X14192730Y-15478150D02*
X14221301Y-15478150D01*
X14221301Y-15478150D02*
X14240349Y-15487674D01*
X14240349Y-15487674D02*
X14249872Y-15506722D01*
X14249872Y-15506722D02*
X14249872Y-15611484D01*
X14373682Y-15611484D02*
X14354634Y-15601960D01*
X14354634Y-15601960D02*
X14345111Y-15592436D01*
X14345111Y-15592436D02*
X14335587Y-15573388D01*
X14335587Y-15573388D02*
X14335587Y-15516246D01*
X14335587Y-15516246D02*
X14345111Y-15497198D01*
X14345111Y-15497198D02*
X14354634Y-15487674D01*
X14354634Y-15487674D02*
X14373682Y-15478150D01*
X14373682Y-15478150D02*
X14402253Y-15478150D01*
X14402253Y-15478150D02*
X14421301Y-15487674D01*
X14421301Y-15487674D02*
X14430825Y-15497198D01*
X14430825Y-15497198D02*
X14440349Y-15516246D01*
X14440349Y-15516246D02*
X14440349Y-15573388D01*
X14440349Y-15573388D02*
X14430825Y-15592436D01*
X14430825Y-15592436D02*
X14421301Y-15601960D01*
X14421301Y-15601960D02*
X14402253Y-15611484D01*
X14402253Y-15611484D02*
X14373682Y-15611484D01*
X14497492Y-15478150D02*
X14573682Y-15478150D01*
X14526063Y-15411484D02*
X14526063Y-15582912D01*
X14526063Y-15582912D02*
X14535587Y-15601960D01*
X14535587Y-15601960D02*
X14554634Y-15611484D01*
X14554634Y-15611484D02*
X14573682Y-15611484D01*
X14792730Y-15478150D02*
X14792730Y-15678150D01*
X14792730Y-15487674D02*
X14811777Y-15478150D01*
X14811777Y-15478150D02*
X14849873Y-15478150D01*
X14849873Y-15478150D02*
X14868920Y-15487674D01*
X14868920Y-15487674D02*
X14878444Y-15497198D01*
X14878444Y-15497198D02*
X14887968Y-15516246D01*
X14887968Y-15516246D02*
X14887968Y-15573388D01*
X14887968Y-15573388D02*
X14878444Y-15592436D01*
X14878444Y-15592436D02*
X14868920Y-15601960D01*
X14868920Y-15601960D02*
X14849873Y-15611484D01*
X14849873Y-15611484D02*
X14811777Y-15611484D01*
X14811777Y-15611484D02*
X14792730Y-15601960D01*
X15002253Y-15611484D02*
X14983206Y-15601960D01*
X14983206Y-15601960D02*
X14973682Y-15582912D01*
X14973682Y-15582912D02*
X14973682Y-15411484D01*
X15164158Y-15611484D02*
X15164158Y-15506722D01*
X15164158Y-15506722D02*
X15154634Y-15487674D01*
X15154634Y-15487674D02*
X15135587Y-15478150D01*
X15135587Y-15478150D02*
X15097492Y-15478150D01*
X15097492Y-15478150D02*
X15078444Y-15487674D01*
X15164158Y-15601960D02*
X15145111Y-15611484D01*
X15145111Y-15611484D02*
X15097492Y-15611484D01*
X15097492Y-15611484D02*
X15078444Y-15601960D01*
X15078444Y-15601960D02*
X15068920Y-15582912D01*
X15068920Y-15582912D02*
X15068920Y-15563865D01*
X15068920Y-15563865D02*
X15078444Y-15544817D01*
X15078444Y-15544817D02*
X15097492Y-15535293D01*
X15097492Y-15535293D02*
X15145111Y-15535293D01*
X15145111Y-15535293D02*
X15164158Y-15525769D01*
X15230825Y-15478150D02*
X15307015Y-15478150D01*
X15259396Y-15411484D02*
X15259396Y-15582912D01*
X15259396Y-15582912D02*
X15268920Y-15601960D01*
X15268920Y-15601960D02*
X15287968Y-15611484D01*
X15287968Y-15611484D02*
X15307015Y-15611484D01*
X15449873Y-15601960D02*
X15430825Y-15611484D01*
X15430825Y-15611484D02*
X15392730Y-15611484D01*
X15392730Y-15611484D02*
X15373682Y-15601960D01*
X15373682Y-15601960D02*
X15364158Y-15582912D01*
X15364158Y-15582912D02*
X15364158Y-15506722D01*
X15364158Y-15506722D02*
X15373682Y-15487674D01*
X15373682Y-15487674D02*
X15392730Y-15478150D01*
X15392730Y-15478150D02*
X15430825Y-15478150D01*
X15430825Y-15478150D02*
X15449873Y-15487674D01*
X15449873Y-15487674D02*
X15459396Y-15506722D01*
X15459396Y-15506722D02*
X15459396Y-15525769D01*
X15459396Y-15525769D02*
X15364158Y-15544817D01*
X15630825Y-15611484D02*
X15630825Y-15411484D01*
X15630825Y-15601960D02*
X15611777Y-15611484D01*
X15611777Y-15611484D02*
X15573682Y-15611484D01*
X15573682Y-15611484D02*
X15554634Y-15601960D01*
X15554634Y-15601960D02*
X15545111Y-15592436D01*
X15545111Y-15592436D02*
X15535587Y-15573388D01*
X15535587Y-15573388D02*
X15535587Y-15516246D01*
X15535587Y-15516246D02*
X15545111Y-15497198D01*
X15545111Y-15497198D02*
X15554634Y-15487674D01*
X15554634Y-15487674D02*
X15573682Y-15478150D01*
X15573682Y-15478150D02*
X15611777Y-15478150D01*
X15611777Y-15478150D02*
X15630825Y-15487674D01*
X15707015Y-15687674D02*
X15716539Y-15678150D01*
X15716539Y-15678150D02*
X15735587Y-15649579D01*
X15735587Y-15649579D02*
X15745111Y-15630531D01*
X15745111Y-15630531D02*
X15754634Y-15601960D01*
X15754634Y-15601960D02*
X15764158Y-15554341D01*
X15764158Y-15554341D02*
X15764158Y-15516246D01*
X15764158Y-15516246D02*
X15754634Y-15468627D01*
X15754634Y-15468627D02*
X15745111Y-15440055D01*
X15745111Y-15440055D02*
X15735587Y-15421008D01*
X15735587Y-15421008D02*
X15716539Y-15392436D01*
X15716539Y-15392436D02*
X15707015Y-15382912D01*
M02*
