G04 #@! TF.GenerationSoftware,KiCad,Pcbnew,(5.1.7)-1*
G04 #@! TF.CreationDate,2021-02-01T12:22:18-08:00*
G04 #@! TF.ProjectId,LCP_PowerControl,4c43505f-506f-4776-9572-436f6e74726f,rev?*
G04 #@! TF.SameCoordinates,Original*
G04 #@! TF.FileFunction,Paste,Top*
G04 #@! TF.FilePolarity,Positive*
%FSLAX46Y46*%
G04 Gerber Fmt 4.6, Leading zero omitted, Abs format (unit mm)*
G04 Created by KiCad (PCBNEW (5.1.7)-1) date 2021-02-01 12:22:18*
%MOMM*%
%LPD*%
G01*
G04 APERTURE LIST*
%ADD10C,0.100000*%
%ADD11R,9.000000X2.380000*%
%ADD12R,0.400000X2.400000*%
%ADD13R,1.000000X0.400000*%
%ADD14R,0.700000X0.250000*%
%ADD15R,0.300000X0.700000*%
%ADD16R,0.250000X0.700000*%
%ADD17R,0.650000X1.560000*%
%ADD18R,8.200000X2.600000*%
%ADD19R,1.000000X1.000000*%
G04 APERTURE END LIST*
G36*
G01*
X89363573Y-88320824D02*
X90035324Y-87649073D01*
G75*
G02*
X90388878Y-87649073I176777J-176777D01*
G01*
X90742431Y-88002626D01*
G75*
G02*
X90742431Y-88356180I-176777J-176777D01*
G01*
X90070680Y-89027931D01*
G75*
G02*
X89717126Y-89027931I-176777J176777D01*
G01*
X89363573Y-88674378D01*
G75*
G02*
X89363573Y-88320824I176777J176777D01*
G01*
G37*
G36*
G01*
X88020071Y-86977322D02*
X88691822Y-86305571D01*
G75*
G02*
X89045376Y-86305571I176777J-176777D01*
G01*
X89398929Y-86659124D01*
G75*
G02*
X89398929Y-87012678I-176777J-176777D01*
G01*
X88727178Y-87684429D01*
G75*
G02*
X88373624Y-87684429I-176777J176777D01*
G01*
X88020071Y-87330876D01*
G75*
G02*
X88020071Y-86977322I176777J176777D01*
G01*
G37*
G36*
G01*
X93172178Y-70529427D02*
X92500427Y-71201178D01*
G75*
G02*
X92146873Y-71201178I-176777J176777D01*
G01*
X91793320Y-70847625D01*
G75*
G02*
X91793320Y-70494071I176777J176777D01*
G01*
X92465071Y-69822320D01*
G75*
G02*
X92818625Y-69822320I176777J-176777D01*
G01*
X93172178Y-70175873D01*
G75*
G02*
X93172178Y-70529427I-176777J-176777D01*
G01*
G37*
G36*
G01*
X94515680Y-71872929D02*
X93843929Y-72544680D01*
G75*
G02*
X93490375Y-72544680I-176777J176777D01*
G01*
X93136822Y-72191127D01*
G75*
G02*
X93136822Y-71837573I176777J176777D01*
G01*
X93808573Y-71165822D01*
G75*
G02*
X94162127Y-71165822I176777J-176777D01*
G01*
X94515680Y-71519375D01*
G75*
G02*
X94515680Y-71872929I-176777J-176777D01*
G01*
G37*
D10*
G36*
X91523720Y-62183527D02*
G01*
X90671454Y-61072833D01*
X91940820Y-60098815D01*
X92793086Y-61209509D01*
X91523720Y-62183527D01*
G37*
G36*
X97235864Y-57800445D02*
G01*
X96383598Y-56689751D01*
X97652964Y-55715733D01*
X98505230Y-56826427D01*
X97235864Y-57800445D01*
G37*
G36*
X89697436Y-59803467D02*
G01*
X88845170Y-58692773D01*
X90114536Y-57718755D01*
X90966802Y-58829449D01*
X89697436Y-59803467D01*
G37*
G36*
X95409580Y-55420385D02*
G01*
X94557314Y-54309691D01*
X95826680Y-53335673D01*
X96678946Y-54446367D01*
X95409580Y-55420385D01*
G37*
G36*
G01*
X75506708Y-86378708D02*
X75506708Y-87478708D01*
G75*
G02*
X75256708Y-87728708I-250000J0D01*
G01*
X73156708Y-87728708D01*
G75*
G02*
X72906708Y-87478708I0J250000D01*
G01*
X72906708Y-86378708D01*
G75*
G02*
X73156708Y-86128708I250000J0D01*
G01*
X75256708Y-86128708D01*
G75*
G02*
X75506708Y-86378708I0J-250000D01*
G01*
G37*
G36*
G01*
X79106708Y-86378708D02*
X79106708Y-87478708D01*
G75*
G02*
X78856708Y-87728708I-250000J0D01*
G01*
X76756708Y-87728708D01*
G75*
G02*
X76506708Y-87478708I0J250000D01*
G01*
X76506708Y-86378708D01*
G75*
G02*
X76756708Y-86128708I250000J0D01*
G01*
X78856708Y-86128708D01*
G75*
G02*
X79106708Y-86378708I0J-250000D01*
G01*
G37*
G36*
G01*
X83093356Y-72677957D02*
X82456957Y-73314356D01*
G75*
G02*
X82103407Y-73314356I-176775J176775D01*
G01*
X81732174Y-72943123D01*
G75*
G02*
X81732174Y-72589573I176775J176775D01*
G01*
X82368573Y-71953174D01*
G75*
G02*
X82722123Y-71953174I176775J-176775D01*
G01*
X83093356Y-72324407D01*
G75*
G02*
X83093356Y-72677957I-176775J-176775D01*
G01*
G37*
G36*
G01*
X84383826Y-73968427D02*
X83747427Y-74604826D01*
G75*
G02*
X83393877Y-74604826I-176775J176775D01*
G01*
X83022644Y-74233593D01*
G75*
G02*
X83022644Y-73880043I176775J176775D01*
G01*
X83659043Y-73243644D01*
G75*
G02*
X84012593Y-73243644I176775J-176775D01*
G01*
X84383826Y-73614877D01*
G75*
G02*
X84383826Y-73968427I-176775J-176775D01*
G01*
G37*
G36*
G01*
X90972006Y-78579271D02*
X90326771Y-79224506D01*
G75*
G02*
X89982057Y-79224506I-172357J172357D01*
G01*
X89637342Y-78879791D01*
G75*
G02*
X89637342Y-78535077I172357J172357D01*
G01*
X90282577Y-77889842D01*
G75*
G02*
X90627291Y-77889842I172357J-172357D01*
G01*
X90972006Y-78234557D01*
G75*
G02*
X90972006Y-78579271I-172357J-172357D01*
G01*
G37*
G36*
G01*
X92297832Y-79905097D02*
X91652597Y-80550332D01*
G75*
G02*
X91307883Y-80550332I-172357J172357D01*
G01*
X90963168Y-80205617D01*
G75*
G02*
X90963168Y-79860903I172357J172357D01*
G01*
X91608403Y-79215668D01*
G75*
G02*
X91953117Y-79215668I172357J-172357D01*
G01*
X92297832Y-79560383D01*
G75*
G02*
X92297832Y-79905097I-172357J-172357D01*
G01*
G37*
G36*
G01*
X146301750Y-140964500D02*
X146814250Y-140964500D01*
G75*
G02*
X147033000Y-141183250I0J-218750D01*
G01*
X147033000Y-141620750D01*
G75*
G02*
X146814250Y-141839500I-218750J0D01*
G01*
X146301750Y-141839500D01*
G75*
G02*
X146083000Y-141620750I0J218750D01*
G01*
X146083000Y-141183250D01*
G75*
G02*
X146301750Y-140964500I218750J0D01*
G01*
G37*
G36*
G01*
X146301750Y-139389500D02*
X146814250Y-139389500D01*
G75*
G02*
X147033000Y-139608250I0J-218750D01*
G01*
X147033000Y-140045750D01*
G75*
G02*
X146814250Y-140264500I-218750J0D01*
G01*
X146301750Y-140264500D01*
G75*
G02*
X146083000Y-140045750I0J218750D01*
G01*
X146083000Y-139608250D01*
G75*
G02*
X146301750Y-139389500I218750J0D01*
G01*
G37*
D11*
X123723400Y-132717400D03*
X123723400Y-139367400D03*
D12*
X123723400Y-143170400D03*
D10*
G36*
X121768496Y-142369425D02*
G01*
X121768781Y-142368487D01*
X121769243Y-142367622D01*
X121769864Y-142366864D01*
X121770622Y-142366243D01*
X121771487Y-142365781D01*
X121772425Y-142365496D01*
X121773400Y-142365400D01*
X122368400Y-142365400D01*
X122368400Y-141970400D01*
X122368496Y-141969425D01*
X122368781Y-141968487D01*
X122369243Y-141967622D01*
X122369864Y-141966864D01*
X122370622Y-141966243D01*
X122371487Y-141965781D01*
X122372425Y-141965496D01*
X122373400Y-141965400D01*
X122773400Y-141965400D01*
X122774375Y-141965496D01*
X122775313Y-141965781D01*
X122776178Y-141966243D01*
X122776936Y-141966864D01*
X122777557Y-141967622D01*
X122778019Y-141968487D01*
X122778304Y-141969425D01*
X122778400Y-141970400D01*
X122778400Y-142770400D01*
X122778304Y-142771375D01*
X122778019Y-142772313D01*
X122777557Y-142773178D01*
X122776936Y-142773936D01*
X122776178Y-142774557D01*
X122775313Y-142775019D01*
X122774375Y-142775304D01*
X122773400Y-142775400D01*
X121773400Y-142775400D01*
X121772425Y-142775304D01*
X121771487Y-142775019D01*
X121770622Y-142774557D01*
X121769864Y-142773936D01*
X121769243Y-142773178D01*
X121768781Y-142772313D01*
X121768496Y-142771375D01*
X121768400Y-142770400D01*
X121768400Y-142370400D01*
X121768496Y-142369425D01*
G37*
G36*
X125678304Y-142771375D02*
G01*
X125678019Y-142772313D01*
X125677557Y-142773178D01*
X125676936Y-142773936D01*
X125676178Y-142774557D01*
X125675313Y-142775019D01*
X125674375Y-142775304D01*
X125673400Y-142775400D01*
X124673400Y-142775400D01*
X124672425Y-142775304D01*
X124671487Y-142775019D01*
X124670622Y-142774557D01*
X124669864Y-142773936D01*
X124669243Y-142773178D01*
X124668781Y-142772313D01*
X124668496Y-142771375D01*
X124668400Y-142770400D01*
X124668400Y-141970400D01*
X124668496Y-141969425D01*
X124668781Y-141968487D01*
X124669243Y-141967622D01*
X124669864Y-141966864D01*
X124670622Y-141966243D01*
X124671487Y-141965781D01*
X124672425Y-141965496D01*
X124673400Y-141965400D01*
X125073400Y-141965400D01*
X125074375Y-141965496D01*
X125075313Y-141965781D01*
X125076178Y-141966243D01*
X125076936Y-141966864D01*
X125077557Y-141967622D01*
X125078019Y-141968487D01*
X125078304Y-141969425D01*
X125078400Y-141970400D01*
X125078400Y-142365400D01*
X125673400Y-142365400D01*
X125674375Y-142365496D01*
X125675313Y-142365781D01*
X125676178Y-142366243D01*
X125676936Y-142366864D01*
X125677557Y-142367622D01*
X125678019Y-142368487D01*
X125678304Y-142369425D01*
X125678400Y-142370400D01*
X125678400Y-142770400D01*
X125678304Y-142771375D01*
G37*
D13*
X122273400Y-143720400D03*
X125173400Y-143720400D03*
D14*
X122123400Y-145295400D03*
X122123400Y-144795400D03*
X125323400Y-144795400D03*
X125323400Y-145295400D03*
D15*
X123723400Y-146020400D03*
D10*
G36*
X121768496Y-145669425D02*
G01*
X121768781Y-145668487D01*
X121769243Y-145667622D01*
X121769864Y-145666864D01*
X121770622Y-145666243D01*
X121771487Y-145665781D01*
X121772425Y-145665496D01*
X121773400Y-145665400D01*
X122773400Y-145665400D01*
X122774375Y-145665496D01*
X122775313Y-145665781D01*
X122776178Y-145666243D01*
X122776936Y-145666864D01*
X122777557Y-145667622D01*
X122778019Y-145668487D01*
X122778304Y-145669425D01*
X122778400Y-145670400D01*
X122778400Y-146370400D01*
X122778304Y-146371375D01*
X122778019Y-146372313D01*
X122777557Y-146373178D01*
X122776936Y-146373936D01*
X122776178Y-146374557D01*
X122775313Y-146375019D01*
X122774375Y-146375304D01*
X122773400Y-146375400D01*
X122373400Y-146375400D01*
X122372425Y-146375304D01*
X122371487Y-146375019D01*
X122370622Y-146374557D01*
X122369864Y-146373936D01*
X122369243Y-146373178D01*
X122368781Y-146372313D01*
X122368496Y-146371375D01*
X122368400Y-146370400D01*
X122368400Y-146025400D01*
X121773400Y-146025400D01*
X121772425Y-146025304D01*
X121771487Y-146025019D01*
X121770622Y-146024557D01*
X121769864Y-146023936D01*
X121769243Y-146023178D01*
X121768781Y-146022313D01*
X121768496Y-146021375D01*
X121768400Y-146020400D01*
X121768400Y-145670400D01*
X121768496Y-145669425D01*
G37*
G36*
X125678304Y-146021375D02*
G01*
X125678019Y-146022313D01*
X125677557Y-146023178D01*
X125676936Y-146023936D01*
X125676178Y-146024557D01*
X125675313Y-146025019D01*
X125674375Y-146025304D01*
X125673400Y-146025400D01*
X125078400Y-146025400D01*
X125078400Y-146370400D01*
X125078304Y-146371375D01*
X125078019Y-146372313D01*
X125077557Y-146373178D01*
X125076936Y-146373936D01*
X125076178Y-146374557D01*
X125075313Y-146375019D01*
X125074375Y-146375304D01*
X125073400Y-146375400D01*
X124673400Y-146375400D01*
X124672425Y-146375304D01*
X124671487Y-146375019D01*
X124670622Y-146374557D01*
X124669864Y-146373936D01*
X124669243Y-146373178D01*
X124668781Y-146372313D01*
X124668496Y-146371375D01*
X124668400Y-146370400D01*
X124668400Y-145670400D01*
X124668496Y-145669425D01*
X124668781Y-145668487D01*
X124669243Y-145667622D01*
X124669864Y-145666864D01*
X124670622Y-145666243D01*
X124671487Y-145665781D01*
X124672425Y-145665496D01*
X124673400Y-145665400D01*
X125673400Y-145665400D01*
X125674375Y-145665496D01*
X125675313Y-145665781D01*
X125676178Y-145666243D01*
X125676936Y-145666864D01*
X125677557Y-145667622D01*
X125678019Y-145668487D01*
X125678304Y-145669425D01*
X125678400Y-145670400D01*
X125678400Y-146020400D01*
X125678304Y-146021375D01*
G37*
D16*
X124248400Y-146020400D03*
X123198400Y-146020400D03*
D17*
X148910000Y-139192000D03*
X147960000Y-139192000D03*
X149860000Y-139192000D03*
X149860000Y-141892000D03*
X148910000Y-141892000D03*
X147960000Y-141892000D03*
D10*
G36*
X147460723Y-59559279D02*
G01*
X147283946Y-59736056D01*
X146718261Y-59170371D01*
X146895038Y-58993594D01*
X147460723Y-59559279D01*
G37*
G36*
X149334556Y-57685446D02*
G01*
X149157779Y-57862223D01*
X148592094Y-57296538D01*
X148768871Y-57119761D01*
X149334556Y-57685446D01*
G37*
G36*
X148556739Y-56907629D02*
G01*
X148379962Y-57084406D01*
X147814277Y-56518721D01*
X147991054Y-56341944D01*
X148556739Y-56907629D01*
G37*
G36*
X146682906Y-58781462D02*
G01*
X146506129Y-58958239D01*
X145940444Y-58392554D01*
X146117221Y-58215777D01*
X146682906Y-58781462D01*
G37*
G36*
X147991054Y-59736056D02*
G01*
X147814277Y-59559279D01*
X148379962Y-58993594D01*
X148556739Y-59170371D01*
X147991054Y-59736056D01*
G37*
G36*
X148768871Y-58958239D02*
G01*
X148592094Y-58781462D01*
X149157779Y-58215777D01*
X149334556Y-58392554D01*
X148768871Y-58958239D01*
G37*
G36*
X146895038Y-57084406D02*
G01*
X146718261Y-56907629D01*
X147283946Y-56341944D01*
X147460723Y-56518721D01*
X146895038Y-57084406D01*
G37*
G36*
X146117221Y-57862223D02*
G01*
X145940444Y-57685446D01*
X146506129Y-57119761D01*
X146682906Y-57296538D01*
X146117221Y-57862223D01*
G37*
G36*
X146842005Y-58622363D02*
G01*
X146276320Y-58056678D01*
X146877361Y-57455637D01*
X147443046Y-58021322D01*
X146842005Y-58622363D01*
G37*
G36*
X147637500Y-57862224D02*
G01*
X147036459Y-57261183D01*
X147637500Y-56660142D01*
X148238541Y-57261183D01*
X147637500Y-57862224D01*
G37*
G36*
X148415317Y-58640041D02*
G01*
X147814276Y-58039000D01*
X148415317Y-57437959D01*
X149016358Y-58039000D01*
X148415317Y-58640041D01*
G37*
G36*
X147637500Y-59417858D02*
G01*
X147036459Y-58816817D01*
X147637500Y-58215776D01*
X148238541Y-58816817D01*
X147637500Y-59417858D01*
G37*
G36*
X147778921Y-54998441D02*
G01*
X147460723Y-54680243D01*
X148203185Y-53937781D01*
X148521383Y-54255979D01*
X147778921Y-54998441D01*
G37*
G36*
X148238541Y-55458060D02*
G01*
X147920343Y-55139862D01*
X148662805Y-54397400D01*
X148981003Y-54715598D01*
X148238541Y-55458060D01*
G37*
G36*
X148698160Y-55917680D02*
G01*
X148379962Y-55599482D01*
X149122424Y-54857020D01*
X149440622Y-55175218D01*
X148698160Y-55917680D01*
G37*
G36*
X149157780Y-56377299D02*
G01*
X148839582Y-56059101D01*
X149582044Y-55316639D01*
X149900242Y-55634837D01*
X149157780Y-56377299D01*
G37*
G36*
X149617399Y-56836918D02*
G01*
X149299201Y-56518720D01*
X150041663Y-55776258D01*
X150359861Y-56094456D01*
X149617399Y-56836918D01*
G37*
G36*
X150077018Y-57296538D02*
G01*
X149758820Y-56978340D01*
X150501282Y-56235878D01*
X150819480Y-56554076D01*
X150077018Y-57296538D01*
G37*
G36*
X150536638Y-57756157D02*
G01*
X150218440Y-57437959D01*
X150960902Y-56695497D01*
X151279100Y-57013695D01*
X150536638Y-57756157D01*
G37*
G36*
X150996257Y-58215777D02*
G01*
X150678059Y-57897579D01*
X151420521Y-57155117D01*
X151738719Y-57473315D01*
X150996257Y-58215777D01*
G37*
G36*
X147071815Y-62140219D02*
G01*
X146753617Y-61822021D01*
X147496079Y-61079559D01*
X147814277Y-61397757D01*
X147071815Y-62140219D01*
G37*
G36*
X146612195Y-61680600D02*
G01*
X146293997Y-61362402D01*
X147036459Y-60619940D01*
X147354657Y-60938138D01*
X146612195Y-61680600D01*
G37*
G36*
X146152576Y-61220980D02*
G01*
X145834378Y-60902782D01*
X146576840Y-60160320D01*
X146895038Y-60478518D01*
X146152576Y-61220980D01*
G37*
G36*
X145692956Y-60761361D02*
G01*
X145374758Y-60443163D01*
X146117220Y-59700701D01*
X146435418Y-60018899D01*
X145692956Y-60761361D01*
G37*
G36*
X145233337Y-60301742D02*
G01*
X144915139Y-59983544D01*
X145657601Y-59241082D01*
X145975799Y-59559280D01*
X145233337Y-60301742D01*
G37*
G36*
X144773718Y-59842122D02*
G01*
X144455520Y-59523924D01*
X145197982Y-58781462D01*
X145516180Y-59099660D01*
X144773718Y-59842122D01*
G37*
G36*
X144314098Y-59382503D02*
G01*
X143995900Y-59064305D01*
X144738362Y-58321843D01*
X145056560Y-58640041D01*
X144314098Y-59382503D01*
G37*
G36*
X143854479Y-58922883D02*
G01*
X143536281Y-58604685D01*
X144278743Y-57862223D01*
X144596941Y-58180421D01*
X143854479Y-58922883D01*
G37*
G36*
G01*
X121457500Y-147955500D02*
X121112500Y-147955500D01*
G75*
G02*
X120965000Y-147808000I0J147500D01*
G01*
X120965000Y-147513000D01*
G75*
G02*
X121112500Y-147365500I147500J0D01*
G01*
X121457500Y-147365500D01*
G75*
G02*
X121605000Y-147513000I0J-147500D01*
G01*
X121605000Y-147808000D01*
G75*
G02*
X121457500Y-147955500I-147500J0D01*
G01*
G37*
G36*
G01*
X121457500Y-148925500D02*
X121112500Y-148925500D01*
G75*
G02*
X120965000Y-148778000I0J147500D01*
G01*
X120965000Y-148483000D01*
G75*
G02*
X121112500Y-148335500I147500J0D01*
G01*
X121457500Y-148335500D01*
G75*
G02*
X121605000Y-148483000I0J-147500D01*
G01*
X121605000Y-148778000D01*
G75*
G02*
X121457500Y-148925500I-147500J0D01*
G01*
G37*
G36*
G01*
X119969500Y-148358500D02*
X120314500Y-148358500D01*
G75*
G02*
X120462000Y-148506000I0J-147500D01*
G01*
X120462000Y-148801000D01*
G75*
G02*
X120314500Y-148948500I-147500J0D01*
G01*
X119969500Y-148948500D01*
G75*
G02*
X119822000Y-148801000I0J147500D01*
G01*
X119822000Y-148506000D01*
G75*
G02*
X119969500Y-148358500I147500J0D01*
G01*
G37*
G36*
G01*
X119969500Y-147388500D02*
X120314500Y-147388500D01*
G75*
G02*
X120462000Y-147536000I0J-147500D01*
G01*
X120462000Y-147831000D01*
G75*
G02*
X120314500Y-147978500I-147500J0D01*
G01*
X119969500Y-147978500D01*
G75*
G02*
X119822000Y-147831000I0J147500D01*
G01*
X119822000Y-147536000D01*
G75*
G02*
X119969500Y-147388500I147500J0D01*
G01*
G37*
G36*
G01*
X123906500Y-149120500D02*
X124251500Y-149120500D01*
G75*
G02*
X124399000Y-149268000I0J-147500D01*
G01*
X124399000Y-149563000D01*
G75*
G02*
X124251500Y-149710500I-147500J0D01*
G01*
X123906500Y-149710500D01*
G75*
G02*
X123759000Y-149563000I0J147500D01*
G01*
X123759000Y-149268000D01*
G75*
G02*
X123906500Y-149120500I147500J0D01*
G01*
G37*
G36*
G01*
X123906500Y-148150500D02*
X124251500Y-148150500D01*
G75*
G02*
X124399000Y-148298000I0J-147500D01*
G01*
X124399000Y-148593000D01*
G75*
G02*
X124251500Y-148740500I-147500J0D01*
G01*
X123906500Y-148740500D01*
G75*
G02*
X123759000Y-148593000I0J147500D01*
G01*
X123759000Y-148298000D01*
G75*
G02*
X123906500Y-148150500I147500J0D01*
G01*
G37*
G36*
G01*
X124922500Y-148018000D02*
X125267500Y-148018000D01*
G75*
G02*
X125415000Y-148165500I0J-147500D01*
G01*
X125415000Y-148460500D01*
G75*
G02*
X125267500Y-148608000I-147500J0D01*
G01*
X124922500Y-148608000D01*
G75*
G02*
X124775000Y-148460500I0J147500D01*
G01*
X124775000Y-148165500D01*
G75*
G02*
X124922500Y-148018000I147500J0D01*
G01*
G37*
G36*
G01*
X124922500Y-147048000D02*
X125267500Y-147048000D01*
G75*
G02*
X125415000Y-147195500I0J-147500D01*
G01*
X125415000Y-147490500D01*
G75*
G02*
X125267500Y-147638000I-147500J0D01*
G01*
X124922500Y-147638000D01*
G75*
G02*
X124775000Y-147490500I0J147500D01*
G01*
X124775000Y-147195500D01*
G75*
G02*
X124922500Y-147048000I147500J0D01*
G01*
G37*
G36*
G01*
X126700500Y-146303500D02*
X127045500Y-146303500D01*
G75*
G02*
X127193000Y-146451000I0J-147500D01*
G01*
X127193000Y-146746000D01*
G75*
G02*
X127045500Y-146893500I-147500J0D01*
G01*
X126700500Y-146893500D01*
G75*
G02*
X126553000Y-146746000I0J147500D01*
G01*
X126553000Y-146451000D01*
G75*
G02*
X126700500Y-146303500I147500J0D01*
G01*
G37*
G36*
G01*
X126700500Y-145333500D02*
X127045500Y-145333500D01*
G75*
G02*
X127193000Y-145481000I0J-147500D01*
G01*
X127193000Y-145776000D01*
G75*
G02*
X127045500Y-145923500I-147500J0D01*
G01*
X126700500Y-145923500D01*
G75*
G02*
X126553000Y-145776000I0J147500D01*
G01*
X126553000Y-145481000D01*
G75*
G02*
X126700500Y-145333500I147500J0D01*
G01*
G37*
G36*
G01*
X86308250Y-116248000D02*
X85395750Y-116248000D01*
G75*
G02*
X85152000Y-116004250I0J243750D01*
G01*
X85152000Y-115516750D01*
G75*
G02*
X85395750Y-115273000I243750J0D01*
G01*
X86308250Y-115273000D01*
G75*
G02*
X86552000Y-115516750I0J-243750D01*
G01*
X86552000Y-116004250D01*
G75*
G02*
X86308250Y-116248000I-243750J0D01*
G01*
G37*
G36*
G01*
X86308250Y-118123000D02*
X85395750Y-118123000D01*
G75*
G02*
X85152000Y-117879250I0J243750D01*
G01*
X85152000Y-117391750D01*
G75*
G02*
X85395750Y-117148000I243750J0D01*
G01*
X86308250Y-117148000D01*
G75*
G02*
X86552000Y-117391750I0J-243750D01*
G01*
X86552000Y-117879250D01*
G75*
G02*
X86308250Y-118123000I-243750J0D01*
G01*
G37*
G36*
G01*
X84905000Y-109422250D02*
X84905000Y-108509750D01*
G75*
G02*
X85148750Y-108266000I243750J0D01*
G01*
X85636250Y-108266000D01*
G75*
G02*
X85880000Y-108509750I0J-243750D01*
G01*
X85880000Y-109422250D01*
G75*
G02*
X85636250Y-109666000I-243750J0D01*
G01*
X85148750Y-109666000D01*
G75*
G02*
X84905000Y-109422250I0J243750D01*
G01*
G37*
G36*
G01*
X83030000Y-109422250D02*
X83030000Y-108509750D01*
G75*
G02*
X83273750Y-108266000I243750J0D01*
G01*
X83761250Y-108266000D01*
G75*
G02*
X84005000Y-108509750I0J-243750D01*
G01*
X84005000Y-109422250D01*
G75*
G02*
X83761250Y-109666000I-243750J0D01*
G01*
X83273750Y-109666000D01*
G75*
G02*
X83030000Y-109422250I0J243750D01*
G01*
G37*
G36*
G01*
X82307750Y-109707500D02*
X81395250Y-109707500D01*
G75*
G02*
X81151500Y-109463750I0J243750D01*
G01*
X81151500Y-108976250D01*
G75*
G02*
X81395250Y-108732500I243750J0D01*
G01*
X82307750Y-108732500D01*
G75*
G02*
X82551500Y-108976250I0J-243750D01*
G01*
X82551500Y-109463750D01*
G75*
G02*
X82307750Y-109707500I-243750J0D01*
G01*
G37*
G36*
G01*
X82307750Y-111582500D02*
X81395250Y-111582500D01*
G75*
G02*
X81151500Y-111338750I0J243750D01*
G01*
X81151500Y-110851250D01*
G75*
G02*
X81395250Y-110607500I243750J0D01*
G01*
X82307750Y-110607500D01*
G75*
G02*
X82551500Y-110851250I0J-243750D01*
G01*
X82551500Y-111338750D01*
G75*
G02*
X82307750Y-111582500I-243750J0D01*
G01*
G37*
D18*
X141218000Y-144024000D03*
X141218000Y-138424000D03*
G36*
G01*
X81462884Y-66513125D02*
X80876340Y-67212140D01*
G75*
G02*
X80532938Y-67242184I-186723J156679D01*
G01*
X80159492Y-66928825D01*
G75*
G02*
X80129448Y-66585423I156679J186723D01*
G01*
X80715992Y-65886408D01*
G75*
G02*
X81059394Y-65856364I186723J-156679D01*
G01*
X81432840Y-66169723D01*
G75*
G02*
X81462884Y-66513125I-156679J-186723D01*
G01*
G37*
G36*
G01*
X82899218Y-67718351D02*
X82312674Y-68417366D01*
G75*
G02*
X81969272Y-68447410I-186723J156679D01*
G01*
X81595826Y-68134051D01*
G75*
G02*
X81565782Y-67790649I156679J186723D01*
G01*
X82152326Y-67091634D01*
G75*
G02*
X82495728Y-67061590I186723J-156679D01*
G01*
X82869174Y-67374949D01*
G75*
G02*
X82899218Y-67718351I-156679J-186723D01*
G01*
G37*
G36*
G01*
X79782031Y-68930380D02*
X79258642Y-69677856D01*
G75*
G02*
X78919165Y-69737715I-199668J139809D01*
G01*
X78519828Y-69458097D01*
G75*
G02*
X78459969Y-69118620I139809J199668D01*
G01*
X78983358Y-68371144D01*
G75*
G02*
X79322835Y-68311285I199668J-139809D01*
G01*
X79722172Y-68590903D01*
G75*
G02*
X79782031Y-68930380I-139809J-199668D01*
G01*
G37*
G36*
G01*
X81317941Y-70005836D02*
X80794552Y-70753312D01*
G75*
G02*
X80455075Y-70813171I-199668J139809D01*
G01*
X80055738Y-70533553D01*
G75*
G02*
X79995879Y-70194076I139809J199668D01*
G01*
X80519268Y-69446600D01*
G75*
G02*
X80858745Y-69386741I199668J-139809D01*
G01*
X81258082Y-69666359D01*
G75*
G02*
X81317941Y-70005836I-139809J-199668D01*
G01*
G37*
D19*
X82804000Y-112689000D03*
X82804000Y-115189000D03*
G36*
G01*
X116786950Y-134208000D02*
X117299450Y-134208000D01*
G75*
G02*
X117518200Y-134426750I0J-218750D01*
G01*
X117518200Y-134864250D01*
G75*
G02*
X117299450Y-135083000I-218750J0D01*
G01*
X116786950Y-135083000D01*
G75*
G02*
X116568200Y-134864250I0J218750D01*
G01*
X116568200Y-134426750D01*
G75*
G02*
X116786950Y-134208000I218750J0D01*
G01*
G37*
G36*
G01*
X116786950Y-132633000D02*
X117299450Y-132633000D01*
G75*
G02*
X117518200Y-132851750I0J-218750D01*
G01*
X117518200Y-133289250D01*
G75*
G02*
X117299450Y-133508000I-218750J0D01*
G01*
X116786950Y-133508000D01*
G75*
G02*
X116568200Y-133289250I0J218750D01*
G01*
X116568200Y-132851750D01*
G75*
G02*
X116786950Y-132633000I218750J0D01*
G01*
G37*
G36*
G01*
X130236250Y-133890500D02*
X130748750Y-133890500D01*
G75*
G02*
X130967500Y-134109250I0J-218750D01*
G01*
X130967500Y-134546750D01*
G75*
G02*
X130748750Y-134765500I-218750J0D01*
G01*
X130236250Y-134765500D01*
G75*
G02*
X130017500Y-134546750I0J218750D01*
G01*
X130017500Y-134109250D01*
G75*
G02*
X130236250Y-133890500I218750J0D01*
G01*
G37*
G36*
G01*
X130236250Y-132315500D02*
X130748750Y-132315500D01*
G75*
G02*
X130967500Y-132534250I0J-218750D01*
G01*
X130967500Y-132971750D01*
G75*
G02*
X130748750Y-133190500I-218750J0D01*
G01*
X130236250Y-133190500D01*
G75*
G02*
X130017500Y-132971750I0J218750D01*
G01*
X130017500Y-132534250D01*
G75*
G02*
X130236250Y-132315500I218750J0D01*
G01*
G37*
G36*
G01*
X136007000Y-138991500D02*
X134757000Y-138991500D01*
G75*
G02*
X134507000Y-138741500I0J250000D01*
G01*
X134507000Y-137991500D01*
G75*
G02*
X134757000Y-137741500I250000J0D01*
G01*
X136007000Y-137741500D01*
G75*
G02*
X136257000Y-137991500I0J-250000D01*
G01*
X136257000Y-138741500D01*
G75*
G02*
X136007000Y-138991500I-250000J0D01*
G01*
G37*
G36*
G01*
X136007000Y-141791500D02*
X134757000Y-141791500D01*
G75*
G02*
X134507000Y-141541500I0J250000D01*
G01*
X134507000Y-140791500D01*
G75*
G02*
X134757000Y-140541500I250000J0D01*
G01*
X136007000Y-140541500D01*
G75*
G02*
X136257000Y-140791500I0J-250000D01*
G01*
X136257000Y-141541500D01*
G75*
G02*
X136007000Y-141791500I-250000J0D01*
G01*
G37*
G36*
G01*
X120119500Y-145115500D02*
X120119500Y-145460500D01*
G75*
G02*
X119972000Y-145608000I-147500J0D01*
G01*
X119677000Y-145608000D01*
G75*
G02*
X119529500Y-145460500I0J147500D01*
G01*
X119529500Y-145115500D01*
G75*
G02*
X119677000Y-144968000I147500J0D01*
G01*
X119972000Y-144968000D01*
G75*
G02*
X120119500Y-145115500I0J-147500D01*
G01*
G37*
G36*
G01*
X121089500Y-145115500D02*
X121089500Y-145460500D01*
G75*
G02*
X120942000Y-145608000I-147500J0D01*
G01*
X120647000Y-145608000D01*
G75*
G02*
X120499500Y-145460500I0J147500D01*
G01*
X120499500Y-145115500D01*
G75*
G02*
X120647000Y-144968000I147500J0D01*
G01*
X120942000Y-144968000D01*
G75*
G02*
X121089500Y-145115500I0J-147500D01*
G01*
G37*
G36*
G01*
X122425750Y-148749500D02*
X122938250Y-148749500D01*
G75*
G02*
X123157000Y-148968250I0J-218750D01*
G01*
X123157000Y-149405750D01*
G75*
G02*
X122938250Y-149624500I-218750J0D01*
G01*
X122425750Y-149624500D01*
G75*
G02*
X122207000Y-149405750I0J218750D01*
G01*
X122207000Y-148968250D01*
G75*
G02*
X122425750Y-148749500I218750J0D01*
G01*
G37*
G36*
G01*
X122425750Y-147174500D02*
X122938250Y-147174500D01*
G75*
G02*
X123157000Y-147393250I0J-218750D01*
G01*
X123157000Y-147830750D01*
G75*
G02*
X122938250Y-148049500I-218750J0D01*
G01*
X122425750Y-148049500D01*
G75*
G02*
X122207000Y-147830750I0J218750D01*
G01*
X122207000Y-147393250D01*
G75*
G02*
X122425750Y-147174500I218750J0D01*
G01*
G37*
G36*
G01*
X120842750Y-142741000D02*
X120330250Y-142741000D01*
G75*
G02*
X120111500Y-142522250I0J218750D01*
G01*
X120111500Y-142084750D01*
G75*
G02*
X120330250Y-141866000I218750J0D01*
G01*
X120842750Y-141866000D01*
G75*
G02*
X121061500Y-142084750I0J-218750D01*
G01*
X121061500Y-142522250D01*
G75*
G02*
X120842750Y-142741000I-218750J0D01*
G01*
G37*
G36*
G01*
X120842750Y-144316000D02*
X120330250Y-144316000D01*
G75*
G02*
X120111500Y-144097250I0J218750D01*
G01*
X120111500Y-143659750D01*
G75*
G02*
X120330250Y-143441000I218750J0D01*
G01*
X120842750Y-143441000D01*
G75*
G02*
X121061500Y-143659750I0J-218750D01*
G01*
X121061500Y-144097250D01*
G75*
G02*
X120842750Y-144316000I-218750J0D01*
G01*
G37*
G36*
G01*
X152394500Y-137543250D02*
X152394500Y-137030750D01*
G75*
G02*
X152613250Y-136812000I218750J0D01*
G01*
X153050750Y-136812000D01*
G75*
G02*
X153269500Y-137030750I0J-218750D01*
G01*
X153269500Y-137543250D01*
G75*
G02*
X153050750Y-137762000I-218750J0D01*
G01*
X152613250Y-137762000D01*
G75*
G02*
X152394500Y-137543250I0J218750D01*
G01*
G37*
G36*
G01*
X150819500Y-137543250D02*
X150819500Y-137030750D01*
G75*
G02*
X151038250Y-136812000I218750J0D01*
G01*
X151475750Y-136812000D01*
G75*
G02*
X151694500Y-137030750I0J-218750D01*
G01*
X151694500Y-137543250D01*
G75*
G02*
X151475750Y-137762000I-218750J0D01*
G01*
X151038250Y-137762000D01*
G75*
G02*
X150819500Y-137543250I0J218750D01*
G01*
G37*
G36*
G01*
X127154650Y-142778900D02*
X126642150Y-142778900D01*
G75*
G02*
X126423400Y-142560150I0J218750D01*
G01*
X126423400Y-142122650D01*
G75*
G02*
X126642150Y-141903900I218750J0D01*
G01*
X127154650Y-141903900D01*
G75*
G02*
X127373400Y-142122650I0J-218750D01*
G01*
X127373400Y-142560150D01*
G75*
G02*
X127154650Y-142778900I-218750J0D01*
G01*
G37*
G36*
G01*
X127154650Y-144353900D02*
X126642150Y-144353900D01*
G75*
G02*
X126423400Y-144135150I0J218750D01*
G01*
X126423400Y-143697650D01*
G75*
G02*
X126642150Y-143478900I218750J0D01*
G01*
X127154650Y-143478900D01*
G75*
G02*
X127373400Y-143697650I0J-218750D01*
G01*
X127373400Y-144135150D01*
G75*
G02*
X127154650Y-144353900I-218750J0D01*
G01*
G37*
G36*
G01*
X152432500Y-135828750D02*
X152432500Y-135316250D01*
G75*
G02*
X152651250Y-135097500I218750J0D01*
G01*
X153088750Y-135097500D01*
G75*
G02*
X153307500Y-135316250I0J-218750D01*
G01*
X153307500Y-135828750D01*
G75*
G02*
X153088750Y-136047500I-218750J0D01*
G01*
X152651250Y-136047500D01*
G75*
G02*
X152432500Y-135828750I0J218750D01*
G01*
G37*
G36*
G01*
X150857500Y-135828750D02*
X150857500Y-135316250D01*
G75*
G02*
X151076250Y-135097500I218750J0D01*
G01*
X151513750Y-135097500D01*
G75*
G02*
X151732500Y-135316250I0J-218750D01*
G01*
X151732500Y-135828750D01*
G75*
G02*
X151513750Y-136047500I-218750J0D01*
G01*
X151076250Y-136047500D01*
G75*
G02*
X150857500Y-135828750I0J218750D01*
G01*
G37*
G36*
G01*
X129925500Y-145882200D02*
X132075500Y-145882200D01*
G75*
G02*
X132325500Y-146132200I0J-250000D01*
G01*
X132325500Y-146882200D01*
G75*
G02*
X132075500Y-147132200I-250000J0D01*
G01*
X129925500Y-147132200D01*
G75*
G02*
X129675500Y-146882200I0J250000D01*
G01*
X129675500Y-146132200D01*
G75*
G02*
X129925500Y-145882200I250000J0D01*
G01*
G37*
G36*
G01*
X129925500Y-143082200D02*
X132075500Y-143082200D01*
G75*
G02*
X132325500Y-143332200I0J-250000D01*
G01*
X132325500Y-144082200D01*
G75*
G02*
X132075500Y-144332200I-250000J0D01*
G01*
X129925500Y-144332200D01*
G75*
G02*
X129675500Y-144082200I0J250000D01*
G01*
X129675500Y-143332200D01*
G75*
G02*
X129925500Y-143082200I250000J0D01*
G01*
G37*
G36*
G01*
X115790400Y-144691400D02*
X117940400Y-144691400D01*
G75*
G02*
X118190400Y-144941400I0J-250000D01*
G01*
X118190400Y-145691400D01*
G75*
G02*
X117940400Y-145941400I-250000J0D01*
G01*
X115790400Y-145941400D01*
G75*
G02*
X115540400Y-145691400I0J250000D01*
G01*
X115540400Y-144941400D01*
G75*
G02*
X115790400Y-144691400I250000J0D01*
G01*
G37*
G36*
G01*
X115790400Y-141891400D02*
X117940400Y-141891400D01*
G75*
G02*
X118190400Y-142141400I0J-250000D01*
G01*
X118190400Y-142891400D01*
G75*
G02*
X117940400Y-143141400I-250000J0D01*
G01*
X115790400Y-143141400D01*
G75*
G02*
X115540400Y-142891400I0J250000D01*
G01*
X115540400Y-142141400D01*
G75*
G02*
X115790400Y-141891400I250000J0D01*
G01*
G37*
G36*
G01*
X97484250Y-79433000D02*
X96571750Y-79433000D01*
G75*
G02*
X96328000Y-79189250I0J243750D01*
G01*
X96328000Y-78701750D01*
G75*
G02*
X96571750Y-78458000I243750J0D01*
G01*
X97484250Y-78458000D01*
G75*
G02*
X97728000Y-78701750I0J-243750D01*
G01*
X97728000Y-79189250D01*
G75*
G02*
X97484250Y-79433000I-243750J0D01*
G01*
G37*
G36*
G01*
X97484250Y-81308000D02*
X96571750Y-81308000D01*
G75*
G02*
X96328000Y-81064250I0J243750D01*
G01*
X96328000Y-80576750D01*
G75*
G02*
X96571750Y-80333000I243750J0D01*
G01*
X97484250Y-80333000D01*
G75*
G02*
X97728000Y-80576750I0J-243750D01*
G01*
X97728000Y-81064250D01*
G75*
G02*
X97484250Y-81308000I-243750J0D01*
G01*
G37*
G36*
G01*
X81522250Y-79761500D02*
X82434750Y-79761500D01*
G75*
G02*
X82678500Y-80005250I0J-243750D01*
G01*
X82678500Y-80492750D01*
G75*
G02*
X82434750Y-80736500I-243750J0D01*
G01*
X81522250Y-80736500D01*
G75*
G02*
X81278500Y-80492750I0J243750D01*
G01*
X81278500Y-80005250D01*
G75*
G02*
X81522250Y-79761500I243750J0D01*
G01*
G37*
G36*
G01*
X81522250Y-77886500D02*
X82434750Y-77886500D01*
G75*
G02*
X82678500Y-78130250I0J-243750D01*
G01*
X82678500Y-78617750D01*
G75*
G02*
X82434750Y-78861500I-243750J0D01*
G01*
X81522250Y-78861500D01*
G75*
G02*
X81278500Y-78617750I0J243750D01*
G01*
X81278500Y-78130250D01*
G75*
G02*
X81522250Y-77886500I243750J0D01*
G01*
G37*
M02*
